<svg width="164" height="234" viewBox="0 0 164 234" fill="none" xmlns="http://www.w3.org/2000/svg">
<g clip-path="url(#clip0_2635_7487)">
<path d="M99.8754 -0.078125C108.62 -0.0129049 119.083 3.29662 121.954 12.4932C123.594 17.7449 123.274 21.234 120.846 26.0644C122.705 29.2101 126.445 30.6486 129.124 33.3402C126.9 34.7304 126.314 35.3454 123.833 36.1175C114.136 39.1347 108.535 34.8145 103.303 26.8863C102.042 24.9736 100.385 21.9813 98.3092 20.9683C96.5032 20.0875 94.2064 20.1688 92.355 20.8659C87.391 22.7363 85.0615 26.8514 82.8952 31.3066C82.9122 30.1563 82.7661 28.4816 82.1177 27.5895C76.1564 19.3703 64.0775 21.6932 58.1386 28.6928C56.5593 30.3809 55.2764 32.8814 53.5904 34.4287C47.1226 40.3651 40.1108 46.6084 30.929 47.3521C26.9195 47.677 25.1565 47.6146 21.3111 46.6247C25.8589 49.2621 32.8464 48.6744 37.622 46.9621C43.9177 44.7049 49.7598 39.4519 54.309 34.7318C56.2584 32.7092 57.6756 29.7934 59.968 27.9682C65.8642 22.5033 74.5902 20.912 80.6196 27.0758C82.2171 28.7083 82.2511 30.5738 82.1362 32.7397C81.9276 32.2983 81.7163 31.8589 81.5006 31.4213C79.5471 27.4627 76.6005 25.7864 72.4154 28.1254C66.5322 31.4135 65.2558 37.8836 61.1862 42.8341C57.1343 47.763 52.8557 51.6166 47.0832 54.4481C42.7333 56.6772 37.4052 57.2783 32.5697 56.5393C31.3824 56.3579 29.8564 55.6149 28.652 55.2207C33.4136 59.1227 42.4056 57.677 47.618 55.3434C49.1137 54.6738 50.5377 53.3255 52.0839 52.6426C52.7361 52.987 52.585 52.9581 53.1554 52.6297C58.6571 49.442 64.4536 46.7895 70.4645 44.7088C71.1868 44.4641 72.2664 44.016 72.963 44.3582C73.3588 45.465 73.5943 47.6797 72.7828 48.6239C72.5714 48.8689 72.3004 49.0561 71.9968 49.1675C71.4294 49.3778 70.1883 49.6174 69.3665 49.8953C65.2514 51.2869 61.0037 52.6586 56.7827 53.6625C55.3028 54.0146 53.404 54.0459 51.8526 54.1642C51.3397 57.9993 51.3419 62.4625 51.3446 66.3356C51.3428 70.4846 51.3677 74.6335 51.4197 78.7821C51.456 82.0595 51.5323 86.0401 51.151 89.2789C50.5521 88.6014 50.079 87.8166 49.4708 87.1419C46.1979 83.5112 41.985 80.8505 37.0241 80.423C35.0869 80.2559 33.3214 80.1542 31.461 80.8884C29.4041 81.7234 27.7648 83.3402 26.9049 85.3819C24.2845 91.6125 29.7285 98.2023 35.3593 100.431C41.3052 102.785 44.7456 102.594 50.5127 100.276C48.7174 101.802 46.9003 102.875 44.51 103.169C38.0491 103.971 30.28 100.793 26.9061 95.0699C23.6431 89.5354 24.6323 83.6765 30.3288 80.429C31.8168 79.6754 33.1093 79.4645 34.74 79.2695C33.0075 77.4572 31.2433 76.4277 29.1369 75.1181C23.8752 75.9764 18.5997 71.4814 17.7416 66.5168C17.5352 65.3225 17.2068 63.4028 17.3749 62.2205C17.419 62.4499 17.4688 62.6782 17.5242 62.9052C18.8589 68.3543 23.273 76.1875 30.0899 74.2614C35.0192 72.8687 44.3631 67.3236 47.0276 62.7959C42.6759 66.7999 33.9581 72.652 28.4215 74.3251C25.1856 72.5859 21.972 69.5011 20.5287 66.0584C21.4219 66.6617 22.6242 67.2976 23.6723 67.5255C31.7395 69.2791 46.8216 64.3426 50.5273 56.7455C49.318 57.791 47.5591 59.8069 46.2965 60.5846C40.3507 64.2473 26.28 70.587 20.216 65.1159C19.0203 58.3516 22.9779 58.0782 23.559 52.7204C23.2762 48.7946 19.344 45.9225 21.1011 41.6023C24.3025 33.7309 35.4474 32.4426 42.5905 34.8849C42.2491 28.8711 39.6307 22.3778 44.2604 17.0994C48.2567 12.5429 53.9612 11.9838 59.6539 12.5531C66.2381 13.2116 70.1604 15.4213 75.1676 19.5458C78.1851 11.7881 83.0129 7.37932 91.0583 5.0188C97.5488 3.11455 106.206 3.45819 112.195 6.73023C113.929 7.66198 115.441 8.95323 116.633 10.5168C120.39 15.4326 118.964 19.7138 120.646 25.4383C120.959 24.6186 121.18 23.6437 121.342 22.7833C122.238 17.9979 121.517 12.8966 118.659 8.86834C115.384 4.25257 110.162 2.42528 104.81 1.50371C96.8848 0.139464 89.8553 2.04216 83.213 6.39804C81.5588 7.48797 79.7712 8.5554 78.3923 9.99038C76.5437 11.9137 75.5734 14.5639 73.3006 16.1092C71.1939 14.2938 69.4783 13.8365 66.9143 12.9728C50.1509 7.32612 33.7732 12.4147 40.9238 33.1919C39.9009 32.0362 39.0967 30.765 38.749 29.2474C33.596 6.75838 59.9524 7.15154 73.4652 14.9854C76.0699 11.9222 76.6076 9.75751 80.0905 7.33263C86.6774 2.74572 91.6612 0.274573 99.8754 -0.078125Z" fill="black"/>
<path d="M73.5589 26.4863L73.7164 26.5818C73.1461 27.0447 72.2523 27.1388 71.5955 27.497C67.6776 29.638 65.3585 33.2911 62.5743 36.64C54.7371 46.0666 41.5545 52.3015 29.2006 51.4465C27.5447 51.3319 25.6987 51.1899 24.1158 50.7186C23.818 50.5309 23.9074 50.6021 23.6755 50.3426C23.9369 50.2802 26.5851 50.7009 27.2025 50.7612C37.7622 51.8257 49.1371 47.4337 57.2794 40.8834C63.2188 36.1051 65.1914 28.1982 73.5589 26.4863Z" fill="white"/>
<path d="M135.462 26.8027C135.55 26.8671 135.682 27.0224 135.762 27.1087C136.14 28.3261 136.038 29.5983 135.887 30.8407C135.511 33.9549 134.436 36.5239 131.919 38.4983C133.683 40.0915 135.233 41.6445 135.9 43.9993C137.276 48.8652 133.615 54.7005 129.774 57.4572C128.234 58.5634 126.456 59.2306 124.902 60.3645C120.541 63.5175 116.532 67.1277 112.942 71.133C112.458 71.6737 110.765 73.3653 110.975 74.062C111.643 74.2121 112.683 73.5343 113.278 73.2507C120.085 70.2479 128.367 70.486 127.58 80.2434C127.046 86.8416 119.422 96.1895 112.391 95.3657C112.343 97.6361 112.089 99.8973 111.632 102.122C110.401 107.849 107.983 113.181 103.459 117.074C102.223 118.136 100.945 118.917 99.5804 119.797L100.415 143.352C100.565 148.459 100.565 153.71 100.832 158.806C103.804 161.351 106.833 164.601 109.642 167.366C111.016 168.717 112.51 170.603 113.956 171.829C114.688 172.452 116.261 173.467 117.095 174.055C119.388 175.681 121.688 177.297 123.997 178.901C130.235 183.167 136.354 187.605 142.345 192.21C147.024 195.808 150.644 198.098 153.607 203.411C158.294 211.823 161.513 220.683 163.686 230.05C163.865 230.824 164.182 231.244 163.966 232.02C162.527 233.146 162.073 230.714 161.879 229.743C160.143 221.051 156.844 212.831 152.781 204.987C150.755 201.075 148.596 198.434 145.021 195.799C137.202 189.433 128.895 183.74 120.841 177.689C118.606 176.011 116.477 174.185 114.255 172.488C117.888 176.665 121.063 180.401 123.146 185.597C125.168 190.642 121.855 189.059 119.048 187.778C119.548 188.59 120.375 190.214 119.618 191.046C117.948 191.293 113.791 189.625 112.008 190.995C110.633 193.879 121.476 199.39 123.48 200.71C122.163 209.793 121.605 221.477 121.91 230.761C116.681 231.413 110.638 232.146 105.38 232.471C105.403 224.359 106.128 216.264 107.543 208.276C108.447 202.866 109.388 197.363 110.789 192.064C111.021 191.193 112.065 188.607 111.189 188.045C110.656 188.385 110.33 190.603 110.142 191.336C109.469 193.889 108.832 196.453 108.233 199.026C106.816 205.214 105.783 211.995 104.886 218.277C104.238 222.821 103.495 228.032 103.622 232.608C101.901 232.819 99.0583 232.939 97.2949 233.028C97.424 231.178 97.685 229.272 97.7772 227.413C98.3206 216.465 99.1122 205.802 100.524 194.929C101.454 187.748 103.338 180.951 104.522 173.961C103.473 172.858 100.149 169.52 99.9492 168.258C99.4697 165.243 99.5889 160.344 99.5165 157.305C99.2413 148.257 99.0569 139.204 98.9618 130.151L98.8185 130.244C95.259 132.534 89.8127 131.425 85.8475 130.617C77.656 128.947 68.497 124.426 62.6513 118.378C60.6879 116.347 57.2288 111.283 55.5737 108.719C57.073 109.949 58.7819 111.544 60.3321 112.615C67.587 117.629 75.0257 119.858 83.501 121.464C83.8457 118.984 84.1933 117.421 85.1282 115.11C85.1296 116.044 84.4572 121.382 84.5309 121.557L84.809 121.588C85.1537 121.044 84.9622 120.257 85.1225 119.628C85.6914 117.391 85.9255 114.792 86.9923 112.733C86.7696 113.895 85.9624 120.707 86.1227 121.604C86.5355 121.066 87.5485 114.764 87.8053 113.57C88.055 112.384 88.3628 111.211 88.7246 110.055C88.7132 113.495 87.4364 119.438 87.6591 122.343C87.6861 122.266 87.7854 121.965 87.8109 121.903C89.2154 118.598 88.7771 112.309 89.9432 109.407C89.773 112.574 89.9276 115.778 89.6013 118.939C89.5204 119.731 89.3743 120.452 89.397 121.253L89.6098 121.436L89.8808 121.355C90.2908 120.813 90.1787 120.107 90.2426 119.407C90.5533 116.004 90.4156 112.686 90.7746 109.28C91.5236 112.582 91.342 117.96 90.8412 121.332C91.5421 121.17 92.2457 121.027 92.9537 120.904C93.6971 117.473 93.4687 111.775 93.6687 108.23C94.6079 110.644 94.5568 115.386 94.493 118.026C94.4731 118.885 94.3014 119.589 94.3809 120.459C94.9455 120.542 96.7033 119.864 97.3005 119.643C96.9118 115.506 97.9985 112.068 96.0606 108.117C98.9377 111.14 98.2964 115.156 98.3716 118.934L98.5362 119.008C99.3179 118.376 98.8355 113.258 98.7632 112.101C98.7391 111.708 98.3234 110.566 98.1631 110.127C100.534 113.209 99.9067 114.414 100.256 117.859L100.504 117.954C101.003 117.319 100.62 113.806 100.521 112.78C101.369 114.445 101.542 115.246 101.629 117.075C105.583 113.425 107.82 110.546 109.49 105.355C112.808 95.0386 110.802 84.5855 109.732 74.1328C108.958 66.687 108.268 59.2327 107.661 51.7714C103.729 50.5881 99.979 48.7871 95.8407 48.2666C94.5809 48.1081 93.1636 47.8883 91.9322 47.5938L91.7109 47.54C92.0996 46.517 92.6089 44.6149 93.1395 43.7694C93.7368 43.4186 95.1072 43.9118 95.7258 44.1654C99.5151 45.7221 104.551 46.9593 107.585 49.7855C107.359 48.7109 107.152 47.7423 106.861 46.6848C108.813 47.1694 110.477 48.0803 112.588 48.4322C123.453 50.2419 131.75 41.6695 134.733 32.043C135.269 30.3157 135.13 28.5074 135.462 26.8027Z" fill="black"/>
<path d="M119.121 72.3505C120.609 72.1336 123.238 72.4927 124.395 73.4021C128.473 76.6089 125.87 84.0713 123.331 87.4315C120.778 90.8086 116.719 93.9076 112.512 94.596C112.607 92.6427 112.59 91.0957 112.517 89.1647C112.436 86.8845 112.238 84.61 111.919 82.3505C114.112 80.8527 117.549 78.8967 120.136 80.5251C120.363 80.6674 120.287 80.622 120.59 80.6123C120.658 79.1004 118.332 79.1477 117.257 79.2062C115.187 79.3193 113.229 80.3461 111.852 81.8804C111.615 79.5741 111.405 77.1456 111.053 74.8646C114.013 73.463 115.888 72.6647 119.121 72.3505Z" fill="white"/>
<path d="M100.683 159.909C101.269 160.281 104.881 164.32 105.59 165.094C111.101 171.107 120.446 180.027 122.362 187.926C119.074 186.402 116.849 184.776 113.245 184.09C104.851 183.094 105.066 186.113 102.128 192.987C102.775 189.574 103.192 186.062 103.909 182.54C104.526 179.505 105.817 173.825 106.064 170.912C105.655 170.06 104.373 168.3 103.782 167.441C102.737 165.929 101.724 164.393 100.745 162.835L100.683 159.909Z" fill="white"/>
<path d="M132.797 40.2939C137.79 44.7697 133.613 51.7259 130.204 55.6395C129.628 56.261 129.429 56.431 128.747 56.9374C132.461 52.149 133.284 46.1855 132.797 40.2939Z" fill="white"/>
<path d="M51.0767 99.8545C52.3008 100.733 53.1319 105.917 53.419 107.466C55.7112 119.829 56.1585 132.39 56.7134 144.918C57.029 152.935 57.4396 160.94 57.3055 168.967C57.2379 173.02 55.9545 173.581 53.1713 176.168C53.7388 178.726 54.3518 180.993 55.0653 183.518C56.8714 184.587 59.0891 185.422 61.0094 186.282C75.2031 192.633 91.0555 193.502 102.955 181.969C100.366 186.275 93.1338 190.006 88.3245 190.923C77.2091 193.039 64.6227 189.853 55.1876 183.829C57.1722 190.976 59.3558 198.067 61.7358 205.093C63.3195 209.745 64.99 214.122 66.4851 218.844C68.1353 224.056 69.2467 228.575 70.4854 233.883C65.9175 234.01 61.3468 234.003 56.7793 233.863C56.2795 231.522 55.9667 228.5 55.5025 226.018C53.511 215.368 51.4356 205.495 47.5199 195.356C47.9476 194.751 48.8242 193.78 49.3335 193.185C46.8938 193.331 43.322 194.377 40.9983 195.231C40.2156 195.59 39.0024 196.385 38.3563 195.622C38.2381 194.735 39.3131 192.429 39.6903 191.49C38.4074 192.241 37.3865 192.932 36.2566 193.909C35.5029 194.56 34.1417 196.286 33.3052 196.316C33.1831 196.227 32.8875 196.062 32.8803 195.91C32.6671 191.418 34.9021 186.445 36.8601 182.587C32.3711 186.404 26.1211 190.29 21.2136 193.749C18.5489 195.628 14.8246 197.689 12.4097 199.887C11.817 200.426 11.0368 202.712 10.7098 203.582C18.5056 209.314 23.6547 217.844 26.7434 226.838C27.3672 228.654 28.1909 230.437 28.6932 232.3C19.0755 231.503 12.3265 230.079 2.93897 228.474C2.63934 229.751 2.09953 233.235 0.858749 233.664C0.373842 233.512 0.0320805 232.813 0.13834 232.356C0.5848 230.432 1.31443 228.429 1.89822 226.54C2.77795 223.656 3.61411 220.758 4.40617 217.85C5.88458 212.524 8.07404 204.531 10.9554 199.643C11.7928 198.221 17.1932 195 18.9856 193.834C23.3643 191.03 27.6946 188.151 31.9741 185.2C33.6126 184.071 35.5277 182.802 37.0881 181.595C38.3123 180.455 39.073 178.811 40.0079 177.41C44.2309 171.084 50.1832 165.601 55.7631 160.463C55.7132 158.419 55.5943 156.384 55.5103 154.343C54.9814 141.494 54.9175 128.55 53.4886 115.763C53.0906 112.008 52.5595 108.267 51.8964 104.55C51.7057 103.49 50.8851 100.481 51.0767 99.8545Z" fill="black"/>
<path d="M55.7221 161.532C56.4171 163.834 50.6305 168.431 51.1213 171.3C52.7609 180.886 55.9006 190.245 58.6607 199.564C59.7485 203.236 61.1885 206.794 62.1635 210.515C59.4987 204.957 57.0926 199.194 54.3974 193.715C53.6476 192.022 52.156 188.957 51.0169 187.572C49.9457 187.224 48.7948 186.893 47.667 186.894C43.6186 186.9 36.876 191.362 34.1343 194.073C37.0876 179.044 45.7739 171.924 55.7221 161.532Z" fill="white"/>
<path d="M10.5684 203.943C16.4307 208.445 22.951 218.429 25.6727 225.231C26.0342 226.135 26.7109 227.731 26.9115 228.644L26.7793 228.561C24.1036 224.769 22.0481 220.828 19.4532 217.101C16.9952 213.568 12.8562 209.393 9.71533 206.276L10.5684 203.943Z" fill="white"/>
<path d="M58.7708 213.111C59.4937 212.747 60.3754 213.037 60.7406 213.758C61.1058 214.479 60.8162 215.358 60.0937 215.723C59.3706 216.088 58.4876 215.799 58.122 215.077C57.7565 214.356 58.0471 213.475 58.7708 213.111Z" fill="white"/>
<path d="M60.7776 222.751C61.4244 222.477 62.1718 222.775 62.4503 223.419C62.7287 224.063 62.4339 224.81 61.7903 225.09C61.1415 225.374 60.3851 225.077 60.1045 224.429C59.8237 223.78 60.1257 223.027 60.7776 222.751Z" fill="white"/>
<path d="M95.1483 20.9915C99.0312 20.7903 100.382 23.3793 102.171 26.2327C104.873 30.5454 108.021 35.2626 113.065 37.0152C117.554 38.575 122.756 37.4555 126.904 35.4108C127.947 34.8969 128.696 34.0437 129.743 33.549L130.034 33.8425L130.235 33.8185C130.583 33.4154 130.542 33.6078 130.618 33.1786L130.198 33.2238C130.248 33.0405 132.546 30.4024 132.905 29.9776C132.514 31.4578 131.407 35.7765 130.57 37.3302C130.478 37.5021 130.466 37.1602 130.079 37.481C130.079 37.4789 130.038 37.963 130.038 37.9606C130.045 38.0097 130.028 38.4604 129.984 38.5422C129.672 39.1379 129.126 39.793 128.72 40.3372C126.863 42.8307 125.779 44.2489 122.959 45.687C118.974 47.6939 114.36 48.0684 110.103 46.7305C102.002 43.5689 101.562 38.4192 97.0096 31.7873C92.3237 31.4763 88.9812 31.8869 85.0401 34.27C87.8165 30.8744 89.0635 30.6476 92.7989 28.7484C88.7486 29.4924 86.2517 31.1398 84.0683 34.6369C83.6342 35.3317 82.5234 35.8656 81.7743 35.1697C81.5019 34.2657 82.5163 32.4179 82.9277 31.398C82.9277 32.5864 82.7419 34.0331 82.6213 35.2358C83.2228 34.2119 83.5618 33.0164 83.9775 31.903C85.836 26.932 89.4182 21.5843 95.1483 20.9915Z" fill="black"/>
<path d="M97.834 22.8867C99.413 23.9887 101.142 27.7233 102.169 29.4796C104.452 33.3342 107.705 37.7203 112.323 38.8475C118.648 40.391 123.891 38.5633 129.278 35.509L129.247 35.7632C128.336 36.5593 127.358 37.276 126.325 37.9056C122.394 40.2525 116.857 40.8031 112.459 39.7265C104.723 37.8332 101.574 29.1777 97.834 22.8867Z" fill="white"/>
<path d="M41.1587 201.008C41.5356 201.311 41.932 203.286 42.1045 203.892C44.8552 213.568 45.525 223.575 46.1584 233.56C44.8186 233.42 43.1026 233.406 41.7223 233.333C39.1783 233.189 36.6353 233.026 34.0936 232.847C33.4751 232.804 31.8128 232.86 31.3743 232.404C30.7929 231.801 28.6334 220.403 28.3919 218.661C28.2152 217.385 28.1115 216.13 28.1624 214.844C31.299 210.695 37.3644 204.852 41.1587 201.008Z" fill="black"/>
<path d="M45.2758 197.069C46.7277 198.626 54.2015 229.602 54.708 233.803L52.0286 233.728C50.464 233.723 49.0818 233.659 47.5225 233.571C46.4126 223.488 45.2399 209.564 42.1516 200.074C43.0939 199.098 44.2819 198.019 45.2758 197.069Z" fill="black"/>
<path d="M124.612 201.356C126.232 202.132 128.607 203.503 129.414 205.193C130.739 207.972 131.074 226.057 129.899 229.047C129.676 229.616 129.29 229.776 128.76 229.984L123.529 230.631C123.278 228.242 123.274 225.515 123.267 223.118C123.288 215.845 123.736 208.577 124.612 201.356Z" fill="black"/>
<path d="M95.7385 77.6387C96.7202 77.8301 98.6596 79.3648 99.4639 79.9784L98.1616 78.3544C100.356 79.2403 102.192 80.4022 104.567 80.9159C105.004 81.0107 106.198 81.411 106.423 81.8187L106.261 81.8198C105.774 81.5349 104.903 81.0054 104.337 81.1054V81.1051L104.331 81.1555C104.798 81.4039 105.488 81.7124 105.6 82.245L105.181 82.4883L105.664 82.7374C105.208 83.2647 105.706 82.7538 105.326 83.0153C94.4617 90.4897 80.4465 89.8443 68.4854 85.737C67.2177 85.2824 65.8973 84.7557 64.7141 84.1197L64.7728 84.0035C67.5259 84.9767 70.0651 85.8134 72.9019 86.5158C82.4 88.8671 95.5952 88.3551 104.075 83.1128L104.065 82.9502L102.957 82.4893C102.257 82.2004 101.852 81.7412 101.291 81.2193C101.718 81.8043 102.503 82.5749 101.952 83.2159C100.138 83.4549 95.9158 78.8794 95.7385 77.6387Z" fill="black"/>
<path d="M70.6731 30.7598C71.6548 29.8012 72.3032 29.1252 73.475 28.4434C76.9635 26.4137 80.1613 29.0835 80.9415 32.5565C81.1203 33.3566 81.1983 34.1842 81.3643 34.9687C80.157 34.2217 79.3767 33.4835 78.4674 32.394L78.0829 32.5718L77.8942 32.8077C77.1026 32.7487 75.4427 32.0581 74.6029 31.7912C73.2537 31.3628 72.0932 30.9939 70.6731 30.7598Z" fill="black"/>
<path d="M78.083 32.572C77.5807 31.6639 76.4188 29.9072 76.1152 29.1475C76.8161 29.9028 77.8276 31.4742 78.4674 32.3942L78.083 32.572Z" fill="#E0E0E1"/>
<path d="M58.3623 190.704C59.7146 190.782 63.0007 192.323 64.3307 192.891C73.8752 196.971 82.8526 199.211 92.8288 194.701C94.2418 194.063 95.5002 193.379 96.8281 192.545C97.5247 192.108 98.6568 191.175 99.3307 190.888L99.2328 191.151C98.4667 191.816 97.685 192.512 96.8763 193.125C88.6976 199.357 77.1439 199.304 68.0369 195.202C64.9646 193.817 61.3312 192.291 58.3623 190.704Z" fill="black"/>
<path d="M88.8962 44.5576C88.8579 45.2599 84.3592 57.8552 83.7478 59.3597C84.8926 60.7756 91.1604 70.5179 90.8284 71.6585C89.8963 71.0095 85.8134 63.6624 85.0104 62.2501C84.5734 61.3519 84.2528 60.6432 83.6811 59.8207L83.5633 59.8115C83.8357 60.9642 84.8061 63.4023 85.2587 64.7242C84.4543 63.8055 82.7334 60.7346 82.9264 59.6264C83.596 55.7554 84.4656 50.3413 85.7666 46.7378C85.6006 49.0178 84.7352 52.575 84.721 54.5538C85.0898 54.0015 85.253 53.0594 85.5211 52.4328C86.4688 50.2203 87.3399 46.3875 88.8962 44.5576Z" fill="black"/>
<path d="M66.4814 60.8942C68.2955 60.7177 72.099 61.0687 73.2935 62.5914C72.614 63.1766 71.0804 61.956 69.4072 62.2214C69.2769 62.6276 69.1172 63.0237 68.9295 63.4068C67.8835 65.5125 65.6889 64.9069 65.2269 62.76C65.1548 62.4247 65.2321 62.411 65.0619 62.0556C61.2513 62.8716 60.0165 63.7493 56.6147 64.81C59.4165 62.5152 62.8648 61.1468 66.4814 60.8942Z" fill="black"/>
<path d="M32.1224 32.5963C35.1523 32.3256 38.9539 32.6068 41.6453 34.1096C33.4567 32.4542 22.1235 31.9226 18.8063 41.4929C17.83 44.7577 18.7228 46.3726 20.5411 48.9779C20.3435 48.8281 20.1485 48.6747 19.9565 48.5181C16.1466 45.4013 17.115 40.8088 19.9284 37.4123C22.9199 33.8004 27.6661 32.9674 32.1224 32.5963Z" fill="black"/>
<path d="M53.5213 224.036C51.7963 217.23 50.4596 210.344 48.3831 203.599C48.1185 202.74 46.2661 196.784 46.3249 196.457C46.6293 196.064 46.4513 196.132 46.8156 196.072C47.3327 197.156 48.2982 200.704 48.7065 202.088C50.8032 209.196 52.8517 216.81 53.9954 224.127C54.346 225.741 54.583 227.021 54.8207 228.654L54.5544 228.815C54.2847 227.217 53.8883 225.618 53.5213 224.036Z" fill="black"/>
<path d="M147.749 202.349L147.973 202.402L147.901 202.585C146.118 203.377 144.577 204.376 143.003 205.495C137.178 209.64 135.287 214.292 132.163 220.193L131.989 220.184C131.844 218.399 135.477 211.757 136.819 210.034C139.24 206.925 143.726 202.9 147.749 202.349Z" fill="black"/>
<path d="M75.5293 84.3163C77.348 82.3116 78.422 80.145 80.5968 77.8262C80.445 78.2367 79.7839 79.7986 79.7995 80.0871C80.0549 79.6644 80.5585 78.7141 80.9174 78.4682C80.8834 79.424 78.7227 83.163 78.0786 84.0901L77.829 84.1866C77.6474 83.6823 78.0049 83.0835 78.2305 82.6028C78.3652 82.3184 78.5014 82.0349 78.6404 81.7524C78.0616 82.5465 77.4289 83.6407 76.8033 84.2824C76.4287 84.2698 76.2585 84.1662 75.9095 84.0249C75.3548 84.1413 74.1418 84.4498 73.658 84.2275C73.6495 83.6796 74.417 82.8214 74.7802 82.3428L74.5731 82.1187C75.3973 81.1671 76.0059 80.6362 76.9579 79.7932L77.2204 79.9657C77.9127 79.3589 78.5284 78.7681 79.3328 78.3184C77.7793 80.6487 76.8572 81.7665 75.5293 84.3163Z" fill="black"/>
<path d="M74.5732 82.1184C75.3975 81.1668 76.0061 80.6359 76.958 79.793L77.2205 79.9654C76.2388 80.824 75.616 81.3335 74.7804 82.3425L74.5732 82.1184Z" fill="#9E9E97"/>
<path d="M98.6526 59.4692C99.6698 59.4304 100.686 59.5471 101.667 59.8149C102.967 60.1683 104.146 60.7345 104.832 61.9317L104.716 62.0825C103.306 61.7875 100.253 59.7759 98.6725 60.4449L98.8158 60.725C98.9023 61.4613 98.8612 62.4164 98.2114 62.8405C96.248 64.1214 95.3925 62.3636 94.5924 61.3693C93.9284 61.2909 93.1793 61.5578 92.5083 61.7332C94.5356 60.405 96.2664 59.7125 98.6526 59.4692Z" fill="black"/>
<path d="M93.8686 79.0566C93.6927 78.4962 93.4586 78.1359 93.8743 77.6846C94.4347 77.8211 94.6986 78.1582 95.0504 78.6615L95.2561 78.4582C96.0406 78.8476 99.1788 82.4736 99.4554 83.3624L99.3377 83.4896C97.8197 82.7325 96.889 83.6643 95.632 82.483L95.5186 82.536C94.7085 81.7329 93.9098 80.839 93.1337 79.9977L93.3905 79.75C93.0557 79.327 92.6471 78.9334 92.8231 78.3849C93.3806 78.4683 93.3551 78.6025 93.8686 79.0566Z" fill="black"/>
<path d="M93.8688 79.0566C93.6929 78.4962 93.4588 78.1359 93.8745 77.6846C94.4349 77.8211 94.6988 78.1582 95.0506 78.6615C94.791 79.1698 94.8435 79.3121 94.896 79.8815L95.1527 79.9202L95.1655 80.2007C94.9087 80.2178 94.9938 80.2618 94.8804 80.1837L95.035 80.0159L94.9924 79.969L94.7853 80.0827C94.6917 79.9088 94.7229 80.0135 94.7371 79.7582C94.5753 79.6515 93.8532 79.0485 93.8688 79.0566Z" fill="#262527"/>
<path d="M93.3906 79.75C94.1411 80.6212 94.9199 81.6891 95.6321 82.483L95.5186 82.5361C94.7085 81.7329 93.9098 80.8391 93.1338 79.9977L93.3906 79.75Z" fill="#E0E0E1"/>
<path d="M90.3702 78.1671C90.8795 78.0396 90.7915 77.9815 91.2228 78.1112C91.9719 78.555 92.5479 79.3262 93.1338 79.9976C93.9098 80.839 94.7085 81.7328 95.5186 82.536L95.7186 82.9803L95.5739 83.2244C94.6944 83.5559 94.8249 83.2487 94.1467 83.3165C91.708 83.5604 91.7307 81.6141 90.722 79.9854C90.4879 79.608 90.0056 78.5966 90.1475 78.1379L90.3702 78.1671Z" fill="black"/>
<path d="M90.3701 78.1671C90.8794 78.0396 90.7915 77.9815 91.2227 78.1112C91.3263 79.1461 93.0869 80.9595 93.6586 82.3939C92.4669 80.9853 91.4937 79.4887 90.3701 78.1671Z" fill="#E0E0E1"/>
<path d="M67.9487 80.6576C69.1252 80.0062 70.7356 79.0589 71.9202 78.5225C70.191 80.2347 67.1997 81.7327 65.2471 83.2602C64.7134 83.6777 64.0191 83.4717 63.5803 82.9939C63.0677 82.9098 62.4698 83.3217 61.9745 83.5781L61.1321 82.4217C61.9966 81.849 62.9429 81.4098 63.939 81.1194L64.1671 81.2036C64.1323 81.6137 64.0685 81.4475 64.2579 81.7453C65.0163 81.3701 67.1639 80.2364 67.9435 80.1878L67.7781 80.4342L67.9487 80.6576Z" fill="black"/>
<path d="M63.9391 81.1191L64.1672 81.2033C64.1325 81.6135 64.0686 81.4472 64.258 81.745C63.1947 82.2849 62.7885 83.0414 61.9319 83.0121L61.7068 82.757C61.8448 82.1777 63.4074 82.0326 63.9391 81.1191Z" fill="#E0E0E1"/>
<path d="M67.9488 80.658C66.9364 81.2701 65.1929 82.3946 64.163 82.8258L64.0637 82.7178C64.4303 82.1901 67.0417 80.8523 67.7781 80.4346L67.9488 80.658Z" fill="#E0E0E1"/>
<path d="M40.5579 87.167C44.2674 86.9691 47.6877 89.5135 48.6809 93.0574C48.1959 92.64 47.8433 92.0925 47.4169 91.5955C46.3202 90.317 45.5338 89.7422 44.1349 88.8684C43.4309 88.5068 42.846 88.2111 42.0991 88.0592C37.845 87.1939 37.2103 91.2176 36.512 91.6576L36.3718 91.5103C36.3867 89.238 38.5515 87.703 40.5579 87.167Z" fill="black"/>
<path d="M75.5407 78.4463C75.8811 78.56 75.7563 78.5124 76.0372 78.8021L76.3933 78.6101C76.4359 79.1945 75.3775 80.1243 74.9547 80.5629C74.1858 81.2557 72.5487 82.7703 71.6393 83.1448C71.8336 82.8122 72.1188 82.5154 72.3742 82.2218L72.106 81.9376C71.1768 82.8242 70.7682 83.3512 69.5879 83.8762L69.4849 83.7813C70.0809 82.7698 74.5561 78.8723 75.5407 78.4463Z" fill="black"/>
<path d="M72.106 81.9376C71.1768 82.8242 70.7682 83.3512 69.5879 83.8762L69.4849 83.7813C70.0809 82.7698 74.5561 78.8723 75.5407 78.4463C75.2711 79.209 72.848 81.2761 72.106 81.9376Z" fill="black"/>
<path d="M75.5408 78.4463C75.8813 78.56 75.7565 78.5124 76.0374 78.8021C75.0131 79.9974 73.5518 81.1221 72.3743 82.2218L72.1062 81.9376C72.8482 81.2761 75.2713 79.209 75.5408 78.4463Z" fill="#E0E0E1"/>
<path d="M91.4159 71.7695C91.738 71.8155 92.0572 71.8717 92.3749 71.9379C94.9782 72.4563 96.9218 73.1976 93.4943 75.0785C92.1678 75.806 91.0017 76.2931 89.5518 76.7165L89.112 76.7623L88.8765 76.5711L88.9048 76.316C89.6695 75.4609 93.4986 74.1647 94.8293 73.3642C93.866 72.9061 91.8401 72.4413 91.4159 71.7695Z" fill="black"/>
<path d="M94.2163 108.967C96.8664 110.197 96.6607 116.753 95.7769 119.203L95.4789 119.635C95.1541 119.369 95.408 117.8 95.4321 117.261C95.5527 114.593 95.4747 111.378 94.2163 108.967Z" fill="black"/>
<path d="M85.5013 78.3477C85.7368 78.608 84.528 84.6399 82.5717 84.437C82.3858 84.2882 82.1971 84.1931 82.1376 83.9938C81.824 82.9373 83.2626 80.0066 83.7009 78.9617L83.8215 78.6903L84.006 78.66C84.2769 80.3675 82.3404 83.6404 82.3731 83.939C83.508 83.5924 84.5763 79.712 85.5013 78.3477Z" fill="black"/>
<path d="M91.176 109.302C92.9976 110.672 92.7579 117.897 92.4656 119.934L92.2741 120.077C91.9293 119.745 91.9833 118.585 91.9918 118.057C92.0499 114.909 91.7392 112.401 91.176 109.302Z" fill="black"/>
<path d="M74.2922 78.3945L74.2865 78.5135C73.7559 79.4637 69.6888 82.3875 68.5275 83.1516C68.2741 83.3183 67.3778 83.6588 67.045 83.7816L67.0349 83.5212C68.0778 82.131 72.6125 79.2776 74.2922 78.3945Z" fill="black"/>
<path d="M78.1228 78.1602C77.7625 78.7067 77.3453 79.261 76.958 79.7936C76.0061 80.6365 75.3975 81.1675 74.5732 82.1191C73.705 82.9576 73.0467 83.5988 71.8933 84.0368L71.5869 84.0103C71.5004 83.659 71.499 83.8419 71.7089 83.4543L71.6394 83.1458C72.5488 82.7713 74.1859 81.2566 74.9549 80.5638L75.2273 80.8234C76.1678 79.8972 77.0716 78.9592 78.1228 78.1602Z" fill="black"/>
<path d="M74.9549 80.5635L75.2273 80.8231C74.2484 81.6902 72.8538 82.8173 71.7089 83.454L71.6394 83.1454C72.5488 82.7709 74.1859 81.2563 74.9549 80.5635Z" fill="#E0E0E1"/>
<path d="M81.966 78.3682L82.0512 78.4758C82.0412 79.9259 80.2395 83.9317 79.0095 84.7038L78.7839 84.3704C78.6449 83.5275 81.383 79.436 81.966 78.3682Z" fill="black"/>
<path d="M91.179 44.4759C91.4783 43.7444 91.7308 43.428 92.1791 42.7939C91.8415 43.8808 90.7988 47.6821 89.6979 47.9684L89.4879 47.7303C89.4326 46.7677 90.3887 44.1531 91.1633 43.5941L91.0683 43.9894L91.179 44.4759Z" fill="black"/>
<path d="M90.1079 47.3574C90.3221 45.9064 90.386 45.3343 91.0684 43.9893L91.179 44.4758C90.8073 45.4307 90.4498 46.3914 90.1079 47.3574Z" fill="#E0E0E1"/>
<path d="M83.1988 78.332C83.4301 79.3347 81.2878 84.2818 80.4508 84.843C80.1472 83.5505 82.3547 79.4374 83.1988 78.332Z" fill="black"/>
<path d="M87.0576 78.5938C88.0762 79.0586 89.6198 82.3956 89.7574 83.5051C88.2734 83.8124 87.4038 79.7002 87.0576 78.5938Z" fill="black"/>
<path d="M88.4607 78.21C89.3928 78.7254 91.6002 82.5264 91.5336 83.7316C90.4057 82.9698 88.6026 79.5241 88.4607 78.21Z" fill="black"/>
<path d="M86.5042 78.9287L86.5823 79.0173C86.6858 80.2127 85.5764 83.3616 84.9195 84.367C84.8614 84.3117 84.7536 84.1177 84.7053 84.0394C84.755 82.5905 85.8729 80.2574 86.5042 78.9287Z" fill="black"/>
<path d="M83.2116 116.773L83.4613 116.959C83.3918 118.266 83.4159 119.93 82.5363 120.889C82.4469 120.839 82.3036 120.711 82.2171 120.64C82 119.614 82.8002 117.784 83.2116 116.773Z" fill="black"/>
<path d="M35.0949 85.9143C36.0968 85.8013 37.3994 85.6543 38.2783 86.2513C37.8517 86.4318 35.9443 86.2674 34.791 86.5072L34.5872 86.5513C33.4795 86.9785 32.7771 87.5754 31.7888 88.2357C32.9672 86.8624 33.4009 86.4802 35.0949 85.9143Z" fill="black"/>
<path d="M86.5158 74.5645L86.6392 74.6645C86.4037 75.1848 84.2587 76.0819 83.5862 76.3981L83.4741 76.2912L83.5493 76.0471C84.4161 75.2778 85.4362 74.9491 86.5158 74.5645Z" fill="black"/>
<path d="M54.8205 228.653C55.0912 229.894 55.49 232.185 55.5154 233.4L55.5495 233.265L55.3995 233.356C55.1637 232.112 54.6995 229.997 54.5542 228.815L54.8205 228.653Z" fill="#5B5C5F"/>
<path d="M68.038 68.5439L68.2882 68.5841C67.4902 69.0909 65.9263 69.0257 65.005 68.8485L64.449 68.6901C64.8263 68.5431 67.3984 68.5663 68.038 68.5439Z" fill="black"/>
</g>
<defs>
<clipPath id="clip0_2635_7487">
<rect width="164" height="234" fill="white"/>
</clipPath>
</defs>
</svg>
