<svg viewBox="4.96 20.46 469.77 103.15" fill="none" xmlns="http://www.w3.org/2000/svg">
<path d="M399.863 27.2539C400.484 26.6118 402.417 25.8463 403.286 25.4943C409.31 23.0032 415.741 21.6394 422.259 21.4708C435.719 21.2661 448.709 26.4132 458.373 35.7792C468.034 45.1424 473.56 57.9679 473.728 71.4148C473.806 76.2362 472.803 84.8566 470.707 89.3208C470.601 90.2273 469.759 91.969 469.352 92.876C466.032 100.182 461.046 106.611 454.795 111.648C452.915 113.135 445.688 118.187 443.463 118.336C433.86 123.337 419.312 123.717 409.022 120.698C397.104 117.202 385.957 109.006 379.869 98.1371C379.94 98.0603 380.009 97.9808 380.074 97.8989C380.481 97.3831 381.298 96.2021 381.357 95.5638C381.659 92.4062 381.56 89.1029 381.535 85.9218C381.505 82.027 381.592 78.0776 381.493 74.1892C381.36 68.9201 380.635 63.8763 376.27 60.4049C375.518 59.873 374.968 59.5682 374.158 59.1281C374.793 57.0926 375.481 55.0747 376.224 53.0763C380.329 42.2266 389.245 32.0518 399.863 27.2539Z" fill="#1c1c1c"/>
<path d="M440.467 51.8063C443.065 48.1138 445.872 48.1281 448.821 51.5133C449.3 54.1812 449.095 58.1618 449.13 60.9571C449.203 66.8399 448.98 72.8866 449.157 78.758C448.904 83.9303 449.457 89.6647 448.983 94.8292C448.796 95.7525 448.394 96.852 447.703 97.5236C445.402 99.7629 440.838 98.8345 440.49 95.3052C440.175 92.112 440.304 89.0268 440.313 85.8894L440.304 69.6068C440.295 65.3764 440.021 55.7289 440.467 51.8063Z" fill="#FEFEFE"/>
<path d="M398.103 76.0863C401.375 67.9469 404.856 59.7052 408.328 51.6355C408.64 50.9077 409.416 49.7122 410.097 49.3056C411.604 48.4043 414.843 48.6891 415.741 50.4333C417.97 54.7637 419.795 59.5146 421.688 64.0454L433.179 91.4485C434.428 94.4533 435.072 97.2411 431.494 98.9179C430.804 99.2418 429.651 99.2468 429.01 98.8829C426.023 97.1891 423.968 90.7316 422.846 87.6685L420.064 87.6938C414.169 87.5198 407.49 87.668 401.529 87.6611C400.48 90.4395 399.191 93.3913 398.018 96.1025C396.982 98.4982 394.375 99.8787 391.964 98.5492C390.867 97.9449 390.641 96.577 390.34 95.452C390.846 93.1222 392.381 89.7388 393.329 87.474L398.103 76.0863Z" fill="#FEFEFE"/>
<path d="M411.908 63.1379C412.978 64.0314 418.212 77.0652 419.13 79.3383L412.043 79.3339L405.171 79.3222C405.76 78.1495 406.768 75.4596 407.345 74.0938C408.914 70.462 410.435 66.8097 411.908 63.1379Z" fill="#1c1c1c"/>
<path d="M181.485 46.8319C195.81 45.361 208.62 55.7583 210.113 70.0672C211.607 84.376 201.218 97.1894 186.898 98.7021C172.548 100.218 159.69 89.8129 158.194 75.4747C156.697 61.1364 167.131 48.3058 181.485 46.8319ZM185.262 90.6193C204.963 88.6508 204.793 54.846 183.386 55.0823C180.885 55.385 178.948 55.6124 176.711 56.9355C166.352 63.0624 165.896 80.4004 175.24 87.6253C178.42 90.0837 181.328 90.6211 185.262 90.6193Z" fill="#1c1c1c"/>
<path d="M9.62527 46.7802C15.9966 46.2559 23.3558 46.8154 29.7484 46.6993C39.7977 46.517 45.0757 53.5837 43.1046 63.1882C42.4204 66.5225 40.0278 68.3727 37.3473 69.9755C45.6454 73.9647 47.5537 79.8287 45.488 88.7393C45.0622 90.5763 44.1278 91.8705 43.0881 93.4022C41.509 95.0963 39.8612 96.3553 37.7309 97.2862C36.1596 97.9728 34.5277 98.3735 32.8278 98.5792C29.2701 99.0099 11.2488 99.3864 8.64598 98.3341C7.64046 97.9275 6.84994 96.8203 6.45915 95.833C5.76791 94.0872 5.92944 56.339 6.15367 51.7356C6.19092 50.9708 6.26715 50.1895 6.58606 49.4839C7.18048 48.1684 8.29021 47.2707 9.62527 46.7802ZM15.8011 90.2708C18.2928 90.2929 20.8203 90.32 23.3081 90.3299C27.9816 90.3488 30.6414 90.8234 34.7874 88.3816C36.3771 86.2182 36.8326 83.8619 36.4728 81.2021C35.4979 73.9983 26.4936 76.3967 21.4663 76.0275C19.6348 75.893 17.7464 76.2022 15.8578 75.9696C15.7513 80.7551 15.8839 85.5254 15.8011 90.2708ZM15.7673 66.9908C20.0947 67.0376 28.8217 67.9596 32.3776 65.6509C34.3843 62.7712 34.2364 59.7938 32.3207 56.8851C28.3728 54.6725 20.7267 55.865 15.8494 55.6165C15.8071 58.7856 15.9936 64.1545 15.7673 66.9908Z" fill="#1c1c1c"/>
<path d="M316.081 58.3033C321.359 58.4422 324.044 59.4405 328.358 62.6953C328.784 60.4105 329.78 58.4502 332.389 58.3355C336.16 58.1696 337.311 60.5564 337.315 63.926C337.329 73.8086 337.442 83.7138 337.274 93.5946C337.462 97.8036 333.908 100.131 330.206 98.0302C329.046 97.3733 328.643 95.827 328.416 94.6458L325.682 96.6343C323.285 98.2746 321.039 99.2294 318.124 99.4138C293.239 100.987 291.301 59.9533 316.081 58.3033ZM319.518 91.2314C331.798 88.748 331.922 69.555 320.004 66.6473C318.994 66.4007 317.535 66.4898 316.468 66.5395C302.778 68.874 303.97 92.5749 319.518 91.2314Z" fill="#1c1c1c"/>
<path d="M133.853 58.3022C139.253 58.3572 142.178 59.7517 146.607 63.3596C150.308 66.375 157.661 79.8821 149.44 81.7936C147.797 82.1756 142.647 82.0034 140.56 82C135.004 81.9513 129.447 81.9692 123.892 82.0536C126.864 90.0844 132.321 93.1007 140.837 90.5014C143.846 89.5831 143.793 87.9189 147.717 88.2037C150.494 89.3395 151.525 92.181 149.359 94.4828C146.056 97.817 142.288 98.8633 137.778 99.3731C117.544 101.661 108.612 79.2943 120.321 64.6273C123.634 60.4774 128.534 58.6751 133.853 58.3022ZM123.947 74.4403C127.774 74.4771 131.601 74.4891 135.428 74.476L143.599 74.4737C142.624 68.5078 138.323 66.1623 132.52 66.5556C126.882 67.4608 125.953 69.4953 123.947 74.4403Z" fill="#1c1c1c"/>
<path d="M273.058 58.3059C283.803 58.4737 291.398 66.6027 292.357 77.0711C292.93 83.3143 283.948 81.9998 279.901 81.9981C274.358 81.9756 268.815 81.9823 263.273 82.0181C265.318 90.6903 273.801 93.414 281.401 89.8812C283.969 88.688 283.805 88.0113 286.996 88.2039C288.938 88.9264 289.162 89.9585 289.826 91.7339C288.05 97.2625 282.123 98.8219 276.723 99.3858C256.614 101.486 247.894 79.0743 259.601 64.5471C262.854 60.5103 267.785 58.664 273.058 58.3059ZM263.328 74.4624L274.857 74.4759C277.096 74.473 280.959 74.5909 283.069 74.4458C281.723 68.6184 277.575 66.1258 271.733 66.5531C266.6 67.3755 264.628 69.5369 263.328 74.4624Z" fill="#1c1c1c"/>
<path d="M356.057 64.4422C361.782 58.5101 366.059 57.1271 374.158 59.128C374.968 59.5682 375.518 59.873 376.27 60.4049C380.635 63.8763 381.359 68.9201 381.493 74.1892C381.592 78.0775 381.504 82.027 381.534 85.9218C381.56 89.1028 381.659 92.4062 381.357 95.5638C381.297 96.2021 380.481 97.3831 380.073 97.8989C380.009 97.9807 379.94 98.0603 379.869 98.137C364.228 103.81 380.821 67.3308 366.434 66.499C350.77 65.5933 357.261 83.8247 355.968 93.6136C356.628 99.9888 346.886 100.365 346.983 94.8192C347.144 85.5544 346.385 70.7684 347.036 62.0374C349.73 57.8107 352.473 58.1504 355.623 61.5066L356.057 64.4422Z" fill="#1c1c1c"/>
<path d="M82.2733 61.7913C82.9373 66.5806 82.4318 73.776 82.4134 78.8483C82.4049 81.135 82.2889 83.5338 82.8073 85.7747C83.1232 87.1399 83.7458 88.4324 84.7448 89.4277C86.209 90.8864 88.2068 91.3652 90.2216 91.3466C92.7475 91.3233 95.2531 90.8206 96.8482 88.6783C101.072 83.0054 95.9718 64.0398 99.8406 60.1806C100.713 59.3106 101.978 59.0603 103.173 59.0584C104.39 59.0566 105.271 59.5389 106.117 60.3889C106.66 60.9341 107.096 61.4734 107.315 62.2177C107.868 64.0956 107.481 68.7963 107.475 70.9657C107.515 79.4729 109.089 90.7567 101.306 96.4102C95.3745 100.719 84.3118 100.648 78.6817 95.7702C71.9433 89.932 73.6836 80.011 73.452 72.1375C73.402 69.179 73.272 64.5089 73.7023 61.6584C75.1472 59.8489 75.6492 59.2341 77.8426 58.9578C77.9033 58.9631 77.9641 58.9686 78.0248 58.9745C80.318 59.1987 80.8748 60.0767 82.2733 61.7913Z" fill="#1c1c1c"/>
<path d="M234.837 58.3026C239.128 58.1902 243.985 58.7428 247.492 61.5402C249.965 63.5142 250.299 68.3514 246.73 69.441C244.291 70.1837 242.881 68.3411 241.042 67.3789C238.916 66.2671 235.171 66.3105 233.015 66.9097C230.259 67.6589 227.916 69.4752 226.505 71.9561C221.093 81.5409 228.749 95.0309 240.67 90.6167C243.594 89.5343 245.221 87.472 248.449 89.2748C253.685 96.5942 242.667 98.7515 237.58 99.4086C213.593 102.506 207.632 67.1962 228.622 59.3489C230.713 58.5672 232.595 58.4529 234.837 58.3026Z" fill="#1c1c1c"/>
<path d="M57.966 46.7652C59.7982 46.5899 62.7927 47.4125 63.1394 49.4992C63.7075 52.9161 63.5039 56.7683 63.5053 60.265L63.5043 77.4087L63.4949 88.7434C63.4908 92.1122 64.031 94.7223 62.2198 97.6767C61.5751 98.1026 60.7273 98.4369 60.0069 98.749C56.8223 99.3368 54.744 97.3018 54.7578 94.0316C54.8199 79.2995 54.3807 64.4009 54.9501 49.6987C55.0008 48.3966 56.9017 47.3353 57.966 46.7652Z" fill="#1c1c1c"/>
<defs>
<linearGradient id="paint0_linear_910_6860" x1="391" y1="112" x2="457.5" y2="35" gradientUnits="userSpaceOnUse">
<stop stop-color="#4289EA"/>
<stop offset="1" stop-color="#4840B6"/>
</linearGradient>
</defs>
</svg>
