<svg viewBox="7.58 17.52 464.72 108.56" fill="none" xmlns="http://www.w3.org/2000/svg">
<path d="M60.6813 18.5358C90.0617 17.8816 114.427 41.1298 115.145 70.5024C115.862 99.8753 92.6618 124.285 63.2843 125.066C33.8173 125.849 9.31128 102.567 8.59141 73.1049C7.87152 43.6424 31.2111 19.192 60.6813 18.5358ZM97.6562 81.4161L97.6557 67.4048C97.6631 65.1939 97.9028 60.3195 97.4224 58.4077C96.1148 53.2042 88.5773 53.1497 84.3204 53.1722C83.1954 53.1779 82.0722 53.2629 81.2089 54.0092C80.2353 55.655 80.5565 67.701 80.7056 70.2028C71.4088 70.2106 62.2341 69.3733 52.929 69.9922C49.6491 70.2101 46.2575 70.1548 42.9605 70.3345C42.9504 66.6526 42.9227 62.5622 43.0305 58.9109C43.232 52.0803 42.0681 53.08 35.7945 53.3709C33.0142 53.4654 29.8903 53.5212 27.8297 55.6955C26.9254 56.6496 26.3847 57.8975 26.1579 59.183C25.7158 61.6878 26.005 64.6279 25.9988 67.1827C25.9879 71.6155 25.8449 76.1046 26.0075 80.5315C26.0709 82.2554 26.2531 84.4657 27.6039 85.6979C28.1915 86.234 28.9947 86.9561 29.7434 87.2371C36.7969 89.8853 66.2377 89.6784 74.7765 89.2317C79.6474 88.9767 92.9365 89.1761 96.0467 85.7352C97.1882 84.4723 97.521 83.0584 97.6562 81.4161Z" fill="#1c1c1c"/>
<path d="M337.192 44.1044C340.344 44.1917 343.837 44.1247 347.017 44.133C347.055 50.5217 346.971 56.9113 347.081 63.3004C356.293 55.4256 368.236 61.4914 369.938 72.6232C370.903 78.9355 370.592 83.9899 367.026 89.4263C359.168 99.166 347.698 96.9997 337.157 93.8124L337.192 44.1044ZM347.058 70.2609L347.049 88.0628C349.432 88.7663 352.04 89.1173 354.481 88.4353C356.86 87.1084 358.692 85.4791 359.321 82.6548C360.593 76.9567 360.474 67.7851 352.562 67.7099C350.009 68.0996 349.004 68.4235 347.058 70.2609Z" fill="#1c1c1c"/>
<path d="M200.82 59.9471C200.925 59.9316 201.029 59.9178 201.134 59.9066C217.739 58.1252 225.768 75.6808 217.817 88.9355C215.582 92.6616 211.018 95.75 206.646 96.1994C194.552 97.977 185.602 90.6263 185.686 78.3496C185.756 68.1897 190.734 61.7701 200.82 59.9471ZM205.815 88.7228C207.985 87.4939 209.26 86.0641 209.903 83.4035C211.089 78.4996 210.986 69.4794 205.19 67.5464C204.469 67.3058 201.704 67.4265 200.823 67.4455C198.78 68.4975 197.392 69.8037 196.797 72.1408C195.505 77.2186 195.217 86.7058 201.367 88.6995C202.745 89.1445 204.41 88.9092 205.815 88.7228Z" fill="#1c1c1c"/>
<path d="M298.104 44.1121L307.922 44.1178L307.981 64.7101C310.93 61.7554 314.382 59.8402 318.689 59.8533C330.546 59.8892 329.23 70.6798 329.224 78.9887L329.201 95.6116C325.939 95.6756 322.658 95.6091 319.369 95.6788L319.362 83.0922C319.346 80.9897 319.376 78.5455 319.417 76.432C319.504 71.87 319.524 67.1161 313.357 68.3758C310.889 68.8801 309.731 70.3022 307.965 72.0173C307.714 79.4205 307.942 88.022 307.915 95.5775C304.706 95.6448 301.315 95.5924 298.095 95.5945C297.797 78.908 297.966 60.8461 298.104 44.1121Z" fill="#1c1c1c"/>
<path d="M166.51 47.1617C172.634 46.6967 177.57 47.9091 182.855 50.874C181.886 52.8356 179.409 56.6818 178.197 58.5467C176.219 57.2861 174.006 56.4401 171.691 56.0593C155.557 53.3171 150.819 72.6501 158.176 82.7805C159.979 85.2928 162.717 86.9747 165.773 87.4477C170.836 88.2132 175.076 87.1334 179.178 84.1093C179.806 85.2093 180.563 86.3691 181.237 87.4514C182.041 88.9197 182.692 90.0682 183.615 91.4629C174.825 98.0457 161.647 98.3387 152.825 91.6255C142.148 83.4998 140.984 65.9998 149.111 55.7034C153.767 49.8048 159.305 48.0257 166.51 47.1617Z" fill="#1c1c1c"/>
<path d="M453.813 59.9323C458.345 59.4296 463.714 60.5278 466.955 63.9106C471.478 68.6286 471.35 74.5535 471.279 80.5715C464.691 80.8839 456.08 80.5921 449.213 80.6485C450.945 91.4726 459.322 90.0882 467.106 86.9398L468.191 89.1891C468.854 90.5598 469.451 91.7116 470.199 93.0383C463.126 97.2204 453.196 98.0255 446.056 93.5577C437.78 88.3811 436.657 74.9627 441.676 67.21C444.764 62.4414 448.589 61.0221 453.813 59.9323ZM449.119 73.8319L456.575 73.8466L461.646 73.8521C461.731 68.6787 459.1 66.6252 454.095 67.274C450.597 68.1433 449.92 70.6559 449.119 73.8319Z" fill="#1c1c1c"/>
<path d="M386.552 59.9446C400.472 58.2711 404.468 65.5543 403.631 77.8754C403.299 82.7375 403.606 90.882 404.505 95.5371L394.751 95.6199C394.536 94.5747 394.389 93.2587 394.238 92.1833C388.888 96.6502 382.569 98.731 376.716 93.6221C374.922 91.7239 373.902 89.5891 373.92 86.9608C374 75.668 385.548 74.3961 393.854 74.1852C393.84 72.7673 393.897 70.9184 393.042 69.752C389.896 65.4628 382.645 68.6002 379.282 70.8441C377.937 68.7596 376.59 67.1505 375.171 64.838C378.88 61.6455 381.833 60.8217 386.552 59.9446ZM385.685 89.0633C389.169 89.8254 391.34 88.7781 393.769 86.3047C393.799 84.8217 394.22 81.3218 393.342 80.3869C392.717 80.2595 392.555 80.2787 391.914 80.335C388.446 80.4408 385.296 81.0597 383.45 84.3284C382.364 86.2521 383.935 88.3239 385.685 89.0633Z" fill="#1c1c1c"/>
<path d="M247.926 60.6714C251.202 60.619 254.48 60.6231 257.756 60.6842L257.779 75.0875C257.772 82.1911 257.358 88.6685 258.632 95.6416C255.619 95.7672 251.964 95.6713 248.894 95.6805C248.583 94.4992 248.288 92.6108 248.057 91.3543C243.989 95.2366 240.666 97.026 234.816 96.3574C230.585 95.8737 227.188 92.7523 226.822 88.4982C226.336 82.8335 226.617 76.6187 226.584 70.8902C226.569 68.3255 226.316 63.2587 226.638 60.9561L227.177 60.6725C230.22 60.6254 233.263 60.6325 236.306 60.6938L236.292 75.7631C236.28 79.4462 235.704 84.2554 237.584 87.4031C242.459 89.365 244.573 87.5005 247.853 83.9126C248.004 76.2148 247.803 68.401 247.926 60.6714Z" fill="#1c1c1c"/>
<path d="M420.674 59.9487C424.613 59.4844 429.181 60.364 432.839 61.9156C433.827 62.3357 433.9 63.0461 433.484 63.9433C432.626 65.7814 431.654 67.5807 430.659 69.3543C427.049 67.2184 424.494 67.3924 420.557 67.4578C414.122 71.7996 424.725 73.9925 427.571 75.4111C431.174 77.0949 434.891 79.47 435.124 83.8943C435.611 93.1092 429.968 95.8518 422.03 96.4876C416.3 96.5329 413.816 95.8287 408.765 93.3594C409.449 91.5738 411.135 88.0783 412.006 86.3861C415.838 88.3907 418.462 89.5713 422.991 88.97C426.113 88.5558 427.507 85.7812 424.503 84.148C419.518 81.4456 410.823 79.6802 409.84 72.8482C408.664 64.6809 413.758 61.2608 420.674 59.9487Z" fill="#1c1c1c"/>
<path d="M279.614 59.9501C284.468 59.4254 288.382 60.4093 292.71 62.5445C291.596 65.0543 290.829 66.943 289.475 69.3602C286.897 67.4615 282.459 66.7342 279.373 67.891C272.12 70.6099 272.039 85.305 279.202 88.1746C282.94 89.6712 286.563 88.4101 290.091 86.9729L291.756 90.5943C292.044 91.489 292.627 92.5376 293.069 93.3911C285.952 97.3283 277.665 97.9413 270.649 93.2985C262.509 87.912 261.551 74.6493 266.792 67.01C269.969 62.3746 274.359 60.8535 279.614 59.9501Z" fill="#1c1c1c"/>
</svg>
