<svg viewBox="31.52 1.26 416.06 138.42" fill="none" xmlns="http://www.w3.org/2000/svg">
<path d="M319.812 40.0134C320.329 39.9632 320.849 39.9409 321.368 39.9462C328.973 40.0953 334.512 42.5017 339.786 48.0114L339.632 41.8416C342.418 42.1615 351.299 42.0474 354.149 41.8444C353.899 54.7762 354.083 68.2484 354.089 81.2119L354.095 95.6431C354.095 104.127 354.354 110.344 351.729 118.618C346.176 136.119 326.705 142.2 310.379 136.746C301.509 133.783 295.391 127.077 291.352 118.659C293.149 117.643 296.09 116.472 298.073 115.609C300.224 114.785 302.364 113.936 304.494 113.059C307.508 120.051 313.952 125.208 321.712 125.111C326.416 125.052 331.026 123.848 334.434 120.433C339.921 114.932 339.724 107.213 339.755 100.042C329.297 111.317 313.151 110.157 301.753 101.161C294.512 95.4726 289.875 87.1045 288.89 77.952C287.859 68.9531 290.402 59.9094 295.973 52.7665C302.46 44.5929 309.678 41.174 319.812 40.0134ZM323.693 94.65C329.223 93.777 333.434 91.9357 336.753 87.2186C343.248 77.9899 341.865 63.4026 332.444 56.6223C329.844 54.7508 324.841 53.0094 321.699 53.5402C316.089 54.2753 312.377 55.8081 308.648 60.2994C301.378 69.0506 302.361 83.7652 311.58 90.7901C315.034 93.4673 319.325 94.8348 323.693 94.65Z" fill="#1c1c1c"/>
<path d="M83.802 2.33501C84.2773 2.26993 85.7214 2.2654 86.2408 2.26137C99.834 2.1423 112.917 7.42933 122.609 16.9582C121.238 18.5078 113.587 26.0978 112.156 27.173C106.98 22.5809 102.256 19.5548 95.3939 17.9474C85.4897 15.5656 75.0446 17.2205 66.3623 22.5469C57.7715 27.9608 51.6636 36.5438 49.3649 46.4327C47.0758 56.6321 48.9158 67.3225 54.4833 76.1704C59.7971 84.537 68.2035 90.4643 77.8705 92.6606C87.0248 94.762 98.3477 93.4152 106.225 88.2261C116.402 81.5216 118.283 76.2671 120.808 65.2797C109.622 65.2783 97.1527 65.014 86.0589 65.3522C86.1972 61.8053 86.0482 57.2534 86.0355 53.628L85.9771 50.7449C91.4737 51.089 99.8719 50.842 105.632 50.8402C115.37 50.8373 125.571 50.9854 135.271 50.7547C135.173 53.7613 135.629 57.3687 135.628 60.4966C135.62 86.5223 117.963 105.326 92.1887 107.914C77.6959 109.435 63.2002 105.064 51.9664 95.7844C41.0185 86.8625 34.0905 73.9371 32.7234 59.8829C31.5007 46.1304 35.7871 32.4551 44.6416 21.8595C52.1357 12.8701 62.3271 6.53319 73.706 3.78793C77.1126 2.98846 80.3405 2.67112 83.802 2.33501Z" fill="#1c1c1c"/>
<path d="M247.241 39.7708C266.175 38.6756 282.411 53.1389 283.497 72.0697C284.585 91.0002 270.109 107.224 251.173 108.301C232.249 109.377 216.033 94.9179 214.948 76.0005C213.863 57.0828 228.318 40.8653 247.241 39.7708ZM250.355 94.6566C252.677 94.2399 254.537 93.9415 256.717 92.9245C274.326 84.7122 271.246 56.0471 251.238 53.6641C250.245 53.5457 249.382 53.4226 248.372 53.5465C221.767 56.754 225.882 95.3448 250.355 94.6566Z" fill="#1c1c1c"/>
<path d="M173.373 39.8249C192.306 38.6137 208.627 52.9965 209.8 71.9264C210.973 90.8564 196.554 107.144 177.616 108.279C158.732 109.41 142.497 95.0445 141.327 76.1684C140.157 57.2923 154.494 41.0326 173.373 39.8249ZM176.917 94.6264C180.701 93.9617 183.487 93.2839 186.62 90.8486C201.513 79.2741 194.782 52.9993 174.571 53.5383C170.706 54.0491 167.653 54.8109 164.438 57.2169C158.254 61.8448 155.664 69.7378 156.672 77.2366C157.352 82.6461 160.165 87.5602 164.486 90.8859C168.061 93.5545 172.463 94.8788 176.917 94.6264Z" fill="#1c1c1c"/>
<path d="M413.903 40.023C414.868 39.8749 416.105 39.9482 417.097 39.9828C432.353 40.5168 442.072 51.8607 446.575 65.6306C444.588 66.3627 442.301 67.3078 440.365 68.1642C427.422 73.8873 413.718 78.7489 400.851 84.5763C403.072 87.1749 403.576 88.9815 406.637 91.23C410.571 94.0777 415.482 95.2323 420.275 94.4369C426.559 93.4505 430.558 90.0965 434.167 85.1314C436.314 86.4913 438.295 87.9139 440.5 89.2562C441.701 89.9625 444.657 92.1813 445.991 93.1078C445.516 93.6661 445.049 94.2319 444.592 94.805C438.545 102.301 430.782 107.15 420.994 108.056C389.487 110.973 372.68 75.5078 391.235 51.3979C396.9 44.0384 404.867 40.9533 413.903 40.023ZM408.774 68.6366C412.458 67.0558 416.156 65.5087 419.867 63.9954C422.41 62.9296 426.405 61.1711 428.981 60.4521C425.774 55.0832 421.098 52.7333 414.806 53.3162C409.78 54.0239 405.252 56.7274 402.244 60.8153C399.363 64.7154 398.763 68.4381 398.488 73.1065C401.646 71.3937 405.453 70.0299 408.774 68.6366Z" fill="#1c1c1c"/>
<path d="M362.669 6.13721C367.556 6.22918 372.645 6.12004 377.569 6.16189L377.555 70.431C377.553 81.8733 377.272 94.6148 377.591 105.969C376.987 106.241 364.281 106.103 362.706 106.109L362.708 38.6055C362.708 27.8942 362.847 16.8227 362.669 6.13721Z" fill="#1c1c1c"/>
</svg>
