<svg viewBox="0.12 11.44 493.22 123.07" fill="none" xmlns="http://www.w3.org/2000/svg">
<path d="M51.2287 12.4388C52.3983 13.4102 55.3364 16.9736 56.3809 18.3126C66.3384 31.0765 76.9003 43.3539 86.7033 56.2375C89.1247 59.4199 91.6917 62.8497 93.4965 66.4236C96.8145 73.4666 98.5821 81.8606 98.0371 89.6448C97.1501 101.568 91.5492 112.646 82.474 120.427C62.3619 137.869 33.7897 138.292 14.4106 119.169C-7.33865 97.7073 -0.468671 72.4171 21.1325 53.8013C23.3888 56.9056 26.2735 60.6771 28.2994 63.8531L26.9671 65.1865C19.9132 72.2782 15.6944 78.618 15.6284 89.0955C15.5205 106.195 32.5907 119.577 48.9334 119.217C59.8874 118.976 67.9486 114.82 75.5701 107.113C82.7668 98.5412 85.8622 86.6892 81.9049 75.8769C80.0372 70.7733 74.838 64.7122 71.561 60.3196C65.0893 51.6444 57.7113 43.4101 51.3698 34.6428C49.6713 37.0925 47.9869 39.5518 46.3162 42.0203C51.5832 48.9318 58.2341 55.8964 63.5575 62.8135C69.4377 70.6563 75.3613 79.6477 74.0354 89.9159C72.2191 104.298 55.4353 114.278 41.8424 109.22C24.1104 102.622 16.4384 82.5873 33.3096 69.6821C35.9092 72.872 38.4931 76.2216 41.0502 79.4572C30.2629 90.6877 45.8877 102.465 55.6441 95.0955C58.0547 93.273 59.6436 90.5683 60.0627 87.575C60.6656 83.0408 58.6908 80.6762 56.0847 77.3131C53.9681 74.5819 51.8342 71.8317 49.7196 69.0978L29.1724 42.5232C32.3307 37.866 36.4517 32.5146 39.7888 27.8748C43.127 23.2332 47.6233 16.7622 51.2287 12.4388Z" fill="#1c1c1c"/>
<path d="M473.493 57.6936C476.165 57.5284 478.839 57.935 481.34 58.8861C491.885 62.9355 492.732 76.1131 492.228 85.7C491.803 93.7727 488.675 103.04 479.883 105.244C476.423 106.112 472.627 106.154 469.272 104.862C465.11 103.253 463.497 100.385 461.838 96.5393C461.939 103.027 461.973 109.515 461.939 116.002L461.941 122.445C457.581 122.318 453.217 122.325 448.857 122.464C448.695 115.14 448.816 107.331 448.816 99.9703L448.833 58.8239C452.681 58.8261 458.151 58.9821 461.838 58.671C462.023 60.919 461.908 64.6111 461.893 66.9805C464.425 60.7395 466.974 58.9604 473.493 57.6936ZM472.485 95.1114C479.726 92.3718 478.545 87.1844 478.767 80.9254C479.046 73.037 476.748 67.5814 467.924 68.5476C462.887 69.9162 461.642 72.0936 461.908 77.8152C462.286 85.9719 459.212 97.0189 472.419 95.1324C472.441 95.1254 472.463 95.1184 472.485 95.1114Z" fill="#1c1c1c"/>
<path d="M345.242 57.6977C352.8 57.2782 356.668 60.5415 359.644 67.0659C361.491 62.1955 364.616 59.7414 369.524 58.3649C370.763 58.017 371.902 57.5723 373.228 57.6169C389.115 58.1531 387.526 73.6679 387.506 84.9086V104.959C383.17 104.922 378.835 104.929 374.499 104.98C374.397 98.3944 374.648 91.7302 374.491 85.1436C374.383 80.6272 375.688 71.1049 370.833 68.8703C367.686 67.4229 361.542 69.1752 361.011 73.1633C360.568 76.4937 360.722 79.9979 360.722 83.3861L360.741 101.367L360.715 104.968C356.347 104.935 351.98 104.935 347.611 104.968C347.43 98.2164 347.697 91.4159 347.577 84.6541C347.504 80.6173 348.375 72.7448 345.317 69.8267C341.999 66.6602 334.497 68.7895 333.949 73.8807C333.547 77.6297 333.677 81.1931 333.679 84.9899L333.701 104.969C329.804 104.915 324.518 104.824 320.698 105.026L320.693 58.8374C324.511 58.8239 329.982 58.984 333.621 58.6726C333.807 61.009 333.696 64.8007 333.703 67.2427C336.638 61.1525 338.449 58.9705 345.242 57.6977Z" fill="#1c1c1c"/>
<path d="M136.343 40.0076C140.674 39.9164 145.151 39.9511 149.494 39.9292L149.473 67.2692C152.406 61.3869 155.423 57.6028 162.527 57.6694C178.701 57.8214 177.241 74.0886 177.236 85.0535L177.22 104.969C173.363 104.869 168.041 104.873 164.236 105.026C164.173 100.159 164.215 95.2059 164.21 90.3316C164.232 85.789 164.369 81.0934 164.167 76.5896C163.96 71.972 162.938 68.4803 157.858 68.3973C147.5 68.2282 149.464 77.916 149.467 85.0897L149.476 104.952C145.12 104.928 140.764 104.935 136.408 104.973L136.428 63.5703C136.431 56.9419 136.754 46.4143 136.343 40.0076Z" fill="#1c1c1c"/>
<path d="M252.873 57.738C253.538 57.6092 254.807 57.6123 255.47 57.6251C269.483 58.1049 275.57 64.2597 274.916 78.4863C274.704 83.0926 274.892 89.9291 274.875 94.7238C276.394 94.7508 277.508 94.7147 279.016 94.624C279.047 98.0761 279.049 101.528 279.018 104.981C270.877 104.697 265.289 106.397 262.888 96.4743C262.67 97.1217 262.422 97.7587 262.147 98.3836C258.576 106.558 248.426 107.399 241.148 104.216C233.805 100.485 232.535 88.7156 238.188 83.1334C244.061 77.335 254.045 78.0854 261.703 78.1134C261.679 75.0725 261.87 70.8493 258.947 69.1712C253.42 65.9974 247.49 69.067 244.312 73.5537C241.71 71.2222 239.088 68.9131 236.447 66.6262C236.816 66.0915 237.199 65.5661 237.595 65.0514C241.77 59.6894 246.632 58.5092 252.873 57.738ZM252.67 96.7099C261.904 97.3112 261.766 92.7088 261.675 85.5078L257.908 85.5052C255.118 85.5831 251.042 85.3122 249.024 87.4903C247.083 89.5878 247.442 93.6328 249.489 95.5478C250.408 96.4142 251.481 96.5232 252.67 96.7099Z" fill="#1c1c1c"/>
<path d="M413.97 57.7387C414.633 57.6244 415.762 57.6121 416.416 57.6205C430.142 58.0053 436.687 63.9134 436.028 77.9665C435.809 82.6792 436.004 89.8666 436.016 94.7356L440.234 94.7335C440.27 98.1366 440.275 101.54 440.256 104.943C431.885 105.021 426.365 106.059 423.976 96.3553C423.737 97.1122 423.491 97.8375 423.187 98.5715C419.818 106.715 409.369 107.207 402.32 104.231C394.98 100.207 393.639 88.8656 399.378 83.0972C405.086 77.3582 415.335 78.0883 422.859 78.1103C422.48 72.5297 422.958 68.0768 415.154 67.9885C410.225 67.9328 408.465 70.1167 405.279 73.4248C402.766 71.1486 400.234 68.8957 397.678 66.667C401.626 60.1824 406.97 58.6022 413.97 57.7387ZM413.211 96.6262C417.407 97.0905 419.973 96.5145 422.587 93.1803C422.931 90.3884 422.649 88.082 422.833 85.4933L419.43 85.5013C416.828 85.5676 411.894 85.3115 410.319 87.3883C407.782 90.7299 408.619 95.7936 413.211 96.6262Z" fill="#1c1c1c"/>
<path d="M205.544 57.7296C210.7 56.7647 219.005 59.6966 222.534 63.4428C228.296 69.5569 228.907 77.239 228.822 85.1901C219.892 85.0008 208.012 84.9653 199.152 85.2835C199.072 90.9222 201.91 95.2651 207.855 95.6146C214.329 95.9952 216.245 94.0226 220.715 90.1785C221.368 90.8944 222.693 92.6651 223.341 93.4833C224.571 94.8635 226.058 96.8131 227.252 98.2838C219.275 106.898 203.46 108.543 194.033 101.745C183.747 94.3287 183.319 75.0397 190.473 65.3283C194.317 60.1095 199.519 58.5813 205.544 57.7296ZM209.137 77.3816L215.119 77.3719C215.115 72.4294 213.767 67.4439 207.806 67.524C207.199 67.5343 206.591 67.5553 205.984 67.5869C203.71 67.9758 202.306 68.8012 201.011 70.7327C200.033 72.1908 198.196 75.6314 199.564 77.1985C200.72 77.5673 207.411 77.3936 209.137 77.3816Z" fill="#1c1c1c"/>
<path d="M290.846 46.3323C294.781 46.3779 298.717 46.3659 302.65 46.2961L302.698 58.8222C305.674 58.828 308.893 58.8963 311.843 58.7088C311.98 62.0155 311.874 65.6587 311.843 68.9903L302.655 69.0033L302.693 94.7366C305.249 94.7544 308.606 94.8683 311.088 94.6273L311.102 103.779C311.134 104.33 311.158 104.441 310.933 104.945C307.991 105.217 304.456 105.09 301.521 104.811C298.078 104.482 294.687 103.491 292.423 100.714C291.106 99.0995 290.342 97.1289 289.944 95.0981C289.114 90.872 289.129 73.7205 289.587 68.9931L283.093 68.9934L283.083 58.8386C285.162 58.8384 286.679 58.7962 288.745 58.6095C290.711 56.9958 290.93 55.666 290.937 53.1739C290.942 50.8974 290.882 48.6095 290.846 46.3323Z" fill="#1c1c1c"/>
</svg>
