<svg viewBox="136.03 31.00 207.94 82.00" fill="none" xmlns="http://www.w3.org/2000/svg">
<g clip-path="url(#clip0_910_6859)">
<path d="M190.703 55.8589C195.909 55.8395 202.002 57.4167 205.938 60.9215C214.042 68.1379 213.314 78.3062 213.314 88.0406L213.31 102.919C213.31 105.218 213.2 108.587 213.358 110.79C211.453 110.723 209.252 110.77 207.336 110.77C204.521 110.753 201.705 110.766 198.89 110.809L198.891 91.5148C198.893 88.0945 198.926 84.6195 198.846 81.2483C198.682 74.3697 195.278 68.7027 187.845 68.326C183.561 68.1089 181.25 68.9623 178.027 71.7335C172.994 75.9264 173.933 86.3635 173.934 92.3302L173.932 110.896C169.438 110.783 164.359 110.806 159.858 110.899C159.711 105.192 159.834 98.9024 159.834 93.1557L159.829 57.0321C160.71 57.1578 164.295 57.1338 165.329 57.1123C168.012 57.0565 171.242 57.2178 173.863 57.045C173.798 58.8093 173.967 63.5453 173.659 64.9454C178.02 58.6589 183.307 56.4245 190.703 55.8589Z" fill="#1c1c1c"/>
<path d="M220.804 36.0918C222.685 36.1591 224.824 36.1123 226.724 36.1121C229.547 36.1238 232.369 36.1141 235.192 36.0829C235.07 43.0159 235.241 50.1587 235.175 57.1204C238.119 56.9742 242.764 57.3408 245.488 57.0254C245.376 59.0261 245.472 61.6667 245.448 63.7236C245.432 65.0956 245.389 67.9764 245.517 69.2269C244.46 69.1587 242.987 69.2019 241.902 69.2029L235.174 69.2003L235.18 82.9931C235.18 85.7642 235.182 88.59 235.316 91.3019C235.583 96.6976 237.94 97.9888 243.079 98.047C243.852 98.0557 244.666 98.0772 245.469 98.0138L245.453 100.719C245.45 103.688 245.301 108.557 245.501 111.4C236.074 111.368 225.208 110.966 222.23 99.8442C220.493 93.3592 220.873 86.9217 220.873 80.2945L220.874 50.5893L220.879 41.2887C220.88 39.8876 220.942 37.4195 220.804 36.0918Z" fill="#1c1c1c"/>
<path d="M137.371 57.0369C137.946 57.1392 141.77 57.1315 142.523 57.1118C145.428 57.0359 148.853 57.2334 151.702 57.0451C151.543 58.5883 151.622 61.6392 151.622 63.271L151.622 74.5893L151.641 110.837C151.132 110.921 147.99 110.868 147.255 110.866C143.968 110.847 140.68 110.854 137.393 110.889C137.231 109.237 137.341 105.425 137.343 103.655L137.344 89.765L137.342 68.4155C137.341 64.8643 137.226 60.5245 137.371 57.0369Z" fill="#1c1c1c"/>
<path d="M275.212 112C273.523 111.52 271.276 111.402 269.152 110.806C262.208 108.854 256.328 104.221 252.806 97.9305C249.258 91.5731 248.311 83.1842 250.304 76.1966C252.336 69.053 257.152 63.0232 263.671 59.459C270.417 55.7154 278.484 55.0788 285.862 57.1954C292.493 59.1144 298.084 63.5984 301.394 69.6526C303.688 73.8252 304.939 78.4893 305.044 83.2489C305.1 85.0374 304.982 87.1764 305.138 88.9063C300.614 88.8469 296.03 88.8548 291.502 88.8909C281.941 88.9672 272.329 88.7677 262.775 88.9154C263.164 89.866 263.467 90.8341 263.897 91.7535C268.344 101.281 281.761 101.564 289.187 95.5627C290.038 94.8746 290.676 94.361 291.348 93.4829C294.15 95.77 297.155 97.8786 300.002 100.114C300.514 100.515 301.047 100.91 301.585 101.273C297.558 106.63 289.607 110.788 283.027 111.566C282.403 111.64 280.767 111.822 280.271 112H275.212ZM262.817 78.8652L277.457 78.8535C282.03 78.8534 286.974 78.7567 291.516 78.8718C290.589 75.0464 289.097 72.4941 285.635 70.3832C283.005 68.8131 279.981 68.0294 276.919 68.1248C271.015 68.4563 265.463 70.7353 263.278 76.8942C263.045 77.5512 262.996 78.2128 262.817 78.8652Z" fill="#1c1c1c"/>
<path d="M312.137 32H326.525C326.625 35.0606 326.557 38.4387 326.557 41.5285L326.556 58.5831L326.562 110.887C321.763 110.846 316.963 110.844 312.164 110.882C311.989 108.496 312.127 104.288 312.128 101.79L312.129 84.0317L312.137 32Z" fill="#1c1c1c"/>
<path d="M137.031 33.0262L146.64 33.0395C148.185 33.0387 150.518 33.094 152.028 32.9757C151.934 37.9928 152.04 43.0623 151.992 48.0868C147.061 48.0761 141.942 48.1477 137.031 48.0551V33.0262Z" fill="#1c1c1c"/>
<path d="M342.969 106.919C341.941 110.09 338.821 112.002 335.637 110.567C334.401 110.005 333.438 108.978 332.956 107.71C332.448 106.36 332.498 104.863 333.095 103.549C333.667 102.321 334.699 101.367 335.967 100.891C339.139 99.7115 341.868 101.652 342.969 104.625V106.919ZM338.603 109.978C340.112 109.664 341.336 108.564 341.808 107.098C342.28 105.631 341.927 104.024 340.884 102.89C339.842 101.755 338.269 101.268 336.768 101.614C334.479 102.142 333.043 104.412 333.546 106.704C334.049 108.996 336.304 110.456 338.603 109.978Z" fill="#1c1c1c"/>
<path d="M335.793 102.698C337.087 102.811 339.607 102.323 340.118 103.955C340.529 105.272 340.008 105.895 338.759 106.232C339.08 106.73 340.157 108.31 340.215 108.781C339.866 108.838 339.525 108.854 339.174 108.876C338.637 108.121 338.269 107.399 337.772 106.634C337.594 106.361 337.399 106.368 337.135 106.349C336.391 106.84 337.125 107.92 336.828 108.722C336.577 108.832 335.997 108.839 335.757 108.695C335.59 108.027 335.549 103.311 335.793 102.698ZM336.851 105.478C337.569 105.426 338.196 105.432 338.862 105.15C339.585 103.416 337.853 103.761 336.816 103.668C336.839 104.271 336.869 104.876 336.851 105.478Z" fill="#1c1c1c"/>
</g>
<defs>
<clipPath id="clip0_910_6859">
<rect width="205.938" height="80" fill="white" transform="translate(137.031 32)"/>
</clipPath>
</defs>
</svg>
