<svg width="117" height="38" viewBox="0 0 117 38" fill="none" xmlns="http://www.w3.org/2000/svg">
<g clip-path="url(#clip0_2474_6244)">
<path d="M69.4725 8.09555C71.3535 7.97257 72.3227 8.27367 74.1363 8.46408C75.7437 8.63286 78.4583 8.64106 80.0852 8.41635C80.1719 9.63853 80.1407 11.4748 80.1526 12.7439C79.4423 12.7391 78.5928 12.6623 77.8719 12.6151C78.9142 18.1284 77.2179 21.9983 71.0636 22.6186C70.4576 22.6798 68.7557 22.3329 68.3529 22.5386C67.6878 24.2855 69.6543 24.5591 70.7978 24.8C74.5865 25.5985 80.1801 26.7836 80.3612 31.6338C80.4197 33.1968 80.2434 34.222 79.1634 35.4002C75.4157 38.6728 70.3766 38.1563 65.6909 37.3472C63.1821 36.9139 61.3464 34.9781 61.4265 32.3864C61.3555 30.2568 62.2079 29.2528 63.8554 28.0838C66.7173 26.0534 63.0566 26.2384 64.3909 21.6481C65.0186 21.1245 65.2221 20.9967 65.9246 20.6004C64.8487 19.9332 63.9844 18.5797 63.7402 17.3463C62.8623 12.9131 64.9678 9.0966 69.4725 8.09555ZM66.4673 33.6313C68.3984 34.2235 70.6993 34.4722 72.7015 34.1962C74.391 33.9304 76.1574 33.7147 75.885 31.4736C75.6506 29.5457 70.3295 28.2526 68.7465 27.8913C67.223 28.9014 66.2562 29.6471 65.8553 31.5612C65.8219 31.7214 65.7937 31.8827 65.7708 32.0447C66.0043 32.7344 66.0836 32.9944 66.4673 33.6313ZM68.8768 18.111C69.5164 18.588 70.3017 18.8271 71.0979 18.7869C72.1114 18.7358 73.0505 18.2377 73.6626 17.4264C74.2749 16.6152 74.4974 15.5739 74.2707 14.5824C73.8875 12.9076 72.3302 11.7731 70.6226 11.9247C69.2043 12.0508 68.0109 13.0416 67.6233 14.415C67.2357 15.7883 67.7345 17.259 68.8768 18.111Z" fill="black"/>
<path d="M51.2894 8.09875C58.6096 7.70872 61.6307 11.9044 61.4384 18.8397C60.052 19.0067 57.1707 18.9388 55.679 18.9209C53.0478 18.8893 50.1731 18.949 47.5627 18.8391C47.9848 20.1178 48.5114 21.2287 49.3564 22.2863C51.557 25.0406 57.5022 24.2598 59.8553 22.2062C60.0125 22.0863 60.1711 21.9686 60.3315 21.853C60.7528 21.5528 60.8144 21.5109 61.2431 21.5856C61.6125 22.1338 61.3034 24.5885 61.2659 25.5203C57.3589 28.2105 52.8875 28.9691 48.6353 26.608C43.5139 23.7642 42.1641 17.3565 44.8653 12.3744C46.1385 10.0264 48.8096 8.6792 51.2894 8.09875ZM53.4509 15.6936C54.3056 15.7023 56.6247 15.8556 57.2348 15.4247C57.5647 14.2027 54.7423 12.1581 53.6976 11.9334C53.3118 11.8505 52.5632 11.8518 52.1606 11.9233C50.2234 12.359 49.3016 13.2204 48.0372 14.8044C47.8275 15.0672 47.8349 15.2804 47.8664 15.5701L48.1178 15.8068C49.9734 15.698 51.5888 15.6865 53.4509 15.6936Z" fill="black"/>
<path d="M86.2338 8.64086C88.8265 7.96061 91.3203 7.5977 93.7707 9.02027C97.7585 11.0395 98.5383 14.681 98.2477 18.8219C97.1372 18.9903 94.619 18.9167 93.4125 18.9113C90.4604 18.8706 87.5077 18.8791 84.5559 18.9367C86.024 24.4779 90.8769 25.0635 95.5012 23.0021C96.5069 22.5538 97.2515 21.9297 98.1568 21.3215C98.0746 22.6127 98.1041 24.1778 98.096 25.4898C88.0459 33.1594 75.0402 22.0467 82.581 11.3744C83.4989 10.0756 84.8447 9.35605 86.2338 8.64086ZM89.2601 15.6982C90.0612 15.7099 93.4307 15.8191 93.971 15.6975C94.27 15.0845 93.816 14.2226 93.4145 13.7397C92.4466 12.5748 91.1458 11.8579 89.6356 11.8069C87.6538 12.068 85.5522 13.299 85.0294 15.3461L85.0815 15.6367C86.0178 15.7444 88.2116 15.6797 89.2601 15.6982Z" fill="black"/>
<path d="M8.00977 8.61319C9.49422 8.70059 11.4916 8.13089 12.6489 9.13745C12.7441 9.22037 14.9578 8.43378 15.5581 8.29226C16.6959 8.02392 17.5999 8.03467 18.8151 8.04324C29.2736 10.0471 25.9563 19.4266 26.3569 27.5117C24.9476 27.4669 23.5373 27.4564 22.1276 27.4802C22.1239 23.8257 22.3616 18.6611 21.8247 15.1176C21.2786 11.5134 14.4696 11.3634 12.3583 14.2903C12.3304 15.6667 12.428 27.0183 12.1229 27.4493L11.8403 27.5145C11.0901 27.3757 8.82285 27.4516 8.05292 27.5204C8.11802 26.6979 8.11279 25.5636 8.08292 24.7256C7.89321 19.4199 8.24518 13.8928 8.00977 8.61319Z" fill="black"/>
<path d="M35.0461 3.54541C35.1684 4.43693 35.1364 7.73621 35.0697 8.68046C37.2354 8.45486 39.4023 8.67457 41.4992 8.53868C41.9968 8.55518 42.0078 8.47533 42.3531 8.7159C42.7458 9.48342 42.6105 12.02 42.6549 13.07C40.6058 12.9341 37.0439 12.9946 35.0182 13.1228C35.2458 15.9933 34.7532 19.3864 35.6034 22.1135C36.4291 24.7623 40.8253 23.5486 42.5915 22.7143C42.5955 24.1366 42.7453 25.8025 42.1997 27.0744C39.3144 28.3272 35.2389 28.4416 32.8561 26.0813C30.9164 24.16 30.8598 21.693 30.8355 19.1525C30.8159 17.0836 30.8243 15.0071 30.8288 12.9342C29.6748 12.9983 28.44 13.0132 27.2787 13.0477C27.2687 11.7278 27.3127 9.91825 27.4217 8.62339C28.281 8.57105 29.9949 8.61468 30.803 8.75135C30.8724 7.2584 30.9031 5.08391 30.799 3.61605C31.8233 3.69065 34.1394 3.8689 35.0461 3.54541Z" fill="black"/>
<path d="M103.824 8.48304C103.853 8.51939 103.883 8.5556 103.912 8.59169C104.834 9.70727 106.035 8.62482 107.375 8.33793C109.412 7.90158 110.791 8.16058 112.799 8.3428C112.958 9.44085 113.13 11.6869 112.905 12.7465L112.735 12.8918L112.292 12.8078C111.112 12.0773 107.224 12.1118 106.125 12.9976C105.402 13.3151 104.971 13.751 104.407 14.2772C104.216 18.2657 104.355 23.4788 104.347 27.5544C103.027 27.4852 101.59 27.4988 100.259 27.4864C100.099 25.9096 100.183 23.6214 100.136 22.0076C100.006 17.6176 100.238 13.1396 100.131 8.76149C101.369 8.54497 102.565 8.63545 103.824 8.48304Z" fill="black"/>
<path d="M0.169678 25.687C0.444726 21.9362 0.230509 17.9096 0.305728 14.1416C0.330609 12.8951 0.205513 9.99212 0.504153 8.90955C0.931605 8.46155 3.90231 8.3904 4.36409 8.73066C4.63307 9.13054 4.56554 9.92647 4.57001 10.444L4.55303 21.5395C4.55354 23.2541 4.4795 25.8655 4.60077 27.5181C3.06875 27.3646 1.58017 27.561 0.20324 27.4505L0.169678 25.687Z" fill="black"/>
<path d="M0.449512 -0.00355889C1.8651 -0.0370853 3.11228 -0.0872499 4.52854 0.0445523C4.75438 1.57845 4.69003 1.95735 4.40203 3.46731L2.92933 4.38814C2.21444 4.78944 0.932599 5.35106 0.108398 5.78025C0.426265 3.89727 0.400502 1.91756 0.449512 -0.00355889Z" fill="black"/>
<path d="M115.454 8.44922C116.971 8.55607 117.933 9.82125 116.831 11.1976C116.685 11.3801 115.94 11.3866 115.686 11.3994C115.253 11.4173 115.141 11.3697 114.743 11.2484C114.139 10.7355 114.306 9.61062 114.583 8.9795C114.727 8.6523 115.148 8.5489 115.454 8.44922Z" fill="black"/>
</g>
<defs>
<clipPath id="clip0_2474_6244">
<rect width="117" height="38" fill="white"/>
</clipPath>
</defs>
</svg>
