<svg viewBox="5.02 21.00 469.97 102.00" fill="none" xmlns="http://www.w3.org/2000/svg">
<g clip-path="url(#clip0_910_6864)">
<path d="M186.473 41.8726C190.68 42.1513 196.468 42.0322 200.698 41.9299L200.682 101.769C197.995 101.711 192.705 101.539 190.198 101.871L190.202 63.4383L190.199 54.7628C187.534 60.6329 184.641 69.1198 182.185 75.2198C178.784 83.6676 174.714 93.208 171.707 101.759C169.864 101.677 166.351 101.644 164.599 101.845C163.115 98.6189 161.616 94.5333 160.264 91.171L153.761 75.2109C151.472 69.5251 147.313 60.0945 145.514 54.4498C145.74 59.8023 145.589 66.1246 145.587 71.5383L145.565 101.911C143.738 101.593 137.876 101.637 135.972 101.864L135.968 41.9123C140.542 42.1044 146.342 42.0743 150.931 41.9491C151.634 44.2088 153.424 48.4338 154.322 50.7676L163.646 74.6319C165.04 78.2498 166.982 82.9166 168.078 86.5596C170.513 81.5619 173.501 73.5146 175.648 68.2253C179.182 59.5185 183.093 50.597 186.473 41.8726Z" fill="#1c1c1c"/>
<path d="M394.174 58.0345C406.547 55.9317 418.278 64.2653 420.355 76.6326C422.432 89.0002 414.065 100.703 401.682 102.751C389.339 104.793 377.671 96.4655 375.601 84.1365C373.529 71.8075 381.839 60.1303 394.174 58.0345ZM399.968 94.3516C403.368 93.4838 405.877 92.76 407.5 89.4438C412.115 80.0169 409.933 64.8493 396.662 66.3593C393.714 66.7625 391.281 67.9541 389.482 70.429C385.356 76.1151 385.111 87.5849 391.123 92.1541C393.696 94.1105 396.861 94.5214 399.968 94.3516Z" fill="#1c1c1c"/>
<path d="M312.469 58.0292C324.874 55.9817 336.578 64.403 338.568 76.8059C340.558 89.2091 332.076 100.864 319.653 102.794C307.314 104.711 295.742 96.3037 293.766 83.9836C291.789 71.6633 300.148 60.063 312.469 58.0292ZM318.019 94.3637C321.081 93.6881 324.264 92.4409 325.735 89.5386C330.445 80.2438 327.968 64.4208 314.678 66.3607C306.279 67.6699 303.898 76.5228 304.967 83.8897C306.023 91.1792 310.743 94.7564 318.019 94.3637Z" fill="#1c1c1c"/>
<path d="M357.527 57.4808C362.012 57.1262 364.802 58.0506 369.146 59.1107C369.265 62.3904 369.233 65.7952 369.242 69.0865C365.824 67.1805 358.139 63.6059 354.586 67.3016C349.267 72.7739 359.446 76.281 363.489 77.9803C371.87 81.5045 374.683 90.8477 368.504 97.855C364.969 101.863 359.549 102.638 354.241 102.806C351.022 102.697 345.784 101.842 342.837 100.535C342.697 97.3522 342.793 93.6632 342.802 90.4429C346.561 92.6413 351.056 94.747 355.468 94.5771C358 94.4796 361.866 93.2066 361.217 90.0547C360.024 84.2509 350.946 83.8269 347.078 79.9744C344.649 77.5547 343.321 75.9714 343.017 72.4385C342.119 63.3566 349.022 58.1981 357.527 57.4808Z" fill="#1c1c1c"/>
<path d="M246.553 58.1525C247.173 57.9904 248.576 58.0013 249.277 57.9808C253.952 57.8449 256.82 58.3107 261.033 60.2292L261.047 69.9075C257.654 67.7858 255.639 66.662 251.576 66.4342C243.286 66.0438 238.218 71.95 237.982 79.949C237.672 87.3627 241.517 93.555 249.309 94.2988C252.302 94.5844 254.571 93.9534 257.341 92.7547C258.259 92.3573 260.174 90.7933 260.976 90.8187L261.171 91.2166C261.212 93.6205 261.33 97.8278 261.125 100.094C253.479 103.87 242.477 104.105 235.387 98.6936C225.444 91.1082 225.105 75.571 232.185 65.9589C235.72 61.1589 240.708 58.9226 246.553 58.1525Z" fill="#1c1c1c"/>
<path d="M287.567 58.3559C289.747 58.2032 291.506 58.2343 293.659 58.5833C293.752 61.8772 293.684 65.461 293.686 68.7765C286.74 65.6763 281.045 67.4683 279.302 75.3475C278.386 79.4829 278.687 84.1155 278.687 88.3632C278.66 92.8507 278.685 97.3384 278.76 101.825C276 101.625 272.637 101.713 269.819 101.724L268.754 101.762C268.117 100.708 268.519 63.4128 268.521 58.758L278.813 58.7543C278.662 60.9117 278.747 63.5069 278.646 65.7687C280.812 61.6669 282.647 59.0562 287.567 58.3559Z" fill="#1c1c1c"/>
<path d="M210.315 58.7548L220.539 58.7523C220.457 61.3898 220.391 64.0637 220.422 66.7016C220.561 78.3777 220.172 90.177 220.52 101.841C218.542 101.639 212.22 101.614 210.332 101.833L210.315 58.7548Z" fill="#1c1c1c"/>
<path d="M214.394 40.7592C215.841 40.6319 217.407 40.8086 218.679 41.5481C220.013 42.3078 220.982 43.5763 221.363 45.0631C222.376 49.0546 219.921 51.3626 216.338 52.2827C214.836 52.4172 213.406 52.2592 212.099 51.4573C210.74 50.6119 209.77 49.2633 209.402 47.7057C209.043 46.2384 209.29 44.6883 210.089 43.4053C211.218 41.6272 212.485 41.1735 214.394 40.7592Z" fill="#1c1c1c"/>
<path d="M58.3552 74.3997L89.8053 74.3671C95.014 74.368 100.698 74.4776 105.875 74.2983L105.862 108.135C105.867 110.056 106.021 120.925 105.774 122H59.0915C58.6989 121.727 58.4119 121.575 58.4121 121.015C58.4172 105.549 58.0991 89.8527 58.3552 74.3997Z" fill="#1c1c1c"/>
<path d="M6.01562 74.3566L36.8858 74.3666C41.7433 74.3675 48.9102 74.5897 53.498 74.2456C53.522 79.3808 53.9737 120.044 53.3419 121.763L53.1 122H6.01562V74.3566Z" fill="#1c1c1c"/>
<path d="M6.01562 22H53.5158L53.5334 69.4498L6.01562 69.4623V22Z" fill="#1c1c1c"/>
<path d="M58.3476 22H105.859C106.005 26.8779 105.868 32.49 105.867 37.4158L105.905 69.4541C103.835 69.4105 101.741 69.3813 99.6714 69.4055C85.8949 69.5676 72.0055 69.1479 58.2397 69.4662C58.5149 64.1591 58.3458 57.6984 58.3451 52.2642L58.3476 22Z" fill="#1c1c1c"/>
<path d="M428.161 58.7664C428.367 55.4609 427.882 52.1543 428.67 48.8628C431.051 38.9098 440.605 35.9926 449.722 38.0869C449.859 40.7376 449.768 44.1415 449.77 46.8481C438.859 43.1687 438.256 50.2456 438.475 58.6917C443.523 58.7648 448.571 58.773 453.618 58.7162L453.648 48.8972C456.893 47.7991 460.592 46.8319 463.898 45.9429C463.549 48.6139 463.761 55.6991 463.796 58.6849C467.093 58.8032 470.664 58.737 473.984 58.7333V66.9776C470.566 66.9511 467.15 66.9518 463.732 66.9796C463.766 71.3657 463.764 75.7518 463.722 80.1379C463.709 84.2447 463.046 90.3593 466.026 93.4737C469.755 94.6116 470.363 94.2908 473.984 92.9787V101.337C469.428 103.289 461.042 103.405 457.148 99.8349C452.533 95.6043 453.488 87.4737 453.54 81.7513L453.662 67.139C449.809 66.8009 442.392 66.9792 438.414 67.0751C438.537 70.0424 438.395 73.6436 438.423 76.6728C438.498 85.0162 438.283 93.4522 438.507 101.789C435.836 101.698 430.738 101.551 428.223 101.873C428.108 92.9338 428.273 83.9609 428.2 75.0191C428.177 72.394 428.168 69.7169 428.266 67.0977C425.864 66.9689 423.497 67.0242 421.091 67.0552C421.109 64.289 421.098 61.5228 421.059 58.757L428.161 58.7664Z" fill="#1c1c1c"/>
</g>
<defs>
<clipPath id="clip0_910_6864">
<rect width="467.969" height="100" fill="white" transform="translate(6.01562 22)"/>
</clipPath>
</defs>
</svg>
