<svg viewBox="50.11 38.69 379.68 65.76" fill="none" xmlns="http://www.w3.org/2000/svg">
<path d="M166.503 39.7457C174.085 39.6104 181.92 39.7557 189.551 39.7241C196.723 39.8695 203.583 39.2835 210.698 40.5717C225.768 43.3005 223.914 56.4815 223.971 68.164C223.932 69.7327 224.024 71.329 223.972 72.8944C223.596 84.1362 226.706 98.7451 212.22 102.305C208.619 103.19 205.695 103.221 202.092 103.402C194.089 103.498 186.017 103.417 178.011 103.421C171.028 103.27 163.82 103.872 156.941 102.526C147.478 100.658 144.243 94.0637 144.244 85.075C144.179 76.9588 144.187 68.8045 144.21 60.6905C144.225 55.146 144.238 49.4626 148.288 45.1722C152.932 40.2507 160.194 39.9483 166.503 39.7457ZM201.666 87.6532C204.729 87.4364 206.51 86.7332 206.612 83.255C206.841 75.4846 206.762 67.5758 206.64 59.8099C206.591 56.7216 204.462 55.5653 201.692 55.5794C199.363 55.4909 197.103 55.5 194.785 55.4988L182.982 55.497L172.326 55.5023C170.71 55.5038 167.86 55.3616 166.321 55.5783C163.343 55.8258 161.593 56.6375 161.444 59.9376C161.263 63.9221 161.249 68.4682 161.381 72.4243C161.483 75.4519 160.506 84.63 162.765 86.5578C163.385 87.0837 164.144 87.4191 164.951 87.5242C166.92 87.7913 169.896 87.73 171.92 87.7304L182.117 87.7319L194.606 87.7324C196.65 87.7315 199.709 87.8868 201.666 87.6532Z" fill="#1c1c1c"/>
<path d="M118.693 40.7849L137.002 40.7761L136.993 86.4413L137 97.157C137.003 98.227 137.085 101.737 136.901 102.539L136.615 102.629L106.072 102.622C97.4297 91.8667 89.1081 80.7754 80.5165 69.9726C76.8143 65.3179 73.0701 60.5546 69.492 55.8051L69.4931 102.644L51.1064 102.641C51.2326 94.6953 51.1345 86.503 51.1354 78.5419L51.1104 40.7815L82.6594 40.7799C86.2851 45.1104 90.1134 50.2519 93.6203 54.7422L118.693 86.8121V40.7849Z" fill="#1c1c1c"/>
<path d="M371.486 40.7806L395.086 40.7834C396.888 43.7748 398.801 47.497 400.491 50.5946L410.738 69.4297L422.057 90.2002C424.257 94.2295 426.735 98.5564 428.786 102.638C421.639 102.477 413.902 102.626 406.707 102.624C404.94 99.3392 402.889 94.9769 401.048 91.8775L395.291 91.8883L364.369 91.895C362.593 95.412 360.712 99.1833 358.828 102.623L337.704 102.626C341.218 96.7451 344.73 89.7493 348.085 83.6954C355.968 69.4693 363.555 54.978 371.486 40.7806ZM370.996 78.4274L382.995 78.4188L394.531 78.4126L386.102 62.4199C385.681 61.6183 383.071 56.5477 382.708 56.1523C379.205 63.2985 374.788 71.3883 370.996 78.4274Z" fill="#1c1c1c"/>
<path d="M231.266 40.7771L250.415 40.7706L250.391 70.3562C257.588 63.1173 265.83 56.3684 273.18 49.2442C276.078 46.4369 279.362 43.3587 282.425 40.7914C290.738 40.702 299.206 40.7828 307.533 40.7789C304.389 43.7839 299.471 47.7291 296.017 50.6805L273.655 69.7537C280.322 75.0805 288.348 82.2896 294.884 88.0004L311.888 102.635C309.466 102.518 306.148 102.621 303.67 102.623C297.442 102.65 291.213 102.643 284.985 102.603C284.055 101.959 282.086 100.035 281.155 99.1637L274.121 92.5907L250.394 70.5014L250.415 102.644C244.146 102.538 237.554 102.617 231.27 102.648L231.266 40.7771Z" fill="#1c1c1c"/>
<path d="M315.27 40.7773C321.541 40.8663 328.032 40.7789 334.322 40.7782C334.009 61.0706 334.305 82.2509 334.312 102.634L315.271 102.649L315.27 40.7773Z" fill="#1c1c1c"/>
</svg>
