<svg width="64" height="75" viewBox="0 -2.88831 64 75" fill="none" xmlns="http://www.w3.org/2000/svg">
<circle cx="32" cy="32" r="32" transform="matrix(-1 0 0 1 64 8.11169)" fill="white"/>
<circle cx="32" cy="32" r="30.5" transform="matrix(-1 0 0 1 64 8.11169)" stroke="black" stroke-opacity="0.05" stroke-width="3"/>
<mask id="mask0_2739_64308" style="mask-type:alpha" maskUnits="userSpaceOnUse" x="0" y="-1" width="66" height="71">
<path d="M7.62939e-06 34.3651C7.62939e-06 53.643 14.7351 69.2707 32.9118 69.2707C48.814 69.2707 63.5 53.1117 65.8235 34.3651C67.7779 12.1455 53.0155 -3.44379 32.9118 -0.540505C14.7351 -0.540505 7.62939e-06 15.0873 7.62939e-06 34.3651Z" fill="#BDBFBC"/>
</mask>
<g mask="url(#mask0_2739_64308)">
<path d="M16.0961 5.97784C16.8286 4.30368 18.9332 2.9598 20.5255 2.18204C21.3086 1.79957 22.2735 1.58219 22.8159 0.917635L23.0369 0.875799C23.1597 1.04325 23.2097 1.11984 23.3093 1.30216C23.9237 1.29047 24.3766 0.313782 25.2535 0.268665C25.3681 0.439597 25.3315 0.346492 25.3514 0.563465C26.1585 0.57864 27.25 -0.0201876 28.3839 0.000525276C29.6707 0.0241093 30.5921 0.235647 31.8264 0.381971C35.4616 0.81284 38.7569 2.48392 41.3625 5.189C42.4939 6.37538 43.4065 7.75248 44.058 9.25683C44.239 9.66893 44.36 10.1914 44.5144 10.5245C44.6694 10.8586 45.2912 11.3046 45.4073 11.7629C45.3426 11.9931 45.3496 11.9821 45.1882 12.1579C45.3782 12.7801 45.8175 12.9929 45.8637 13.5532L45.792 13.6849C45.3209 13.6254 45.2012 13.4231 44.9225 13.5616C45.1074 13.7424 45.4321 13.7728 45.4663 13.8083C46.0202 14.386 46.273 14.5587 46.3752 15.3524L46.4354 15.4847C46.2535 15.5913 46.1605 15.5799 45.9444 15.5985L45.7963 15.7693C46.0121 16.0294 46.2251 16.2987 46.4627 16.5381C46.2983 17.4348 45.8572 18.7351 46.1968 19.4299L46.1353 19.5676C45.9322 19.461 45.8323 19.4093 45.6174 19.3314C45.4679 19.7513 45.6744 19.8645 45.9777 20.1465C46.1297 20.9953 45.3704 20.5813 45.3844 21.0618C45.6649 21.2662 46.0165 21.249 46.3396 21.1695C51.2579 19.9593 52.5994 25.8509 50.1991 29.047C49.327 30.2081 48.4441 30.6135 47.0827 31.0366C48.2091 31.9075 48.8195 33.24 47.8065 34.4678C47.4022 34.9561 46.8189 35.2619 46.1871 35.3166C44.061 35.4985 43.141 33.0158 44.5308 31.5205C44.685 31.3561 44.8498 31.2019 45.024 31.0591C44.6681 30.859 44.1789 30.6033 43.8555 30.3728C42.8067 34.6305 40.8458 37.2211 37.3634 39.9417C36.762 40.4117 35.7422 40.8421 35.4639 41.4848C36.3203 42.3175 36.8761 54.1315 38.3505 55.4441C39.8157 56.7373 41.1326 58.6533 42.8888 59.5332C46.2348 61.2095 53.6915 61.4112 55.8065 63.9469C56.4927 64.7694 56.7143 66.0006 56.7797 67.046C57.08 71.8451 53.9843 81.5967 52.6795 86.5707L52.32 86.4399C51.6169 86.6018 50.9316 86.6646 50.2157 86.7448C50.0768 86.7028 49.9626 86.6099 49.8412 86.5267L49.7364 86.3597L49.401 85.9983C49.2911 86.2991 49.1442 86.9635 48.9926 87.095C48.7814 86.9189 48.7625 86.866 48.6366 86.619C48.3963 86.3753 48.0175 85.6255 47.8273 85.2793C47.5594 85.0608 46.9129 83.5373 46.7592 83.1276L46.4156 82.6841C46.1575 81.8181 44.9293 79.5111 44.4738 78.6294C44.1814 78.9997 43.8044 79.5088 43.5008 79.8525C44.3992 81.1212 45.8533 82.9552 46.6429 84.1859C45.4136 83.1941 43.8532 81.4762 43.1967 80.0435C42.2564 80.7288 40.0577 82.0752 40.8428 83.3973L41.0639 83.5697C40.0351 84.1963 39.7957 84.1597 39.6922 85.404L39.3472 85.1992C39.0887 86.0652 38.9073 86.6374 38.5561 87.465L38.9648 84.6732C38.9215 84.2907 38.9229 84.1931 38.7498 83.8436C38.374 85.1892 38.2263 86.3058 37.7447 87.6853C37.661 85.2804 38.6773 81.164 39.0666 78.731C39.2222 77.7585 39.5451 76.5536 39.5282 75.5413C39.5224 75.1978 38.9559 74.7769 38.6695 74.5569L38.5742 74.6879L38.7316 74.9656C38.6079 75.0874 38.4368 75.2785 38.4007 75.4506C37.8411 78.123 37.347 80.816 36.7683 83.485C36.503 84.7084 36.3476 85.6405 35.7766 86.7595C36.4455 83.8374 36.8421 80.7476 37.4782 77.8045C37.7659 76.473 37.6549 75.5197 38.2947 74.2654L38.3273 74.2026L38.0394 73.8636L37.8606 74.0134C37.6039 75.0136 37.5332 76.1467 37.3309 77.0677C36.7722 79.6128 36.0898 84.4581 35.1195 86.668C33.1611 86.494 30.6715 86.9666 28.5164 86.9395C27.6082 84.9831 27.4695 79.7366 26.8644 77.4321C26.6908 76.7708 26.1052 74.1969 26.0484 73.6547L25.8557 73.6711C25.6046 73.932 25.652 73.8087 25.647 74.1277C25.7692 74.261 26.0377 74.6388 26.0616 74.8188C26.5759 78.6882 27.7648 83.5201 27.7696 87.367C27.7343 87.2797 27.5195 86.7034 27.5013 86.6768C26.8598 85.7396 25.7699 75.4864 25.4263 75.3198C25.1441 76.7494 25.543 78.0946 25.7298 79.3871C26.0254 81.433 26.7395 85.3951 26.3785 87.2825C25.5966 85.1346 24.979 76.6441 24.3575 75.7108L24.0262 75.6951C24.311 77.1305 25.7163 85.8242 25.1789 86.6409C24.3866 85.6991 21.6816 62.8381 21.3555 60.021C21.2728 59.2652 21.0497 57.6734 21.1307 56.9962C20.9609 56.98 20.5718 56.8333 20.392 56.7721L20.2208 56.7222C19.1048 56.6292 18.0485 56.4946 16.9292 56.544C16.4193 56.6136 15.8898 56.6549 15.423 56.8647C14.2889 57.446 13.5691 58.2676 13.1776 59.4881C13.1373 59.614 13.0986 59.7404 13.0616 59.8673C13.9737 61.9676 14.6834 67.6711 15.0725 70.2763L15.1095 70.2661C15.2656 70.0673 15.2426 69.5376 15.2612 69.2338C15.243 68.9103 15.1809 68.5101 15.1337 68.1835C14.7248 65.3506 14.4998 62.475 14.0779 59.647L14.2954 59.2407C15.5539 66.3887 16.3117 74.0365 17.0754 81.2558C17.2596 82.998 17.8385 86.2579 17.8614 87.7852C17.6769 87.2036 17.4898 86.4906 17.1727 85.9822L17.1314 85.9778L17.2765 86.1382L17.0609 86.2373C17.0931 87.3072 17.1083 88.1114 17.0441 89.1895C16.785 88.0942 16.6105 87.1435 16.518 86.0171C14.9101 85.6013 13.3499 85.2541 11.8115 84.6123C11.5647 84.5092 10.3778 84.004 10.1651 83.9789L9.89723 83.882C10.1053 79.2863 10.6215 74.5217 11.0056 69.9231C11.2985 67.0794 11.4523 64.0989 12.0107 61.3189C13.3018 54.8891 18.0391 55.5253 23.0765 57.048C25.6388 57.8225 26.2908 55.7439 28.0849 54.635C28.1242 51.0508 27.7264 47.2934 27.6461 43.6693C23.7708 43.5983 21.2239 42.602 18.1599 40.1215C17.6107 39.6768 16.6637 38.4972 16.2496 38.2548C16.1549 38.4725 16.0172 38.744 15.9345 38.9612C15.0411 41.3094 11.4737 40.3196 11.8665 37.8455C12.0027 36.9874 12.3041 36.5977 13.0112 36.0748C11.2026 34.6682 9.36024 31.2381 11.0382 29.0368C11.1737 28.859 12.402 28.3614 12.6826 28.2419C12.8976 27.7207 12.6854 18.589 12.8689 17.346C13.0025 16.4423 13.1012 14.1933 13.3271 13.1117C13.4794 12.3818 13.7622 11.5291 13.8037 10.7941C13.8263 10.3918 13.6219 10.6207 13.5609 10.2253L13.7768 10.1177C14.0588 9.24176 14.0221 9.12373 14.9253 8.76167C14.9802 8.64129 15.3232 8.17709 15.4203 8.04102L15.3136 7.91982L14.8055 7.91428L14.7484 7.81062L14.8985 7.59334C15.0511 7.24153 15.8216 6.32298 16.0961 5.97784Z" fill="black"/>
<path d="M38.3505 55.4441C39.8157 56.7373 41.1326 58.6533 42.8888 59.5332C46.2348 61.2095 53.6915 61.4112 55.8065 63.9469C56.4927 64.7694 56.7143 66.0006 56.7797 67.046C57.08 71.8451 53.9843 81.5967 52.6795 86.5707L52.32 86.4399C51.6169 86.6018 50.9316 86.6646 50.2157 86.7448C50.0768 86.7028 49.9626 86.6099 49.8412 86.5267L49.7364 86.3597L49.401 85.9983C49.2911 86.2991 49.1442 86.9635 48.9926 87.095C48.7814 86.9189 48.7625 86.866 48.6366 86.619C48.3963 86.3753 48.0175 85.6255 47.8273 85.2793C47.5594 85.0608 46.9129 83.5373 46.7592 83.1276L46.4156 82.6841C46.1575 81.8181 44.9293 79.5111 44.4738 78.6294C44.1814 78.9997 43.8044 79.5088 43.5008 79.8525C44.3992 81.1212 45.8533 82.9552 46.6429 84.1859C45.4136 83.1941 43.8532 81.4762 43.1967 80.0435C42.2564 80.7288 40.0577 82.0752 40.8428 83.3973L41.0639 83.5697C40.0351 84.1963 39.7957 84.1597 39.6922 85.404L39.3472 85.1992C39.0887 86.0652 38.9073 86.6374 38.5561 87.465L38.9648 84.6732C38.9215 84.2907 38.9229 84.1931 38.7498 83.8436C38.7236 83.586 39.295 80.9746 39.3829 80.4949L41.9844 67.0396C42.2471 65.73 43.2338 61.3161 43.2405 60.2403C41.9774 59.6525 41.8332 59.4801 40.8051 58.5184C40.4727 58.2522 39.8589 57.4903 39.353 57.0591L39.0214 56.9773C38.8298 56.6158 38.4576 56.0307 38.167 55.7567L38.3505 55.4441Z" fill="black"/>
<path d="M48.8074 65.6676C49.6543 64.9126 53.2437 63.4509 54.252 63.74C54.0946 64.4842 53.6384 65.6226 53.3742 66.373C53.0066 67.4223 52.6743 68.4836 52.3778 69.5551C50.9418 74.7684 49.5955 80.0061 48.3398 85.2658C48.1656 85.2889 48.1234 85.3071 47.9562 85.242L47.8273 85.2793C47.5594 85.0608 46.9129 83.5373 46.7592 83.1276L46.9816 82.9961C47.2266 82.5252 48.2044 77.6103 48.4484 76.5528C49.1588 73.4567 49.9347 70.376 50.7757 67.3127C50.584 67.1768 50.478 66.9531 50.3528 66.7459C50.4463 66.4011 50.6139 65.9685 50.4958 65.6493L50.358 65.6318C50.0377 65.9377 49.9389 66.3595 49.7977 66.7818L49.507 66.4112L49.3295 66.2595C48.2852 66.9663 46.8858 76.4097 46.3678 77.6435L46.2719 77.5726L46.3562 77.5493L46.3055 77.4845L46.2073 77.506L46.2906 77.4912C46.1164 77.672 46.159 77.5666 46.1586 77.8175C46.0458 77.611 46.0632 77.1682 46.0338 76.8964C45.8926 75.5468 48.2958 68.3738 47.7503 67.4953C47.3489 67.8616 47.1201 68.7718 46.968 69.3023L46.6019 69.3841C46.2998 69.7749 46.1791 70.0851 45.9805 70.5278L45.729 70.2213C46.2503 68.5931 47.3154 66.5896 48.8074 65.6676Z" fill="#F5F7F7"/>
<path d="M53.2752 64.334C52.6809 66.0925 52.0298 69.3033 51.526 71.2433L49.0922 80.5494C48.8726 81.3812 47.9636 84.5368 47.9562 85.242L47.8273 85.2793C47.5594 85.0608 46.9129 83.5373 46.7592 83.1276L46.9816 82.9961C47.2266 82.5252 48.2044 77.6103 48.4484 76.5528C49.1588 73.4567 49.9347 70.376 50.7757 67.3127C50.9239 66.7891 51.2576 65.4705 51.7218 65.1754C51.923 66.0223 48.9556 76.5576 48.6041 78.3017L48.86 78.5925C49.6294 75.6682 51.7254 66.4042 53.2752 64.334Z" fill="black"/>
<path d="M48.86 78.5925C48.7443 79.1043 47.7632 83.9143 47.7322 83.9722L47.5937 83.9043C47.4269 83.5849 47.3364 83.4395 47.4319 83.0678C47.8386 81.484 48.2196 79.8909 48.6041 78.3017L48.86 78.5925Z" fill="#EEF0F0"/>
<path d="M54.2576 63.2603C54.6517 63.4988 55.1107 63.7061 55.2532 64.1364C55.1925 65.0896 53.4676 69.6864 53.0564 71.0117C52.0848 74.1978 51.1784 77.4034 50.338 80.6265C49.8978 82.2889 49.2183 84.7301 48.9062 86.4032L48.6366 86.619C48.3963 86.3753 48.0175 85.6255 47.8273 85.2793L47.9562 85.242C48.1234 85.3071 48.1656 85.2889 48.3398 85.2658C49.5955 80.0061 50.9418 74.7684 52.3778 69.5551C52.6743 68.4836 53.0066 67.4223 53.3742 66.373C53.6384 65.6226 54.0946 64.4842 54.252 63.74L54.2862 63.5795L54.2576 63.2603Z" fill="#EEF0F0"/>
<path d="M54.2862 63.5795L54.494 63.728C54.485 64.4405 49.0133 84.4638 48.556 85.3903L48.3398 85.2658C49.5955 80.0061 50.9418 74.7684 52.3778 69.5551C52.6743 68.4836 53.0066 67.4223 53.3742 66.373C53.6384 65.6226 54.0946 64.4842 54.252 63.74L54.2862 63.5795Z" fill="black"/>
<path d="M48.3398 85.2658L48.556 85.3903C48.4266 85.9634 48.5085 85.9783 48.9062 86.4032L48.6366 86.619C48.3963 86.3753 48.0175 85.6255 47.8273 85.2793L47.9562 85.242C48.1234 85.3071 48.1656 85.2889 48.3398 85.2658Z" fill="#0C0F0B"/>
<path d="M39.3472 85.1992C39.5281 83.6214 40.3454 80.1524 40.6867 78.4329L43.438 64.4031C43.5575 63.792 43.954 60.8497 44.2055 60.65C44.5092 60.6803 44.6354 60.7037 44.9292 60.7739L44.6565 61.0707L44.4573 61.1862L41.4244 76.6383C41.0406 78.6604 40.7016 80.7073 40.2746 82.7234C40.1901 83.1227 40.396 83.4469 40.8428 83.3973L41.0639 83.5697C40.0351 84.1963 39.7957 84.1597 39.6922 85.404L39.3472 85.1992Z" fill="#EEF0F0"/>
<path d="M49.9094 61.882L50.1169 61.9981C51.2341 62.367 53.3829 62.709 54.2576 63.2603L54.2862 63.5795L54.252 63.74C53.2437 63.4509 49.6543 64.9126 48.8074 65.6676L48.465 65.4892C49.6891 64.919 49.4611 62.9171 49.9094 61.882Z" fill="white"/>
<path d="M49.9094 61.882L50.1169 61.9981L49.9414 62.1345C49.9886 62.6516 49.686 64.4721 49.8287 64.6883C50.2213 64.4376 50.8445 63.2965 51.1146 62.8448C50.91 63.5518 50.8429 63.8057 50.4855 64.451C51.5656 63.8723 53.0727 63.4865 54.2862 63.5795L54.252 63.74C53.2437 63.4509 49.6543 64.9126 48.8074 65.6676L48.465 65.4892C49.6891 64.919 49.4611 62.9171 49.9094 61.882Z" fill="#252427"/>
<path d="M43.2405 60.2403C43.6421 60.3391 43.6068 60.2601 43.7858 60.5285C43.7742 61.1751 43.4706 61.8935 43.3233 62.5585C43.0284 63.8899 42.7161 65.2203 42.4294 66.554C41.6448 70.2846 40.8905 74.0216 40.1667 77.7645C39.7512 79.9398 39.2186 82.4947 38.9648 84.6732C38.9215 84.2907 38.9229 84.1931 38.7498 83.8436C38.7236 83.586 39.295 80.9746 39.3829 80.4949L41.9844 67.0396C42.2471 65.73 43.2338 61.3161 43.2405 60.2403Z" fill="#CACECB"/>
<path d="M46.7627 82.3817C46.905 81.2543 47.5328 78.953 47.7902 77.7738C48.5909 74.1075 49.6013 70.4246 50.3528 66.7459C50.478 66.9531 50.584 67.1768 50.7757 67.3127C49.9347 70.376 49.1588 73.4567 48.4484 76.5528C48.2044 77.6103 47.2266 82.5252 46.9816 82.9961L46.7592 83.1276L46.4156 82.6841L46.5326 82.4449L46.7627 82.3817Z" fill="#EEF0F0"/>
<path d="M46.4156 82.6841L46.5326 82.4449L46.7627 82.3817C46.8192 82.5806 46.8722 82.8268 46.9816 82.9961L46.7592 83.1276L46.4156 82.6841Z" fill="#0C0F0B"/>
<path d="M49.401 85.9983C51.1263 80.1762 52.8045 74.3403 54.4352 68.4911C54.5543 68.0649 55.4623 64.618 55.5323 64.5707C55.7595 65.5423 54.721 68.4859 54.4121 69.5651L51.31 80.4368C50.892 81.9078 49.951 84.9439 49.7364 86.3597L49.401 85.9983Z" fill="#CACECB"/>
<path d="M44.812 63.7711C44.1377 67.2229 43.512 70.6839 42.9349 74.1532C42.6741 75.675 42.1658 79.4523 41.6569 80.6919L41.5718 80.7165C41.4471 79.6857 42.4476 75.3419 42.6419 74.0985C43.1676 70.7331 44.0494 66.9162 44.3985 63.5596L44.812 63.7711Z" fill="#CACECB"/>
<path d="M49.507 66.4112L49.7977 66.7818C49.7867 66.946 49.1993 69.2574 49.133 69.5364C48.5695 71.9084 48.0088 74.2914 47.4749 76.6654C47.2792 77.5363 46.7678 80.8095 46.3912 81.3814L46.383 81.3754L46.4763 81.1915L46.353 81.0783C46.3855 80.0814 46.8083 78.4557 47.0416 77.4413L48.1952 72.405C48.6169 70.5531 49.0326 68.1484 49.507 66.4112Z" fill="#CACECB"/>
<path d="M46.244 61.4743L46.3595 61.5747C46.2945 63.252 45.057 67.7946 45.1349 68.7563L45.2592 68.847L45.2441 68.9286C45.1371 69.4797 44.9658 69.6062 44.8247 70.0347C44.7889 70.1432 44.9161 71.1899 44.8905 71.3622C44.8201 71.8376 44.7537 72.4878 44.6553 72.9397L44.4385 72.4395C44.508 71.662 44.5134 71.425 44.4436 70.6712C44.6047 70.1459 44.7778 69.7672 44.6837 69.2345C44.7905 68.3364 45.989 61.8105 46.244 61.4743Z" fill="#0C0F0B"/>
<path d="M45.8176 61.0331L46.1457 61.1292L46.244 61.4743C45.989 61.8105 44.7905 68.3364 44.6837 69.2345L44.5355 69.1555L44.4718 68.4227C44.4364 67.1363 45.8905 61.9398 45.3388 61.0606L45.8176 61.0331Z" fill="#F4EEF2"/>
<path d="M46.1457 61.1292C46.4798 61.1922 46.9397 61.2314 47.1497 61.4748C47.0493 62.2276 46.7201 63.0769 46.5371 63.8222C46.1492 65.4023 45.5345 67.2611 45.2592 68.847L45.1349 68.7563C45.057 67.7946 46.2945 63.252 46.3595 61.5747L46.244 61.4743L46.1457 61.1292Z" fill="white"/>
<path d="M46.968 69.3023C46.9315 69.9195 46.3833 72.3145 46.2129 73.0437C45.8269 74.6953 45.5731 77.0679 45.1076 78.6093L45.0094 78.6957L44.8554 78.641C44.769 78.274 44.9842 77.8955 45.1144 77.1836C45.5709 74.6901 46.0557 72.0597 46.6778 69.5899C46.6778 69.5899 46.6045 69.3909 46.6019 69.3841L46.968 69.3023Z" fill="#CBCBD0"/>
<path d="M44.4718 68.4227L44.5355 69.1555L44.6837 69.2345C44.7778 69.7672 44.6047 70.1459 44.4436 70.6712C44.1292 72.5962 43.7034 74.5056 43.6416 76.4608C43.6335 76.7175 43.6349 76.9667 43.5663 77.2163C43.4961 76.87 43.6031 76.7469 43.4292 76.3995L43.1439 76.4169C43.4865 73.7027 44.0699 71.0953 44.4718 68.4227Z" fill="#CBCBD0"/>
<path d="M48.465 65.4892C48.4464 65.01 48.9961 62.5385 49.15 61.985C49.4499 61.812 49.5068 61.8775 49.9094 61.882C49.4611 62.9171 49.6891 64.919 48.465 65.4892Z" fill="white"/>
<path d="M43.1439 76.4169L43.4292 76.3995C43.6031 76.7469 43.4961 76.87 43.5663 77.2163C43.5435 77.9034 43.4302 78.6697 43.3149 79.3467C43.1312 79.5974 42.839 79.9638 42.5417 80.0158C42.4984 79.6583 43.0465 76.9541 43.1439 76.4169Z" fill="white"/>
<path d="M44.9292 60.7739C45.197 60.8662 45.5446 61.0059 45.8176 61.0331L45.3388 61.0606C45.1485 61.6897 44.9685 63.0195 44.812 63.7711L44.3985 63.5596C44.5965 62.792 44.6529 61.8617 44.6565 61.0707L44.9292 60.7739Z" fill="white"/>
<path d="M46.0338 76.8964C46.0632 77.1682 46.0458 77.611 46.1586 77.8175C46.159 77.5666 46.1164 77.672 46.2906 77.4912L46.2073 77.506L46.3055 77.4845L46.3562 77.5493L46.2719 77.5726L46.3678 77.6435C46.2891 78.2735 46.0859 79.5036 45.8017 80.0368L45.6915 80.0521C45.3671 79.3102 45.8363 77.6861 46.0338 76.8964Z" fill="white"/>
<path d="M45.6817 71.6494L45.4338 72.8605L45.298 72.8638L45.309 73.1659C45.2143 72.4954 45.3949 71.7239 45.5222 71.0508L45.6817 71.6494Z" fill="#878586"/>
<path d="M45.5222 71.0508L45.729 70.2213L45.9805 70.5278L45.6817 71.6494L45.5222 71.0508Z" fill="#CBCBD0"/>
<path d="M44.4385 72.4395L44.6553 72.9397C44.6248 73.1804 44.5957 73.6255 44.4284 73.772C44.313 73.2529 44.3749 72.9592 44.4385 72.4395Z" fill="#615768"/>
<path d="M47.3923 61.3973C47.8772 61.5185 48.3425 61.6134 48.7907 61.8375C49.0301 62.4328 47.8362 65.4614 47.5981 66.1466C47.5377 66.3206 47.15 66.8077 47.0127 66.9723C47.3083 65.2505 47.8303 63.5615 48.0843 61.9767L48.0026 61.9194L47.8509 62.1443C47.7417 62.6774 46.2981 67.4552 46.1577 67.659L46.1232 67.441L46.1248 67.598C46.1905 66.5877 47.132 62.6125 47.3923 61.3973Z" fill="white"/>
<path d="M44.6042 76.0933L44.7544 76.2905C44.6906 77.0773 44.5479 77.8624 44.1849 78.5692L44.0919 78.3953C44.2952 77.6215 44.3618 76.8643 44.6042 76.0933Z" fill="#878586"/>
<path d="M35.4639 41.4848C36.3203 42.3175 36.8761 54.1315 38.3505 55.4441L38.167 55.7567C38.4576 56.0307 38.8298 56.6158 39.0214 56.9773C39.0242 57.5264 39.0502 57.6672 39.1887 58.2001C38.7579 59.8121 37.8115 61.9436 37.1945 63.5894C35.9893 66.8234 34.8041 70.0649 33.6387 73.3134C33.1657 74.6166 32.2888 76.8441 32.0107 78.1158C31.2942 74.7887 30.3001 71.2741 29.4991 67.9408C29.2129 66.7498 28.4545 63.3886 28.0932 62.3938C28.2442 62.3672 28.3846 62.3905 28.5381 62.4044C28.8476 58.7626 28.5963 53.6325 28.4424 49.9805C30.0543 48.5988 32.5548 45.4203 33.9843 43.7365C34.399 43.2481 34.8471 42.1845 35.3717 41.58L35.4639 41.4848Z" fill="white"/>
<path d="M35.4639 41.4848C36.3203 42.3175 36.8761 54.1315 38.3505 55.4441L38.167 55.7567C38.039 56.0577 38.3627 58.1713 38.3372 58.8423L38.109 58.2853C38.0568 56.9368 37.0745 53.0783 36.7766 51.424C36.1757 48.0873 35.8739 44.8787 35.3717 41.58L35.4639 41.4848Z" fill="#0C0F0B"/>
<path d="M38.109 58.2853L38.3372 58.8423C38.2821 59.3699 38.0724 60.1065 37.9393 60.6375C37.9262 59.9392 38.0009 58.9716 38.109 58.2853Z" fill="#45484E"/>
<path d="M40.0575 59.4703C40.1061 59.1917 39.9787 59.1247 40.0928 58.623L40.2451 58.6076L40.5421 58.8928L40.6561 58.9196L40.8051 58.5184C41.8332 59.4801 41.9774 59.6525 43.2405 60.2403C42.8071 60.8855 42.4977 62.4004 42.3023 63.2148C41.764 65.5261 41.2441 67.8415 40.7427 70.161C40.5242 71.1811 40.2507 72.8937 39.9246 73.7901C39.673 70.7684 39.619 69.8128 40.2497 66.8997C39.0533 64.5603 40.6398 63.5269 40.474 61.1668C40.4343 60.5994 40.2288 60.0164 40.0575 59.4703Z" fill="white"/>
<path d="M40.6561 58.9196C41.1472 59.4096 41.3976 61.3272 41.2541 61.9803C41.1158 62.6088 40.6006 66.1649 40.3472 66.4665L40.218 66.4157C39.9299 65.4722 40.8604 62.5354 40.9301 61.4646C40.984 60.6365 40.7298 59.7177 40.5421 58.8928L40.6561 58.9196Z" fill="#0C0F0B"/>
<path d="M42.3662 60.1173L42.4553 60.2404C41.9204 62.5244 41.565 65.0669 40.9522 67.3711C40.71 68.2816 40.5813 69.2361 40.2406 70.1265C39.8098 69.7568 41.8924 60.8427 42.3662 60.1173Z" fill="#0C0F0B"/>
<path d="M21.5884 59.2266C22.0496 61.301 22.6136 65.1734 22.853 67.3232L23.1913 67.4076C23.4933 69.1755 23.6773 70.9192 23.8953 72.6933C23.9849 73.4224 24.1445 75.0817 24.3575 75.7108L24.0262 75.6951C24.311 77.1305 25.7163 85.8242 25.1789 86.6409C24.3866 85.6991 21.6816 62.8381 21.3555 60.021C21.4091 59.644 21.414 59.5745 21.5884 59.2266Z" fill="black"/>
<path d="M22.853 67.3232L23.1913 67.4076C23.4933 69.1755 23.6773 70.9192 23.8953 72.6933C23.9849 73.4224 24.1445 75.0817 24.3575 75.7108L24.0262 75.6951C23.5855 73.085 23.1782 69.9611 22.853 67.3232Z" fill="#CBCBD0"/>
<path d="M21.1307 56.9962L21.2433 57.0265C21.4813 57.0933 22.0235 57.2608 22.2413 57.2949L22.374 57.3175C22.4115 57.8411 22.4587 58.3639 22.5154 58.8858L22.2827 59.1813C22.4839 62.0164 22.9763 64.723 23.1913 67.4076L22.853 67.3232C22.6136 65.1734 22.0496 61.301 21.5884 59.2266C21.414 59.5745 21.4091 59.644 21.3555 60.021C21.2728 59.2652 21.0497 57.6734 21.1307 56.9962Z" fill="#EEF0F0"/>
<path d="M21.1307 56.9962L21.2433 57.0265C21.3206 57.5298 21.5988 58.8316 21.5884 59.2266C21.414 59.5745 21.4091 59.644 21.3555 60.021C21.2728 59.2652 21.0497 57.6734 21.1307 56.9962Z" fill="#0C0F0B"/>
<path d="M22.2413 57.2949L22.374 57.3175C22.4115 57.8411 22.4587 58.3639 22.5154 58.8858L22.2827 59.1813C22.1374 58.8132 22.1239 57.7283 22.2413 57.2949Z" fill="#252427"/>
<path d="M22.374 57.3175C22.8069 57.44 22.8157 57.3649 23.0398 57.6554C23.2539 58.7772 23.6414 63.04 23.6707 64.288C23.6438 64.6483 23.6575 65.0495 23.4513 65.3296C23.0436 63.2852 22.8889 60.9898 22.5154 58.8858C22.4587 58.3639 22.4115 57.8411 22.374 57.3175Z" fill="white"/>
<path d="M23.6707 64.288C24.1108 66.9315 24.1779 69.677 24.7673 72.3207C24.8663 72.7643 25.1181 74.3651 25.0081 74.71C24.5363 73.9856 23.4036 66.2789 23.4513 65.3296C23.6575 65.0495 23.6438 64.6483 23.6707 64.288Z" fill="#EEF0F0"/>
<path d="M39.0214 56.9773L39.353 57.0591C39.8589 57.4903 40.4727 58.2522 40.8051 58.5184L40.6561 58.9196L40.5421 58.8928L40.2451 58.6076L40.0928 58.623C39.9787 59.1247 40.1061 59.1917 40.0575 59.4703C39.9126 59.9962 40.2077 61.9076 39.9386 62.3752C39.7391 62.0669 39.4733 59.7855 39.4074 59.2881C39.2552 58.9485 39.512 58.6192 39.1887 58.2001C39.0502 57.6672 39.0242 57.5264 39.0214 56.9773Z" fill="#CBCBD0"/>
<path d="M39.0214 56.9773L39.353 57.0591C39.1191 57.6013 39.6152 58.4209 39.4074 59.2881C39.2552 58.9485 39.512 58.6192 39.1887 58.2001C39.0502 57.6672 39.0242 57.5264 39.0214 56.9773Z" fill="#45484E"/>
<path d="M28.0932 62.3938C28.0679 62.3562 28.0109 62.2749 28.0028 62.2296C27.7989 61.0846 26.1141 55.6138 27.8742 55.2777C27.9165 55.4723 27.4306 56.1942 27.3564 56.626C27.1782 57.663 27.9635 61.6697 28.5381 62.4044C28.3846 62.3905 28.2442 62.3672 28.0932 62.3938Z" fill="#CACECB"/>
<path d="M14.8985 7.59334C15.0511 7.24153 15.8216 6.32298 16.0961 5.97784C16.2113 6.19071 16.2678 6.27602 16.4723 6.40798L16.5153 6.61716C16.2331 6.88982 16.0525 6.92857 15.8268 7.14196C15.7207 7.43604 15.6141 7.81421 15.4203 8.04102L15.3136 7.91982L14.8055 7.91428L14.7484 7.81062L14.8985 7.59334Z" fill="#252427"/>
<path d="M14.8985 7.59334C15.3761 7.50843 15.1579 7.0507 15.8268 7.14196C15.7207 7.43604 15.6141 7.81421 15.4203 8.04102L15.3136 7.91982L14.8055 7.91428L14.7484 7.81062L14.8985 7.59334Z" fill="#696E75"/>
<path d="M15.2612 69.2338C15.3463 69.7534 15.7252 72.6963 15.5566 72.9842C15.4193 72.6486 15.0403 70.583 15.0725 70.2763L15.1095 70.2661C15.2656 70.0673 15.2426 69.5376 15.2612 69.2338Z" fill="#CBCBD0"/>
<path d="M13.7768 10.1177C14.0588 9.24176 14.0221 9.12373 14.9253 8.76167C14.8423 9.42427 14.5099 10.0404 13.7768 10.1177Z" fill="#252427"/>
<path d="M45.7963 15.7693C45.5176 15.5167 45.2397 14.8055 45.6548 14.5155C46.041 14.7544 45.7216 15.0446 46.1395 15.3966L46.3752 15.3524L46.4354 15.4847C46.2535 15.5913 46.1605 15.5799 45.9444 15.5985L45.7963 15.7693Z" fill="#CBCBD0"/>
<path d="M37.8606 74.0134C37.5923 73.7464 37.0803 73.3145 37.0571 72.9492C37.4621 73.1504 37.7394 73.5213 38.0394 73.8636L37.8606 74.0134Z" fill="#CBCBD0"/>
<path d="M25.8557 73.6711C26.2109 73.1606 26.3391 72.939 26.848 72.5578L26.893 72.5903C26.5905 73.1252 26.1783 73.406 26.0484 73.6547L25.8557 73.6711Z" fill="#878586"/>
<path d="M13.6452 14.0865C14.3125 10.2457 16.0083 6.92386 19.6585 5.12625C20.1865 4.86631 22.8351 3.80565 23.19 3.91762L23.3136 4.31917C23.7221 4.34859 23.6192 3.83252 24.1678 3.62764C24.6726 3.43918 25.677 3.8803 26.021 3.72157C26.0926 3.50911 26.1038 3.42585 26.2442 3.25676C27.341 3.755 27.2586 3.13904 28.1343 3.29101C28.2187 3.54736 28.2383 3.63 28.3755 3.85877C28.6002 3.79858 28.7042 3.53874 28.8702 3.29736C29.3467 3.19288 28.888 3.47507 29.3414 3.72721C29.5266 3.50439 29.5577 3.45825 29.8088 3.31767L29.9653 3.37447C29.9505 3.57535 29.9405 3.77653 29.9354 3.97792C30.1924 3.95423 30.6935 3.3554 30.9299 3.29439C31.807 3.06788 31.9188 4.43647 32.8863 3.69532C34.5803 3.79283 39.5473 5.91467 40.913 7.08403C40.5618 7.23404 40.486 7.00764 40.1957 7.07942C40.5872 8.79264 41.8262 8.98756 41.9219 9.49298L41.5825 9.52395L41.4923 9.66258C41.6011 9.98055 42.0111 10.2398 42.2911 10.4571C42.0616 10.5549 41.8513 10.5629 41.6028 10.5931L41.553 10.732C41.8998 11.2966 42.2878 11.381 42.6791 11.812C42.9881 12.1523 42.0808 12.4664 41.9617 12.8036L42.1298 13.0076L42.2752 13.0926C42.3079 13.4461 42.3143 13.9277 42.4944 14.2158C42.7474 14.0219 42.6364 13.7002 43.0502 13.5089L43.1792 13.5477C42.9639 14.3331 42.6552 14.2437 42.5877 15.1959L42.7319 15.3054L42.94 15.2319C43.1007 14.8622 43.2824 14.3492 43.5615 14.0796L43.6788 14.1341C43.754 14.5349 43.7281 14.5276 43.3322 14.722L43.2596 14.9297C43.3733 15.13 43.369 15.1192 43.5568 15.2563C43.0241 15.7371 42.9997 15.7528 42.8574 16.4534L42.9583 16.7426C43.2057 17.2141 43.7403 17.8316 43.7455 18.1303C43.4785 18.3854 43.4474 18.3256 43.034 18.4259L43.1234 18.8265C43.3492 18.93 43.9493 18.8035 44.3105 18.785C43.9252 19.002 43.3263 19.3083 43.105 19.6833L43.1532 19.7897C43.4298 19.7245 43.7071 19.6623 43.9851 19.6033L44.0486 19.7309C43.8456 19.905 43.7769 19.9374 43.5372 20.0587L43.4551 20.3751C43.8604 20.4916 43.8667 20.4224 44.0889 20.6941C44.0987 21.1461 44.0221 21.8967 44.2611 22.2068C44.5526 22.4359 44.747 22.5071 45.1293 22.451C46.3155 21.5891 47.5637 21.1563 48.9772 21.7243C53.6461 24.6231 48.9958 33.5785 43.7908 29.7598L43.6589 29.7827C43.6679 29.9373 43.6586 30.0706 43.6296 30.2209C42.8656 34.1804 39.6579 37.9303 36.3676 40.0861C33.2915 42.1016 28.7162 43.9236 24.9757 43.1365C21.335 42.424 17.9523 39.9275 15.8939 36.8718C14.5323 34.8504 13.3132 31.8782 13.2208 29.4027C13.1516 27.5472 13.2205 25.6084 13.2697 23.7412C13.3421 20.9945 13.0817 18.1389 13.6202 15.4389C15.8992 13.3008 19.6065 13.7158 22.4542 14.3089C20.0839 11.9687 16.167 10.9404 14.0368 14.2092L13.6452 14.0865Z" fill="white"/>
<path d="M45.1293 22.451C46.3155 21.5891 47.5637 21.1563 48.9772 21.7243C48.9338 21.9011 48.9111 22.1532 48.7926 22.2327C47.2435 22.9817 46.5483 23.2401 45.3467 24.4339C45.9462 25.0356 46.8407 25.7939 46.8086 26.7152C46.7767 27.6301 45.8691 28.7313 45.0013 28.9798L44.8165 28.9378C44.4923 28.1247 45.7337 26.9436 46.1241 26.1617C45.6017 25.4304 45.1896 25.0194 45.0461 24.1353C45.1791 24.033 45.284 23.8896 45.3938 23.7582C45.0307 23.2625 45.0627 23.0655 45.1293 22.451Z" fill="black"/>
<path d="M45.1293 22.451C46.3155 21.5891 47.5637 21.1563 48.9772 21.7243C48.9338 21.9011 48.9111 22.1532 48.7926 22.2327C47.784 21.4369 45.911 22.7663 45.3938 23.7582C45.0307 23.2625 45.0627 23.0655 45.1293 22.451Z" fill="white"/>
<path d="M43.4551 20.3751C43.8604 20.4916 43.8667 20.4224 44.0889 20.6941C44.0987 21.1461 44.0221 21.8967 44.2611 22.2068C44.5526 22.4359 44.747 22.5071 45.1293 22.451C45.0627 23.0655 45.0307 23.2625 45.3938 23.7582C45.284 23.8896 45.1791 24.033 45.0461 24.1353C44.2919 24.2867 44.4277 24.7209 44.4752 25.2729L44.2896 25.3882C43.9264 25.1991 44.16 24.4157 43.947 24.0372C43.7359 23.6621 43.7025 23.1765 43.8474 22.7895L43.8432 22.558C43.739 22.4326 43.7193 22.3451 43.6645 22.1942C43.9367 21.6299 43.5103 20.9998 43.4551 20.3751Z" fill="#EEF0F0"/>
<path d="M43.8432 22.558C44.4143 22.5542 44.8456 22.8943 44.8905 23.4902L44.7965 23.5904C44.4605 23.4062 44.1499 23.0526 43.8474 22.7895L43.8432 22.558Z" fill="black"/>
<path d="M42.9583 16.7426C43.2057 17.2141 43.7403 17.8316 43.7455 18.1303C43.4785 18.3854 43.4474 18.3256 43.034 18.4259C42.7206 18.1217 42.7253 17.5305 42.841 17.134L42.9583 16.7426Z" fill="#EEF0F0"/>
<path d="M43.6589 29.7827C43.7309 29.3856 43.7795 28.8737 44.0141 28.5625L44.1135 28.5871C44.1214 29.0508 44.0151 29.3479 43.7908 29.7598L43.6589 29.7827Z" fill="#45484E"/>
<path d="M20.3516 33.4215C20.8109 33.5239 24.7088 32.1264 25.4272 31.8722C26.8384 31.373 34.8006 29.603 35.5528 28.7563C35.6948 28.3491 35.6839 28.5094 35.4615 28.0419L35.5391 27.9937L36.5133 28.5653C35.2209 29.4789 34.5913 30.353 33.4685 31.3569C31.0805 33.4483 27.8288 35.7069 24.6057 36.0309C22.3187 36.2609 21.5437 35.4303 20.2277 33.9161C20.1104 33.7812 19.728 33.9431 19.361 33.6336C19.2995 33.3475 19.2999 33.3132 19.4026 33.0395L19.5521 32.9787C19.6907 33.2094 19.7148 33.2582 19.9199 33.4302L20.1865 33.3621L20.3516 33.4215Z" fill="black"/>
<path d="M34.7014 29.4945L34.809 29.6348C34.7958 29.6701 34.7441 29.7952 34.726 29.8156C32.3785 32.4668 25.2263 37.2519 21.6751 35.0355C21.2911 34.7044 21.0709 34.3623 20.7781 33.9545C21.426 33.7647 22.1117 33.5444 22.7467 33.3147C26.6445 31.904 30.8183 30.887 34.7014 29.4945Z" fill="white"/>
<path d="M34.5249 13.3016C38.0975 13.0076 41.8887 18.7287 38.5092 21.4292C36.4209 23.0981 32.3073 23.4032 30.5942 21.394C32.8449 22.8365 35.3015 22.7991 37.6547 21.6125C37.844 21.4781 38.0065 21.326 38.1802 21.1721L38.1602 21.0444C37.6744 21.0153 37.1118 21.0165 36.6918 20.7471C35.2989 19.8535 34.321 17.6932 35.2373 16.1576C35.5311 15.6653 36.1611 15.6143 36.6847 15.5086L36.7009 15.3623C36.4588 15.0965 36.1474 15.0203 35.8366 14.8799C34.3277 14.1977 32.8666 14.6963 31.7791 15.909C30.8532 16.9412 30.476 18.2439 30.0232 19.5426C30.2641 16.72 31.5352 14.007 34.5249 13.3016Z" fill="black"/>
<path d="M14.5808 22.0304C14.0248 20.4485 14.0483 18.4837 15.2639 17.1983C15.8164 16.6102 16.5885 16.2782 17.3955 16.2818C20.2743 16.2705 22.6315 19.1082 22.6643 21.8945C22.6695 22.2095 22.7413 22.5212 22.3844 22.6766C21.9465 22.7534 21.4073 23.0568 20.9958 23.261L20.8998 22.9213C20.7333 22.9274 20.5801 22.9255 20.4157 22.8996C19.7255 22.7913 19.109 22.4068 18.7083 21.8344C18.221 21.1149 18.0419 20.2304 18.2107 19.378C18.4807 18.0244 19.218 17.8882 20.4086 18.1855C18.3727 16.2713 15.3109 16.9669 14.7598 19.7906C14.5865 20.6782 14.5823 21.1215 14.5808 22.0304Z" fill="black"/>
<path d="M22.6643 21.8945C22.6695 22.2095 22.7413 22.5212 22.3844 22.6766C21.9465 22.7534 21.4073 23.0568 20.9958 23.261L20.8998 22.9213C21.6594 22.6828 22.0606 22.3713 22.6643 21.8945Z" fill="#CACECB"/>
<path d="M34.4683 8.282C35.7812 8.27185 37.0417 9.01341 37.89 9.98466C38.5483 10.7383 39.743 12.3743 39.9321 13.3721C38.2562 11.1403 38.2574 9.72975 34.9133 10.1213C32.6636 10.2731 30.2635 11.4892 28.4907 12.8323C29.4974 10.5699 32.04 8.66058 34.4683 8.282Z" fill="black"/>
<path d="M20.1865 33.3621C21.5685 29.7449 25.4625 30.7551 28.3688 29.2708C29.4691 28.7089 32.6917 28.5836 33.8293 29.0657L33.8128 29.1314C33.0676 29.2213 31.9552 28.9573 30.9767 29.0221C29.0718 29.1483 27.6788 29.9681 25.9894 30.3748C23.3585 31.0079 21.874 30.612 20.3516 33.4215L20.1865 33.3621Z" fill="#252427"/>
<path d="M20.9958 23.261C21.4073 23.0568 21.9465 22.7534 22.3844 22.6766C20.5531 24.3166 17.4358 25.3391 15.1963 23.9731C14.8491 23.7614 14.5059 23.4992 14.1851 23.2487C16.9296 24.236 18.1071 24.2977 20.9958 23.261Z" fill="black"/>
<path d="M24.2885 17.6594C24.9822 19.0755 25.2736 23.2549 24.2164 24.7184C23.5287 25.6705 22.8281 26.272 22.4765 27.3687C22.7315 27.8598 22.8345 28.0522 22.9861 28.5782C22.919 28.5421 22.8464 28.506 22.7933 28.4503C21.4149 27.0057 23.1039 25.8301 23.7837 24.7623C25.122 22.6593 24.3919 19.9643 24.2885 17.6594Z" fill="#0C0F0B"/>
<path d="M29.0214 25.5647C29.6641 25.768 30.5459 26.5206 29.8156 27.1814C28.9001 28.0098 27.6231 27.8792 26.4814 27.869C26.6879 27.3944 27.0275 26.9897 27.4591 26.7041C28.5778 26.5293 28.3102 27.6978 29.2974 27.3494C29.7107 26.8023 29.3533 26.0403 29.0214 25.5647Z" fill="black"/>
<path d="M23.6129 27.4393C24.3072 27.3898 25.3386 27.461 25.6137 28.2389L25.4913 28.3341L25.0972 28.2668C24.5756 28.4756 23.5539 29.054 23.2882 28.3613C23.3653 27.9104 23.3975 27.8453 23.6129 27.4393Z" fill="black"/>
<path d="M45.9419 29.0048C46.2782 28.8971 46.6404 29.0689 46.7697 29.3976C46.8989 29.7262 46.7508 30.0987 46.4312 30.2489C46.2053 30.3552 45.939 30.3269 45.7404 30.1756C45.5418 30.0243 45.4437 29.7751 45.4861 29.5291C45.5284 29.283 45.7042 29.0809 45.9419 29.0048Z" fill="black"/>
<path d="M24.3151 57.7676C24.9825 57.6381 25.1507 57.5409 25.741 57.2034C25.5435 58.595 25.5478 60.543 25.4964 61.9886C25.4508 63.267 25.335 64.4191 25.264 65.6759L25.2345 65.9288L24.9978 65.9739C24.8186 66.5064 25.1149 67.0886 24.9641 67.4965C24.9916 69.1379 25.253 69.1177 25.0057 71.0958C24.4741 66.8809 23.9818 61.7224 23.2877 57.6339C23.5523 57.5229 23.8953 57.6561 24.1992 57.7292L24.3151 57.7676Z" fill="white"/>
<path d="M24.3151 57.7676C24.9825 57.6381 25.1507 57.5409 25.741 57.2034C25.5435 58.595 25.5478 60.543 25.4964 61.9886C25.4508 63.267 25.335 64.4191 25.264 65.6759C25.1218 65.4634 24.3964 58.5948 24.3151 57.7676Z" fill="white"/>
<path d="M24.1992 57.7292L24.3151 57.7676C24.3964 58.5948 25.1218 65.4634 25.264 65.6759L25.2345 65.9288L24.9978 65.9739C24.8186 66.5064 25.1149 67.0886 24.9641 67.4965C24.748 67.0082 24.1532 58.6689 24.1992 57.7292Z" fill="#0C0F0B"/>
<path d="M12.5581 28.6871L12.7045 28.8087C12.8168 29.1576 12.7989 29.9084 12.8062 30.3043C12.0923 29.847 11.8558 29.6986 11.0681 29.3874C11.631 29.9718 12.1076 30.3474 12.8172 30.726C13.0777 31.8631 13.0555 32.7178 13.1831 33.8431C13.2131 34.1076 13.9109 34.3698 13.993 34.8493L13.6782 35.2886L13.7311 35.438C14.064 35.6108 14.2377 35.596 14.6115 35.6121L14.6764 35.8476C12.4784 37.2665 8.301 29.227 12.5581 28.6871Z" fill="white"/>
<path d="M45.1809 31.1247C45.6172 31.118 46.2885 31.1805 46.741 31.2085C48.153 32.2945 48.5224 33.7639 46.8446 34.8114C45.1725 35.4039 43.8382 34.1246 44.3215 32.4487C44.494 31.8504 44.7815 31.5714 45.1809 31.1247Z" fill="white"/>
<path d="M13.1571 36.2471C13.9594 36.3918 14.2467 36.3859 15.0368 36.3523C15.3588 36.8706 15.6071 37.3315 15.8924 37.8687C15.7025 38.897 15.6579 39.1078 14.8169 39.7108C14.5627 39.809 14.2936 39.8629 14.0212 39.8705C12.9474 39.8901 12.2146 39.178 12.2122 38.0956C12.2104 37.2034 12.5637 36.8396 13.1571 36.2471Z" fill="white"/>
<path d="M27.3298 72.132L27.4387 72.1167C28.1599 72.8159 29.4272 79.3427 30.5297 80.45C31.3986 81.3227 32.4727 82.0666 33.2084 83.0292C33.7914 81.6788 36.1184 72.7889 36.4172 72.4887L36.5988 72.5184L36.6326 72.729C36.3378 73.3134 36.1101 74.3741 35.8982 74.9788C35.2346 76.872 34.1781 81.7606 33.2606 83.2153C32.6116 82.5648 30.6573 81.3059 30.2229 80.5937C29.0823 78.6125 28.6614 76.1758 27.8895 74.0272C27.7008 73.5015 27.5605 72.7186 27.2349 72.2919L27.3298 72.132Z" fill="#CACECB"/>
<path d="M10.4815 79.4055C11.392 79.6578 16.0793 83.8028 16.3876 84.6932C15.974 84.5852 14.2925 82.8806 13.842 82.51C12.8019 81.6543 11.7113 80.7701 10.6875 79.8909C10.4859 79.7177 10.5167 79.6535 10.4815 79.4055Z" fill="#EEF0F0"/>
<path d="M10.9224 74.8785C11.5903 75.1471 15.8009 82.1304 16.2632 83.3348C16.1149 83.2537 11.0739 75.4135 10.9224 74.8785Z" fill="#CACECB"/>
<path d="M9.94673 83.1924C10.523 83.1588 12.2767 84.0384 12.9698 84.2376C13.977 84.5274 15.0507 84.8429 16.0566 85.1534C16.3205 85.2348 16.331 85.339 16.4686 85.5636C15.2963 85.5414 10.6766 84.0088 9.94673 83.1924Z" fill="#EEF0F0"/>
<path d="M42.1298 13.0076C42.4948 12.8466 42.7739 12.6878 43.172 12.6952C43.287 12.7489 43.4017 12.7799 43.4673 12.8714L43.3442 13.0573C42.8486 13.1355 42.7951 12.932 42.2752 13.0926L42.1298 13.0076Z" fill="#696E75"/>
<path d="M13.6452 14.0865L14.0368 14.2092C13.9334 14.4872 13.856 14.8314 13.6275 14.9783C13.5058 14.7195 13.6001 14.39 13.6452 14.0865Z" fill="#EEF0F0"/>
<path d="M15.423 56.8647C15.8898 56.6549 16.4193 56.6136 16.9292 56.544L16.7409 56.9135C16.794 57.3023 16.9493 58.2531 16.9632 58.6031C18.1239 64.6928 18.9087 71.1347 19.7277 77.2898C20.1106 80.1678 20.9361 84.6406 20.7633 87.3698C19.955 85.1911 19.9223 83.349 19.5232 81.1843L19.3082 81.6012C19.5208 83.2677 19.9705 85.8568 19.7138 87.4334C19.0445 85.2039 18.5283 80.5795 18.177 78.0843C17.3784 72.485 16.6262 66.8791 15.9203 61.2673C15.7487 60.3556 15.7121 58.6189 15.6693 57.6477C15.6385 57.3559 15.5325 57.1341 15.423 56.8647Z" fill="black"/>
<path d="M15.9203 61.2673C15.9606 61.0739 16.0655 60.834 16.1398 60.6451C16.8786 64.7785 17.5313 68.9267 18.0973 73.0873C18.4849 75.8589 18.8424 78.8578 19.3082 81.6012C19.5208 83.2677 19.9705 85.8568 19.7138 87.4334C19.0445 85.2039 18.5283 80.5795 18.177 78.0843C17.3784 72.485 16.6262 66.8791 15.9203 61.2673Z" fill="black"/>
<path d="M15.423 56.8647C15.8898 56.6549 16.4193 56.6136 16.9292 56.544L16.7409 56.9135C16.794 57.3023 16.9493 58.2531 16.9632 58.6031C16.7867 58.9684 16.7978 59.1268 16.7772 59.5301C17.2228 64.6728 17.9661 69.5292 18.6477 74.6355C18.8623 76.2438 19.4512 79.7331 19.5232 81.1843L19.3082 81.6012C18.8424 78.8578 18.4849 75.8589 18.0973 73.0873C17.5313 68.9267 16.8786 64.7785 16.1398 60.6451C16.0655 60.834 15.9606 61.0739 15.9203 61.2673C15.7487 60.3556 15.7121 58.6189 15.6693 57.6477C15.6385 57.3559 15.5325 57.1341 15.423 56.8647Z" fill="#EEF0F0"/>
<path d="M15.6693 57.6477L15.7974 57.5915C15.9681 58.3679 16.0205 59.7709 16.1398 60.6451C16.0655 60.834 15.9606 61.0739 15.9203 61.2673C15.7487 60.3556 15.7121 58.6189 15.6693 57.6477Z" fill="#252427"/>
<path d="M16.7772 59.5301C16.6846 59.1028 16.5288 57.3489 16.6163 56.9625L16.7409 56.9135C16.794 57.3023 16.9493 58.2531 16.9632 58.6031C16.7867 58.9684 16.7978 59.1268 16.7772 59.5301Z" fill="#252427"/>
<path d="M20.2521 59.0876C20.3074 58.8253 20.2923 58.6622 20.2872 58.3979L20.45 58.311C21.7169 67.0143 23.2422 75.9265 24.1817 84.6982C24.2369 85.2133 24.2178 86.2299 24.0408 86.7023L23.9059 86.6994C23.0866 85.3798 20.3476 61.6226 20.2521 59.0876Z" fill="black"/>
<path d="M18.9315 58.7042L19.2587 58.6022C19.6148 61.2356 20.1707 63.8632 20.5049 66.5141C21.3277 73.0415 22.5517 79.601 22.9681 86.1649C22.985 86.4315 22.9776 86.4777 22.7968 86.6441L22.6377 86.5893C21.9225 85.5975 19.1927 61.9482 18.9315 58.7042Z" fill="black"/>
<path d="M17.9823 58.0023C18.5354 61.6212 22.2888 84.2967 21.7054 86.8203L21.5988 86.792C21.0131 85.5876 20.4823 80.5799 20.2649 78.9864C19.2958 72.1703 18.4616 65.3358 17.7627 58.4868L17.9823 58.0023Z" fill="black"/>
<path d="M15.3924 64.0273C15.444 63.6716 15.45 63.6187 15.6284 63.3016C16.3989 67.5391 16.9075 72.4006 17.5923 76.6905C17.8594 78.3641 18.9033 85.5721 18.7503 86.7938L18.6717 86.889C18.2633 85.9432 17.776 82.307 17.6121 81.0888C17.1224 77.3617 16.6529 73.632 16.2038 69.8999C15.9885 68.1879 15.7431 65.6656 15.3924 64.0273Z" fill="black"/>
<path d="M41.0639 83.5697C41.7742 83.1682 42.8881 82.4781 43.626 82.2548C44.5981 83.7676 46.0639 84.9646 46.9733 86.2916C46.4897 86.2502 44.7831 84.3527 44.4351 83.9404C44.0688 83.4977 43.7129 83.0463 43.3676 82.5868C42.4867 83.1305 40.3365 84.1947 40.0597 85.0842C39.9455 85.4516 40.1287 86.006 40.2414 86.3726C41.0301 86.1423 42.1351 85.7856 42.9181 85.6473C43.7334 86.3898 44.5353 87.2632 45.3549 87.9639C44.2604 87.6703 43.4183 86.7732 42.6805 85.9583C42.2235 86.1592 40.6251 86.7292 40.4174 86.9283C40.4226 87.1748 40.4345 87.421 40.4531 87.6668L40.3143 87.6498C40.0641 87.2515 39.6893 85.8361 39.6922 85.404C39.7957 84.1597 40.0351 84.1963 41.0639 83.5697Z" fill="black"/>
<path d="M38.7316 74.9656C39.0788 75.1818 39.093 75.1126 39.2183 75.4274C39.0147 76.9715 38.5853 78.8595 38.2759 80.4071C37.8673 82.452 37.4876 84.7182 36.792 86.6657L36.6686 86.7777C36.412 86.2321 37.3933 82.2526 37.5572 81.4649C38.0276 79.3136 38.4193 77.1456 38.7316 74.9656Z" fill="#0C0F0B"/>
<path d="M15.3924 64.0273C15.2601 62.1055 14.6352 59.4992 14.9115 57.622C15.0893 58.2891 15.0266 59.0953 15.1257 59.7927C15.2929 60.971 15.521 62.1139 15.6284 63.3016C15.45 63.6187 15.444 63.6716 15.3924 64.0273Z" fill="#45484E"/>
<path d="M20.2208 56.7222L20.392 56.7721C20.3882 57.2256 20.4595 57.9967 20.45 58.311L20.2872 58.3979C20.2923 58.6622 20.3074 58.8253 20.2521 59.0876C20.0735 58.7432 20.1574 57.1545 20.2208 56.7222Z" fill="#252427"/>
<path d="M18.9315 58.7042C18.9068 58.1307 18.8458 57.5262 18.9737 56.9713L19.0502 56.9654C19.2222 57.5488 19.2241 57.9995 19.2587 58.6022L18.9315 58.7042Z" fill="#0C0F0B"/>
<path d="M9.89723 83.882L10.1651 83.9789C10.0476 84.8114 10.0182 85.3754 9.62846 86.1346C9.72844 85.385 9.81807 84.634 9.89723 83.882Z" fill="#696E75"/>
<path d="M52.32 86.4399L52.6795 86.5707C52.5559 86.8823 52.4265 87.484 52.2287 87.629C52.1549 87.2396 52.2526 86.8333 52.32 86.4399Z" fill="#0C0F0B"/>
<path d="M17.7627 58.4868C17.7111 58.04 17.6136 57.3339 17.8057 56.923C17.9756 57.1638 17.9628 57.6798 17.9823 58.0023L17.7627 58.4868Z" fill="#252427"/>
<path d="M14.0779 59.647C14.012 59.267 13.9544 58.6886 14.1092 58.3312C14.288 58.5454 14.2709 58.9363 14.2954 59.2407L14.0779 59.647Z" fill="#252427"/>
<path d="M49.8412 86.5267C49.9626 86.6099 50.0768 86.7028 50.2157 86.7448C49.9644 87.0133 49.9023 87.0996 49.5708 87.2678C49.5073 87.0376 49.7024 86.7997 49.8412 86.5267Z" fill="#0C0F0B"/>
</g>
</svg>
