<svg width="64" height="72" viewBox="0 0 64 72" fill="none" xmlns="http://www.w3.org/2000/svg">
<circle cx="32" cy="32" r="32" transform="matrix(-1 0 0 1 64 8)" fill="white"/>
<circle cx="32" cy="32" r="30.5" transform="matrix(-1 0 0 1 64 8)" stroke="black" stroke-opacity="0.05" stroke-width="3"/>
<mask id="mask0_2741_64792" style="mask-type:alpha" maskUnits="userSpaceOnUse" x="0" y="-1" width="66" height="71">
<path d="M7.62939e-06 34.2534C7.62939e-06 53.5313 14.7351 69.159 32.9118 69.159C48.814 69.159 63.5 53 65.8235 34.2534C67.7779 12.0338 53.0155 -3.55548 32.9118 -0.652192C14.7351 -0.652192 7.62939e-06 14.9756 7.62939e-06 34.2534Z" fill="#BDBFBC"/>
</mask>
<g mask="url(#mask0_2741_64792)">
<path d="M18.7221 62.2946L12.4569 71.2691L10 77.9184H42.7183L37.272 66.9042L34.9789 63.0288L35.5112 61.1931L38.0501 51.6067L40.6708 50.8316C46.6657 47.2418 48.847 41.4491 49.1882 39.0015C51.6451 37.0027 52.0546 34.0248 51.6861 31.8627C51.3913 30.1331 50.4713 30.7069 50.0481 31.21L48.8606 32.6786L46.7313 18.6049L45.1342 15.1374L47.3864 14.6887L49.1882 12.9346L47.3864 13.3425C49.7123 10.6338 48.3556 7.29151 47.3864 5.95893L45.617 10.4137C45.951 8.85548 45.8916 6.46644 45.7894 5.18385C45.4618 6.75032 44.7794 7.46828 44.4791 7.63145V1.1861C41.498 3.96005 38.0774 5.5238 36.7397 5.95893C35.4621 2.56492 32.6857 0.927747 31.4573 0.533411V4.65354L29.0413 6.81559V1.29585C29.0443 1.25677 29.0444 1.22015 29.0413 1.1861V1.29585C28.9476 2.493 26.0306 5.98546 24.5369 7.63145C22.5986 8.27055 18.5502 9.61401 17.8622 9.87509C17.1743 10.1362 16.3198 11.6428 15.9786 12.3635L16.8385 15.1374L15.2415 13.3425L15.9786 15.5454L16.388 16.1981L15.2415 21.1341L16.8385 29.9454L18.1898 33.6168L17.248 33.2089L15.9786 32.801L15.2415 33.2089L14.6682 35.2486L15.2415 37.2066L16.388 39.3687L18.1898 40.5925L19.7868 41.0004L21.3838 40.5925L23.0627 44.4271L25.3968 47.5681L27.5262 48.6696L26.6662 51.6067L25.3968 54.6662L24.5369 55.8492L18.7221 62.2946Z" fill="white"/>
<path d="M31.8233 0.384763L31.3041 0C31.3881 0.136902 31.5318 0.383784 31.6067 0.514445C31.7107 0.696751 31.6227 1.37041 31.5596 1.56324L31.4315 1.60701C31.3905 2.47979 30.7067 3.88948 30.2513 4.64559C29.9794 5.0968 29.6625 5.51857 29.4172 5.97725C29.825 4.39585 29.97 2.89323 29.3382 1.36433C29.2612 1.17901 29.271 0.939104 29.1981 0.80575C29.0851 0.846095 29.0384 0.986139 28.9688 1.11211C28.9721 1.33635 29.0073 1.29996 28.9008 1.44506C28.7649 1.91631 28.2231 3.29916 27.8918 3.60793L27.9074 3.64248C27.9045 3.82923 27.7497 4.02634 27.6429 4.20628C26.9762 5.30701 26.1757 6.32134 25.2592 7.22609C25.6417 6.62476 26.0983 6.05455 26.4529 5.42984C26.568 5.22698 26.5974 4.8549 26.785 4.64094C26.8055 4.61756 26.8374 4.55176 26.8546 4.51876C26.4603 4.99282 25.9693 5.89595 25.5254 6.2761C25.111 6.63088 24.0783 7.47677 23.6188 7.73283C22.636 8.28056 20.9133 8.93452 19.7999 9.14979C19.5517 12.2608 20.5751 14.5741 22.7896 16.7209C23.335 16.5065 24.0942 16.2839 24.6696 16.1449C22.9677 14.5087 22.245 13.0916 21.9284 10.703C22.0902 11.0033 22.1889 11.5596 22.3109 11.9088C22.8563 13.47 23.5598 15.0963 24.9869 16.0536C26.6032 15.5568 28.504 15.3802 30.153 14.9332C30.5146 14.9873 30.8 15.016 31.1317 14.9509C31.3889 14.9005 32.612 14.5825 32.7377 14.6309C33.3147 14.8537 34.3587 15.1425 34.9398 15.3076C37.1044 15.9229 40.0654 16.6204 42.2942 16.2582C42.4772 17.5247 42.7261 18.6369 43.5623 19.6595C44.3086 20.5723 45.1703 21.2693 46.1798 21.8691C46.4201 22.0118 47.0272 22.3403 47.2062 22.5221C47.558 24.9541 47.8283 27.6543 48.2701 30.0347C47.6984 29.9944 46.9225 29.8304 46.3388 29.7282C46.0113 29.2499 45.8051 28.8949 45.3383 28.5355C42.3003 26.1962 38.4449 28.7746 38.572 32.3745C38.6668 32.0338 38.8238 31.1669 39.0017 30.9368L39.0658 30.9412C39.3066 31.2752 39.2543 31.2865 39.634 31.448C41.0199 31.3807 41.3156 29.8217 40.7318 28.7837C41.3937 28.4288 41.9285 28.2179 42.6894 28.2609C43.8135 28.3243 44.732 28.7293 45.4744 29.5775C45.6424 29.7696 45.8106 30.107 46.0561 30.2259C46.567 30.3926 47.788 30.2769 48.2713 30.1651C49.0231 35.4684 50.1263 40.6378 46.4544 45.2278C44.8562 47.2455 42.8428 49.04 40.7522 50.5444C39.9962 51.0886 38.2538 51.0413 37.2486 51.0262C33.4208 50.9683 28.6731 49.3206 25.5324 47.1986C23.9992 46.1624 22.6098 43.0254 21.8428 41.4092C21.6086 40.8931 21.4899 40.2882 21.245 39.8035C21.1221 39.5608 20.8568 39.2186 20.6885 38.9261C20.8494 39.4466 21.0067 39.9761 21.1877 40.4897C20.2913 40.637 19.4518 40.7585 18.5673 40.4579C16.2156 39.6575 14.8963 36.7881 14.9032 34.4577C16.1714 34.5567 16.9969 35.1664 17.8921 36.0326C17.3864 37.1079 17.4457 38.2436 18.4404 39.035C17.8532 38.0449 17.6816 37.338 18.0375 36.2137C18.4789 36.6669 18.9306 37.1797 19.4932 37.4747C18.9125 36.8738 18.3413 36.2566 17.7598 35.6577C16.8852 34.7569 16.3016 33.9193 14.9114 34.2604C15.0261 33.5665 15.4683 32.7377 16.2988 32.9471C17.4142 33.2284 18.302 34.3036 19.0018 35.1533C19.1513 35.3346 19.3638 35.7781 19.5571 35.8915C19.951 36.0032 19.9555 36.1746 20.1082 36.5654L20.1332 36.569C20.0169 35.9837 19.7991 35.3909 19.6844 34.7827C19.3228 32.8692 18.9379 30.7604 18.9396 28.809C18.9396 28.5808 19.4797 27.5253 19.6279 27.1658C20.0268 26.1992 20.7683 24.7131 20.8314 23.6741C20.858 23.2392 20.901 22.7208 20.91 22.3632C21.0374 22.5368 20.8724 23.2941 20.9272 23.4568C21.168 22.4966 20.9031 19.4676 20.9203 18.3321C20.9383 18.3197 20.9563 18.3073 20.9743 18.2949C21.1959 18.523 21.2544 21.6895 21.2532 22.2468C21.2524 22.9383 21.1287 23.6742 20.9575 24.347C21.1774 23.9797 21.333 23.5778 21.4178 23.1585C21.523 22.6318 21.5099 21.8516 21.521 21.3037C21.5378 20.4901 21.5517 19.6707 21.496 18.8586C21.4788 18.61 21.3609 17.6499 21.4137 17.4907C21.4976 17.4904 21.4616 17.4764 21.5222 17.5301L21.5542 17.4917L21.5988 17.3486C20.4334 16.9244 17.8954 14.5142 17.7467 13.2617L17.7758 13.2464C18.0313 13.6667 18.1984 14.042 18.5055 14.4675C18.9645 15.1041 21.2659 17.3984 22.0656 17.2768L22.0935 17.2174C22.0427 17.128 22.0087 17.0724 21.9702 16.9769C22.1164 16.9528 22.2781 16.938 22.4059 16.87L22.4894 16.9737L22.5513 16.9287L22.5484 16.8647C20.3539 14.9177 19.3196 12.0468 19.7 9.15436C19.0366 9.33984 18.4936 9.53916 17.8978 9.897C17.7922 9.96043 17.8577 9.76059 17.7058 9.9371L17.7324 10.0506L17.6763 10.0983C17.2254 10.4852 16.7959 10.9954 16.7865 11.6266C16.768 12.8699 17.4335 14.1975 18.2152 15.1274C18.8847 15.9234 19.6918 16.2802 20.2847 16.9003C19.0182 16.3692 17.0563 14.4702 16.558 13.1539C16.1927 12.1895 16.4986 11.2644 16.8434 10.3432C17.042 9.81305 17.4003 9.5062 17.5321 9.17928L17.5068 9.14681C16.5252 10.2698 16.517 10.6197 16.1808 12.0577L16.1456 12.0544C15.845 10.8404 16.4097 9.36595 17.6382 8.90258L17.6341 8.86468C16.0531 9.38986 15.5093 11.097 16.0351 12.5722C16.3246 13.3843 16.9429 14.42 17.614 14.9728L17.7025 15.0472L17.6792 15.1033C17.4412 15.1616 16.8454 15.0111 16.5223 14.9831C16.0093 14.2677 15.6022 13.6153 15.1632 12.8493C14.9061 12.4004 14.6592 11.9016 14.3545 11.4916C14.6514 12.5276 15.5817 14.0901 16.2865 14.948L16.2951 15.0093C16.1952 15.0559 16.1186 15.0877 16.0174 15.1275L16.0146 15.1805C16.2943 15.4072 16.9933 15.2816 17.1677 15.4842C17.1313 15.5833 17.0842 15.6151 17.008 15.691C17.1513 16.005 18.7299 16.6859 19.098 16.8431C19.3167 16.9368 20.3335 17.1973 20.2037 17.5013C19.7979 17.5028 18.5501 16.9566 18.1308 16.7629C17.68 16.5548 17.1591 16.1977 16.698 15.9743C16.4994 16.1585 15.9495 16.662 15.8324 16.8707C15.1985 17.9985 14.9302 19.578 14.8922 20.8603C14.8701 21.6002 15.0257 22.6415 15.1358 23.3556C15.6067 26.4086 16.3291 30.3922 17.639 33.1768C14.6686 31.3078 14.2108 34.4119 14.9024 36.5719C15.4073 38.1502 16.1116 39.7003 17.6218 40.5672C18.6935 41.1824 20.1115 41.1852 21.2528 40.752C21.9362 42.653 23.6417 46.4263 25.258 47.5914C25.5766 47.8211 25.9128 48.0422 26.2592 48.2278C26.4463 48.3281 27.1613 48.6055 27.2604 48.7479C27.4942 49.0832 25.8886 53.5199 25.6122 54.102C25.4959 54.3472 25.3817 54.6087 25.2314 54.8347C24.8899 55.3487 24.4427 55.8023 24.0357 56.2649L21.4907 59.1053C20.9211 59.7482 20.4322 60.3561 19.9162 61.0357C19.6627 61.3698 19.1304 61.7434 18.82 62.1004C17.1902 64.005 15.6899 66.0157 14.3291 68.1194C13.5982 69.2347 12.8939 70.3186 12.3181 71.5236C12.9364 70.9007 13.5544 69.8319 14.0724 69.0883C15.1035 67.6075 16.1288 65.9802 17.2783 64.5884L17.3581 64.5786C17.483 64.4207 17.6902 64.1258 17.8483 64.0372L17.9461 64.0507L17.956 64.1107C17.8311 64.222 17.5023 64.4672 17.526 64.623C17.3475 64.8021 17.0821 65.5568 16.9449 65.8517L16.9634 65.8958L17.0338 65.915C16.9625 66.0994 16.6169 66.6554 16.635 66.7447L16.7033 66.7782C16.6915 66.9462 16.5772 67.0719 16.5113 67.2163C16.4793 67.2856 16.6329 67.6095 16.6083 67.6915C16.5322 67.944 16.3807 68.1672 16.3725 68.4348C16.3213 70.1428 17.1562 71.7819 17.5796 73.4067C17.6427 73.6502 18.1378 74.533 18.0874 74.8014C17.9793 74.8858 17.897 74.9136 17.881 75.0139C17.9482 74.9735 18.0153 74.9327 18.0817 74.8911C18.1607 74.9148 18.1906 74.9099 18.218 75.0082C18.4674 75.913 19.1419 77.1189 19.3425 78H32.8901H34.1879H42.8152C42.5085 77.0564 41.7903 75.7866 41.3575 74.8846C39.8921 71.8402 38.3549 68.8301 36.7473 65.8579C36.8851 66.4677 36.921 67.078 37.0229 67.6891C37.2786 69.2229 37.205 70.8016 37.3739 72.3326L37.234 72.4337C37.1429 72.7128 37.0725 73.693 36.8316 73.786C36.7419 73.5841 36.8796 72.94 36.895 72.6291C37.0107 70.2905 36.8042 67.6801 36.396 65.3859C36.3553 65.1566 35.2408 63.1059 35.1443 62.9921C35.404 62.0531 35.7263 61.1964 36.0315 60.2724C36.4263 59.0988 36.779 57.9109 37.0888 56.712C37.3956 55.5318 37.6701 54.3435 37.9121 53.1487C37.9966 52.7301 38.1321 51.8021 38.2276 51.4623C38.4978 51.357 40.0454 51.2506 40.433 51.0703C40.7241 50.9348 41.1387 50.6774 41.3976 50.4841C42.5458 49.6266 43.5305 48.7255 44.5488 47.7313C46.4895 45.8357 48.136 43.6989 48.8604 41.0437C49.0264 40.435 49.1061 39.8582 49.1961 39.2353C51.243 38.3517 52.1695 34.8753 51.9746 32.8515C51.6442 29.4203 50.3135 30.4081 48.831 32.4638C48.7827 31.8559 48.2009 28.4001 48.3346 28.1827L48.3871 28.2149C48.3935 28.3276 48.4007 28.3983 48.4169 28.51L48.459 28.4985C48.7617 27.748 47.8453 23.2252 47.6472 22.3286C47.9853 22.5145 48.2163 22.6686 48.5811 22.8431C47.9535 22.2861 47.731 22.3789 47.439 21.5615C47.93 22.0357 48.4866 22.4169 49.0059 22.8536C49.055 22.8949 49.1465 23.147 49.1755 23.2257C49.5736 20.831 48.4706 18.5659 46.5529 17.1348C46.1937 16.8667 45.71 16.6666 45.3198 16.4277C46.3635 16.6749 48.1653 17.6644 49.0939 18.2863C49.3435 18.4534 50.1128 19.1271 50.3488 19.1142C50.4182 18.8561 49.909 18.2412 49.7608 18.0007C48.9194 16.6367 47.5336 15.9474 46.0753 15.4126C45.9771 15.3766 45.8562 15.3199 45.8206 15.2227C45.9286 15.1617 46.0308 15.2682 46.073 15.2535C46.4266 15.1302 46.8144 14.9934 47.1699 14.8993L47.2647 14.8221C47.3078 14.77 47.2841 14.7912 47.3312 14.7579C48.2262 14.1269 49.1702 13.4634 49.5255 12.3831C48.8264 13.4864 48.0129 14.0873 46.8986 14.729C46.743 14.6047 46.7084 14.5905 46.5256 14.5023C46.9817 14.2846 47.613 13.93 48.0115 13.6319C47.958 13.5446 47.9589 13.5499 47.9379 13.4503C48.9832 12.2722 49.5926 10.9918 49.3785 9.36624C49.3451 9.11242 49.1667 8.43933 48.9676 8.29207C48.9413 8.43407 49.1069 8.78367 49.1425 8.95418C49.5713 11.0085 48.3009 13.5196 46.3893 14.3359C46.8228 13.9015 47.4395 13.4944 47.7828 13.0298C49.3122 10.9598 48.827 8.18184 47.7032 6.05626C47.5438 5.7548 47.4645 4.92682 47.4148 4.53463L47.3138 4.69067C47.2022 5.46647 46.5562 7.82461 46.1437 8.50435C46.025 8.53487 46.0849 8.5292 45.9611 8.49775L45.9471 8.56501L46.0246 8.66569C45.9565 9.05902 45.6574 9.29611 45.3971 9.55858C45.4115 9.60145 45.4259 9.64428 45.4403 9.68712C45.1877 10.1172 44.2904 11.0595 43.9884 11.3322C43.749 11.5459 43.4971 11.7452 43.2341 11.9292C41.5949 13.0843 39.2836 14.1301 37.2432 14.0323L37.1893 13.9101C37.313 13.9147 37.4368 13.9122 37.5601 13.9026C39.194 13.7815 42.2815 12.618 43.3797 11.3261C44.8414 9.60671 45.9771 6.98647 45.811 4.71347C45.5767 7.06284 44.7321 9.71767 43.0675 11.4828C42.953 11.6043 42.7284 11.8775 42.5918 11.9438C42.6292 11.7887 43.4028 10.8323 43.5422 10.5975C44.0051 9.81802 44.3031 9.08011 44.4684 8.18543C44.5164 7.92619 44.4518 7.57851 44.6081 7.40795C44.574 7.3743 44.5399 7.34064 44.5059 7.30699C44.7661 7.09339 44.5073 7.00287 44.5544 6.75318C44.6947 6.01 44.7883 5.44151 44.5959 4.70604C44.5772 4.7468 44.7038 4.4858 44.6675 4.58419C44.7228 4.43412 44.6471 3.84131 44.6446 3.67507C44.6374 3.19131 44.4993 2.35398 44.5634 1.913C44.6528 1.2969 44.7883 0.950403 44.8242 0.292039C44.7272 0.419478 44.5966 0.639559 44.4916 0.765977C44.3926 0.885257 44.467 0.648003 44.3112 0.829452C44.3931 0.84687 44.3529 0.831981 44.4306 0.876772C44.4256 1.00368 44.3166 1.11668 44.1989 1.15498C44.1973 1.07727 44.1931 1.0375 44.1828 0.960276L44.0962 0.934699C43.8961 1.0047 43.3714 1.73441 43.1971 1.92451C42.5562 2.62334 41.7457 3.23781 40.9709 3.78285C40.1741 4.34327 39.2608 4.8137 38.3576 5.18067C37.8867 5.372 37.2796 5.5317 36.854 5.79661C36.8312 5.81077 36.8089 5.82558 36.7863 5.84006L36.7303 5.87971C36.4208 4.8115 35.372 3.10413 34.5092 2.36226L34.4631 2.35635C34.6858 2.72667 34.9923 3.06693 35.2184 3.40873C35.6481 4.05865 36.3463 5.21111 36.5895 5.93241C36.4365 5.96346 36.2868 6.01253 36.1424 5.96656L36.099 5.92993C36.07 6.09237 36.0506 6.02681 36.1211 6.14177C36.3913 6.19553 36.5703 6.01572 36.7469 6.17595C36.7767 6.30894 36.7781 6.29935 36.7432 6.43058C36.5462 6.59535 36.4025 6.58911 36.1967 6.47444C36.2102 6.98129 36.38 7.57655 36.371 8.06884C36.3371 9.93359 35.5153 12.6418 33.7942 13.673L33.7276 13.6178C34.0534 13.398 34.5718 12.8328 34.8029 12.502C35.8584 10.991 36.3823 8.73406 36.0791 6.91321C35.7865 5.15595 34.8476 3.65039 33.7712 2.2606C33.6772 2.13916 33.3635 1.72226 33.2648 1.65262L33.2164 1.73192C32.8901 1.26839 33.069 1.40015 32.5703 1.10672C32.6808 1.89922 33.0072 2.7644 33.1083 3.63697C33.3919 6.08506 32.9531 8.44133 31.7734 10.6105C31.3917 11.3124 30.9565 11.8907 30.4831 12.5115C33.9279 10.1467 35.1152 6.60779 33.6969 2.66789L33.7552 2.60168C34.558 4.20506 34.6183 6.78822 34.0694 8.44924C33.3521 10.6203 31.6714 12.0458 29.7779 13.1829C29.1842 13.5396 28.6895 14.0946 28.018 14.3908L27.8509 14.4657C28.4504 13.8733 29.4569 13.3881 30.0589 12.741C31.8479 10.8166 32.8688 8.04506 32.9806 5.43996C33.0043 4.88794 32.8622 4.32879 32.8503 3.82034L32.9232 3.81569L32.9601 3.76918C32.9421 3.6302 32.9306 3.49685 32.8946 3.36174C32.7644 3.16711 32.4187 1.8091 32.3807 1.53705L32.291 1.61395C32.2267 1.36699 31.9315 0.694303 31.8233 0.384763Z" fill="#010101"/>
<path d="M18.8135 63.5522C18.6366 63.6848 17.562 64.6047 17.526 64.623C17.3475 64.8021 17.0821 65.5568 16.9449 65.8517L16.9634 65.8958L17.0338 65.915C16.9625 66.0994 16.6169 66.6554 16.635 66.7447L16.7033 66.7782C16.6915 66.9462 16.5772 67.0719 16.5113 67.2163C16.4793 67.2856 16.6329 67.6095 16.6083 67.6915C16.5322 67.944 16.3807 68.1672 16.3725 68.4348C16.3213 70.1428 17.1562 71.7819 17.5796 73.4067C17.6427 73.6502 18.1378 74.533 18.0874 74.8014C17.9793 74.8858 17.897 74.9136 17.881 75.0139C17.9482 74.9735 18.0153 74.9327 18.0817 74.8911C18.1607 74.9148 18.1906 74.9099 18.218 75.0082C18.4674 75.913 19.1419 77.1189 19.3425 78H32.8901C31.5748 76.2373 30.1621 74.5501 28.9131 72.7377C28.5634 72.2298 28.1408 71.6954 27.7625 71.2063C26.5586 69.6325 25.2179 68.168 23.756 66.8287C22.7364 65.9097 21.8605 65.1807 20.6402 64.5149C19.9781 64.1535 19.6738 63.83 18.8966 63.5812L18.8135 63.5522Z" fill="#010101"/>
<path d="M17.9183 73.5046L17.8765 73.5486C18.0158 73.8766 18.1951 74.4469 18.3282 74.8059C18.7041 75.8196 19.0894 76.8313 19.5063 77.8278C19.5571 77.949 19.5239 77.9098 19.6439 77.9563C19.7565 77.9445 19.7156 77.9694 19.7889 77.909C19.4215 77.271 19.1947 76.303 18.8433 75.6197C18.6132 75.1714 18.2475 73.7869 17.9183 73.5046Z" fill="#E9E9EB"/>
<path d="M17.3827 72.0344C17.3676 72.1751 17.5969 72.7405 17.6779 72.8731L17.7402 72.7972C17.7697 72.5471 17.5264 72.2428 17.3827 72.0344Z" fill="#E9E9EB"/>
<path d="M16.8893 70.4124L16.8643 70.443C16.9228 70.669 17.0117 70.8607 17.1018 71.0757C17.1304 71.0435 17.1419 71.0064 17.1612 70.964C17.1395 70.7131 17.0461 70.6127 16.8893 70.4124Z" fill="#E9E9EB"/>
<path d="M17.1468 71.174C17.0866 71.3992 17.2586 71.666 17.3712 71.8565C17.4142 71.6334 17.2599 71.4225 17.1468 71.174Z" fill="#B9BABB"/>
<path d="M16.5449 68.4001C16.5002 68.549 16.4753 68.9084 16.5678 69.0308L16.6047 69.0002C16.603 68.8044 16.6231 68.5698 16.5449 68.4001Z" fill="#909192"/>
<path d="M27.1118 68.0073C27.1454 68.281 27.1507 68.5037 27.2637 68.7554L27.2956 68.722C27.3001 68.4429 27.2358 67.7201 27.1576 67.4602C27.1396 67.3982 27.1204 67.3362 27.1003 67.2746C27.1105 67.4182 27.1388 67.5989 27.0938 67.7303L27.0381 67.7193C26.8804 67.5581 26.8337 67.3631 26.7137 67.1722C25.2859 64.8984 21.7745 64.0874 19.3695 63.4608C19.207 63.6163 19.2 63.582 18.9764 63.5465L18.8966 63.5812C19.6738 63.83 19.9781 64.1535 20.6402 64.5149C21.8605 65.1807 22.7364 65.9097 23.756 66.8287C25.2179 68.168 26.5586 69.6325 27.7625 71.2063C28.1408 71.6954 28.5634 72.2298 28.9131 72.7377C30.1621 74.5501 31.5748 76.2373 32.8901 78H34.1879C33.8136 77.4101 32.6059 75.986 32.119 75.3696C30.9213 73.8228 29.6871 72.3044 28.4168 70.8163C28.0651 70.4116 27.7526 69.9625 27.3583 69.6068C27.3702 69.4265 27.4087 69.1331 27.337 68.9826L27.2944 68.9887C27.2895 69.136 27.3063 69.26 27.2223 69.3567C27.0565 69.3269 26.692 68.93 26.5532 68.7856C25.1057 67.2832 23.5328 65.9476 21.8478 64.7169C21.5783 64.5198 21.2905 64.3456 21.0403 64.1205C22.9747 64.6414 25.0328 65.3267 26.3804 66.8907C26.6822 67.2412 26.8006 67.6528 27.1118 68.0073Z" fill="white"/>
<path d="M21.6643 59.8151C21.5239 59.8702 21.4149 59.891 21.3371 60.0134C21.4092 60.2141 21.8531 60.2655 22.0828 60.3536C23.0349 60.7187 23.9742 61.2539 24.7977 61.8466C26.0283 62.7425 27.1822 63.7386 28.2469 64.8254C28.6809 65.2757 29.0282 65.7542 29.4438 66.2209C29.8148 66.6325 30.1981 67.0274 30.5535 67.4537C32.35 69.608 34.0909 71.8198 36.0992 73.7869C36.3448 74.0275 36.6279 74.2703 36.9143 74.4453C37.0188 74.5089 37.2242 74.4489 37.3884 74.5342C37.5459 74.7822 37.373 75.2766 37.4147 75.6483L37.4717 75.6511C37.6567 74.9911 37.4562 73.0501 37.3739 72.3326L37.234 72.4337C37.3232 72.6907 37.5057 74.3204 37.3356 74.4514C36.5293 74.3992 34.3815 71.6835 33.8063 71.0284C30.5429 67.3121 27.6425 62.8579 23.1405 60.5009C22.6557 60.2471 22.1475 60.0721 21.6643 59.8151Z" fill="white"/>
<path d="M43.1186 2.46212C42.6687 2.90971 42.1521 3.32878 41.6735 3.74887C41.5444 3.86219 41.3903 3.86533 41.2651 3.97596C41.088 4.13237 40.9287 4.42253 40.7468 4.5578L40.7039 4.54144C40.716 4.26192 40.9098 4.34412 40.852 4.22803C39.7981 4.80974 38.1051 5.67338 36.9458 5.96721C36.8589 5.90765 36.8611 5.91308 36.7863 5.84006L36.7303 5.87971C37.7827 9.46259 37.9339 11.7253 34.331 13.6992C35.4939 13.424 36.4919 12.5751 37.0772 11.555C38.0209 9.9103 37.4576 8.01601 36.999 6.35646L37.0281 6.32346L37.1262 6.37955C37.2623 6.33574 37.3981 6.29099 37.5336 6.24526C39.4328 5.60313 40.9899 4.95509 42.4204 3.48636C42.6266 3.27464 43.0465 2.81935 43.1694 2.57047L43.1186 2.46212Z" fill="white"/>
<path d="M18.8135 63.5522C18.5334 63.5999 18.3176 63.6415 18.042 63.7101C17.8106 63.9585 17.4089 64.3069 17.2783 64.5884L17.3581 64.5786C17.483 64.4207 17.6902 64.1258 17.8483 64.0372L17.9461 64.0507L17.956 64.1107C17.8311 64.222 17.5023 64.4672 17.526 64.623C17.562 64.6047 18.6366 63.6848 18.8135 63.5522Z" fill="#E9E9EB"/>
<path d="M19.3695 63.4608C19.1816 63.3739 18.9576 63.2393 18.7705 63.2887C18.6722 63.3148 18.5837 63.3005 18.4883 63.2764C18.6402 63.1133 18.6898 63.2055 18.7803 63.0272L18.6787 62.8873C18.5354 62.9501 18.3188 63.1875 18.2459 63.327L18.2762 63.409C18.526 63.5016 18.6857 63.449 18.8135 63.5522L18.8966 63.5812L18.9764 63.5465C19.2 63.582 19.207 63.6163 19.3695 63.4608Z" fill="#E9E9EB"/>
<path d="M43.1694 2.57047C43.3883 2.33893 43.7487 2.00287 43.9303 1.78703L43.9015 1.66563C44.0144 1.52849 43.922 1.69602 44.1039 1.59008C44.0078 1.46517 44.0102 1.52045 44.0234 1.41292C44.1287 1.37494 44.148 1.37959 44.2253 1.30298L44.1785 1.2196C44.1317 1.22686 44.0755 1.23559 44.0097 1.24579C43.7037 1.62916 43.4988 2.05186 43.1708 2.40619L43.1186 2.46212L43.1694 2.57047Z" fill="#E9E9EB"/>
<path d="M32.3807 1.53705L32.291 1.61395C32.4855 2.41064 32.7021 2.98783 32.8503 3.82034L32.9232 3.81569L32.9601 3.76918C32.9421 3.6302 32.9306 3.49685 32.8946 3.36174C32.7644 3.16711 32.4187 1.8091 32.3807 1.53705Z" fill="#B9BABB"/>
<path d="M46.5256 14.5023C46.3277 14.6064 45.8741 14.8198 45.771 15.0039L45.8112 15.0378L45.8613 15.027C46.0529 14.9663 46.5685 14.8478 46.6768 14.7624L46.7037 14.6952C46.635 14.6039 46.6095 14.5817 46.5256 14.5023Z" fill="white"/>
<path d="M37.1893 13.9101C36.8872 13.9113 36.4769 13.9287 36.2306 13.7476L36.1409 13.7872L36.1198 13.8444C36.2985 13.9472 37.0084 14.0285 37.2432 14.0323L37.1893 13.9101Z" fill="#E9E9EB"/>
<path d="M33.7276 13.6178C33.3817 13.8416 33.3196 13.8451 32.9183 13.9533L32.9257 14.0093C33.1644 14.0994 33.5897 13.809 33.7942 13.673L33.7276 13.6178Z" fill="#909192"/>
<path d="M33.7552 2.60168C33.6394 2.29067 33.5241 2.20451 33.3601 1.93471C33.4655 2.23454 33.5465 2.38482 33.6969 2.66789L33.7552 2.60168Z" fill="#E9E9EB"/>
<path d="M27.5331 48.96C27.5032 49.0049 27.0901 50.7655 27.0565 50.9736C26.9242 51.7899 25.3575 55.775 24.7814 55.9765C24.7547 55.8761 24.8403 55.7117 24.8837 55.593C24.5737 55.9487 24.2625 56.3979 23.9648 56.7756C23.4087 57.476 22.842 58.1679 22.265 58.8508C22.7196 59.1041 23.195 59.4435 23.6372 59.7311C24.1667 60.0754 24.7707 60.3936 25.283 60.7477C26.1388 61.322 26.882 62.0355 27.6769 62.6756C30.1797 64.6903 32.3811 67.0037 34.6243 69.3004C35.0084 69.6843 35.4255 70.1489 35.7845 70.5589C35.6852 69.9902 35.52 69.4293 35.3859 68.8676C35.1734 67.9779 34.9758 67.0829 34.7564 66.1948C34.648 65.7563 34.4296 65.2586 34.3812 64.8148C34.2996 64.0674 36.0185 59.007 36.3252 57.9431C36.6793 56.7144 36.9741 55.4592 37.2741 54.2167C36.9975 54.1355 36.7011 54.0653 36.4209 53.9943C35.0988 53.6594 34.0155 52.9847 32.8684 52.2708L30.3242 50.6876C30.0683 50.5289 28.5319 49.5976 28.3976 49.4646L28.5986 49.4732L28.5859 49.4255C28.4381 49.3239 28.3767 49.2741 28.2133 49.2064L28.1113 49.2815L28.0364 49.2692L28.0479 49.1836C28.0212 49.1542 27.6335 49.0147 27.5331 48.96Z" fill="white"/>
<path d="M51.6733 32.4932C51.1267 32.9134 50.561 34.0356 50.1206 34.5883C49.8326 34.9496 49.6131 35.1298 49.2405 35.4011C49.32 36.4242 49.28 37.7757 49.2622 38.8037C51.1466 37.5273 51.8444 34.6339 51.6733 32.4932Z" fill="white"/>
<path d="M50.1054 37.0504C50.2298 36.9129 50.3208 36.7999 50.4138 36.6388C50.6751 36.186 50.9349 34.9151 50.3357 34.6284L50.2711 34.6566C50.2419 34.8993 50.3358 35.1595 50.3573 35.3979C50.3903 35.765 50.1867 36.279 50.0661 36.631C50.1776 36.6151 50.1801 36.5707 50.279 36.463L50.35 36.527C50.2657 36.7004 50.1842 36.8746 50.1054 37.0504Z" fill="#010101"/>
<path d="M50.35 36.527C50.5281 36.2019 50.5373 35.856 50.5155 35.5007C50.4591 35.9082 50.4078 36.0791 50.279 36.463L50.35 36.527Z" fill="#E9E9EB"/>
<path d="M51.401 32.2317C51.4534 32.2058 51.5601 32.1766 51.5601 32.1217C51.5606 31.7144 51.3487 30.9157 50.8789 30.8337C50.1451 30.9645 49.4118 32.3137 48.9792 32.835C49.0395 33.6001 49.1639 34.3644 49.1886 35.1249C49.406 34.8991 49.5183 34.7846 49.6959 34.5297L49.786 34.6237L49.7916 34.6386C49.883 34.6054 50.0265 34.3976 50.1028 34.3049C50.3521 34.0143 50.6516 33.5401 50.9053 33.2217C51.1105 32.9641 51.4972 32.5453 51.6596 32.2986L51.6038 32.2473L51.4464 32.2595L51.401 32.2317Z" fill="white"/>
<path d="M50.1028 34.3049C50.3521 34.0143 50.6516 33.5401 50.9053 33.2217C51.1105 32.9641 51.4972 32.5453 51.6596 32.2986L51.6038 32.2473L51.4464 32.2595C50.7978 32.8462 50.4431 33.5535 49.9958 34.2934L50.1028 34.3049Z" fill="white"/>
<path d="M51.401 32.2317C50.8807 32.544 49.9701 33.9916 49.6959 34.5297L49.786 34.6237L49.7916 34.6386C49.883 34.6054 50.0265 34.3976 50.1028 34.3049L49.9958 34.2934C50.4431 33.5535 50.7978 32.8462 51.4464 32.2595L51.401 32.2317Z" fill="#010101"/>
<path d="M49.9958 34.2934C49.919 34.4027 49.8384 34.5025 49.786 34.6237L49.7916 34.6386C49.883 34.6054 50.0265 34.3976 50.1028 34.3049L49.9958 34.2934Z" fill="#B9BABB"/>
<path d="M21.1197 60.5727L21.0407 60.5992L21.0276 60.673C21.229 60.939 21.8343 61.1262 22.1344 61.318C25.7441 63.6293 28.7276 67.3668 31.2001 70.8085C32.008 71.9544 32.8287 73.0913 33.6615 74.2193C34.1146 74.8434 34.5936 75.5467 35.0766 76.1402L35.128 76.1639L35.1689 76.128C35.0723 75.7959 34.6456 75.2701 34.4359 74.9662C34.1124 74.4958 33.794 74.0218 33.4809 73.5445C30.8222 69.5419 25.6016 62.3219 21.1197 60.5727Z" fill="white"/>
<path d="M44.319 2.77867L44.2246 2.53375C44.3206 5.25683 43.3289 8.04085 41.4603 10.0438C40.6727 10.8718 39.7544 11.5659 38.7419 12.0986C38.4675 12.2437 37.9253 12.4334 37.7478 12.5723L37.7585 12.6225C38.2421 12.7045 39.7933 11.778 40.2115 11.4839C42.5734 9.82271 43.6981 7.50936 44.2077 4.73582C44.3248 4.09842 44.311 3.421 44.319 2.77867Z" fill="white"/>
<path d="M42.5997 16.1238L42.487 16.1743C42.355 16.3854 42.5231 16.9599 42.5781 17.2291C43.0912 19.7401 45.056 20.889 47.0409 22.1806C47.0934 22.1955 47.0635 22.1936 47.1304 22.1736C47.019 21.9375 46.4034 21.5838 46.1497 21.3803C44.9075 20.3843 43.7594 19.1519 43.0903 17.6958C42.8843 17.2475 42.7235 16.6006 42.5997 16.1238Z" fill="white"/>
<path d="M31.8438 0.848334C31.841 0.864529 32.1067 2.48133 32.1243 2.67061C32.2103 3.64643 32.1964 4.62845 32.0817 5.60137C31.7108 8.79549 29.9921 11.7331 27.5385 13.7742C27.2289 14.0315 26.9189 14.2824 26.6036 14.5317L26.6347 14.5673C27.1826 14.1754 27.71 13.7554 28.2141 13.309C30.4798 11.2955 32.0744 8.24335 32.3074 5.19303C32.3647 4.44105 32.3021 1.35756 31.8438 0.848334Z" fill="white"/>
<path d="M32.0433 13.238C34.3353 11.3261 35.0536 8.04159 34.7064 5.19825C34.6858 5.02945 34.5608 4.67683 34.5079 4.48649C34.4652 4.57783 34.557 5.06608 34.5709 5.20817C34.61 5.60403 34.6232 6.00201 34.6104 6.39958C34.5279 8.96825 33.934 11.3405 32.0052 13.1553L32.0433 13.238Z" fill="white"/>
<path d="M45.0297 19.8758C45.359 20.063 45.7158 20.5206 46.0187 20.7541C46.3356 20.9985 46.6567 21.248 46.9736 21.491L47.0182 21.4475C46.9986 21.1152 46.3504 20.7119 46.1005 20.4771C45.2139 19.644 44.2801 18.7903 43.6663 17.7297C43.5793 17.5792 43.4417 17.3101 43.3033 17.2176L43.2695 17.2725C43.306 17.7659 43.8307 18.7658 44.1845 19.1007L44.2758 19.0569C44.5349 19.2943 44.8338 19.5841 45.0297 19.8758Z" fill="white"/>
<path d="M47.9 11.8282C48.2724 11.3957 48.652 8.75205 48.1695 8.4361L48.0673 8.43419C48.0516 8.45613 48.0147 11.3204 47.6865 11.7567C47.6993 11.8218 47.6913 11.8264 47.7241 11.878L47.6595 11.9272C47.5831 12.2707 47.4338 12.6509 47.3131 12.9862C47.5431 12.63 47.8123 12.2438 47.9 11.8282Z" fill="white"/>
<path d="M38.5492 15.2961C40.3717 15.5975 42.5851 15.6558 44.297 14.8165C44.794 14.5728 45.7444 13.9261 45.9989 13.4275L45.9761 13.3922C43.8414 15.5319 41.2909 15.4539 38.5072 15.2065L38.5492 15.2961Z" fill="white"/>
<path d="M39.1345 8.62388C39.1353 8.65431 39.1374 8.68123 39.131 8.71223C38.7278 10.658 37.8169 12.6514 35.9745 13.6152C35.7964 13.7084 35.6093 13.7533 35.4609 13.8939C35.5012 13.8903 35.733 13.893 35.743 13.8892C36.2921 13.6794 37.3665 12.8565 37.7099 12.4615C38.4909 11.5633 39.2209 9.76711 39.1345 8.62388Z" fill="white"/>
<path d="M47.4063 22.5938L47.3804 22.6348C47.3869 22.7956 47.6289 23.975 47.673 24.2491C47.8129 25.1526 47.9479 26.057 48.0779 26.9621C48.1222 27.2499 48.2117 27.9275 48.2935 28.1636C48.3457 28.1184 48.3331 28.1198 48.3658 28.0505C48.3311 27.2713 47.7332 23.0291 47.4063 22.5938Z" fill="white"/>
<path d="M17.5584 21.1999C17.4994 21.3657 17.6833 25.1793 17.7324 25.497L17.748 25.4743C17.6902 25.238 17.8434 24.936 17.8536 24.6794C17.8958 23.6231 17.872 22.1966 17.5584 21.1999Z" fill="white"/>
<path d="M45.0297 19.8758C44.8338 19.5841 44.5349 19.2943 44.2758 19.0569L44.1845 19.1007C44.3972 19.5674 46.78 21.8935 47.0789 21.7682C46.64 21.3108 45.2681 20.3389 45.0297 19.8758Z" fill="#E9E9EB"/>
<path d="M32.5281 51.6822L32.4818 51.7295C32.6174 51.7907 33.0907 52.084 33.2553 52.1839C33.9528 52.6078 36.1483 53.7936 36.897 53.8361L36.8986 53.7855C36.7385 53.657 35.4307 53.2168 35.088 53.0426C34.2218 52.602 33.3741 52.1652 32.5281 51.6822Z" fill="#E9E9EB"/>
<path d="M18.8835 22.971L18.8032 22.974C18.7819 24.3051 18.5239 25.6666 18.5137 26.9007C18.8368 25.7115 18.9281 24.1921 18.8835 22.971Z" fill="white"/>
<path d="M25.8022 9.90613C25.2801 10.1065 24.8039 12.0087 24.7384 12.5194C24.9284 12.1973 25.6745 10.3199 25.8022 9.90613Z" fill="white"/>
<path d="M18.759 28.9526L18.7164 29.0002C18.5362 29.6604 18.8835 32.387 19.0661 33.1387C19.0976 32.9118 18.9273 31.5043 18.8933 31.1437C18.8233 30.4151 18.7786 29.6843 18.759 28.9526Z" fill="white"/>
<path d="M16.6214 23.2737L16.5432 23.322C16.3958 23.9328 16.6403 25.9563 16.7983 26.5858L16.8172 26.6154C16.8483 26.4338 16.7504 25.5577 16.7312 25.294C16.6853 24.621 16.6485 23.9476 16.6214 23.2737Z" fill="white"/>
<path d="M33.4797 14.4805C33.3555 14.4842 33.4101 14.4821 33.2799 14.5707L33.1386 14.5395L33.1206 14.5764C33.4051 14.8082 35.0261 15.1881 35.5173 15.3733L35.5618 15.3905C35.7383 15.4408 35.8274 15.4652 36.0074 15.4928L36.0233 15.4692C35.3055 15.2015 34.114 14.8495 33.4797 14.4805Z" fill="#E9E9EB"/>
<path d="M44.315 7.90391C44.1921 8.00459 43.8181 9.48111 43.6863 9.77062C43.5248 10.1253 43.1917 10.7741 43.0829 11.1278C43.6648 10.4957 44.2265 8.76706 44.315 7.90391Z" fill="#E9E9EB"/>
<path d="M15.6886 34.2774C15.4642 34.2594 15.3442 34.2562 15.1338 34.3276C15.28 34.4135 15.6215 34.4238 15.8365 34.4994C16.1559 34.6114 16.3717 34.7283 16.6726 34.8854L17.1136 35.1551C16.673 34.6597 16.3414 34.4142 15.6886 34.2774Z" fill="#E9E9EB"/>
<path d="M47.689 6.19255C47.669 6.32782 47.7566 6.66192 47.7951 6.80906C47.9277 7.3151 47.9925 7.76987 48.0354 8.29158C48.1295 8.37679 48.199 8.36929 48.3271 8.38352C48.1489 8.0398 47.9864 6.85712 47.689 6.19255Z" fill="#E9E9EB"/>
<path d="M32.0052 13.1553C31.1882 13.7926 30.4663 14.2363 29.4721 14.5779C29.8869 14.6162 31.5011 13.7084 31.8631 13.4031C31.9257 13.351 31.9859 13.2959 32.0433 13.238L32.0052 13.1553Z" fill="#B9BABB"/>
<path d="M17.4859 27.8078C17.3729 28.0604 17.7291 30.0493 17.8892 30.322C17.8884 30.3133 17.888 30.3046 17.8876 30.296C17.7074 29.7253 17.7111 28.2491 17.4859 27.8078Z" fill="#E9E9EB"/>
<path d="M24.0824 10.8494C23.8195 11.0334 23.8154 11.7697 23.8866 12.0594C24.1118 11.892 24.1765 11.0981 24.0824 10.8494Z" fill="white"/>
<path d="M21.3027 17.5462C21.1971 17.5842 21.2012 17.5798 21.1152 17.6512C21.1111 17.796 21.1909 18.1352 21.2184 18.295C21.2778 18.6434 21.3236 18.9939 21.3564 19.3458L21.3953 19.4896C21.4497 19.2743 21.3089 17.9325 21.3027 17.5462Z" fill="#E9E9EB"/>
<path d="M18.7197 18.871C18.3958 19.0549 18.3004 19.8454 18.3204 20.2045C18.4949 19.7732 18.6284 19.3268 18.7197 18.871Z" fill="white"/>
<path d="M16.8958 18.0019L16.8004 18.0832C16.6857 18.5613 16.5932 19.2769 16.6018 19.762C16.7222 19.5115 16.7672 18.3739 16.8958 18.0019Z" fill="#5E5E61"/>
<path d="M35.917 15.2063L35.8591 15.243C35.9795 15.3899 36.7697 15.5417 37.0109 15.6122L37.0566 15.6078L37.0831 15.5565C36.9575 15.4553 36.2778 15.3744 35.917 15.2063Z" fill="#5E5E61"/>
<path d="M48.5088 10.4589L48.4767 10.4511C48.4864 10.4322 48.1776 11.6876 48.1637 11.7597C48.3736 11.5089 48.5302 10.7727 48.5088 10.4589Z" fill="#5E5E61"/>
<path d="M44.2347 16.1281C44.5656 16.2314 44.8657 16.3328 45.2118 16.3711C45.0261 16.2303 44.4406 16.0864 44.2047 16.0246L44.2347 16.1281Z" fill="#909192"/>
<path d="M37.4549 15.6195L37.3392 15.6115L37.3042 15.6615C37.406 15.7431 37.9703 15.8841 38.1511 15.9413C38.2473 15.9602 38.2114 15.9651 38.2995 15.9347C38.2146 15.8602 37.6902 15.7162 37.5019 15.6391L37.4549 15.6195Z" fill="#909192"/>
<path d="M38.5072 15.2065C37.9828 15.1184 37.8295 15.0463 37.2876 15.0662C37.7198 15.1005 38.1084 15.2489 38.5492 15.2961L38.5072 15.2065Z" fill="#909192"/>
<path d="M44.2047 16.0246C44.0378 15.9292 43.6028 15.8787 43.3899 15.844C43.7334 16.0397 43.8319 16.119 44.2347 16.1281L44.2047 16.0246Z" fill="#E9E9EB"/>
<path d="M44.319 2.77867C44.3255 2.53991 44.3072 2.18865 44.2365 1.96441L44.2545 1.97897L44.1606 2.03163C44.1794 2.20447 44.1963 2.36148 44.2246 2.53375L44.319 2.77867Z" fill="#5E5E61"/>
<path d="M32.5281 51.6822C32.3725 51.5753 32.0613 51.335 31.8938 51.3334C31.9532 51.4635 32.3467 51.676 32.4818 51.7295L32.5281 51.6822Z" fill="#464746"/>
<path d="M45.7004 14.7996C45.476 14.866 45.3761 14.9864 45.2005 15.1427C45.3947 15.1199 45.5696 14.9319 45.7004 14.7996Z" fill="#909192"/>
<path d="M18.8835 22.971C18.8863 22.8394 18.9068 22.6844 18.8454 22.5749C18.7848 22.7102 18.8016 22.8241 18.8032 22.974L18.8835 22.971Z" fill="#B9BABB"/>
<path d="M28.9688 1.11211C28.9565 0.927274 29.0462 0.909853 28.9844 0.705886C28.9156 0.866775 28.9131 1.03896 28.8484 1.18737C28.4095 2.19876 27.9819 3.21423 27.3861 4.14754C27.1847 4.46295 26.984 4.78269 26.7977 5.10969C27.104 4.8075 27.5462 4.02455 27.8247 3.65055C27.8521 3.64786 27.8796 3.64517 27.9074 3.64248L27.8918 3.60793C28.2231 3.29916 28.7649 1.91631 28.9008 1.44506C29.0073 1.29996 28.9721 1.33635 28.9688 1.11211Z" fill="#010101"/>
<path d="M28.9008 1.44506C28.5462 2.03963 28.285 2.82045 27.907 3.42394C27.8738 3.47697 27.8804 3.54947 27.8918 3.60793C28.2231 3.29916 28.7649 1.91631 28.9008 1.44506Z" fill="white"/>
<path d="M21.5542 17.4917L21.5222 17.5301C21.736 18.7532 21.8482 19.8482 21.7716 21.0935C21.7409 21.5969 21.677 22.0828 21.6463 22.5824L21.6832 22.5904C21.7085 22.3657 21.7737 22.1745 21.8035 21.9566C22.0091 20.4671 21.9383 18.9484 21.5542 17.4917Z" fill="#010101"/>
<path d="M32.8946 3.36174C32.827 3.01316 32.7595 2.67461 32.6849 2.32762C32.5756 1.81766 32.3258 1.14396 32.3111 0.632862C32.2001 0.54381 32.2623 0.572202 32.1141 0.55311C32.0527 0.70115 32.3115 1.34169 32.3807 1.53705C32.4187 1.8091 32.7644 3.16711 32.8946 3.36174Z" fill="#010101"/>
<path d="M49.8871 16.8683C49.3268 15.8925 48.2464 15.2954 47.2647 14.8221L47.1699 14.8993C48.4498 15.498 48.9364 15.8647 49.8871 16.8683Z" fill="#010101"/>
<path d="M49.8454 11.7709C49.7921 11.8407 49.738 11.9098 49.683 11.9781C49.4439 12.2742 48.2535 13.4172 47.9379 13.4503C47.9589 13.5499 47.958 13.5446 48.0115 13.6319C48.6763 13.102 49.5043 12.5262 49.8454 11.7709Z" fill="#010101"/>
<path d="M47.4148 4.53463C47.3994 4.41812 47.399 4.25433 47.335 4.1794C47.284 4.38638 47.3014 4.48009 47.3138 4.69067L47.4148 4.53463Z" fill="#292829"/>
<path d="M46.7865 25.5868C46.4741 24.8132 45.7602 24.3493 45.157 23.8265C44.1052 22.9148 43.0179 22.625 41.6843 22.3732C40.9553 22.2355 40.4052 22.1123 39.6334 22.0996L39.6325 22.1399C39.9648 22.151 40.2421 22.2195 40.5672 22.2829C42.1006 22.582 44.1225 23.2008 45.3516 24.1831C44.8115 23.9304 44.1729 23.5941 43.5916 23.3889C42.1942 22.8955 40.6228 22.5076 39.1532 22.3012C39.0344 22.2845 38.6717 22.2422 38.5862 22.2422L38.6482 22.3219C38.3054 22.5597 37.5041 23.6337 37.4374 23.9337L37.4874 23.9923C37.6276 24.0097 37.665 23.9802 37.7941 23.9234L37.8379 23.9036L37.9394 23.9501C38.2729 24.112 40.7691 24.1867 41.3278 24.2722C42.5914 24.4655 43.8751 24.5749 45.1129 24.9917C45.2818 25.0486 46.0616 25.3478 46.1625 25.3495C46.1027 25.2603 46.1247 25.285 46.0428 25.2112L46.0468 25.0988L46.1144 24.9149C46.4025 25.139 46.5483 25.3144 46.7865 25.5868Z" fill="#010101"/>
<path d="M46.1144 24.9149C45.0261 23.7706 41.6246 23.3176 40.0684 23.31L40.1 23.3909C40.5379 23.4557 40.9892 23.4605 41.4224 23.5255C41.9752 23.6086 42.5554 23.7647 43.0952 23.8821C44.2939 24.1426 45.0047 24.3411 46.1144 24.9149Z" fill="#F5F4F7"/>
<path d="M46.0468 25.0988C45.5652 24.7733 44.6392 24.4821 44.0684 24.3788C44.7397 24.6495 45.3783 24.9273 46.0428 25.2112L46.0468 25.0988Z" fill="#E9E9EB"/>
<path d="M40.0684 23.31C39.7128 23.2638 39.2284 23.1808 38.8839 23.2445L38.8347 23.2919C39.0089 23.4361 39.8601 23.4144 40.1 23.3909L40.0684 23.31Z" fill="#E9E9EB"/>
<path d="M37.9394 23.9501C38.145 23.7239 38.5345 23.1635 38.7032 22.9082C38.2879 23.2652 38.1652 23.4687 37.8379 23.9036L37.9394 23.9501Z" fill="#E9E9EB"/>
<path d="M30.1772 24.7913C29.9741 24.6542 29.4143 24.2513 29.3083 24.0514C29.6928 23.9495 30.3639 24.7193 30.7607 24.8993L30.7706 24.8618C30.3639 24.4133 28.1597 22.4636 27.6859 22.4855L27.7358 22.6529C27.6568 22.7073 27.6494 22.6806 27.5192 22.6589C27.5237 22.6636 27.3861 22.4781 27.4467 22.4861C25.9316 22.2868 23.9038 22.5705 22.7093 23.5933C22.1094 24.1069 21.6463 24.9857 21.6353 25.7734C22.6299 24.6779 23.0238 24.266 24.6045 24.187C26.188 24.1077 27.6793 24.336 29.2452 24.5348C29.4143 24.5562 29.3464 24.5975 29.4463 24.4909L29.4807 24.4364C29.7231 24.6139 29.8983 24.681 30.1772 24.7913Z" fill="#010101"/>
<path d="M29.4807 24.4364C29.2927 24.2704 28.9803 23.9937 28.7084 24.0356C28.737 24.2711 29.2583 24.4098 29.4463 24.4909L29.4807 24.4364Z" fill="white"/>
<path d="M23.064 23.9613C24.2453 23.5979 25.2191 23.614 26.4398 23.6295C26.6003 23.6315 27.6159 23.6517 27.6982 23.6365L27.7051 23.5781C27.6363 23.5078 27.3096 23.4047 27.2178 23.4024C26.2682 23.3786 23.7761 23.3535 23.0255 23.9083L23.064 23.9613Z" fill="white"/>
<path d="M26.2871 22.7725C26.1691 22.7982 25.8534 22.799 25.6986 22.8154C25.1347 22.8752 24.0738 23.0095 23.6045 23.3259L23.8518 23.2773C24.557 23.0578 25.4415 22.9215 26.1953 22.8566C26.233 22.8534 26.5323 22.9394 26.6822 22.9514L26.6912 22.9013C26.5794 22.8113 26.432 22.8001 26.2871 22.7725Z" fill="#E9E9EB"/>
<path d="M27.8689 22.8944L27.6748 22.9058C27.7928 23.0057 28.1212 23.0822 28.2809 23.1935C28.5896 23.4085 28.7772 23.6909 29.1072 23.8699L29.2681 23.8812C29.192 23.6233 28.1511 22.9596 27.8689 22.8944Z" fill="#E9E9EB"/>
<path d="M28.1396 23.9477C27.8341 23.9662 27.6203 23.9348 27.3149 23.9991L27.3046 24.038C27.4742 24.1229 27.6195 24.13 27.8079 24.158C28.1212 24.2125 28.3517 24.2246 28.6936 24.2964C28.5024 24.1663 28.3378 24.0655 28.1396 23.9477Z" fill="#E9E9EB"/>
<path d="M27.7166 23.253L27.6937 23.2606L27.6802 23.306C27.9062 23.5788 28.1171 23.67 28.4369 23.7886L28.4897 23.754C28.357 23.5046 27.9934 23.3854 27.7166 23.253Z" fill="#E9E9EB"/>
<path d="M27.2088 23.9638C27.0086 23.945 26.7232 23.9361 26.5274 23.9665L26.5278 24.0135C26.7248 24.0353 26.9779 24.0761 27.1691 24.0543L27.2088 23.9638Z" fill="#B9BABB"/>
<path d="M23.0255 23.9083C22.7482 24.0137 22.6926 24.0634 22.5095 24.2981C22.6823 24.2572 22.8654 24.0387 23.064 23.9613L23.0255 23.9083Z" fill="#B9BABB"/>
<path d="M27.6806 29.1002C26.7961 29.1215 26.1298 29.169 25.2859 29.5186C24.283 29.9342 23.0697 30.9208 22.6467 31.9339C21.7769 32.0513 20.8658 32.1451 19.9936 32.0555C20.6746 32.2549 21.9522 32.5386 22.6651 32.3828C22.9522 32.3201 23.159 31.7904 23.3064 31.5135C23.2658 32.0177 23.2974 32.1309 23.5427 32.5475C24.3334 32.9578 24.9443 32.8354 25.3657 32.026C25.4918 31.6047 25.5115 30.6656 25.1004 30.3422C25.0328 30.289 25.0598 30.3096 25.0475 30.226C25.0656 30.2046 25.0852 30.1786 25.1094 30.1662C25.9017 29.7578 26.9513 29.5297 27.8059 29.7302C29.5486 30.1392 30.4577 31.4273 31.3402 32.8128C31.0023 31.0047 29.4995 29.458 27.6806 29.1002Z" fill="#010101"/>
<path d="M29.7669 40.3481C29.9487 40.238 29.9745 40.2617 30.0634 40.103C29.8914 39.5922 27.8304 39.9337 27.9533 40.5807C28.1638 40.5794 29.142 39.8509 29.4139 40.1429C29.8222 40.5815 30.0855 40.5386 30.685 40.692C32.0949 41.0522 33.5731 41.0685 35.0218 41.0885C37.0589 41.0645 40.7611 40.9286 42.6344 40.2559C42.166 40.2266 41.7662 40.38 41.2988 40.4579C40.7403 40.5509 40.1775 40.617 39.6125 40.6557C36.2494 40.8744 33.7881 40.8499 30.4446 40.4566L30.3697 40.3437L29.7669 40.3481Z" fill="#010101"/>
<path d="M42.2707 26.9091C41.0102 26.9706 40.0067 27.503 39.3839 28.64C39.9554 28.3006 40.3108 27.7907 40.9852 27.5197C41.9873 27.117 43.3479 27.2382 44.3269 27.6292C45.0392 27.9348 45.6312 28.2748 46.1846 28.8356C46.3106 28.9632 46.4558 29.2143 46.6234 29.398L46.6764 29.3679C46.6388 29.194 46.3549 28.8432 46.2303 28.6992C45.3319 27.661 43.6173 26.9931 42.2707 26.9091Z" fill="#010101"/>
<path d="M36.921 33.9937C36.4124 33.9559 35.9014 34.0227 35.4197 34.1898C35.2293 34.2565 34.4808 34.506 34.6045 34.7828C34.6705 34.7332 34.7285 34.6807 34.7891 34.6315C35.4974 34.0569 37.3416 33.8494 37.9542 34.6087C37.8194 34.6491 37.6127 34.5464 37.4597 34.5273C36.4214 34.3979 34.8024 34.7446 34.0803 35.5329C34.4828 35.293 34.7753 35.1162 35.2146 34.9516C35.8668 34.7175 36.9761 34.6433 37.6841 34.7542C37.845 34.7794 38.1617 35.0263 38.4313 35.1017C38.6966 35.1759 39.3375 35.4709 39.4224 35.743C39.4753 35.9123 39.455 35.9792 39.3904 36.1305C39.2381 36.4875 39.1023 36.6865 38.7292 36.8154C38.6571 36.8403 38.6761 36.8232 38.6443 36.8758C39.2351 37.0741 39.8774 36.0587 39.6302 35.661C39.4422 35.3587 38.6746 35.025 38.3667 34.8004C37.8542 34.4265 37.5681 34.102 36.921 33.9937Z" fill="#010101"/>
<path d="M26.8218 28.2906C25.5053 28.1425 24.3555 28.9756 23.6045 29.969C23.8453 29.8247 24.2232 29.5189 24.4566 29.3439C25.4632 28.5893 26.0201 28.5436 27.2088 28.56C28.7526 28.705 29.2657 29.1558 30.3578 30.1128C29.6686 28.8365 28.183 28.3811 26.8218 28.2906Z" fill="#010101"/>
<path d="M30.9233 33.0078C29.2661 33.4773 28.133 33.6774 26.414 33.62C26.0471 33.6078 24.1847 33.4091 24.1098 33.4508L24.1982 33.5419C25.7412 34.1341 29.5916 34.0161 30.9233 33.0078Z" fill="#010101"/>
<path d="M30.4446 40.4566C30.687 40.3571 31.1444 40.2963 31.4065 40.2323C33.0756 39.8268 34.6525 39.6065 36.3698 39.6914C37.1043 39.5213 37.3981 39.4087 38.1666 39.4299C39.2944 39.4613 40.8497 40.229 41.8663 40.2665C41.6132 40.1466 40.975 40.0144 40.6653 39.9222C39.7356 39.6465 38.7444 39.2953 37.767 39.2879C37.3292 39.2847 36.7346 39.5967 36.3333 39.6049C35.7194 39.6343 35.0987 39.496 34.4847 39.5694C33.8549 39.6453 33.1898 39.7322 32.5686 39.857C31.8303 40.0051 31.1125 40.2107 30.3697 40.3437L30.4446 40.4566Z" fill="#010101"/>
<path d="M32.574 41.7555C32.7419 41.8628 32.9695 41.9844 33.1489 42.0717C34.8654 42.9234 36.8515 43.0613 38.67 42.4543C39.0406 42.3266 40.0829 41.8371 40.2465 41.5034C40.1574 41.5205 39.6172 41.9199 39.4204 42.0072C37.8538 42.7023 35.9322 42.8227 34.2755 42.4045C33.7366 42.2683 33.1505 41.9546 32.6268 41.7388L32.574 41.7555Z" fill="#010101"/>
<path d="M46.0084 30.9576C45.9014 31.0104 45.4273 31.4411 45.1087 31.6162C43.2848 32.6189 42.039 32.6203 40.0593 32.5137L40.0266 32.5721L40.0043 32.5647L39.9921 32.5148L39.9143 32.5338L40.108 32.5848C41.1469 32.7081 41.9857 32.7981 43.03 32.5783C44.0643 32.3606 45.3996 31.8636 46.0084 30.9576Z" fill="#010101"/>
<path d="M35.2603 36.2753C34.9579 36.2941 34.0553 36.4564 33.9951 36.813C34.1325 36.9215 34.1004 36.8844 34.334 36.8701C34.615 36.8154 35.5127 36.6058 35.7333 36.6763L35.7619 36.6425C35.6947 36.4487 35.4352 36.3516 35.2603 36.2753Z" fill="#010101"/>
<path d="M35.0569 33.8625C35.6932 33.719 36.3145 33.6993 36.9646 33.6419C37.062 33.6923 37.0221 33.6844 37.1279 33.6887L37.1593 33.6049L37.1155 33.5294C36.6094 33.2852 35.6202 33.4801 35.0915 33.6375C34.9868 33.6682 34.9848 33.6803 34.8968 33.7488L34.8756 33.8535L34.9329 33.9092C35.0307 33.8931 35.0005 33.917 35.0569 33.8625Z" fill="#464746"/>
<path d="M35.0569 33.8625C35.3756 33.62 36.4008 33.6648 36.8427 33.5672C36.1231 33.4142 35.7217 33.6572 35.0915 33.6375C34.9868 33.6682 34.9848 33.6803 34.8968 33.7488L34.8756 33.8535L34.9329 33.9092C35.0307 33.8931 35.0005 33.917 35.0569 33.8625Z" fill="white"/>
<path d="M37.4322 36.5878L37.4797 36.5776C37.8572 36.5013 38.6655 36.5319 38.8755 36.4173C38.9037 36.2859 38.9088 36.35 38.8466 36.2198C38.551 36.0081 38.1599 36.0281 37.8117 36.0575C37.675 36.2639 37.5635 36.3753 37.3964 36.5539L37.4322 36.5878Z" fill="#010101"/>
<path d="M19.7307 33.3606C19.5612 34.2279 20.2524 36.7114 20.5939 37.5962C20.6676 37.4449 20.485 36.9137 20.4313 36.7094C20.2409 36.0065 20.0751 35.2975 19.9338 34.5831C19.8576 34.1794 19.8134 33.7521 19.7307 33.3606Z" fill="#010101"/>
<path d="M38.2205 22.3428C38.1161 22.3486 38.0992 22.3551 37.9971 22.3821C37.7053 22.6194 37.0921 23.6557 37.0324 24.0169C37.3779 23.9448 38.0811 22.6929 38.2205 22.3428Z" fill="#010101"/>
<path d="M15.7062 35.6079L15.6657 35.6606C15.7324 36.4524 16.5101 37.9646 17.0346 38.5981L17.0641 38.5651C17.0535 38.5092 16.7459 37.998 16.6821 37.8736C16.3041 37.1389 16.0596 36.3471 15.7062 35.6079Z" fill="#010101"/>
<path d="M15.875 15.4599C15.6616 15.424 15.2968 15.5959 15.0822 15.6772C15.3324 15.6256 15.8311 15.4949 16.0379 15.6285L16.0449 15.6976C15.8144 15.8858 15.5662 15.9517 15.3164 16.0963C14.5585 16.5346 14.1658 17.5224 13.9356 18.3094C13.8828 18.4833 13.8578 18.5584 13.8337 18.7362C13.9016 18.6942 14.2227 17.7217 14.3128 17.534C14.4933 17.158 14.6227 16.9897 14.8254 16.6726C15.2034 16.0815 15.8885 15.967 16.2341 15.6512L15.875 15.4599Z" fill="#010101"/>
<path d="M24.638 35.2926L24.5832 35.3191C25.9271 35.9706 26.9905 36.4275 28.2407 37.3013L28.2927 37.3098C28.0597 36.8289 25.2338 35.4464 24.638 35.2926Z" fill="#010101"/>
<path d="M27.7964 37.3274C27.3865 37.1393 24.8629 35.8829 24.5905 35.9461C25.4513 36.31 26.2629 36.7893 27.1347 37.1348C27.3235 37.2095 27.5381 37.296 27.7203 37.3812L27.7964 37.3274Z" fill="#010101"/>
<path d="M28.6998 22.7221L28.649 22.7494L31.0662 24.791L31.0883 24.7955L31.1105 24.7706C30.5044 24.1355 29.4369 23.1689 28.6998 22.7221Z" fill="#010101"/>
<path d="M26.3292 35.5737L26.2875 35.5953C26.509 35.7736 26.7744 35.8609 27.0115 36.0102C27.6523 36.4136 28.0782 36.7163 28.785 37.0125L28.8406 36.9941C28.7551 36.8317 26.6556 35.7218 26.3292 35.5737Z" fill="#010101"/>
<path d="M37.6625 22.3755C37.3618 22.4609 36.7303 23.6661 36.6913 23.9906C36.9539 23.8687 37.5886 22.6793 37.6625 22.3755Z" fill="#010101"/>
<path d="M43.4046 34.8101L43.3803 34.8138C43.4064 34.8672 45.9483 35.8503 46.2181 35.9588L46.2371 35.9608L46.2488 35.9188C45.7145 35.5667 44.034 34.9737 43.4046 34.8101Z" fill="#010101"/>
<path d="M33.3127 36.126C33.1538 36.2823 33.0752 36.5066 33.1411 36.7241C33.2001 36.9129 33.3299 37.0712 33.504 37.1663C33.7034 37.2723 33.8399 37.2821 34.0457 37.2152C34.1466 37.1854 34.1722 37.176 34.2671 37.1312C34.1315 37.0785 33.9285 37.0871 33.7756 37.0443C33.2721 36.9044 33.1542 36.6021 33.3127 36.126Z" fill="#010101"/>
<path d="M44.7574 35.7409C44.2545 35.4803 42.8631 34.9831 42.2801 34.8227C42.5586 35.0685 44.1877 35.5863 44.6657 35.796L44.7574 35.7409Z" fill="#010101"/>
<path d="M13.8644 13.2953C13.8594 13.7581 14.859 14.7581 15.2984 14.9549C15.2968 14.9239 15.2951 14.8929 15.2935 14.8618C15.0937 14.7003 14.8705 14.4821 14.694 14.3094C14.3582 13.9804 14.1264 13.6768 13.8644 13.2953Z" fill="#010101"/>
<path d="M14.5863 17.587C14.8926 17.1309 15.2218 16.7611 15.6272 16.3893C15.7873 16.2428 16.3725 15.8863 16.4298 15.7746L16.368 15.7636C15.6653 16.1073 14.9315 16.8998 14.5187 17.5609L14.5863 17.587Z" fill="#292829"/>
<path d="M42.0428 35.413C42.0329 35.4285 42.0229 35.4435 42.0129 35.459C42.6916 35.8331 43.7179 36.3488 44.4649 36.5229L44.4954 36.5021C44.4156 36.4422 43.711 36.2035 43.516 36.113C43.0237 35.8849 42.5345 35.639 42.0428 35.413Z" fill="#5E5E61"/>
<path d="M45.4395 34.7291L45.3706 34.7302C45.4105 34.791 46.8772 35.2539 47.0878 35.3224L47.1496 35.322L47.1292 35.284C46.4836 35.0171 46.1273 34.8947 45.4395 34.7291Z" fill="#464746"/>
<path d="M37.3964 36.5539L37.3522 36.5854C36.748 37.0096 36.2493 36.8954 36.0639 37.028L36.0981 37.0843C36.5251 37.1561 37.1163 36.8644 37.4322 36.5878L37.3964 36.5539Z" fill="#010101"/>
<path d="M42.8592 1.8235C42.6557 1.86389 42.1884 2.52405 42.0498 2.71251C42.3043 2.62154 42.6963 2.0537 42.8592 1.8235Z" fill="#E9E9EB"/>
<path d="M46.6192 6.55186C46.4866 6.62047 46.392 6.90794 46.4072 7.04774L46.5248 7.09779C46.7616 6.86898 46.5923 6.88261 46.7028 6.64017L46.6192 6.55186Z" fill="#010101"/>
<path d="M23.9853 36.3373L23.9632 36.3916C24.3334 36.5988 24.5823 36.7338 24.9808 36.8738L24.9849 36.8509C24.6761 36.6539 24.3182 36.4956 23.9853 36.3373Z" fill="#292829"/>
<path d="M32.6268 41.7388C32.4573 41.6217 32.1059 41.399 31.9044 41.3635L31.9135 41.4092C32.0932 41.5287 32.3717 41.6776 32.574 41.7555L32.6268 41.7388Z" fill="#B9BABB"/>
<path d="M14.5187 17.5609C14.4323 17.6914 14.2988 17.8799 14.2292 18.0127L14.2657 18.0606L14.2165 18.0409L14.2366 18.0899L14.2022 18.0808L14.2268 18.0995C14.3906 17.9179 14.4606 17.7924 14.5863 17.587L14.5187 17.5609Z" fill="#5E5E61"/>
<path d="M23.9853 36.3373C23.8784 36.27 23.5967 36.0722 23.4882 36.0954C23.5779 36.2011 23.833 36.3402 23.9632 36.3916L23.9853 36.3373Z" fill="#909192"/>
<path d="M44.6657 35.796C44.8392 35.869 44.9476 35.9274 45.1358 35.949C45.0754 35.867 44.8682 35.7923 44.7574 35.7409L44.6657 35.796Z" fill="#464746"/>
<path d="M27.7203 37.3812C27.8882 37.4534 27.9995 37.5158 28.1822 37.5314C28.1101 37.4408 27.9144 37.3767 27.7964 37.3274L27.7203 37.3812Z" fill="#5E5E61"/>
</g>
</svg>
