<svg width="64" height="75" viewBox="0 -2.88831 64 75" fill="none" xmlns="http://www.w3.org/2000/svg">
<circle cx="32" cy="32" r="32" transform="matrix(-1 0 0 1 64 8.11169)" fill="white"/>
<circle cx="32" cy="32" r="30.5" transform="matrix(-1 0 0 1 64 8.11169)" stroke="black" stroke-opacity="0.05" stroke-width="3"/>
<mask id="mask0_2739_64531" style="mask-type:alpha" maskUnits="userSpaceOnUse" x="0" y="-1" width="66" height="71">
<path d="M7.62939e-06 34.3651C7.62939e-06 53.643 14.7351 69.2707 32.9118 69.2707C48.814 69.2707 63.5 53.1117 65.8235 34.3651C67.7779 12.1455 53.0155 -3.44379 32.9118 -0.540505C14.7351 -0.540505 7.62939e-06 15.0873 7.62939e-06 34.3651Z" fill="#BDBFBC"/>
</mask>
<g mask="url(#mask0_2739_64531)">
<path d="M48.7409 63.5437L61.34 73.5485C43.0957 90.027 9.5599 78.5182 -4.92746 70.704L-0.678921 67.0258L10.8947 58.149L10.3087 55.0593V52.6071L13.2387 49.1251C13.7075 39.4734 13.2387 32.385 12.9457 30.0473L11.8225 30.9301L9.33201 31.2243L7.03682 30.0473L5.22997 27.2028L4.59513 22.9361L5.22997 19.8464L6.74382 18.0318L8.20883 17.5904L10.6505 18.4241L13.7271 21.9062L12.5062 11.9504L12.7015 10.9696L14.1177 9.6454L16.9989 7.53654L29.9399 2.43607L33.4071 2.09276C34.0712 0.601855 36.3859 0.0983461 37.4603 0.0329553L39.7066 1.30807L41.367 4.88822L43.3204 11.3619L45.469 11.9504L48.1549 13.0784L50.9873 21.1215L53.5266 39.7088L46.055 45.5449L39.4625 47.3105L38.8765 52.3129L49.4734 59.5712L48.7409 63.5437Z" fill="white"/>
<path d="M37.0569 12.1348C35.2935 10.3313 35.0284 7.46465 34.9976 5.01921C34.9761 3.33193 35.3306 0.0456568 37.6547 0.000340971C38.4917 -0.0159904 39.2623 0.556931 39.8126 1.16099C40.6316 2.05221 41.2 3.14582 41.4598 4.32996C41.473 4.39269 41.5902 4.95604 41.5604 4.98714C41.3338 5.22269 41.6473 5.57109 41.742 5.93563C42.2177 7.76837 42.7739 9.5424 43.4092 11.3259C44.7414 11.5473 46.0716 11.7659 47.3189 12.315C47.6651 12.4675 48.7404 12.8882 48.7057 13.325C48.5881 13.3736 48.4938 13.3296 48.3654 13.2969L48.3107 13.3497C48.3361 13.5454 49.2996 15.5906 49.451 15.953C49.9227 17.094 50.3563 18.2507 50.7499 19.4212C51.1386 20.5893 51.4077 21.7127 51.7408 22.8836C53.0637 27.5347 53.889 32.2806 54.0819 37.1193C54.1146 37.9423 54.4134 40.1482 53.8777 40.7274C52.4498 42.2723 50.4262 43.4086 48.6037 44.4272C47.9605 44.7857 47.2954 45.0368 46.7089 45.3718C47.1045 45.7764 47.2808 45.899 47.8521 46.0461C48.2662 45.9701 48.778 45.6955 48.9309 45.6916C49.091 46.2183 47.3965 46.8921 46.5405 45.3821C46.0746 45.5797 45.6111 45.7833 45.1506 45.9927L45.1814 46.0535C45.9276 47.4939 46.8618 46.5243 47.1777 46.7479C47.0674 47.2266 46.1469 47.4095 45.7396 47.2747C45.3782 47.155 45.1179 46.8607 44.9602 46.5238C44.8684 46.3438 44.8401 46.1604 44.6999 46.0991C44.3385 46.1903 44.0807 46.3782 43.8985 46.7023C43.3897 47.6077 44.2799 47.8769 44.9294 47.9819C45.0974 47.9176 45.2859 47.819 45.4515 47.8544L45.4793 47.9338C45.0891 48.4478 44.2487 48.2477 43.7457 48.0564C43.4087 48.1736 43.2251 48.1398 42.8755 48.0697C42.5136 47.5513 42.4702 47.4071 42.4711 46.7651C42.1171 46.8401 40.9641 46.9981 40.8098 47.3114C40.5661 47.8083 40.9431 48.7504 41.4603 48.972C41.8387 49.1349 42.4067 48.8794 42.8047 48.8122C42.8706 48.8009 43.2583 48.5243 43.3379 48.4674L43.3785 48.5238C43.0957 49.2791 42.0092 49.5969 41.3143 49.2977C40.3933 48.9019 40.4396 48.0034 40.5647 47.1913C40.2682 47.2354 39.945 47.2766 39.6549 47.337C39.6437 48.9838 39.6627 50.6307 39.712 52.2771C40.5232 52.7866 42.3398 53.8234 42.9746 54.328C44.0831 55.2098 49.7991 59.1151 50.1322 60.1259C49.9881 60.1392 43.1739 55.4506 42.3066 55.0249C42.0199 54.8842 39.9904 53.764 39.7511 53.5757C39.7521 53.945 39.7198 55.8288 39.7985 55.9975L39.8649 55.9984C39.9244 55.7836 40.2565 55.2962 40.4768 55.2177C40.699 55.1387 40.6413 55.2113 40.8347 55.0441L40.8904 55.0813L40.9016 55.2069C40.988 55.2535 41.0764 55.2731 41.0725 55.3403C41.0296 56.1466 40.3825 57.2172 40.1867 58.0141C40.3972 57.7076 40.6565 57.045 40.8342 56.843C40.6765 57.4168 40.2912 57.9808 40.381 58.5379C40.4103 58.7203 40.5148 58.9008 40.5617 59.1406C41.2952 58.7478 41.7577 58.2329 42.4452 57.9715C42.2997 58.7792 42.0282 58.9984 41.8978 59.9067L41.9325 59.8449C42.2079 59.352 42.5341 58.3466 42.8462 58.0166L42.9277 58.0171L42.9805 58.0739C42.9346 58.3246 42.4619 58.6595 42.4008 59.3255C42.4672 59.4349 42.4955 59.4751 42.5756 59.5752L42.5292 59.6492C42.416 59.6002 42.4521 59.6203 42.3578 59.5403C42.0946 59.7208 41.8568 60.7968 41.7928 61.1357L40.299 68.7545C39.9147 70.732 39.4351 72.6839 39.3804 74.7128C39.3736 74.9659 39.3506 75.2268 39.3331 75.4798V75.4121C39.3297 74.9605 39.2281 74.5559 39.1812 74.1145C38.9409 71.8575 39.0435 69.5309 39.1416 67.273C38.4023 68.4941 37.2122 68.4515 35.965 68.2004C31.0885 67.2166 26.4511 63.3554 22.8083 60.1651L22.8796 60.0769C26.564 63.1352 32.6204 68.1719 37.9652 67.9659C38.478 67.9463 38.874 67.504 39.1592 67.1018C39.1817 66.5957 39.2286 66.09 39.2618 65.5839C39.3765 63.8429 39.8405 62.1043 39.8707 60.3574C39.107 60.1038 38.1337 59.5943 37.3792 59.252C35.1378 58.2343 33.1317 57.0073 31.0128 55.7827L31.0401 55.7532C31.8747 55.942 39.1026 59.4888 39.7643 60.0725C39.754 59.7748 39.7267 59.5143 39.6954 59.2186C39.5015 59.171 39.3878 59.175 39.252 59.0161C38.6836 58.3515 37.7347 58.0283 36.9676 57.6846L33.8153 56.2829C31.8464 55.3712 29.9135 54.383 28.0212 53.3207C27.6017 53.0902 25.7369 52.1348 25.7354 51.7111C25.9294 51.6459 26.4944 51.9372 26.7389 52.0152C29.3807 52.8592 32.01 53.7969 34.6953 54.5007C35.3658 54.6762 37.1282 55.3781 37.725 55.4006C37.5384 55.2113 36.4558 54.9224 36.1408 54.7949C34.9336 54.3074 26.7674 51.7729 26.4424 51.2408L26.5042 51.1903C27.1661 51.155 28.9827 52.0245 29.7758 52.1525C30.1411 52.2113 30.6397 52.46 31.0855 52.5242C30.2964 52.1147 29.4071 51.8945 28.5979 51.5282C26.8416 50.7332 24.961 50.0284 23.6153 48.5934C24.777 48.9627 26.2667 49.8097 27.4206 50.3173C29.81 51.3683 32.1267 52.1505 34.6392 52.8332C34.8789 52.8984 35.569 53.1809 35.734 52.9774C35.5455 52.8724 34.2866 52.5326 33.8778 52.3644C31.7589 51.4919 26.1727 49.5802 24.7127 48.1133C25.3169 48.5091 25.5466 48.6199 26.2301 48.8539C25.8139 48.5238 25.2281 48.1878 24.7729 47.8872C24.1691 47.4816 23.6092 47.0138 23.1024 46.491C25.8102 48.334 28.9862 49.5257 32.0671 50.5782C32.5994 50.7602 33.1229 50.9563 33.6752 51.0677C32.6184 50.4934 30.8536 49.9627 29.7133 49.4659C29.0345 49.1849 28.4031 48.8176 27.7336 48.5155C23.3683 46.5449 19.6466 43.3924 17.5529 39.0109C16.9106 37.6671 16.28 35.7339 15.8444 34.3216C14.8853 31.2118 13.3897 18.5707 15.8796 16.6404C14.4412 18.847 14.7051 23.2651 14.8877 25.8644C15.3901 32.4811 17.0462 39.2154 22.2755 43.6921C25.9186 46.8112 29.8491 47.6155 34.5161 47.5856C34.9346 47.5827 34.5825 46.8122 34.9844 46.7538C35.1221 47.0044 34.9414 46.846 34.9844 47.0206C35.0201 47.1643 35.1226 47.41 35.1773 47.5488C35.6979 47.4311 36.9207 47.3242 37.5472 47.2359C38.4316 47.1114 39.8478 46.7793 40.6648 46.7249C40.8323 46.6052 41.0569 46.3605 41.1917 46.3061C41.2356 46.4267 41.2083 46.3713 41.2708 46.4733C41.7284 46.5116 42.5737 46.3115 42.8799 45.9427L42.9917 45.9731C42.999 46.0123 42.9902 45.9858 43.0493 46.0324C44.2492 45.5915 44.3239 45.7185 45.22 44.7872C45.0457 44.5253 44.8342 44.2595 44.9993 43.9569L45.1096 43.954C45.4056 44.1369 45.3323 44.3085 45.4397 44.6425L45.5994 44.6759L45.6199 44.7539L45.5569 44.8269C45.1653 44.8931 45.157 45.0089 44.9035 45.3497C45.2888 45.1614 45.7723 44.9412 46.14 44.7225C46.2035 44.6847 46.1835 44.5832 46.1874 44.4812C46.2807 44.3973 46.2279 44.4213 46.3559 44.4228C46.4106 44.5351 46.3817 44.5037 46.4687 44.5842C46.7651 44.441 48.0211 43.6891 48.1573 43.4493C48.0777 43.412 47.8331 43.4596 47.7232 43.4724C47.5142 43.2688 47.3008 42.8574 47.5923 42.6381C47.774 42.7401 47.9 43.1506 48.066 43.3238C48.2907 43.5582 48.6613 43.1344 48.8972 42.9682C50.3368 41.9535 51.5865 40.6612 52.7126 39.3111C52.9606 38.2091 52.7399 37.0536 52.6339 35.9403C52.2355 31.6768 51.5713 27.4422 50.6459 23.2617C50.434 22.2939 50.2919 21.4025 50.0301 20.4333C48.8522 20.7294 45.9437 21.0103 44.7253 21.1439C40.3527 21.6664 35.9611 22.0076 31.5607 22.1666C30.4238 22.2145 29.0628 22.2499 27.8522 22.2355C25.0843 22.2025 20.3653 22.4403 18.1678 20.5743C18.0231 20.4515 17.9362 20.3339 17.9326 20.1507L17.9825 20.1082C18.6869 20.5332 19.8744 20.5148 20.7039 20.5481C23.0285 20.6435 25.357 20.5437 27.6652 20.2496C33.3075 19.5331 38.9014 17.8026 44.6418 17.9854C46.2982 18.0382 47.9669 18.3729 49.5779 18.7362C49.3938 17.8102 48.9416 16.7675 48.6745 15.842C48.3957 14.8778 48.1695 13.9919 47.6514 13.1275C46.2572 12.2114 44.488 12.1692 43.1787 11.4985C43.021 11.1461 42.6831 9.96898 42.5224 9.82975C42.2001 10.0957 40.8391 9.60719 40.4084 9.86305C40.3356 10.0615 40.3742 9.96653 40.4191 10.2058C40.4279 10.2516 40.4484 10.3225 40.4592 10.3738C40.486 10.5431 40.3449 10.7721 40.2472 10.8958C39.8502 11.3965 39.1299 11.434 38.6821 10.9798C38.4116 10.7056 38.4336 10.4245 38.436 10.0722C38.0805 10.0932 37.663 10.1898 37.3309 10.0879L37.3402 9.99797C38.3276 9.37174 40.2092 9.31377 41.3499 9.32662C40.8689 8.53124 39.6314 7.19672 38.602 7.19766C38.2172 7.198 37.995 7.40732 37.7494 7.67926L37.682 7.61609C39.251 5.66055 41.3016 8.66875 42.4902 9.54329C41.6683 7.02655 41.4652 3.35528 39.0381 1.91675C37.2884 0.879733 35.7418 3.58127 35.5206 4.99444C34.9722 8.49293 36.718 13.7767 41.1712 12.4174C41.7899 12.2242 42.1356 11.6505 42.4594 11.1321C42.2104 11.8506 41.9852 12.218 41.3226 12.6194C42.499 12.782 42.9834 13.0336 44.0343 13.4626C44.5295 13.6648 45.8231 13.401 46.2953 14.0668C46.7949 14.771 45.1887 15.9643 44.779 16.2995C45.134 15.8339 45.8592 15.0423 46.059 14.5674C45.1204 13.7169 44.9294 13.9218 43.7516 13.8499C43.5035 13.8347 42.7124 13.4962 42.4404 13.4026C40.2604 12.6535 38.9292 12.7709 37.3866 14.4963C36.74 14.496 36.1125 14.4209 35.4684 14.4121C33.9853 14.3918 32.5496 14.9337 31.2662 15.6395C30.9654 15.8048 30.6275 15.9996 30.3232 16.1335C31.8078 14.5066 35.3907 13.3399 37.5077 14.1741C38.016 13.5725 38.186 13.365 38.8403 12.9448C38.3969 12.8727 38.0409 12.6555 37.7162 12.7509L37.6727 12.6639C37.0144 12.0245 36.907 12.9444 36.4231 12.8931C36.2878 12.5461 36.7454 12.309 36.9827 12.1766L37.0569 12.1348Z" fill="black"/>
<path d="M39.8649 55.9984C39.9244 55.7836 40.2565 55.2962 40.4768 55.2177C40.699 55.1387 40.6413 55.2113 40.8347 55.0441L40.8904 55.0813L40.9016 55.2069C40.7331 55.4266 39.9948 56.5605 39.8673 56.6188L39.8224 56.5786C39.8361 56.4084 39.8639 56.1632 39.8649 55.9984Z" fill="#E7E7EA"/>
<path d="M42.3378 18.3955C43.9806 18.2481 48.1373 18.5492 49.6834 19.1059C49.7908 19.4799 49.9012 19.853 50.015 20.2251C48.9455 20.2858 47.7794 20.4564 46.7031 20.5624L39.3531 21.2771C38.1698 21.3891 36.8074 21.4393 35.6002 21.5194C32.3884 21.7588 29.1683 21.8781 25.9477 21.877C23.4988 21.9183 20.445 21.8041 18.3353 20.5029C19.5668 20.7579 20.3385 20.7947 21.5738 20.8598C23.709 20.9666 25.8494 20.8848 27.9704 20.6153C31.5568 20.1663 35.4083 19.1977 39.0142 18.7052C40.0919 18.5579 41.2478 18.4772 42.3378 18.3955Z" fill="white"/>
<path d="M43.7999 46.3904C43.8766 46.5145 43.5591 46.8382 43.5128 47.0314C43.4424 47.3247 43.605 47.6283 43.6534 47.947L43.5938 48.0039C43.3921 48.001 43.3345 47.9559 43.145 47.8681C41.9139 46.9304 42.9014 46.6116 43.7999 46.3904Z" fill="white"/>
<path d="M13.4361 29.6781C13.6385 29.8109 13.8099 29.9968 13.982 30.1661L14.0539 30.1504L14.2003 29.8812C14.5842 32.4985 14.6518 35.7589 14.7844 38.4175C14.8609 39.9525 15.0855 41.6063 15.1094 43.106C15.1702 46.9186 14.9816 50.7185 14.8197 54.5237C16.5515 56.2216 18.3331 57.868 20.1621 59.4599C21.8369 60.9155 23.5508 62.3118 25.2318 63.76C26.6126 64.9498 27.9763 66.2068 29.3715 67.3715L33.2176 70.5917C33.8964 71.1518 34.7007 71.7354 35.3429 72.3239C36.1506 73.064 36.9329 73.8261 37.7806 74.5304C38.1723 74.8555 38.729 75.3533 39.0313 75.7496C38.0712 75.0326 36.9871 74.42 36.0417 73.6363C35.4576 73.2238 34.9419 72.6162 34.3745 72.1998C31.7565 70.2798 29.3285 68.1243 26.7778 66.117C26.1254 65.6035 25.2716 65.2038 24.5827 64.6933L22.8998 63.452C22.6606 63.2759 22.3357 63.019 22.1149 62.8316C20.4914 61.4667 19.2045 62.8002 18.1062 64.015C17.1633 65.0572 16.5787 66.1342 16.1662 67.4755L16.1429 67.553L16.1301 67.5348C16.1498 67.322 16.2119 67.0984 16.282 66.8924C16.8494 65.2279 18.2065 62.9827 19.8206 62.1739C20.5413 61.813 21.2011 61.9959 21.9036 62.2446C21.06 61.5697 18.2827 59.072 17.7571 58.2608C17.9135 58.4021 18.0644 58.5624 18.2528 58.6458C18.1153 58.428 12.8745 53.4717 12.7559 53.41C12.7398 53.4016 12.7236 53.3938 12.7075 53.3854L12.6804 53.2256C12.8281 52.2364 12.9562 50.6694 13.0139 49.6611C12.0886 50.7116 11.3424 51.8283 10.3562 52.8773C10.3312 54.5007 10.6502 55.869 10.9719 57.4217C11.5799 60.3559 12.4498 62.7875 13.7085 65.4996C14.0717 66.2823 16.1283 69.783 16.1012 70.194L16.0224 70.2077C15.681 69.9958 15.5838 69.8154 15.3729 69.4926C13.6209 66.8115 12.4265 63.886 11.4763 60.8351C11.2322 60.0519 11.0636 59.2049 10.7998 58.4344C9.75946 59.3378 8.78586 60.1936 7.69218 61.0342C7.14827 61.4525 6.58062 62.0101 6.02729 62.4363C3.27794 64.5501 0.49793 66.6276 -2.24585 68.7487C-2.50301 68.9473 -5.3697 71.2749 -5.26876 71.2356C-5.27809 71.2989 -4.49352 69.9762 -4.50402 69.987C-0.7571 66.1146 3.61646 62.9895 7.81685 59.6482C8.71915 58.9307 9.74393 58.3064 10.6566 57.5747C10.3559 55.9602 10.1397 54.7729 10.1485 53.1319C9.96734 53.406 9.84819 53.561 9.63811 53.8146C9.73797 53.585 10.1146 52.9372 10.1454 52.7655C10.2858 51.9848 10.2692 51.1344 10.5989 50.3864C10.6837 50.1942 10.7752 50.0991 10.9719 50.027L11.0198 50.0736C10.9806 50.5365 10.9589 51.0216 10.931 51.487C11.668 50.5223 12.1908 49.9588 13.0474 49.1153C13.2466 47.5012 13.3352 45.8279 13.4857 44.2139C13.8684 40.1105 14.1444 35.9698 13.6534 31.8635C13.5666 31.1379 13.5499 30.4089 13.4361 29.6781Z" fill="black"/>
<path d="M10.7186 50.4831C10.8344 50.5895 10.8259 51.409 10.8412 51.6498C10.7294 51.821 10.59 52.0078 10.4705 52.177L10.438 52.1903C10.3517 51.9289 10.5974 50.8072 10.7186 50.4831Z" fill="white"/>
<path d="M24.1226 3.87617C24.4076 3.78558 24.9069 3.68627 25.0357 3.44238C24.9489 3.24866 24.8473 3.28819 24.8054 3.06813C24.9659 2.23435 27.6178 1.69811 27.8732 2.94253C27.967 2.95082 27.9245 2.96092 27.9885 2.92836C28.1804 2.83042 29.1019 2.58069 29.1449 2.4189C29.1937 2.23808 29.141 2.15039 29.2479 1.9808C29.6059 1.77291 30.7847 1.8525 31.1153 2.13406C31.1637 2.26839 31.1573 2.21645 31.1329 2.35877C31.4156 2.57976 32.6848 2.98025 32.7776 3.19579C32.97 3.64429 33.6679 3.47622 33.7943 3.81682C33.8476 3.96121 33.8788 3.96832 34.0195 4.11564C33.7533 4.25086 33.5599 4.01388 33.3871 3.84262C32.887 3.93948 32.177 3.90692 31.6559 3.9283C30.7027 3.96748 29.7563 3.98524 28.8074 4.10809C24.3492 4.56243 19.9043 6.4268 16.4033 9.22706C16.0332 9.52308 15.4742 9.98546 15.1507 10.32L14.9898 10.3052C15.0546 10.0606 15.2678 9.90351 15.2569 9.76506C15.092 9.83294 15.0666 9.84132 14.8892 9.84044C14.7654 10.0759 14.8169 10.3297 14.7078 10.4277C14.4819 10.3708 14.175 10.2068 14.0031 10.053C14.0232 9.90302 14.0141 9.95751 14.1065 9.81739L14.1001 9.77497C13.7166 10.0829 13.1728 10.6034 12.8567 10.9711L12.7846 10.9145C13.0161 10.6261 13.2489 10.3323 13.4995 10.0603C14.2836 9.20965 15.3038 8.63339 16.17 7.88862C15.9931 7.13537 16.6187 6.94116 17.2013 6.70566C17.4247 6.77765 17.7273 6.9237 17.9288 6.89894C18.0879 6.76863 18.064 6.83807 18.1095 6.68462C18.02 6.60885 17.9459 6.55132 17.8517 6.48129C17.8009 6.35623 17.7974 6.23362 17.8708 6.11596C18.4552 5.179 19.3924 4.8249 20.1949 5.61352C20.4162 5.51092 21.2621 5.18096 21.3862 5.08807L21.3714 5.02103C21.3339 4.8457 21.2661 4.62133 21.3988 4.48092C22.0816 3.75773 23.2779 3.05906 24.1226 3.87617Z" fill="black"/>
<path d="M43.6798 59.3981C44.088 59.5094 44.9031 60.658 45.2639 60.9954C46.3285 61.99 47.3472 63.0479 48.4044 64.0494C48.4162 63.8493 48.4308 63.6497 48.4474 63.4496C48.4967 62.864 48.8962 60.044 49.262 59.7341C49.4221 60.0886 48.9602 62.4236 48.8508 62.9258C49.4046 63.374 49.9437 63.9523 50.5111 64.4079L55.3252 68.2842C55.7412 68.6231 56.5333 69.143 56.8722 69.5015C58.0745 70.7727 59.8892 71.9948 61.0055 73.2685C61.2785 73.5451 61.5061 73.7221 61.6999 74.0586C60.2335 72.9046 58.8012 72.1253 57.2692 71.1101C55.6187 70.0164 53.9935 68.7992 52.2955 67.7551C51.9107 67.5187 50.6142 66.7678 50.3856 66.5221C50.3417 66.3975 50.3456 66.4064 50.3759 66.2769C50.7353 66.4574 51.0219 66.6315 51.4014 66.7825L51.4614 66.8056C51.0117 66.3877 50.7817 66.4736 50.2806 65.8988C49.5515 66.117 49.3626 65.8831 48.7346 65.3774C48.5612 65.2377 48.7834 65.2382 48.8332 65.066C48.589 64.5261 48.2745 64.988 48.1119 64.3088C47.9952 64.1832 48.0641 64.2269 47.8936 64.1793C47.879 64.2799 47.878 64.2877 47.8502 64.3892C47.4131 64.1886 46.8344 63.2902 46.3647 62.8914L46.3031 62.9155L46.2675 63.1872C46.1151 63.0734 45.4671 62.1377 45.1336 61.8154C44.7483 61.4432 42.8022 59.8876 42.6987 59.6404C43.0498 59.4761 43.1787 59.8307 43.6798 59.3981Z" fill="black"/>
<path d="M48.6755 63.5432C48.9182 63.6555 49.1311 63.9052 49.322 64.0999C48.988 63.9915 48.7473 63.9047 48.6755 63.5432Z" fill="#E7E7EA"/>
<path d="M12.7806 13.6767C13.093 13.6252 13.2219 13.5617 13.4744 13.7436L13.4965 13.8367C13.3167 14.0346 13.1915 13.9624 12.9442 13.9141L12.85 13.8963L12.7937 13.8847C12.8374 14.1393 13.2414 16.1401 13.2139 16.1879C13.17 16.2643 13.1851 16.2368 13.1569 16.3374C13.2502 16.4243 13.2574 16.4245 13.3708 16.486L13.4098 16.6017C13.3498 16.7238 13.3434 16.7305 13.2576 16.8369L13.2749 16.9208C13.3846 16.9223 13.4236 16.9218 13.532 16.9078C13.6085 17.0259 13.5819 16.9806 13.5985 17.1373C13.6773 17.1157 13.7486 17.0942 13.8265 17.0694C13.8743 17.1912 13.862 17.1276 13.8349 17.266C13.6946 17.3601 13.5493 17.2759 13.389 17.2223L13.3416 17.2636C13.37 17.812 13.2967 18.2754 13.7436 18.6413C13.6498 18.7442 13.652 18.7416 13.533 18.8139C13.53 19.1023 13.6389 19.8652 13.6824 20.1714C13.8429 21.3008 13.9803 22.1469 14.0066 23.2834C12.3461 21.366 10.903 18.3649 8.15692 17.7783C7.71019 17.6829 7.01924 18.0203 6.71237 18.3275C3.87005 21.1729 4.8852 26.6601 7.41739 29.3741C8.26871 30.2866 9.24103 30.8456 10.4842 30.8176C11.1269 30.8167 12.211 30.7423 12.7659 30.2922C12.8274 30.2423 12.8719 30.0535 12.8928 29.9702L12.9802 29.9204C13.1081 30.0201 13.067 29.9571 13.1055 30.1172L13.0398 30.28L12.9244 30.2833C11.774 31.1107 11.4216 31.4272 9.8452 31.4451C8.91048 31.406 7.30599 30.6841 6.68658 29.9887C3.97528 26.9446 3.28995 21.4309 6.24747 18.3164C6.7362 17.8016 7.69369 17.3843 8.40036 17.45C10.7409 17.6677 12.1675 19.7281 13.6062 21.3313C13.4923 20.323 13.2843 18.9062 13.1168 17.9119L12.6215 17.8221C12.5129 17.7227 12.5364 17.7831 12.5261 17.6477C12.7762 17.4663 12.992 17.6625 13.0865 17.382C12.9339 17.1799 12.6924 17.1715 12.4416 17.1286L12.4248 17.0544C12.5482 16.7461 12.714 16.9939 12.9808 16.8468C13.0004 16.5557 12.5831 16.5532 12.3596 16.5222L12.3471 16.4885C12.5066 16.4259 12.7053 16.392 12.8762 16.3561C12.7593 15.6081 12.6525 14.5675 12.584 13.8154L12.7806 13.6767Z" fill="black"/>
<path d="M19.426 12.829C21.0921 9.42882 22.656 9.45315 26.0951 8.70872C27.0377 8.49936 27.9611 8.21094 28.8558 7.84645C29.3553 7.63821 29.7973 7.36622 30.2641 7.10914C30.6294 6.90816 31.9655 5.86653 32.3059 6.07055C32.3523 6.25127 32.3303 6.37726 32.2951 6.55559C32.0139 7.99093 31.7814 8.23884 30.605 9.01554C31.8732 8.64379 32.1892 8.26439 32.3625 6.96112C32.3728 6.88466 32.5603 6.07084 32.5901 6.04171C32.6887 6.63386 32.3537 7.6875 32.0895 8.23203C32.302 7.99623 32.3923 7.86038 32.5691 7.59859L32.6443 7.70329C31.7194 9.50204 30.1767 9.0403 28.5481 9.40567C26.2725 9.91611 24.1034 10.1871 22.0144 11.3204C21.1161 11.8078 20.3058 12.3153 19.426 12.829Z" fill="black"/>
<path d="M17.5108 19.0985C17.5265 19.2144 17.363 19.9584 17.3687 20.245C17.4224 21.6173 17.2386 23.3378 17.3994 24.6817C18.2933 32.1518 21.1644 41.1144 28.0412 45.0854C28.2234 45.1908 29.2147 45.6798 29.2538 45.7784C26.6617 44.7318 25.2481 43.8412 23.455 41.6661C21.4688 39.2571 20.2542 36.7819 19.2149 33.8499C17.7926 29.8378 16.8953 25.6479 17.1956 21.3686C17.2446 20.6706 17.1659 19.7232 17.5108 19.0985Z" fill="black"/>
<path d="M36.194 17.1084C36.9837 17.0639 37.8832 17.1526 38.6948 17.1293C40.1017 17.0905 41.3309 16.2559 42.4233 15.4433C42.9912 15.021 43.7091 14.1559 44.4772 14.2864C44.9768 14.3711 45.1458 14.9381 44.9744 15.3722C44.7951 15.8252 44.3639 16.0111 43.9518 16.1989C43.6392 16.2557 42.5883 16.4622 42.3129 16.3739C42.1352 16.4531 41.6258 16.893 41.3729 17.0339C40.131 17.7263 38.9263 17.5923 37.5892 17.3565C37.1033 17.2708 36.6716 17.2249 36.194 17.1084Z" fill="black"/>
<path d="M42.3574 16.327C42.7109 15.9835 43.7223 14.7322 43.9825 14.5817C44.7873 14.1153 45.5296 15.4849 43.9567 16.0899L43.9518 16.1989C43.6392 16.2557 42.5883 16.4622 42.3129 16.3739L42.3574 16.327Z" fill="white"/>
<path d="M42.3574 16.327C42.8296 16.3115 43.483 16.1823 43.9567 16.0899L43.9518 16.1989C43.6392 16.2557 42.5883 16.4622 42.3129 16.3739L42.3574 16.327Z" fill="#7A7A7A"/>
<path d="M27.2887 9.90714C28.3938 9.83117 29.4809 10.7188 30.0761 11.5825C29.309 11.6666 28.4964 11.8435 27.7424 12.0027C27.8225 12.1384 27.9196 12.2649 27.9563 12.4212C28.0061 12.6385 27.9685 12.8668 27.8508 13.0561C27.3499 13.8611 26.1225 13.6084 25.962 12.4871C24.9945 12.7434 23.9005 13.1216 22.9366 13.308L22.1151 13.4394C22.4841 13.2277 23.2176 12.9664 23.6332 12.7998C25.5489 12.0321 27.2735 11.5846 29.3016 11.2042C28.8875 10.8369 28.283 10.3697 27.7536 10.2053C27.2049 10.035 26.9343 10.172 26.4721 10.4178L26.433 10.3852C26.5537 10.0851 27.008 9.9631 27.2887 9.90714Z" fill="black"/>
<path d="M43.4981 37.8702C44.2736 37.9192 44.9455 37.853 45.7269 38.1237C47.3281 38.6784 48.4577 39.4239 49.2634 40.9001C49.0837 40.7941 48.9768 40.5612 48.8 40.3939C48.5334 40.5195 48.5231 40.3326 48.3693 40.0967C48.1227 39.7191 47.7784 39.5504 47.4082 39.2924C44.444 37.2287 40.717 38.3474 37.7728 39.9055C36.0387 40.7667 34.0239 42.3983 32.3156 43.2051L32.3318 43.1688C36.2609 40.5842 38.582 38.236 43.4981 37.8702Z" fill="black"/>
<path d="M9.65002 19.1984C9.81654 19.2272 9.8538 19.2284 9.9418 19.3459C9.90801 19.4248 9.92168 19.4194 9.86362 19.4677C8.61611 20.5052 7.71141 21.599 7.27249 23.2C6.97778 24.2749 6.87899 25.275 7.25418 26.3667C7.28954 26.4696 7.56198 26.9359 7.62937 27.0552L7.62639 27.1547C6.15532 25.964 6.27555 23.4678 7.05382 21.9476C7.73788 20.6113 8.20786 19.7617 9.65002 19.1984Z" fill="black"/>
<path d="M14.1133 28.8208C13.0619 28.9837 12.5008 29.1002 11.4266 28.8883C8.33111 28.2776 7.51964 24.9201 10.3318 23.1905L10.3834 23.2955C9.78436 23.7519 9.32454 24.3345 9.09673 25.0632C8.89973 25.6869 8.96629 26.3646 9.28083 26.9377C9.82899 27.9262 11.1682 28.4213 12.2262 28.5611C12.8649 28.6455 13.4895 28.6364 14.1133 28.8208Z" fill="black"/>
<path d="M34.689 15.0985C35.3331 15.0325 35.5157 15.0914 36.11 15.2674C36.6687 15.433 38.3632 16.4691 38.5766 16.9305L38.562 16.933C37.9159 16.3461 36.8933 15.7328 36.0509 15.4829C35.064 15.1903 34.5039 15.5612 33.6923 16.028C33.5658 16.094 33.5316 16.098 33.4447 16.2119C33.4598 16.3415 33.4378 16.3438 33.5355 16.4454C33.7445 16.6628 34.1962 16.7647 34.4809 16.7839C34.9649 16.8163 35.5704 16.6157 35.9333 16.2926C36.0392 16.1987 35.986 16.2249 36.1169 16.1678C36.0661 17.1995 32.9681 17.3869 32.5364 16.2514C32.5422 16.1856 32.5369 16.0846 32.5789 16.0538C33.161 15.6287 34.0263 15.2544 34.689 15.0985Z" fill="black"/>
<path d="M17.6241 8.95276C17.639 8.97856 17.6538 9.00435 17.6687 9.03015C17.5373 9.43431 17.3924 9.84132 17.3143 10.26C17.0437 11.7117 16.9298 13.188 16.8859 14.6627C16.876 14.9967 16.8671 15.3291 16.8183 15.6598L16.7864 15.6758C16.673 15.0281 16.8523 13.3858 16.6535 12.9807L16.573 12.9444C16.272 12.6878 16.0517 12.5049 16.1283 12.043C16.1488 11.9192 16.1904 11.8633 16.2906 11.7943L16.3625 11.8338C16.3806 12.0395 16.3662 11.9876 16.2545 12.2045L16.7359 12.7045C16.8048 11.8579 16.806 11.2682 16.739 10.4241C16.7272 10.2747 16.9083 10.3086 16.8657 10.0686C16.6128 10.0507 16.3876 10.4256 16.1489 10.3063L16.1265 10.2081C16.2121 9.94436 16.3253 9.94721 16.3254 9.69959L16.3969 9.66192C16.5221 9.7915 16.5904 9.8862 16.7578 9.95167C17.0617 9.86045 17.0594 9.48365 17.2335 9.25133C17.2955 9.1685 17.5257 9.01853 17.6241 8.95276Z" fill="black"/>
<path d="M30.7056 12.269C31.3214 13.4771 29.5805 15.2227 28.4993 15.5703C27.0286 16.0433 25.3289 15.3655 24.0035 14.7445L23.8086 14.6403C24.0287 14.6371 24.8771 14.9416 25.1298 15.0095C26.6937 15.43 28.2859 15.8103 29.5981 14.5704C30.3838 13.8283 30.6245 13.3768 30.7056 12.269Z" fill="black"/>
<path d="M15.5591 10.6495L15.5836 10.5561C15.6183 10.4196 15.6194 10.3659 15.628 10.2263C15.7535 10.1593 15.6885 10.1707 15.8298 10.1916C15.9372 10.3092 15.9403 10.3818 15.9787 10.5362C16.1706 10.5886 16.3879 10.6229 16.5293 10.7537C16.5853 10.9862 16.4535 11.084 16.3116 11.2641L16.11 11.2739L16.0868 11.5381C15.9347 11.6298 15.9334 11.6445 15.7515 11.6554C15.6324 11.5661 15.6736 11.6243 15.6384 11.4652L15.6165 11.3319C15.4803 11.2509 15.4142 11.2753 15.2386 11.2706C15.0554 11.049 15.2401 10.7013 15.451 10.5536L15.5591 10.6495Z" fill="white"/>
<path d="M15.5591 10.6495L15.5836 10.5561C15.6183 10.4196 15.6194 10.3659 15.628 10.2263C15.7535 10.1593 15.6885 10.1707 15.8298 10.1916C15.9372 10.3092 15.9403 10.3818 15.9787 10.5362C16.1706 10.5886 16.3879 10.6229 16.5293 10.7537C16.5853 10.9862 16.4535 11.084 16.3116 11.2641L16.11 11.2739C15.9955 10.6332 15.8451 11.0965 15.5591 10.6495Z" fill="black"/>
<path d="M15.6384 11.4652C15.7188 11.257 15.6537 11.3337 15.828 11.2166C16.061 11.2786 16.0352 11.2999 16.0868 11.5381C15.9347 11.6298 15.9334 11.6445 15.7515 11.6554C15.6324 11.5661 15.6736 11.6243 15.6384 11.4652Z" fill="black"/>
<path d="M18.7494 56.4016C19.6194 57.1755 20.4172 57.9793 21.3256 58.737C21.5176 58.8974 22.7772 59.9626 22.8796 60.0769L22.8083 60.1651C21.5314 59.1583 19.8722 57.5845 18.7122 56.4673L18.7494 56.4016Z" fill="#202120"/>
<path d="M34.8677 43.313C35.1314 43.4513 35.2423 43.8446 35.2769 44.1256C35.3048 44.3527 35.2188 44.4032 35.085 44.569C34.7002 44.3022 34.5337 43.6926 34.8677 43.313Z" fill="black"/>
<path d="M15.5151 12.6594L15.6823 12.7034C15.9267 13.0601 15.623 13.7176 15.2943 13.9271C15.0047 13.8473 15.327 13.5142 14.7192 13.4876C14.64 13.4983 14.68 13.5055 14.6032 13.4508C14.6083 13.2689 14.5783 13.2435 14.6618 13.1135C14.9439 13.1751 15.1143 13.6758 15.4297 13.5983L15.5014 13.4685C15.3147 13.0164 15.5979 13.1965 15.5151 12.6594Z" fill="black"/>
<path d="M13.7813 10.3294C13.933 10.4053 14.5467 10.7192 14.623 10.8104C14.6581 11.0476 14.4352 11.1418 14.2321 11.2041L14.0836 11.0731L14.0395 11.0746C13.9322 11.1941 13.9372 11.1842 13.7857 11.2423C13.7741 11.0328 14.0119 10.8142 14.1623 10.6318C13.9709 10.6298 13.6753 10.6505 13.5242 10.5559C13.5694 10.411 13.6075 10.4331 13.7813 10.3294Z" fill="black"/>
<path d="M12.584 13.8154C12.4893 13.1064 12.3495 11.465 12.7846 10.9145L12.8567 10.9711C12.768 11.1065 12.6766 11.2419 12.5937 11.3806C12.5901 11.8989 12.5612 12.4496 12.6509 12.9569C12.8041 13.1013 12.8402 12.9066 13.0044 13.0683L13.0062 13.217C12.9065 13.2674 12.9485 13.2557 12.8312 13.2485L12.7566 13.3228C12.7598 13.4443 12.7701 13.5561 12.7806 13.6767L12.584 13.8154Z" fill="#484849"/>
<path d="M42.4482 40.082C42.5454 40.1654 42.6225 40.2694 42.6733 40.3871C42.8091 40.695 42.8457 41.1399 42.7236 41.4587C42.3285 41.1654 42.247 40.4925 42.4482 40.082Z" fill="black"/>
<path d="M37.5809 45.6303C37.7133 45.6381 37.7045 45.6337 37.8134 45.7092C37.9887 46.029 38.2001 46.4458 38.1264 46.8078C37.5589 46.6499 37.6 46.1241 37.5809 45.6303Z" fill="black"/>
<path d="M43.8214 41.3076C44.2594 41.3807 44.5095 41.9098 44.4123 42.312C43.9166 42.3086 43.8766 41.7181 43.8214 41.3076Z" fill="black"/>
<path d="M46.1991 41.7053C46.5859 41.8304 46.8784 42.3355 46.727 42.7392C46.4081 42.5857 45.9828 42.0648 46.1991 41.7053Z" fill="black"/>
<path d="M15.6982 13.7323C16.0346 13.8109 16.3191 14.2498 16.2794 14.5679L16.1461 14.6504C16.1099 14.7674 16.1131 14.7621 16.0409 14.8606L15.9516 14.8681C15.8734 14.784 15.7598 13.9693 15.6982 13.7323Z" fill="black"/>
<path d="M45.1257 40.3326C45.5931 40.441 45.8109 40.9736 45.6453 41.4032C45.553 41.4155 45.5726 41.4091 45.4773 41.3915C45.2122 41.1222 45.2488 40.7735 45.1458 40.4023L45.1257 40.3326Z" fill="black"/>
<path d="M46.0902 42.9628C46.6069 43.028 46.601 43.6435 46.6474 44.053C46.1459 43.9451 46.1083 43.4214 46.0902 42.9628Z" fill="black"/>
<path d="M14.0326 12.8696C14.5966 13.0613 14.1493 13.3551 13.9979 13.6657C13.9979 13.6657 14.0167 13.8774 14.0186 13.8999C13.8439 13.8792 13.907 13.9205 13.8021 13.8127C13.8993 13.5326 13.893 13.5058 13.7216 13.2645C13.7553 13.1261 13.925 12.9807 14.0326 12.8696Z" fill="#E7E7EA"/>
<path d="M23.8458 43.6018C23.9175 43.6136 24.0015 43.6357 24.0735 43.6523C24.2888 43.8495 24.476 44.1992 24.3567 44.488C23.9047 44.5258 23.8177 43.9466 23.8458 43.6018Z" fill="black"/>
<path d="M44.1012 42.7912C44.4616 42.9138 44.6608 43.4611 44.6428 43.8186C44.13 43.8554 44.1437 43.1634 44.1012 42.7912Z" fill="black"/>
<path d="M35.8131 7.82011C35.881 8.0305 35.9054 8.27184 35.9699 8.49921C36.1213 9.0328 36.2839 9.39925 36.3347 9.94946C35.9147 9.57477 35.8019 8.36905 35.8131 7.82011Z" fill="black"/>
<path d="M39.9865 39.9903C40.3513 40.083 40.5861 40.6769 40.4899 41.0256C40.1393 41.0099 39.9684 40.2542 39.9865 39.9903Z" fill="black"/>
<path d="M38.6582 44.3257L38.7017 44.3247C38.7217 44.4812 38.689 44.4459 38.7656 44.5464C38.8247 44.4106 38.7935 44.4336 38.8911 44.3414C39.1089 44.5111 39.1465 44.7617 39.2105 45.0207C39.1719 45.1271 39.1783 45.1084 39.1192 45.205L39.0259 45.2114C38.7783 45.0251 38.6533 44.6278 38.6582 44.3257Z" fill="black"/>
<path d="M23.3166 42.3213C23.6494 42.3964 24.003 42.9471 24.0401 43.2683C23.61 43.2781 23.3591 42.6818 23.3166 42.3213Z" fill="black"/>
<path d="M37.0506 44.4817C37.4329 44.5748 37.6615 45.0084 37.4896 45.3738C37.1536 45.2453 36.9466 44.8245 37.0506 44.4817Z" fill="black"/>
<path d="M33.1155 42.8696C33.5116 43.0369 33.474 43.3978 33.494 43.7686C32.9554 43.6671 32.9822 43.3311 33.1155 42.8696Z" fill="black"/>
<path d="M48.7634 40.904C49.1013 41.1786 49.178 41.4474 48.8601 41.7853C48.424 41.7039 48.5924 41.1531 48.7634 40.904Z" fill="black"/>
<path d="M37.2703 8.37641C37.3768 8.08161 37.5101 7.87224 37.682 7.61609L37.7494 7.67926C37.3519 8.287 37.345 8.56061 37.1746 9.24918C37.116 9.18591 37.0657 9.12686 37.01 9.06085C37.0633 8.7765 37.1097 8.5636 37.115 8.27101L37.2703 8.37641Z" fill="#202120"/>
<path d="M37.115 8.27101L37.2703 8.37641C37.1912 8.69872 37.1531 8.90509 37.1746 9.24918C37.116 9.18591 37.0657 9.12686 37.01 9.06085C37.0633 8.7765 37.1097 8.5636 37.115 8.27101Z" fill="#E7E7EA"/>
<path d="M42.2348 41.7838C42.5844 41.9187 42.5795 42.4277 42.5883 42.7504C42.0766 42.6617 42.1352 42.1938 42.2348 41.7838Z" fill="black"/>
<path d="M43.9142 44.3188C44.2653 44.5346 44.3293 44.877 44.321 45.2629C44.1144 45.2963 44.1994 45.3208 44.048 45.2291C43.8731 44.9682 43.9132 44.6376 43.9142 44.3188Z" fill="black"/>
<path d="M38.1894 43.0158C38.2602 43.0369 38.2953 43.0604 38.3613 43.0937C38.5923 43.4052 38.54 43.6622 38.5381 44.0609C38.1391 43.9623 38.1962 43.3512 38.1894 43.0158Z" fill="black"/>
<path d="M41.8138 43.0535C41.8783 43.0785 41.9008 43.0977 41.9598 43.1345C42.0521 43.3674 42.1923 43.775 42.1122 44.0202C41.6151 43.8932 41.7367 43.4346 41.8138 43.0535Z" fill="black"/>
<path d="M42.7212 44.2914C42.8608 44.4522 42.9526 44.7622 42.874 44.9741C42.7309 45.0246 42.8066 45.0148 42.6386 44.9593C42.5332 44.7985 42.4413 44.6666 42.3574 44.4925L42.4081 44.413C42.5742 44.3988 42.5908 44.3816 42.7212 44.2914Z" fill="black"/>
<path d="M46.9082 39.9153C47.249 40.0467 47.3262 40.5484 47.2271 40.8667C46.8296 40.8103 46.8652 40.2223 46.9082 39.9153Z" fill="black"/>
<path d="M43.8146 39.1934C44.193 39.2473 44.3376 39.4861 44.278 39.8422C44.0529 39.9089 44.0153 39.8883 43.8609 39.7333C43.776 39.5121 43.7989 39.4386 43.8146 39.1934Z" fill="black"/>
<path d="M14.6311 12.0655C15.0265 12.1865 15.2309 12.3018 15.2375 12.7152C14.8056 12.8077 14.6626 12.4156 14.6311 12.0655Z" fill="black"/>
<path d="M14.7925 11.1952C15.2433 11.5436 15.0771 11.6817 15.3057 11.9187L15.2013 12.0412C14.991 11.8244 14.8456 11.7573 14.6716 11.5209C14.6495 11.3361 14.6561 11.3954 14.7925 11.1952Z" fill="black"/>
<path d="M39.2339 40.2316C39.5225 40.4577 39.6564 40.7461 39.5269 41.0879L39.3878 41.1458L39.313 41.1065C39.1851 40.8221 39.2251 40.5489 39.2339 40.2316Z" fill="black"/>
<path d="M14.9255 15.8066C15.1334 15.8702 15.1978 15.8488 15.3093 15.9861C15.224 16.1484 15.2133 16.1166 15.0347 16.2318C14.8576 16.264 14.6973 16.3226 14.5963 16.1455C14.6555 15.9699 14.7715 15.9172 14.9255 15.8066Z" fill="black"/>
<path d="M40.2814 45.2767C40.6394 45.4571 40.6579 45.7097 40.613 46.0712C40.1716 45.9961 40.2023 45.6455 40.2814 45.2767Z" fill="black"/>
<path d="M36.2521 42.7102C36.592 42.7931 36.7957 43.134 36.7947 43.4724C36.3733 43.4984 36.3156 43.0295 36.2521 42.7102Z" fill="black"/>
<path d="M13.6312 14.673C13.8182 14.6954 13.971 14.7431 14.0679 14.9153C14.0409 15.0747 14.0746 15.0008 13.9279 15.1251C13.7153 15.1087 13.5549 15.1185 13.4202 14.9625C13.4693 14.783 13.4742 14.8239 13.6312 14.673Z" fill="black"/>
<path d="M25.4904 44.5827L25.6484 44.642C25.8117 44.8407 25.9093 45.0726 25.9686 45.3223L25.7868 45.3453C25.4527 45.2399 25.494 44.8725 25.4904 44.5827Z" fill="black"/>
<path d="M14.0886 11.7673C14.4685 11.8039 14.5098 12.3187 14.4019 12.5987C14.3157 12.5769 14.3283 12.5746 14.249 12.5276C14.1021 12.2615 14.0346 12.066 14.0886 11.7673Z" fill="black"/>
<path d="M31.0928 16.4021C31.2774 16.4433 31.7506 16.6699 31.9509 16.7627C32.5286 17.0307 32.9988 17.1817 33.6307 17.2789C32.8015 17.3334 31.7682 16.8531 31.0928 16.4021Z" fill="#484849"/>
<path d="M40.6872 42.4792C40.9714 42.5812 41.1262 42.8892 41.055 43.1815L40.9143 43.2605L40.8298 43.2325C40.676 43.0148 40.6921 42.7475 40.6872 42.4792Z" fill="black"/>
<path d="M29.4511 45.8666L29.5287 45.9186C29.6186 46.2403 29.7055 46.4586 29.558 46.7558C29.1786 46.3909 29.3007 46.3036 29.4511 45.8666Z" fill="black"/>
<path d="M40.0768 41.3414C40.4763 41.3988 40.4465 41.8422 40.4147 42.1502C40.0836 42.029 40.0553 41.6504 40.0768 41.3414Z" fill="black"/>
<path d="M36.4802 46.4022C36.7278 46.6229 36.803 46.9181 36.6213 47.204C36.2766 46.9358 36.2976 46.7543 36.4802 46.4022Z" fill="black"/>
<path d="M19.4533 36.5033C19.7717 36.6868 19.8995 37.1453 19.8515 37.4891C19.7482 37.4572 19.775 37.4651 19.6816 37.4048C19.5553 37.1316 19.4991 36.8015 19.4533 36.5033Z" fill="black"/>
<path d="M37.115 8.27101C37.1097 8.5636 37.0633 8.7765 37.01 9.06085L36.9212 9.8913C36.7937 9.3375 36.7747 8.76066 37.115 8.27101Z" fill="black"/>
<path d="M31.527 45.722C31.8605 45.949 31.9157 46.1992 31.7785 46.5699L31.6788 46.5567C31.4879 46.3654 31.5328 46.0123 31.527 45.722Z" fill="black"/>
<path d="M15.2642 14.186C15.3446 14.2495 15.323 14.2372 15.381 14.3295C15.4089 14.7312 15.0033 14.7739 14.8611 15.2879L14.7755 15.0906C14.9823 14.6913 15.0467 14.7135 15.2642 14.186Z" fill="black"/>
<path d="M39.5694 43.1291L39.6178 43.184C39.6881 43.6901 40.007 43.8441 39.9318 44.3473C39.6759 44.1747 39.4771 43.4473 39.5694 43.1291Z" fill="black"/>
<path d="M20.3945 37.9781C20.6713 38.0963 20.8877 38.445 20.799 38.7539C20.6897 38.7667 20.7445 38.7716 20.6348 38.7363C20.4708 38.4837 20.4227 38.2777 20.3945 37.9781Z" fill="black"/>
<path d="M30.4692 44.6852C30.8174 44.8985 30.8013 45.0555 30.6509 45.4101C30.3271 45.3414 30.3828 44.9211 30.4692 44.6852Z" fill="black"/>
<path d="M37.6727 12.6639L37.7162 12.7509C37.6278 12.8592 36.3884 13.6916 36.1804 13.8394C36.4944 13.4389 37.2332 12.945 37.6727 12.6639Z" fill="#202120"/>
<path d="M10.9824 22.9122C11.6904 22.7897 12.1183 22.978 12.6306 23.4783L12.6283 23.5278C11.8952 23.0798 11.869 22.8618 10.8986 23.0337L10.9824 22.9122Z" fill="#484849"/>
<path d="M18.3375 32.9122C18.545 33.0227 18.7077 33.4705 18.7623 33.6961C18.6174 33.7033 18.6243 33.7114 18.502 33.6365C18.3297 33.3942 18.3066 33.2089 18.3375 32.9122Z" fill="black"/>
<path d="M34.4961 45.3257C34.6397 45.3998 34.6421 45.4302 34.6704 45.5685C34.6143 45.7416 34.5039 45.825 34.3745 45.9559L34.2827 45.9726L34.2241 45.9167C34.2143 45.6896 34.3613 45.4929 34.4961 45.3257Z" fill="black"/>
<path d="M22.5159 41.081C22.8053 41.3203 22.9598 41.4444 22.8518 41.8181C22.5625 41.7936 22.4432 41.2924 22.5159 41.081Z" fill="black"/>
<path d="M14.0757 15.5919L14.1061 15.6185C14.1526 15.7967 14.1646 15.7164 14.082 15.8693C13.895 16.0056 13.8817 15.9992 13.6401 15.9951C13.5512 15.863 13.572 15.9346 13.5802 15.7717C13.713 15.6472 13.8933 15.6314 14.0757 15.5919Z" fill="black"/>
<path d="M21.7688 41.3007C22.0895 41.3924 22.2327 41.7151 22.2397 42.028C21.8817 41.9275 21.8305 41.6269 21.7688 41.3007Z" fill="black"/>
<path d="M15.7545 11.7213C15.9387 11.8049 15.9668 11.8264 16.0636 11.9989C16.0674 12.2184 16.098 12.1229 15.975 12.2977C15.7821 12.239 15.7532 12.2001 15.6564 12.0303C15.6502 11.8073 15.6211 11.9075 15.7545 11.7213Z" fill="black"/>
<path d="M38.7261 45.9078C38.9536 46.0275 39.1187 46.2683 39.1485 46.5253C39.0274 46.5704 39.0337 46.5778 38.9092 46.5547C38.7446 46.3786 38.7573 46.1658 38.7261 45.9078Z" fill="black"/>
<path d="M35.5563 45.133C35.7746 45.3174 35.8532 45.6685 35.7384 45.9314C35.4591 45.8426 35.4947 45.3586 35.5563 45.133Z" fill="black"/>
<path d="M32.3962 44.185C32.572 44.2399 32.5715 44.2301 32.7029 44.3723C32.76 44.592 32.7512 44.5067 32.6902 44.7396C32.511 44.7391 32.5906 44.7651 32.4446 44.6572C32.364 44.4719 32.386 44.3954 32.3962 44.185Z" fill="black"/>
<path d="M38.7568 41.5739C39.0157 41.6597 39.2071 41.8186 39.1836 42.1016C38.8799 42.0889 38.7666 41.851 38.7568 41.5739Z" fill="black"/>
<path d="M14.7318 14.3875C14.8142 14.6772 14.6426 14.9867 14.4024 15.1465L14.3711 14.9908C14.4365 14.7892 14.6082 14.5686 14.7318 14.3875Z" fill="black"/>
<path d="M21.3497 41.5984C21.5038 41.9226 21.4882 42.0496 21.2433 42.2654C21.0387 42.0604 21.2278 41.8167 21.3497 41.5984Z" fill="black"/>
<path d="M41.1145 39.4935C41.4388 39.6092 41.4188 39.8893 41.4158 40.1757C41.1487 40.0207 41.1575 39.775 41.1145 39.4935Z" fill="black"/>
<path d="M43.3638 42.8721C43.6197 43.0599 43.6007 43.285 43.5845 43.5714C43.504 43.5807 43.5504 43.5812 43.4463 43.5557C43.3604 43.3576 43.3726 43.0962 43.3638 42.8721Z" fill="black"/>
<path d="M16.4545 27.2703C16.5729 27.3109 16.531 27.2898 16.6276 27.3744C16.7079 27.5965 16.6699 27.7784 16.6515 28.0178L16.556 27.966C16.4838 27.811 16.471 27.4569 16.4545 27.2703Z" fill="black"/>
<path d="M17.4336 30.5609C17.7115 30.7324 17.7095 30.9365 17.7224 31.2346C17.6805 31.2284 17.6178 31.2069 17.575 31.1942C17.4716 31.0162 17.4618 30.7732 17.4336 30.5609Z" fill="black"/>
<path d="M19.2057 35.2234C19.4434 35.392 19.4077 35.6318 19.3819 35.8883C19.289 35.8756 19.3166 35.8776 19.2288 35.829C19.1559 35.6368 19.1921 35.4353 19.2057 35.2234Z" fill="black"/>
<path d="M13.0398 30.28C13.0931 30.6744 13.1051 30.7791 13.0755 31.1728L13.0449 31.1597C12.9948 30.9085 12.97 30.4452 12.9244 30.2833L13.0398 30.28Z" fill="#202120"/>
<path d="M37.0149 41.4533C37.2039 41.7176 37.265 41.8358 37.1414 42.1403L37.0252 42.1639C36.9866 42.0624 37.0223 41.6367 37.0149 41.4533Z" fill="black"/>
<path d="M10.3318 23.1905C10.516 23.0499 10.7644 22.9759 10.9824 22.9122L10.8986 23.0337C10.6792 23.1267 10.5822 23.1672 10.3834 23.2955L10.3318 23.1905Z" fill="#202120"/>
<path d="M32.5691 7.59859C32.6121 7.48191 32.7674 7.02752 32.8191 6.96161L32.8455 6.98432L32.7976 6.99839L32.7771 7.03974L32.826 7.08809C32.7678 7.34434 32.7415 7.46136 32.6443 7.70329L32.5691 7.59859Z" fill="#484849"/>
<path d="M42.8799 45.9427C43.0068 45.747 43.0142 45.7082 43.2129 45.6101L43.2471 45.6577C43.1558 45.8039 43.1065 45.8505 42.9917 45.9731L42.8799 45.9427Z" fill="#202120"/>
<path d="M18.7122 56.4673C18.6007 56.3756 18.3938 56.2417 18.4169 56.0921C18.5642 56.1358 18.6459 56.2751 18.7494 56.4016L18.7122 56.4673Z" fill="#E7E7EA"/>
</g>
</svg>
