<svg width="176" height="212" viewBox="0 0 176 212" fill="none" xmlns="http://www.w3.org/2000/svg">
<g clip-path="url(#clip0_2473_2656)">
<path d="M55.1197 112.854C55.9315 119.187 55.8815 126.06 56.1546 132.453C56.1857 133.182 55.7752 134.024 56.3644 134.568C56.585 134.789 56.6063 135.016 56.6175 135.325C55.8091 137.651 54.8349 138.03 52.7258 138.842C53.3738 141.161 54.6825 142.816 55.9487 144.809C61.7824 153.988 72.5705 163.555 83.5717 165.449C84.9881 166.839 85.2462 168.164 86.1312 169.868C90.3904 178.068 95.0586 186.162 98.4663 194.766C98.8602 195.758 99.1854 196.63 99.8073 197.505C99.115 194.408 97.8595 188.752 96.951 185.847C96.7482 186.38 96.7365 186.563 96.2219 186.879C95.538 186.837 95.5313 186.649 95.3821 185.954C96.0694 184.943 97.3315 186.275 95.9939 182.795C95.605 182.917 94.7904 183.212 94.4368 183.207L94.5122 182.972L94.7117 182.922C95.248 182.781 95.5011 182.781 95.8313 182.35C96.0576 181.173 93.0505 174.568 92.7572 172.454C93.1545 172.659 96.004 180.289 96.3593 181.423C97.7405 185.835 99.2675 190.436 100.359 194.922C100.515 192.846 100.171 189.825 100.003 187.68C99.9062 186.434 98.3121 184.078 98.8937 183.112L98.8602 183.051C97.7841 179.12 95.7341 173.865 94.8592 170.148C96.3845 172.862 97.2963 175.582 98.1981 178.531C98.4747 179.437 98.9558 181.785 99.3916 182.278C99.9212 182.288 99.6849 182.355 100.127 182.083C100.674 179.499 100.158 172.741 100.6 169.769C100.93 168.36 101.908 166.982 102.456 165.668C107.08 154.59 105.971 141.58 105.912 129.811C108.637 132.088 111.888 135.552 114.09 138.357C114.928 139.422 116.609 142.637 117.486 143.385C119.601 145.193 121.737 146.957 123.829 148.836C127.764 152.432 131.628 156.108 135.416 159.86C162.902 186.609 189.393 222.908 189.99 262.804C187.745 257.535 186.892 250.651 185.368 245.105C180.942 228.98 173.798 214.046 164.989 199.869C157.009 187.209 147.852 175.333 137.641 164.395C131.293 157.521 123.822 150.382 117.191 143.603C120.113 152.504 121.177 161.908 120.319 171.237C120.091 173.67 119.402 176.143 119.132 178.712C118.688 179.229 118.941 179.13 118.41 179.266C117.627 178.29 114.821 170.898 114.216 169.295C112.219 168.204 111.921 167.55 110.573 165.729C107.459 167.616 105.406 167.914 102.226 169.199C102.281 173.053 103.29 206.14 102.779 207.146C102.546 207.607 101.879 208.077 101.356 208.079C101.054 208.08 100.954 208.011 100.719 207.825C99.2105 206.626 97.8092 200.492 97.0315 198.389C96.3593 196.566 95.4911 194.775 94.7351 192.98C93.6473 190.399 92.6181 187.757 91.4062 185.232C89.7334 181.74 82.5106 168.766 82.1637 165.756C77.6009 166.38 75.713 165.719 71.333 164.327C69.4979 169.39 69.0436 174.761 67.6908 179.665C66.4834 179.932 63.9467 176.686 63.1778 175.779C55.7198 166.977 50.476 156.409 46.7862 145.532C46.4697 144.599 46.0129 143.766 45.6492 142.853C45.5989 142.728 45.4689 141.777 45.4068 141.5L45.118 141.394C42.3573 142.723 39.3881 144.685 36.6023 146.162C27.0666 151.219 17.4632 157.239 7.82513 161.997C6.14676 166.821 4.99573 174.522 4.49472 179.601C1.72448 207.616 5.56765 235.598 10.0275 263.22C10.7399 267.633 12.141 272.437 12.8943 276.888C13.2082 278.745 14.2067 280.566 14.2874 282.492C13.8636 282.881 13.4744 282.968 12.9338 283.164C11.941 282.996 11.4742 281.946 11.1926 281.049C9.9715 277.158 8.73245 273.032 7.75406 269.091C5.71414 260.596 4.08656 252.005 2.87719 243.352C-0.197113 222.357 -1.48929 200.959 1.91807 179.91C2.52787 176.143 6.09095 160.768 8.90242 158.768C8.99662 159.334 9.01003 159.379 9.36605 159.827L10.1121 160.087C17.1836 155.263 24.4669 150.758 31.9403 146.583C36.2967 144.106 40.8399 141.564 45.4258 139.517C45.4647 137.347 45.5689 135.169 45.9647 133.028C47.0689 127.056 51.1198 117.43 55.1197 112.854Z" fill="black"/>
<path d="M98.8601 183.051C99.5541 182.676 99.4686 182.56 100.037 182.697C100.597 183.617 100.276 185.334 100.295 186.565C99.7401 185.262 99.8625 183.667 98.8936 183.112L98.8601 183.051Z" fill="white"/>
<path d="M9.36586 159.827L10.1119 160.087C9.59031 160.429 8.98452 160.919 8.40942 160.944C8.56816 160.434 8.95201 160.192 9.36586 159.827Z" fill="white"/>
<path d="M130.637 84.1345C130.03 83.9276 129.293 83.7468 128.829 83.3344C129.332 83.1349 129.581 83.2237 130.16 83.2515L130.287 83.0368C127.277 72.2344 123.44 61.68 118.81 51.4673C117.4 48.328 116.036 45.1814 114.407 42.1492C112.068 37.7478 109.645 33.3921 107.137 29.0845C106.111 27.329 103.049 22.3941 102.462 20.896C102.886 21.2229 104.665 23.9515 105.077 24.5533C111.492 33.7877 117.278 43.4441 122.394 53.4571C122.761 50.6055 124.04 46.7174 127.231 50.2052C130.067 53.3033 130.488 60.9507 127.189 63.7562C127.902 65.9691 129.523 69.4809 130.413 71.9806C134.363 83.0947 137.307 94.335 137.786 106.172C135.976 107.807 131.963 109.852 129.764 110.986C121.294 115.35 112.848 118.78 103.289 119.812C103.146 125.347 103.563 130.973 103.362 136.694C102.595 137.786 103 138.587 102.823 139.868C101.966 146.008 102.854 152.59 102.326 158.651C100.305 155.127 100.685 138.726 100.382 133.535C100.298 132.097 100.585 129.888 100.412 128.18C99.6026 127.272 96.7698 127.658 95.5479 127.541C92.9398 127.292 89.5052 126.828 87.1368 125.698C88.0319 125.668 89.5622 126.135 90.454 126.22C92.7084 126.435 98.1275 127.193 100.084 126.749C100.364 126.202 100.32 125.394 100.343 124.755C84.8337 125.754 70.4872 121.379 61.5368 107.844C60.778 106.696 60.0029 105.47 59.1935 104.364C59.67 107.039 59.8006 109.886 60.0182 112.603C60.7728 122.087 60.6342 131.604 60.3176 141.102C60.277 142.32 60.3791 144.74 59.333 145.458L58.906 145.378C57.3975 144.061 57.8651 137.455 57.8502 135.232C57.7857 131.022 57.6915 126.812 57.5674 122.603C57.1802 111.19 56.0517 98.3521 54.7395 86.9929C51.7252 88.3081 47.6653 87.9017 44.6928 86.6376C40.4094 84.8162 36.7776 80.3063 35.7392 75.772C35.0498 72.7612 35.6415 67.6873 39.4968 67.2324C43.7273 66.816 48.2076 70.4968 51.3173 72.9187C49.6097 68.779 45.1179 47.5228 42.4048 45.9351C42.3607 45.9093 42.3148 45.887 42.2697 45.8628L42.3061 45.5893C42.5717 45.549 42.731 45.5165 42.9918 45.4514C43.1017 44.118 41.6233 43.7192 40.6916 43.0436C41.293 40.7794 40.4649 40.8022 38.9331 39.3539L38.9269 39.081C40.3692 37.5791 49.1526 39.3636 50.6 41.0442C50.9986 41.507 51.7722 45.2978 51.5829 46.0856C50.1149 47.3089 43.7464 44.9816 43.4767 45.0566C44.2808 47.7536 52.0063 45.2334 52.5989 49.4404L52.8092 50.8767L52.7605 51.4884C53.2931 52.3899 54.1842 55.0528 53.2719 55.8586C51.3057 56.3342 47.754 54.0279 47.3071 54.7596C48.5113 55.7718 52.3131 56.349 54.0035 56.3937C54.2224 57.6138 54.3924 58.708 54.7627 59.8936L54.9155 60.6623L54.9397 61.0515C53.6115 61.7337 49.5519 59.6578 48.3598 58.8212C48.5236 59.3431 48.7146 60.0263 48.9384 60.5048C50.2646 61.0222 54.5531 62.3636 55.3431 62.8172L55.4516 63.1172C53.7201 65.5024 50.7879 61.4633 49.2886 61.2701C49.1298 61.9207 49.5216 62.9433 49.7395 63.6306C50.4327 63.9934 51.397 64.5108 52.0818 64.7251C53.4626 65.1294 55.71 65.1186 56.1107 66.895C56.3074 67.7674 57.0783 70.7299 56.7337 71.3339C56.146 72.3632 52.2524 70.3552 51.4076 70.4899C51.3672 70.9701 51.4901 70.9756 51.7817 71.4862C53.6343 72.8452 57.549 70.6992 57.6204 73.131C57.6365 73.6798 57.5824 73.6198 57.291 74.0015C55.137 74.8837 53.322 72.6604 51.7591 72.9401C51.1947 73.6142 51.7309 74.2143 52.0995 74.9328C53.4567 75.2041 57.5264 75.6017 58.0616 76.0958C58.1268 76.9552 57.1833 77.099 56.5029 77.0753C55.0585 77.0252 53.6695 76.23 52.4718 75.4781C53.3589 77.4051 53.832 79.1676 54.5867 81.0899C55.1477 82.5191 57.8846 82.4711 58.7778 83.2523L58.6385 83.461C57.8943 83.5856 57.5297 83.6074 56.7706 83.6374C53.1817 80.8803 53.6002 79.9378 51.0953 76.599C49.1025 73.9426 43.5728 68.5614 39.9026 68.9272C39.1049 69.0067 38.5157 69.7025 38.0269 70.2917C36.366 77.9498 46.0862 87.862 53.7808 86.5788C54.2464 86.5011 54.8141 85.1669 55.6769 84.7747C56.2463 85.2506 55.611 85.5404 56.6507 85.4356C57.9137 85.3083 59.3135 85.0547 60.5646 84.8343C59.1808 85.7276 57.4266 86.0181 55.7977 86.1236C55.9844 86.7547 56.7012 89.5484 57.0007 89.9292C57.8901 89.977 58.6419 89.7987 59.52 89.6469C58.661 89.9706 57.865 90.2311 56.9928 90.512C57.2469 91.8969 57.4905 93.3128 57.7649 94.6909C59.1256 94.1406 60.075 93.2449 61.3303 92.4851C60.9243 92.9171 60.4701 93.4278 60.0091 93.7993C59.2255 94.4306 57.7882 94.6846 57.9385 95.9829C58.0296 96.7677 58.2491 97.5675 58.4357 98.3333C60.0874 97.2358 61.7026 96.0839 63.2784 94.8796C64.181 94.1866 65.1701 93.2866 66.0754 92.6813C64.9836 94.5073 60.4758 97.9556 58.5877 99.0698L58.3705 99.1996C58.8368 100.43 59.1927 101.301 59.7653 102.481C62.8846 100.058 65.7759 96.0706 68.5076 93.3804C67.1653 95.9076 62.3224 101.628 60.1592 103.252C62.3213 106.72 63.351 107.418 67.3203 108.949C68.7423 106.743 70.598 104.817 72.2998 102.825C73.0256 101.975 73.7438 101.339 74.3798 100.411L74.5513 100.392C74.5643 101.226 69.2614 107.895 68.3626 109.291C70.0675 109.986 72.8757 111.222 74.6978 111.121C75.3949 110.749 79.3497 104.51 80.8145 103.061C79.4999 106.069 77.9179 108.953 76.0877 111.679L78.7211 112.12C80.1707 110.314 81.7394 107.47 83.1793 105.433C82.068 107.863 80.626 110.151 79.6507 112.324C81.0435 112.395 84.133 112.923 85.127 112.525C86.2216 110.829 87.058 106.875 87.8877 104.81C87.3647 107.949 86.8854 109.717 85.9098 112.727C86.5719 112.765 87.2893 112.788 87.943 112.867C89.0527 109.902 89.9662 107.392 90.8579 104.354C90.6266 108.11 90.6232 109.301 89.5036 112.88L91.8201 112.905C92.1419 111.669 93.4393 106.923 93.9388 105.874C93.8181 107.552 93.7158 111.641 93.4409 112.975C94.797 113.039 95.687 112.956 97.0531 112.839C98.5583 109.413 99.2288 106.542 100.387 103.149C100.312 107.092 100.33 108.997 99.202 112.833C100.313 112.66 100.84 112.565 101.968 112.576C102.601 109.065 103.238 104.406 103.988 101.075C104.217 103.692 104.063 109.889 103.791 112.427C104.388 112.383 104.997 112.327 105.592 112.324C105.701 108.622 105.707 104.917 105.615 101.214C106.614 103.34 107.241 109.373 107.479 111.907C108.574 111.839 109.492 111.783 110.58 111.627C109.827 107.831 108.9 104.025 108.173 100.312C109.378 101.857 110.776 109.221 111.212 111.525C112.263 111.299 112.804 111.184 113.882 111.1C112.878 106.674 111.867 103.282 110.101 99.0564C112.591 101.55 114.531 107.494 115.733 110.896C116.656 110.674 117.508 110.456 118.45 110.312C116.254 106.409 114.526 102.585 112.442 98.6547C114.856 101.578 118.176 106.736 120.059 110.121L122.843 109.363C121.19 106.171 119.908 103.534 117.895 100.53C120.042 102.525 123.165 106.45 124.615 109.067C128.99 108.185 132.778 107.052 137.032 106.006C136.849 105.354 136.69 104.547 136.244 104.021C135.091 102.664 127.397 97.428 125.547 96.3029C128.748 97.0374 133.257 100.21 135.822 102.359C135.163 100.305 134.908 97.5117 133.343 96.3239C132.411 95.9577 128.928 94.0799 128.19 93.4974C128.514 93.3441 133.034 95.6238 133.934 95.927L133.017 93.0915C129.999 91.6413 128.418 91.1525 125.677 89.1892C128.26 90.0764 130.262 90.8738 132.768 91.9477C132.52 91.103 132.22 90.2119 131.95 89.3685C130.376 88.6707 128.626 87.9663 127.196 87.0321C128.597 87.2703 130.704 88.1716 132.022 88.761C131.437 87.0074 131.086 85.9654 130.637 84.1345Z" fill="black"/>
<path d="M124.018 50.4193L124.464 49.9111C126.504 49.9064 127.769 58.1765 127.684 59.9577C127.635 61.0034 127.566 62.7875 127.189 63.7566C125.702 61.0992 124.32 57.6156 122.98 54.8151C122.57 53.9559 123.557 51.3485 124.018 50.4193Z" fill="white"/>
<path d="M54.9155 60.6625C53.2653 59.7571 48.5676 58.7204 47.8081 57.189C49.5249 57.3783 52.5175 59.6998 54.7626 59.8938L54.9155 60.6625Z" fill="white"/>
<path d="M52.7604 51.4886C51.2596 51.5569 47.1162 51.0658 45.8706 50.4051C48.0942 50.2498 50.1779 51.2545 52.8092 50.8769L52.7604 51.4886Z" fill="white"/>
<path d="M70.011 114.865C70.7765 114.994 74.2268 116.626 75.1162 117.059C83.6453 121.208 90.8814 121.435 100.064 121.638C100.369 121.973 100.271 122.154 100.315 122.732C88.58 123.223 79.715 122.536 70.011 114.865Z" fill="white"/>
<path d="M49.8291 64.644C50.543 64.897 52.7182 66.3545 53.3476 66.8481C51.2073 66.6968 50.5676 66.675 49.8291 64.644Z" fill="white"/>
<path d="M82.8977 211.856C86.6373 211.406 117.99 220.923 122.957 222.558C128.993 224.546 134.964 226.795 140.919 229.005C144.917 224.832 156.543 222.456 162.294 222.442C166.991 222.432 173.291 223.313 176.389 227.295C176.795 227.818 177.266 228.252 177.735 228.712C175.202 228.026 172.745 227.222 170.189 226.57C163.705 224.916 157.456 225.46 151.028 227.011C149.277 227.434 147.508 227.913 145.767 228.395C144.833 228.651 143.824 229.141 142.899 229.25C142.424 229.305 142.662 229.203 142.196 229.381C144.462 230.307 146.667 231.063 148.971 232.039C150.022 231.652 151.087 231.301 152.163 230.991C159.587 228.863 167.435 229.763 174.681 232.34C176.536 232.999 178.85 234.285 180.608 235.253C178.224 234.797 174.942 233.633 172.425 233.073C163.531 231.095 158.246 230.961 149.436 232.739C152.017 233.244 152.952 234.07 155.259 234.726C156.774 235.05 158.579 234.839 160.071 235.239C170.15 237.955 182.13 247.225 182.882 258.429C182.936 259.227 182.971 259.692 182.453 260.3C182.17 260.339 181.956 260.438 181.728 260.044C180.274 257.446 179.84 254.73 178.424 252.033C174.158 243.911 166.213 238.309 157.463 235.944C157.463 235.944 156.7 236.19 156.623 236.216C151.92 234.349 147.228 232.038 142.481 230.372C125.449 224.395 107.91 220.049 90.4808 215.428C88.5917 214.927 83.7777 214.113 82.4854 213.187C78.5777 214.299 72.9949 216.797 69.1094 218.457C66.9523 219.324 64.6584 220.445 62.6047 221.552C60.8521 222.498 59.3075 223.672 57.4293 224.364C60.2116 225.725 68.2034 230.035 70.7374 230.471L70.8151 230.659C70.3085 231.29 68.2372 232.497 67.2617 233.351C63.6287 236.549 60.5455 240.323 58.135 244.521C54.5979 250.69 52.8465 258.026 52.4019 265.082C52.3169 266.434 52.6824 271.734 51.3828 272.051C48.9285 270.738 50.0261 261.699 50.4998 259.135C52.4872 248.375 57.867 237.601 66.9457 231.174C51.9859 235.221 40.2609 254.844 41.8694 269.924C42.1222 272.294 43.1604 273.651 43.3837 275.414L43.204 275.496C41.3837 274.295 40.4017 271.283 40.2224 269.168C39.2038 257.159 45.4288 245.353 54.2813 237.557C58.7658 233.608 62.6366 230.728 68.6655 229.998L67.607 229.701C64.4858 228.843 61.6126 227.581 58.7721 226.047C57.601 226.273 56.2914 226.357 55.0922 226.458C42.9142 227.472 31.2606 231.67 19.2715 233.819C17.3863 234.158 9.76366 235.634 12.3569 231.107C14.954 226.756 19.8211 223.747 24.3029 221.699C34.6434 216.978 47.3841 219.418 57.1187 224.426C63.503 218.283 74.4893 214.229 82.8977 211.856Z" fill="black"/>
<path d="M48.4047 37.4266C45.3041 37.2238 42.4749 36.3692 39.0201 36.2413C37.8541 36.2039 36.687 36.2299 35.5237 36.3188C34.8368 36.3758 32.7595 36.6908 32.252 36.6193L32.2726 36.3734C35.8811 33.4814 44.7672 32.3483 48.6444 35.11L48.7797 35.0882C49.1946 33.0331 49.417 31.4506 50.1123 29.4165C54.9136 15.3729 70.4465 2.4484 84.9745 0.143066C68.5653 6.34507 56.0399 19.0728 50.6604 35.8989C50.3305 36.9308 50.1915 39.8505 49.825 40.0014C48.9042 39.0726 49.1865 38.1627 48.6723 37.3974L48.4047 37.4266Z" fill="black"/>
<path d="M38.7725 34.9722C41.3714 34.3886 44.2036 34.4397 46.7979 35.0132C48.2589 35.3362 49.0693 35.833 48.6724 37.3977L48.4049 37.4269C45.3956 34.9236 42.5196 35.098 38.7725 34.9722Z" fill="white"/>
<path d="M79.0143 36.285C79.8489 36.2353 82.2505 36.2668 82.916 36.5194C89.6559 39.0787 74.8751 43.8105 73.7382 44.2975C70.7837 45.5631 68.0232 46.6505 65.0771 47.6788C64.1349 47.9956 63.0493 48.2613 62.0375 48.4238C61.9022 48.4456 61.5906 49.2524 61.1282 49.3716C61.1572 48.3903 63.5206 44.9625 64.2241 44.1306C67.7503 39.9607 73.6131 36.8599 79.0143 36.285Z" fill="black"/>
<path d="M77.3057 37.0884L77.7013 37.1315C77.5241 37.3889 73.6543 39.0271 73.0256 39.407C69.2733 41.6746 65.6954 44.1065 62.982 47.5537L62.6667 47.7368L62.541 47.5802C65.2025 42.5251 71.8895 38.4444 77.3057 37.0884Z" fill="white"/>
<path d="M81.6053 39.4189L81.7695 39.5647C81.4762 39.9375 80.3014 40.3589 79.7975 40.5752L79.6919 40.4306C80.1111 39.9729 80.9997 39.6761 81.6053 39.4189Z" fill="#6A6B6E"/>
<path d="M144.848 180.259C146.047 182.702 146.157 189.945 146.135 192.885C146.08 200.61 144.831 208.503 143.445 216.091C143.241 217.218 141.221 223.05 141.318 223.497L141.643 223.623C143.165 222.359 148.44 194.696 149.01 190.748C149.097 190.141 149.163 188.749 149.511 188.267L149.793 188.534C150.354 197.549 145.316 215.351 142.061 223.853C141.241 223.808 140.864 223.905 140.228 223.492C139.881 222.872 139.944 221.943 140.054 221.247C141.293 213.382 143.174 205.783 144.168 197.853C144.937 191.712 145.651 186.468 144.848 180.259Z" fill="black"/>
<path d="M75.6779 52.7041C81.7445 52.3363 88.4895 55.8944 88.1643 62.805C87.9481 67.4162 84.0325 70.5985 79.5073 70.3296L79.6295 70.1289C82.0144 70.4553 86.2954 67.4395 87.2257 65.1524C89.336 59.9675 85.2863 56.7138 81.0179 54.8095C77.8827 53.5877 74.0295 53.4839 71.2309 55.6394C70.0152 56.576 69.1426 57.7398 68.9433 59.2894L69.0542 59.382C69.6164 58.2554 69.5392 57.9696 70.745 57.5055C74.6921 55.9076 80.0438 60.3407 77.9168 64.4688C76.7687 66.6968 73.2187 66.5301 71.3846 65.2941C68.0593 63.1295 67.1011 59.5589 69.4349 56.2088C70.9984 53.9642 73.1252 53.1513 75.6779 52.7041Z" fill="black"/>
<path d="M20.6139 170.553C31.1308 176.186 40.8945 188.958 47.1793 198.916C50.4078 204.032 53.6452 211.208 55.8164 216.904C56.0247 217.449 56.8221 220.076 56.7842 220.517L56.6389 220.596C55.0665 219.053 50.9989 210.553 49.7256 208.049C47.9368 204.531 46.1242 200.459 43.9823 197.002C38.0275 187.39 30.3036 176.904 20.5452 170.97L20.6139 170.553Z" fill="black"/>
<path d="M66.0152 27.1023C70.1452 25.0667 74.5036 22.7377 78.7539 21.0627C84.7297 18.7072 90.8344 16.7791 97.1067 15.3979C98.4979 15.0918 103.029 13.8565 104.36 13.8682C103.146 14.6044 101.567 14.9415 100.291 15.5731C93.3872 18.9895 85.9466 21.2514 78.6626 23.7003C74.6461 25.0506 70.6625 26.443 66.5489 27.4834C65.367 27.8205 64.4022 28.0142 63.1938 28.2512C64.1116 27.8374 65.0772 27.4731 66.0152 27.1023Z" fill="black"/>
<path d="M102.005 47.6703C106.467 47.3758 109.94 49.5687 111.267 53.8775C107.4 48.9666 99.331 46.0776 96.7211 53.7331C97.5408 52.9248 97.7906 52.6981 98.8818 52.3296C103.994 52.1758 107.804 58.2912 102.405 60.7839C95.0466 60.3852 93.5129 49.0473 102.005 47.6703Z" fill="black"/>
<path d="M119.994 71.5156C120.429 71.5757 121.101 71.6471 121.462 71.925C121.814 72.1977 121.898 72.4409 121.963 72.8728C122.141 74.0304 121.095 75.3806 120.384 76.1774C113.381 84.0109 99.3831 87.3507 89.1399 87.9684C86.1965 88.1462 72.0251 88.0565 70.3934 86.1173C70.0321 85.6879 70.134 85.5103 70.2054 84.9982C70.6543 84.3835 71.2869 84.1915 71.999 83.8577C73.6499 83.0981 74.3487 83.0104 76.1236 82.7988C75.0399 83.396 71.3878 84.4295 71.8042 85.8333C72.8927 86.6839 77.4634 87.031 79.0168 87.0782C91.9475 87.4706 108.128 84.6182 118.44 76.3247C119.409 75.5463 120.858 73.6742 120.924 72.4574C120.662 71.7811 120.741 71.9923 119.994 71.5156Z" fill="black"/>
<path d="M92.6346 32.9932C97.038 33.0945 101.041 34.025 104.859 36.247C105.872 36.836 109.522 38.3104 109.839 39.0704L109.584 39.3426C107.645 40.0918 101.963 39.7961 99.7417 39.5291C98.042 39.282 91.4512 38.2048 91.3674 35.8877C91.6775 35.9451 91.6373 35.9026 91.8804 36.0764C94.0477 37.6226 95.7121 37.8306 98.2381 38.3644L98.3219 38.2568C97.866 37.8833 96.2166 37.6053 95.4707 37.263C94.2069 36.6825 93.4928 36.1874 92.3916 35.3604C92.239 34.3128 92.1402 33.9007 92.6346 32.9932Z" fill="black"/>
<path d="M93.9253 33.2212C94.9159 33.3656 98.8633 34.3365 99.6864 34.8409C98.3689 34.9516 94.7852 34.2783 93.9253 33.2212Z" fill="white"/>
<path d="M90.0297 43.0806C91.2634 44.1012 99.1214 69.1772 99.5052 72.9001C99.5957 73.786 101.052 79.0258 100.481 79.8881C100.318 80.1328 99.6276 80.454 99.1918 80.457C95.5125 80.4813 91.2031 78.4086 88.4206 76.2784C88.0116 75.9109 88.1071 76.1353 88.03 75.6405C88.0485 75.6341 96.2467 80.5117 99.8723 79.7598C99.1767 78.4841 98.6872 77.3791 98.2816 75.9714C96.0456 68.1781 94.0291 60.235 92.0864 52.3601C91.6288 50.5039 90.0917 44.794 90.0297 43.0806Z" fill="black"/>
<path d="M49.1163 34.8697C45.479 32.738 44.4509 31.7655 39.8746 30.8325C34.4178 29.7202 27.0395 31.0093 22.4384 34.1286L22.1546 34.0697C21.5238 31.619 33.4027 28.1154 35.331 27.807C36.7019 27.5884 38.099 27.5925 39.4686 27.8187C41.9569 28.2343 44.9164 29.4173 46.4178 31.5346L46.2166 31.8528L46.0826 32.0669C47.0341 32.8465 48.4399 33.9083 49.1163 34.8697Z" fill="black"/>
<path d="M46.0825 32.0674C43.6673 30.3047 41.2668 29.69 38.3078 29.1878C37.5369 29.057 35.0439 29.2465 34.6091 29.0026C35.1105 28.7331 36.119 28.6588 36.7138 28.6504C40.1816 28.6016 43.6488 29.4476 46.2166 31.8532L46.0825 32.0674Z" fill="white"/>
<path d="M50.0293 213.092C42.356 202.923 34.5287 192.383 24.5391 184.329C23.0378 183.118 20.811 181.663 19.177 180.559L19.3773 180.455C20.68 180.953 23.1559 182.716 24.3829 183.58C32.9464 189.613 39.6037 197.846 45.7723 206.205C47.3512 208.345 48.8923 210.98 50.3955 212.943L50.0293 213.092Z" fill="black"/>
<path d="M80.0175 5.2002L80.1608 5.23324C80.1288 5.4756 79.9773 5.43467 79.7002 5.58478C69.2229 11.2576 58.2981 22.1295 53.0102 32.7745L52.91 32.8278C52.8626 32.4016 53.1826 31.7131 53.3941 31.3097C59.12 20.3919 68.361 9.56146 80.0175 5.2002Z" fill="black"/>
<path d="M83.2816 12.0195C77.4025 14.8054 71.1488 18.2754 65.867 22.0543C64.3185 23.1609 62.8104 24.3231 61.3456 25.5387C60.6612 26.0991 59.0061 27.5515 58.303 27.9178L58.3047 27.6785C63.4697 21.5067 75.2665 13.6021 83.1223 11.7563L83.2816 12.0195Z" fill="black"/>
<path d="M101.053 7.56836L102.095 7.57842L102.114 7.67872C97.6515 9.03458 95.2294 10.8758 91.2502 13.1106C88.9622 14.3948 86.3976 15.653 84.0358 16.8288C83.709 16.9817 83.7308 16.9755 83.3721 17.0002C83.8531 16.4346 85.2125 15.6562 85.9048 15.1777C90.4707 12.022 95.6988 9.12482 101.053 7.56836Z" fill="black"/>
<path d="M96.9424 7.53174L97.0715 7.58021L96.986 7.78265C93.2934 10.2579 89.7985 11.913 85.8963 13.9937C83.5681 15.2359 80.353 17.6641 77.998 18.5814L77.7817 18.548C84.7029 13.4666 89.2739 11.1631 96.9424 7.53174Z" fill="black"/>
<path d="M34.1009 152.9L34.2039 153.14C29.513 155.436 24.7367 158.304 20.0156 160.607C17.9316 161.623 14.9577 163.362 12.813 164.003C14.6005 162.703 17.632 161.269 19.6674 160.172C24.4015 157.623 29.2107 155.134 34.1009 152.9Z" fill="black"/>
<path d="M123.324 97.2632C124.289 98.217 125.175 99.0524 126.185 99.931C127.511 101.085 131.842 103.819 132.193 105.429C132.033 105.459 131.671 105.519 131.539 105.473C129.814 104.876 124.001 98.4835 123.324 97.2632Z" fill="black"/>
<path d="M72.6723 96.9429L72.664 97.2204C71.4738 99.0585 67.468 105.31 65.8135 106.262L65.6909 105.897C65.7719 104.713 71.4671 98.2526 72.6723 96.9429Z" fill="black"/>
<path d="M102.556 211.901C104.442 212.251 106.436 213.561 104.259 215.344L104.158 215.43L102.965 215.044C102.242 213.57 101.443 213.397 102.556 211.901Z" fill="black"/>
<path d="M110.786 60.5259L110.744 60.9465C108.78 63.9883 105.169 64.7141 101.83 63.8501L101.808 63.7081L101.981 63.547C105.759 64.4306 108.183 63.1022 110.786 60.5259Z" fill="black"/>
<path d="M108.057 74.8719C108.867 74.7929 109.827 74.7164 110.049 75.6919C109.695 76.3145 109.775 76.133 109.066 76.5461C108.287 76.4585 106.963 76.0536 106.689 75.269C107.157 74.8303 107.251 74.9658 108.057 74.8719Z" fill="black"/>
<path d="M69.2894 96.771L69.2705 97.1371C68.3771 98.4586 64.6811 102.735 63.4278 103.672L63.3958 103.42C63.696 102.473 68.3455 97.7369 69.2894 96.771Z" fill="black"/>
<path d="M121.685 99.791C122.632 100.525 127.03 106.081 127.671 107.233C126.925 107.018 121.928 100.675 121.685 99.791Z" fill="black"/>
<path d="M113.662 98.2188C114.976 98.5133 117.541 102.209 117.86 103.541C117.201 103.291 114.368 99.1375 113.662 98.2188Z" fill="black"/>
<path d="M20.5453 170.97C19.3242 170.306 18.0848 169.607 16.7826 169.095C16.0134 168.795 12.9538 168.354 12.6553 167.958C14.9694 167.755 18.5821 169.441 20.614 170.553L20.5453 170.97Z" fill="#2E2D2D"/>
<path d="M85.7153 79.6279L86.0052 79.687L86.027 79.9067C85.3817 80.8894 84.6039 81.4517 83.5697 81.9744C83.3116 81.9487 83.4507 81.9951 83.1909 81.7516C83.4004 80.9999 85.018 80.0883 85.7153 79.6279Z" fill="black"/>
<path d="M104.157 77.1284C105.568 77.2108 106.289 77.2497 106.877 78.6173C105.633 78.9054 104.906 77.9677 104.157 77.1284Z" fill="black"/>
<path d="M93.389 178.184L93.7075 178.298C94.4249 179.12 94.0645 179.678 93.4175 180.378C92.9934 179.928 92.799 179.736 92.6951 179.125C92.9247 178.447 92.7973 178.686 93.389 178.184Z" fill="black"/>
<path d="M105.441 75.9678C106.552 75.9748 108.123 76.7975 108.818 77.6799C107.531 77.4337 106.316 76.9811 105.441 75.9678Z" fill="black"/>
<path d="M100.181 96.8911C100.421 98.0663 99.5223 99.7662 98.5685 100.456C98.5417 99.7499 99.7771 97.6573 100.181 96.8911Z" fill="black"/>
<path d="M127.758 85.3613C128.706 85.3754 130.708 86.0428 131.273 86.8626C130.215 86.6754 128.446 86.2113 127.758 85.3613Z" fill="black"/>
<path d="M124.459 90.7168C125.245 90.8216 126.767 91.5891 127.241 92.24C126.143 92.3003 125.181 91.4499 124.459 90.7168Z" fill="black"/>
<path d="M60.0622 87.0508C60.305 87.0669 60.2021 87.0184 60.3694 87.2007C59.8427 87.583 57.955 88.1406 57.2279 88.3801L56.9858 88.3552C57.3653 87.8065 59.3526 87.2722 60.0622 87.0508Z" fill="#2E2D2D"/>
<path d="M34.1011 152.9C34.9893 152.34 36.3971 151.667 37.3817 151.273L37.4721 151.335C36.8137 151.863 35.0129 152.818 34.204 153.14L34.1011 152.9Z" fill="#959596"/>
<path d="M76.1833 96.896L76.2492 97.2799C75.9024 98.0338 75.1561 98.7161 74.5686 99.3395C74.3695 98.6752 75.7099 97.3951 76.1833 96.896Z" fill="black"/>
<path d="M86.8736 10.397C85.7355 11.0598 84.5303 11.6036 83.2815 12.0195L83.1223 11.7564C84.5236 11.1747 85.4271 10.7998 86.8736 10.397Z" fill="#2E2D2D"/>
<path d="M84.6023 103.119L84.7465 103.293C84.7784 104.258 84.6208 104.89 84.1649 105.74L83.9436 105.558C84.1364 104.726 84.3677 103.939 84.6023 103.119Z" fill="#2E2D2D"/>
<path d="M82.574 101.924C82.7953 102.751 82.1064 103.737 81.6689 104.4C81.5012 103.614 82.1667 102.625 82.574 101.924Z" fill="#2E2D2D"/>
<path d="M110.63 95.5327C111.302 95.7866 111.696 96.8292 112.048 97.5108C111.121 97.1083 110.972 96.445 110.63 95.5327Z" fill="black"/>
</g>
<defs>
<clipPath id="clip0_2473_2656">
<rect width="176" height="212" fill="white"/>
</clipPath>
</defs>
</svg>
