<svg width="156" height="228" viewBox="0 0 156 228" fill="none" xmlns="http://www.w3.org/2000/svg">
<g clip-path="url(#clip0_2473_2717)">
<path d="M81.9919 14.3733C87.3576 9.93745 95.1249 9.73535 99.4953 15.4859C100.726 17.1058 101.601 18.8409 102.539 20.6347C103.348 22.0389 103.455 21.3917 104.2 23.4675C104.51 24.3324 105.292 27.4908 105.525 27.9445C105.363 28.6301 106.109 32.9726 106.168 34.1579C106.738 45.6476 106.138 61.8026 119.852 65.8064C121.947 66.418 123.632 65.879 125.547 65.0073C124.938 65.5682 124.396 66.0919 123.61 66.3863C119.491 67.9297 114.465 66.2941 111.611 63.0491C110.973 62.323 110.137 61.3111 109.883 60.4012L109.926 60.2985L110.338 60.0075C109.534 58.5689 109.014 57.6284 108.368 56.1009C107.966 55.1514 107.322 53.0576 106.884 52.3458C106.592 52.3983 106.23 53.2285 105.502 53.728C106.634 58.5039 108.953 62.8091 113.222 65.4426C116.95 67.743 120.905 68.2187 124.975 66.6324C120.528 69.9497 113.641 68.0051 110.065 64.1936C109.635 65.7576 108.84 68.5859 107.424 69.5608L107.269 69.7261C107.038 69.9673 106.952 70.0159 106.676 70.1977L106.588 70.527C106.849 72.9947 106.838 74.9875 104.767 76.5942C106.254 81.5374 108.918 86.7944 113.608 89.4175C115.746 90.6131 117.801 90.287 120.107 89.8302C121.392 88.0869 122.04 85.4618 122.585 83.3803C120 85.0855 117.322 85.3734 114.286 84.9723C112.408 84.7242 110.291 82.9086 109.293 81.3543C108.416 79.99 106.775 75.9213 107.323 74.3355C107.619 74.7852 107.865 76.3176 108.054 76.9215C109.419 81.3025 111.501 84.8051 116.524 84.8035C113.084 83.4516 111.143 81.5085 109.633 78.1058C109.065 76.823 107.832 72.7133 108.547 71.4937C108.734 71.6694 108.685 72.2623 108.716 72.5504C109.022 75.433 110.752 79.4163 112.87 81.4394C115.508 83.9578 119.567 85.2677 122.71 82.9388C122.86 81.8279 122.984 80.7732 123.014 79.6501C116.135 79.1508 111.912 73.1581 108.734 67.6932C109.915 68.7169 110.894 70.5755 111.967 71.7642C114.887 75.0036 118.501 78.4788 123.097 78.7357L123.18 77.4334C118.529 76.8817 115.775 74.1723 112.763 70.8475C115.878 73.1987 118.223 75.847 122.348 76.6061C124.962 77.0876 126.845 76.2454 129.26 75.3917C129.439 75.3294 129.578 75.3862 129.723 75.4761L129.624 75.6229C128.138 75.6484 126.763 77.1884 125.153 77.2351C124.833 77.2444 123.529 77.4077 123.333 77.5807C123.29 78.0273 123.261 78.0315 123.464 78.449C124.23 79.0649 126.1 78.2812 126.992 77.9898L127.116 78.1553C126.774 78.8563 124.265 79.5021 123.459 79.6382C123.658 82.9704 123.554 85.7969 122.195 88.8815C119.416 95.1856 112.939 99.4582 106.223 96.4177C107.228 96.6763 108.301 96.9887 109.348 96.9428C113.564 96.7574 117.699 93.4698 119.965 90.104C117.239 90.8138 115.054 91.0147 112.529 89.5069C109.02 87.4106 105.832 82.615 104.86 78.6968C104.699 78.0423 104.571 77.3803 104.475 76.7133C102.288 77.2269 101.528 77.2373 100.157 75.3427C99.5824 84.9037 99.3684 94.4801 98.5702 104.032C98.5436 104.35 98.5497 104.542 98.7286 104.799C98.6573 104.881 98.5871 104.962 98.5158 105.045C97.9607 112.135 97.4359 119.222 96.6003 126.288C96.1915 129.737 95.7961 133.163 95.1261 136.579C97.8277 137.491 102.289 140.691 104.701 142.373C122.866 155.039 136.462 173.752 146.211 193.448C147.447 195.92 148.635 198.416 149.776 200.933C151.146 203.983 152.112 204.968 150.067 207.953C151.815 212.541 153.303 217.223 154.527 221.977C155.029 223.868 155.64 226.087 155.953 228H154.773H99.2692H97.4951H1.16564H-0.0266113C0.278254 223.791 1.686 219.116 2.35596 214.989C1.36542 213.878 0.951837 213.435 0.291558 212.109C0.327232 211.96 0.366048 211.814 0.408011 211.667C0.981946 209.646 2.03755 207.324 2.7098 205.322C3.88415 201.825 5.21995 198.422 6.53857 195.022C17.4421 166.912 29.4076 150.908 55.7192 136.114C55.2182 133.545 54.9618 130.732 54.4977 128.122C53.5946 123.045 52.6531 117.536 51.3678 112.564L51.2685 112.006C51.2231 111.105 50.8963 110.05 50.6459 109.187C50.467 109.457 50.2748 109.71 50.0824 109.97C50.2252 109.651 50.597 108.692 50.5748 108.393C50.4562 106.798 48.7979 102.498 48.8305 101.104L48.9192 100.666C48.6653 100.044 48.3853 99.6919 48.0061 99.1435C48.2379 101.535 47.8474 103.327 46.2541 105.137C43.2046 108.599 36.5428 112.807 32.2672 109.129C31.5848 108.546 31.0161 107.841 30.5898 107.051C27.2265 106.878 25.3685 106.894 22.6935 104.673C26.9239 107.069 31.5448 106.732 36.0426 105.089C38.2656 104.277 39.8748 102.922 41.5637 101.294C37.4971 102.25 32.8335 101.662 28.8679 100.504C27.9779 100.79 27.4447 100.873 26.5153 101.027C27.108 100.741 27.6315 100.584 28.1994 100.242C26.0065 99.4376 24.5442 98.6156 22.5877 97.3679C21.856 96.9012 20.4498 96.6043 19.6472 96.1879C15.7989 94.6507 13.8186 92.3133 12.674 88.369C14.4768 92.079 16.0513 94.0054 20.0736 95.3963C20.2915 95.4731 20.5108 95.5459 20.7314 95.6146C17.7473 92.8319 15.8202 89.1362 15.4965 85.046C16.5677 89.1665 18.9446 93.0096 22.4194 95.5087C23.7829 96.4893 26.6826 96.4481 28.2428 95.9408C35.4153 93.608 38.1727 88.1411 38.2887 81.0718C40.0072 89.4782 33.394 97.2904 24.9078 97.174C26.371 98.2334 28.1711 98.754 29.8789 99.3536C33.7496 97.5415 36.7228 94.2391 38.1217 90.1983C39.1262 87.376 39.2941 84.4803 39.048 81.519C41.5456 88.9267 37.6588 96.4743 30.7806 99.7475C31.8559 99.9176 34.0694 100.727 34.8971 100.02C39.5946 96.0031 40.9132 89.5321 41.066 83.6758C42.0064 87.3819 41.3561 92.1254 39.4557 95.4518C38.4199 97.2648 36.5162 99.0086 35.0025 100.488C37.34 100.774 39.5144 101.062 41.8697 101.066C44.2527 98.4171 43.8562 97.136 44.9458 94.1857C44.9182 98.3081 44.2004 99.8815 41.2511 102.957C38.2495 106.088 34.818 106.544 30.6337 107.006C32.3575 108.83 33.1014 109.181 35.4367 110.02C41.6062 108.926 46.5106 105.189 47.8916 98.8802C47.4086 97.5964 46.9201 96.7031 46.3868 95.4832C47.2214 98.6884 46.7716 99.9068 45.1088 102.674C44.824 103.148 44.6228 104.257 44.3447 104.772C43.5206 106.181 40.8096 107.056 39.3434 107.402C37.7138 107.803 36.0234 107.893 34.3601 107.671C34.7338 107.454 34.8678 107.628 35.2772 107.382C39.7126 107.062 42.6798 106.196 45.1767 102.428C43.2388 103.344 41.5159 105.986 38.9958 105.587C40.7987 105.434 43.6719 102.559 44.7294 101.153C47.9463 96.8759 45.3344 93.2862 43.761 89.0184C42.9101 86.7105 42.3377 84.2218 41.5634 81.8337C39.7402 81.6252 39.1289 80.9461 37.9848 79.5568C36.0417 77.1974 35.1105 74.3179 35.2775 71.2698C35.3259 70.3879 35.7023 69.988 36.5293 69.7722L36.7414 69.8477C36.7602 70.3841 36.1119 71.0191 36.0591 71.7989C35.8268 75.2309 38.3315 79.3852 41.3194 80.9452C40.679 78.7005 40.2459 75.7839 39.5219 73.7288C39.9474 74.0196 40.3665 74.3188 40.8121 74.5765C43.046 83.3255 46.3759 96.4044 52.8546 103.146C53.3874 102.364 54.751 99.3228 54.8664 99.2054C54.9311 100.889 53.9211 101.942 53.239 103.358C53.2793 103.458 53.3195 103.559 53.3596 103.66L53.581 103.767C54.5157 103.012 55.4697 98.8003 56.0738 97.4879C55.8918 99.3507 55.5149 101.19 54.9812 102.995C54.8166 103.55 54.2462 104.281 54.4055 104.638C55.3827 104.19 56.2645 99.9024 56.7506 98.711C56.5079 100.748 56.3281 102.252 55.5798 104.199C55.3425 104.816 55.1418 105.111 55.3378 105.595L55.6686 105.845C57.024 105.616 57.378 100.336 57.8689 99.8773C58.5251 100.836 56.3583 105.68 56.4634 106.256C56.7041 106.532 56.7391 106.636 57.0866 106.729C57.6409 106.352 57.8052 105.183 58.0503 104.504C58.6214 102.93 59.2107 101.363 59.8179 99.803C59.6392 101.463 59.3085 102.692 58.7802 104.275C58.549 104.968 57.8339 106.703 58.0683 107.288C58.3907 107.684 58.5669 107.814 59.0863 107.746C59.5117 107.247 60.4946 102.406 61.1453 100.981C61.1273 102.359 60.9977 103.05 60.7131 104.378C60.5053 105.347 59.8132 107.482 60.0729 108.316L60.4415 108.52L60.5443 108.444C60.7463 106.843 61.4486 103.657 61.9617 102.127C61.8378 104.054 60.9671 108.586 61.1267 109.895C61.4896 110.245 61.8534 110.379 62.3456 110.518C62.6265 108.219 63.1868 103.183 63.8659 101.146C63.8091 103.284 63.5101 106.951 63.0413 109.038C63.2785 109.728 63.9411 109.582 64.6411 109.633C65.1048 107.511 64.921 103.854 65.4341 101.183C65.9255 103.303 65.3432 107.288 65.356 109.559C65.4052 109.618 65.4546 109.677 65.5039 109.737C65.9107 109.846 66.0003 109.889 66.4316 109.859C67.0403 109.285 66.6461 104.478 66.9857 102.78L66.9744 102.986C67.3015 102.308 67.2743 102.034 67.3011 101.302C67.607 102.989 67.3362 108.213 67.0558 109.922L68.9289 109.891C68.8648 107.219 68.7771 103.373 69.1454 100.694C69.5409 103.234 69.268 106.947 69.3298 109.587L69.6147 109.855C70.853 109.959 70.2121 102.063 70.1456 100.862C70.7019 102.662 70.7236 104.473 70.7659 106.337C70.7768 106.848 70.6414 109.346 70.7418 109.525L71.3899 109.612L71.9402 109.451L73.3768 109.107C72.9874 105.945 72.4723 102.362 72.6561 99.1719C73.2789 102.239 73.3865 105.858 74.0939 108.782C74.6248 108.632 75.0517 108.448 75.5608 108.242C75.192 105.856 74.1532 101.533 74.4906 99.2928C74.7204 101.888 75.6418 105.362 76.0784 108.051C77.4981 107.443 78.9505 106.654 80.4053 106.014C79.3338 104.466 78.2963 100.283 78.1596 98.3239C78.7377 99.6619 78.8054 101.044 79.5866 102.301C79.2649 100.948 79.0182 99.5776 78.8477 98.1968C79.4681 99.3533 80.9241 105.094 81.8081 105.089C82.4103 104.285 81.2058 99.9037 80.9628 98.7925L81.2095 98.2971C81.9181 100.985 82.2289 102.276 83.1407 104.916L83.3221 104.993C83.5773 104.718 83.5954 104.653 83.9667 104.584C84.2255 102.938 82.3607 98.5772 82.0245 96.1143C82.6885 97.5264 84.5036 101.788 84.9547 103.142L85.7589 102.538C84.2303 100.422 83.3245 97.2501 83.3076 94.6503C83.7405 96.2724 84.9208 101.551 86.0975 102.232C86.5183 102.262 86.3393 102.321 86.6598 102.075C86.7396 101.567 86.2148 100.424 86.0152 99.8346C85.3864 97.9874 84.9402 96.3878 84.6463 94.4476C85.2098 95.7729 86.5909 100.695 87.7748 101.153C87.99 101.236 87.9247 101.21 88.1726 101.138C88.2706 100.591 87.0371 98.1505 86.765 97.3126C87.1072 97.9169 87.1871 98.1331 87.7034 98.5838C88.2379 99.0508 88.5125 99.8883 89.0119 100.63C89.3795 100.293 89.9781 99.8889 90.0205 99.5014L90.4195 99.4249C90.5791 99.3447 90.7243 99.2268 90.873 99.1205C91.0435 98.8756 91.0181 98.9478 91.3217 98.7858L91.6361 98.8387C91.7498 99.4379 91.8961 99.7751 91.497 100.267C90.9564 100.398 90.7678 100.484 90.249 100.709C90.5296 101.499 90.9468 102.402 91.2588 103.241L90.2212 101.823L90.2635 101.849L90.0797 101.994C90.5622 103.14 90.7436 103.767 91.0689 104.978C90.0821 103.873 89.4581 102.727 88.5149 101.604C88.839 103.016 89.3952 104.557 89.7798 106.012C89.1401 104.947 88.5632 103.894 87.9018 102.814C87.9525 102.967 88.0021 103.12 88.0493 103.274C88.1944 103.736 88.4459 104.403 88.2198 104.839C87.6732 104.49 87.5801 103.799 86.9682 103.458L86.8097 103.588C86.7021 103.926 87.175 105.521 87.2294 106.401L87.2415 106.631C86.5727 105.848 85.9681 105.227 85.2425 104.493C85.3525 105.661 85.2413 106.774 85.1639 107.944C84.9293 107.254 84.7745 106.505 84.2557 106.037L84.0392 106.062C83.5083 106.9 83.6644 109.321 83.7031 110.357C83.4177 109.554 82.8178 106.346 82.2591 106.01L82.0197 106.141C81.5191 107.089 83.0452 110.215 83.3185 111.482C82.9279 110.747 82.7308 110.35 82.2277 109.687L82.7368 111.7C82.2664 110.811 81.4465 108.338 80.791 108.028L80.6097 108.177C80.3279 109.221 80.8116 111.8 80.9749 112.991C80.4984 111.806 80.0449 110.52 79.5914 109.318C79.9192 111.115 80.1719 112.925 80.3472 114.743C79.6519 113.326 79.4076 112.398 78.9844 110.867C78.8163 112.515 78.8707 114.62 78.8671 116.313C77.8984 114.032 78.0653 113.227 77.5888 111.234C77.0785 111.571 77.1172 114.909 76.8378 116.004L76.7133 116.067C76.1788 115.251 76.0566 113.072 76.0324 112.1C75.4338 112.605 74.8812 113.176 74.3237 113.728C74.4543 114.897 74.6079 115.646 74.9066 116.776C74.21 115.76 74.0383 115.328 73.6235 114.208C72.8012 114.769 71.9632 115.475 71.1856 116.101C67.6157 118.97 64.0023 121.734 59.9972 123.976C58.4759 124.826 57.2947 125.659 55.5781 126.131C56.6521 124.82 58.0791 123.99 59.3712 123.189C61.2461 122.026 73.1604 113.862 73.4119 112.548L73.2511 112.475C72.5823 112.831 70.281 114.747 69.3141 115.412C64.4034 118.792 60.1092 121.929 54.7462 124.612C55.0964 126.173 55.4199 128.475 55.6745 130.087C56.0006 132.154 56.555 135.31 56.6182 137.379C59.4171 141.441 62.0175 145.014 66.6674 147.144C72.0055 149.588 77.8512 149.15 83.2459 147.153C87.4628 145.593 90.382 143.141 92.8925 139.45C93.4198 138.675 94.0196 138.032 94.4138 137.163C94.3739 137.034 94.3328 136.905 94.2929 136.777C95.2471 132.193 95.6655 127.434 96.0367 122.732C97.1674 107.308 98.0998 91.8696 98.8314 76.4212L99.5739 62.076C99.6997 59.763 99.7287 56.6364 100.137 54.431C98.2256 53.2325 95.9267 52.0595 93.9156 50.9956C94.5517 54.2802 94.8214 60.8355 93.3073 63.9444C92.0521 66.525 89.2489 68.2637 86.6187 69.1534C82.6872 70.4838 76.8548 70.6339 73.0636 68.786C70.1988 67.3899 67.7695 63.5026 66.8478 60.5639C66.0994 58.178 64.9338 54.2781 66.1481 51.9161C67.3697 49.5401 71.7213 47.8854 74.2052 47.1446C79.9397 45.4344 87.4434 45.3878 93.0123 47.6848C94.64 48.3561 95.9509 49.3645 97.4939 50.1896C96.1298 48.3159 95.2567 46.726 94.7899 44.4166C94.0462 40.7484 93.3823 37.0414 93.3702 33.2851C93.3617 30.4906 93.6641 27.6929 92.8889 24.9557C92.1645 22.3533 90.4123 20.1581 88.0372 18.8742C85.6355 17.5748 83.7176 17.3534 81.1575 18.1277C82.4345 17.4435 83.408 17.0039 84.893 17.2235C97.4214 19.0772 93.2444 31.7323 95.0608 40.4491C95.7985 43.9846 97.9353 47.1987 100.148 49.8653C98.286 45.9185 97.945 44.0533 97.194 39.9977C96.3898 35.6505 96.3826 27.5256 94.9931 23.6966C94.4779 22.32 93.6943 21.0604 92.6857 19.9921C90.9939 18.2092 87.3418 16.4313 84.9184 16.389L83.8615 16.3673C85.8314 16.1209 87.2076 15.933 89.1195 16.5821C95.322 18.687 95.9726 24.9522 96.6111 30.4751C96.8724 32.8602 97.165 35.2416 97.4879 37.619C98.02 41.325 99.1047 45.3341 100.677 48.7601C101.057 49.588 102.833 52.4106 103.896 51.813C103.977 50.524 103.022 50.4189 102.441 49.3042C101.511 47.5208 100.891 45.4304 100.462 43.4944C99.8605 40.8433 99.4058 38.1612 99.0987 35.4601C98.5255 30.7063 98.2884 25.0472 96.3524 20.615C95.6413 18.9842 94.3594 17.662 93.3678 16.2669C97.315 18.5977 97.8289 21.1412 98.7625 25.3429C99.9706 30.7766 99.7952 44.5968 103.565 48.5194C103.28 46.2934 103.42 43.9203 103.218 41.6189C103.099 41.6828 103.153 41.6484 103.026 41.7449L102.929 41.8204C102.35 41.4202 101.41 37.8965 101.335 37.1454C100.637 30.1505 100.112 23.5538 96.5084 17.3071C96.0295 16.4762 92.8345 16.0432 91.7933 15.8184L91.5115 16.2269C93.5262 17.1758 94.4646 17.9001 95.374 19.994C96.1359 21.7489 96.2943 22.9776 96.073 24.8676C95.1624 19.6745 93.0751 16.5607 87.701 15.4318C89.8137 15.3138 90.4461 15.0671 92.8381 15.1443C89.2271 13.8654 86.031 14.7171 82.4792 15.867C81.6134 16.1473 80.7862 16.6902 79.8538 16.8896C80.5202 15.7921 84.9257 14.0836 86.3454 13.8253C91.3894 12.9081 96.5628 15.6378 100.549 18.4438C98.54 15.1299 96.2895 12.6659 92.2516 12.0503C88.7229 11.5457 85.1373 12.444 82.2628 14.553L81.9919 14.3733Z" fill="black"/>
<path d="M18.1075 211.113C20.8203 212.123 26.4133 212.68 29.2957 212.938C39.398 213.836 49.5683 213.619 59.6231 212.291C65.3413 211.562 71.0416 210.491 76.6866 209.333C81.6677 208.311 106.068 201.97 109.333 203.575C112.148 204.958 117.696 215.917 119.204 218.995C112.945 220.477 102.745 224.185 97.495 228H1.16553C1.85785 223.341 3.3049 215.212 4.70129 210.86C10.9401 209.41 17.6455 208.856 24.0475 208.665C26.5687 208.589 34.7314 209.785 36.1457 209.411C36.2336 210.368 36.3884 211.658 36.3865 212.581C29.8006 212.385 24.6249 212.004 18.1075 211.113Z" fill="#FDFDFE"/>
<path d="M122.678 210.398C123.65 210.082 124.614 209.753 125.585 209.433C132.191 207.259 139.21 206.161 146.122 205.549C146.857 205.484 147.429 205.441 148.153 205.619C149.75 206.66 154.127 225.07 154.773 228H99.2693C107.087 223.236 115.763 220.494 124.7 218.807C126.961 218.38 132.661 217.6 134.533 216.978C131.119 216.966 128.661 217.321 125.269 217.822C124.422 215.441 123.351 212.813 122.678 210.398Z" fill="#FDFDFE"/>
<path d="M24.4359 195.371C27.9891 194.381 32.783 196.465 36.1636 197.698C36.8221 197.939 39.2329 199.545 39.7353 199.388C38.9261 197.479 32.3516 195.445 30.5091 194.744C29.2428 194.263 24.8803 190.78 24.3041 189.733C24.2737 189.277 24.2075 189.47 24.5024 189.13C25.8937 188.573 29.4973 189.736 30.8758 190.361C34.5737 192.033 38.5388 194.653 40.8652 198.052C43.3666 201.705 45.318 205.647 47.2136 209.63C47.6464 210.538 48.1224 211.607 48.408 212.564C44.662 212.584 40.8662 212.708 37.1271 212.624C37.2155 210.054 37.2064 208.612 34.8603 207.089C35.4922 207.921 35.8892 208.376 36.1459 209.412C35.3231 208.975 33.2676 208.684 32.2992 208.525C25.6935 207.427 18.9235 207.93 12.3137 208.761C9.06761 209.167 5.08743 209.774 1.93357 210.751C1.77237 210.801 1.6119 210.854 1.45215 210.907C1.92849 209.478 2.54173 207.348 3.4527 206.197C4.62729 205.851 6.20036 205.699 7.43904 205.557C15.2602 204.664 23.1799 203.024 31.0631 204.129C28.905 202.719 26.3794 201.168 25.0849 198.798C24.8184 198.311 24.5313 197.34 24.8219 196.812C28.423 200.295 22.0197 194.063 25.0807 197.135C27.3269 199.391 32.026 200.254 35.0421 201.319C35.3451 201.426 35.7143 201.437 35.9363 201.387C35.1965 200.148 28.9082 198.695 27.4144 197.853C23.8686 195.853 20.7916 193.402 16.9549 191.917C15.7772 191.428 14.8874 191.121 13.8256 190.387C16.7443 190.971 22.3795 193.193 24.4359 195.371Z" fill="#FDFDFE"/>
<path d="M31.0338 207.467C30.1324 206.859 29.253 206.207 30.1162 204.903C31.319 203.085 39.7778 203.305 39.7767 205.551C39.4213 205.623 36.9489 204.945 36.3171 204.836C35.4823 204.692 34.6352 204.633 33.7885 204.658C32.7107 204.691 30.1962 204.887 30.3339 206.401C30.6111 206.85 30.7012 206.878 31.1521 207.196L31.2871 207.29L31.0338 207.467Z" fill="black"/>
<path d="M31.2869 207.29C31.8621 207.596 32.9127 208.124 33.4258 208.48C32.5151 208.178 31.8511 207.988 31.0337 207.467L31.2869 207.29Z" fill="#1E1E1E"/>
<path d="M103.173 57.4C104.651 53.9668 104.188 54.3378 101.404 52.5204C98.6743 50.7386 96.3984 48.0622 95.7986 44.7764C97.3296 48.0231 100.184 52.7176 104.318 52.7859C104.683 54.3963 105.055 55.5709 105.577 57.1164C101.87 59.6759 102.302 62.8609 102.012 66.8884C101.979 67.3312 101.953 68.3697 102.248 68.6854C103.385 67.9064 103.162 62.9198 103.703 61.4937C104.313 59.8846 104.775 59.4232 105.964 58.2901C106.773 59.9771 107.952 62.0136 109.201 63.4114C108.569 65.6116 107.846 67.0951 107.24 69.5804L107.424 69.561L107.269 69.7263C107.038 69.9675 106.952 70.0161 106.676 70.1979L106.588 70.5272C106.514 70.4017 106.552 70.4815 106.509 70.2526L106.474 70.0522L106.454 70.0985C106.289 70.2211 106.357 70.1367 106.286 70.3765C106.109 72.0137 106.068 73.9163 104.843 75.1562C103.252 76.7678 101.549 75.8847 100.192 74.4991C100.479 68.4567 100.72 61.1003 100.564 55.1392C101.779 55.9326 102.358 56.2075 103.173 57.4Z" fill="#FDFDFE"/>
<path d="M106.286 70.376C106.292 69.8408 106.382 68.8768 106.477 68.3569C106.765 68.7464 106.744 69.0786 106.985 69.6014L107.24 69.58L107.424 69.5605L107.269 69.7258C107.038 69.967 106.952 70.0156 106.676 70.1974L106.588 70.5267C106.514 70.4012 106.552 70.4811 106.509 70.2521L106.474 70.0517L106.454 70.098C106.289 70.2206 106.357 70.1362 106.286 70.376Z" fill="#1E1E1E"/>
<path d="M104.459 61.5244C106.747 62.1412 108.001 66.8942 104.507 68.0741C104.292 68.0699 104.051 68.049 103.834 68.036L103.772 67.9215C104.711 67.4087 105.514 66.9988 105.705 65.8293C105.965 64.2453 105.308 62.7989 104.459 61.5244Z" fill="black"/>
<path d="M110.338 60.0073C111.836 62.4392 114.036 64.1706 116.468 65.5942C113.336 64.5884 112.062 63.1567 110.121 60.5272C109.978 60.3313 110.08 60.4356 109.926 60.2983L110.338 60.0073Z" fill="#EEEDEF"/>
<path d="M55.6568 106.505C55.9704 106.728 56.2853 107.14 56.1537 107.173C56.3463 107.124 56.861 107.194 56.9824 107.67C56.4981 107.965 55.1695 107.547 55.0367 107.77C54.3788 108.868 54.0967 109.711 53.2676 110.74C53.5348 109.862 54.06 107.821 54.7395 107.235C54.9771 107.361 54.889 107.302 55.057 107.544C55.2661 107.304 55.2107 107.397 55.3207 107.112C55.4128 106.878 55.5262 106.72 55.6568 106.505Z" fill="#EEEDEF"/>
<path d="M60.5635 110.01C59.4384 109.447 58.5531 108.862 57.4877 108.311L57.4619 108.177C58.2282 108.06 58.1041 107.654 58.9278 107.985C59.2125 108.398 59.131 108.232 59.1453 108.797L59.33 108.806L59.6794 108.49C59.9173 108.46 59.8898 108.459 60.0729 108.316L60.4415 108.52L60.5443 108.444C60.5911 108.831 60.5649 109.591 60.5635 110.01Z" fill="#EEEDEF"/>
<path d="M52.4437 104.359C53.1168 104.917 53.89 104.927 54.0641 105.731L53.9804 106.056C52.4052 106.219 52.8583 106.284 51.634 106.981C51.6783 106.925 51.7224 106.871 51.7667 106.815C51.9379 106.096 52.5745 106.167 52.6471 105.335C52.3711 105.308 52.2684 105.292 51.999 105.23C52.0314 104.794 52.1447 104.783 52.4437 104.359Z" fill="#EEEDEF"/>
<path d="M51.8116 109.298C52.3438 111.156 53.8219 117.612 53.789 119.349C53.6548 118.917 53.5273 118.104 53.46 117.631C53.1193 115.239 51.8903 112.136 51.6863 109.802L51.8116 109.298Z" fill="#6D6C73"/>
<path d="M48.9192 100.666C49.0943 100.891 49.4361 101.297 49.5825 101.524C50.2451 102.556 51.743 103.568 52.4437 104.36L51.9223 104.627C50.937 104.337 49.6146 101.893 48.8306 101.104L48.9192 100.666Z" fill="#EEEDEF"/>
<path d="M63.0413 109.038C63.2786 109.728 63.9412 109.581 64.6411 109.632C64.621 110.072 64.7402 110.437 64.5775 110.847C63.8429 111.092 64.5797 110.659 63.8566 110.539L63.8645 110.882L63.5629 111.003C62.6292 110.873 62.9601 109.778 63.0413 109.038Z" fill="#C3C3C5"/>
<path d="M54.0641 105.731C54.8103 105.966 55.0113 106.107 55.6569 106.505C55.5263 106.72 55.4129 106.878 55.3209 107.112C54.5802 106.935 54.0252 106.896 53.9805 106.056L54.0641 105.731Z" fill="#EEEDEF"/>
<path d="M51.6342 106.981C51.3577 107.417 51.2842 107.504 51.6544 107.967C51.926 107.845 51.8025 107.91 52.0276 107.777C51.7376 108.519 51.466 108.473 51.8117 109.298L51.6864 109.802C51.4333 109.031 51.0828 107.814 51.2342 107.029L51.6342 106.981Z" fill="#EEEDEF"/>
<path d="M89.3784 15.5469C90.1536 15.5943 91.0134 15.7205 91.7934 15.8182L91.5116 16.2268C91.0098 16.0104 89.948 15.7182 89.3784 15.5469Z" fill="#EEEDEF"/>
<path d="M79.1188 47.9706C79.1297 47.9691 79.1394 47.9677 79.149 47.9662C81.2206 47.7663 88.1148 47.8809 89.6615 49.4153C92.4804 52.2123 93.8009 61.4733 90.953 64.7569C88.3252 67.7856 84.5425 68.2858 81.0525 68.7148C78.0715 68.9069 75.1789 68.934 72.5088 66.9126C68.8423 64.1368 65.9206 55.8205 68.8848 51.8282C70.7347 49.3365 76.0484 48.3139 79.1188 47.9706Z" fill="#FDFDFE"/>
<path d="M79.4332 53.0027C82.2291 52.7925 82.4783 55.7754 80.4394 57.2728C78.0921 57.5861 77.4064 54.4711 79.4332 53.0027Z" fill="black"/>
<path d="M109.075 156.99C114.43 166.04 117.186 174.194 119.019 184.628C119.537 187.57 119.784 190.465 120.203 193.39C121.698 192.917 123.205 191.921 124.571 191.335C127.196 190.211 135.045 186.476 137.736 187.386C137.383 187.75 135.766 187.989 135.183 188.157C130.172 189.598 124.925 191.616 120.294 193.977C120.475 196.037 120.687 198.093 120.929 200.146C121.018 200.964 121.184 202.884 121.407 203.574C122.246 203.85 124.598 202.707 125.559 202.419C127.021 201.981 128.514 201.55 130.002 201.185C135.534 199.931 141.887 198.68 147.552 198.492C148.487 200.273 149.218 202.256 149.955 204.134C141.65 204.68 129.659 206.361 121.957 209.531C122.068 213.098 122.744 214.718 124.181 218.002C123.375 218.172 122.568 218.326 121.757 218.465C121.359 210.837 120.661 203.23 119.663 195.658C117.753 180.603 116.107 171.067 108.941 157.344L109.075 156.99Z" fill="#FDFDFE"/>
<path d="M55.8427 136.859C56.1549 137.184 57.0125 138.919 57.2594 139.418C64.3585 153.748 85.5823 152.021 93.8188 139.757C94.669 140.022 95.5179 140.291 96.3644 140.565C95.7464 141.819 95.2966 142.515 94.4259 143.597C91.9009 146.58 89.1957 148.717 85.6681 150.42C72.0526 156.992 59.8713 151.626 53.3264 138.561C54.0613 138.01 55.0643 137.38 55.8427 136.859Z" fill="#FDFDFE"/>
<path d="M103.434 22.8521C105.13 24.4762 105.72 42.8948 105.992 46.2761C106.118 47.8453 106.711 50.5628 106.833 52.0043C106.67 52.1632 106.505 52.3194 106.335 52.4727C106.02 52.9176 105.777 53.3312 105.195 53.1811C103.804 51.6974 104.281 34.232 104.091 31.3182C103.932 28.8782 103.854 25.4095 103.434 22.8521Z" fill="#FDFDFE"/>
<path d="M96.8845 17.3696C98.3429 17.7796 100.861 20.1571 101.477 21.5415C102.313 23.3257 102.233 25.3545 102.54 27.2305C103.27 31.6783 103.359 35.5699 103.134 40.0662C102.826 39.9866 102.492 38.3172 102.406 37.9199C100.731 30.0656 101.862 24.2476 96.8845 17.3696Z" fill="#FDFDFE"/>
<path d="M30.0532 175.312C30.3214 175.391 30.5588 175.552 30.7689 175.728C34.962 179.271 37.8755 189.19 38.3694 194.403C38.0788 194.203 37.7036 193.816 37.4371 193.563C36.0272 187.104 33.5303 180.933 30.0532 175.312Z" fill="#FDFDFE"/>
<path d="M120.235 158.629C122.24 161.659 120.663 175.789 118.721 178.992L118.398 179.267C118.303 179.123 119.135 175.071 119.231 174.471C120.07 169.142 120.365 164.015 120.235 158.629Z" fill="#FDFDFE"/>
<path d="M140.229 193.433C140.703 193.398 140.532 193.321 140.848 193.523C140.835 193.85 140.582 194.053 140.351 194.318C134.3 194.949 127.761 196.678 121.907 198.33C121.671 198.361 121.584 198.346 121.346 198.337L121.255 198.197C122.863 196.934 137.614 193.765 140.229 193.433Z" fill="#FDFDFE"/>
<path d="M8.91072 195.614C11.8049 195.393 20.3862 197.114 23.3751 198.493C23.633 198.612 23.6312 199.01 23.6674 199.296C20.3796 198.124 15.3893 197.191 11.9319 196.406C11.2241 196.245 9.23651 196.219 8.90576 195.894L8.91072 195.614Z" fill="#FDFDFE"/>
<path d="M95.102 137.248L97.5484 138.582L96.899 139.712C95.8844 139.426 95.2544 139.288 94.2144 139.11C94.5505 138.469 94.8069 137.908 95.102 137.248Z" fill="#FDFDFE"/>
<path d="M78.2236 108.807C78.411 109.062 78.3566 108.918 78.324 109.268C78.0434 109.498 77.3807 110.06 77.0361 110.103C76.1581 110.215 75.6696 111.473 74.4385 111.99L74.1942 111.419C73.8713 111.306 73.7129 111.298 73.5073 111.035C73.8762 110.44 73.9221 111.196 74.4518 110.091C75.181 110.08 75.8485 110.109 76.556 109.945C76.7712 109.216 77.5222 109.177 78.2236 108.807Z" fill="#EEEDEF"/>
<path d="M57.7591 109.185C58.0289 109.258 58.0368 109.284 58.2901 109.416C58.5392 110.087 57.8112 112.014 57.5796 112.819C57.5164 112.959 57.5666 112.877 57.3835 113.033C57.1653 112.463 57.6403 109.949 57.7591 109.185Z" fill="#FDFDFE"/>
<path d="M64.9622 111.015C65.3005 111.021 66.155 111.151 66.5252 111.212C67.5573 111.379 69.5698 111.005 70.3559 111.527C69.5299 111.881 65.5446 111.816 64.9622 111.015Z" fill="#EEEDEF"/>
<path d="M53.5549 106.576L53.8212 106.81C53.8872 107.351 53.2315 108.414 52.9472 108.949C52.8971 108.971 52.8469 108.994 52.7969 109.015C52.8895 107.84 52.5488 107.324 53.5549 106.576Z" fill="#EEEDEF"/>
<path d="M72.4347 110.9C72.8326 110.798 72.8169 110.814 73.2305 110.862C73.2184 110.984 73.2341 110.904 73.1277 111.085C72.3803 111.461 71.968 111.455 71.136 111.532L70.6486 111.572L70.4624 111.397L70.2786 111.493L70.4164 111.513L70.4031 111.33C71.2291 111.035 71.5665 111.011 72.4347 110.9Z" fill="#FDFDFE"/>
<path d="M56.8605 108.616C57.124 108.774 57.0407 108.716 57.2496 108.956C57.2858 109.578 56.9328 110.634 56.7576 111.294L56.7021 111.362L56.5924 111.311C56.5464 110.669 56.7675 109.315 56.8605 108.616Z" fill="#EEEDEF"/>
<path d="M59.8945 110.199L60.0272 110.322C60.2275 110.887 59.8558 111.961 59.682 112.571C59.6205 111.915 59.4729 111.01 59.5125 110.407L59.8945 110.199Z" fill="#EEEDEF"/>
<path d="M107.993 155.625C108.481 156.104 108.687 156.435 109.075 156.99L108.941 157.344C108.645 156.859 108.276 156.138 107.993 155.625Z" fill="#C3C3C5"/>
<path d="M121.08 64.0387C120.257 63.6929 118.975 63.1918 118.236 62.755C116.166 61.5313 114.487 58.8486 113.633 56.6245C111.796 51.8415 110.811 46.4534 110.05 41.3878C109.246 36.0333 108.896 30.058 106.587 25.0828C105.79 23.368 104.648 22.2093 103.403 20.8648L103.515 20.8286C105.705 22.55 107.601 25.4335 108.392 28.108C111.265 37.8271 110.591 48.5338 115.375 57.7226C116.553 59.9847 119.145 62.9514 122.005 62.5345C129.677 61.2958 130.636 50.9157 125.12 46.5648C123.015 44.9037 120.248 45.8376 118.86 47.9127C118.507 48.4429 118.25 49.0316 118.103 49.6517L117.857 49.6243C119.698 42.5954 126.158 43.8232 129.041 49.4416C131.942 55.0942 131.977 61.3268 127.621 66.2753C125.386 68.8135 122.679 69.9924 119.305 70.2391C123.18 70.9954 124.704 70.5566 128.083 68.5708C127.416 69.2796 126.65 69.8894 125.81 70.3821C121.092 73.1655 115.891 71.0655 112.268 67.6117C111.927 67.2859 111.492 66.5126 111.239 66.087C114.562 69.0793 119.238 70.2138 123.304 68.1641C126.31 66.6477 128.572 64.4614 129.738 61.2681C128.55 62.8215 127.483 64.2113 125.532 64.8486C123.181 65.6165 119.922 65.1773 117.733 64.0837C107.033 58.7353 108.872 37.8168 105.525 27.9445C107.407 30.2852 108.424 42.5031 109.294 46.0823C110.649 51.6466 112.116 58.9721 116.975 62.8631C117.814 63.5353 120.026 63.864 121.08 64.0387Z" fill="black"/>
<path d="M129.409 52.9634C129.828 53.8342 129.964 56.8368 129.952 57.9043C129.933 59.5457 129.344 61.2257 128.071 62.3307C125.954 64.1688 124.398 64.3357 121.771 64.2215C121.606 64.1764 121.52 64.1315 121.364 64.0637C121.64 63.858 121.697 63.9312 122.049 63.8903C128.072 63.189 130.006 58.3528 129.409 52.9634Z" fill="#FDFDFE"/>
<path d="M105.168 108.294L105.016 108.189C103.207 106.951 99.2028 105.425 99.1943 102.776L99.3346 102.663C100.213 103.047 101.926 105.408 102.902 106.291C104.998 107.908 107.335 109.359 110.13 108.994C110.436 108.952 110.741 108.908 111.044 108.858L111.088 108.911C109.678 109.548 107.986 109.261 106.52 108.932C103.053 108.151 100.572 108.362 98.7288 104.799C99.666 105.534 100.525 106.791 101.592 107.325C102.577 107.816 104.062 108.047 105.168 108.294Z" fill="black"/>
<path d="M51.2683 112.005L51.3676 112.563C50.5272 113.867 48.099 116.135 46.4546 115.998L46.4964 115.888C47.9873 115.372 50.9326 113.598 51.2683 112.005Z" fill="#1E1E1E"/>
<path d="M71.0732 101.189C71.6428 103.067 72.0334 105.066 71.9355 107.035C71.8145 107.723 71.7867 108.231 71.7432 108.92C71.6936 107.913 71.7444 106.678 71.6549 105.698C71.5207 104.236 71.2776 102.65 71.0732 101.189Z" fill="#1E1E1E"/>
<path d="M117.857 49.624L118.103 49.6515L118.064 50.0471C117.918 51.522 118.057 52.0295 118.432 53.4879C117.722 52.2847 117.71 50.9532 117.857 49.624Z" fill="#464748"/>
<path d="M32.4937 107.352C33.4309 107.301 34.3407 107.347 35.2771 107.381C34.8678 107.628 34.7338 107.454 34.3601 107.67C33.6722 107.626 33.1603 107.499 32.4937 107.352Z" fill="#1E1E1E"/>
<path d="M81.9919 14.373L82.2628 14.5528C81.7936 14.9378 81.322 15.3201 80.8492 15.6998L80.6496 15.6637L80.7077 15.7904L80.542 15.8103C80.6726 15.8244 80.6085 15.8363 80.7318 15.765L80.7016 15.5887C80.9979 15.2438 81.6352 14.698 81.9919 14.373Z" fill="#1E1E1E"/>
<path d="M80.9627 98.7922C80.7825 97.7542 80.664 97.0048 80.583 95.96C80.8079 96.6952 81.0123 97.5453 81.2094 98.2968L80.9627 98.7922Z" fill="#1E1E1E"/>
<path d="M90.0386 97.251C90.3832 97.7447 90.8319 98.522 91.3216 98.7859C91.0181 98.9479 91.0435 98.8757 90.873 99.1206C90.5283 98.5154 90.2974 97.8954 90.0386 97.251Z" fill="#1E1E1E"/>
<path d="M89.1221 97.5259C89.3772 97.9019 90.1935 99.1827 90.4196 99.4248L90.0206 99.5013C89.5707 98.7121 89.4401 98.3844 89.1221 97.5259Z" fill="#1E1E1E"/>
<path d="M71.743 108.919C71.7865 108.231 71.8144 107.723 71.9353 107.035C71.9425 107.84 71.945 108.646 71.9401 109.451L71.3899 109.612C71.7974 109.234 71.6886 109.46 71.743 108.919Z" fill="#6D6C73"/>
<path d="M38.0309 15.4023C33.0665 21.4125 29.7146 28.5998 27.4682 36.0248C26.8656 38.0082 26.3749 40.0239 25.9983 42.0624C24.7392 49.2233 24.3187 58.6779 18.1932 63.5376C10.4108 69.712 3.7803 60.7221 5.81531 52.9836L5.88715 53.0004C5.93818 56.5063 6.43786 59.7394 9.06822 62.3387C13.284 66.5047 18.7435 62.831 21.0761 58.6754C24.2627 53.3771 23.9738 47.9903 25.0111 42.2542C25.6758 38.572 26.6743 34.958 27.9943 31.457C29.9791 26.2098 32.7205 21.0315 36.2449 16.6556C37.4734 15.1302 38.9747 13.7041 40.2105 12.1389C44.2376 6.93445 48.8581 2.81048 55.4116 1.20976C57.7112 0.648112 59.0064 0.465856 61.4005 0.166334C67.6937 -0.621138 81.0086 2.94348 81.2275 10.9967C81.2674 12.5653 80.6688 14.0832 79.5696 15.2022C78.0458 16.7829 75.7554 17.5617 73.6222 17.8162L73.1022 17.8795L73.2268 17.8263C75.88 16.7175 78.5755 16.5255 79.8392 13.4277C81.8709 8.44743 76.4351 4.79592 72.8301 3.18927C74.8243 5.3992 76.2682 7.29158 76.1473 10.4251C75.978 14.805 71.899 16.6618 69.1312 19.1288C71.5277 15.2112 73.8532 12.8743 72.477 8.00353C70.8082 2.09828 66.573 1.2019 61.4455 0.887125C63.5519 1.42881 64.8768 1.5877 66.8246 2.62351C70.241 4.44049 72.003 7.49828 71.5495 11.3923C71.1202 15.0786 70.9726 17.0184 67.3514 18.6365L67.44 18.541C67.9274 18.0221 68.82 17.3564 69.1674 16.8279C71.4467 13.3613 71.6027 7.85528 68.268 4.96559C66.5577 3.48371 64.5274 2.44706 62.3469 1.92716C61.4402 1.71865 60.6602 1.80941 59.9284 1.33078C59.2133 0.863042 55.8313 1.69928 54.9704 1.98416C51.2353 3.22001 46.6432 5.67767 44.5823 9.11352C49.9523 7.02074 55.2725 6.96277 60.5457 9.28646C64.2244 10.9075 67.0135 14.0649 65.1876 18.2042C65.491 16.6056 65.7146 14.8766 64.6142 13.4856C60.3519 8.09756 49.814 6.86547 44.1784 10.5529C43.6668 10.8877 42.025 12.2046 41.9489 12.772C41.9903 12.7666 45.3561 11.027 46.0135 10.7505C50.3896 8.91069 62.8492 9.91273 64.2105 15.4864L64.1397 15.7306L64.024 15.7759C63.479 14.5364 63.1968 13.8103 61.9148 13.1742C53.5713 9.03437 41.9443 9.40965 38.5874 19.6812C37.6768 22.4676 37.2423 25.1356 36.8964 28.033C36.4478 31.8663 36.1559 35.7164 36.0215 39.5737C35.8344 45.7344 36.0433 49.7971 34.9421 56.0067L33.7302 56.1862C34.2137 54.0966 34.4279 51.0866 34.6494 48.8682C34.6028 48.4152 34.6175 48.3221 34.3844 47.9184C33.3122 56.0898 30.803 68.2301 24.198 73.8915C20.9105 76.7094 15.4117 79.2143 10.9888 78.1442L11.3026 77.8162C14.6714 77.8826 17.1091 77.2027 19.7741 75.0223C18.1203 75.5968 13.8421 75.9416 12.1043 75.5211L11.9776 75.3842L11.8917 75.4324C12.1419 75.4102 12.3166 75.3849 12.5646 75.3428C12.4379 75.0998 11.8956 74.8703 11.6125 74.7304C6.56544 72.2358 2.9922 66.3444 3.29416 60.6972C3.80303 62.0961 4.02373 63.9606 4.68909 65.2838C6.3202 68.4704 8.41386 71.9586 11.9263 73.2505C17.5104 75.3044 22.9144 71.5985 24.4729 66.1699C24.6254 65.6385 25.2372 64.0256 25.0365 63.5888L24.8292 63.2275C25.4163 62.661 25.4729 62.0584 25.6178 61.2535C26.2282 57.8645 26.4435 53.341 27.0399 50.0629C27.426 47.9402 28.397 42.2818 28.8714 40.534C29.9104 36.706 33.165 23.1787 35.0354 20.6971L35.1878 20.6785L35.181 21.0536L35.3254 21.3523C35.6839 20.2611 35.9568 19.4623 36.4618 18.435C36.9409 17.4603 37.6235 16.3804 38.0309 15.4023Z" fill="black"/>
<path d="M34.4135 23.4463L34.6386 23.6278C33.6497 26.3292 33.0654 33.3973 32.7778 36.2512C32.1826 42.1573 30.0442 56.606 26.4324 61.2023C27.04 57.7494 27.1514 54.0939 27.7699 50.6802C28.9118 44.3779 30.2489 38.2618 32.0504 32.1151C32.8841 29.2711 33.476 26.2824 34.4135 23.4463Z" fill="#FDFDFE"/>
<path d="M34.9784 42.0347L35.0862 42.4763C34.9765 44.6807 34.8322 46.6774 34.6494 48.8676C34.6027 48.4147 34.6174 48.3216 34.3843 47.9179C34.5283 46.2933 34.6999 43.5611 34.9784 42.0347Z" fill="#EEEDEF"/>
<path d="M34.4136 23.4464C34.671 22.6065 34.8152 21.8604 35.181 21.0532L35.3254 21.3519C35.0307 22.1868 34.8579 22.7693 34.6386 23.6279L34.4136 23.4464Z" fill="#C3C3C5"/>
<path d="M34.9784 42.0349C34.9516 41.391 34.8166 40.8693 35.1362 40.3817L35.0938 40.3003C35.336 40.6429 35.1886 42.0524 35.0862 42.4765L34.9784 42.0349Z" fill="#6D6C73"/>
<path d="M34.3116 32.0789L34.6187 31.7363C34.3707 36.3065 33.9261 39.7564 33.3785 44.2357C32.4307 51.9886 31.2163 58.7318 26.994 65.4858C26.1953 66.7636 25.6627 67.7909 24.6133 68.9353C25.572 66.7829 26.1039 65.0831 26.3131 62.7154C31.6378 55.6778 32.4233 46.0675 33.7107 37.5917C33.8515 36.665 34.3907 32.7991 34.3116 32.0789Z" fill="#FDFDFE"/>
<path d="M70.7153 2.87256C71.3695 2.97458 72.4893 3.99404 72.9331 4.50281C74.4774 6.27114 75.313 8.73073 75.128 11.0751C74.9224 13.6873 73.1411 15.1354 71.3042 16.7009C71.0128 16.971 70.5992 17.2519 70.269 17.4914C72.4095 15.0798 73.4108 13.7028 73.6914 10.317C73.9671 6.97849 72.7687 5.26257 70.7153 2.87256Z" fill="#FDFDFE"/>
<path d="M28.9954 64.3784L29.0696 64.4883C28.6178 66.6717 25.1985 71.4895 23.5117 73.1074L23.4365 73.0436C23.5263 72.3716 25.8883 69.5384 26.4765 68.6815C27.5225 67.1575 28.1295 66.0033 28.9954 64.3784Z" fill="#EEEDEF"/>
<path d="M37.0003 20.2734L37.1579 20.5023C36.4006 22.3352 35.9559 25.5675 35.1663 27.1103C35.4751 24.4555 36.1278 22.7721 37.0003 20.2734Z" fill="#EEEDEF"/>
<path d="M21.1819 72.9893L21.247 73.0665C21.1666 73.479 20.8709 73.7455 20.5913 74.0795C19.9871 74.3118 19.4173 74.4071 18.7851 74.5396L18.7263 74.5083C18.8279 74.261 20.7813 73.2198 21.1819 72.9893Z" fill="#FDFDFE"/>
<path d="M37.0005 20.2735C37.2671 19.5323 37.5528 18.9531 37.9237 18.2593C37.7251 19.1986 37.536 19.6092 37.1581 20.5024L37.0005 20.2735Z" fill="#6D6C73"/>
<path d="M34.3115 32.0792C34.3898 31.3445 34.371 30.6651 34.651 29.9937C34.7668 30.1276 34.7355 30.0497 34.744 30.2279L34.5458 30.2266L34.7437 30.36C34.724 30.8863 34.6933 31.2151 34.6186 31.7366L34.3115 32.0792Z" fill="#6D6C73"/>
<path d="M34.9724 56.8049C41.7905 52.4431 48.9487 48.3119 57.3499 50.4754C59.3068 50.9795 60.3416 51.5219 61.7934 52.9537C62.323 55.1714 62.3978 55.8417 62.4262 58.0937C62.2491 59.6468 61.8608 60.103 61.526 61.4921C60.8003 64.5036 60.4915 66.6931 58.9489 69.4769C57.4735 72.1394 54.0323 73.3661 51.257 74.1591C48.5483 74.9332 42.8133 75.0602 40.3046 73.5126C36.8378 71.374 35.8321 66.974 35.524 63.1847C35.3316 60.8194 35.5438 59.1829 34.9724 56.8049Z" fill="black"/>
<path d="M51.8286 51.9692C54.4628 52.0427 57.2506 52.3641 59.3122 54.1841C61.3421 56.0355 60.4435 58.8296 60.1409 61.075C59.4831 65.9561 58.6124 70.4196 53.4545 72.2887C50.9009 73.2141 48.9858 73.2369 46.2857 73.2428C44.2725 73.2215 42.1572 72.9342 40.5868 71.5029C37.1976 68.4137 35.9607 60.0453 39.1817 56.5947C42.2147 53.3453 47.4861 52.1803 51.8286 51.9692Z" fill="#FDFDFE"/>
<path d="M53.7076 56.8825C56.3858 56.7903 57.0937 59.696 55.0409 61.2758C54.9056 61.2904 54.7733 61.3039 54.6367 61.3088C54.0875 61.33 53.5544 61.1201 53.1668 60.7301C52.0239 59.5741 52.6484 57.8656 53.7076 56.8825Z" fill="black"/>
<path d="M38.7388 58.4087C39.1256 59.6274 40.1334 68.5904 40.1041 70.0105L39.9041 69.8117C38.128 66.5905 37.281 61.896 38.7388 58.4087Z" fill="black"/>
<path d="M49.9717 12.6577C51.4312 12.4611 53.1877 12.7169 54.6009 13.0644C56.3104 13.4847 63.2374 15.1811 63.5318 17.0783C63.4047 17.237 63.4028 17.3913 62.9964 17.1804C61.118 16.2049 59.4453 15.623 57.2798 15.9136C53.6706 16.3982 47.3021 21.831 45.2374 24.7713L45.1302 24.9261C46.1498 24.1949 46.8742 23.3763 47.9536 22.8519C47.6744 23.4729 47.1911 24.26 46.7873 24.807C43.3531 29.4575 41.773 34.2848 39.7772 39.6208C38.7787 42.5782 38.067 45.1185 37.677 48.2317C37.4866 49.7505 37.7257 54.4286 36.4031 55.0454C35.8825 54.4539 36.4765 48.4155 36.5335 47.199L37.0554 34.7521C37.5013 25.0637 37.7664 13.6013 49.9717 12.6577Z" fill="black"/>
<path d="M51.2629 13.9222C54.1054 13.8393 55.5146 14.3264 58.254 15.1255C48.9856 17.5251 49.0002 16.9548 42.2418 24.2378C43.7664 21.0687 48.1745 17.8171 51.218 16.2298C52.6601 15.4795 54.0553 15.047 55.4797 14.3021C55.254 14.3175 55.0287 14.3389 54.8042 14.3664C50.6046 14.8866 46.1626 17.5143 43.3006 20.5738C42.6548 21.2641 41.714 22.6454 41.0792 23.4565L41.0371 23.231C41.9026 20.6749 45.3448 17.7351 47.5325 16.3144C48.7178 15.5447 50.0169 14.9528 51.1249 14.038L51.2629 13.9222Z" fill="#FDFDFE"/>
<path d="M47.6361 20.0962L47.7001 20.1952C47.6778 20.2714 43.3217 25.2924 42.7937 26.0888C40.9859 28.8159 40.1888 31.3608 38.8621 34.2327L38.8 34.3651L38.7266 34.2583C38.7564 34.0784 38.7887 33.8989 38.8237 33.7198C39.6581 29.4621 42.356 24.8041 45.5487 21.937C46.2783 21.2818 46.7966 20.6582 47.6361 20.0962Z" fill="#FDFDFE"/>
<path d="M40.5687 33.4863C40.7991 34.3193 39.3026 38.5136 38.8912 39.4932C38.6035 38.4693 40.1224 34.6227 40.5687 33.4863Z" fill="#FDFDFE"/>
<path d="M46.3164 14.9824L46.434 15.0162L46.4313 15.1584C45.4711 16.0219 44.5658 16.8052 43.3819 17.335L43.2117 17.2335C43.4113 16.6827 45.697 15.3249 46.3164 14.9824Z" fill="#FDFDFE"/>
<path d="M63.9242 51.7887C64.1489 51.5208 64.377 51.2558 64.6083 50.9937C64.6467 51.0624 64.6851 51.1311 64.7236 51.1997C64.3278 54.0173 63.5229 59.048 63.3626 61.6639C63.0141 67.3581 62.7705 76.3555 65.4027 81.3088C68.1115 79.3431 71.6089 77.1625 74.8861 76.4255C75.1074 76.3757 75.209 76.1207 75.3021 75.9538C75.4484 72.4906 71.4239 74.2452 70.1202 76.144C69.6474 75.1591 71.8145 73.973 72.5304 73.7644C75.1896 72.9885 77.0362 74.7939 75.0457 77.1972C77.0326 77.1633 78.7426 77.1753 80.6617 77.7623C79.5758 77.7356 75.3674 77.3542 74.7748 77.4984C71.8471 78.21 68.0487 81.0951 65.3172 82.4354C65.2775 82.52 65.1989 82.6674 65.1814 82.75L65.3633 82.9596C65.1291 83.4983 64.8063 84.0815 64.3411 84.4534L64.3007 84.279L63.8302 84.3379C63.5033 84.905 63.0966 85.8004 62.4222 85.937C62.2623 85.3207 63.2109 83.645 63.476 82.7932L63.3455 82.8051C62.837 83.5422 62.685 83.7672 62.0114 84.3575L61.8638 84.4854C63.4506 81.2627 64.209 82.1414 62.6851 78.2167C62.8437 77.8392 62.1795 73.7809 62.1257 72.8451C61.829 67.6882 61.9411 63.4854 62.7073 58.4164L62.4263 58.0942C62.3979 55.8422 62.323 55.1718 61.7935 52.9542L61.9631 52.951C62.0649 52.5374 62.053 52.5284 62.281 52.1447C62.6571 51.8681 63.1106 51.9191 63.5922 51.905L63.9242 51.7887Z" fill="black"/>
<path d="M63.5922 51.9049L63.9242 51.7886C63.3285 54.2 63.2008 56.2813 62.7073 58.4162L62.4263 58.094C62.3979 55.842 62.323 55.1717 61.7935 52.954L61.9631 52.9508C62.0649 52.5372 62.053 52.5282 62.281 52.1445C62.6571 51.868 63.1106 51.9189 63.5922 51.9049Z" fill="#EEEDEF"/>
<path d="M63.5922 51.9048C63.3449 53.0196 62.9918 54.5986 62.8702 55.7083C62.64 54.5935 62.5961 53.8864 61.9631 52.9508C62.065 52.5371 62.053 52.5282 62.2811 52.1444C62.6571 51.8679 63.1106 51.9188 63.5922 51.9048Z" fill="black"/>
<path d="M65.0761 82.8422L65.1813 82.75L65.3632 82.9596C65.1289 83.4983 64.8062 84.0814 64.3409 84.4533L64.3005 84.279C64.3762 83.9961 64.885 83.2064 65.0761 82.8422Z" fill="#1E1E1E"/>
<path d="M65.0761 82.8423C64.8851 83.2064 64.3763 83.9962 64.3006 84.279L63.8301 84.338C64.1979 83.6469 64.3888 83.2056 65.0761 82.8423Z" fill="#EEEDEF"/>
<path d="M59.3146 16.0835L59.4768 16.1067C59.5288 16.6678 55.3885 18.4425 54.6912 18.8263C51.5121 20.5781 48.542 23.2519 46.8259 26.5985C43.2286 33.6134 40.4365 41.9113 38.9033 49.6665C38.6124 51.1375 38.8831 52.3017 37.9703 53.4855L37.7362 53.4075C37.656 53.1686 37.9167 51.3713 37.9554 50.9309C38.6459 43.8567 40.6072 36.9651 43.7446 30.5881C45.0036 27.9786 47.5578 23.9099 49.1984 21.5231C50.9426 18.9858 56.4181 17.0963 59.3146 16.0835Z" fill="black"/>
<path d="M33.8428 56.9268C34.1208 57.0261 34.1121 57.0106 34.3281 57.2074C34.6869 58.8546 33.7121 61.9573 33.198 63.5317C30.8726 70.6542 26.637 75.7506 19.9247 79.0964C17.4703 80.3199 15.7179 80.6125 13.0337 80.4817C12.5349 80.4575 11.7042 80.5269 11.257 80.3694C11.5865 80.1722 11.7951 80.2522 12.249 80.2513C12.2324 80.0634 11.0806 79.1626 10.7695 78.852C13.2605 80.3401 14.5803 79.872 17.1276 79.0394C25.0109 76.4644 29.7524 70.0416 32.3269 62.4532C32.8773 60.8308 33.1276 58.3263 33.8428 56.9268Z" fill="black"/>
<path d="M86.4024 79.0075C86.7084 78.9989 86.764 79.075 86.9188 79.2696L86.8414 79.5407C85.1266 81.39 78.6919 84.7198 76.1729 85.8863C68.1937 89.581 60.2829 89.7412 52.126 86.5897C51.5548 86.3836 51.4114 86.389 51.1536 85.8914L51.2764 85.7377C51.9426 85.7198 54.4673 86.6955 55.2972 86.9133C65.3699 89.5572 74.4315 86.2059 83.0031 81.106C84.1301 80.4358 85.2439 79.6851 86.4024 79.0075Z" fill="black"/>
<path d="M72.182 79.1723C74.4857 78.1407 74.0105 77.9856 76.729 78.2767C79.7075 78.5955 81.987 78.1715 84.8748 79.5437C81.4283 79.2057 81.23 78.9898 77.5428 79.2895L78.0193 79.5636C79.231 79.4073 81.9544 79.7958 83.2266 80.0658C81.2953 80.1599 79.3604 80.0398 77.457 79.7072C79.8163 80.7839 80.6495 80.4616 83.0754 80.8928C81.7137 81.014 80.4802 80.9868 79.1161 80.9763C78.9964 81.0935 78.6046 81.4605 78.52 81.5676C77.7303 81.9311 74.597 81.9472 73.6852 81.9456C74.6852 82.2305 75.6382 82.4563 76.5597 82.9421L76.4484 83.0131C74.129 82.7747 71.7213 81.4459 69.5784 80.4449C70.6692 80.1066 71.0078 79.9096 72.0212 79.2999L72.182 79.1723Z" fill="black"/>
<path d="M70.8276 80.0996C73.3261 80.5123 76.5827 80.9029 79.1162 80.9764C78.9965 81.0935 78.6047 81.4606 78.52 81.5677C75.9986 80.9774 73.3841 81.2068 70.8276 80.0996Z" fill="#EEEDEF"/>
<path d="M72.0212 79.2999L72.1821 79.1724C73.5353 80.1169 76.6311 79.764 78.8441 80.4634C77.0181 80.3696 73.3309 80.4386 72.0212 79.2999Z" fill="#EEEDEF"/>
<path d="M74.4954 79.0972C75.7205 79.2673 76.3154 79.2713 77.5429 79.2898L78.0193 79.5639C76.6528 79.7777 75.6926 79.5545 74.3479 79.3114L74.4954 79.0972Z" fill="#EEEDEF"/>
<path d="M74.3479 79.3113C73.9295 79.2993 73.8001 79.3224 73.4131 79.1455L73.5957 79.0324C74.0383 79.0034 74.0431 78.988 74.4954 79.0971L74.3479 79.3113Z" fill="#464748"/>
<path d="M56.7156 36.3543C57.7621 36.2773 60.3161 36.301 60.0751 37.9084L59.8147 38.0362L59.6559 37.4662C57.0106 35.4411 51.1194 40.0826 49.1805 41.7764C48.5244 42.3482 47.5209 43.9047 46.6974 43.3447C46.4047 42.8156 46.4347 42.1737 46.3958 41.5477C49.4069 38.6424 52.4704 36.7318 56.7156 36.3543Z" fill="black"/>
<path d="M102.99 78.4521C103.554 78.8306 103.842 80.3294 104.07 81.0231C104.486 82.2636 105.001 83.4684 105.612 84.6255C107.611 88.4401 110.228 91.2141 114.331 92.7821C114.799 92.9608 115.804 93.1157 116.115 93.3756C110.413 94.1639 105.25 87.8388 103.609 83.0223C103.04 81.3501 102.891 80.1957 102.99 78.4521Z" fill="black"/>
<path d="M62.5275 78.3846L62.6851 78.2163C64.2091 82.1411 63.4506 81.2624 61.8639 84.4851L61.2629 85.215L61.1157 85.2231C61.1122 85.0622 61.1087 84.9015 61.1052 84.7408C62.076 83.8163 62.7391 81.8869 63.3338 80.6237C62.9372 81.0075 62.3635 81.6113 61.8675 81.7882L61.8097 81.6357C61.9634 81.194 62.4602 80.696 62.783 80.323L62.7055 80.2206C62.796 79.9091 62.7703 79.7004 62.7763 79.3703L62.4862 79.2066C61.9646 79.5239 61.3527 79.7764 60.9481 80.2116L61.4878 79.9777C59.1329 81.7299 57.095 83.3469 54.5151 84.7755L54.432 84.7153C55.7066 83.75 56.9696 82.7791 58.2212 81.7846C58.7662 81.3515 59.3481 81.0681 59.8631 80.6245C58.7226 80.7479 53.7725 84.3269 52.4653 85.2398C52.9614 84.5688 53.3181 84.0093 54.0252 83.5443C53.9222 83.4587 53.8092 83.419 53.6859 83.3685L53.6139 83.1914C55.8297 80.3426 59.2481 79.3591 62.5275 78.3846Z" fill="#EEEDEF"/>
<path d="M54.0252 83.5443C55.0073 83.0463 56.495 81.8199 57.6107 81.1965C59.2453 80.2833 60.6426 79.8086 62.3584 79.0752L62.4862 79.2066C61.9646 79.5239 61.3527 79.7764 60.9481 80.2116L61.4878 79.9778C59.1329 81.7299 57.095 83.3469 54.5151 84.7756L54.432 84.7153C55.7066 83.75 56.9696 82.7791 58.2212 81.7846C58.7662 81.3516 59.3481 81.0681 59.8631 80.6245C58.7226 80.7479 53.7725 84.3269 52.4653 85.2398C52.9614 84.5689 53.3181 84.0093 54.0252 83.5443Z" fill="black"/>
<path d="M62.5275 78.3848C61.7383 79.3599 59.1531 79.916 57.976 80.5188C57.023 81.0069 54.4679 83.0521 53.614 83.1915C55.8298 80.3427 59.2482 79.3592 62.5275 78.3848Z" fill="black"/>
<path d="M35.0713 75.2271C35.9823 77.3955 34.4766 81.9129 32.8245 83.6212C29.6166 86.9383 24.7228 88.084 21.0695 84.648C20.9402 84.455 20.8388 84.2633 20.7251 84.061L20.777 83.966C21.8396 84.7998 22.3418 85.1867 23.7156 85.4902C25.9904 85.9787 28.366 85.5322 30.3086 84.251C33.5853 82.102 34.299 78.8407 35.0713 75.2271Z" fill="black"/>
<path d="M71.154 89.8193L71.3632 89.8293L71.414 89.9929C71.1032 90.2636 69.4271 90.924 68.9402 91.1293C68.8638 92.1363 68.7417 97.5721 68.4524 98.0433C67.5018 97.1956 68.8719 91.916 68.1483 91.3081C68.031 91.3689 67.7007 91.5923 67.6846 91.7297C67.3885 94.254 67.6252 96.7707 66.954 99.2573C66.5681 96.4341 67.2056 94.3365 67.2736 91.7262L67.0281 91.6361C66.6986 91.8932 66.4438 94.8657 66.3253 95.576C66.1065 96.6038 65.8121 97.463 65.4042 98.4255C65.5226 97.2577 66.4463 92.6012 66.2494 91.8257C65.9164 91.7116 66.0786 91.7101 65.7466 91.832C65.1347 93.9745 65.3949 95.5152 64.4556 98.062C64.432 96.0165 64.9521 93.7465 65.3438 91.7257C63.5528 91.5489 62.5962 91.2894 60.9575 90.5786C65.7056 91.2071 66.6612 90.885 71.154 89.8193Z" fill="black"/>
<path d="M54.6297 3.80522C61.0358 3.6059 68.4851 6.97458 68.3867 14.4019C68.3753 15.2638 67.8943 16.2399 67.3939 16.9293L67.1791 16.8879C67.179 16.8834 67.6659 15.8701 67.7039 15.7589C67.8286 15.3942 67.8348 15.0912 67.8617 14.707C67.6772 12.4428 67.3157 10.5496 65.6613 8.78793C62.9035 5.9337 58.7493 4.79382 54.9217 4.38502C53.521 4.23532 52.276 4.50386 51.0471 4.46404L51.033 4.37594C51.9708 3.96387 53.558 3.90082 54.6297 3.80522Z" fill="black"/>
<path d="M55.9052 2.08108C62.0519 1.59035 69.7997 5.37316 70.2302 12.1615C70.2508 12.4857 70.1613 12.6256 69.963 12.8432L69.8626 12.6673C68.4574 6.07677 64.4945 4.24091 58.003 3.03386C57.2883 2.90099 55.5512 2.87581 55.053 2.40977C55.3006 2.13651 55.4635 2.18467 55.9052 2.08108Z" fill="black"/>
<path d="M62.7054 80.2207L62.783 80.3231C62.4602 80.6961 61.9634 81.1941 61.8097 81.6358L61.8675 81.7883C62.3634 81.6113 62.9371 81.0076 63.3338 80.6238C62.7391 81.887 62.076 83.8164 61.1052 84.7409C60.3905 85.5781 60.5218 85.5636 59.636 86.2369C60.1447 84.9615 60.5211 84.542 61.3347 83.4361L61.2571 83.2654C60.6976 83.8639 58.4468 85.9792 57.8018 85.8679L57.7573 86.0316L57.9599 85.954L57.7421 85.9963C57.9645 85.4041 59.5818 83.8025 60.1692 83.0525L59.9766 82.8068C58.5036 83.9814 57.3323 85.2923 55.907 86.4247C56.5849 85.3133 57.3989 84.474 58.2748 83.5279C56.8066 84.6817 55.9762 85.4977 54.2493 86.1995C56.0901 84.1075 60.0993 81.3457 62.7054 80.2207Z" fill="black"/>
<path d="M59.9766 82.8069C60.2916 82.4701 60.9156 81.7645 61.2471 81.5003L61.3987 81.5679L61.4836 81.4112L61.408 81.5675L61.5028 81.3989C61.1683 82.0834 60.6968 82.4842 60.1691 83.0526L59.9766 82.8069Z" fill="#EEEDEF"/>
<path d="M61.2571 83.2655C61.5022 82.8696 61.8502 82.2351 62.2584 82.0269C62.184 82.3941 61.6067 83.188 61.3347 83.4361L61.2571 83.2655Z" fill="#464748"/>
<path d="M4.35718 58.7583C4.66519 59.029 4.63931 59.3477 4.77342 59.741C5.96954 63.2504 7.48878 66.8331 11.6397 67.3951C14.5 67.7822 17.5911 67.0217 19.2924 64.4974C19.7395 63.834 20.2093 62.3482 20.7978 61.9119L20.7023 62.1249C20.0867 63.4431 19.8776 64.5022 18.8849 65.6364C16.1184 68.797 10.0452 69.1573 7.04062 66.1737C5.18397 64.33 4.37689 61.3452 4.35718 58.7583Z" fill="black"/>
<path d="M73.2523 27.9853C77.4485 27.7272 81.5626 29.2953 85.0212 31.5753C85.5412 31.9182 85.9439 32.2423 86.0721 32.8592C86.0068 33.2668 85.9596 33.2679 85.6863 33.5695C85.3163 33.6826 85.4021 33.6265 84.9365 33.4257C82.0898 31.4077 79.7716 29.7224 76.3058 28.8663C75.7047 28.7178 75.1642 28.5317 74.5281 28.4784C73.5691 28.3982 73.1579 29.047 72.3151 29.0398L72.2231 28.8839L72.3429 29.0627L72.2788 28.7798C72.6597 28.3269 72.7371 28.2828 73.2523 27.9853Z" fill="black"/>
<path d="M48.8162 108.408C49.2636 109.703 48.2507 110.558 47.2939 111.256C45.0913 112.866 42.968 113.43 40.2767 113.463C37.5507 113.497 36.1187 112.551 33.8596 111.214C33.6485 111.077 33.5762 111.013 33.3818 110.852L33.448 110.759C34.7586 111.082 35.9942 112.098 37.3251 112.347C41.8669 113.201 45.7068 111.68 48.8162 108.408Z" fill="black"/>
<path d="M49.7144 111.007C49.6686 111.291 49.5651 111.53 49.3991 111.752C45.9732 116.321 41.0392 116.763 35.8052 115.933C35.1516 115.829 34.431 115.382 33.8877 115.052C33.6393 114.864 33.6291 114.838 33.4307 114.592C33.6443 114.473 34.2451 114.773 34.514 114.85C39.0185 116.116 43.2525 115.596 47.0616 112.808C47.94 112.165 48.869 111.804 49.7144 111.007Z" fill="black"/>
<path d="M33.7805 75.4453L33.9307 75.5145C33.9601 75.8095 33.9881 76.1046 34.0143 76.3998C32.5186 84.4136 24.0378 87.8217 18.3882 81.6202L18.4401 81.5766C19.511 82.3543 20.5509 83.0981 21.7996 83.5696C27.3085 85.6496 32.7079 80.8984 33.7503 75.6055L33.7805 75.4453Z" fill="black"/>
<path d="M65.6273 11.3011C62.9528 6.5849 55.5614 6.3713 50.7311 6.42419C49.5409 6.43726 48.0361 7.05603 47.0857 7.07575C47.1643 6.95195 47.2249 6.87365 47.3701 6.81218C50.9264 5.30682 56.1794 5.36793 59.7996 6.42201C62.7093 7.26927 64.4825 8.62456 65.8645 11.1788L65.6273 11.3011Z" fill="black"/>
<path d="M101.863 93.6353C102.514 94.1248 103.129 94.8315 103.818 95.3507C107.279 97.962 111.587 100.484 116.054 100.115L115.828 100.313C114.175 100.959 113.094 101.091 111.313 100.698C108.052 99.9776 103.545 96.4255 101.863 93.6353Z" fill="black"/>
<path d="M99.9307 96.0723C100.285 96.3722 100.87 97.8711 101.26 98.3488C103.244 100.781 105.608 102.323 108.384 103.757C111.014 105.116 112.857 105.304 115.773 104.992L115.872 105.09C115.654 105.11 114.678 105.311 114.419 105.365C110.95 106.099 107.913 104.909 105.088 102.885C102.909 101.325 100.4 98.9044 99.9307 96.0723Z" fill="black"/>
<path d="M102.479 81.1792C102.592 81.3464 102.537 81.2356 102.595 81.4665C103.548 85.3015 105.05 89.0832 108.023 91.8095C109.131 92.825 110.452 93.5797 111.355 94.7917C110.955 94.5993 110.469 94.1541 110.054 93.9847C105.419 92.091 102.039 86.1578 102.479 81.1792Z" fill="black"/>
<path d="M75.8113 26.546C77.8102 26.5086 80.5602 27.4402 82.3983 28.2282C83.1747 28.5604 86.6805 30.1456 86.0722 31.2602C85.6332 31.231 85.1374 30.8245 84.748 30.566C84.5001 30.4048 84.251 30.2486 83.997 30.0972C81.6377 28.6935 77.6687 27.4649 74.8704 27.383C74.5173 27.3727 73.6478 27.5989 73.2717 27.6942C74.1702 27.1391 74.7483 26.7191 75.8113 26.546Z" fill="black"/>
<path d="M113.373 68.9565C113.896 69.1582 115.344 70.4968 115.92 70.8723C120.134 73.6261 124.428 74.3107 128.879 71.6439C129.398 71.3332 130.676 70.2753 131.04 70.1404L130.952 70.3921C130.663 70.6861 130.37 70.9759 130.074 71.261C124.559 76.5086 117.992 73.8299 113.373 68.9565Z" fill="black"/>
<path d="M99.9248 93.8604C100.335 94.134 100.96 95.2379 101.352 95.6698C101.74 96.0964 102.155 96.5277 102.589 96.9174C105.203 99.2676 108.552 101.95 112.088 102.63C113.331 102.87 114.554 102.817 115.792 102.78L115.93 102.913C113.338 103.422 111.532 103.318 109.083 102.26C105.454 100.695 101.458 97.5978 99.9248 93.8604Z" fill="black"/>
<path d="M100.769 100.046C101.259 100.391 101.708 101.669 102.128 102.107C104.283 104.353 106.919 106.601 109.891 107.51L110.044 107.556L110.096 107.758C108.052 107.678 106.128 106.71 104.478 105.552C103.195 104.651 99.3733 101.916 100.769 100.046Z" fill="black"/>
<path d="M56.8524 34.1679C57.8182 34.0998 59.731 34.2583 60.1466 35.2997C59.5689 35.0427 58.9201 34.6934 58.288 34.65C54.7848 34.4091 50.9175 37.0954 48.2966 39.0962C47.698 39.6241 46.5921 40.6898 45.8613 40.91L45.8071 40.7527C45.8688 40.6212 45.9929 40.353 46.0899 40.2438C48.8899 37.0961 52.7738 34.7582 56.8524 34.1679Z" fill="black"/>
<path d="M48.7175 102.111C49.1689 103.764 48.3442 106.564 47.201 107.829C45.1598 110.087 42.424 110.347 39.5957 110.579L39.5071 110.512C39.5337 110.466 39.5603 110.42 39.5869 110.375C41.173 109.96 42.9444 109.486 44.3742 108.726C47.48 107.075 47.7862 105.032 48.7175 102.111Z" fill="black"/>
<path d="M79.7027 41.4067C81.1708 41.2493 82.1684 41.3771 83.5482 41.9034C84.9522 42.4392 87.1713 44.1897 87.7469 45.5667L87.6043 45.6456C86.4687 45.2421 85.3187 44.1005 84.2871 43.343C80.9398 41.2378 77.9238 41.6713 75.5112 44.8392C76.4726 42.7754 77.4908 41.9856 79.7027 41.4067Z" fill="black"/>
<path d="M83.8396 18.7222C85.4431 18.8535 87.4578 19.9475 88.6042 21.0577C91.8706 24.2212 92.4281 27.223 92.5792 31.4884C92.3108 31.1902 92.1681 29.0919 92.0858 28.5639C91.9238 27.5623 91.6432 26.5836 91.249 25.6485C89.6999 22.0061 87.3816 20.1349 83.8396 18.7222Z" fill="black"/>
<path d="M71.812 84.1817C71.0913 84.2924 67.7251 82.3194 67.5535 81.752C67.9522 81.4778 67.8091 81.6555 68.2966 81.6841C68.3573 81.6876 68.3269 81.4373 68.7258 81.2363C69.1899 81.5893 73.2777 84.2848 73.2547 84.2463C72.7347 84.2528 72.4904 84.1155 71.9922 83.929L71.812 84.1817Z" fill="black"/>
<path d="M67.959 81.5391C69.5724 82.2087 70.5024 83.0611 71.9922 83.9286L71.8121 84.1813C71.5823 83.9131 68.7345 82.1906 67.959 81.5391Z" fill="#EEEDEF"/>
<path d="M34.8124 83.27L34.8532 83.3976C34.1636 84.083 33.3893 84.8619 32.7296 85.57C30.7285 87.718 29.6794 88.463 26.69 88.1851L26.4114 88.024C26.9128 87.9922 27.8045 88.0128 28.2099 87.8989C30.423 87.2768 32.9404 84.7753 34.8124 83.27Z" fill="black"/>
<path d="M69.6355 80.6538C70.6017 81.7075 74.8984 83.2215 75.2684 83.63L75.0544 83.6856C73.498 83.5521 70.3598 82.0045 68.9717 81.1389C69.1419 80.8654 69.322 80.828 69.6355 80.6538Z" fill="black"/>
<path d="M67.0452 81.8882C67.2787 82.0986 67.2101 82.3232 67.4459 82.5197C68.345 83.269 69.3344 83.8789 70.125 84.7504C69.1619 84.3099 68.773 84.0596 67.9942 83.4033C67.7857 83.1671 67.7465 83.1303 67.4991 82.9352L67.3037 83.0385C67.0167 83.5464 66.7913 84.8029 66.6113 85.4816C66.6226 84.8089 66.6291 84.136 66.6307 83.463C66.6382 82.6605 66.5523 82.3708 67.0452 81.8882Z" fill="black"/>
<path d="M76.0891 99.4478C76.1629 99.5866 77.5209 106.37 77.6286 107.002C76.5051 105.903 76.1532 101.09 76.0891 99.4478Z" fill="black"/>
<path d="M77.2998 99.939C77.688 100.56 78.9191 105.422 78.8429 106.291C78.1802 105.785 77.3857 100.974 77.2998 99.939Z" fill="black"/>
<path d="M38.3142 72.5674C39.1757 73.1041 39.6114 75.6375 39.8211 76.6363C38.9167 75.9466 38.3461 73.6717 38.3142 72.5674Z" fill="black"/>
<path d="M26.4541 76.1123L26.4985 76.1459L26.5148 76.2849C25.3035 77.3058 24.1584 77.9148 22.7916 78.7009L22.6899 78.4859C23.3815 77.9574 25.449 76.8032 26.4541 76.1123Z" fill="#464748"/>
<path d="M10.9888 78.1439C10.3074 78.0121 8.63299 77.5251 8.17236 77.0337C9.41746 77.2688 9.67843 77.6291 11.3026 77.816L10.9888 78.1439Z" fill="#1E1E1E"/>
<path d="M65.8646 11.1787C66.5631 12.576 66.7007 13.1904 66.9046 14.7604C66.5211 13.5987 66.1618 12.3982 65.6274 11.3011L65.8646 11.1787Z" fill="#1E1E1E"/>
<path d="M25.0365 63.5884C24.206 63.9585 24.0622 64.2102 22.928 64.6241C23.4301 64.3349 24.3273 63.6097 24.8292 63.2271L25.0365 63.5884Z" fill="#1E1E1E"/>
<path d="M33.7807 75.4453C33.7844 74.9898 33.7444 74.1138 33.8962 73.7285C34.1669 74.3656 34.1521 75.7141 34.0145 76.3998C33.9882 76.1046 33.9603 75.8094 33.9309 75.5145L33.7807 75.4453Z" fill="#1E1E1E"/>
<path d="M66.1852 82.625L66.3068 82.7858C65.9327 83.5204 65.7775 83.7939 65.5569 84.5919L65.4463 84.4788C65.5536 83.6643 65.4638 83.0458 66.1852 82.625Z" fill="black"/>
<path d="M101.077 92.0596C101.335 92.23 101.498 92.8876 101.802 93.3674L101.684 93.3988C101.257 93.0524 101.182 92.5929 101.077 92.0596Z" fill="#C3C3C5"/>
</g>
<defs>
<clipPath id="clip0_2473_2717">
<rect width="156" height="228" fill="white"/>
</clipPath>
</defs>
</svg>
