<svg width="156" height="234" viewBox="0 0 156 234" fill="none" xmlns="http://www.w3.org/2000/svg">
<g clip-path="url(#clip0_2473_2003)">
<path d="M94.9376 50.9565L95.1587 51.5087C95.7164 51.3996 96.2256 50.4486 97.0317 49.9933C100.544 48.0113 105.022 48.8999 108.252 50.9416C103.423 49.4594 99.3059 48.8723 95.2419 52.2916C95.3351 55.5724 94.6904 59.2072 94.4135 62.5467C94.0955 66.3649 94.334 68.3608 94.7029 72.0983C98.2228 58.3332 116.063 60.0397 126.757 62.3459C128.278 62.6736 130.424 63.6407 131.512 64.761C131.85 66.2105 132.027 69.6307 131.229 71.0327C130.524 72.2679 128.673 72.4654 128.449 72.9557C128.063 73.8017 128.44 75.9907 128.389 76.9841C128.214 80.41 126.667 83.5922 124.995 86.4908C129.125 87.2948 129.968 93.0838 129.276 96.5167C128.666 99.5814 126.873 102.284 124.284 104.042C122.938 104.936 121.399 105.522 119.848 105.95C119.792 107.723 119.987 109.499 119.721 111.258C119.674 111.569 119.875 112.428 120.088 112.675C121.833 113.641 125.453 110.566 126.1 108.867L126.273 108.939C126.237 110.204 125.207 112.076 124.16 112.836C123.824 113.08 123.836 113.758 123.5 114.061C122.392 115.515 120.825 116.176 119.192 116.834C121.622 116.801 122.772 116.575 125.16 116.052C123.415 117.094 121.382 117.341 119.381 117.112C119.062 125.651 117.065 142.942 110.575 149.16C108.943 150.667 107.106 151.731 104.889 152.069C104.474 152.132 102.187 152.495 102.202 152.778C102.515 158.96 101.905 165.123 102.097 171.313L102.401 171.576C102.659 172.016 102.553 172.268 102.477 172.811C102.473 174.867 102.395 177.033 102.661 179.084C102.924 181.126 104.124 183.137 104.55 185.088C105.655 190.146 107.507 195.14 108.725 200.137L108.296 200.542L108.222 200.423C107.015 198.434 104.572 192.877 103.006 191.64L102.893 191.684C103.207 192.387 103.642 192.813 104.027 193.493C104.868 195.012 105.67 196.553 106.431 198.113C107.877 201.13 109.083 204.004 110.415 207.043C112.129 210.867 113.784 214.716 115.379 218.592L118.96 227.45C119.721 229.376 120.627 232.556 122.055 234H86.3986H84.692C84.0077 233.511 83.1631 232.948 82.5768 232.359C73.4528 223.205 63.5968 215.012 52.7821 207.917C51.9694 207.384 50.2348 205.827 49.7908 204.943C47.3695 200.13 45.6332 194.889 43.8561 189.807C42.8318 186.79 41.272 183.206 40.7408 180.117C37.4324 182.244 33.7947 184.082 30.4268 186.152C29.5663 186.68 28.2055 187.701 27.2522 188.158C27.129 188.136 27.0057 188.115 26.8825 188.092C26.0763 188.891 23.2795 190.341 22.1764 190.978C18.1108 193.273 14.0423 195.709 9.90345 197.857C8.52181 198.573 1.23924 203.182 0.0463867 202.708C0.325224 202.168 5.4957 199.154 6.52039 198.485L33.8774 180.438C36.5709 178.678 39.2934 176.963 42.044 175.292C43.4747 174.409 45.1686 173.427 46.5315 172.485C47.3341 171.929 48.7991 170.54 49.547 169.851C49.8486 167.371 49.6631 164.758 49.871 162.278C50.1542 158.901 51.7786 160.633 52.9046 159.762C54.1881 157.821 51.5079 133.599 50.9202 129.92C49.3916 132.22 46.7275 134.37 43.7034 133.805C43.2912 133.727 42.6444 133.404 42.4268 133.029C42.9589 132.773 43.6721 133.193 44.4771 133.085C47.636 132.661 49.5833 130.119 51.3534 127.712C50.9603 130.176 51.9605 133 52.4743 135.47C54.6817 146.079 55.627 156.874 55.6932 167.698C55.7016 169.07 56.4507 174.495 55.6041 175.122L55.3171 175.033C53.074 172.869 53.4294 168.05 52.815 165.194C52.696 164.642 52.3945 164.167 52.3271 163.749C52.5964 163.909 52.755 164.046 53.0658 164.05C53.2777 163.422 52.9874 161.645 52.8675 160.959L51.5569 161.236C51.7671 164.471 52.137 167.77 52.7492 170.966C52.8726 171.611 53.914 174.137 54.2202 174.929C55.8646 179.408 57.6618 183.455 59.9803 187.628C61.8388 190.972 61.8183 190.92 64.6088 193.442C66.2639 194.941 67.9063 196.455 69.5359 197.983C73.3261 201.549 76.3629 204.832 79.971 208.517C80.2468 207.37 80.3797 206.024 80.5225 204.844C81.0206 200.728 81.623 196.637 82.2452 192.538C82.7768 189.032 82.9308 184.844 84.7678 181.722C83.2153 180.692 77.826 178.975 75.8102 178.244C69.8981 176.1 63.9134 173.789 58.641 170.301C57.826 169.762 56.3449 168.841 56.1509 167.884L56.3195 167.779C56.9629 168.054 58.3044 169.105 58.9884 169.565C60.4797 170.554 62.0253 171.458 63.6179 172.275C66.7879 173.893 70.0331 175.358 73.3423 176.666C76.3244 177.848 79.3451 178.959 82.3371 180.109C83.1705 180.43 84.0772 181.117 85.0249 181.5C85.4646 181.355 85.7105 181.22 86.1564 181.327C89.3559 183.446 98.8488 214.69 100.76 220.207C100.374 206.085 100.724 191.981 100.862 177.855C100.902 173.758 100.709 155.714 101.734 152.954C101.749 152.916 101.766 152.877 101.781 152.838L101.674 152.7L101.427 152.733C100.503 153.755 101.274 159.08 100.44 160.258C99.953 160.441 98.0887 160.009 97.4565 159.863C88.8926 157.905 81.6664 152.607 75.4935 146.572C74.5582 145.656 70.3407 141.348 70.6438 140.089L70.8686 139.958C71.2463 140.061 74.3931 142.159 75.1457 142.57C77.3032 143.754 79.5065 145.11 81.8242 145.977L81.5546 143.998L82.2713 146.147C84.6175 147.269 87.0022 148.308 89.4205 149.263C89.9868 149.491 90.9271 149.991 91.4425 149.771C91.4823 149.584 91.5195 149.398 91.5518 149.209L91.7356 149.334L91.8275 150.03C92.1592 150.232 94.3178 151.061 94.6495 150.99C94.6917 150.075 94.8494 150.071 95.3661 149.319C95.3823 149.922 95.4692 150.514 95.5412 151.114C96.3088 151.308 97.1298 151.544 97.9086 151.65C97.9458 151.234 97.8763 150.744 98.3631 150.716C99.0326 151.211 98.2054 150.798 98.7035 151.654C99.2077 151.933 99.7679 151.846 100.37 151.834C100.462 150.991 100.251 148.74 101.017 148.317C101.922 149.133 101.806 151.028 102.133 151.625C103.229 152.15 106.44 150.655 107.441 150.008L107.46 149.827C107.26 149.494 106.733 148.744 106.929 148.373C107.297 148.6 107.467 149.085 107.667 149.492C107.996 149.585 107.911 149.614 108.265 149.434C110.025 148.539 114.613 141.6 113.614 139.995C113.67 139.944 114.246 139.456 114.231 139.495C114.481 138.82 114.757 137.469 114.906 136.821C116.087 131.712 116.942 126.532 117.463 121.315C118.233 113.138 118.362 104.632 118.545 96.4246C118.559 95.8009 118.508 95.1484 118.769 94.5728L118.964 94.5328C119.325 94.8633 119.357 95.2774 119.469 95.7602C119.932 94.2996 120.665 92.6932 121.901 91.7496C121.335 93.0098 120.712 94.2447 120.037 95.4508L120.112 95.5514C121.012 94.9827 121.371 92.9233 123.273 93.215C125.053 93.488 125.16 97.0728 123.96 97.6442C123.292 97.1425 124.194 95.3959 123.508 94.0635C122.19 93.0765 121.335 95.2562 120.422 95.9852C120.093 95.9643 119.947 95.9128 119.668 96.0712C119.613 96.6292 119.76 98.2794 119.785 98.9436C119.844 100.898 119.889 102.853 119.921 104.808C125.61 103.17 129.142 97.1907 127.59 91.4445C127.265 90.2423 126.186 86.7121 124.483 87.2996L124.461 87.6938C123.242 88.8839 122.183 89.9289 120.804 90.9394C113.87 96.0202 106.135 95.7637 100.145 89.5889C100.95 92.2202 103.197 97.475 103.228 100.107C103.247 101.715 99.7145 105.222 98.3284 106.157C95.9337 107.769 95.8791 107.589 93.1304 107.194C94.3365 107.126 95.8244 106.925 96.7522 106.107C98.6588 104.429 102.621 101.476 101.974 98.6393C100.694 93.0279 98.0266 88.1982 96.13 82.8471C94.9749 79.5868 96.1387 77.6471 91.2897 78.4744C90.388 78.6307 89.2354 79.1243 88.797 80.0254C88.6318 80.4457 88.7249 81.8913 88.6405 82.3958C88.5237 85.1869 87.7524 87.489 86.2247 89.8329C83.604 93.91 79.4568 96.77 74.7085 97.7746C65.392 99.68 55.701 93.7293 53.4034 84.5263C53.0526 83.1211 52.988 81.8302 52.705 80.4577C51.5239 80.6773 50.3652 80.8306 49.1628 80.9091C48.3184 80.9642 48.0836 80.4133 47.3795 79.7511C47.05 80.2585 46.9236 80.258 46.9369 80.7462C47.3854 81.3367 47.9968 81.5439 48.6806 81.7682L48.8514 81.8229C47.0204 84.3983 45.0288 87.6056 43.3671 90.3161C42.5712 91.6142 42.1009 93.7106 41.1754 95.109C40.6952 95.8344 40.3103 96.8278 39.7824 97.6467C38.4706 96.2384 35.243 94.6546 33.2595 94.3226C30.0893 93.7921 25.9701 96.1622 25.5731 99.5784L25.6798 99.6045C27.5425 95.8177 34.6478 98.6735 37.0385 100.45C37.9827 101.151 41.4745 104.426 40.6423 105.552C39.4122 105.808 38.113 104.642 37.1361 105.761C37.0342 106.131 36.9719 106.366 37.1242 106.745C37.3925 107.415 38.2881 107.851 38.9129 108.085C40.136 108.545 41.6692 108.577 42.8366 107.939C43.0292 107.835 42.948 107.858 43.1985 107.905L43.1293 108.105C41.4356 109.436 39.3009 109.245 37.5249 108.188C36.5719 107.62 35.3324 106.399 36.1655 105.232C36.7181 104.459 37.6821 104.425 38.5462 104.299C32.2323 100.489 29.1943 104.731 33.5178 110.057C33.8588 110.477 34.9202 111.262 35.3973 111.691C34.9888 111.542 34.5218 111.368 34.1119 111.156C31.6871 110.059 29.1097 105.541 30.6678 103.048C32.5878 99.9772 37.3079 102.682 39.3098 103.909C36.8529 101.029 32.8512 98.2964 28.8637 98.5745C27.1623 98.6931 26.4409 99.4309 25.1727 100.433C23.3757 107.624 28.941 114.188 35.2173 117.056C39.7227 119.115 43.2755 117.569 47.2073 115.213C47.4923 115.042 47.5828 115.135 47.8138 115.254L47.8062 115.486C46.9424 116.537 43.488 118.301 42.1125 118.735C34.6226 121.101 25.5336 114.644 23.4629 107.527C20.9262 98.8076 27.6066 89.317 37.2114 94.7331L37.3678 94.5856C37.0956 93.9928 36.6483 93.2521 36.3103 92.6745C36.9886 91.4491 39.3701 88.4227 40.2197 87.2427C41.1996 85.8817 45.2538 79.0542 46.1413 78.5978L46.5623 78.7792C46.7144 78.6601 46.6649 78.4243 46.5984 78.2622C46.0394 77.0292 45.4655 74.3691 46.1436 73.062C48.0115 69.4621 54.0974 67.8482 57.5041 66.9002C64.5392 64.9422 71.6217 63.2743 78.6669 65.9169C83.6462 67.7845 85.6782 70.2359 87.8307 74.8302C89.7707 73.1994 91.8847 73.3405 94.1812 73.8512C94.2073 73.4824 94.2408 73.2078 94.1477 72.847C92.3753 65.9434 94.3414 59.1352 94.6693 52.0076C94.6333 51.0143 94.6532 50.1164 94.678 49.1214C94.8233 49.8172 94.9401 50.2395 94.9376 50.9565Z" fill="#020102"/>
<path d="M102.03 172.569L102.477 172.811C102.473 174.867 102.395 177.033 102.661 179.084C102.924 181.126 104.124 183.137 104.55 185.088C105.655 190.146 107.507 195.14 108.726 200.137L108.296 200.542L108.223 200.423C107.015 198.434 104.572 192.877 103.006 191.64L102.893 191.684C103.207 192.387 103.642 192.813 104.027 193.493C104.868 195.012 105.67 196.553 106.432 198.113C107.877 201.13 109.083 204.004 110.415 207.043C112.129 210.867 113.784 214.716 115.379 218.592L118.96 227.45C119.721 229.376 120.627 232.556 122.055 234H86.3987C85.5405 232.638 84.4512 230.348 83.6849 228.864C82.1957 225.94 80.6469 223.047 79.0409 220.187C73.715 210.912 68.218 201.736 62.5535 192.663C63.6638 193.541 64.5923 194.557 65.6461 195.52C70.3423 199.812 74.6677 204.46 79.2148 208.885C79.5178 209.181 79.765 209.239 80.1612 209.188C81.0592 208.488 81.5088 203.871 81.715 202.507C82.1969 199.351 82.6614 196.192 83.1098 193.031C83.5905 189.51 83.8339 185.806 85.2735 182.535C87.4756 185.212 89.1561 191.164 90.4714 194.565C94.0236 203.523 97.3411 212.573 100.42 221.704C100.703 222.563 101.123 224.639 101.277 225.553C101.526 225.092 101.313 224.954 101.516 224.486C101.681 222.491 101.567 219.679 101.563 217.61L101.593 207C101.568 201.911 101.929 196.9 101.952 191.891L102.006 181.455C102.015 178.45 101.87 175.626 102.03 172.569Z" fill="#FDFEFE"/>
<path d="M101.277 225.553C101.525 225.092 101.313 224.954 101.515 224.486C101.678 225.61 101.599 227.486 101.56 228.648C101.347 227.77 101.178 226.443 101.277 225.553Z" fill="#1C1C1C"/>
<path d="M37.3678 94.5854C37.8934 94.8561 38.161 94.9228 38.4569 95.4015L38.2171 95.43L38.5392 95.5781C38.076 95.5379 37.6321 95.05 37.2114 94.7329L37.3678 94.5854Z" fill="#C8C7C9"/>
<path d="M102.097 171.313L102.401 171.576C102.659 172.016 102.553 172.268 102.477 172.811L102.03 172.569L102.072 172.417C102.236 171.858 102.247 171.879 102.097 171.313Z" fill="#EFEEF0"/>
<path d="M69.3837 67.5938C70.7669 67.3015 73.936 67.7761 75.4041 67.8041C76.3145 67.9277 77.3119 68.3483 78.1565 68.6095C83.3942 70.2302 86.3415 74.4098 86.8396 79.8256C87.201 83.9926 85.8994 88.1335 83.2153 91.3468C80.4803 94.6245 76.8846 96.2114 72.689 96.5956C69.5352 97.2079 64.3967 95.8536 61.7228 94.0629C58.1184 91.5874 56.3583 88.2931 55.3609 84.1519C53.4711 76.3063 58.1856 70.4756 65.5376 68.2207C66.7581 67.8464 68.0999 67.8558 69.3837 67.5938Z" fill="#FDFEFE"/>
<path d="M72.6804 76.0498C73.489 76.323 73.9436 76.2216 74.7385 76.944C75.7868 77.8954 75.8725 79.006 75.9768 80.2961C75.0987 82.187 74.2019 82.3273 72.2904 82.4453C70.4947 82.071 69.8463 81.7728 68.9579 80.1593C68.9362 77.2593 69.809 76.3875 72.6804 76.0498Z" fill="#020102"/>
<path d="M71.4604 72.0459C72.1054 72.1888 72.6916 72.122 73.4083 72.3254C75.3173 72.8666 76.1209 73.8057 77.076 75.4263C75.6899 74.3756 74.8316 72.972 72.7115 72.7957C70.7363 72.6314 69.2242 73.6724 67.8241 74.8879C66.7662 75.9125 65.6464 77.897 64.9363 79.1959C64.6194 79.0663 64.7647 79.1611 64.5572 78.8109C64.4299 76.981 66.2831 74.7935 67.633 73.6751C68.7737 72.73 70.0387 72.3477 71.4604 72.0459Z" fill="#020102"/>
<path d="M68.3333 83.588C71.4366 85.3725 74.6938 85.3352 77.1058 82.1525C77.4138 81.7454 77.4238 80.962 77.8374 80.4971C79.4458 81.0759 75.1757 87.7436 69.2569 84.5012C68.8757 84.2962 68.5094 84.0646 68.1606 83.8081L68.3333 83.588Z" fill="#020102"/>
<path d="M68.1607 83.8081C67.6845 83.4828 67.2703 83.0751 66.9378 82.6044C66.6645 82.2187 66.2925 81.6059 66.37 81.1143C67.2796 82.6225 66.9112 82.3418 68.3333 83.588L68.1607 83.8081Z" fill="#1C1C1C"/>
<path d="M111.355 63.7512C112.247 63.6271 115.269 63.8795 116.229 64.0046C119.515 64.4331 121.695 65.4515 123.56 68.2557C124.03 68.962 124.527 69.8308 125.04 70.4922L125.119 70.5934C122.898 73.1018 120.335 75.8472 118.915 78.8624C118.37 76.4073 118.836 66.8587 117.717 65.6167C117.298 65.4867 117.497 65.4771 117.101 65.6301C116.933 65.9894 117.263 70.5207 117.319 71.2279C117.622 74.686 117.832 78.1516 117.948 81.6208C117.999 83.2746 118.063 84.9002 118.157 86.5513C118.2 87.2801 118.059 87.8393 118.143 88.5815L118.431 88.6199C119.075 88.1566 118.983 86.0875 119.591 84.8919C120.895 82.3282 123.326 80.4743 125.073 78.1884C125.837 77.1888 125.975 77.0087 125.815 75.8345C125.805 75.4758 125.791 75.3255 126.023 75.0861L126.242 75.1635C126.432 75.4589 126.733 75.8867 126.746 76.2285C126.894 79.789 125.488 83.9053 123.334 86.6329C120.571 90.205 116.478 92.5126 111.986 93.033C108.45 93.4382 105.247 92.6654 102.457 90.402C101.458 89.5969 100.589 88.6437 99.8797 87.5756C98.1731 84.9642 96.2802 79.5125 95.9002 76.3887C95.6269 73.8595 96.4641 71.0013 98.2191 69.1202C101.607 65.4899 106.61 64.1602 111.355 63.7512Z" fill="#FDFEFE"/>
<path d="M101.845 73.5017C106.561 73.2343 107.56 77.9291 103.997 79.4507C103.395 79.3968 102.852 79.4554 102.262 79.2779C99.2363 78.3676 99.2214 74.9414 101.845 73.5017Z" fill="#020102"/>
<path d="M102.822 69.3166C103.827 69.1814 105.229 69.3445 106.109 69.8391C107.937 70.8671 108.254 71.9731 108.819 73.7688C106.268 71.827 106.47 70.8794 102.441 70.7954C99.3035 71.6993 98.5533 74.4751 97.833 74.8135C97.438 74.7179 97.6019 74.8224 97.3573 74.4426C97.2368 73.5758 97.5982 72.4809 98.1174 71.8046C99.4836 70.0234 100.806 69.649 102.822 69.3166Z" fill="#020102"/>
<path d="M108.984 76.5601C109.901 82.5745 103.434 83.8084 99.5047 80.4119L99.4736 80.3548L99.5121 80.2461C101.503 81.7167 104.36 82.566 106.696 81.2231C108.344 80.276 108.619 78.2719 108.984 76.5601Z" fill="#020102"/>
<path d="M50.2786 205.086C56.7065 207.814 67.3412 216.687 72.8257 221.388L72.6182 221.506C67.5737 217.451 62.414 213.54 57.1462 209.778C54.9131 208.184 52.431 206.755 50.2786 205.086Z" fill="#FDFEFE"/>
<path d="M82.4317 150.625C79.2049 148.596 76.409 146.052 73.5499 143.558C72.7376 142.852 71.9439 142.17 71.2585 141.334C75.2564 144.087 78.1417 147.513 82.5261 150.475L82.4317 150.625Z" fill="#EFEEF0"/>
<path d="M123.066 113.408L123.145 113.463C122.853 114.03 120.323 115.159 119.642 115.437C119.386 115.186 119.442 115.032 119.437 114.724C119.825 114.195 122.16 113.883 123.066 113.408Z" fill="#FDFEFE"/>
<path d="M130.291 70.2658C130.681 70.2687 130.51 70.2039 130.831 70.3921C130.619 70.6906 129.214 71.4049 128.531 71.993L128.378 72.1262C128.195 72.26 128.308 72.2141 128.023 72.2154C127.756 71.2528 129.557 70.5217 130.291 70.2658Z" fill="#FDFEFE"/>
<path d="M85.7292 181.915C85.918 181.935 86.2782 181.931 86.3739 182.048C87.0607 182.889 87.7078 184.586 87.7836 185.606C87.4147 184.847 86.9986 184.115 86.5353 183.411C86.1751 182.857 85.733 182.545 85.7292 181.915Z" fill="#EFEEF0"/>
<path d="M82.526 150.475C82.8154 150.631 84.8524 151.862 84.9815 151.978C84.1258 151.779 83.0539 151.242 82.4316 150.625L82.526 150.475Z" fill="#404043"/>
<path d="M43.7795 87.1045L43.8925 87.2874C43.6406 87.8734 43.134 88.4842 42.7441 89.0091L42.687 88.9963C42.772 88.4927 43.4548 87.5017 43.7795 87.1045Z" fill="#C8C7C9"/>
<path d="M72.8256 221.388C73.2665 221.773 73.782 222.201 74.1906 222.61L74.131 222.846L74.3024 222.739L74.3607 222.926C73.7832 222.637 73.1162 221.959 72.6182 221.505L72.8256 221.388Z" fill="#75767A"/>
<path d="M102.401 171.576C102.556 171.098 102.671 170.575 103.001 170.211C103.507 170.275 106.174 175.035 106.624 175.688C108.632 178.6 110.934 181.892 113.444 184.372C119.246 190.106 125.154 195.742 131.572 200.786C134.903 203.404 137.941 206.327 141.346 208.904L141.224 208.983C139.747 208.197 138.347 207.193 136.946 206.263C132.181 203.099 126.847 199.64 122.33 196.184L116.868 191.92C116.103 191.326 115.25 190.558 114.429 190.098L114.27 190.204C115.413 193.349 116.64 196.126 117.56 199.373C120.5 209.758 122.086 220.21 122.728 230.98C122.787 231.964 123.043 233.137 123.085 234H122.055C120.627 232.556 119.721 229.376 118.96 227.45L115.379 218.592C113.784 214.716 112.129 210.866 110.415 207.043C109.083 204.004 107.877 201.13 106.432 198.113C105.67 196.553 104.868 195.012 104.027 193.492C103.642 192.813 103.207 192.387 102.893 191.684L103.006 191.64C104.572 192.876 107.015 198.434 108.223 200.423L108.296 200.542L108.726 200.137C107.507 195.14 105.655 190.146 104.55 185.088C104.124 183.137 102.924 181.126 102.661 179.084C102.395 177.033 102.473 174.867 102.477 172.81C102.553 172.268 102.659 172.016 102.401 171.576Z" fill="#020102"/>
<path d="M108.296 200.542L108.726 200.137C109.02 200.873 109.14 201.467 109.384 202.1L109.185 202.266C109.014 201.854 108.522 200.973 108.296 200.542Z" fill="#EFEEF0"/>
<path d="M109.384 202.1C109.535 202.489 110.064 203.622 109.933 203.922L109.896 203.88L109.966 203.721L109.769 203.661C109.579 203.207 109.363 202.72 109.185 202.266L109.384 202.1Z" fill="#404043"/>
<path d="M104.094 178.564C104.566 178.886 105.383 180.747 105.394 181.286L105.295 181.308C104.956 180.854 104.244 179.133 104.094 178.564Z" fill="#C8C7C9"/>
<path d="M110.904 191.428L111.115 191.533C111.413 191.923 111.588 192.895 111.682 193.397C111.17 193.048 111.063 192.083 110.904 191.428Z" fill="#C8C7C9"/>
<path d="M52.1664 32.9811C54.6423 29.2539 56.5929 26.2735 60.8867 24.4597C65.5593 22.4859 70.2613 23.8272 75.0415 23.6707C79.7277 23.5124 84.2462 21.8872 87.955 19.0251C90.8576 16.7905 93.687 13.1198 94.6222 9.50535C94.734 9.07367 94.585 7.484 94.6893 6.6857L94.811 6.63687C95.7487 7.38783 95.432 9.21732 95.6034 10.2633C96.9436 18.4907 96.7151 26.6568 89.1622 31.8309C86.0497 34.3092 82.1994 35.6615 78.3031 33.9553C70.1595 30.3895 61.7578 34.0833 54.3526 37.6726C53.515 38.0786 51.5605 39.8971 50.8624 40.0985L50.6289 39.8039C50.0721 39.7905 49.8966 41.4095 49.5102 41.7369L49.379 41.5859C48.8008 36.2661 51.9356 32.7154 53.2286 28.1631C49.8023 32.6754 48.343 35.3847 48.3553 41.4348C48.3583 42.8813 48.7883 42.1791 48.828 43.0635C48.6171 43.4537 48.3405 43.7513 47.9154 43.9048C44.0559 45.2986 39.2551 45.3407 35.5212 43.906C34.2862 44.2948 32.9359 44.867 32.372 46.0341C32.1771 46.4373 31.8982 46.8498 31.5555 47.1376C31.3471 46.9418 31.4053 46.9869 31.149 46.8288C30.6914 47.207 30.1746 47.815 29.764 48.2643L29.7897 48.3763L30.6397 48.2428L30.7369 48.3644C30.3824 48.8968 29.1082 50.084 28.5814 50.5983C26.7936 52.3432 25.5371 54.259 24.5494 56.5625C22.3372 61.7219 20.7478 67.3873 22.7104 72.9008C23.3395 74.6677 24.4445 76.4258 25.143 78.2657L25.2207 78.4734C23.8795 76.9654 22.7822 75.2577 21.9688 73.412C19.01 66.7179 21.3689 59.2061 25.0357 53.1876C25.9174 51.8563 27.3157 50.7532 28.0984 49.4089C31.5197 43.5331 35.4172 40.4649 42.0903 40.9834C39.4012 39.4233 36.9797 38.1039 33.9972 37.1389C33.4835 36.9727 32.9734 36.9176 32.4037 36.7418C34.1191 36.6883 35.7227 37.441 37.3122 37.9517C39.4364 38.6344 41.0896 40.0917 43.082 41.0142C43.9376 41.4104 44.936 41.4837 45.8684 41.6008C43.4301 39.2066 39.5548 37.6974 36.4617 36.3658C39.9889 37.0965 42.203 38.3134 45.1542 40.2938C42.6537 35.0218 33.558 33.7203 28.4294 34.5447C27.6863 34.6642 24.9261 35.6071 24.7473 35.576L24.6685 35.3843C24.7815 34.9376 25.0611 34.5706 25.4737 34.3602C30.9992 31.5413 39.8996 31.056 44.3927 35.9977C44.6373 36.2666 44.3441 36.2241 44.8026 36.47L44.8303 36.5967C44.6181 36.0025 44.4592 35.5823 44.4046 34.9422C43.9536 29.6417 43.9831 23.8436 47.5871 19.5431C49.2154 17.6 51.2135 16.651 53.7163 16.4237C52.0424 16.9738 50.5115 17.887 49.2336 19.0979C46.6984 21.5383 45.1638 25.2819 45.085 28.7787L45.3185 28.5029C45.9255 24.3847 47.9806 21.7725 51.2613 19.2445C52.8398 18.028 54.3811 17.1707 56.4402 17.2438L56.6267 17.3565C56.2327 17.7187 55.1381 18.0628 54.6285 18.3612C50.0535 21.0399 47.7773 25.2845 46.7121 30.3188C46.6079 30.8111 46.3123 32.1 46.1494 32.58L46.2868 33.1834C47.0785 30.8031 49.2237 27.7902 51.392 26.4593C49.6515 28.6874 48.0156 30.861 47.1923 33.6095C46.3022 36.5806 45.6711 38.303 47.1035 41.1737C47.0296 41.7348 46.8808 42.0237 47.4531 42.2209C47.566 41.911 47.4047 41.1623 47.3961 40.786C47.2667 35.9788 49.5672 30.6661 52.7941 27.1462C54.3809 25.4155 56.0515 23.7393 57.6502 21.9391C62.7769 16.1662 71.2607 13.5943 78.7688 13.0903C81.0318 12.9384 85.1566 13.1952 86.9253 14.8036C87.3861 14.4986 87.8357 14.1754 88.2717 13.835C90.8228 11.81 92.086 9.53225 92.4524 6.271C92.8784 8.43574 93.5118 10.5985 92.6983 12.7926C91.9394 14.8375 89.746 17.0598 88.068 18.3622C83.6414 21.797 77.9392 23.4233 72.3612 23.1672C68.0139 22.9677 64.3095 22.4025 60.1491 24.344C56.4483 26.0564 53.578 29.162 52.1664 32.9811Z" fill="#020102"/>
<path d="M46.2868 33.1834C46.3159 33.6204 46.1752 34.421 46.1105 34.8841L45.9389 34.9459L45.9575 34.9995L45.9482 34.8918C45.8791 34.1518 46.0419 33.326 46.1494 32.5801L46.2868 33.1834Z" fill="#75767A"/>
<path d="M45.3185 28.5029C45.3206 28.8897 45.4022 30.2314 45.2068 30.4468L45.2283 30.5457C45.098 29.9305 45.0965 29.402 45.085 28.7788L45.3185 28.5029Z" fill="#8F8C8F"/>
<path d="M80.3709 13.6935C82.2899 13.6738 84.9292 13.7436 86.6395 14.7567L86.6234 14.8968C85.5055 15.7373 81.9061 16.8208 80.5274 17.0755C74.8401 18.1261 70.2686 17.589 64.5872 19.3588C62.3921 19.8956 61.2943 20.5573 59.324 21.6243C65.7231 15.9597 72.1561 14.4674 80.3709 13.6935Z" fill="#FDFEFE"/>
<path d="M73.9746 32.4539C74.8788 32.0388 75.5905 31.8946 76.5171 31.5727C77.5889 31.1923 78.6322 30.7383 79.6408 30.2141C83.1905 28.4112 84.6797 26.9915 86.8297 23.8689C87.7972 22.4633 89.592 21.1635 90.3509 19.3904C91.4488 17.5293 92.6648 15.7047 93.5765 13.7282C93.964 12.9483 94.4397 11.2747 94.9315 10.6826C95.1874 11.7336 94.5639 15.3753 94.1888 16.4088L93.8373 16.5505C93.7069 16.9251 93.6299 17.0441 93.6957 17.4386C93.8845 17.4692 94.0199 17.4953 94.2124 17.5349L94.0919 17.718L93.5851 17.6252C93.2163 17.9003 92.7878 18.7736 92.4922 19.1778C89.5013 23.2698 85.8969 27.2219 81.7013 30.0683C86.0261 28.9501 88.9287 27.5291 91.624 23.5676C92.1469 22.7989 92.3518 21.2509 92.8648 20.7276C93.0697 20.5301 93.1877 20.3794 93.369 20.1638L93.5653 19.9203L93.8398 19.9742C91.9419 24.609 90.4316 27.2633 85.6696 29.5191C84.1494 30.2392 82.1174 29.9885 81.3486 30.3449C78.6111 31.6141 77.0573 32.0071 73.9746 32.4539Z" fill="#FDFEFE"/>
<path d="M92.8646 20.7277C92.5951 20.115 93.1925 18.5103 93.5974 18.1016C93.7167 18.6594 93.2857 19.4183 93.3689 20.1639C93.1876 20.3795 93.0696 20.5302 92.8646 20.7277Z" fill="#EFEEF0"/>
<path d="M93.5652 19.9204C93.6956 19.4005 93.8633 18.5443 94.1291 18.1172L94.0409 18.3507L94.1167 18.5043C94.0372 19.0523 93.9676 19.4359 93.8397 19.9743L93.5652 19.9204Z" fill="#8F8C8F"/>
<path d="M49.3646 44.5938L49.4916 44.7938C48.8376 47.1536 46.9404 49.0073 44.6254 49.7413C41.5003 53.2904 40.9054 55.8724 39.8655 60.4382C39.699 61.1697 39.3246 62.2022 39.1121 63.0355C41.0153 60.7953 41.359 59.161 44.1686 57.0534C42.0069 61.9445 37.3661 67.2456 35.4933 72.8773C37.0872 70.1807 39.184 67.6256 41.0689 65.108C42.0036 63.8597 43.288 60.9179 44.2795 59.9998C43.0486 65.5224 40.6043 70.8567 36.9671 75.2143C36.2536 76.0691 35.4084 77.0691 34.8512 78.0141L34.7574 78.1753L36.6934 76.9027C36.9049 79.389 35.6964 81.0541 34.5112 83.1472C33.489 84.9527 32.4884 86.8004 31.115 88.3664C30.3195 86.8175 29.1457 84.4996 28.3282 83.0737C27.4294 81.7198 26.4187 79.272 25.7915 77.7269C24.2929 73.6197 26.2066 68.68 27.7685 64.9148C28.5937 62.9257 33.7948 53.5381 36.1033 54.7649C36.0437 55.2846 35.1475 57.5961 34.9392 58.3461C33.5869 63.2151 33.5827 65.3957 34.2839 70.3233C34.5655 68.4372 34.4756 66.7375 34.6646 64.9596C35.0298 61.525 35.857 57.4986 37.4156 54.4085C38.6081 52.0439 39.8732 50.8749 42.339 50.0101C41.1792 49.8726 40.021 49.7223 38.8646 49.5592C42.4447 48.5346 44.5188 50.1702 47.6924 46.7497C44.4821 48.2792 40.6742 48.0286 37.2084 47.882C36.2122 47.8399 34.5843 47.7908 33.6573 47.6184C38.741 47.2495 45.5826 48.7164 49.3646 44.5938Z" fill="#020102"/>
<path d="M103.61 2.37327C106.05 2.32692 108.327 3.01392 109.717 5.05299C110.813 6.66348 111.354 6.31917 112.281 7.10136C114.035 8.58171 115.481 12.3928 115.82 14.6615C116.607 19.9352 114.361 24.8368 111.319 29.0318C116.393 29.4761 119.961 32.464 120.558 37.6151C119.058 33.7962 115.979 29.2706 110.99 29.5913C110.603 29.6161 108.752 31.3554 108.55 31.69C108.827 31.5466 109.08 31.4205 109.397 31.4079C115.95 31.1465 119.039 34.43 119.465 40.7033C118.761 39.8544 118.438 39.1265 117.601 38.2392C114.951 35.4309 111.062 34.2559 107.633 32.4891C105.145 34.3693 100.001 37.3046 96.7721 35.7675L96.7783 35.6297C97.5099 35.6887 98.1048 35.4859 98.8203 35.3804C102.617 34.8202 107.01 32.2393 109.424 29.2766C108.918 29.2328 107.977 29.6908 107.221 29.6076C107.479 29.2922 108.981 28.7544 109.468 28.5555C109.591 28.6404 109.715 28.7254 109.838 28.8103C111.552 27.6294 113.455 22.516 114.023 20.5535C115.247 16.7889 114.603 12.7477 112.654 9.34543C112.31 8.74531 111.745 7.03617 111.108 6.8774C111.128 7.37961 111.632 8.26938 111.795 8.86367C112.38 11.0259 112.503 13.287 112.154 15.4996C111.197 21.7309 107.398 26.8 102.38 30.4607C96.3697 34.8452 90.8998 36.2269 83.4736 35.0482C86.7613 34.7598 87.4718 34.7705 90.7843 33.7777C96.4542 32.0785 100.793 28.4064 103.693 23.3117C105.098 20.8427 106.191 12.983 105.32 10.2414L105.506 10.2718C105.509 10.2873 105.511 10.3027 105.512 10.3181C106.261 13.2306 106.395 16.2665 105.907 19.2334C107.44 15.6626 108.348 11.0624 107.336 7.21836C106.764 5.05052 105.214 3.79053 103.61 2.37327Z" fill="#020102"/>
<path d="M95.6258 3.48535C99.142 4.06886 101.483 5.45997 102.858 8.88582C107.713 20.9888 98.336 32.7657 86.041 34.2554C86.857 33.7962 87.7488 33.4434 88.5599 32.8962C92.8561 29.9959 96.227 26.9401 97.8975 21.869C99.2228 17.8504 98.4676 12.4268 97.3883 8.3763C97.1995 7.66773 96.4667 6.23497 96.1189 5.54115C98.4515 7.72821 98.7707 9.71188 99.3706 12.7975C99.4401 13.1551 99.6239 14.475 99.7208 14.7092L100.142 14.8753C100.245 12.8693 99.7506 9.95605 99.1582 8.04587C98.3831 5.54351 97.869 4.68522 95.6258 3.48535Z" fill="#020102"/>
<path d="M99.7207 14.709L100.142 14.8751C100.175 15.6348 100.111 16.5987 99.9107 17.3317C99.8226 16.4206 99.7518 15.6224 99.7207 14.709Z" fill="#EFEEF0"/>
<path d="M106.397 33.8579C113.034 34.8682 118.218 38.3065 119.571 45.2602C120.196 48.4721 119.383 54.216 117.532 56.8951C118.047 54.8465 119.725 47.3792 118.498 45.8182L118.295 45.8395C118.132 46.3727 118.376 47.1772 118.416 47.7787C118.621 50.9071 117.052 53.7173 117.523 56.8654C117.632 57.5968 117.99 60.1496 116.603 59.6572C115.533 58.4212 116.066 54.4559 115.943 52.7713C115.896 52.1217 115.705 51.7991 115.459 51.2177C113.705 46.2072 111.379 42.7511 107.523 39.0556C106.891 38.4503 105.412 37.8678 104.857 37.1172C104.736 36.9543 104.858 36.7979 104.944 36.5095C104.742 36.0087 104.473 35.4603 104.658 34.9554C106.314 33.7419 112.573 37.0962 113.969 38.5212C115.78 40.371 117.212 42.4503 117.915 44.9961C117.903 44.948 117.971 45.5553 117.986 45.6294C118.259 45.7628 118.115 45.7488 118.416 45.6629C118.535 45.4219 118.51 45.0913 118.418 44.8206C117.022 40.4383 114.366 37.0574 110.145 35.1025C109.004 34.5739 107.523 34.5972 106.397 33.8579Z" fill="#020102"/>
<path d="M36.3752 49.0894C36.8017 49.0777 37.0611 49.042 37.2542 49.4344C37.0663 50.0582 32.9883 54.8742 32.1452 56.1357C28.8999 60.9912 23.7988 68.5409 24.9197 74.6643C24.5187 74.2708 24.2029 73.6111 24.0778 73.0673C22.096 64.3941 25.7788 56.5729 32.8507 51.4338C34.3646 50.3336 34.272 49.6997 36.3752 49.0894Z" fill="#020102"/>
<path d="M70.9115 50.8676C73.9571 50.5689 76.0549 51.3459 78.9203 51.9957C79.4432 52.1142 79.6183 51.6131 80.2729 51.6746L80.3375 51.8271C79.9686 52.404 75.4861 53.5854 74.4005 54.0955C71.873 55.283 68.4743 56.7024 66.1417 58.1749C63.9557 59.5549 61.6295 61.5 59.3424 62.7492C60.4375 61.0703 62.4433 60.2098 64.23 58.4382C62.9036 59.0989 61.3614 60.2603 60.1182 61.1119C59.4819 61.5478 58.1625 63.0558 57.5663 63.1554C57.4918 62.8833 57.5541 62.7984 57.6694 62.544C58.7704 60.1126 65.5683 56.4404 68.146 55.4042C70.6466 54.2604 73.0865 54.2062 75.1023 53.3776C67.2885 53.7174 64.1256 56.9011 58.1791 61.0288C61.6392 55.4787 67.9372 52.6452 74.2614 52.0092C68.686 51.6891 67.0182 52.7044 61.8515 53.4958C64.0981 51.88 68.2086 51.0855 70.9115 50.8676Z" fill="#020102"/>
<path d="M48.1714 120.194C49.1693 121.185 50.1537 123.656 50.306 124.979C49.5148 126.583 50.8681 126.659 49.5173 128.477C47.666 130.968 44.7867 132.189 41.7208 131.948C41.3873 131.735 40.859 131.461 40.6601 131.164L41.1955 130.956C41.0254 130.68 39.4153 130.45 38.8704 130.141L38.781 129.964C39.2116 129.87 39.9526 130.004 40.4194 130.061L40.5212 129.9L41.3149 129.465C42.9459 128.585 44.9519 126.81 46.0624 125.311C43.8967 127.017 41.8753 128.466 38.9552 128.16C36.4753 127.898 35.5618 126.654 34.6602 124.559C35.776 125.927 36.8304 127.038 38.7409 127.158C42.772 127.412 46.9103 123.812 48.1714 120.194Z" fill="#020102"/>
<path d="M40.521 129.9C42.5726 129.688 43.5143 128.841 45.1598 127.688C43.9458 129.216 42.5207 130.351 40.4192 130.061L40.521 129.9Z" fill="#EFEEF0"/>
<path d="M48.5362 127.791L48.6016 127.91C48.4919 128.062 48.3775 128.209 48.2588 128.354C46.732 130.189 44.3962 131.381 42.0192 131.615C41.9763 131.536 41.9335 131.457 41.8906 131.377L42.0354 131.278C45.0052 131.149 46.567 129.785 48.5362 127.791Z" fill="#75767A"/>
<path d="M31.3152 89.1481C32.063 87.9514 33.1499 86.9911 33.9093 85.8048C35.103 83.9399 39.4187 75.0887 41.1901 74.6816C41.379 74.6382 41.4075 74.7083 41.5557 74.8032C42.3605 76.6116 41.3804 80.116 40.7947 81.8695C41.2813 81.5231 41.3872 81.0338 41.8058 80.7869C41.7176 81.3868 41.1699 82.1035 40.8805 82.6918C40.9226 83.6583 36.7715 88.2289 36.0579 89.2532C34.8506 89.8179 33.6152 90.3204 32.3563 90.7588C32.0315 90.0883 31.7514 89.7389 31.3152 89.1481Z" fill="#020102"/>
<path d="M64.5728 105.458C65.0123 105.475 64.9956 105.404 65.31 105.613C65.2281 106.053 64.2351 106.874 63.8482 107.233C64.5905 107.2 65.9638 108.445 66.8495 108.806C75.0749 112.15 84.2585 114.005 93.154 114.091C98.2029 114.139 105.071 113.642 109.056 110.167C109.343 109.917 109.759 109.397 109.756 108.995C109.561 108.695 109.479 108.629 109.435 108.274C109.637 107.929 109.64 107.957 109.987 107.743C110.177 107.746 110.285 107.701 110.407 107.833C111.398 108.914 110.166 110.344 109.536 111.002C106.879 113.319 103.634 114.361 100.186 114.89C91.6561 116.198 72.1188 113.2 65.0786 108.039C64.5538 107.655 64.352 107.536 63.7053 107.657C62.9132 107.806 62.4446 108.78 61.9997 109.377C61.7651 109.692 61.6165 109.841 61.2263 109.902L60.9631 109.701C60.36 108.219 63.4013 106.092 64.5728 105.458Z" fill="#020102"/>
<path d="M98.3434 51.1087C100.536 51.0069 102.199 50.9337 104.45 51.6732C107.367 52.6308 110.271 54.7067 111.961 57.3247C112.141 57.6039 112.106 57.9636 111.981 58.2594C111.19 58.7527 109.98 58.1796 109.361 57.5841L109.261 57.4848C109.119 57.3954 108.149 57.0614 107.775 56.8734C104.828 55.3891 101.929 54.2698 98.7259 53.4417C98.1533 53.2939 97.6304 53.024 97.0591 52.8948C96.4915 53.3013 96.7349 53.9422 96.171 54.1524C95.7363 53.8965 95.8916 54.0699 95.6804 53.619C95.6916 52.5052 97.2665 51.3036 98.3434 51.1087Z" fill="#020102"/>
<path d="M99.1781 52.3452C101.779 52.2081 105.505 53.9093 107.609 55.3274C107.328 55.3739 106.909 55.1014 106.597 54.9519C104.711 54.1307 103.182 53.4893 101.144 53.1265C100.38 52.9905 98.2838 52.8957 97.7783 52.7093C98.2491 52.4218 98.6304 52.42 99.1781 52.3452Z" fill="#EFEEF0"/>
<path d="M107.852 55.6123C108.61 55.72 108.689 55.9022 109.235 56.4557C108.645 56.3472 108.313 55.9913 107.852 55.6123Z" fill="#1C1C1C"/>
<path d="M49.6922 117.069C51.0879 117.783 55.4859 123.98 56.9407 125.463C59.2427 127.809 61.6766 130.866 63.8029 133.413C64.3045 134.015 65.0918 134.854 65.4981 135.486C64.6615 134.784 63.5555 133.904 62.7128 133.244C59.835 130.985 49.4545 120.484 49.6922 117.069Z" fill="#020102"/>
<path d="M112.742 18.9106C112.735 19.5316 112.411 20.506 112.199 21.0956C109.977 27.2992 103.301 33.7056 96.6516 34.7689C96.7162 34.4364 98.424 33.6193 98.8513 33.4137C103.648 31.108 107.819 27.5206 110.477 22.8829C111.217 21.5914 111.926 20.1934 112.742 18.9106Z" fill="#020102"/>
<path d="M45.2456 77.5527C45.3918 77.6814 45.3372 77.5959 45.3709 77.83C42.7245 81.431 40.7551 85.9368 37.8879 89.5103C37.0731 90.5256 36.0693 91.1009 35.4356 91.9709C35.4158 90.5961 41.7876 82.8062 42.648 81.1198C43.0779 80.2772 44.5268 78.3072 45.2456 77.5527Z" fill="#020102"/>
<path d="M44.9142 64.2905L45.0386 64.43C45.0088 65.1011 44.5851 66.1063 44.3615 66.7583C43.1074 70.4162 40.5432 74.24 37.3415 76.4838L37.2532 76.437C37.3296 76.1959 37.273 76.2742 37.4523 76.098C39.1083 74.4846 40.5017 72.6231 41.5823 70.5808C42.7129 68.4252 43.5035 66.328 44.9142 64.2905Z" fill="#020102"/>
<path d="M89.1745 104.964C91.9095 105.051 93.9862 105.735 96.597 105.354C94.7252 106.393 94.1725 106.28 92.0188 106.217L90.0539 106.009C90.9507 106.478 92.1008 106.9 93.0696 107.355C92.0027 107.169 88.2356 106.688 89.1745 104.964Z" fill="#020102"/>
<path d="M46.9313 108.913C47.9713 109.274 51.9351 116.699 52.3167 118.023C51.7195 117.218 51.1437 116.398 50.5898 115.563C49.9142 114.546 46.7436 109.838 46.9313 108.913Z" fill="#020102"/>
<path d="M71.3639 133.565C72.9051 133.793 72.6504 135.202 72.6032 136.422C72.5784 137.054 72.6243 137.251 72.1946 137.759L71.8717 137.753C70.8561 137.158 70.9336 134.509 71.3639 133.565Z" fill="#020102"/>
<path d="M67.7681 131.304C69.2831 132.596 69.1631 134.812 68.4858 136.51C67.4486 134.81 67.169 133.24 67.7681 131.304Z" fill="#020102"/>
<path d="M79.1128 138.861C80.1971 139.536 79.8419 142.667 79.273 143.702C78.2533 142.262 78.5589 140.426 79.1128 138.861Z" fill="#020102"/>
<path d="M88.6046 144.538C89.7907 145.076 89.7932 147.364 89.5026 148.44C87.7948 148.27 88.2071 145.686 88.6046 144.538Z" fill="#020102"/>
<path d="M108.264 143.556C109.549 143.88 110.569 145.726 110.31 146.978C108.831 147.019 108.149 144.753 108.264 143.556Z" fill="#020102"/>
<path d="M87.4756 102.838L87.7066 102.886L87.8035 103.055C87.7041 103.722 87.411 104.169 87.0955 104.77C87.5837 105.671 88.1115 105.784 88.6059 106.51L88.3848 106.571C85.8237 105.836 85.3927 104.668 87.4756 102.838Z" fill="#020102"/>
<path d="M43.8782 94.1704L43.9166 94.4431C43.3179 95.5641 41.9384 98.2446 41.0326 98.9869C40.6377 97.553 42.8728 95.0862 43.8782 94.1704Z" fill="#020102"/>
<path d="M76.4784 135.859C77.6696 136.151 77.5193 138.796 77.0783 139.565C75.8015 139.268 76.276 136.812 76.4784 135.859Z" fill="#020102"/>
<path d="M62.3258 125.62C63.2072 126.188 63.426 128.22 62.8392 129.033C61.6351 128.063 61.5091 126.877 62.3258 125.62Z" fill="#020102"/>
<path d="M59.2171 124.347C60.3973 124.838 60.2128 126.851 59.9064 127.857C58.6639 127.154 58.9137 125.525 59.2171 124.347Z" fill="#020102"/>
<path d="M103.117 147.296C104.37 147.515 104.728 148.693 104.424 149.787C103.231 149.854 103.057 148.175 103.117 147.296Z" fill="#020102"/>
<path d="M85.6857 143.971C86.4769 144.712 86.6458 146.363 86.1354 147.313L85.9553 147.22C85.251 146.102 85.4709 145.223 85.6857 143.971Z" fill="#020102"/>
<path d="M56.5362 120.138C57.5265 120.654 57.4298 122.219 57.1175 123.134C56.1311 122.457 56.1708 121.163 56.5362 120.138Z" fill="#020102"/>
<path d="M44.6549 95.9092L44.7693 96.1031C44.6025 97.08 43.4345 99.1754 42.7773 99.9221L42.6921 99.7755C42.7806 98.5261 43.9416 96.9623 44.6549 95.9092Z" fill="#020102"/>
<path d="M48.6738 106.322C48.9511 106.408 48.9408 106.389 49.1248 106.61C49.28 107.358 49.4167 108.48 49.1673 109.213C48.2195 108.623 48.3038 107.239 48.6738 106.322Z" fill="#020102"/>
<path d="M112.49 135.452C113.468 136.193 113.776 136.814 113.804 138.012C112.693 137.642 112.346 136.534 112.49 135.452Z" fill="#020102"/>
<path d="M49.4511 102.682C50.5041 103.254 49.8944 104.063 49.4794 104.829C48.4132 104.294 48.9467 103.433 49.4511 102.682Z" fill="#020102"/>
<path d="M105.173 142.894C105.94 143.781 106.178 144.461 105.869 145.576C104.939 145.297 105.093 143.688 105.173 142.894Z" fill="#020102"/>
<path d="M46.1687 97.8599C46.359 97.9819 46.2663 97.8946 46.4048 98.1598C46.2492 98.9059 45.54 99.7899 45.0792 100.414L44.8757 100.324C44.7836 99.4499 45.5796 98.4317 46.1687 97.8599Z" fill="#020102"/>
<path d="M51.9667 111.619C52.8289 112.185 52.2095 113.159 51.9137 113.992C50.9 113.393 51.5275 112.35 51.9667 111.619Z" fill="#020102"/>
<path d="M65.9127 127.46C66.6589 127.983 66.6902 129.067 66.1796 129.758C65.8634 129.596 65.8737 129.616 65.6485 129.344C65.4323 128.552 65.6266 128.255 65.9127 127.46Z" fill="#020102"/>
<path d="M110.22 139.61C110.438 139.737 110.497 139.773 110.667 139.986C111.143 140.592 111.38 141.352 111.33 142.12C110.274 141.85 110.284 140.552 110.22 139.61Z" fill="#020102"/>
<path d="M111.157 131.922C112.078 132.124 112.874 133.194 112.924 134.124C111.893 133.821 111.554 132.827 111.157 131.922Z" fill="#020102"/>
<path d="M82.8713 139.746L83.0266 139.879C83.4166 140.882 83.5135 141.889 83.2055 142.932C82.5919 141.876 82.6962 140.909 82.8713 139.746Z" fill="#020102"/>
<path d="M104.945 146.775C105.748 147.067 105.853 148.276 105.686 148.994C104.638 148.83 104.853 147.572 104.945 146.775Z" fill="#020102"/>
<path d="M91.573 143.217C92.4014 143.716 92.507 144.993 92.2176 145.832C91.496 145.493 91.6028 143.93 91.573 143.217Z" fill="#020102"/>
<path d="M94.0284 146.078C94.4333 147.06 94.7662 147.585 94.2073 148.538C93.2733 147.82 93.7018 146.991 94.0284 146.078Z" fill="#020102"/>
<path d="M97.8465 148.507C98.6799 148.85 98.7284 149.708 98.6166 150.523C98.3048 150.551 98.3222 150.535 98.0341 150.398C97.7211 149.714 97.7434 149.244 97.8465 148.507Z" fill="#020102"/>
<path d="M35.596 89.8452L35.6946 90.0193C35.3995 90.6248 34.8786 91.367 34.3041 91.7362C34.0356 91.3987 34.1116 91.5841 34.0593 91.1633C34.3348 90.4472 34.9273 90.2219 35.596 89.8452Z" fill="#020102"/>
<path d="M112.705 128.892C113.656 129.233 114.02 129.617 114.053 130.625C113.165 130.405 112.624 129.809 112.705 128.892Z" fill="#020102"/>
<path d="M50.4384 109.345C50.6951 109.495 50.6047 109.421 50.7707 109.689C50.8377 110.498 50.6885 110.916 50.359 111.66C50.2118 111.587 50.2045 111.549 50.0823 111.422C49.8848 110.578 50.1317 110.15 50.4384 109.345Z" fill="#020102"/>
<path d="M54.5422 113.708C55.2445 114.283 54.853 115.185 54.4331 115.793C54.3376 115.682 54.1963 115.474 54.1066 115.35C53.9777 114.583 54.1166 114.383 54.5422 113.708Z" fill="#020102"/>
<path d="M46.9378 100.745L47.0388 100.869C46.7671 101.584 46.1423 102.543 45.7298 103.225L45.6248 103.147C45.4257 102.097 46.2481 101.401 46.9378 100.745Z" fill="#020102"/>
<path d="M99.1309 144.36C99.7792 144.961 99.8152 146.327 99.6972 147.136L99.4041 147.025C99.1917 146.508 99.1781 145.025 99.1309 144.36Z" fill="#020102"/>
<path d="M95.709 144.976C95.8369 145.075 95.9537 145.187 96.0568 145.311C96.5449 145.883 96.5486 146.663 96.4691 147.363L96.1201 147.135C95.8146 146.373 95.781 145.794 95.709 144.976Z" fill="#020102"/>
<path d="M82.0217 51.6494C82.4899 52.2795 81.0231 53.4703 80.5697 53.8533L80.4753 53.7688C80.53 53.4228 81.7199 52.0356 82.0217 51.6494Z" fill="#020102"/>
<path d="M113.825 125.282C114.46 125.672 115.205 126.275 115.028 127.057C114.388 126.82 113.818 125.956 113.825 125.282Z" fill="#020102"/>
<path d="M105.651 106.673C106.374 106.891 106.959 107.121 107.226 107.864C106.343 107.821 105.856 107.577 105.651 106.673Z" fill="#020102"/>
<path d="M101.745 143.874C102.169 144.383 102.501 145.447 102.597 146.101C102.188 146.124 102.353 146.189 102.07 145.949C101.802 145.312 101.802 144.577 101.745 143.874Z" fill="#020102"/>
<path d="M114.177 122.374C114.721 122.753 115.313 123.135 115.565 123.749C114.467 123.905 114.289 123.275 114.177 122.374Z" fill="#020102"/>
<path d="M60.2935 121.14C60.6318 121.291 60.4862 121.181 60.7092 121.524C60.7483 122.037 60.5721 122.287 60.3533 122.777C60.2265 122.787 60.3138 122.788 60.1013 122.706C59.8755 122.167 60.1008 121.663 60.2935 121.14Z" fill="#020102"/>
<path d="M115.097 119.42C115.738 119.619 116.416 120.061 116.603 120.734C115.662 120.701 115.439 120.184 115.097 119.42Z" fill="#020102"/>
<path d="M78.3838 107.719L78.4534 107.836C78.2 108.25 76.8897 109.114 76.4053 109.475C76.2823 109.366 76.3295 109.44 76.3059 109.234C76.8723 108.681 77.7094 108.168 78.3838 107.719Z" fill="#1C1C1C"/>
<path d="M105.32 10.2413C105.096 9.85451 104.911 8.38135 104.803 7.83105C105.146 8.50703 105.485 9.52161 105.506 10.2717L105.32 10.2413Z" fill="#EFEEF0"/>
<path d="M74.1436 138.998L74.3845 139.15C74.7907 139.872 74.9993 140.496 75.1173 141.313C74.5733 140.867 74.351 139.714 74.1436 138.998Z" fill="#020102"/>
<path d="M67.6682 137.266C68.4681 137.414 69.1565 138.472 69.5956 139.115C69.0679 138.992 68.1396 137.773 67.6682 137.266Z" fill="#C8C7C9"/>
<path d="M85.9092 109.861L86.1228 109.969C86.1104 110.451 85.826 110.844 85.585 111.275L85.3702 111.217L85.2969 110.927C85.4434 110.412 85.5751 110.3 85.9092 109.861Z" fill="#020102"/>
<path d="M71.791 106.349L71.8544 106.471C71.34 106.929 70.9249 107.131 70.3308 107.46L70.2488 107.355L70.311 107.108C70.7278 106.722 71.2535 106.567 71.791 106.349Z" fill="#020102"/>
<path d="M115.702 116.953C116.378 117.125 116.747 117.559 117.004 118.178L116.69 118.123C116.17 117.731 116.055 117.486 115.702 116.953Z" fill="#020102"/>
<path d="M47.5405 101.724C47.6301 102.329 47.1805 102.904 46.8196 103.343L46.7766 102.993C46.986 102.364 47.1161 102.26 47.5405 101.724Z" fill="#020102"/>
<path d="M81.2702 136.523C81.5484 137.151 81.4876 137.989 81.4205 138.66C81.074 138.044 81.1597 137.191 81.2702 136.523Z" fill="#404043"/>
</g>
<defs>
<clipPath id="clip0_2473_2003">
<rect width="156" height="234" fill="white"/>
</clipPath>
</defs>
</svg>
