<svg width="156" height="205" viewBox="0 0 156 205" fill="none" xmlns="http://www.w3.org/2000/svg">
<g clip-path="url(#clip0_2473_2364)">
<path d="M68.18 102.51C62.3029 100.525 56.0642 83.2491 55.3647 77.2861L55.3432 77.0948L55.2043 77.0642C55.3587 77.9437 55.3677 78.9609 55.5572 79.8367C57.0512 86.7411 58.2977 95.8582 63.5892 100.939C66.0995 103.35 71.9394 105.087 75.2156 105.882C80.1763 107.087 85.6317 107.203 90.6531 106.321C92.6078 105.989 94.7641 105.762 96.6477 105.122C100.977 103.653 105.892 101.854 109.877 99.6118C114.014 97.2843 115.282 92.8615 116.535 88.6247C118.464 82.3282 119.501 75.9551 120.327 69.4328C120.604 67.2457 120.667 64.0767 121.179 62.0542C121.359 64.4376 121.035 66.8503 120.914 69.2292C120.891 69.71 120.951 69.7241 121.201 69.9901L121.139 70.0643L120.876 70.0845C120.045 73.0636 120.313 77.0474 119.526 80.1104C117.18 89.2324 117.562 97.3981 108.163 101.915C108.021 112.812 107.766 123.706 107.397 134.597C107.346 136.092 107.452 141.857 107.22 142.888L107.338 143.164L107.231 143.292C106.999 144.562 107.003 146.391 107.039 147.709C107.414 161.612 101.578 173.818 95.4587 186.031C93.4613 189.96 91.3833 193.847 89.2259 197.69C88.5182 198.957 86.8124 201.859 86.2268 202.999C85.4017 204.607 81.331 213.369 81.4614 214.473L81.3476 214.595C80.9825 213.055 82.6053 211.07 81.983 209.34C76.1004 192.967 70.9204 176.344 69.5268 158.882C69.3596 156.785 69.0657 153.896 69.273 151.764C70.2919 155.243 71.1384 158.082 73.4957 161.002C80.7905 170.038 94.0434 167.124 102.027 160.693C103.098 159.83 104.172 158.779 105.178 157.849C105.83 155.751 106.081 151.827 106.255 149.592C106.73 143.5 106.564 137.468 106.683 131.366C106.861 122.883 107.137 114.404 107.514 105.928C101.391 109.505 94.265 112.34 87.8318 115.328C81.9142 118.078 76.0806 120.985 70.1757 123.764C69.8573 126.866 69.9889 129.803 69.932 132.905C69.8278 138.596 69.5668 144.259 69.7784 149.953C69.7927 150.337 69.6576 150.483 69.4188 150.732L69.275 150.699C69.1846 149.844 69.2517 149.205 69.1303 148.341C68.5409 148.927 67.9463 149.51 67.3466 150.085L67.1809 149.891C67.8222 149.431 68.447 148.733 68.9975 148.156C68.5676 133.615 69.5106 119.865 69.5804 105.416C65.1624 103.986 62.1174 101.857 59.899 97.7292C56.1366 90.7274 53.8558 75.7705 53.9751 67.653C53.9897 66.6562 53.8433 65.2327 54.1259 64.2891C54.2664 64.4854 54.7979 70.4395 54.9036 71.2473C55.1753 73.2122 55.5031 75.1687 55.8867 77.1147C57.1721 83.5878 62.6874 98.8265 68.18 102.51Z" fill="#0B0B0B"/>
<path d="M12.3199 194.339L12.4773 194.31C13.6157 194.086 14.3687 193.595 15.8439 193.586C20.5192 193.559 26.9833 195.63 30.892 198.058C32.6213 199.174 33.8189 200.85 35.2182 202.3C38.5126 205.712 41.3268 209.132 45.3011 211.817C50.7246 215.482 56.8774 217.671 62.7908 220.378C64.8983 221.343 67.7616 222.099 69.7014 223.231H58.4107H57.3433H47.674H46.8374H28.553H25.0494H19.0609H16.9985H10.9525H10.4371H4.19796H2.86852L2.88915 223.118L2.9253 222.93C3.16132 221.641 4.42817 218.072 4.15232 217.299C2.92282 216.796 0.380226 217.394 -0.112549 215.901C0.11991 214.856 0.751854 215.269 1.4369 214.618C1.60985 214.173 1.8109 213.269 1.9445 212.873C3.23328 209.051 7.13233 205.46 11.3638 206.272C10.541 205.829 4.27157 202.894 4.97203 201.882C9.148 195.857 21.9872 201.89 26.704 204.381C22.3577 200.839 17.78 196.965 12.1529 195.618C11.0944 195.364 10.8672 195.336 9.98715 195.906L9.85047 195.996L9.72257 195.961L9.93748 195.564L9.88556 195.462L8.04853 195.623C9.63318 195.256 10.8308 194.998 12.3199 194.339Z" fill="white"/>
<path d="M8.04853 195.623C9.63318 195.256 10.8308 194.998 12.3199 194.339L11.8533 194.774L11.8852 194.967C12.8395 195.275 13.7079 195.346 14.6925 195.731C20.1036 197.845 24.5809 201.691 28.6731 205.731C29.5328 206.58 31.3798 207.109 31.3612 208.501C30.6427 208.496 26.364 205.764 25.2615 205.249C19.9518 202.767 13.9848 200.202 8.00408 200.661C7.20238 200.722 5.56498 201.089 5.3586 201.969C5.60884 202.549 8.64124 204.073 9.31241 204.371C13.7055 206.319 17.3542 208.999 21.2855 211.631C22.4038 212.381 30.0616 213.768 29.7727 215.652C29.5321 215.971 29.5975 215.953 29.2729 216.15C28.5641 216.046 27.5786 215.154 26.7254 214.814C22.1271 212.987 17.1346 210.851 12.1274 211.438C14.2566 210.491 16.7505 210.688 18.9708 211.204C17.3514 209.911 15.9086 208.944 14.1605 207.863C11.4912 206.212 9.95182 205.966 7.03275 207.306L7.80042 207.503C4.85575 207.823 2.90017 211.977 2.14305 214.454C5.65791 213.743 7.56275 214.982 9.70704 211.97L9.86778 212.163C9.20608 213.08 8.76025 213.445 7.84843 214.13L7.49565 214.39C5.56699 214.863 2.48978 213.998 0.645997 215.403L0.496399 215.703C0.982418 216.518 4.58156 216.301 5.59615 216.322C9.37939 216.396 13.2019 216.554 16.7139 218.137C17.684 218.574 18.6633 219.224 19.664 219.626C22.5341 220.571 25.9166 221.721 28.553 223.231H25.0494H19.0609H16.9985H10.9525H10.4371H4.19796H2.86852L2.88915 223.118L2.9253 222.931C3.16132 221.641 4.42817 218.072 4.15232 217.299C2.92282 216.796 0.380226 217.394 -0.112549 215.901C0.11991 214.856 0.751854 215.269 1.4369 214.618C1.60985 214.173 1.8109 213.269 1.9445 212.873C3.23328 209.051 7.13233 205.46 11.3638 206.272C10.541 205.829 4.27157 202.894 4.97203 201.882C9.148 195.858 21.9872 201.89 26.704 204.381C22.3577 200.839 17.78 196.965 12.1529 195.618C11.0944 195.364 10.8672 195.336 9.98715 195.906L9.85047 195.996L9.72257 195.961L9.93748 195.564L9.88556 195.462L8.04853 195.623Z" fill="#0B0B0B"/>
<path d="M149.682 219.252C149.444 217.622 150.149 211.313 150.464 209.524C151.235 205.76 151.601 201.791 152.157 198.036C152.849 193.366 153.633 188.922 153.993 184.231C154.071 183.206 154.678 172.609 154.561 172.803C155.238 175.931 155.186 178.669 155.177 181.832C155.15 192.742 153.787 203.593 153.294 214.482C153.165 217.345 152.757 220.388 152.801 223.231H150.508H145.604H144.012H141.514H140.474H128.298H124.672H116.84H115.599H91.3442H90.0485H83.773H81.0762C82.3552 222.539 85.9838 221.911 87.5272 221.513C97.5083 218.935 107.217 215.366 117.19 212.84C118.637 212.474 121.214 212.997 122.611 213.418L123.53 213.695C127.542 208.151 130.366 202.16 134.219 196.865C133.425 198.936 132.103 201.336 131.045 203.302L127.23 210.317C126.495 211.636 125.47 213.196 124.882 214.536C127.54 213.749 128.571 213.769 131.229 214.707C130.529 212.853 129.622 209.325 130.508 207.444C130.786 206.84 131.295 206.374 131.921 206.152C133.68 205.526 136.952 206.866 138.503 207.706C143.212 210.256 146.629 214.979 149.682 219.252Z" fill="#0B0B0B"/>
<path d="M15.1827 193.143C15.9288 191.565 16.3887 189.749 17.1548 188.13C21.9152 178.065 26.1237 165.692 36.256 159.8C39.4613 157.936 43.8618 156.642 47.3501 155.557C52.622 153.864 57.9492 152.352 63.3229 151.022C64.4608 150.729 66.1961 150.082 67.1809 149.891L67.3466 150.085C63.7171 153.913 53.2033 166.456 52.97 171.284C54.407 171.991 55.8322 172.007 57.3517 172.324C59.7051 172.827 62.2103 173.326 64.3563 174.446C67.1947 175.927 68.0454 179.344 69.206 182.099C71.095 186.621 73.0502 191.074 75.2337 195.461C75.9343 196.869 76.4591 198.609 77.0739 200.075C77.587 201.299 78.1544 202.59 78.4949 203.867C77.4559 202.208 76.658 199.906 75.7491 198.134C72.4244 191.655 69.4586 184.775 66.3814 178.188C63.867 172.806 54.0473 174.216 52.1931 171.405C52.6068 170.846 53.1711 170.392 52.9227 169.595C52.431 169.652 52.3085 170.283 52.1417 170.715C51.9541 170.336 52.1437 169.806 52.2717 169.427C53.8084 164.872 63.2667 153.936 66.7834 150.234C64.5597 151.072 62.2557 151.742 59.9942 152.481C55.6544 153.924 51.3064 155.341 46.9506 156.734C43.8148 157.749 40.3554 158.834 37.3632 160.136C35.879 160.78 31.6135 163.17 30.6347 164.484C25.7812 170.999 22.4665 178.927 18.9984 186.243C17.6851 189.015 17.2444 190.628 15.4236 193.079C20.6331 192.559 32.9722 195.746 34.632 201.346L34.7901 201.444C39.7447 204.578 42.796 209.476 48.3339 212.391C53.9917 215.37 59.5775 218.01 65.5485 220.335C67.3826 221.113 71.2371 222.415 72.7969 223.231H69.7013C67.7615 222.099 64.8982 221.343 62.7907 220.378C56.8773 217.671 50.7245 215.482 45.301 211.817C41.3267 209.133 38.5125 205.713 35.2182 202.3C33.8188 200.851 32.6212 199.174 30.8919 198.059C26.9832 195.63 20.5191 193.559 15.8438 193.586C14.3686 193.595 13.6156 194.086 12.4772 194.31L12.3198 194.34C12.797 193.709 14.4152 193.327 15.1827 193.143Z" fill="#0B0B0B"/>
<path d="M107.338 143.164C109.636 144.387 109.343 144.755 110.966 146.022C113.693 146.491 116.508 146.87 119.181 147.58C127.985 149.922 147.831 157.279 152.982 164.624C156.663 169.875 156.102 180.838 155.884 187.148L155.623 187.728C155.646 182.168 155.898 170.674 153.298 165.944C152.501 164.492 151.333 163.194 150.036 162.179C145.987 159.012 141.136 157.05 136.457 155.039C131.05 152.714 125.523 150.5 119.904 148.74C117.034 147.841 114.086 147.272 111.194 146.463C111.905 147.434 112.501 148.232 113.285 149.156C114.783 149.731 116.873 150.197 118.585 150.797C129.16 154.494 139.982 158.348 149.167 164.946C149.785 165.389 151.145 166.722 151.755 167.3L151.688 167.475C144.811 161.153 136.376 157.961 127.826 154.681C123.117 152.857 118.357 151.164 113.555 149.605C117.401 155.879 120.207 162.74 121.861 169.92C122.09 170.916 123.129 178.476 123.337 178.717C123.497 178.902 123.44 178.822 123.548 179.014C123.456 179.111 123.252 179.392 123.146 179.358C118.476 177.787 113.26 173.073 108.716 177.984C102.898 184.273 97.3507 192.559 92.1941 199.568C90.9056 201.316 89.6716 203.366 88.3238 204.996L88.1614 204.865C91.5007 199.751 106.331 177.411 111.202 175.499C114.575 174.175 119.697 177.343 122.737 178.682C121.782 168.313 117.822 157.833 112.018 149.236C111.177 147.99 110.382 146.662 109.412 145.514C108.742 144.723 107.96 144.027 107.231 143.292L107.338 143.164Z" fill="#0B0B0B"/>
<path d="M127.23 64.1852C127.743 63.3494 128.353 62.4058 129.002 61.6032C130.345 59.9452 133.151 56.1435 135.667 57.5915C136.615 58.1372 137.131 59.7952 137.298 60.8239C138.194 65.5486 135.974 70.5707 132.785 73.9603C131.474 75.3532 128.322 77.2886 126.42 77.5167L126.201 77.3476C129.497 75.1148 131.233 71.9728 130.45 67.8592C130.177 66.4236 129.32 65.5088 128.108 64.773L128.274 64.6175L127.23 64.1852Z" fill="white"/>
<path d="M128.274 64.6177C131.78 66.6822 131.319 71.6793 129.45 74.7302C128.641 76.0512 127.528 76.5906 126.42 77.5169L126.201 77.3478C129.497 75.115 131.233 71.973 130.45 67.8594C130.177 66.4239 129.32 65.509 128.108 64.7732L128.274 64.6177Z" fill="#242224"/>
<path d="M121.201 69.9904C121.554 70.0825 122.37 70.3476 122.624 70.1008C123.664 69.0176 124.058 67.2432 124.763 65.9449C126.567 62.6282 130.285 55.8163 134.717 56.2182C137.895 56.5063 138.323 62.1954 137.83 64.6763C136.947 69.1127 134.896 73.248 131.167 75.9713C128.943 77.5598 125.784 78.5274 123.062 78.1628L123.162 78.045L123.278 78.046C124.462 78.0482 125.116 77.8525 126.201 77.3478L126.42 77.5169C128.322 77.2888 131.474 75.3534 132.785 73.9605C135.974 70.5709 138.194 65.5488 137.298 60.824C137.131 59.7954 136.615 58.1374 135.667 57.5917C133.151 56.1437 130.345 59.9454 129.002 61.6034C128.353 62.4059 127.743 63.3496 127.23 64.1854L128.274 64.6176L128.108 64.7732C127.155 64.5441 127.198 64.4869 126.502 65.303C124.745 67.3616 124.815 72.241 121.139 70.0647L121.201 69.9904Z" fill="#0B0B0B"/>
<path d="M81.2136 219.13C81.7482 215.384 85.8178 207.924 88.1613 204.865L88.3237 204.996C86.3227 208.027 84.1321 211.979 82.6266 215.277C82.0944 216.441 81.785 217.837 81.2622 219.023L81.2136 219.13Z" fill="#242224"/>
<path d="M155.884 187.148C155.879 189.221 155.725 191.599 155.619 193.688C155.51 193.322 155.52 192.812 155.507 192.415C155.528 191.615 155.532 188.256 155.623 187.728L155.884 187.148Z" fill="#6A6C6F"/>
<path d="M151.755 167.3C152.114 167.691 152.47 168.084 152.822 168.482L152.814 168.471L152.907 168.851L152.752 168.726L153.02 168.808L152.971 168.893C152.444 168.502 152.051 168.021 151.688 167.475L151.755 167.3Z" fill="#BABABE"/>
<path d="M155.62 193.688C155.647 193.876 155.639 194.21 155.642 194.411L155.505 194.59L155.618 194.599L155.526 194.67L155.518 194.664C155.313 193.93 155.309 193.153 155.507 192.415C155.52 192.812 155.51 193.322 155.62 193.688Z" fill="#E7E7E8"/>
<path d="M66.3465 9.40041C69.429 4.34806 75.3904 4.18815 80.3488 5.83238C80.89 6.01184 82.0197 6.43857 82.5046 6.27794C83.3711 5.74193 83.85 5.48275 84.7746 5.05388C86.6002 6.30665 88.8489 6.71575 90.5665 8.42874C93.8738 11.7289 95.0901 17.6968 100.075 18.987C99.7547 19.1648 99.1228 19.1071 98.7281 19.1059C97.5533 19.361 96.1783 19.6296 94.9751 19.6611L94.1975 19.7662L94.1168 19.8715C91.9132 21.9161 87.4963 22.859 84.5778 23.5966C84.1286 23.7102 82.8803 23.8877 82.6444 23.9601C82.3185 24.1157 82.1075 24.2891 81.804 24.263C78.3094 25.4334 74.3956 25.4476 70.815 26.1613C66.8888 26.9438 63.9969 27.7109 59.9774 27.675C56.1051 27.6405 46.996 28.6404 45.6441 32.9907L45.5978 33.1443L45.4598 33.2139C44.2289 31.2967 45.4742 25.2194 46.4835 23.4024C51.2634 14.7967 61.9482 16.3908 69.9371 14.8518C71.852 14.483 79.2722 8.24213 81.4709 6.65891C79.4288 5.89196 77.3536 5.53137 75.1824 5.4439C71.5507 5.29757 68.9085 6.91773 66.3465 9.40041Z" fill="#0B0B0B"/>
<path d="M84.7747 5.05371C86.6002 6.30649 88.849 6.71558 90.5666 8.42857C93.8739 11.7287 95.0901 17.6966 100.075 18.9868C99.7547 19.1646 99.1229 19.1069 98.7282 19.1057L98.5338 18.9319C94.6966 19.2958 92.3198 13.6031 90.1102 11.3209C88.3416 9.49462 86.8598 8.36375 84.6028 7.2181C83.9378 6.9327 83.3795 6.79316 82.7429 6.42291L82.5046 6.27777C83.3712 5.74177 83.8501 5.48258 84.7747 5.05371Z" fill="#0B0B0B"/>
<path d="M84.7605 6.99951C86.516 7.72713 88.1294 8.3879 89.5886 9.66153C93.6072 13.1688 93.2515 16.5562 98.5337 18.9318C94.6966 19.2958 92.3198 13.603 90.1102 11.3209C88.3416 9.49458 86.8598 8.36371 84.6028 7.21806L84.7605 6.99951Z" fill="white"/>
<path d="M82.7429 6.42285C83.4447 6.48887 84.1287 6.68442 84.7605 6.99949L84.6028 7.21804C83.9378 6.93264 83.3795 6.7931 82.7429 6.42285Z" fill="#949496"/>
<path d="M45.7175 31.8135C45.4983 29.5266 45.5419 27.0506 47.594 25.6085C53.0612 21.7663 61.2487 22.9753 67.5033 23.4973C69.8315 23.6869 72.1633 23.8265 74.4973 23.9161C75.9258 23.9841 77.3933 24.0675 78.822 24.0847C79.9867 24.0988 81.5184 23.8004 82.6446 23.9601C82.3186 24.1157 82.1076 24.2891 81.8041 24.263C81.0407 24.1734 79.0771 24.5121 78.0971 24.5441C76.2915 24.603 74.7112 24.5184 72.8756 24.5292C65.2453 24.5744 54.7431 21.655 47.9344 26.1148C46.0131 27.3733 46.0211 29.6777 45.7175 31.8135Z" fill="white"/>
<path d="M78.4146 10.6123C81.2326 11.0537 83.0463 12.0087 85.4551 13.4165C87.6398 14.6929 92.8366 19.5076 94.9751 19.661L94.1975 19.7661L94.1168 19.8714C92.6944 19.374 91.4366 18.377 90.224 17.4699C86.8538 14.9488 82.7725 11.4656 78.4723 10.8324L78.4146 10.6123Z" fill="#E7E7E8"/>
<path d="M78.4722 10.8326C77.9922 10.8653 77.6092 10.9325 77.1506 10.7968L77.1515 10.6735C77.7184 10.5254 77.8138 10.5599 78.4145 10.6125L78.4722 10.8326Z" fill="#6A6C6F"/>
<path d="M70.2256 15.0841C72.9257 14.9786 73.9887 15.5424 76.5527 16.1978L83.9307 18.1131C86.1 18.6547 88.0275 18.9332 90.2395 19.2556L89.7606 19.5121C88.1579 19.2828 85.921 19.1128 84.3907 18.7905C82.0222 18.2917 79.5722 17.5599 77.1881 17.0156C75.2093 16.5638 72.0188 15.9106 70.2256 15.0841Z" fill="#EFEEF0"/>
<path d="M90.2394 19.2554C90.5891 19.2811 92.1527 19.3714 92.3803 19.4556C91.4177 19.6046 90.7373 19.643 89.7605 19.5118L90.2394 19.2554Z" fill="#949496"/>
<path d="M82.7214 2.92809L82.9312 2.84742C86.3867 1.49621 87.9585 -0.709882 91.8407 1.12287C93.345 1.83309 94.3242 2.58526 95.6696 3.36757C99.6716 5.697 102.935 8.28883 104.913 12.6399C105.475 13.8767 104.932 16.6214 105.456 17.4513L105.382 17.2728L105.576 17.1608C105.779 16.1491 105.776 15.7195 105.786 14.6732C107.768 20.6854 112.515 19.6611 117.571 19.6238C122.256 19.5891 128.368 20.6223 130.167 25.7244C131.407 29.3458 130.292 33.1683 127.913 36.0022L127.97 35.8722C128.393 34.9258 128.931 34.0558 129.351 33.1159C130.306 30.9717 130.605 27.9351 129.736 25.7199C128.69 23.0532 125.791 20.9853 123.092 20.3627C132.368 26.3804 124.962 40.3825 123.125 48.629C123.025 49.0757 123.252 49.5005 123.586 49.7698C123.898 50.0175 124.307 50.1029 124.691 49.9998C125.182 49.8662 125.761 49.0167 126.386 48.9832C126.591 49.4954 126.471 49.4368 126.845 49.6213C127.762 49.5866 128.328 49.1916 129.143 48.7602C127.183 50.7599 127.071 50.098 125.041 51.2636C126.145 52.3693 128.083 50.8689 129.142 50.7486C129.712 50.2384 129.988 49.4809 130.677 48.8821L130.749 48.9683C130.383 51.1538 129.098 52.2376 127.448 53.6671C126.211 54.7391 124.771 54.2779 124.173 54.5992C124.37 55.3258 125.861 57.127 126.419 57.753C128.239 55.2369 130.113 52.9344 133.328 52.5105C138.7 51.8021 141.716 56.175 142.193 61.0025C142.804 67.1822 140.3 72.9224 136.564 77.6563C134.128 80.6911 129.687 83.6484 125.762 84.2492C124.454 84.4494 123.329 83.8817 122.213 83.3474C125.132 84.0726 126.876 83.5686 129.655 82.3456C135.259 79.8796 139.372 73.9189 140.876 68.1303C142.164 63.1783 141.972 54.6728 135.689 53.3978C131.207 52.3913 127.657 56.2373 125.633 59.7536C125.416 60.0215 125.076 60.3677 124.835 60.6272C123.208 59.8002 122.629 59.0916 121.87 57.3674C121.649 56.8658 121.191 55.3668 121.397 54.8604C121.389 54.6722 120.765 53.2683 120.704 52.8413C120.481 51.266 120.235 49.6201 120.113 48.038C119.957 45.728 119.912 43.4118 119.979 41.0974C120.076 35.8996 120.435 30.5209 116.808 26.192C114.157 23.0288 109.513 21.3316 105.664 20.2656C104.79 20.0237 103.774 19.5599 102.935 19.4871L102.743 19.4726C101.892 19.3117 100.932 19.1795 100.143 18.8572L100.075 18.987C95.0899 17.6968 93.8737 11.7289 90.5664 8.42873C88.8488 6.71574 86.6 6.30665 84.7745 5.05387L84.6038 4.64895C82.6894 3.52439 77.0922 2.24385 74.8485 2.37696C70.4587 2.63757 67.5882 3.53178 64.8448 7.08682C64.3973 7.66679 63.3462 9.08021 62.9174 9.52457L62.887 9.42721C63.3692 8.37868 65.4191 5.4862 66.2789 4.61761C69.3069 1.69093 74.4067 1.17757 78.3463 2.04306C79.7509 2.35158 81.3878 3.13735 82.7214 2.92809Z" fill="#0B0B0B"/>
<path d="M82.7214 2.92795C85.0827 2.75171 87.0125 0.490557 89.253 0.784059C91.1911 1.03776 93.8607 2.38396 95.3839 3.60504C94.6217 3.52616 94.0527 3.07381 93.3331 2.91425C90.6672 2.32319 87.7226 2.97299 85.3992 4.35649C84.7958 4.13961 82.8932 3.5258 82.4807 3.13518C82.6479 2.932 82.553 2.98074 82.7214 2.92795Z" fill="white"/>
<path d="M84.604 4.64893C87.0294 5.33579 90.7148 6.80223 92.2321 8.89893C94.9171 12.6106 95.8595 16.3784 100.144 18.8572L100.075 18.9869C95.0901 17.6967 93.8739 11.7289 90.5666 8.42871C88.849 6.71572 86.6002 6.30662 84.7747 5.05385L84.604 4.64893Z" fill="white"/>
<path d="M124.836 60.6272C123.208 59.8002 122.63 59.0915 121.87 57.3673C121.649 56.8658 121.192 55.3668 121.397 54.8604L121.675 55.2572C123.048 56.415 123.687 58.4041 125.99 58.262C125.978 58.7278 125.641 59.2289 125.401 59.6393L125.633 59.7536C125.417 60.0215 125.076 60.3677 124.836 60.6272Z" fill="white"/>
<path d="M124.836 60.6272C123.208 59.8002 122.63 59.0915 121.87 57.3673C121.649 56.8658 121.192 55.3668 121.397 54.8604L121.675 55.2572C122.238 57.0657 123.244 59.4695 125.401 59.6393L125.633 59.7536C125.417 60.0215 125.076 60.3677 124.836 60.6272Z" fill="#0B0B0B"/>
<path d="M102.743 19.4723C100.13 17.0386 100.422 14.1662 99.7107 10.8891C99.1678 8.38142 98.6296 7.10112 97.0708 5.10059C97.6469 5.26039 98.5206 6.55582 98.8418 7.06907C101.242 10.9018 99.4855 15.8372 102.747 19.1855C102.838 19.2793 102.867 19.3609 102.935 19.4869L102.743 19.4723Z" fill="#E7E7E8"/>
<path d="M104.045 38.8164C106.961 38.8528 109.758 39.9786 111.893 41.9749C114.517 44.3901 115.813 47.9859 115.927 51.5097C116.179 59.3068 111.439 65.3712 103.435 65.6119C92.5 65.4318 88.3404 53.5896 93.7636 45.1281C96.3134 41.1492 99.3398 39.0415 104.045 38.8164Z" fill="#0B0B0B"/>
<path d="M102.728 40.1103C109.495 39.6405 114.383 43.8528 115.295 50.6308C115.793 54.332 114.92 57.9425 112.639 60.9035C110.656 63.4769 108.031 64.2841 104.921 64.6269C101.724 64.7 99.8257 64.4348 97.0364 62.4909C93.9188 60.3173 92.4726 56.9146 91.8491 53.2459C91.3559 50.3506 92.8875 47.7861 94.4996 45.4469C96.2849 42.8548 99.5542 40.592 102.728 40.1103Z" fill="white"/>
<path d="M103.891 50.4439C106.298 49.9592 108.638 51.5382 109.103 53.9618C109.569 56.3855 107.981 58.7262 105.567 59.1768C103.177 59.6229 100.876 58.0466 100.416 55.647C99.9549 53.2475 101.507 50.9239 103.891 50.4439Z" fill="#0B0B0B"/>
<path d="M43.9607 52.8758C45.0604 53.9386 46.372 54.8074 47.9619 54.758C52.0546 54.6309 49.8923 46.9064 49.2581 44.626C48.3681 41.4252 45.9183 37.93 48.6545 34.8323C51.7036 31.2527 56.5993 30.0246 60.8543 28.897C60.0428 29.5281 59.2834 30.1233 58.5465 30.8422C51.3578 37.8542 54.0093 48.6265 53.4263 57.58C53.3202 59.2092 53.4487 60.9732 53.1217 62.6078C53.0881 62.1532 53.0996 61.9882 52.9295 61.5565L52.835 61.2424L52.6753 61.2877C52.3339 61.9114 52.2267 62.3504 51.9507 62.9872C51.2978 64.4944 50.0915 65.0556 48.7632 65.8154C48.0191 65.3847 47.1236 63.9646 46.5556 63.2835C42.9497 58.9602 37.0953 58.4365 34.2037 64.0019C32.1422 67.7675 33.0042 72.9433 34.1876 76.8817C35.5265 81.3379 38.6273 86.4706 42.9101 88.6553C47.2967 90.893 50.4488 91.4975 53.1288 86.62L53.2309 86.6163C52.9282 87.8773 51.5222 89.7012 50.3166 90.4236C48.332 91.6126 46.2445 90.9825 43.9906 90.2875C34.1594 87.2559 27.1242 66.5638 36.9565 60.0428C38.2368 59.1936 40.745 58.8594 42.2534 59.3801C44.9046 60.1908 46.8356 62.1334 48.4131 64.3153C49.7418 63.6709 49.8836 63.5247 50.8201 62.3695C50.909 61.5856 51.1751 60.4357 50.7417 59.818C49.9255 59.6908 47.9222 61.6998 45.8499 60.978L45.942 60.8293C46.3348 60.7909 46.6257 60.7732 47.0199 60.764C47.3013 60.3734 47.3605 59.9852 47.4852 59.5151C48.7569 59.0552 49.0766 58.7994 50.076 57.8888C49.4716 58.0877 48.8339 58.313 48.2216 58.4733L48.1083 58.4272C46.0115 57.5888 45.9923 58.1563 44.4492 56.1673C45.4606 56.5199 48.1659 57.0577 48.8447 56.0517L48.8259 55.7294C48.3074 55.6776 48.101 55.8767 47.6484 55.9063C46.1438 56.0053 45.1666 55.3825 44.2539 54.3008L43.9607 52.8758Z" fill="#0B0B0B"/>
<path d="M116.47 39.0852C113.846 31.9142 108.192 29.1086 100.862 31.9139C99.9349 32.2682 98.1331 33.5738 97.3258 33.4574L97.2891 33.2711C97.6921 32.6136 98.1248 31.9747 98.5859 31.3565C100.446 28.8582 103.234 27.2254 106.314 26.8313C111.27 26.1753 115.943 29.2476 116.963 34.4544C117.152 35.4151 117.036 36.7331 117.176 37.8399L116.934 38.1613C116.57 37.3019 115.754 34.1494 114.747 34.0574C114.824 34.4815 115.16 35.0962 115.352 35.5026C116 36.872 116.305 37.587 116.47 39.0852Z" fill="#0B0B0B"/>
<path d="M65.9912 34.8829C69.4765 34.6092 73.0453 36.0687 74.4195 39.4755C74.6057 39.9374 74.6839 40.8121 74.7459 41.3267C73.8942 40.185 73.0777 39.6028 71.7411 39.1602C64.7229 36.836 59.0313 40.512 56.7067 47.146C56.5903 47.7942 56.5603 48.2218 56.2386 48.7868C56.1531 46.1977 57.9491 43.1414 59.4331 41.1481C59.2547 41.262 59.0824 41.3854 58.9168 41.5174C57.5562 42.6238 56.0423 44.5817 55.8157 46.4025C55.7954 46.566 55.8403 46.478 55.7247 46.6072C55.5586 46.3035 55.584 46.321 55.5638 45.9594C55.4014 43.0559 56.8019 40.2166 58.6721 38.0796C60.6401 35.831 63.1004 35.0634 65.9912 34.8829Z" fill="#0B0B0B"/>
<path d="M74.9441 41.3452C79.2786 46.3084 80.032 57.6027 80.1065 64.0479C80.118 65.037 80.2037 66.0397 80.1993 67.0284C80.2248 67.1271 80.1485 67.9418 80.056 67.9485C78.7766 68.0411 77.3858 68.0406 76.133 68.2962C75.0249 68.5224 73.8886 68.7153 73.0977 69.5866C72.7801 69.9367 72.6771 70.0613 72.6766 70.5531C73.8276 73.3953 87.8828 72.9509 90.6543 72.0481C93.0643 71.2627 96.6347 71.2355 98.3583 68.9706C99.1027 67.9929 97.4088 66.9151 96.7414 66.5929C93.5906 65.2157 91.0336 66.5338 88.0429 67.4735C90.2181 65.8607 94.642 64.768 97.2476 65.7624C98.3453 66.1815 98.868 66.8845 99.3102 67.9226C99.002 69.0037 98.7388 69.6431 97.8711 70.4002C95.8405 72.1732 89.7996 73.6587 87.3672 73.543C87.1016 73.5567 87.0839 73.517 86.8835 73.628L85.1042 73.7849C84.9869 73.9102 84.8636 74.0304 84.7356 74.1454C82.9942 75.7331 80.7241 76.28 78.4308 76.1429C80.7455 75.6067 82.2071 75.2902 84.0433 73.6459C81.6606 74.3483 79.7521 75.4556 77.1309 75.5344C76.2485 75.5608 75.7624 75.8655 74.7535 75.6768L74.6753 75.5408C75.0681 75.3925 75.8162 75.3337 76.2719 75.2598C78.0466 74.9718 79.947 74.7784 81.5101 73.824L81.6215 73.7542C78.9105 73.7819 75.2784 73.3328 72.8624 71.9108C72.007 71.4074 71.6095 70.2033 72.4391 69.4442C74.413 67.6377 77.3024 67.5911 79.802 67.486C78.938 58.7264 79.465 49.4121 74.9441 41.3452Z" fill="#0B0B0B"/>
<path d="M69.7469 52.4803C74.6466 52.2712 76.7192 59.0612 71.4482 60.5706C70.4866 60.7291 69.7363 60.7453 68.8078 60.3341C67.8536 59.9098 67.1157 59.1088 66.7678 58.12C66.3745 57.0191 66.439 55.8052 66.9465 54.7527C67.5408 53.5252 68.5073 52.9166 69.7469 52.4803Z" fill="#0B0B0B"/>
<path d="M104.356 72.9162C104.758 72.8019 106.221 73.0156 106.651 73.1606C108.461 73.7711 109.213 74.2333 110.128 75.8134C110.045 76.2466 110.013 76.7193 109.716 76.9891C108.575 75.5174 106.623 74.944 104.853 74.3527C103.288 76.3184 99.4832 78.38 97.0709 79.1641C88.242 82.0342 79.2993 82.9782 70.3299 80.2442C69.6288 80.0208 68.9432 79.7504 68.2779 79.4351C67.5498 79.089 65.965 78.1623 65.7041 77.4093C69.0965 80.5129 77.0965 81.0539 81.5551 80.7422C89.1476 80.2113 98.1034 78.5716 104.447 74.1747C103.863 73.9466 103.025 73.6909 102.62 73.2527L102.686 73.0759C103.214 72.8363 103.761 72.9076 104.356 72.9162Z" fill="#0B0B0B"/>
<path d="M51.8052 83.8054C42.0607 87.1772 33.6331 73.7105 36.8664 65.2085C37.6464 63.1578 39.201 60.1362 41.8 61.6834C46.3004 64.3627 49.746 69.5605 53.1829 73.4474C53.3298 73.6135 53.2085 73.8975 53.1265 74.0492C51.438 75.0095 49.9158 71.7004 48.9431 71.5948C47.5973 74.5756 51.0493 76.1933 53.0883 77.4346C51.4027 77.3535 50.3533 77.0983 49.0431 75.9158C47.4784 74.5034 46.6748 71.99 48.2976 70.3157C46.5471 67.688 44.0518 64.2383 41.2387 62.558C40.6651 62.2154 40.3936 62.3766 39.8166 62.5559C39.1453 62.7643 39.8964 62.3044 38.9774 62.5632C38.634 63.0639 37.5093 64.635 37.2906 65.1203C36.0799 67.8609 36.4269 71.158 37.3337 73.9205C39.1222 79.3693 45.4342 85.8169 51.6381 83.6218L51.8052 83.8054Z" fill="#0B0B0B"/>
<path d="M59.4263 50.814C60.017 48.1884 60.7983 46.4562 63.1078 44.9862C64.8475 43.8788 67.4722 43.0752 69.4599 43.6246C75.7583 45.3706 79.353 53.0061 77.7373 59.1751C77.0156 61.9305 75.4908 64.9464 72.9913 66.3922C68.7999 68.8169 63.5363 67.1196 61.2718 62.8914C59.9637 60.4488 59.4252 58.4044 59.2502 55.7216C59.2625 55.3164 59.2722 55.1153 59.3345 54.7168L59.4772 54.7377C59.8312 58.5032 61.3853 62.3704 64.285 64.7911C67.5531 67.5192 72.4477 67.3531 75.0933 63.8192C76.9296 61.4576 77.6264 58.2947 77.2707 55.2935C76.8564 51.7974 75.1653 48.4277 72.4292 46.1272C68.7837 43.0619 64.0966 44.1971 61.2322 47.6651C60.4578 48.6027 60.0592 49.7773 59.4263 50.814Z" fill="#0B0B0B"/>
<path d="M96.004 34.4946L96.0597 34.5485C90.9684 39.726 86.5693 50.2832 84.8742 57.3559C84.3028 59.8406 83.9045 62.3623 83.6828 64.9028C83.5856 65.9755 83.4849 71.6045 83.3225 71.9433L83.1162 71.9689L83.0724 71.8449C82.2592 69.5637 82.7819 63.9793 83.0463 61.4789C83.9424 52.9978 89.3479 39.85 96.004 34.4946Z" fill="#0B0B0B"/>
<path d="M152.361 169.823C152.409 169.86 152.457 169.897 152.506 169.934C151.944 170.408 151.317 170.767 150.77 171.256C147.394 174.282 144.818 178.586 142.649 182.532C142.382 183.018 141.455 184.426 141.424 184.832C141.668 184.677 141.894 184.186 142.099 183.901C143.979 181.295 148.207 177.741 151.379 177.21C146.504 179.137 144.746 181.978 141.335 185.352L141.257 185.195L141.111 185.5C140.018 188.037 138.25 190.56 137.194 193.158C136.658 194.476 135.914 196.598 134.868 197.567L134.596 197.537C134.475 197.314 134.469 197.039 134.582 196.805C136.391 193.043 138.131 189.155 139.979 185.418C142.531 180.258 147.14 172.415 152.361 169.823Z" fill="#0B0B0B"/>
<path d="M86.8682 24.5243C82.366 26.3537 77.862 27.6024 73.2175 29.0018C66.4097 31.0529 58.3466 32.0364 55.1102 39.3237C55.0443 39.283 55.0909 39.3242 54.9611 39.1064C54.9297 38.7545 54.9831 38.5055 55.1236 38.1771C58.027 31.3884 65.4491 30.1864 71.6557 28.516C76.9142 27.1008 83.0203 25.8522 87.9078 23.7173L88.2409 23.8449L86.8682 24.5243Z" fill="#0B0B0B"/>
<path d="M46.2591 37.831C46.2451 35.654 45.2254 34.2893 47.0459 32.3295C50.1646 28.9722 55.2496 28.4605 59.5478 28.2266L59.9539 28.4716C54.5637 29.807 47.9753 31.8139 46.4408 37.9188L46.2591 37.831Z" fill="#0B0B0B"/>
<path d="M83.9438 27.4844L84.0955 27.7069C79.4772 30.6999 71.722 32.5051 66.4103 33.6913C63.6566 34.3062 60.9545 34.777 58.4216 36.1319C62.0987 32.8996 69.6414 32.5633 74.2969 31.1653C77.5562 30.1866 80.8984 29.0047 83.9438 27.4844Z" fill="#0B0B0B"/>
<path d="M29.6648 166.221C31.9537 167.514 33.8042 180.665 34.4233 183.548L36.8166 194.462C37.3075 196.723 37.9254 199.133 38.1368 201.418L37.9394 201.384C37.4969 200.968 37.0433 197.712 36.8886 196.949L35.5643 190.558C35.0019 187.778 34.3223 184.791 33.7165 182.009C32.6799 177.251 32.081 170.298 29.6648 166.221Z" fill="#0B0B0B"/>
<path d="M54.8319 104.757L54.9554 104.961C54.7437 106.669 51.8147 111.819 50.9194 113.469C50.6166 114.028 50.2365 114.691 49.5906 114.864C49.4072 114.628 49.3753 114.563 49.2344 114.296C49.5412 113.597 50.5355 112.178 50.9821 111.456C52.3045 109.321 53.8264 107.061 54.8319 104.757Z" fill="#0B0B0B"/>
<path d="M105.317 24.992C107.43 24.6989 112.403 25.1403 114.128 26.3825C113.283 26.3715 111.462 25.5464 110.359 25.4482C107.129 25.1606 103.742 25.5392 100.551 25.9376C97.8521 26.4077 93.9509 26.7424 91.3916 25.6881C97.3898 26.7698 99.4974 25.4008 105.317 24.992Z" fill="#0B0B0B"/>
<path d="M45.2125 107.931C43.1833 110.336 41.0517 112.662 39.1918 115.2C38.8361 115.686 38.0913 116.29 37.461 116.288L37.3647 116.111C37.6725 115.174 43.6883 109.057 44.9107 107.787L45.2125 107.931Z" fill="#0B0B0B"/>
<path d="M140.774 3.66748C141.242 3.74553 141.352 3.85588 141.383 4.28571C140.952 5.01392 139.4 6.78149 138.786 7.51781C137.073 9.59854 135.335 11.6585 133.572 13.6974L133.289 13.9081C133.341 13.65 140.181 4.47947 140.774 3.66748Z" fill="#0B0B0B"/>
<path d="M135.896 29.5128C137.17 29.3854 141.226 29.6629 142.458 30.5265C142.723 30.7127 142.645 31.0287 142.632 31.3372C142.553 31.3667 142.305 31.463 142.253 31.4574C141.295 31.3528 136.498 29.8851 135.896 29.5128Z" fill="#0B0B0B"/>
<path d="M149.854 183.855L149.952 184.021C146.619 185.271 142.384 188.501 139.851 191.039C138.765 192.127 137.839 193.398 136.744 194.505C139.871 189.497 144.493 186.136 149.854 183.855Z" fill="#0B0B0B"/>
<path d="M97.6021 24.0194C101.103 23.6185 104.278 22.7607 107.863 23.0864C110.367 23.3139 111.346 23.8554 113.572 24.9049L113.626 25.0184C106.995 22.1443 104.136 23.8927 97.6637 24.2318L97.6021 24.0194Z" fill="#0B0B0B"/>
<path d="M44.463 50.165C44.8795 50.3284 45.9445 51.556 46.5039 51.9668C47.4811 52.6845 48.5058 52.42 49.4054 52.9136V53.1521C47.2802 53.879 44.2164 52.5525 44.463 50.165Z" fill="#0B0B0B"/>
<path d="M138.346 16.2173L138.748 16.2764L138.896 16.5061C138.865 16.6009 138.833 16.6956 138.802 16.7905C137.291 17.88 134.958 18.4063 133.541 19.6447L133.444 19.7789L133.31 19.7859C133.714 18.877 137.298 16.6703 138.346 16.2173Z" fill="#0B0B0B"/>
<path d="M117.961 72.7646L118.132 73.0479C117.989 73.5362 117.858 74.0235 117.747 74.5203C116.924 78.1513 116.13 81.8697 115.191 85.4684L115 85.4955C115.172 85.1058 115.586 82.8038 115.734 82.237C116.559 79.0926 117.07 75.8874 117.961 72.7646Z" fill="#4B4B4D"/>
<path d="M52.9297 61.5562C53.0998 61.9878 53.0883 62.1528 53.1219 62.6074C52.934 64.4063 52.1188 66.3964 50.4287 67.2166L50.1262 67.0459L50.309 67.2423L50.224 67.2353C49.8851 66.6277 51.1342 66.3146 51.5216 65.7142C52.3643 64.4076 52.6239 63.0162 52.9297 61.5562Z" fill="#0B0B0B"/>
<path d="M86.8835 73.6279C87.0839 73.517 87.1017 73.5567 87.3672 73.543C87.1586 73.779 87.2012 73.7728 87.0483 74.0175C86.2671 75.2749 84.6727 76.1614 83.3285 76.5475C82.8875 76.6751 82.4394 76.7769 81.9878 76.8521C84.0137 76.1126 85.6187 75.4628 86.8835 73.6279Z" fill="#0B0B0B"/>
<path d="M82.5531 86.9634C82.8779 87.0301 82.757 86.9457 82.9704 87.1478C81.6665 88.5086 81.8573 89.093 82.8756 90.5266L82.6587 90.5931C81.2634 89.9618 81.3737 87.9459 82.5531 86.9634Z" fill="#0B0B0B"/>
<path d="M83.2847 92.6231C84.1441 92.6164 85.7349 93.0638 86.7046 93.2083L86.8267 93.2256L86.9179 93.3897C85.9329 93.6195 83.7351 93.7706 83.2847 92.6231Z" fill="#0B0B0B"/>
<path d="M89.776 23.1069C89.4595 23.8316 87.6565 25.421 86.8682 24.5244L88.2409 23.845C88.6759 23.6708 89.3362 23.3215 89.776 23.1069Z" fill="#E7E7E8"/>
<path d="M44.9106 107.787C45.4383 107.215 47.333 105.176 47.9016 104.818C47.5741 105.319 45.7149 107.36 45.2125 107.931L44.9106 107.787Z" fill="#0B0B0B"/>
<path d="M121.058 57.1987C121.637 57.7216 121.465 60.1036 122.64 61.3262C121.457 60.9773 121.158 58.2678 121.058 57.1987Z" fill="#0B0B0B"/>
<path d="M87.9077 23.7173C89.2733 23.1145 90.1968 22.4043 91.4616 21.8076C91.0882 22.2291 90.2608 22.7631 89.7759 23.1069C89.3361 23.3215 88.6759 23.6708 88.2408 23.845L87.9077 23.7173Z" fill="#242224"/>
<path d="M94.6468 101.834L94.8649 101.945C94.9668 102.308 94.5258 103.46 94.3789 103.919C93.638 103.404 94.3113 102.498 94.6468 101.834Z" fill="#0B0B0B"/>
<path d="M46.131 39.5107L46.487 39.9001C46.5653 40.6639 47.0547 41.917 47.3209 42.6874L47.2534 42.8235C46.9263 42.4446 45.9549 39.9441 46.131 39.5107Z" fill="#242224"/>
<path d="M117.961 72.7647C118.137 71.9905 118.58 69.8069 118.964 69.2515C118.816 70.417 118.346 71.7949 118.132 73.0479L117.961 72.7647Z" fill="#949496"/>
<path d="M97.6637 24.232C96.8113 24.3064 95.6354 24.4111 94.7961 24.2409C95.5833 24.0642 96.7639 24.0544 97.602 24.0195L97.6637 24.232Z" fill="#4B4B4D"/>
<path d="M62.0185 28.0312C60.9609 28.5143 61.0179 28.3441 59.954 28.4714L59.5479 28.2264C60.1881 28.0993 61.34 28.0531 62.0185 28.0312Z" fill="#242224"/>
<path d="M115 85.4958L115.191 85.4688C115.043 86.2054 114.749 87.6028 114.45 88.2572C114.533 87.5108 114.745 86.1859 115 85.4958Z" fill="#BABABE"/>
<path d="M117.175 37.8398C117.294 38.5967 117.366 39.5104 117.13 40.2435C116.963 39.9328 117.021 38.7013 116.934 38.1612L117.175 37.8398Z" fill="#242224"/>
<path d="M86.4176 26.0039C85.6613 26.6964 84.9785 27.1798 84.0953 27.707L83.9436 27.4845C84.7639 26.9521 85.5724 26.4906 86.4176 26.0039Z" fill="#242224"/>
<path d="M149.854 183.855C150.533 183.569 151.117 183.302 151.833 183.12L151.975 183.275L152.093 183.208L152.035 183.078L152.202 183.121L152.03 183.245L151.958 183.092L151.891 183.106L151.882 183.32L149.952 184.021L149.854 183.855Z" fill="#949496"/>
<path d="M59.25 55.7214C59.0867 54.8306 59.2372 53.4879 59.354 52.5762C59.4413 53.3932 59.5067 53.9153 59.477 54.7375L59.3343 54.7166C59.2719 55.1151 59.2622 55.3161 59.25 55.7214Z" fill="#6A6C6F"/>
<path d="M51.6382 83.6218L51.7752 83.555C52.2082 83.3401 53.2183 82.6304 53.3893 82.583C52.9323 83.0976 52.4705 83.5664 51.8053 83.8054L51.6382 83.6218Z" fill="#949496"/>
<path d="M46.2592 37.8311L46.4409 37.9189C46.2799 38.6423 46.3582 39.1689 46.487 39.9L46.1311 39.5107C46.0964 38.6985 46.0765 38.6473 46.2592 37.8311Z" fill="#6A6C6F"/>
</g>
<defs>
<clipPath id="clip0_2473_2364">
<rect width="156" height="205" fill="white"/>
</clipPath>
</defs>
</svg>
