<!-- Heatmap brand logomark (their actual logo). Rendered in the client build's
     top-left mark slot (.ws-brand__mark-logo, 32x32, object-fit:contain) beside
     the "Heatmap" name. Transparent background, native brand green #079455. -->
<svg width="24" height="24" viewBox="0 0 24 24" fill="none" xmlns="http://www.w3.org/2000/svg">
<path d="M21.2126 14.6341V14.6958C21.2126 15.9589 20.9353 17.2529 20.3808 18.4236C18.902 21.5661 15.359 23.8768 11.7235 24C11.6311 24 11.5387 24 11.4462 24C10.4604 24 9.5053 23.846 8.58103 23.5687C4.36024 22.2747 2.63495 18.4236 2.63495 18.4236C2.38848 17.8999 2.20363 17.3453 2.1112 16.7908C1.49503 13.4634 3.62083 10.6906 4.05215 10.1669C4.5759 9.5199 5.13046 8.93453 5.77744 8.41078L6.94817 10.0436L5.9931 11.0295C5.71582 11.3376 3.99053 13.4942 4.54509 16.267C5.16126 19.5944 8.48861 21.0116 9.04316 21.1964C9.19721 21.258 9.32044 21.2888 9.32044 21.2888C10.0599 21.5045 10.8609 21.6277 11.6311 21.5969C14.3731 21.5045 17.0226 19.81 18.1317 17.4069C18.5323 16.5135 18.7479 15.5584 18.7479 14.5725C18.7787 13.8947 18.6555 13.1861 18.4398 12.5392C18.3166 12.2311 18.1934 11.923 18.0085 11.6457C17.2383 10.2901 13.0791 5.26829 11.9392 3.72786L10.6144 5.66881L14.1574 9.92041C14.4347 10.2593 14.6812 10.629 14.9276 10.9987C15.4514 11.8306 15.8827 12.4775 16.1292 13.3402C16.3756 14.1412 16.4064 14.973 16.2524 15.7741C15.8519 17.4685 14.0342 19.2555 11.7235 19.3171C11.0765 19.3479 10.4296 19.2246 9.81338 18.9782C9.19721 18.7317 8.67346 18.3928 8.21133 17.9307C7.84162 17.5918 6.45523 16.2978 6.64008 14.4185C6.79413 12.7856 7.96486 11.8306 8.24214 11.6149L9.5361 13.2478C9.13559 13.6483 8.88912 14.1412 8.85831 14.6958C8.79669 15.7741 9.62853 16.4519 9.81338 16.6059C10.1215 16.8524 10.4912 17.0064 10.8917 17.0988C11.2922 17.1913 11.6927 17.1913 12.0932 17.068C12.6478 16.914 13.1099 16.5751 13.4488 16.1746C13.7877 15.7433 14.0034 15.1887 14.0034 14.665C14.0034 14.2028 13.8801 13.7407 13.6337 13.3402L7.7492 5.73042L8.02648 5.36072C9.1664 3.82028 10.2755 2.24904 11.4154 0.708601L11.9392 0L12.5245 0.677792C12.8634 1.07831 13.2023 1.47882 13.5104 1.91014C15.2049 4.06675 18.5631 7.97946 20.0727 10.2901L20.1035 10.3209C20.7813 11.6457 21.1818 13.1245 21.2126 14.6341Z" fill="#079455"/>
</svg>
