<svg width="406" height="50" viewBox="0 0 406 50" fill="none" xmlns="http://www.w3.org/2000/svg">
<g clip-path="url(#clip0_2481_1476)">
<path d="M323 2.17699C332.729 2.24628 348.367 1.10323 355.712 8.12822C365.372 17.3731 363.786 33.3709 355.512 42.6458C345.921 49.702 334.551 48.5571 322.925 48.6282C322.832 33.1443 322.857 17.6603 323 2.17699Z" fill="#0B0B0B"/>
<path d="M331.007 8.77612C337.64 8.58384 343.063 8.18805 348.66 12.5031C357.091 19.0037 355.718 30.117 349.79 37.667C343.325 42.3404 338.744 42.0439 331.063 42.1219C330.857 31.1571 331.013 19.7728 331.007 8.77612Z" fill="white"/>
<path d="M63.2568 38.8574C64.8481 32.8638 70.8013 1.2903 77.3847 2.21298C82.3457 5.87374 87.4814 32.1465 89.4034 39.6665C91.4564 30.4522 94.0149 21.3589 95.7684 12.0528C96.5547 7.85582 97.6093 2.7717 102.352 1.74414C104.318 1.95452 104.53 2.05878 105.953 3.43843C106.208 4.85804 104.998 7.7653 104.474 9.30477C101.335 22.2454 97.5968 35.3977 94.3581 48.4382C91.7996 48.5962 88.2676 48.9664 86.0024 47.9213C83.1382 45.3431 77.6406 19.2695 76.6297 14.3639C73.4409 25.3418 70.3519 37.3429 67.5126 48.4376C64.5547 48.5612 61.1414 48.5 58.1461 48.5144C54.6828 33.4381 49.9839 16.7243 46.9012 2.09124L54.8075 2.49202C57.6281 14.7372 60.2365 26.6316 63.2568 38.8574Z" fill="#0B0B0B"/>
<path d="M280.454 2.26221C286.539 2.37645 298.158 1.91136 301.802 7.09911C307.512 15.2247 303.088 24.017 296.486 29.2329C300.635 34.5099 303.581 42.1392 307.955 48.44C305.303 48.588 302.164 48.4469 299.475 48.3951C298.27 47.0123 296.929 44.8835 295.868 43.3147C293.796 38.941 291.862 35.3514 289.49 31.125L280.923 30.8092L280.735 48.5349L272.804 48.4257L272.854 2.42827L280.454 2.26221Z" fill="#0B0B0B"/>
<path d="M280.804 8.76498C291.612 8.63887 300.018 9.21571 294.401 22.4029C291.256 24.6541 284.829 24.2627 280.804 24.3139V8.76498Z" fill="white"/>
<path d="M127.344 2.01611C129.41 2.06169 130.283 1.9874 132.218 2.75338C134.832 5.54078 140.573 33.893 142.352 40.3193C145.41 27.6858 147.956 14.9742 151.225 2.34199C153.721 2.224 156.779 2.27644 159.325 2.25459C155.843 15.6141 150.09 35.1659 147.737 48.1053C144.392 48.5853 141.615 48.5516 138.252 48.581C136.492 43.515 134.888 34.8169 133.222 28.9874C131.831 24.4114 130.714 18.6394 129.665 13.8911C126.071 24.4988 124.062 36.8801 120.293 48.4505C117.154 48.6684 114.789 48.5385 111.669 48.3918C105.254 32.1906 106.246 27.2101 109.828 11.688C112.43 19.479 114.034 32.9509 116.848 39.022C116.998 37.9564 117.172 36.8951 117.378 35.8395C118.258 31.394 124.673 3.79593 127.344 2.01611Z" fill="#0B0B0B"/>
<path d="M204.854 2.10135C206.976 2.07825 210.052 2.32858 212.242 2.43533C208.274 14.8566 203.774 35.0282 200.23 48.3316C197.272 48.4914 194.09 48.4427 191.107 48.4539C189.572 43.4522 188.193 36.9679 186.945 31.7901C185.029 26.0031 183.693 19.8346 182.289 13.8877C179.232 25.1228 176.692 36.9167 173.672 48.3335C170.657 48.6481 167.456 48.5145 164.424 48.4721C158.115 33.9301 159.656 25.1366 162.464 10.923C165.36 19.9582 166.726 29.9198 169.378 39.3233C171.4 29.8655 176.33 11.4387 179.25 2.09448C181.784 2.05515 182.52 2.04267 184.966 2.5939C187.344 4.14024 193.653 34.5831 195.25 40.0406C198.882 28.0856 200.249 13.555 204.854 2.10135Z" fill="#0B0B0B"/>
<path d="M235.494 2.11008C237.291 2.01519 240.049 1.62003 241.659 2.46593C245.553 4.51168 257.266 42.0944 259.462 48.7786C256.923 48.708 253.865 48.4371 251.294 48.271C248.991 41.5163 250.788 36.5072 242.757 36.3036L230.295 36.3935C229.085 40.0112 227.924 44.5816 226.876 48.3179C224.242 48.5513 221.341 48.4908 218.676 48.4989C220.492 42.1013 232.948 5.47931 235.494 2.11008Z" fill="#0B0B0B"/>
<path d="M238.919 10.4985C240.174 11.6041 244.367 26.6193 245.085 29.2475C243.749 30.3905 242.233 30.0634 240.143 30.1589L231.837 30.049C234.514 23.9792 236.76 16.8318 238.919 10.4985Z" fill="white"/>
<path d="M17.1103 2.16995C19.5503 2.09628 22.4519 2.26608 24.9293 2.34786C31.494 16.9528 34.9636 33.48 41.8528 48.3184C39.3255 48.492 36.2741 48.4826 33.6968 48.545C32.2553 44.9267 31.6251 40.681 29.7468 37.3742C29.0604 36.1643 27.6188 36.434 25.9714 36.3148L12.4863 36.3192C11.3194 40.2234 9.99021 44.2263 8.75464 48.1243C6.07134 48.3496 3.15711 48.4071 0.448853 48.5144L9.80296 22.037C11.388 17.4042 14.9824 5.8794 17.1103 2.16995Z" fill="#0B0B0B"/>
<path d="M20.9917 9.8999C22.1587 11.8221 26.3458 27.0388 26.8013 29.6396C25.2975 30.3606 21.8841 30.1627 20.0432 30.1752C17.8903 30.2832 17.3099 30.2189 15.1695 29.8706L14.8201 29.1745C15.6314 24.5486 19.1571 14.4097 20.9917 9.8999Z" fill="white"/>
<path d="M385.527 2.08132C386.251 1.99392 386.981 1.93461 387.712 1.90402C392.105 1.6774 399.206 2.33602 402.57 5.41246C403.231 7.4963 402.844 7.20164 401.79 9.77116C396.903 13.1004 381.746 2.43028 383.038 15.8185C384.279 18.6721 387.181 20.1691 390.102 21.3952C400.186 25.6316 409.453 31.1552 402.27 43.3473C400.055 47.1161 394.526 48.3259 390.27 49.0107C383.038 48.8122 379.562 47.0574 373.552 43.4765L377.696 37.2113C381.378 39.4961 388.067 43.8405 392.211 41.6867C393.365 41.0862 396.217 39.2739 396.304 37.9523C396.822 28.0169 378.145 27.3958 375.131 17.9323C372.298 9.03014 378.332 5.10969 385.527 2.08132Z" fill="#0B0B0B"/>
</g>
<defs>
<clipPath id="clip0_2481_1476">
<rect width="406" height="50" fill="white"/>
</clipPath>
</defs>
</svg>
