<svg width="123" height="36" viewBox="0 0 123 36" fill="none" xmlns="http://www.w3.org/2000/svg">
<g clip-path="url(#clip0_2443_4681)">
<path d="M55.8836 12.6763C57.8067 12.5815 59.1461 12.9834 59.8127 15.0059C60.5136 17.3243 60.5544 20.426 59.6309 22.6689C58.732 24.8523 55.9815 25.3514 54.0235 24.4162L54.0206 29.0717C54.4052 29.1567 54.8224 29.2243 55.2124 29.2941C55.2117 29.6635 55.1716 30.0884 55.1443 30.4617C54.6103 30.4694 54.0551 30.4628 53.5195 30.4631C52.3445 30.4553 51.1695 30.4595 49.9946 30.4759L50.0175 29.2995C50.4234 29.2063 50.7586 29.158 51.1772 29.0438L51.176 14.5155C50.7703 14.4659 50.2747 14.4425 49.8608 14.4123L49.8791 13.1315C50.8293 13.0438 52.2575 12.6842 53.2031 12.7322C53.5367 12.7491 53.5522 13.8146 53.634 13.9604C53.8814 13.8693 54.0428 13.5625 54.2449 13.4027C54.7967 12.9668 55.2204 12.8086 55.8836 12.6763ZM54.0321 22.9042C54.9096 23.2538 55.2577 23.2136 56.204 23.1843L56.9161 22.8769C57.5211 21.8359 57.5651 19.9865 57.5254 18.7886C57.4707 17.1335 57.7209 14.4077 55.396 14.4646C55.1427 14.5056 54.8732 14.543 54.6268 14.6104C54.4949 14.7469 54.1542 15.0835 54.0498 15.2153C53.9519 16.4452 54.0393 18.3329 54.0179 19.6275C54.0061 20.3431 53.9763 22.3175 54.0321 22.9042Z" fill="black"/>
<path d="M3.05073 7.69231C3.30393 7.67637 3.60316 7.67108 3.85865 7.67537C6.9525 7.72728 10.0577 7.619 13.15 7.71414C13.1002 8.921 13.0165 10.6227 12.8702 11.7999C12.1899 11.8051 11.5451 11.815 10.8654 11.7724C10.8421 10.8988 10.773 10.0602 10.7589 9.16671C9.7664 9.13081 8.52898 9.16089 7.51899 9.1605C7.5087 11.1427 7.48333 13.2578 7.53062 15.2338C8.04799 15.2614 8.4403 15.2858 8.96153 15.2475C9.07372 14.818 9.14338 14.3251 9.19999 13.886C9.6699 13.859 10.2008 13.8819 10.6693 13.9203C10.6777 15.3094 10.6725 16.6986 10.6538 18.0876C10.145 18.0965 9.73237 18.0963 9.22344 18.0697L8.98653 16.6905C8.54973 16.6564 8.00458 16.672 7.53272 16.6422C7.47976 18.0054 7.51326 19.5745 7.51262 20.953L7.51579 23.1699C8.57812 23.2497 9.68657 23.1718 10.7623 23.1948C10.8385 22.2683 10.9113 21.2636 11.0838 20.3539C11.8236 20.3492 12.4598 20.3478 13.1963 20.3965C13.2532 21.8261 13.2956 23.2562 13.3236 24.6866L2.88843 24.6833C2.9084 24.1908 2.93956 23.6988 2.98188 23.2077C3.38841 23.1645 3.97806 23.0317 4.43639 22.9698C4.45481 22.5805 4.46319 22.141 4.45507 21.7526C4.36876 17.6243 4.54858 13.4406 4.44044 9.31946C3.88348 9.26831 3.32712 9.21079 2.77148 9.14694C2.78709 8.81533 2.80469 8.03481 2.90467 7.7422L3.05073 7.69231Z" fill="black"/>
<path d="M84.7612 12.6754C88.8304 12.4284 88.5212 15.217 88.5126 18.1951L88.5132 23.1991C88.9161 23.2832 89.3523 23.355 89.7592 23.4299C89.7425 23.8484 89.7017 24.2656 89.6362 24.6794C88.3655 24.7097 87.0068 24.6903 85.7285 24.6957C85.7596 22.6874 85.6941 20.6392 85.6912 18.6272C85.6906 17.7177 85.7418 16.6293 85.6337 15.7394C85.5101 14.722 83.7836 14.3623 83.1209 15.0731C82.7037 15.4995 82.8428 16.4961 82.856 17.063L82.8451 23.1976C83.2221 23.2894 83.6928 23.3698 84.0767 23.4451C84.0181 23.8432 83.9968 24.2539 83.9325 24.6792C82.2462 24.7012 80.5248 24.6849 78.8357 24.6822L78.8799 23.4386C79.1817 23.3555 79.6995 23.2728 80.0196 23.2121C79.9788 22.3891 80.0047 21.3478 80.0041 20.5133C80.0133 18.55 80.0087 16.5867 79.9897 14.6235C79.5811 14.583 79.111 14.5664 78.6966 14.5422C78.6483 14.139 78.6604 13.656 78.7023 13.2525C79.8024 13.1211 80.9806 12.8798 82.0513 12.7806C82.1318 12.982 82.318 13.8352 82.3548 13.8664C82.4887 13.835 82.737 13.5498 82.91 13.4314C83.583 12.9709 83.9738 12.8117 84.7612 12.6754Z" fill="black"/>
<path d="M20.3087 12.6794C24.6903 12.3833 24.0307 16.0628 24.0483 19.1052C24.0561 20.4572 24.087 21.8563 24.0313 23.2036C24.4496 23.2823 24.8675 23.3636 25.2848 23.4474C25.2558 23.8642 25.2102 24.2797 25.1484 24.693C23.9172 24.6883 22.4665 24.6506 21.2526 24.6965C21.1678 22.1437 21.2872 19.4549 21.2358 16.891C21.2039 16.2288 21.2686 15.5765 20.7584 15.0735C20.2381 14.5605 19.1167 14.5857 18.6066 15.0688C18.2013 15.4525 18.3124 16.4618 18.3252 17.0107L18.3264 23.2047C18.7271 23.2721 19.1258 23.3509 19.5221 23.4409C19.5071 23.8473 19.4663 24.2736 19.4334 24.6806C17.7208 24.6887 16.0082 24.6881 14.2956 24.6789C14.3016 24.2887 14.3397 23.8387 14.3642 23.4446C14.7058 23.3534 15.1691 23.2813 15.5359 23.1986C15.4825 22.2316 15.5128 20.9844 15.513 20.0016L15.5242 14.6263C15.0893 14.574 14.6225 14.5702 14.1824 14.5582L14.1859 13.2411C15.1655 13.2056 16.6894 12.7872 17.5665 12.8033C17.7094 13.2742 17.7603 13.5004 17.796 13.9878C18.6068 13.1761 19.1797 12.8491 20.3087 12.6794Z" fill="black"/>
<path d="M105.462 13.1206C106.763 12.964 108.051 12.7694 109.362 12.6934C109.785 14.3158 109.655 16.7235 109.656 18.4849C109.658 20.0589 109.652 21.6329 109.635 23.2069C110.032 23.2736 110.427 23.3519 110.821 23.4417C110.786 23.8865 110.74 24.2534 110.674 24.695C109.592 24.6712 108.468 24.685 107.378 24.669C107.331 24.4908 107.204 23.8713 107.112 23.7753C106.139 24.3956 105.564 24.9009 104.355 24.8658C100.519 24.7543 100.829 21.9171 100.834 19.0373L100.833 14.3341C100.379 14.2768 100.002 14.2696 99.5442 14.259L99.5396 13.1119C100.568 13.0272 101.616 12.8401 102.666 12.7521C102.866 12.7237 103.151 12.7198 103.359 12.7109C103.817 13.8223 103.69 14.8101 103.685 15.9894L103.67 19.8667C103.667 20.5053 103.646 21.0723 103.724 21.7098C103.876 22.9431 105.086 23.2959 106.121 22.9193C106.443 22.8021 106.632 22.4919 106.812 22.2235C106.868 21.4094 106.835 20.2315 106.834 19.3981L106.831 14.3403C106.381 14.2756 105.917 14.272 105.462 14.2593V13.1206Z" fill="black"/>
<path d="M44.5477 12.6767C45.2515 12.6532 46.1415 12.5823 46.8252 12.8274C49.104 13.6444 49.7562 16.4949 49.6344 18.6486C49.6252 18.8109 49.4655 19.2301 49.4052 19.3989C47.4513 19.4469 45.4993 19.4413 43.5352 19.4925C43.5954 20.7435 43.9045 22.2898 45.1526 22.8868C46.3186 23.4444 47.5181 22.9967 48.6503 22.592L48.7114 22.6056C48.8842 22.7357 49.0908 23.4354 49.1707 23.6706C47.6167 24.9616 44.6741 25.3073 42.9583 24.1426C41.8052 23.3625 41.0275 22.0689 40.7744 20.7084C40.1795 17.5112 40.8187 13.414 44.5477 12.6767ZM44.3593 14.5037C43.8041 15.5932 43.4803 16.9197 43.5015 18.1412C43.9909 18.0968 44.8717 17.9986 45.3352 18.0043C45.9042 18.0021 46.5759 18.016 47.1357 17.9727C46.9991 16.6766 46.914 14.2734 45.1564 14.2746C44.8661 14.3472 44.6447 14.4052 44.3593 14.5037Z" fill="black"/>
<path d="M73.3014 12.6752C73.9348 12.6547 74.7865 12.5952 75.39 12.7668C77.9505 13.4947 78.8517 17.1283 78.2229 19.3927C76.2832 19.46 74.2819 19.4347 72.3215 19.4843C72.3709 20.7356 72.6479 22.2619 73.8928 22.8789C75.0727 23.4641 76.3159 22.9719 77.4694 22.5783C77.6574 22.8551 77.8401 23.3613 77.97 23.688C75.3883 25.4099 71.6858 25.44 70.1288 22.3404C68.5385 19.1743 69.123 13.4832 73.3014 12.6752ZM73.0928 14.5413C72.56 15.573 72.2916 16.9967 72.2761 18.1547C72.7617 18.1066 73.6514 17.9937 74.1095 18.0057C74.6561 18.0026 75.3687 18.0177 75.901 17.968C75.7837 16.6504 75.6498 14.2704 73.8819 14.287C73.5462 14.3622 73.4071 14.4153 73.0928 14.5413Z" fill="black"/>
<path d="M94.1656 12.6719C94.8726 12.6547 95.7565 12.5868 96.4387 12.8352C98.6877 13.6541 99.3854 16.5043 99.2458 18.6441C99.2349 18.806 99.0757 19.2209 99.0147 19.389C97.7974 19.4202 96.5801 19.4412 95.3628 19.4521C94.7582 19.4621 93.707 19.5098 93.1328 19.4545C93.4989 22.9532 94.8456 23.8578 98.1963 22.5982C98.2733 22.5895 98.3112 22.6162 98.3796 22.6501C98.5503 22.9478 98.6664 23.3687 98.7728 23.7041C98.075 24.2036 97.2802 24.5503 96.4393 24.7213C93.3185 25.3586 90.9655 23.7089 90.3758 20.6226C89.77 17.454 90.4942 13.3968 94.1656 12.6719ZM93.9731 14.5108C93.369 15.5575 93.1357 16.9497 93.1403 18.1435C93.6047 18.0998 94.4789 17.9933 94.9151 18.0053L96.7123 17.9939C96.6715 16.6446 96.5209 14.3223 94.749 14.2875C94.4271 14.3488 94.2766 14.4019 93.9731 14.5108Z" fill="black"/>
<path d="M64.908 13.8346C65.8282 13.0624 67.3145 12.7606 68.4967 12.7791C68.6444 12.8771 68.8249 13.0489 68.9611 13.1717C68.9468 14.0834 68.7565 15.4955 68.5864 16.3884C67.9823 16.3683 67.2835 16.3622 66.6915 16.2844C66.6794 15.803 66.5788 15.07 66.5265 14.5742C65.9753 14.708 65.7765 14.8193 65.273 15.0728C65.2696 17.742 65.2374 20.4763 65.2736 23.1401C65.3609 23.2703 65.4408 23.252 65.6311 23.3033C65.8771 23.3242 66.2305 23.4219 66.4788 23.4823L66.4075 24.6736C64.7632 24.7181 62.9166 24.6937 61.2642 24.67C61.2607 24.2775 61.286 23.8563 61.3027 23.4617L62.4321 23.2126C62.3734 22.3547 62.4108 21.027 62.4108 20.1467L62.4188 14.6348C61.9918 14.5854 61.5711 14.5712 61.1423 14.5525L61.1464 13.2496C62.101 13.1895 63.3965 12.9231 64.3896 12.7937C64.4471 12.7886 64.5178 12.8156 64.5753 12.8325C64.7029 13.0713 64.8276 13.5558 64.908 13.8346Z" fill="black"/>
<path d="M117.876 12.796C118.163 12.7682 118.516 12.7809 118.809 12.7832L119.281 13.2018C119.226 14.1537 119.038 15.3968 118.92 16.3611C118.296 16.3476 117.631 16.3462 117.013 16.2816C116.986 15.7438 116.896 15.0965 116.834 14.5537C116.239 14.7212 116.089 14.7982 115.548 15.0804L115.55 23.2096C115.847 23.2932 116.449 23.3844 116.774 23.4432C116.745 23.8958 116.705 24.2337 116.638 24.6827C115.715 24.711 114.67 24.6838 113.738 24.6805L111.579 24.69C111.589 24.2411 111.591 23.8915 111.661 23.4492C111.983 23.3741 112.349 23.3138 112.678 23.2532C112.761 20.4359 112.609 17.462 112.699 14.6286C112.314 14.5793 111.814 14.5649 111.418 14.5433L111.429 13.2487C112.555 13.1297 113.799 12.8825 114.875 12.7954C115.027 13.1543 115.078 13.4963 115.136 13.8778C116.06 13.228 116.757 13.0087 117.876 12.796Z" fill="black"/>
<path d="M36.0914 13.8512C37.1621 13.1071 38.4467 12.7329 39.7499 12.7857C39.881 12.8875 40.0743 13.0769 40.2023 13.1949C40.1207 14.253 39.9826 15.3188 39.856 16.3735C39.3378 16.3735 38.3717 16.3518 37.887 16.2681C37.8916 15.6767 37.8283 15.1533 37.7448 14.5722C37.2876 14.6799 36.9135 14.8542 36.4909 15.0546L36.4887 20.2318C36.4864 21.111 36.4431 22.3273 36.5016 23.1836C36.5969 23.2648 36.88 23.3029 37.0176 23.3299C37.1698 23.3495 37.5179 23.4356 37.6831 23.4709L37.6378 24.679C35.928 24.6941 34.2182 24.6937 32.5085 24.6776C32.5164 24.2722 32.5412 23.8759 32.5655 23.4711C32.9306 23.3818 33.2964 23.2949 33.6627 23.2103L33.6638 14.6354C33.2496 14.585 32.7624 14.5615 32.3411 14.5312L32.35 13.2502C33.3462 13.193 34.6508 12.9291 35.6828 12.7974C35.7239 12.8019 35.7633 12.8171 35.7968 12.8414C35.9661 12.9649 36.0555 13.6327 36.0914 13.8512Z" fill="black"/>
<path d="M27.4677 10.5593C28.0319 10.5727 28.7217 10.5353 29.2954 10.5186C29.3337 11.2718 29.3188 12.1418 29.3222 12.9042C30.0216 12.8983 30.7264 12.9288 31.4258 12.9524C31.3951 13.4406 31.3744 13.9639 31.2833 14.4419L29.3538 14.6197C29.3427 14.96 29.3392 15.3125 29.347 15.6558C29.3983 17.9119 29.252 20.1946 29.3989 22.4432C29.4201 22.7683 29.7656 23.0073 30.0127 23.1737L31.5464 23.225L31.6027 24.4573L31.1526 24.6214C30.5688 24.7662 29.9703 24.8437 29.3688 24.8522C26.0547 24.8962 26.4842 22.2176 26.4868 19.8568L26.4856 14.6167L25.175 14.4258C25.1957 13.9348 25.2126 13.4437 25.2257 12.9524C25.6971 12.8882 26.2433 12.8929 26.7244 12.8847C26.9614 12.2379 27.1354 11.1523 27.4677 10.5593Z" fill="black"/>
<path d="M118.539 23.5143C118.585 23.5065 118.73 23.5229 118.785 23.5278C118.981 23.67 119.062 24.093 118.94 24.2883L118.856 24.2649L118.735 23.9853C118.567 24.028 118.465 24.0171 118.391 24.1318L118.531 24.239L118.477 24.3432C118.316 24.3308 118.371 24.3571 118.26 24.2346C118.208 23.9017 118.271 23.6869 118.539 23.5143Z" fill="black" fill-opacity="0.933333"/>
<path d="M117.864 24.4424C117.685 23.9546 117.649 23.4107 118.227 23.1971C118.504 23.094 118.81 23.1058 119.079 23.2297C119.795 23.5659 119.591 24.3459 119.073 24.7757C118.835 24.8233 118.401 24.808 118.169 24.7362L118.335 24.6302C119.793 24.8145 119.642 23.3846 118.58 23.1634C118.052 23.0535 117.937 23.869 117.979 24.2879L117.864 24.4424Z" fill="black" fill-opacity="0.92549"/>
<path d="M117.864 24.4426L117.979 24.2881C118.061 24.3607 118.287 24.5516 118.335 24.6304L118.169 24.7364C118.061 24.5741 118.037 24.5376 117.864 24.4426Z" fill="black" fill-opacity="0.784314"/>
</g>
<defs>
<clipPath id="clip0_2443_4681">
<rect width="117.707" height="27.2204" fill="white" transform="translate(2.45361 4.04639)"/>
</clipPath>
</defs>
</svg>
