<svg width="123" height="36" viewBox="0 0 123 36" fill="none" xmlns="http://www.w3.org/2000/svg">
<g clip-path="url(#clip0_2443_4685)">
<path d="M85.7877 9.42205C86.9436 9.41485 88.1 9.41497 89.2565 9.42242L92.4266 19.4577C92.8999 20.9597 93.3607 22.6202 93.9403 24.0811C94.1098 24.5079 94.4539 24.8299 94.8383 25.074C95.2106 24.9195 95.3536 24.8448 95.677 24.6087C96.1556 23.6807 96.0056 20.4256 96.0051 19.2366L96.0016 11.5363C95.2646 10.4347 95.2249 10.1391 93.9059 9.95162L93.907 9.42176C95.2261 9.41366 96.5451 9.41454 97.8641 9.42442C98.3938 10.4309 99.0999 11.5222 99.6703 12.5245C101.188 15.1915 102.873 17.8549 104.361 20.5318C104.316 18.4842 104.384 16.3789 104.356 14.3258C104.333 13.3733 104.4 12.4163 104.321 11.4661C104.21 10.1295 103.785 10.0728 102.64 9.96282L102.65 9.41869C103.577 9.41779 110.952 9.32974 111.305 9.46472C111.627 10.4162 109.806 9.65508 110.44 11.4222C110.929 12.7786 111.615 14.0709 112.203 15.3892C112.481 16.0127 112.795 16.7111 113.118 17.3081C114.111 15.412 115.062 13.0663 115.941 11.0884C116.316 10.2449 115.237 10.1356 115 9.75601C114.992 9.6416 114.97 9.54129 115.035 9.44851C115.608 9.37162 118.333 9.40332 118.985 9.43658C119.07 9.57507 119.05 9.73807 119.046 9.90055C118.927 10.0416 118.645 10.0451 118.44 10.1228C117.807 10.3629 117.416 11.1068 117.136 11.6662L114.904 16.229C114.739 16.5655 113.886 18.268 113.861 18.4793C113.759 19.3558 113.809 20.8102 113.806 21.7465C113.804 22.3774 113.766 23.5337 113.945 24.1037C114.263 25.1127 115.098 24.9357 115.493 25.1322L115.523 25.2855C115.528 25.4241 115.534 25.4769 115.482 25.6064C115.401 25.6697 115.259 25.739 115.161 25.7307C113.477 25.589 111.298 25.8516 109.672 25.6678C109.634 25.6085 109.586 25.5392 109.578 25.4677C109.526 24.9476 110.656 24.9912 110.944 24.6198C111.138 24.368 111.217 24.0241 111.264 23.7158C111.382 22.9401 111.426 20.1084 111.316 19.3365C111.231 18.7385 107.861 11.6275 107.319 10.7068C107.135 10.3958 106.977 10.1925 106.687 9.97381C106.122 10.2424 105.74 10.6288 105.716 11.2914C105.578 15.0862 105.7 18.9034 105.662 22.7031C105.651 23.8395 105.755 24.8911 105.805 26.0194C105.493 26.0653 105.131 26.0687 104.813 26.0795C102.37 21.8867 99.7646 17.5605 97.242 13.4122L97.2351 19.9094C97.2345 21.1099 97.1903 22.3424 97.2816 23.5378C97.3775 24.7856 97.832 24.9976 98.935 25.0767C98.939 25.2441 98.9654 25.5686 98.8454 25.6818C98.368 25.7345 97.6326 25.7097 97.1368 25.7081L94.146 25.6994C92.7621 25.6989 91.2914 25.7434 89.908 25.6854C89.8919 25.6847 89.8517 25.6252 89.8367 25.6064C89.8212 25.442 89.7919 25.2591 89.8408 25.1031C90.0958 25.0224 91.0144 24.9122 91.057 24.6199C91.2201 23.5141 90.5146 21.8301 90.2027 20.7467C88.5338 20.7153 86.735 20.7333 85.0633 20.7497C84.7915 21.8357 84.0527 23.3385 84.1067 24.4733C84.1826 24.9862 84.7295 24.8884 85.0644 25.0914C85.2471 25.2018 85.3 25.5182 85.1845 25.6775C84.9581 25.7209 84.1286 25.7066 83.8453 25.7069C82.8888 25.7105 81.9323 25.7068 80.9752 25.6959C80.9194 24.7224 81.4227 25.1946 82.0271 24.809C82.7348 24.3578 83.0646 22.8714 83.3139 22.0861L84.3566 18.7505C85.1552 16.1924 86.1761 13.2273 86.8563 10.6894L86.5156 10.2127C86.2818 10.1083 86.052 10.1006 85.8555 9.94799C85.7412 9.80728 85.7774 9.60621 85.7877 9.42205ZM85.3959 19.6383L87.7628 19.6391L89.8597 19.6383C89.6885 19.0889 87.6514 12.7594 87.5342 12.6729L85.3959 19.6383Z" fill="black"/>
<path d="M67.8974 9.42122C68.6908 9.41518 70.7216 9.36466 71.3938 9.45593L71.4644 9.63781C71.276 10.3076 69.8944 9.84846 69.9122 11.4268C69.9202 12.1307 69.9616 13.1939 70.0018 13.9275C70.0466 14.8595 70.0839 15.7917 70.115 16.7242L70.3005 21.2027C70.3367 22.1401 70.3545 23.0745 70.4321 24.01C70.5194 25.0729 71.7052 24.8929 72.0493 25.2334C72.0797 25.3982 72.0677 25.4699 72.0487 25.6372C71.9194 25.7538 66.6439 25.7101 66.1033 25.6914C66.0975 25.6148 66.0901 25.4552 66.0866 25.3808C66.1274 24.8263 67.0069 25.1207 67.3482 24.6904C67.8072 24.1116 67.7452 23.3538 67.7291 22.6642C67.6837 20.7087 67.5832 18.7575 67.5504 16.803C67.4987 15.723 67.4585 14.6424 67.4292 13.5616C66.7662 15.3391 66.1153 17.1211 65.4759 18.9073C64.7187 20.9945 64.0632 22.714 63.4686 24.8497C63.1768 24.855 62.8459 24.9015 62.5535 24.9355C62.1605 23.6567 61.636 22.3566 61.1816 21.0921L58.4469 13.5318C58.4203 15.4203 58.3751 17.3086 58.3112 19.1962C58.2591 20.6835 58.1872 22.2196 58.2629 23.7027C58.3174 24.7689 59.0898 25.0013 59.9797 25.0777C59.9815 25.2402 60.0085 25.5605 59.9166 25.6741C59.656 25.718 55.0756 25.7274 54.9341 25.6828C54.7914 25.5281 54.7855 25.1234 54.8342 25.1106C55.4248 24.9545 55.7954 25.0503 56.2943 24.5799C56.523 24.3663 56.6775 24.0853 56.7351 23.7778C56.8442 23.215 56.9137 20.6109 56.9376 19.9236C57.0375 17.0382 57.2028 14.1164 57.2783 11.2341C57.0066 10.7332 56.7861 10.2863 56.1772 10.1227C55.9379 10.0583 55.7849 10.0664 55.5582 9.95214C55.4832 9.83342 55.5065 9.57239 55.5075 9.41968C56.8093 9.40567 58.1367 9.41965 59.4405 9.42007C59.8776 10.4617 60.3262 11.7368 60.7323 12.8062C61.686 15.3445 62.6534 17.8779 63.6341 20.4062L67.8974 9.42122Z" fill="black"/>
<path d="M72.6249 9.42453C72.6634 9.42297 72.7025 9.4218 72.741 9.42101C73.7302 9.40296 74.7431 9.42078 75.7461 9.41417C78.0005 9.40243 81.0125 9.34906 82.7699 11.0188C84.5503 12.711 84.3239 16.2135 82.6125 17.8925C80.8632 19.6082 79.0638 19.6405 76.7797 19.6693L76.7774 21.9656C76.7739 22.3598 76.7797 23.047 76.7946 23.3918C76.8842 25.4183 78.3147 24.9179 78.5543 25.1298C78.6014 25.6889 78.4767 25.7522 77.9114 25.7236C76.7297 25.6638 75.5382 25.7244 74.3553 25.7095C73.8319 25.7029 73.2247 25.7452 72.7122 25.6623C72.0091 25.133 73.9198 24.9303 74.0703 24.4357C74.1979 24.0163 74.3099 23.8118 74.3197 23.3176C74.3484 21.8658 74.3277 20.4132 74.3294 18.9609L74.3346 14.5432C74.3358 13.4986 74.4237 11.8108 74.1829 10.811C73.9738 9.942 73.1672 10.1503 72.7071 9.92104C72.5784 9.73285 72.6232 9.68959 72.6249 9.42453ZM76.7768 18.4818C78.0384 18.4951 79.4166 18.5094 80.4018 17.5363L80.411 17.5272C81.4118 16.2134 81.4497 14.8707 81.2923 13.3C81.0332 10.7134 78.8938 10.4926 76.7785 10.5414L76.7768 18.4818Z" fill="black"/>
<path d="M50.2562 12.4839C53.0204 12.138 55.5413 14.0996 55.8859 16.8644C56.2304 19.6293 54.2681 22.1498 51.5036 22.4932C48.7408 22.8364 46.2227 20.8752 45.8784 18.1121C45.534 15.3489 47.4937 12.8295 50.2562 12.4839ZM51.3507 21.6468C53.7292 21.0239 53.8215 17.6038 53.3581 15.6368C52.9998 14.116 52.1161 13.2228 50.5091 13.335C48.0949 13.8068 48.0218 17.1639 48.3529 19.0856C48.6559 20.8437 49.6041 21.7175 51.3507 21.6468Z" fill="black"/>
<path d="M48.6724 9.08786C50.0122 8.85472 52.2177 9.26956 53.4967 9.74119C53.7007 9.47955 53.9353 9.11764 54.287 9.10496L54.3772 9.20661C54.5172 9.64969 54.2057 12.4063 54.0292 12.7774C53.3259 12.7622 53.5394 11.0708 52.0826 10.4749C50.7971 9.90981 49.0859 9.97533 47.7577 10.4024C42.2882 12.1612 42.1984 22.1282 47.2207 24.4158C48.7201 25.0987 50.304 25.1616 51.8623 24.6066C53.0388 24.0298 53.5858 23.2676 54.2735 22.2247L54.7867 22.449C54.4343 23.5112 53.9678 24.6834 53.579 25.7522C52.6482 25.6505 51.9191 25.7694 51.0047 25.8987C48.575 26.2487 45.87 25.7507 43.8879 24.2504C40.3693 21.587 39.8968 15.6655 42.5602 12.2516C44.1413 10.2251 46.1813 9.40693 48.6724 9.08786Z" fill="black"/>
<path d="M22.4983 9.08048C23.7468 8.93237 24.7986 9.18438 25.9377 9.64843C26.1353 9.40108 26.3612 9.04261 26.704 9.10041C26.9429 9.39651 26.5412 11.9629 26.4373 12.432C25.9264 12.4836 25.9459 12.3737 25.8994 11.9479C25.7694 10.7597 24.8002 10.1623 23.6716 10.1439C22.8815 10.131 22.1466 10.2259 21.5362 10.7838C21.1085 11.1757 20.9088 11.6914 20.8856 12.2642C20.8174 14.3174 23.1896 15.307 24.5925 16.3261C26.4654 17.6866 28.0329 18.9569 27.9288 21.5057C27.8288 23.951 26.1717 25.5332 23.8316 25.9741C23.0689 26.1178 22.4217 26.089 21.6542 26.059C20.5974 25.9453 19.5695 25.6434 18.6191 25.1674C18.4481 25.3645 18.2443 25.6401 18.0789 25.8501L17.6233 25.698C17.7562 24.4988 17.9082 23.2633 18.0125 22.0642L18.5416 22.1352C19.1429 24.4095 20.7304 25.3174 23.0488 25.0022C24.7434 24.7719 25.8008 22.798 25.4823 21.1703C25.1509 19.4765 23.1778 18.4195 21.8563 17.5137C19.4272 16.03 17.6626 13.6496 19.372 10.7922C19.9964 9.74848 21.3044 9.29576 22.4983 9.08048Z" fill="black"/>
<path d="M13.5476 8.88902C13.7796 8.88642 13.8357 8.84902 14.0175 8.953C14.0858 9.09992 13.7905 11.8864 13.6968 12.1634C13.6405 12.3302 13.5778 12.4336 13.4179 12.5133C12.7619 12.4828 13.2751 11.5319 12.6356 11.022C12.0227 10.5332 11.6556 10.5178 10.875 10.5177C9.83079 10.5175 8.78826 10.5305 7.74573 10.5344L7.74707 16.6318C8.56782 16.651 9.38613 16.6843 10.2073 16.6153C11.5301 16.5042 11.158 15.569 11.6037 15.0722C11.7681 14.9697 11.8115 14.9754 12.0054 14.999C12.0987 15.1511 12.1161 19.0428 12.0256 19.303C11.9452 19.3243 11.8446 19.348 11.7688 19.3476C11.7445 19.3495 11.5301 19.3379 11.5301 19.3359C11.4741 17.2526 9.48667 17.7118 7.74747 17.7361L7.74722 23.073C7.75256 24.5561 7.91316 24.9937 9.42209 25.0788L9.40951 25.7037C8.11999 25.7081 6.83044 25.706 5.54093 25.6973C5.10167 25.6979 3.86983 25.8467 3.58349 25.5471C3.531 25.4005 3.55158 25.2931 3.56579 25.1379C3.77805 24.9562 4.39252 25.1384 4.74853 24.8245C5.42659 24.2267 5.24875 22.8743 5.24931 22.0356L5.25034 18.7861L5.24974 13.6881C5.24996 12.8066 5.36696 11.5895 5.1202 10.7444C4.89737 9.98119 3.82858 10.1501 3.51819 9.74731C3.50649 9.6011 3.53057 9.56776 3.60515 9.44066C4.27418 9.38579 5.3941 9.41667 6.09966 9.41657L10.2065 9.41654C10.9934 9.42287 11.9187 9.46182 12.6953 9.39023C13.102 9.35274 13.3166 9.20843 13.5476 8.88902Z" fill="black"/>
<path d="M38.8763 8.96177C39.0522 8.95379 39.1066 8.94878 39.2759 8.99479C39.3145 9.41973 38.9947 11.833 38.9235 12.3806C38.7996 12.4889 38.8386 12.4596 38.6723 12.4945C38.2103 12.2653 38.3389 11.2632 37.8702 10.8583C37.2836 10.3517 35.2526 10.5281 34.4342 10.5492L34.4292 18.8145C34.4293 20.3516 34.3923 21.9038 34.4774 23.437C34.5518 24.7794 34.9214 24.9917 36.1387 25.0784C36.1394 25.2384 36.1636 25.5615 36.0731 25.6734C35.7125 25.7306 33.9391 25.7207 33.4974 25.7075C32.7256 25.6845 31.1142 25.7598 30.4068 25.6688C30.3061 25.5885 30.2999 25.532 30.2679 25.41C30.5159 24.7949 31.4023 25.314 31.866 24.238C32.1373 23.2863 32.0466 19.8777 32.0454 18.6636L32.0424 10.5358C30.9478 10.5234 29.7595 10.3991 28.6846 10.7067C27.6658 10.9983 28.0889 12.806 27.1826 12.4314C27.1985 12.0653 27.4855 9.30941 27.5643 9.01138L27.6966 8.98868C27.8919 9.03938 28.1015 9.25679 28.259 9.39667C31.4972 9.51915 34.885 9.37386 38.1327 9.39088C38.4576 9.39258 38.67 9.18182 38.8763 8.96177Z" fill="black"/>
<path d="M14.5503 11.9969C15.3576 11.9821 16.2117 11.9964 17.0225 11.9978C17.8915 14.7735 18.9952 17.7113 19.9691 20.4654C20.0611 20.7255 20.6338 21.0465 20.8837 21.1962C20.9881 21.3866 20.9482 21.4386 20.9403 21.6792C20.3582 21.6719 17.2221 21.7377 16.8981 21.6204L16.8721 21.1895C17.0545 20.9317 18.0897 21.3714 17.6924 20.0478C17.5972 19.7307 17.4637 19.2388 17.366 18.9059C17.1566 18.7371 14.7508 18.8209 14.2952 18.8289C14.1342 19.3347 13.7675 20.2845 13.9301 20.7991C14.0007 21.0227 14.2514 20.9569 14.4988 21.0781C14.6042 21.2294 14.61 21.2632 14.6044 21.4479C14.4061 21.7612 13.855 21.7334 13.5206 21.6854C13.0042 21.6112 12.04 21.7703 11.5866 21.6028C11.4155 20.981 12.6399 21.1261 12.9012 20.3091C13.6756 17.8878 14.5745 15.4845 15.2806 13.0472C15.3642 12.7586 14.7755 12.5854 14.6195 12.4628C14.5182 12.3779 14.5503 12.156 14.5503 11.9969ZM14.6108 17.9299L15.8766 17.9309L17.0042 17.9305C16.7397 17.0811 16.4671 16.2341 16.1868 15.3897C16.0565 14.993 15.9478 14.5346 15.7691 14.1617C15.3968 15.422 15.0106 16.678 14.6108 17.9299Z" fill="black"/>
</g>
<defs>
<clipPath id="clip0_2443_4685">
<rect width="117.656" height="18.4446" fill="white" transform="translate(2.47925 8.43408)"/>
</clipPath>
</defs>
</svg>
