<svg width="123" height="36" viewBox="0 0 123 36" fill="none" xmlns="http://www.w3.org/2000/svg">
<g clip-path="url(#clip0_2443_4679)">
<path d="M67.0828 6.92383L67.1493 6.93174C67.203 7.06621 67.0274 13.1453 67.033 13.9116C67.6615 13.5903 68.1375 13.4186 68.81 13.2429C75.7834 11.4225 78.3054 19.8182 75.3411 24.7746C74.2992 26.5173 72.7476 27.5751 70.7997 28.0457C68.9698 28.5742 66.4866 28.3194 64.6325 27.9881C64.047 27.8835 63.178 27.7148 62.6194 27.6662C62.6914 26.4574 62.6901 25.3927 62.7067 24.191C62.7434 22.396 62.7604 20.6006 62.7566 18.8053C62.7677 17.3334 62.7672 15.8615 62.7557 14.3897C62.7459 13.2154 62.7208 11.9971 62.6147 10.8263C62.5742 10.3764 62.4374 9.58842 62.1668 9.22222C61.8152 8.74629 61.1832 8.79869 60.6237 8.72081L60.6224 8.12486C61.3345 8.04321 62.3334 7.80578 63.0527 7.67586C64.3904 7.43414 65.7366 7.12257 67.0828 6.92383ZM67.05 14.8299C66.9405 15.6351 66.9908 17.8181 67.0031 18.7523C67.0385 21.5094 67.0082 24.4693 67.1732 27.2053C68.51 27.4049 69.1373 27.5587 70.157 26.4789C71.4917 24.8224 71.865 22.8718 71.9575 20.7045C72.0423 18.7153 71.5054 15.0154 68.9169 14.6657C68.6323 14.6272 68.1435 14.662 67.8401 14.6708C67.5874 14.7149 67.2933 14.758 67.05 14.8299Z" fill="black"/>
<path d="M40.4664 12.8396C40.4742 12.8385 40.482 12.8376 40.4898 12.8368C45.7186 12.2762 48.9463 15.8741 48.7084 21.0069C48.5266 24.9297 46.1128 27.9042 42.0695 28.3087C40.0733 28.4344 38.0567 28.2326 36.4406 26.9455C34.9674 25.7475 34.0976 23.9637 33.8573 22.1132C33.2459 17.4049 35.4532 13.4172 40.4664 12.8396ZM41.5369 27.4335C44.7532 27.098 44.3929 18.7095 43.6602 16.4519C43.2385 15.1525 42.6817 13.7078 41.0533 13.7751C38.0554 14.0717 38.234 20.1785 38.3861 22.3049C38.5179 24.1459 39.1439 27.4899 41.5369 27.4335Z" fill="black"/>
<path d="M34.5754 7.30967C34.9875 7.30524 35.3351 7.30653 35.747 7.32819C35.8121 8.84836 35.8044 10.3808 35.8785 11.9024C35.8982 12.3079 35.8964 12.719 35.8766 13.1246C35.5459 13.1965 35.2164 13.2741 34.8884 13.3575C34.6972 12.391 33.8686 10.8079 33.1624 10.0884C31.8828 8.78488 30.7518 8.67589 29.0038 8.69884C28.2245 8.70907 27.2268 8.72125 26.4617 8.69458C26.2408 10.2274 26.3069 11.8162 26.2547 13.3612C26.2124 14.615 26.2283 15.8682 26.245 17.1222C28.9949 17.1629 30.4131 17.2324 31.1297 14.1969C31.3796 14.1808 31.7245 14.1888 31.9816 14.1876C31.9332 15.704 31.9723 17.262 31.9603 18.7822C31.9539 19.5887 31.995 20.3873 31.9449 21.1948C31.6395 21.2001 31.4312 21.2015 31.1279 21.1726C30.2514 17.645 28.9827 18.5682 26.2407 18.2398C26.1847 19.9027 26.2794 22.5218 26.4359 24.1854C26.5027 25.1043 26.5921 26.2733 27.4888 26.7735C28.1573 27.1465 28.8831 27.0508 29.6075 27.1778C29.6082 27.4351 29.5974 27.7105 29.5914 27.9693L18.4713 27.9677L18.4697 27.1686C19.1503 26.9775 19.8021 27.1379 20.4782 26.6272C21.0959 26.1607 21.2451 25.2832 21.3223 24.5361C21.7449 20.4469 21.7213 16.2067 21.4388 12.1054C21.3846 11.3186 21.3329 9.66974 20.8767 9.04793C20.3138 8.28072 19.3294 8.229 18.4668 8.13317C18.4734 7.8744 18.4648 7.58113 18.4629 7.31957L28.4755 7.32671C30.4629 7.32673 32.5995 7.36272 34.5754 7.30967Z" fill="black"/>
<path d="M85.0109 12.8416C89.4914 12.7856 91.502 15.6105 91.5552 19.8675L82.3296 19.8594C82.2584 21.1135 82.3995 22.3877 82.9999 23.5171C83.6089 24.6623 84.5251 25.5469 85.7937 25.9345C86.7598 26.2295 88.2918 26.2218 89.2719 25.9608C89.606 25.8718 90.4954 25.3527 90.8376 25.1713C90.985 25.1843 90.9701 25.2035 91.0984 25.3015L91.2821 25.6221C91.2335 25.706 91.1777 25.7853 91.115 25.859C88.4802 28.8929 83.3788 29.1985 80.3672 26.5688C78.7768 25.1803 77.9859 23.4095 77.8712 21.3153C77.7506 19.1099 78.2769 16.9103 79.7527 15.217C81.1556 13.5934 82.91 12.9829 85.0109 12.8416ZM82.3892 18.8669C83.054 18.8596 83.7312 18.8586 84.3938 18.8257C85.2282 18.823 86.1947 18.7808 87.0044 18.7971C87.0338 17.3694 87.0193 13.8149 85.0058 13.7761C84.9781 13.7754 84.9508 13.7757 84.9231 13.777C82.9765 13.9423 82.4186 17.3361 82.3892 18.8669Z" fill="black"/>
<path d="M97.9661 12.8388C99.6008 12.6979 101.705 12.9791 103.215 13.6146C103.261 14.7834 103.368 16.2228 103.362 17.3629C103.094 17.4315 102.915 17.4594 102.643 17.4979C102.19 15.7281 100.97 13.8386 98.9463 13.8059C97.6883 13.7785 96.8369 14.8058 96.8488 16.0211C96.8633 17.7692 98.8342 18.3825 100.173 18.9262C101.204 19.31 102.347 19.8116 103.146 20.5871C104.71 22.1074 104.406 25.1721 102.91 26.6373C101.441 28.0764 99.6085 28.3302 97.6627 28.346C96.1461 28.2993 94.1278 28.0694 92.7237 27.4443C92.6065 26.3342 92.5575 24.29 92.5332 23.1426C92.7514 23.0716 92.9704 23.0034 93.1903 22.9379C93.279 23.1104 93.38 23.3251 93.4503 23.4993C94.2203 25.402 95.6147 27.3004 97.9124 27.0822C99.1871 26.9612 100.24 25.8158 100.067 24.5183C99.8361 22.7064 97.6082 22.2969 96.2057 21.6957C94.597 21.004 93.1456 20.1685 92.9159 18.2878C92.5204 15.0521 94.9426 13.1826 97.9661 12.8388Z" fill="black"/>
<path d="M55.4299 16.3085C56.2456 13.8416 58.9704 11.9403 61.5242 13.2432C61.0776 14.5658 60.5134 15.9043 60.0026 17.2111C59.2724 16.8443 58.7135 16.562 57.875 16.4737C57.2256 16.4054 56.2585 16.476 55.728 16.8882C55.4602 17.0962 55.3948 17.2599 55.37 17.5899C55.3334 18.0792 55.3214 18.584 55.3054 19.0748C55.2535 20.4485 55.2638 21.8239 55.3365 23.1968C55.3492 23.4896 55.3561 23.7976 55.3835 24.094C55.4609 24.9325 55.4173 25.9687 55.9684 26.6629C56.2937 27.0726 56.7498 27.0907 57.2266 27.1376C57.4506 27.1685 57.7671 27.1777 58.0003 27.191C58.0076 27.4464 57.9908 27.7149 57.9795 27.9712C57.7721 27.9608 57.5536 27.9674 57.3452 27.965C54.5323 27.9329 51.714 27.9935 48.902 27.9684L48.9016 27.1977C49.1678 27.1631 49.4362 27.1335 49.6977 27.073C50.726 26.8352 50.9069 25.7289 50.9794 24.8478C51.1333 22.7434 51.1627 20.6318 51.0677 18.524C51.0358 17.8005 51.0333 17.0488 50.901 16.3375C50.6497 14.9858 50.1754 14.7617 48.9053 14.6643L48.904 14.0877L55.3427 12.8345L55.3753 12.8513C55.4542 12.9788 55.4066 15.8626 55.4299 16.3085Z" fill="black"/>
</g>
<defs>
<clipPath id="clip0_2443_4679">
<rect width="87.2748" height="22.5225" fill="white" transform="translate(17.6699 6.39502)"/>
</clipPath>
</defs>
</svg>
