<svg width="269" height="87" viewBox="0 0 269 87" fill="none" xmlns="http://www.w3.org/2000/svg">
<g clip-path="url(#clip0_2481_1395)">
<path d="M151.104 27.4473C157.566 13.9256 159.596 5.54938 177.04 5.53568C192.834 5.47344 208.678 5.45788 224.466 5.53754C230.505 5.56804 237.453 6.39024 241.867 10.8709C246.735 15.8165 246.835 21.0939 246.847 27.517C253.347 27.8606 258.67 28.1911 263.787 32.9911C270.648 39.4273 270.835 51.2305 264.136 57.8834C258.614 63.3736 254.206 63.7016 246.978 63.8304C246.349 84.9498 235.99 86.2444 218.247 85.9886C213.316 85.9531 208.155 86.3104 203.281 86.0863C188.819 85.4222 177.046 90.0298 168.355 75.5235C149.405 97.5572 137.732 82.9357 128.829 63.513C124.278 74.0721 117.1 90.5894 101.997 85.5709C92.1478 82.2984 87.516 69.9524 83.4818 61.212C75.015 64.6632 67.1396 63.7713 58.0129 63.6593C58.1312 70.2182 57.6642 75.4569 52.827 80.6166C49.6519 84.0087 45.2318 85.9631 40.5813 86.0296C35.8561 86.1205 31.2927 84.3193 27.8998 81.0262C22.3465 75.6362 22.3341 70.7105 22.303 63.795C15.8906 63.7209 11.377 63.6767 6.07905 59.0405C2.40596 55.845 0.20832 51.2785 0.00287547 46.4138C-0.246148 41.78 1.36632 37.239 4.48534 33.8027C9.72106 28.1307 15.3178 27.9801 22.2718 27.6683C22.5146 15.5993 24.4321 9.10016 37.1945 5.7672C47.6909 5.14729 83.3261 4.20871 91.6248 7.17258C100.21 10.236 103.397 20.0657 106.983 27.6334C112.412 12.5352 124.378 -4.23415 142.152 11.5332C145.912 14.8723 148.956 22.7121 151.104 27.4473Z" fill="#262526"/>
<path d="M127.758 17.1875C128.287 17.2678 128.779 17.3929 129.296 17.5485C135.77 19.4966 147.518 47.3939 151.16 54.5347C155.437 46.2723 165.803 24.3208 170.534 18.0433C175.901 17.5989 229.708 17.4962 232.815 19.0192C235.766 23.6872 234.851 34.3944 234.801 40.3402C239.42 40.2568 253.067 39.0425 255.04 41.8682C263.881 54.5559 237.658 51.2839 234.819 51.2148C234.751 56.2439 235.43 71.1043 233.145 71.8431C223.794 74.8704 191.06 74.4111 180.757 72.2831C177.42 68.0452 178.428 46.3296 180.115 42.2977C181.485 39.0189 218.919 40.1759 223.078 40.1815L223.091 29.2497C207.906 29.2092 192.037 28.9615 176.922 29.3872C168.473 41.6915 163.512 63.234 152.343 73.3126C147.45 77.726 139.207 56.8793 137.825 53.9447C134.693 48.1128 131.68 42.2199 128.779 36.2691C124.77 45.3948 115.961 65.2643 109.168 72.5502C103.889 78.2146 98.2239 63.394 96.2753 59.8581C91.0147 50.3142 86.7066 38.5421 80.7985 29.2129L45.8418 29.231L45.8667 40.2885C52.0363 40.1815 78.9308 37.2021 79.13 45.6076C79.2981 52.8082 68.2415 51.315 63.4229 51.3543C57.77 51.4009 51.7001 51.2578 45.873 51.193C45.6302 56.4318 46.8878 70.0288 43.7127 72.1779C31.4296 80.4901 34.2747 54.2235 34.3182 51.2796C28.4288 51.3487 12.1054 53.6758 12.1241 45.5261C12.1179 44.3522 12.5848 43.2257 13.419 42.401C16.7061 39.144 29.0763 40.1828 34.3245 40.1971C34.2435 36.4701 34.1937 32.742 34.1688 29.0144C34.1626 26.8186 33.9696 21.9395 35.6505 20.3636C40.2699 16.0217 78.5822 17.9618 87.2482 18.0427C91.5625 22.9752 102.881 46.7553 106.828 54.498C111.379 45.6885 121.626 22.6192 127.758 17.1875Z" fill="white"/>
<path d="M190.375 51.2158C201.158 51.4324 212.277 51.2967 223.084 51.2967L223.103 62.3438L190.45 62.3824C190.35 58.7394 190.394 54.8793 190.375 51.2158Z" fill="#262526"/>
</g>
<defs>
<clipPath id="clip0_2481_1395">
<rect width="269" height="87" fill="white"/>
</clipPath>
</defs>
</svg>
