<svg width="123" height="36" viewBox="0 0 123 36" fill="none" xmlns="http://www.w3.org/2000/svg">
<g clip-path="url(#clip0_2443_4683)">
<path d="M89.8526 7.90407C90.6667 7.88556 91.5128 7.88424 92.327 7.89568C97.8459 7.97322 103.418 7.78779 108.932 7.90796C108.945 8.70032 108.944 9.51171 108.936 10.3047C108.881 15.9852 109.015 21.6923 108.927 27.3701L97.5174 27.3715C95.0627 27.3724 92.2852 27.4389 89.8521 27.3604C89.8277 26.6517 89.8399 25.8926 89.8451 25.1801C89.8864 19.4262 89.7827 13.6563 89.8526 7.90407ZM94.142 24.3063L98.6661 24.2583C100.677 24.2441 102.803 24.5846 104.335 23.0114L104.347 22.9994C105.752 21.3813 105.594 19.6779 105.567 17.6769C105.511 16.0647 105.829 14.3334 104.81 12.9386C103.228 10.775 100.497 11.0488 98.1368 11.0711C96.8144 11.0836 95.462 11.0326 94.1477 11.0852C94.0806 15.4382 94.1406 19.9415 94.142 24.3063Z" fill="black"/>
<path d="M96.7938 13.2289C97.371 13.1974 98.5183 13.2671 98.9594 13.2189C103.884 12.6806 102.878 15.7191 102.987 19.2646C103.01 20.0367 102.745 20.6909 102.317 21.3588C101.835 21.9614 101.074 22.0049 100.369 21.9997C99.1767 21.9909 97.9824 22.0088 96.79 21.9807L96.7938 13.2289Z" fill="black"/>
<path d="M13.6904 7.90191C14.524 7.8893 15.3733 7.8869 16.2068 7.8957C21.7222 7.95393 27.2684 7.81281 32.7808 7.90683L32.7864 20.2682C32.7865 22.5551 32.8406 25.0863 32.7704 27.3576L20.3905 27.3568C18.3184 27.3571 15.707 27.4269 13.6874 27.3373C13.6514 24.5037 13.6838 21.5995 13.6835 18.7613L13.6904 7.90191ZM18.0395 24.1556C18.8877 24.2298 20.3332 24.1835 21.2308 24.185C21.7108 22.0944 22.2069 20.0075 22.7193 17.9246C22.9536 16.9627 23.3036 15.645 23.483 14.6942C23.652 15.1246 23.7851 15.9001 23.892 16.3844C24.138 17.4832 24.3782 18.5833 24.6124 19.6846C24.8532 20.734 25.086 21.7852 25.3107 22.8381C25.3867 23.1973 25.5388 23.7812 25.5745 24.1253C26.4431 24.158 28.0119 24.1712 28.8895 24.1351C29.3759 21.6669 29.8762 19.2016 30.3907 16.7391C30.6054 15.7051 30.9658 14.2003 31.1214 13.2028C31.2471 12.5706 31.462 11.6866 31.5434 11.0756C30.7469 11.0757 29.8315 11.0545 29.0443 11.0912L27.8025 18.3416C27.6443 19.2459 27.4113 20.3324 27.2825 21.2252C27.0875 20.0645 26.5983 18.2368 26.3217 17.0298L25.368 12.9201C25.2357 12.3525 25.1105 11.6915 24.964 11.1386C24.0136 11.104 23.0431 11.0601 22.0932 11.0719L20.5337 17.753C20.3288 18.622 19.9986 20.2458 19.7264 21.0258C19.5863 19.8231 19.3334 18.7048 19.1328 17.5257C18.7692 15.3884 18.3048 13.2093 17.9901 11.0727C17.108 11.0603 16.2257 11.059 15.3436 11.0688C15.4821 11.9293 15.6902 12.8255 15.8683 13.685L16.7528 17.9956L17.4654 21.4955C17.6263 22.3037 17.8158 23.3635 18.0395 24.1556Z" fill="black"/>
<path d="M51.8716 7.90502C52.7812 7.86704 53.8959 7.89439 54.8202 7.89419L60.283 7.89369C63.7273 7.89368 67.5011 7.81571 70.9229 7.90951C71.0003 12.0014 70.928 16.3231 70.9285 20.4326L70.9323 24.8768C70.9327 25.5691 70.966 26.7133 70.9036 27.3623C69.4658 27.3991 67.7901 27.3573 66.3322 27.3572L56.7895 27.3569C55.2983 27.3567 53.3184 27.2928 51.8707 27.3656C51.8252 24.8824 51.8658 22.2721 51.8656 19.7806L51.8716 7.90502ZM56.2444 24.0645C57.1013 24.0924 57.9736 24.0588 58.811 24.0883C58.8126 22.56 58.7537 20.5009 58.8226 19.0295C60.1319 18.9444 61.4735 18.9756 62.786 18.9422C63.0873 18.9345 63.6011 19.0503 63.809 19.2589C64.7142 20.1681 64.4725 22.2231 64.4702 23.411L64.4758 24.0017L67.0825 24.0066C67.0881 22.8193 67.1294 21.5989 67.0511 20.4172C66.9718 19.2283 66.3293 18.4778 65.2374 18.0864C66.7873 17.6372 67.1031 15.6788 67.0773 14.3046C67.0548 13.0957 66.6916 12.0255 65.5771 11.4173C65.2149 11.2203 64.8188 11.0936 64.4092 11.0437C63.7508 10.9604 62.8615 10.9962 62.1858 11.0035C60.2098 11.0247 58.2222 10.9793 56.248 11.0153L56.2444 24.0645Z" fill="black"/>
<path d="M58.8241 13.2809C59.6466 13.2563 60.5702 13.2847 61.3374 13.2735C62.8404 13.2527 64.6273 12.9883 64.4659 15.1614C64.4209 15.7686 64.4406 15.9693 64.021 16.4769C63.5968 16.7585 62.9807 16.8519 62.4791 16.8456C61.2595 16.8301 60.034 16.9015 58.8169 16.8954C58.8139 15.7043 58.7956 14.4681 58.8241 13.2809Z" fill="black"/>
<path d="M74.4507 11.0091C75.8392 10.9518 77.4502 10.9926 78.858 10.9924C81.0893 10.9922 83.3459 10.9732 85.5735 11.0021L85.5716 15.255C84.8982 15.2893 83.8921 15.269 83.2145 15.2557L83.2089 13.1696C82.5979 13.1272 81.8082 13.149 81.1836 13.1483C80.3614 13.1475 79.4633 13.1348 78.6487 13.1788C78.6064 14.1068 78.6374 15.2841 78.6365 16.2307C79.3732 16.2879 80.1667 16.2199 80.9095 16.2679L80.9227 16.2721C81.2619 16.3772 81.8448 16.2446 81.9311 16.4432C82.0855 16.7984 82.0296 17.8761 81.9869 18.2691C81.5496 18.2705 78.8833 18.2194 78.6337 18.377C78.6191 18.4301 78.605 18.4564 78.6247 18.507C78.6928 19.3415 78.6379 21.0646 78.6351 21.9401C80.1329 21.9934 81.8584 21.9523 83.3731 21.9525L83.3849 19.8618C84.0859 19.8377 84.8653 19.8551 85.5716 19.8564C85.5899 21.2697 85.5758 22.7104 85.5716 24.1245C84.8944 24.1582 83.9799 24.1327 83.2812 24.1326L78.9387 24.1324L76.1452 24.1357C75.6436 24.1365 74.9172 24.1619 74.4451 24.0984C74.4371 23.3913 74.4437 22.675 74.4441 21.9671C74.9392 21.9287 75.7369 21.9514 76.2545 21.9507C76.2911 19.0475 76.2625 16.0813 76.2634 13.1733C75.7243 13.1348 75.0101 13.1497 74.4479 13.1353C74.4385 12.4266 74.4395 11.7178 74.4507 11.0091Z" fill="black"/>
<path d="M37.9356 10.9732C39.1087 10.9366 40.3343 10.9704 41.5112 10.968C43.3962 10.9641 45.2887 10.9535 47.1732 10.9764C47.1774 11.7128 47.1763 12.4493 47.1701 13.1857C46.0586 13.1993 44.7761 13.2226 43.6707 13.1927C43.6348 16.0776 43.6686 19.0361 43.668 21.9272C44.7599 21.9706 46.0569 21.938 47.1705 21.9438C47.1856 22.5753 47.1748 23.2452 47.175 23.8796C47.1753 23.9496 47.162 24.0393 47.1536 24.1106C47.0335 24.19 38.8138 24.1674 37.9357 24.145C37.924 23.4207 37.9345 22.6709 37.9351 21.9445C38.9761 21.9156 40.1201 21.9387 41.1688 21.9392C41.2243 19.0861 41.1729 16.0625 41.173 13.1955C40.1992 13.1983 38.8819 13.2309 37.9335 13.1757L37.9356 10.9732Z" fill="black"/>
<path d="M80.9095 16.2677C81.3478 16.2483 81.7204 16.2532 82.1572 16.2629C82.1563 16.9581 82.1718 17.7324 82.1464 18.4212C81.1695 18.428 79.7106 18.4087 78.6932 18.4433C78.6669 18.4679 78.6439 18.4891 78.6247 18.5067C78.605 18.4562 78.6191 18.4299 78.6336 18.3767C78.8833 18.2191 81.5496 18.2702 81.9869 18.2688C82.0296 17.8758 82.0854 16.7982 81.9311 16.4429C81.8447 16.2443 81.2619 16.3769 80.9226 16.2719L80.9095 16.2677Z" fill="black" fill-opacity="0.964706"/>
</g>
<defs>
<clipPath id="clip0_2443_4683">
<rect width="96.1033" height="20.299" fill="white" transform="translate(13.2556 7.50684)"/>
</clipPath>
</defs>
</svg>
