<svg width="90" height="109" viewBox="0 0 90 109" fill="none" xmlns="http://www.w3.org/2000/svg">
<path d="M51.657 74.614L56.0315 92.0382L54.5758 99.0718L44.4916 101.645L32.8424 99.5835L21.1292 82.5998L22.9206 70.9587L27.4159 40.6353L25.2437 40.6051L23.3657 38.9512L22.0496 35.9485L22.0835 33.5073L22.932 31.0773L24.8516 29.7475L26.2092 29.7664L27.8195 31.1453L29.1432 33.6054L29.9427 15.168L32.428 12.2182L40.3361 9.88646L46.8603 9.43459L53.656 8.98649L61.04 5.29094L64.0419 4.24747L60.9985 8.27469L65.6371 6.71138L62.869 10.4711L66.9607 9.17152L63.6081 15.9075L67.945 16.5104L63.0198 19.1549L64.9092 19.9951L57.5667 20.7069L59.4522 41.3521L61.1567 55.4836L63.129 69.8901L63.0912 72.6026L58.1811 74.1621L51.657 74.614Z" fill="white"/>
<path d="M27.219 41.0905C26.8006 41.1193 26.1897 41.1694 25.7935 41.0595C21.469 39.8597 20.5247 33.5363 23.1754 30.4042C24.4072 28.9487 26.1196 28.839 27.4632 30.1002C28.4628 31.0719 28.7707 32.2644 28.9545 33.5854C28.753 32.9587 27.6279 31.3669 27.1698 30.8743C25.3673 29.0214 23.8124 30.3262 22.8876 32.1371C21.4859 34.8817 22.7241 38.5899 25.367 40.0612C26.1938 40.5215 27.4151 40.4219 28.2413 40.039C28.5314 39.9045 28.6219 39.7346 28.8116 39.4892C28.8851 39.7477 28.6575 40.2088 28.5426 40.4541C28.0909 40.7836 27.8682 40.8931 27.3604 41.1435C27.3555 43.9379 26.8018 47.5879 26.3997 50.3865L25.1743 59.0826L22.7301 75.7509C22.6414 76.3294 22.575 76.9103 22.5213 77.4928C22.3886 78.9323 22.1083 80.3467 21.8478 81.7683C22.9933 83.4879 24.0826 85.0692 25.4852 86.7791C32.2377 95.0116 49.5636 110.473 54.6654 91.8605C54.8744 91.0981 54.4193 89.8737 54.1959 89.0662C53.9927 88.3106 53.805 87.5511 53.634 86.7876C49.3034 84.423 44.3287 81.308 40.7086 77.9648C34.8149 72.4685 30.3893 65.0427 27.8717 57.423C27.3628 55.8825 28.1225 52.0234 28.6638 50.439C29.0207 49.3943 30.0794 46.5551 30.6187 45.5674L30.7229 45.4999L30.7883 45.5662C30.6956 46.0092 30.1555 47.2754 29.9859 47.7984C29.3268 49.8315 28.294 52.2534 28.0571 54.3739L28.0445 54.4798L28.038 54.5436C28.339 54.8793 28.7482 56.0015 28.9529 56.4824C29.1765 55.1317 30.8845 50.1516 31.5724 49.0306C31.6071 49.1966 30.255 53.2593 30.0561 53.7744C29.7015 54.693 29.4722 55.7003 29.2415 56.695C29.5859 57.8452 29.8065 58.2263 30.3974 59.2519C30.5397 58.4901 30.6866 57.4482 30.9352 56.747C31.5558 54.9973 31.8752 53.0372 32.5684 51.3379L32.6315 51.3149L32.651 51.279C32.5711 52.7175 31.635 55.2149 31.3323 56.7295C31.1377 57.7032 30.6725 58.4992 30.5903 59.5958L30.5804 59.7173C30.579 59.7416 30.5776 59.7659 30.5761 59.7903C30.903 60.3289 31.5643 61.3636 31.7954 61.8901C31.8471 60.7976 33.3024 53.4485 33.8397 52.8493C33.9826 53.1514 33.142 56.0079 33.0766 56.5707C32.8629 58.408 32.142 60.6252 32.1551 62.4379C32.609 63.1132 33.0336 63.89 33.4951 64.5236C33.7473 62.107 34.0496 59.6607 34.6105 57.3002C34.7501 56.713 34.8438 56.1087 35.0453 55.5389L35.1117 55.5117C35.201 56.0198 35.0644 56.9218 34.962 57.4295C34.4566 59.9367 33.8185 62.5566 33.8727 65.1225C34.5577 66.0285 35.3596 66.8099 36.0164 67.638C36.007 64.0904 36.4382 60.6529 36.8803 57.1429C36.94 56.6682 37.0426 54.9709 37.2464 54.6326L37.3418 54.6767C37.3986 54.9387 37.276 55.8526 37.2522 56.1798C37.0518 58.9431 36.7289 61.6985 36.4355 64.4536C36.3117 65.6169 36.3208 66.7611 36.2429 67.9174C36.9771 68.6825 37.7618 69.3345 38.4446 70.041C38.2241 68.7863 38.3158 66.987 38.3291 65.6854C38.3571 62.9287 38.4659 60.2926 38.7311 57.5504L38.7662 57.5503C38.8948 58.5264 38.8472 59.4024 38.8158 60.3846C38.7106 63.6787 38.5442 66.8514 38.7043 70.1499C40.7058 71.8591 42.9177 72.7681 45.4364 73.4603C46.6205 73.7859 48.2778 73.8577 49.5313 73.9882L49.6787 73.9735C50.6378 74.307 57.6018 73.7969 58.9735 73.4833C59.5389 73.3537 61.3273 72.8511 61.8491 72.8451L61.9043 72.938C59.2823 74.4796 55.1075 74.8855 52.1087 75.0963C52.5937 76.2772 52.6626 77.4941 52.8926 78.7349C53.3201 80.9858 53.9455 83.1726 54.5278 85.388C54.8362 86.5594 54.9028 88.0463 55.3679 89.1571C57.065 93.2124 59.4548 97.0226 62.0072 100.594C62.5949 101.417 63.2478 102.376 63.8763 103.129L80.6249 103.364L85.4972 103.467C86.6295 103.498 87.9263 103.499 89.0312 103.688C85.9432 103.936 81.4128 103.802 78.2378 103.778C73.7095 103.743 68.9612 103.914 64.4781 103.793C65.1415 104.496 65.8482 105.402 66.4986 106.138C66.7895 106.467 68.0498 107.836 68.2216 108.134C66.7243 106.983 64.5432 105.392 63.4336 103.83L11.6951 103.746C11.0396 104.865 10.2085 106.163 9.60487 107.249C10.1462 105.737 9.91945 105.217 10.83 103.764C8.89375 103.783 6.82735 103.733 4.88705 103.695C3.54282 103.669 1.30551 103.651 1.41452e-05 103.466C3.71332 103.058 7.48376 103.414 11.125 103.251C12.5448 100.202 14.0387 97.2407 15.3579 94.112C16.5443 91.2689 17.6852 88.4063 18.78 85.5264C19.3276 84.0941 19.8225 82.5941 20.3706 81.1548C20.4322 80.9931 20.9387 80.8983 21.1069 80.849C21.3459 80.0814 21.4244 78.4117 21.5589 77.4885L22.7801 69.6075L27.219 41.0905Z" fill="black"/>
<path d="M64.288 3.82482C63.0589 7.49264 58.5192 10.9963 54.9607 12.1814C53.8992 12.5349 53.3142 13.0236 52.405 13.6159C49.335 15.4599 46.1552 16.1463 42.6014 15.7896C41.4403 15.6978 39.7055 15.6909 38.571 15.3862C40.9941 15.1707 43.489 15.3626 45.9022 14.7336C47.3975 14.3439 49.3894 13.7087 50.7806 13.0209C47.2278 13.7747 43.4437 14.1193 39.8553 14.8079C36.5358 15.4448 33.2762 16.3138 30.0605 17.3386L30.0458 18.393C31.5897 17.8651 34.4703 17.2171 36.0907 17.0979C34.5929 17.5808 31.0663 18.1154 30.0805 18.7696C30.0231 19.026 30.0063 19.0535 30.0471 19.306C30.6385 19.4056 35.4252 18.1314 35.8627 18.4269C35.4083 18.9657 30.3685 19.292 29.947 20.1376L30.0106 20.2664C30.495 20.3126 30.9271 20.1855 31.3783 20.1588C32.2858 20.1051 34.0863 19.8271 34.9338 19.8908L34.9944 19.9711C34.9442 20.0071 34.8941 20.0433 34.8439 20.0793C33.1995 20.1594 31.5687 20.8251 29.9392 20.9453C29.9192 21.1995 29.8822 21.5357 29.8781 21.7834L29.9114 21.895C29.8743 22.2316 29.8754 22.9159 29.8642 23.2736C31.5281 22.6247 32.7304 22.1895 34.5251 22.1247L34.5493 22.1641C32.8887 22.5994 31.5062 23.2571 29.831 23.6613L29.8485 24.8859C30.7544 24.5585 31.6968 24.4034 32.6273 24.1622C33.2803 23.9929 33.9347 23.6057 34.6173 23.7249C34.4734 23.8717 33.0782 24.2943 32.7642 24.3966C31.7051 24.7416 30.9625 25.3598 29.9032 25.6123L29.6871 26.7818C30.0181 26.6997 30.4689 26.6453 30.778 26.5317C32.2999 25.9727 32.9108 25.5646 34.5479 25.4754C32.9512 26.092 31.3281 26.9314 29.7712 27.4289C29.7099 27.6424 29.6992 27.6305 29.7553 27.8418C30.276 28.0303 33.3396 26.6546 34.2102 27.2689L34.1969 27.3641C33.4274 27.7691 31.1288 27.596 29.7964 28.3008L29.7098 28.3473C29.7031 28.5305 29.6472 29.2609 29.7168 29.3644C30.9317 28.8107 32.3953 28.7761 33.7089 28.8162C32.8866 29.1051 32.0915 29.4204 31.2564 29.729C30.9885 29.8281 29.8658 30.0891 29.7036 30.3394C29.6444 30.4308 29.6352 30.7123 29.693 30.8342C30.3177 31.0544 33.1589 29.9477 33.9743 30.6064C33.3792 31.1196 30.616 31.5236 29.776 31.5229C29.7961 31.9571 29.7627 32.1244 29.6967 32.552C31.0635 32.1873 31.685 32.2177 33.0904 32.1551C31.8914 32.7621 30.853 33.0661 29.5267 33.1997C29.5018 33.6444 29.4683 34.0885 29.4263 34.5319C30.081 34.4435 32.2526 33.9356 32.6641 34.0189L32.6534 34.1263C32.3653 34.3476 29.7574 34.8395 29.2634 34.9279C29.0845 33.7032 29.2962 30.4938 29.3349 29.1871C29.4312 25.1793 29.5835 21.1731 29.7918 17.1695L30.0791 16.9071C31.1401 16.647 32.01 16.1819 33.0061 15.745C39.7982 12.7654 47.1752 12.6872 54.3176 11.1724C55.6252 10.8956 58.3955 8.28874 58.7787 8.29895C58.7145 8.65392 58.2319 9.10842 58.0053 9.42771C60.4085 8.15802 62.8383 6.13169 64.288 3.82482Z" fill="black" stroke="black" stroke-width="0.5"/>
<path d="M67.0123 8.44596L67.158 8.60838L67.1394 8.6956C66.9545 9.58537 67.1197 10.666 67.0064 11.5304C66.6657 14.1306 64.4664 16.3557 62.3916 17.7648C60.9231 18.7624 59.5532 19.1994 57.8939 19.6518C58.0372 23.4554 58.5015 27.2302 58.8008 31.0156C58.9357 33.9178 59.3198 36.7786 59.6876 39.6589C59.8451 40.8921 59.8442 42.16 59.9935 43.3776C60.3454 46.2405 60.7584 49.0813 61.0495 51.9531C61.2 53.4371 61.5973 54.9937 61.7784 56.4835C61.9768 58.8426 62.457 61.067 62.7626 63.3979C63.0392 65.5037 63.1694 67.7407 63.4493 69.8592C63.5283 70.4568 63.3493 72.0302 63.0395 72.5115L62.9775 72.3536C62.994 71.7637 62.6949 70.6789 62.5743 70.0563C61.9945 67.0617 61.7508 64.0431 61.2521 61.0391C61.1258 60.277 61.0198 59.4661 60.7961 58.7284L60.8385 58.4398C60.7205 57.885 60.6871 56.573 60.6091 55.9062L59.7061 47.9201C59.4936 46.0275 59.1495 44.1094 58.9364 42.2027C58.4043 37.3351 58.0078 32.4536 57.7475 27.5638C57.5934 25.0397 57.369 22.3403 57.3329 19.8198C55.1651 20.3333 52.7437 20.4489 50.5549 19.956C53.6266 19.7317 55.4042 19.5543 58.2021 18.0255C61.3863 16.2855 65.9813 11.8787 67.0123 8.44596Z" fill="black" stroke="black" stroke-width="0.5"/>
<path d="M32.5664 13.4739C34.7027 12.4486 36.9833 11.7554 39.3292 11.4183C41.0287 11.1836 42.7658 11.1888 44.4925 10.8692C51.2077 9.62634 59.0856 8.02739 63.557 2.36079C63.921 1.89928 64.1637 1.36805 64.4604 0.872744C64.3103 1.56948 64.1435 2.21484 63.8016 2.85052C62.8116 4.68862 60.2584 6.80044 58.4822 7.92712C55.6344 9.73381 51.2245 10.6266 47.9491 11.1544C46.7839 11.3421 45.5541 11.4324 44.4041 11.6343C41.9108 12.0955 39.4434 12.6873 37.0123 13.4072C34.7598 14.0951 32.6876 15.0752 30.617 16.1667C30.4245 16.2682 30.278 16.2735 30.0636 16.2629L29.8183 16.1298C29.8066 15.5563 29.9187 14.1056 29.9978 13.5327C31.0788 12.6133 31.9566 11.6321 33.2605 10.8984C35.2278 9.79157 38.22 9.01549 40.473 9.13451C41.4049 9.18375 42.197 9.37873 43.0801 9.59863L43.1517 9.76008C40.1916 9.98262 34.7867 11.4813 32.5664 13.4739Z" fill="black"/>
<path d="M52.2325 28.3303C53.9992 28.2401 55.2307 29.0231 56.2367 30.3988C54.9557 30.2127 52.005 30.2318 51.0594 29.8313C51.0696 30.6509 51.0485 31.6707 51.158 32.4795C51.4425 34.5718 51.9764 36.6515 52.3273 38.7388C52.4802 39.6453 52.8608 40.6013 53.0233 41.517C53.1646 42.3079 53.2683 43.0848 53.3725 43.8778C51.9429 44.1364 50.5962 44.1078 49.1649 43.9621C47.3594 43.7308 46.6478 43.5182 45.0671 42.7064C46.8543 42.6289 47.9399 43.0493 49.6867 43.3574C50.7911 43.5522 51.6644 43.623 52.7713 43.7245C51.8031 40.3809 50.0884 31.9708 51.1962 28.7847C51.615 28.5475 51.7764 28.4904 52.2325 28.3303Z" fill="black"/>
<path d="M47.0836 17.5951C53.2188 17.5706 58.1189 14.8163 62.2918 10.5332C64.2698 8.50255 64.7223 7.89981 66.1108 5.42451C65.2795 9.3592 60.8406 13.5996 57.4972 15.6896C53.7226 18.0493 51.3107 18.2853 47.0934 17.9128L47.0019 17.7153L47.0836 17.5951Z" fill="black"/>
<path d="M38.7956 45.4459C39.2326 45.5468 39.5992 46.1828 39.9063 46.53C41.9035 48.7876 45.0864 49.9363 47.9848 50.4207C50.3611 50.818 52.5534 51.0041 54.9591 50.9597C55.4306 50.951 56.539 50.991 56.9272 51.1459L56.9309 51.2351L56.7469 51.309C55.5355 51.5922 54.661 51.5032 53.471 51.5068C50.8501 51.5602 48.558 51.2408 46.0297 50.5616C43.2476 49.8142 40.2653 48.5323 38.7785 45.9014C38.6775 45.7227 38.7138 45.6061 38.7956 45.4459Z" fill="black"/>
<path d="M34.1749 48.2939C34.2425 47.6656 34.5746 47.0019 34.8539 46.4161C36.124 43.7523 39.5168 42.5403 42.2328 42.0242C42.5223 41.9692 43.2611 41.8413 43.5064 41.9918C43.1661 42.4143 42.2069 42.4174 41.7262 42.6323C37.8861 44.3488 35.1485 44.8818 34.3647 49.4933C34.3664 49.8175 34.3818 49.9911 34.3072 50.3105L34.2421 50.3152C34.0314 49.7884 34.0495 48.8428 34.1749 48.2939Z" fill="black"/>
<path d="M34.1749 48.2939C34.1988 48.8302 34.2065 48.9856 34.3647 49.4933C34.3664 49.8175 34.3818 49.9911 34.3072 50.3105L34.2421 50.3152C34.0315 49.7884 34.0495 48.8428 34.1749 48.2939Z" fill="black"/>
<path d="M61.4966 9.75963L61.4943 9.87283C61.2539 10.1866 60.6871 10.6197 60.3574 10.8822C57.9388 12.8076 55.1102 14.5877 52.2023 15.6401C49.381 16.6611 43.9795 17.6023 41.1527 16.2436L41.0231 16.128C41.2289 16.0875 42.2081 16.4052 42.5763 16.4519C44.6644 16.7167 46.4157 16.5348 48.4422 16.2118C53.6941 15.3749 57.312 12.8863 61.4966 9.75963Z" fill="black"/>
<path d="M42.8464 27.9378C43.204 27.9041 43.594 27.9177 43.9549 27.9126C45.3551 27.8928 46.129 27.8363 47.1472 28.8949C45.8302 29.1412 45.6019 29.1824 44.2727 29.0987C42.7086 28.9547 41.2692 29.0985 39.6596 28.8336C40.5619 28.4178 41.8634 28.0354 42.8464 27.9378Z" fill="black"/>
<path d="M70.267 14.0346C70.2996 14.0495 70.3519 14.1038 70.3816 14.1313C70.3241 14.252 70.2753 14.3442 70.1907 14.4489C67.6702 17.5784 64.0157 19.3923 60.1442 19.9831L60.021 19.9522C60.2674 19.7593 61.7974 19.3128 62.2975 19.0598C65.143 17.62 67.969 16.2768 70.267 14.0346Z" fill="black"/>
<path d="M60.1897 15.4024C60.1119 15.6749 58.5923 16.782 58.2691 16.9724C55.0267 18.8796 51.6721 19.4136 48.0349 18.5956L47.7751 18.5246L47.7805 18.4744C52.6754 18.8299 56.0835 18.0618 60.1897 15.4024Z" fill="black"/>
<path d="M53.4708 31.3846C53.6339 31.4078 53.7664 31.5194 53.907 31.6059C54.7642 32.1349 55.9527 31.8864 56.4642 32.9697L56.4017 33.0446C56.1397 33.0042 54.6231 32.2386 54.3326 32.0824C54.2867 32.3197 54.3653 32.6941 54.3429 32.954C54.1682 34.9697 52.2305 34.1519 52.578 32.5104C52.6864 31.9965 53.0137 31.6666 53.4708 31.3846Z" fill="black"/>
<path d="M49.6459 56.8725C49.8998 57.1732 50.6761 63.7174 50.8191 64.6368C51.2297 67.4526 51.7025 70.2588 52.237 73.0533C52.2218 73.0405 52.2052 73.0284 52.1921 73.0136C51.3647 72.1035 49.6437 58.6387 49.6459 56.8725Z" fill="black"/>
<path d="M24.8941 32.3475C26.1776 32.2528 26.4803 32.7231 27.4682 33.4521C27.7242 33.9848 27.9689 34.3589 27.9595 34.9502L27.886 35.0005C27.0815 34.51 26.9311 33.4857 25.7134 33.1253C23.8837 32.5385 23.9358 34.5761 23.4326 35.4722L23.3578 35.4555C22.519 34.5582 23.9487 32.7528 24.8941 32.3475Z" fill="black"/>
<path d="M42.5859 30.9041C44.1342 30.9565 43.5986 33.6999 42.3581 33.459C41.6596 33.3234 42.0256 31.7503 41.8632 31.407L41.6849 31.474C40.9856 31.558 39.5518 32.0223 38.7932 32.2324C39.3649 31.8236 39.7648 31.5595 40.4581 31.3807C41.3666 31.1464 41.8114 31.3987 42.5859 30.9041Z" fill="black"/>
<path d="M51.3811 57.6691C51.7036 57.9248 51.9717 60.4463 52.1518 61.1016C52.9009 63.8286 53.5248 66.6223 54.1751 69.3758C54.3597 70.1569 55.0263 72.2431 54.9867 72.8816C54.3037 72.0802 52.9517 65.4471 52.622 64.0466C52.1882 62.203 51.543 59.5299 51.3811 57.6691Z" fill="black"/>
<path d="M48.1808 59.3207C48.5015 63.1737 48.5902 66.9631 49.2646 70.7921C49.4448 71.8159 49.4085 72.9909 49.6787 73.9735L49.5313 73.9882C49.4029 73.6187 49.2195 72.3744 49.1372 71.9184C48.4699 68.1712 48.1013 64.3772 48.0348 60.5713C48.0561 60.216 48.0371 59.6034 48.1808 59.3207Z" fill="black"/>
<path d="M59.7005 20.4999C61.7892 20.257 63.9801 19.741 65.9837 19.0843C66.6579 18.8634 67.5863 18.3335 68.2717 18.0587C65.6912 20.3331 63.2036 20.6888 59.8795 20.6905L59.7005 20.4999Z" fill="black"/>
<path d="M28.4495 43.48L28.6605 43.4818C28.6693 45.0043 28.4838 46.5065 28.4515 48.027C28.8241 46.7202 29.9993 44.4216 30.7874 43.3101L29.322 46.7448C28.5593 48.5695 28.3965 48.4707 28.1325 50.6115C28.0297 50.6611 28.0787 50.6401 27.9262 50.6086C27.9183 49.2027 28.0871 47.6574 28.2154 46.2602C28.3007 45.3321 28.3447 44.4077 28.4495 43.48Z" fill="black"/>
<path d="M53.2016 58.6751C53.388 58.9351 53.6101 59.6315 53.6892 59.9685C54.4725 63.3049 55.4135 66.5955 56.3677 69.887C56.5203 70.4123 56.7209 70.9083 56.8217 71.4399C56.5164 71.1978 56.1183 69.7433 55.9722 69.3534C54.6645 65.8658 54.1078 62.2632 53.2016 58.6751Z" fill="black"/>
<path d="M57.5375 61.2484C57.9198 61.726 58.6569 63.5103 58.9581 64.1961C60.0405 66.6605 61.5248 69.5973 62.2311 72.1877L62.185 72.1926C62.0766 72.053 61.4085 70.428 61.2874 70.1472L58.2783 63.0125C58.0689 62.5059 57.6709 61.7441 57.5375 61.2484Z" fill="black"/>
<path d="M27.7325 35.5412L27.7683 35.6377C26.6252 37.1824 24.6965 35.555 24.9959 38.5351C25.0148 38.7258 25.0318 38.9165 25.0469 39.1075L24.9846 39.1786L24.8835 39.124C24.4254 38.231 24.3275 37.7042 24.5232 36.7255C25.7309 35.6483 26.3694 36.1986 27.7325 35.5412Z" fill="black"/>
<path d="M56.2674 62.1362C56.6371 62.5209 59.516 70.2245 59.5026 70.7859C59.4612 70.7504 59.4315 70.7291 59.3971 70.6888C59.0041 70.2285 56.2302 62.6045 56.2674 62.1362Z" fill="black"/>
<path d="M45.6326 62.9332C45.8448 63.4227 45.8536 71.6466 45.6451 72.1681C45.6187 72.1204 45.5983 72.09 45.5801 72.0403C45.3725 71.4717 45.4343 63.359 45.6326 62.9332Z" fill="black"/>
<path d="M21.6003 7.77076C22.1052 7.74688 22.6111 7.75287 23.1153 7.78862C24.9736 7.93704 27.6497 8.8929 28.9127 10.3467C29.0688 10.5264 29.2743 10.9043 29.2431 11.1612C27.9199 9.02377 24.714 8.27443 22.3779 7.98326C22.0926 7.94769 21.884 7.9819 21.6061 7.87667L21.6003 7.77076Z" fill="black"/>
<path d="M37.2075 6.43761L37.2716 6.4978C37.1978 6.6513 36.7896 6.70625 36.5977 6.77049C36.1922 6.88407 35.8518 7.07775 35.4806 7.26269C33.6561 8.17131 32.6601 9.60729 31.3083 11.0229L31.2418 10.9104C31.6149 9.78349 34.0907 7.60383 35.1697 7.05528C35.7094 6.78081 36.5993 6.56638 37.2075 6.43761Z" fill="black"/>
<path d="M34.7949 5.54393L34.8462 5.56466L34.8359 5.64286C33.591 6.45637 32.1429 7.81552 31.4966 9.14139C31.2719 9.6024 30.9931 10.3993 30.789 10.9099L30.7239 10.9039L30.6759 10.8017C31.0099 8.65304 32.8239 6.41695 34.7949 5.54393Z" fill="black"/>
<path d="M29.878 21.7834C30.5079 21.4829 34.8552 20.3792 35.3934 20.6363C34.9594 20.7858 34.1557 20.9362 33.6863 21.031C32.4019 21.2904 31.1705 21.5142 29.9113 21.895L29.878 21.7834Z" fill="black"/>
<path d="M43.0801 9.5986C44.6995 9.86844 47.2816 9.01089 49.1398 9.24951C47.2237 9.52354 45.2538 9.76285 43.3155 9.73792C43.2305 9.73681 43.2596 9.73798 43.1517 9.76006L43.0801 9.5986Z" fill="black"/>
<path d="M26.271 11.6658C26.9482 11.6021 27.7816 11.6569 28.4575 11.7512C28.3045 11.8978 26.5068 11.8426 26.0885 11.8828L26.0154 11.8906C25.3409 11.9363 24.4542 12.0942 23.7958 12.0492C24.0595 11.8344 25.8695 11.6905 26.271 11.6658Z" fill="black"/>
<path d="M24.1281 10.5243C25.7276 10.5084 26.4981 10.6107 28.0165 11.0316C27.6812 11.0396 27.4927 11.0245 27.1633 10.9941C26.4661 10.8891 25.8154 10.8098 25.1132 10.7503C24.5944 10.7063 23.9108 10.7181 23.4167 10.6334C23.6588 10.5189 23.8588 10.5354 24.1281 10.5243Z" fill="black"/>
<path d="M47.0934 17.9128C46.4193 17.8075 45.7229 17.8729 45.1322 17.5434L45.1132 17.4752C45.3193 17.4523 46.6828 17.5817 47.0836 17.5951L47.0018 17.7153L47.0934 17.9128Z" fill="black"/>
<path d="M48.0348 60.5714C47.9602 60.1955 47.9597 58.7769 48.0463 58.3961C48.1695 58.5641 48.1753 59.0999 48.1808 59.3207C48.0371 59.6034 48.0561 60.216 48.0348 60.5714Z" fill="#46454C"/>
<path d="M29.8183 16.1298L30.0636 16.2629L30.0791 16.9071L29.7918 17.1695L29.8183 16.1298Z" fill="black"/>
<path d="M28.5166 42.4053C28.522 41.8395 28.5311 41.5225 28.608 40.9663C28.7032 41.3761 28.6775 41.9378 28.6695 42.3673L28.5166 42.4053Z" fill="#898F94"/>
<path d="M28.5166 42.4053L28.6695 42.3673L28.6605 43.4818L28.4495 43.48C28.4633 43.1213 28.4856 42.7629 28.5166 42.4053Z" fill="#272528"/>
<path d="M28.1325 50.6115C28.1233 51.0398 28.0459 51.5959 27.9971 52.033C27.8905 51.5978 27.9209 51.0646 27.9262 50.6087C28.0787 50.6402 28.0297 50.6611 28.1325 50.6115Z" fill="#46454C"/>
<path d="M61.8491 72.8452C62.1406 72.7767 62.7273 72.5148 62.9775 72.3537L63.0395 72.5115C62.5694 72.7742 62.4519 72.8375 61.9044 72.938L61.8491 72.8452Z" fill="#272528"/>
<path d="M59.8795 20.6904C59.5618 20.6905 59.2695 20.718 58.9756 20.6099C59.1328 20.5044 59.4944 20.5127 59.7006 20.4999L59.8795 20.6904Z" fill="black"/>
<path d="M67.0123 8.44596C67.1453 8.1211 67.2912 7.72422 67.465 7.42645C67.3737 7.81802 67.289 8.22935 67.158 8.60837L67.0123 8.44596Z" fill="#46454C"/>
</svg>
