<svg width="208" height="217" viewBox="0 0 208 217" fill="none" xmlns="http://www.w3.org/2000/svg">
<g clip-path="url(#clip0_2448_7457)">
<path d="M63.01 49.0937C62.7007 47.282 62.7797 45.7351 62.6302 43.8854C62.1648 38.1256 61.6915 31.967 62.1931 26.2059C62.2692 25.3344 62.9826 23.9024 63.5136 23.2133C69.9396 14.8756 87.2433 1.97205 96.9931 0.0205114C103.667 -1.31518 122.378 4.50926 127.653 9.07525C129.328 10.5251 130.633 11.554 131.446 13.7993C133.152 18.5061 133.776 23.7281 135.09 28.5751C136.259 32.8898 137.604 37.4895 139.215 41.6413C140.081 43.8755 141.665 46.6315 142.693 48.92C144.234 47.7506 146.354 46.8399 147.668 48.9826C149.132 51.3697 148.818 54.4933 148.693 57.166C148.246 62.6362 147.302 70.8 143.447 75.0337C143.788 79.7306 148.157 102.651 147.318 105.318C146.836 105.54 146.495 105.669 145.993 105.842C145.468 106.432 144.712 106.595 143.939 106.869L143.095 106.961C141.759 107.426 136.831 108.992 135.725 108.503C135.455 107.993 135.505 107.824 135.508 107.223L135.191 107.154C134.705 108.022 135.914 108.645 134.749 108.755C133.774 108.848 130.514 109.598 129.794 109.204C129.047 109.312 129.1 109.172 128.763 109.607C127.804 109.641 123.071 109.858 122.524 109.745C121.627 109.707 121.876 110.089 121.149 109.752L120.573 109.7C119.208 109.569 118.788 109.701 118.02 108.764L117.845 108.52C117.514 108.777 117.336 108.885 116.936 109.012L116.759 109.157C116.231 109.459 115.356 109.258 114.632 109.228C114.162 108.641 114.133 108.556 114.019 107.81C113.782 107.514 113.506 107.319 113.211 107.074C112.847 106.419 112.803 104.04 112.582 102.982C112.168 104.249 111.538 107.531 110.921 108.063L110.543 108.035L110.21 107.633C109.926 107.782 109.739 107.848 109.507 108.064C108.306 107.905 107.681 107.279 105.732 107.072C105.886 105.831 106.1 104.444 106.096 103.205C105.453 104.297 105.249 105.718 104.614 106.651L103.98 106.64C103.389 106.695 103.323 106.733 102.821 107.056C113.046 111.13 128.045 112.142 138.763 109.884C138.842 119.713 138.798 129.543 138.632 139.371C138.537 143.496 137.927 149.03 138.053 152.83C140.381 155.121 142.474 157.4 144.949 159.581C156.359 169.633 169.336 177.551 182.284 185.397C190.481 190.364 206.066 194.365 208.254 205.33C205.993 203.739 203.125 201.563 200.795 200.238C193.854 203.884 181.594 207.051 173.798 209.347C164.854 211.817 155.847 214.257 146.689 215.786C143.633 216.297 140.364 217.006 137.269 217.152C129.069 217.541 121.005 217.103 112.917 215.72C107.518 214.797 102.553 213.294 97.2449 212.165C81.6212 208.937 66.1292 205.094 50.8038 200.65C47.5634 199.723 44.247 199.061 41.0333 198.037C37.0425 196.768 16.5789 190.22 14.5066 188.025C14.3338 188.015 14.3161 187.95 14.1264 187.813C12.5002 187.241 9.54017 186.054 8.28666 184.951C7.77848 184.49 7.71486 184.371 7.07864 184.2C6.23384 183.897 6.09458 183.775 5.38628 183.248C3.76818 182.921 3.4418 182.483 2.45537 181.194C2.04449 180.835 0.537083 180.059 -0.0227051 179.754C0.605037 179.221 1.27946 178.73 1.94857 178.25C8.9471 173.231 16.5474 169.124 23.7604 164.441C30.6224 160.006 37.4329 155.491 44.1903 150.897C50.1918 146.772 55.6134 142.817 61.7669 138.742C62.6779 134.677 62.7372 130.322 63.2489 126.188C64.3139 117.581 65.2854 109.025 66.0321 100.384C66.2233 98.1708 66.5454 95.9636 66.6736 93.7463C66.8639 90.4522 66.463 76.9654 67.3882 75.4995C67.571 75.2097 67.6435 75.1337 67.6372 74.7849C67.3134 74.9624 66.2509 75.7122 66.0971 75.7394C63.7137 76.1605 61.5067 75.7822 59.4289 74.8768C51.0119 71.3267 45.1572 61.1638 48.6554 51.9938C51.2857 45.0985 57.5251 45.5018 63.01 49.0937Z" fill="#010101"/>
<path d="M118.466 97.8461C118.007 95.5618 118.376 94.478 118.896 92.2703C118.997 91.8398 118.641 91.3244 119.026 90.7349L119.429 90.6943C119.933 91.5458 118.965 94.1189 119.019 95.398C119.136 98.1917 121.596 107.22 120.455 109.472C119.733 108.756 120.095 101.359 118.642 101.139C117.598 102.717 118.226 107.999 118.02 108.764L117.845 108.52C117.514 108.777 117.336 108.885 116.936 109.012C117.069 105.665 116.98 104.024 118.115 100.831C118.826 99.9202 118.586 99.0527 118.466 97.8461Z" fill="#DEDDE1"/>
<path d="M7.07861 184.2C7.24151 183.616 7.26987 183.6 7.67563 183.133C10.7866 185.351 16.2625 187.514 19.8791 189.12C21.4856 189.833 27.267 191.099 28.4985 191.972L28.3834 192.216C26.5122 192.214 21.1592 190.146 19.0538 189.619C17.6833 189.275 16.0082 187.807 14.5065 188.025C14.3338 188.015 14.3161 187.95 14.1264 187.813C12.5002 187.241 9.54014 186.054 8.28663 184.951C7.77845 184.49 7.71483 184.371 7.07861 184.2Z" fill="#DEDDE1"/>
<path d="M8.28662 184.951C9.37783 185.207 13.2067 186.472 13.9349 187.251C13.9883 187.393 14.1051 187.677 14.1264 187.813C12.5002 187.241 9.54014 186.054 8.28662 184.951Z" fill="#15161B"/>
<path d="M94.2417 103.954C95.2126 102.814 94.4932 102.565 95.1359 101.021C95.2967 102.264 95.3315 103.512 96.275 104.383L96.6471 104.477C96.8419 104.221 97.033 103.961 97.2201 103.699C98.1976 103.963 99.0194 105.742 100.54 105.741C101.073 104.905 101.046 103.911 101.314 103.209C101.691 102.226 103.823 97.8919 104.392 97.354L104.539 97.5259C104.189 99.7914 101.232 103.317 101.833 105.828C102.489 106.572 102.695 106.466 103.695 106.34L103.98 106.64C103.389 106.695 103.323 106.733 102.821 107.056C101.619 107.191 95.9144 104.488 94.2417 103.954Z" fill="#DEDDE1"/>
<path d="M94.2418 103.954C93.3984 103.614 91.4854 102.942 90.9097 102.373C90.81 101.605 91.7255 100.871 91.7145 100.609C91.6014 97.946 92.3655 91.9305 92.122 89.5639L92.3092 89.3955L92.5345 89.5688C93.6962 92.3601 91.9333 102.06 92.7669 102.906C93.1246 102.359 93.2351 101.855 93.4262 101.229L93.5751 101.277C93.7078 101.969 93.9227 103.361 94.2418 103.954Z" fill="#C1C1C4"/>
<path d="M116.745 101.163L117.298 100.596L118.115 100.831C116.98 104.024 117.069 105.665 116.936 109.012L116.759 109.157C116.425 109.097 116.424 109.078 116.121 108.913C115.584 107.089 116.837 103.442 116.745 101.163Z" fill="#010101"/>
<path d="M116.358 101.157L116.745 101.163C116.836 103.443 115.583 107.089 116.121 108.913C116.424 109.078 116.425 109.097 116.759 109.157C116.231 109.459 115.356 109.258 114.632 109.228C115.115 108.528 116.092 102.461 116.358 101.157Z" fill="#F2F1F4"/>
<path d="M128.763 109.608C128.46 106.812 127.584 103.477 127.074 100.599L127.184 100.606C128.046 102.637 129.025 106.818 129.794 109.204C129.047 109.313 129.1 109.172 128.763 109.608Z" fill="#DEDDE1"/>
<path d="M116.358 101.157C116.733 100.076 116.878 98.3284 117.238 97.675L117.65 97.5591L118.466 97.8461C118.586 99.0527 118.826 99.9202 118.115 100.831L117.298 100.596L116.745 101.163L116.358 101.157Z" fill="#909192"/>
<path d="M118.466 97.8461C118.586 99.0527 118.826 99.9202 118.115 100.831L117.298 100.596C117.923 99.2214 118.022 99.0077 117.65 97.5591L118.466 97.8461Z" fill="#0E1210"/>
<path d="M113.211 107.074C113.532 106.479 113.72 104.056 114.06 103.019L114.245 102.994C114.501 104.188 114.506 106.793 114.019 107.81C113.782 107.514 113.506 107.319 113.211 107.074Z" fill="#F2F1F4"/>
<path d="M110.955 101.818C111.032 102.805 110.521 106.698 110.21 107.633C109.926 107.782 109.739 107.848 109.507 108.064C110.089 106.765 109.927 104.317 110.955 101.818Z" fill="#C1C1C4"/>
<path d="M2.45557 181.194C4.98998 181.19 3.88064 181.857 5.44379 182.41L5.38648 183.248C3.76837 182.921 3.44199 182.483 2.45557 181.194Z" fill="#DEDDE1"/>
<path d="M143.095 106.962C142.661 105.562 141.59 105.028 141.944 103.781C142.676 103.809 142.924 106.276 143.939 106.869L143.095 106.962Z" fill="#A49EA9"/>
<path d="M122.011 105.65C122.169 106.762 122.499 108.687 122.524 109.745C121.627 109.708 121.876 110.089 121.149 109.752L121.595 109.605C121.819 108.793 121.937 106.591 122.011 105.65Z" fill="#C1C1C4"/>
<path d="M63.6153 24.7197C68.5378 16.8019 87.0462 3.2651 95.8939 0.859011C102.749 -1.0052 125.268 5.64822 129.561 12.4325C130.697 14.2272 133.571 26.1913 133.872 28.9549C131.578 28.0745 123.843 26.8671 123.167 25.7166L123.743 24.4485L123.632 24.1746C123.175 24.3085 118.858 31.8926 118.5 32.755L120.969 30.7345L121.204 30.7971C124.021 31.5272 134.728 32.0325 135.216 33.9606C136.405 38.6664 139.703 45.5573 141.828 49.9795C143.631 53.7293 141.797 62.2336 141.812 66.4839C141.693 69.0714 141.681 72.1101 141.536 74.5738C141.171 74.1971 140.628 73.7671 140.217 73.4211C139.398 73.4576 139.195 73.5706 138.694 72.9759C138.399 69.8074 137.767 64.2711 137.886 61.2708C135.281 59.5268 133.395 58.9152 130.341 58.749C129.775 58.3822 129.337 58.6641 128.776 58.8968L127.806 58.2539L127.736 58.6845C128.892 60.2914 129.442 60.5804 130.829 61.8917C129.976 62.0607 130.006 62.0835 129.349 61.8064C128.978 61.8367 128.454 61.8981 128.094 61.8872L127.798 62.5885L127.804 62.6864C129.275 63.154 131.754 63.7906 132.611 65.0156C131.683 65.8318 121.442 65.7241 119.273 65.8822C113.935 66.2712 108.555 66.6211 103.245 67.3847C102.078 67.5091 100.246 67.76 99.1234 67.7351C98.4291 67.8484 97.7594 67.7557 97.0539 67.7024C95.9949 67.7406 94.4489 67.6065 93.5123 67.1008C92.6669 66.8089 92.2626 67.0658 91.3098 66.6063L90.8881 66.6497L90.3059 66.2781C89.0988 67.2686 88.6728 67.8103 88.7892 69.4854C88.6316 70.8173 88.7803 70.7381 89.1158 72.0101L89.3699 71.6013C89.8914 71.5694 90.144 71.7168 90.4601 72.181L90.9265 71.8328C91.4138 73.7196 91.3628 75.0914 91.3453 77.0108L91.232 77.9516C91.0981 77.5117 90.729 75.2075 90.8383 74.8428L90.6805 75.1092L90.8217 75.108L90.7103 74.884L90.6746 75.46L90.8428 75.4051C90.8471 76.6212 90.8144 77.8372 90.7447 79.0513C90.845 81.0741 90.4491 83.9859 90.6496 85.6649C91.2685 90.8512 91.7197 95.0074 90.2328 100.188C90.0496 98.6894 89.9753 97.673 89.9314 96.1627C89.2645 95.2855 90.3407 94.9724 89.0246 93.9589C88.828 95.8399 88.6574 98.6025 88.7792 100.569C88.7809 100.598 89.293 101.304 89.3657 101.394C89.4555 101.502 89.5469 101.608 89.6403 101.713C88.7015 101.342 88.1309 101.015 87.2473 100.533L86.777 100.258C86.2178 100.037 85.8632 99.7146 85.3854 99.3482C84.8191 99.2038 84.9652 99.3195 84.5796 98.9487C83.5449 98.3517 83.0668 98.0109 82.1261 97.2687L81.3703 96.8748C80.1056 96.3794 80.5143 95.4548 80.6563 94.2882C80.9082 92.2159 81.0987 91.5436 80.3179 89.5489L79.9943 89.7064C79.8464 91.7623 79.57 93.3464 79.1922 95.3762C78.714 94.9379 78.2722 94.557 77.9293 93.9795C76.0764 90.8584 80.4402 81.5748 78.4233 79.2262L78.1505 79.1965C77.9653 79.8342 78.0191 80.4754 77.9744 81.1355C77.7536 84.3888 77.1154 87.6071 76.7817 90.8498C76.6828 91.8104 77.27 93.0297 76.7081 93.761C76.1851 93.3399 76.0334 93.204 75.6035 92.6897L74.9907 92.4619L73.1039 90.83L72.917 90.856C72.2341 90.6264 71.8754 90.1639 71.3532 89.645C69.8123 88.0741 70.3497 83.2845 70.071 81.09C69.9114 79.8337 69.7509 77.9934 69.7133 76.7403C69.5868 75.5028 69.5553 75.3853 69.8858 74.1983L69.5173 73.9087C68.9218 72.5577 68.7964 68.6448 68.532 67.0795C67.4635 68.4637 67.9955 71.3357 67.8503 73.3132C65.2791 75.2881 63.2761 75.3289 60.1961 74.292C59.1527 73.5562 57.8762 73.1393 56.4271 71.9564C52.9831 69.1453 49.1922 65.3183 48.657 60.6816C48.137 56.8546 48.3413 53.0147 50.8666 49.8242C55.5496 43.908 62.033 49.1603 66.1391 52.4165C65.4564 51.3979 64.7579 50.3899 64.0443 49.393C64.0673 47.6897 64.1493 46.1452 64.2588 44.4444C64.9106 43.6603 65.529 41.7978 65.9098 40.7822L65.7942 40.2581L65.5556 40.1589C65.2503 40.4787 65.2419 40.4623 65.0689 40.8963C64.8379 41.5964 64.4615 42.5497 63.9139 43.0405L63.6935 42.8112C63.3098 38.5234 62.9986 34.3415 63.143 30.0294C63.2119 27.9731 62.5814 26.6277 63.6153 24.7197Z" fill="white"/>
<path d="M89.1157 72.0096L89.3698 71.6008C89.8914 71.569 90.1439 71.7163 90.46 72.1806L90.9265 71.8324C91.4138 73.7191 91.3628 75.0909 91.3452 77.0104L91.232 77.9512C91.098 77.5113 90.7289 75.207 90.8382 74.8424L90.6805 75.1088L90.8217 75.1076L90.7102 74.8836L90.6745 75.4595L90.8428 75.4047C90.8471 76.6208 90.8144 77.8367 90.7447 79.0509C90.8449 81.0737 90.449 83.9855 90.6495 85.6644C91.2684 90.8508 91.7197 95.007 90.2327 100.188C90.0496 98.689 89.9753 97.6725 89.9314 96.1623C89.2644 95.2851 90.3407 94.9719 89.0245 93.9584C88.8279 95.8394 88.6574 98.6021 88.7791 100.569C88.7809 100.598 89.293 101.304 89.3657 101.393C89.4555 101.501 89.5469 101.608 89.6403 101.713C88.7015 101.341 88.1309 101.015 87.2473 100.533L86.7769 100.258C86.2177 100.037 85.8632 99.7142 85.3853 99.3478C85.6628 98.1031 85.4143 92.3749 85.2821 90.9716C85.2246 89.4138 85.8391 84.58 86.0528 82.9898C86.6965 82.0119 86.8124 79.8679 87.1567 78.4713L87.1701 76.585C87.744 77.1259 87.8809 77.2039 87.9952 77.9853L88.0249 78.1792L88.3202 78.0588C88.1663 75.1183 88.9451 75.838 89.1912 73.4373L89.1157 72.0096Z" fill="#0C0D0C"/>
<path d="M89.1156 72.0096L89.3696 71.6008C89.8912 71.569 90.1437 71.7163 90.4599 72.1806L90.9263 71.8324C91.4136 73.7191 91.3626 75.0909 91.3451 77.0104L91.2318 77.9512C91.0979 77.5113 90.7287 75.207 90.8381 74.8424L90.6803 75.1088L90.8215 75.1076L90.71 74.8836L90.6744 75.4595L90.8426 75.4047C90.8469 76.6208 90.8142 77.8367 90.7445 79.0509C90.8448 81.0737 90.4488 83.9855 90.6494 85.6644C91.2682 90.8508 91.7195 95.007 90.2326 100.188C90.0494 98.689 89.9751 97.6725 89.9312 96.1623C89.2643 95.2851 90.3405 94.9719 89.0244 93.9584C89.188 92.2679 89.6722 86.9196 88.8037 85.6892L88.843 85.5805C89.5706 84.6361 89.2071 80.0927 88.8587 78.9082L88.682 77.9817L88.32 78.0588C88.1662 75.1183 88.945 75.838 89.191 73.4373L89.1156 72.0096Z" fill="#C1C1C4"/>
<path d="M88.8587 78.9086C89.1246 77.8435 89.3726 76.7737 89.6028 75.7002C89.8841 79.0154 90.0251 82.0888 90.0594 85.4125C90.0738 86.7968 90.3903 88.4758 90.36 89.8896C90.3145 92.0174 89.9286 94.0194 89.9312 96.1627C89.2642 95.2855 90.3405 94.9723 89.0243 93.9588C89.188 92.2683 89.6722 86.92 88.8037 85.6896L88.8429 85.5809C89.5705 84.6365 89.2071 80.0931 88.8587 78.9086Z" fill="#0E1210"/>
<path d="M90.46 72.1807L90.9264 71.8325C91.4137 73.7193 91.3627 75.0911 91.3452 77.0105L91.2319 77.9513C91.098 77.5114 90.7289 75.2071 90.8382 74.8425L90.6804 75.1089L90.8216 75.1077L90.7102 74.8837L90.6745 75.4597L90.8427 75.4048C90.847 76.6209 90.8143 77.8369 90.7446 79.051C90.4937 77.4116 90.1082 75.7134 90.0259 74.0758C90.28 73.4412 90.3501 72.8506 90.46 72.1807Z" fill="#282C2B"/>
<path d="M89.1155 72.0096L89.3696 71.6008C89.8911 71.569 90.1437 71.7163 90.4598 72.1806C90.3499 72.8504 90.2798 73.4411 90.0257 74.0757C89.8882 74.7324 89.9743 74.9163 89.5437 75.2722C89.1931 74.6837 89.2333 74.1367 89.1909 73.4373L89.1155 72.0096Z" fill="#DEDDE1"/>
<path d="M86.0528 82.9901C86.6965 82.0123 86.8124 79.8682 87.1567 78.4717C86.9471 84.521 87.799 90.4677 87.0017 96.5241C86.8486 97.6871 86.9792 99.136 86.7769 100.258C86.2177 100.037 85.8632 99.7146 85.3853 99.3481C85.6628 98.1035 85.4143 92.3752 85.2821 90.972C85.2246 89.4142 85.8391 84.5804 86.0528 82.9901Z" fill="#DEDDE1"/>
<path d="M88.8037 85.6895C89.6722 86.9198 89.188 92.2682 89.0243 93.9587C88.8278 95.8397 88.6572 98.6023 88.7789 100.569C88.7807 100.598 89.2928 101.304 89.3655 101.393C89.4553 101.502 89.5467 101.608 89.6401 101.713C88.7013 101.342 88.1307 101.015 87.2471 100.533C88.3917 97.2374 87.5543 90.0132 88.8037 85.6895Z" fill="#F2F1F4"/>
<path d="M88.3202 78.059L88.6822 77.9819L88.8589 78.9085C89.2073 80.0929 89.5707 84.6363 88.8431 85.5807C87.8965 83.6666 88.1667 80.4714 88.0249 78.1794L88.3202 78.059Z" fill="#DEDDE1"/>
<path d="M80.1044 75.064L80.3439 75.223C81.452 77.1225 81.5212 77.759 81.7544 79.9122C82.1883 82.7146 81.8986 85.1685 81.608 87.9701C81.9823 88.6873 81.7416 88.4813 82.506 88.7382C80.7207 90.0244 81.9886 94.4323 81.3701 96.8745C80.1054 96.3791 80.5141 95.4545 80.6561 94.2879C80.908 92.2156 81.0985 91.5434 80.3177 89.5487L79.9941 89.7061C79.8461 91.762 79.5698 93.3462 79.192 95.3759C78.7138 94.9376 78.272 94.5567 77.929 93.9792C76.0761 90.8581 80.44 81.5746 78.423 79.2259L78.1502 79.1962C77.9651 79.834 78.0188 80.4751 77.9741 81.1352C77.7533 84.3885 77.1152 87.6068 76.7815 90.8495C76.6826 91.8102 77.2698 93.0294 76.7078 93.7607C76.1849 93.3396 76.0332 93.2037 75.6032 92.6894C75.8668 90.207 75.0243 88.917 74.24 86.5959C74.8784 85.2027 74.9491 85.2772 75.2827 83.6727L76.1642 84.4839C76.5443 83.6329 76.68 81.6817 76.9584 80.5416C76.9976 80.3856 76.9903 80.3321 77.0838 80.2269C77.9119 79.2986 77.3174 78.3976 78.14 77.6257C78.2271 78.3435 78.1089 78.5147 78.5497 78.8767C78.7094 78.7991 79.8538 77.267 80.3813 76.7574C80.3464 76.2918 80.1897 75.5474 80.1044 75.064Z" fill="#DEDDE1"/>
<path d="M80.5859 80.9778L81.7545 79.9126C82.1884 82.715 81.8987 85.1688 81.6081 87.9705C81.9824 88.6877 81.7417 88.4817 82.5061 88.7386C80.7208 90.0248 81.9887 94.4327 81.3702 96.8749C80.1055 96.3795 80.5142 95.4549 80.6562 94.2883C80.9081 92.216 81.0986 91.5438 80.3178 89.5491C79.4941 88.7744 80.4183 84.8664 80.6207 83.6378C80.5197 83.1256 80.3964 82.8861 80.1908 82.4027C80.1395 81.5534 80.1957 81.5611 80.5859 80.9778Z" fill="#C1C1C4"/>
<path d="M80.586 80.9778L81.7546 79.9126C82.1885 82.715 81.8988 85.1688 81.6082 87.9705L81.2119 88.2973L80.8997 88.2137C80.5119 87.1027 82.0451 83.1971 81.1148 81.5793L80.857 81.5849C80.6305 82.1741 80.651 82.984 80.6208 83.6378C80.5198 83.1256 80.3965 82.8861 80.1908 82.4027C80.1396 81.5534 80.1958 81.5611 80.586 80.9778Z" fill="#282C2B"/>
<path d="M80.1907 82.4023C80.3963 82.8858 80.5196 83.1253 80.6207 83.6375C80.4182 84.8661 79.494 88.7741 80.3177 89.5487L79.9941 89.7062L79.5888 89.6923C79.1546 90.0071 78.7936 91.1984 78.4861 91.8599C78.09 91.0394 78.7534 89.54 78.9524 88.6533C79.4292 86.5831 79.8423 84.4985 80.1907 82.4023Z" fill="#0E1210"/>
<path d="M80.1044 75.064L80.3439 75.223C81.4521 77.1225 81.5212 77.759 81.7544 79.9122L80.5858 80.9774C80.6794 80.7015 80.7132 80.5317 80.7773 80.2519C80.2667 79.8546 79.9803 79.6224 79.5109 79.1613C79.3457 78.4966 79.2923 78.6705 79.4566 78.089C79.7631 78.109 80.0692 78.1358 80.3747 78.1694C80.7026 77.5994 80.5425 77.5483 80.3813 76.7574C80.3465 76.2918 80.1897 75.5474 80.1044 75.064Z" fill="#909192"/>
<path d="M76.9585 80.542C77.8992 81.6193 76.6286 86.027 75.5021 86.4998C75.3698 85.6305 75.6756 85.23 76.1643 84.4843C76.5445 83.6332 76.6802 81.6821 76.9585 80.542Z" fill="#282C2B"/>
<path d="M127.803 62.686C129.275 63.1537 131.754 63.7902 132.611 65.0153C131.682 65.8315 121.442 65.7238 119.273 65.8818C113.935 66.2708 108.554 66.6208 103.245 67.3843C102.492 67.2619 102.307 67.2615 101.717 66.7505C103.599 66.1246 109.006 64.1854 110.643 64.2458C116.701 64.4692 118.526 65.3274 124.679 63.1196C125.585 62.8914 126.336 62.917 127.263 63.0661C127.433 62.8146 127.49 62.8425 127.803 62.686Z" fill="white"/>
<path d="M127.804 62.686C129.275 63.1537 131.754 63.7902 132.611 65.0153C131.646 64.7875 128.596 63.5096 127.263 63.0661C127.433 62.8146 127.49 62.8425 127.804 62.686Z" fill="#15161B"/>
<path d="M70.4167 77.7393C71.1234 75.8177 73.6234 66.1684 74.6665 65.8384L74.8836 66.2377C75.0762 66.8236 75.1121 66.8867 75.5822 67.2815L75.5988 67.6643C75.5159 68.5665 73.4244 76.0165 73.0636 76.8108L73.0581 76.9716C73.0398 77.7179 73.0762 77.8829 73.2326 78.608C72.9929 79.3832 72.2145 79.6952 72.2221 79.7996C72.3192 81.1248 72.7152 81.2027 72.58 82.7484L72.6309 83.642C72.6807 84.9986 71.6801 86.8327 72.2235 87.8408L72.6082 87.9771L72.6391 88.3503C71.61 88.8458 72.1365 88.8369 71.3531 89.6448C69.8122 88.0739 70.3495 83.2843 70.0708 81.0898C69.9113 79.8334 69.7508 77.9932 69.7131 76.7401C69.8687 76.9573 70.3027 77.5313 70.4167 77.7393Z" fill="#F2F1F4"/>
<path d="M75.5987 67.6646C75.5158 68.5667 73.4244 76.0168 73.0635 76.811L73.058 76.9718C73.0397 77.7181 73.0761 77.8831 73.2325 78.6082C72.9928 79.3835 72.2144 79.6954 72.2221 79.7998C72.3192 81.125 72.7151 81.2029 72.58 82.7486C71.9895 82.2988 70.9051 79.6792 71.1829 78.9665L71.8346 79.0515C72.1407 78.9214 72.2376 78.9051 72.2252 78.2238C72.1933 76.4557 74.6988 68.8547 75.5987 67.6646Z" fill="#282C2B"/>
<path d="M70.4167 77.7393C71.1235 75.8177 73.6234 66.1684 74.6666 65.8384L74.8836 66.2377C74.2185 67.8182 70.9866 77.4377 70.948 78.7794L70.6594 78.6764C70.5381 78.3325 70.4335 78.1075 70.4167 77.7393Z" fill="#0E1210"/>
<path d="M63.6152 24.7192C64.0359 25.4673 63.7872 25.252 64.5262 25.5674L65.3903 25.5079L66.296 26.9223C66.4232 28.1594 67.1538 28.2085 67.0604 29.3645C67.4059 29.8057 68.724 31.4271 68.9032 31.8276C69.247 32.5787 69.6608 33.2138 69.5381 33.9885L69.9143 34.1733C69.8842 34.9037 69.7041 35.734 69.1055 36.2135C68.6407 35.1743 67.0636 31.602 66.2176 31.2069C66.0281 32.3277 65.9997 32.3519 64.981 33.0738L64.824 33.1843C64.8778 33.7409 65.4819 33.6906 65.2896 34.3531C64.9353 35.5736 63.4259 36.4568 64.5538 37.7163C65.056 38.2772 64.8669 38.6531 65.7183 39.0793L65.6448 39.6149L65.3582 39.7854L64.1594 39.3828C64.2447 40.0514 64.7411 40.3216 65.0688 40.8958C64.8378 41.596 64.4614 42.5492 63.9138 43.0401L63.6934 42.8107C63.3097 38.523 62.9985 34.341 63.1429 30.029C63.2118 27.9727 62.5813 26.6272 63.6152 24.7192Z" fill="#F2F1F4"/>
<path d="M67.0603 29.3647C67.4058 29.806 68.7239 31.4274 68.9032 31.8279C69.2469 32.5789 69.6607 33.2141 69.538 33.9888C69.3231 33.7624 67.2642 30.5692 66.8352 29.9641L67.0603 29.3647Z" fill="#4C4F50"/>
<path d="M65.3902 25.5078L66.2959 26.9222C66.2232 27.0389 66.041 27.2098 65.937 27.3175C65.4428 26.7321 65.0067 26.1577 64.5261 25.5672L65.3902 25.5078Z" fill="#909192"/>
<path d="M65.7182 39.0795C64.8669 38.6533 65.056 38.2774 64.5537 37.7164C63.4259 36.4569 64.9352 35.5738 65.2896 34.3533C65.4818 33.6908 64.8777 33.7411 64.824 33.1845L64.9809 33.074C65.9997 32.352 66.028 32.3279 66.2175 31.207C67.0635 31.6022 68.6406 35.1745 69.1055 36.2137C69.2132 36.5457 69.3025 36.8202 69.4364 37.146L69.3541 37.5586C68.7224 37.6301 68.438 37.7755 68.1937 38.4313L68.3018 38.7147C68.5388 38.7852 68.8234 38.8834 69.0616 38.9211L68.8313 39.356C69.0131 39.7702 69.8414 41.7966 70.0117 41.9699C69.513 42.3743 69.8924 42.5542 69.5231 43.2361C68.7115 42.6908 67.9698 40.2618 66.6099 40.5995C66.4161 41.4074 66.6491 42.0065 67.1722 42.6243L66.8193 43.0258C66.4574 43.5166 65.4513 44.6099 65.2959 44.9104L64.2587 44.4441C64.9104 43.66 65.5289 41.7976 65.9096 40.7819L65.794 40.2578L65.5555 40.1586C65.2502 40.4784 65.2417 40.462 65.0688 40.896C64.741 40.3218 64.2447 40.0516 64.1594 39.383L65.3581 39.7856L65.6447 39.6151L65.7182 39.0795Z" fill="#DEDDE1"/>
<path d="M65.7182 39.0795C65.5989 37.896 65.8242 36.9257 67.1733 36.5518C67.7474 36.7728 67.8175 37.0406 67.7409 37.6387C66.8288 37.5411 66.706 37.2293 66.1423 37.5522C65.9099 38.7659 67.1853 39.2801 66.0377 40.7139L65.9097 40.7818L65.7941 40.2578L65.5555 40.1585C65.2502 40.4784 65.2418 40.462 65.0688 40.8959C64.7411 40.3217 64.2447 40.0516 64.1594 39.3829L65.3582 39.7856L65.6448 39.615L65.7182 39.0795Z" fill="#282C2B"/>
<path d="M85.3868 81.7617L85.9043 81.5181L86.0528 82.9901C85.8391 84.5804 85.2245 89.4141 85.282 90.9719C85.4142 92.3752 85.6628 98.1034 85.3852 99.3481C84.8189 99.2037 84.9651 99.3194 84.5794 98.9486C83.5448 98.3516 83.0667 98.0107 82.126 97.2686C82.7151 94.298 82.0458 92.2609 83.0484 89.1137C83.9095 87.9972 83.882 86.6685 84.0057 85.2762L84.3569 86.4806L84.5842 86.5503L84.9007 86.1239C85.0973 84.761 85.234 83.1489 85.3868 81.7617Z" fill="#010101"/>
<path d="M83.0484 89.1138C84.0535 89.4303 83.438 90.6244 84.2016 91.5347C84.2265 92.2808 84.2282 93.8331 84.3054 94.5097C84.2794 96.661 84.517 97.3406 84.5794 98.9487C83.5448 98.3517 83.0667 98.0109 82.126 97.2687C82.7151 94.2981 82.0458 92.261 83.0484 89.1138Z" fill="#F2F1F4"/>
<path d="M84.0056 85.2764L84.3568 86.4808L84.5841 86.5505L84.9006 86.1241C84.8012 87.9936 84.0003 90.2736 84.2016 91.5348C83.4379 90.6245 84.0535 89.4304 83.0483 89.1139C83.9095 87.9974 83.8819 86.6688 84.0056 85.2764Z" fill="#DEDDE1"/>
<path d="M85.282 90.9722C85.4142 92.3755 85.6628 98.1037 85.3852 99.3483C84.8189 99.204 84.9651 99.3196 84.5794 98.9488C84.517 97.3408 84.2794 96.6612 84.3054 94.5098C84.6279 95.4401 84.4386 96.1684 85.0443 96.9763L84.9409 96.7598L85.2121 96.6051C85.1908 95.0109 85.1055 92.7151 85.2586 91.1924L85.282 90.9722Z" fill="#15161B"/>
<path d="M77.075 73.246C77.3553 72.6772 77.6228 72.5534 78.1328 72.1846C78.3461 73.7871 78.1072 76.4869 78.3201 77.3263L78.1403 77.6258C77.3177 78.3977 77.9122 79.2987 77.0841 80.227C76.9905 80.3322 76.9978 80.3856 76.9586 80.5417C76.6803 81.6818 76.5446 83.6329 76.1645 84.484L75.283 83.6727C74.9493 85.2773 74.8786 85.2028 74.2403 86.596C75.0246 88.9171 75.867 90.2071 75.6035 92.6894L74.9907 92.4617L73.1039 90.8298L72.917 90.8558C72.2341 90.6262 71.8754 90.1637 71.3533 89.6448C72.1366 88.8369 71.6101 88.8458 72.6393 88.3502L72.8717 88.5285C73.0017 88.4459 73.1559 88.3483 73.3342 88.2352C74.3265 83.949 75.921 77.24 77.075 73.246Z" fill="#0E1210"/>
<path d="M77.0747 73.246C77.355 72.6772 77.6225 72.5534 78.1325 72.1846C78.3458 73.7871 78.1069 76.4869 78.3198 77.3263L78.14 77.6258C77.3174 78.3977 77.9119 79.2987 77.0838 80.227C76.9902 80.3322 76.9975 80.3856 76.9583 80.5417C76.68 81.6818 76.5443 83.6329 76.1642 84.484L75.2827 83.6727C75.7214 81.149 77.2203 75.3653 77.0747 73.246Z" fill="#F2F1F4"/>
<path d="M73.1035 90.8297C73.2623 90.0387 73.293 89.2658 73.8597 88.7758L74.2899 88.7544C75.0744 89.495 75.3939 91.5885 74.9903 92.4616L73.1035 90.8297Z" fill="#F2F1F4"/>
<path d="M72.6393 88.3501L72.8717 88.5283L72.4516 88.8284C72.4498 89.7577 72.7973 89.961 72.917 90.8556C72.2341 90.6261 71.8754 90.1636 71.3533 89.6446C72.1366 88.8367 71.6101 88.8457 72.6393 88.3501Z" fill="white"/>
<path d="M72.8913 30.6936C74.653 29.7417 74.6497 29.3908 75.8457 27.7427C75.3367 28.9681 74.6024 30.2985 74.1145 31.5225C73.5786 32.8672 72.2122 38.1706 71.3794 38.9381C70.9539 38.4927 70.6059 38.0926 69.8909 38.376C69.7816 38.8717 69.8537 38.9371 70.0684 39.4299L70.8425 40.074C70.874 40.7662 70.4379 41.3797 70.0116 41.9699C69.8413 41.7966 69.013 39.7702 68.8312 39.356L69.0615 38.9211C68.8233 38.8834 68.5387 38.7852 68.3017 38.7147L68.1936 38.4313C68.4378 37.7755 68.7223 37.6301 69.354 37.5586L69.4363 37.146C69.3023 36.8202 69.2131 36.5457 69.1054 36.2137C69.704 35.7342 69.884 34.9039 69.9141 34.1735L69.5379 33.9887C69.6606 33.214 69.2468 32.5788 68.9031 31.8278L69.8251 31.6164L70.0368 31.4168C70.702 31.8761 71.7133 32.478 72.1255 33.1178L72.3079 33.2794L72.5283 33.1738C72.5453 32.626 72.5092 32.4913 72.4054 31.9464L72.9717 31.9619L73.0692 31.6521C72.448 30.4229 71.7576 31.2811 71.1107 30.167L71.2547 29.6635C71.7548 29.9796 72.391 30.4072 72.8913 30.6936Z" fill="#909192"/>
<path d="M69.825 31.6166L70.0367 31.417C70.7019 31.8763 71.7131 32.4782 72.1254 33.118L71.554 33.3232C70.8029 32.9233 70.2865 32.3237 69.825 31.6166Z" fill="#4C4F50"/>
<path d="M102.812 59.8686L104.325 58.9346C104.075 59.3891 103.859 59.8619 103.633 60.3284L103.826 60.4426C104.274 60.1481 104.326 60.1043 104.693 59.711L104.766 59.8514C105.089 60.4583 105.178 60.5676 105.645 61.065L105.504 61.5653L105.033 61.4027L104.791 60.8926L104.317 60.8364C104.135 61.7907 105.582 62.0062 103.731 63.0688C101.926 64.1049 99.4432 64.5337 97.4278 65.1813L97.2487 64.9595L97.7924 64.338L97.6838 64.1249C96.726 64.2429 96.9706 65.1083 95.8483 65.2865L95.4919 65.1156C96.0842 64.5576 96.7654 63.7911 97.3342 63.1847C98.8337 62.1864 100.691 60.1295 102.342 59.4751L102.812 59.8686Z" fill="#4C4F50"/>
<path d="M102.342 59.4756L102.812 59.8691C101.746 61.3319 100.887 62.0429 99.4234 63.102C99.3125 62.508 101.88 60.2502 102.342 59.4756Z" fill="#C1C1C4"/>
<path d="M82.344 73.5557C83.1108 77.0373 84.2558 84.5318 82.6946 88.5214C82.6759 88.569 82.5479 88.6902 82.5061 88.7383C81.7417 88.4814 81.9824 88.6874 81.6082 87.9702C81.8987 85.1686 82.1884 82.7148 81.7545 79.9124C81.5213 77.7592 81.4521 77.1226 80.344 75.2232L80.9589 74.8156C81.5587 74.0467 81.2873 73.9938 82.344 73.5557Z" fill="#F2F1F4"/>
<path d="M82.4273 69.3271C83.0782 73.454 84.5992 81.3156 84.0056 85.2761C83.8819 86.6685 83.9095 87.9971 83.0483 89.1136C82.0457 92.2609 82.715 94.298 82.1259 97.2686L81.3701 96.8746C81.9886 94.4325 80.7207 90.0245 82.506 88.7383C82.5478 88.6902 82.6758 88.569 82.6945 88.5214C84.2557 84.5318 83.1107 77.0372 82.3439 73.5556L82.0694 71.7006C82.1078 70.9228 82.0774 70.0006 82.4273 69.3271Z" fill="#0E1210"/>
<path d="M125.756 58.0494L126.234 57.9639C126.713 58.0469 127.349 58.136 127.806 58.2536L127.735 58.6842C128.892 60.2911 129.442 60.5801 130.829 61.8915C129.975 62.0604 130.006 62.0832 129.349 61.8061C128.978 61.8364 128.454 61.8978 128.094 61.8869C126.585 60.4791 123.976 62.2312 123.096 61.1482L123.693 60.5072L123.671 60.1188L123.023 59.6135C122.999 59.4783 122.976 58.6226 122.969 58.4347L123.493 58.2265L124.089 58.6131C124.353 58.3237 124.491 58.2889 124.839 58.1281L125.246 58.3053L125.756 58.0494Z" fill="#010101"/>
<path d="M126.234 57.9639C126.713 58.0469 127.349 58.136 127.806 58.2536L127.735 58.6842C128.892 60.2911 129.442 60.5801 130.829 61.8915C129.975 62.0604 130.006 62.0832 129.349 61.8061C129.092 60.3048 127.26 59.424 126.234 57.9639Z" fill="#909192"/>
<path d="M124.089 58.6135C124.353 58.3241 124.491 58.2892 124.839 58.1284L125.246 58.3057C125.8 59.0504 126.51 59.7739 126.689 60.6211L126.504 60.7031C125.372 60.0203 124.983 59.5555 124.089 58.6135Z" fill="#C1C1C4"/>
<path d="M80.1043 75.0641C80.075 71.4023 80.8266 67.7765 82.3086 64.4314C83.6041 61.5584 85.2065 60.4174 88.0511 59.3276C84.5383 61.6717 81.3555 64.5869 82.4272 69.3271C82.0774 70.0006 82.1077 70.9228 82.0693 71.7006L82.3439 73.5556C81.2872 73.9938 81.5586 74.0466 80.9588 74.8155L80.3439 75.2231L80.1043 75.0641Z" fill="#2C2A2D"/>
<path d="M80.959 74.8152C80.9074 74.3933 80.883 73.9686 80.8857 73.5436C80.8918 72.645 80.9456 69.7847 81.5245 69.2256C81.9819 69.8794 81.9639 70.8388 82.0695 71.7002L82.3441 73.5553C81.2873 73.9934 81.5588 74.0463 80.959 74.8152Z" fill="#DEDDE1"/>
<path d="M93.2882 62.6867L93.4229 62.7418C93.596 62.8139 93.7448 62.8832 93.9134 62.9632C95.2662 61.9794 97.5622 61.496 99.3631 60.3662C98.7515 61.0923 97.5102 62.1646 97.1984 62.6717L97.3343 63.1851C96.7655 63.7915 96.0844 64.5581 95.4921 65.116C95.106 65.1622 94.6601 65.1736 94.3305 65.3549C94.0363 66.0382 93.9805 66.1047 93.3731 66.531C93.4034 66.8667 93.3949 66.7805 93.5121 67.1008C92.6667 66.8089 92.2624 67.0658 91.3096 66.6062L90.8879 66.6496L90.3057 66.2781C91.0563 65.568 93.2005 63.6672 93.2882 62.6867Z" fill="#7D7C7E"/>
<path d="M91.3096 66.6059C92.4926 65.4096 92.6309 65.3907 94.3305 65.3545C94.0362 66.0378 93.9805 66.1044 93.373 66.5306C93.4034 66.8663 93.3949 66.7802 93.5121 67.1004C92.6667 66.8085 92.2623 67.0654 91.3096 66.6059Z" fill="white"/>
<path d="M124.475 62.5938L124.679 63.1198C118.526 65.3276 116.701 64.4694 110.643 64.246C109.006 64.1856 103.599 66.1248 101.717 66.7507C102.307 67.2617 102.492 67.2621 103.245 67.3845C102.078 67.5089 100.245 67.7599 99.1233 67.7349C98.4289 67.8482 97.7593 67.7555 97.0537 67.7022C98.3423 67.5054 99.2168 67.0053 100.41 66.6378C105.201 65.1625 109.447 62.9703 114.611 63.793C118.164 64.3591 121.076 63.7879 124.475 62.5938Z" fill="#2C2A2D"/>
<path d="M99.1233 67.7352C99.9801 66.9637 100.609 66.9298 101.717 66.751C102.307 67.262 102.492 67.2624 103.245 67.3848C102.078 67.5092 100.245 67.7601 99.1233 67.7352Z" fill="#DEDDE1"/>
<path d="M76.6687 69.6772C76.2875 72.5446 75.5838 74.6069 74.6373 77.3202C74.6813 77.1942 74.6992 79.4214 74.3681 80.4866C73.6674 82.7406 72.9751 85.6399 72.6081 87.9773L72.2235 87.841C71.68 86.8328 72.6806 84.9988 72.6308 83.6422L72.58 82.7485C72.7151 81.2028 72.3192 81.125 72.2221 79.7998C72.2144 79.6954 72.9928 79.3834 73.2325 78.6082C73.0761 77.8831 73.0397 77.7181 73.058 76.9718L73.0635 76.811C73.6722 77.375 73.385 77.2459 74.1396 77.3693C74.1591 75.7442 76.0431 71.7343 76.6687 69.6772Z" fill="#0E1210"/>
<path d="M73.0634 76.8105C73.6721 77.3746 73.3849 77.2455 74.1395 77.3689C74.1548 77.3309 72.6825 83.3479 72.6307 83.6418L72.5799 82.7481C72.715 81.2024 72.3191 81.1246 72.222 79.7993C72.2143 79.695 72.9927 79.383 73.2324 78.6078C73.076 77.8827 73.0396 77.7177 73.0579 76.9714L73.0634 76.8105Z" fill="#DEDDE1"/>
<path d="M110.142 59.0379C110.344 59.4859 110.463 59.9163 110.881 60.1427C111.326 59.4113 110.859 58.3158 111.367 57.2383L111.604 57.3294C111.838 58.4368 112.2 60.7724 112.985 61.4953L113.242 61.4588C113.457 59.5089 111.823 57.2547 114.955 57.33C115.119 57.3339 115.421 57.553 115.572 57.6421C116.58 59.1544 115.927 59.7563 115.781 61.3071C114.723 61.5921 113.617 62.0271 112.612 61.5963C112.277 61.1344 112.279 61.0594 112.124 60.4961L111.717 60.2465C111.236 60.5458 111.072 61.2931 110.856 61.8811C110.54 61.4145 110.612 60.9451 110.37 60.378L110.012 60.2168C109.815 59.5919 109.873 59.7967 110.142 59.0379Z" fill="#282C2B"/>
<path d="M91.6315 63.4491C92.185 63.1508 92.7131 62.9341 93.2882 62.6865C93.2006 63.6669 91.0564 65.5678 90.3057 66.2778C89.0987 67.2684 88.6726 67.8101 88.789 69.4851C88.5627 68.7196 88.1932 68.6471 87.4934 68.426C87.3516 68.0836 87.0506 66.9212 86.9336 66.506C87.7863 65.6617 89.4286 63.8961 90.4038 63.4354C90.7686 63.2678 91.1747 63.3952 91.6315 63.4491Z" fill="#282C2B"/>
<path d="M90.4037 63.4356C90.7685 63.268 91.1747 63.3954 91.6314 63.4492C90.5239 63.9569 90.3655 65.9051 89.2213 65.9328C88.9731 65.0567 89.9688 64.3544 90.5824 63.7206C90.4675 63.4639 90.5469 63.5427 90.4037 63.4356Z" fill="#909192"/>
<path d="M87.4933 68.4263C88.1932 68.6473 88.5627 68.7198 88.789 69.4853C88.6314 70.8173 88.7801 70.7381 89.1156 72.0101L89.191 73.4377C88.945 75.8385 88.1662 75.1187 88.32 78.0592L88.0248 78.1796L87.995 77.9857C87.8808 77.2043 87.7439 77.1263 87.1699 76.5854C87.1323 74.4066 87.0448 70.4556 87.4933 68.4263Z" fill="#56575A"/>
<path d="M119.294 58.4154C119.584 57.8725 119.614 57.862 120.113 57.4835L120.443 57.452C120.785 57.889 120.796 58.3392 120.893 58.9013C121.796 58.6913 121.581 58.0583 121.556 57.2271C122.087 57.311 122.672 58.0056 122.969 58.4348C122.976 58.6228 122.999 59.4785 123.023 59.6137C122.968 60.4436 122.343 61.2604 121.641 61.6655C119.75 61.8414 119.422 60.1741 119.151 58.703L119.294 58.4154Z" fill="#0E1210"/>
<path d="M67.1722 42.6245C67.8195 43.2795 68.2304 43.7105 68.9656 44.2595L68.9554 44.58L69.1439 45.117C68.7771 45.7535 68.6152 46.0215 68.3639 46.7361C68.0168 45.463 67.1027 45.2491 65.9051 45.1986C65.6534 45.2176 65.5648 45.0851 65.2959 44.9106C65.4513 44.6101 66.4574 43.5168 66.8193 43.026L67.1722 42.6245Z" fill="white"/>
<path d="M67.1723 42.6245C67.8195 43.2795 68.2304 43.7105 68.9657 44.2595L68.9555 44.58L68.6484 44.7999C67.6797 44.4225 67.3007 43.8888 66.8193 43.026L67.1723 42.6245Z" fill="#282C2B"/>
<path d="M105.143 59.4983C106.397 59.4213 106.24 58.7126 107.153 58.6851C107.356 59.0958 107.524 59.4902 107.815 59.8449L107.749 59.9701C107.475 60.4815 107.36 60.6447 107 61.0937C107.066 61.7844 107.031 61.5572 107.482 62.1888C106.518 62.2191 106.573 62.6141 105.778 62.3471L105.504 61.5659L105.645 61.0656C105.178 60.5683 105.09 60.4589 104.767 59.8521L104.694 59.7116L105.143 59.4983Z" fill="#DEDDE1"/>
<path d="M105.143 59.4983C106.397 59.4213 106.24 58.7126 107.153 58.6851C106.885 59.3151 106.787 59.5997 106.357 60.1557L105.905 60.2391C105.642 60.002 105.364 59.773 105.143 59.4983Z" fill="#282C2B"/>
<path d="M119.294 58.4155L119.151 58.7031C118.528 58.9891 118.428 58.9897 118.065 59.5362C118.366 60.4809 119.066 60.0587 119.443 61.0912L119.183 61.4568L118.854 61.495C118.55 61.1171 118.316 60.839 117.985 60.4855L117.74 60.6158C117.571 61.0395 117.5 61.3398 117.164 61.6442C116.693 61.3629 116.882 61.5572 116.651 60.9811C116.703 60.6158 116.804 60.3427 117.023 60.0614C118.118 58.6536 117.743 58.7136 119.294 58.4155Z" fill="#4C4F50"/>
<path d="M107.815 59.8443C108.306 58.9397 108.69 57.8626 109.792 58.179C109.295 58.7589 108.682 59.3319 108.797 60.1673C108.08 60.7766 107.748 61.0378 107.806 62.1248C107.624 62.1894 107.642 62.2171 107.482 62.1882C107.031 61.5566 107.066 61.7837 107 61.0931C107.36 60.6441 107.475 60.4809 107.749 59.9695L107.815 59.8443Z" fill="#0E1210"/>
<path d="M78.1326 72.1846C78.3985 71.2807 78.5988 70.3708 78.8105 69.4531C78.8308 71.4878 79.0954 75.5555 78.3199 77.3264C78.107 76.487 78.3459 73.7872 78.1326 72.1846Z" fill="#525057"/>
<path d="M109.792 58.1792C110.052 58.6134 110.162 58.6256 110.143 59.0378C109.873 59.7966 109.815 59.5918 110.012 60.2167L110.37 60.3779C109.827 60.7111 109.695 60.9866 109.381 61.5354L109.162 61.5921L108.797 60.1676C108.682 59.3321 109.295 58.7591 109.792 58.1792Z" fill="#F2F1F4"/>
<path d="M85.3867 81.7617C85.3652 80.7442 85.1803 77.4203 85.3367 76.7104L85.5604 76.9263C85.9179 78.3308 85.9065 80.0593 85.9041 81.5181L85.3867 81.7617Z" fill="#525057"/>
<path d="M123.492 58.2264L123.579 57.9789C123.229 57.6754 123.257 57.6695 123.151 57.2367L123.405 57.0967L124.138 57.5811L125.07 57.326L125.755 58.0494L125.246 58.3053L124.839 58.128C124.491 58.2888 124.353 58.3237 124.089 58.6131L123.492 58.2264Z" fill="#15161B"/>
<path d="M65.9053 45.1987C67.1028 45.2492 68.017 45.4631 68.364 46.7363L68.2474 46.9158C67.2342 46.6583 67.43 45.7593 65.9053 45.1987Z" fill="#2C2A2D"/>
<path d="M124.475 62.5936C125.54 62.5425 126.723 62.5787 127.798 62.5882L127.803 62.6861C127.49 62.8426 127.433 62.8146 127.263 63.0662C126.336 62.917 125.585 62.8915 124.679 63.1197L124.475 62.5936Z" fill="#67636A"/>
<path d="M69.5171 73.9082C70.4397 72.7377 69.7204 71.8785 71.1925 70.9268C70.9361 72.0379 70.3658 73.1536 69.8856 74.1978L69.5171 73.9082Z" fill="#282C2B"/>
<path d="M79.8694 37.2233C82.1426 32.1868 80.6856 29.8464 86.4435 25.3125C91.998 20.9388 96.6843 21.6449 103.234 22.3009C104.167 22.3942 104.564 22.4134 105.16 23.1778C106.088 22.6565 106.748 22.5707 107.647 23.2594C107.914 24.0382 108.327 25.3907 108.629 26.105C109.218 27.925 108.837 27.2411 108.186 28.5828L108.311 29.2364L108.128 29.4434C105.754 29.4493 100.421 27.4976 96.9599 27.4069C87.6456 27.1626 85.7036 32.0584 79.8694 37.2233Z" fill="#010101"/>
<path d="M105.16 23.1781C106.088 22.6568 106.748 22.571 107.647 23.2597C107.914 24.0385 108.327 25.3911 108.629 26.1053C109.218 27.9253 108.837 27.2414 108.186 28.5831L107.997 27.8887L107.64 27.7253C107.216 27.2947 106.454 26.2839 106.045 25.7715C105.844 24.5352 105.731 24.3061 105.16 23.1781Z" fill="#737374"/>
<path d="M105.16 23.1781C106.088 22.6568 106.748 22.571 107.647 23.2597C107.261 24.6277 107.137 24.8252 106.045 25.7715C105.844 24.5352 105.731 24.3061 105.16 23.1781Z" fill="#7D7C7E"/>
<path d="M107.64 27.725C108.054 27.4035 108.147 26.7628 108.268 26.2521L108.629 26.105C109.218 27.925 108.837 27.2411 108.186 28.5828L107.997 27.8884L107.64 27.725Z" fill="#15161B"/>
<path d="M88.9537 24.9028L89.0539 25.2522C88.373 26.1946 84.1307 30.4514 83.0741 31.5683L82.9382 31.5018C82.9672 30.4774 87.9753 25.8474 88.9537 24.9028Z" fill="#7D7C7E"/>
<path d="M94.0385 35.0798C96.0364 34.7191 102.277 35.2707 103.328 36.9745C102.359 37.4728 99.5651 36.5088 98.3795 36.1951C99.1392 39.1916 97.2411 41.3941 94.293 39.9866C91.5234 39.0476 93.2422 37.4257 92.7346 36.4056C91.0621 36.1545 86.1599 38.416 83.8816 38.6604L83.6501 38.683C87.147 36.491 90.0647 35.7029 94.0385 35.0798Z" fill="#010101"/>
<path d="M53.5413 52.4618C52.8113 52.4811 51.7658 52.6468 51.324 52.0126C53.6963 50.3889 63.4073 55.9117 63.358 58.1021C61.7701 58.5195 58.9928 59.3416 58.4742 61.1684C57.6171 64.1869 62.2617 65.9964 63.1947 67.9957L62.981 68.1605C60.5087 67.4427 56.5133 63.3826 57.9683 60.5215C58.7899 58.9059 60.5043 58.3109 62.0825 57.7442C59.2333 56.0349 56.9051 54.3288 53.9043 52.6147C53.3951 56.1474 52.2588 57.9637 52.1392 62.4905L51.7581 62.7658C50.3844 60.0693 51.9367 54.9016 53.5413 52.4618Z" fill="#010101"/>
<path d="M119.525 36.6649C124.819 36.1272 130.971 37.0638 134.735 41.1872C133.574 40.7136 132.159 40.0065 130.995 39.46L128.035 38.1272C128.268 41.8162 125.858 42.9343 123.273 40.1907C122.556 39.4305 122.804 38.3689 122.98 37.391C121.874 37.4336 119.832 37.8721 119.525 36.6649Z" fill="#010101"/>
<path d="M121.842 23.6606L122.036 23.8544C122.486 25.9677 117.258 31.9839 117.362 35.7662C117.098 44.017 124.256 42.8139 128.754 46.8747C131.086 48.9793 129.694 51.7138 127.748 53.5069L127.292 53.3563C127.375 52.7827 127.975 52.4074 128.489 51.913C129.047 49.8635 129.083 49.4342 128.435 47.4451C126.329 45.2137 123.298 44.8231 120.769 43.5814C119.075 42.74 117.796 41.2391 117.228 39.4264C115.417 33.6934 119.28 28.6024 121.842 23.6606Z" fill="#010101"/>
<path d="M82.1855 21.7807C88.4261 15.1564 94.9427 17.7467 102.811 18.5831C105.703 18.8905 109.109 18.8955 112.043 18.9822L112.001 19.37C110.418 19.3985 108.821 19.4027 107.242 19.4358C99.6018 19.5964 88.3432 14.6901 82.4845 21.9278L82.1855 21.7807Z" fill="#2C2A2D"/>
<path d="M126.654 51.6689L126.872 51.8674L126.793 52.1275C122.835 54.6936 117.488 55.8026 112.957 54.1955C112.748 53.8176 112.743 53.8485 112.775 53.42C113.554 53.2137 114.901 53.7544 115.795 53.8522C119.742 54.2842 123.265 53.6858 126.654 51.6689Z" fill="#010101"/>
<path d="M104.14 51.7037C106.874 51.6656 109.666 52.6793 111.98 54.0991C111.074 54.0997 110.148 53.879 109.255 53.7018C108.163 53.5122 102.698 52.981 102.37 52.4615C102.86 51.9279 103.416 51.8837 104.14 51.7037Z" fill="#010101"/>
<path d="M109.166 44.7495L109.347 44.8163C106.775 46.6709 100.845 46.2992 99.9985 50.2213C99.5953 52.0888 100.73 52.8113 101.728 54.1469L101.797 54.2402C100.071 53.7011 98.3828 51.2003 99.2904 49.5031C101.001 46.3033 106.067 45.8888 109.166 44.7495Z" fill="#2C2A2D"/>
<path d="M120.723 17.9452C119.587 17.6424 117.976 17.7745 116.8 17.6072C112.169 16.9474 106.615 17.6468 102.128 16.9642C102.956 16.76 104.984 16.824 105.922 16.7846C111.214 16.5626 115.773 16.9957 121.031 17.5259L120.723 17.9452Z" fill="#525057"/>
<path d="M69.1291 61.1298C69.5051 63.1186 70.6099 62.4494 69.8419 65.4057L69.7086 65.3991C69.6022 62.9011 68.7481 62.5646 68.1726 60.4037C68.0347 59.8864 69.3499 56.5759 70.5315 56.5015C70.9321 57.366 69.7992 56.9364 69.6699 58.5665C70.0783 59.1175 70.2435 59.2946 70.5045 59.9456L70.016 60.2122L70.0769 60.3887C69.7686 60.584 69.2864 60.8333 69.1291 61.1298Z" fill="#4C4F50"/>
<path d="M69.6699 58.5664C70.0782 59.1174 70.2435 59.2945 70.5044 59.9455L70.016 60.2121L70.0768 60.3886C69.7686 60.5839 69.2864 60.8333 69.129 61.1298C68.7941 59.755 69.3484 59.8208 69.6699 58.5664Z" fill="#DEDDE1"/>
<path d="M137.603 58.4141C138.71 58.7399 139.973 60.2581 140.682 61.119C141.24 63.1999 141.325 66.5918 141.102 68.7267C140.736 68.2611 140.464 63.8074 140.071 62.6152C139.479 60.8227 138.213 59.8534 137.603 58.4141Z" fill="#0E1210"/>
<path d="M52.1392 62.4902C54.8725 66.2774 55.869 67.2002 60.0144 69.1815L59.966 69.3978C57.1328 69.5546 53.3892 64.7805 51.7581 62.7655L52.1392 62.4902Z" fill="#282C2B"/>
<path d="M121.031 17.5259C124.632 18.1446 128.018 18.5103 131.204 20.3434C128.313 19.6725 125.543 18.683 122.592 18.296C121.95 18.212 121.348 18.124 120.724 17.9452L121.031 17.5259Z" fill="#2C2A2D"/>
<path d="M94.7124 47.4472C95.2147 47.1265 98.48 45.9849 99.7332 45.3667C101.36 44.5639 102.672 43.4556 103.856 42.8438C103.366 44.3748 96.3916 47.7463 94.7083 47.7486L94.7124 47.4472Z" fill="#525057"/>
<path d="M108.311 29.2369C110.147 28.7068 109.391 25.6396 110.011 24.5184L110.213 24.4976C110.451 25.3936 110.314 26.2841 110.32 27.1885C110.332 29.0933 109.898 29.5377 108.128 29.4438L108.311 29.2369Z" fill="#2C2A2D"/>
<path d="M89.3366 61.7251L89.457 62.0384C89.0788 63.0585 87.6206 64.8171 86.8772 65.7759L86.6935 65.5907C86.3549 64.2411 88.4292 62.5788 89.3366 61.7251Z" fill="#2C2A2D"/>
<path d="M126.211 34.6404C127.722 34.6989 131.698 36.3501 132.331 37.8281C132.69 37.8988 126.123 34.5814 126.211 34.6404Z" fill="#4C4F50"/>
<path d="M93.0102 32.5875C94.6191 32.4986 98.988 32.1789 100.299 33.0589L100.43 33.3306C99.8527 33.5083 99.4994 33.1817 98.8988 32.9838C97.5545 32.5407 94.389 32.8382 92.9346 32.95L93.0102 32.5875Z" fill="#A49EA9"/>
<path d="M92.9347 32.9499C92.085 33.2131 87.9263 34.756 87.5229 34.8022C88.952 33.736 91.226 32.7938 93.0103 32.5874L92.9347 32.9499Z" fill="#67636A"/>
<path d="M66.3004 46.7583C66.9756 46.9439 67.2268 47.6474 67.5238 48.2412C67.4651 49.369 66.9843 50.1712 66.5269 51.2213L66.4127 51.0409C66.2409 49.941 66.5996 50.0785 66.8742 49.2504C67.3507 47.813 66.4645 48.2184 66.0532 47.3808L66.3004 46.7583Z" fill="#7D7C7E"/>
<path d="M100.342 42.4556L100.466 42.7846C98.7639 43.6875 96.6977 44.6432 94.7654 44.5281C95.1808 44.1952 98.8897 43.1842 100.342 42.4556Z" fill="#525057"/>
<path d="M70.2493 65.6123C71.9515 65.9344 72.2706 66.9332 72.3929 68.3941L72.1985 68.4294C71.5747 67.2568 70.6123 66.9273 70.2493 65.6123Z" fill="#282C2B"/>
<path d="M117.295 43.6514C117.984 43.3846 119.486 43.9622 120.226 44.2001L120.224 44.5726C119.901 44.6447 117.737 44.1357 117.251 44.0408L117.295 43.6514Z" fill="#2C2A2D"/>
<path d="M100.342 42.4552C101.068 41.9531 102.695 40.6978 103.47 40.5742C103.175 41.3407 101.241 42.4154 100.466 42.7842L100.342 42.4552Z" fill="#A49EA9"/>
<path d="M72.4093 25.1064C71.9974 26.2025 71.065 28.4438 70.7583 29.4764L70.4493 29.5231L70.2415 29.0406C70.9635 27.8011 71.6839 26.2364 72.4093 25.1064Z" fill="#909192"/>
<path d="M70.0767 60.3889L70.0159 60.2124L70.5044 59.9458C70.9698 60.4552 71.1203 61.1633 70.84 61.8031C70.2792 61.5937 70.2168 60.9593 70.0767 60.3889Z" fill="#282C2B"/>
<path d="M94.7082 47.7487C93.7058 47.8396 92.809 48.5301 92.0388 48.3374C92.976 47.5944 93.584 47.5209 94.7123 47.4473L94.7082 47.7487Z" fill="#7D7C7E"/>
<path d="M82.1857 21.7808L82.4847 21.9279C82.078 22.4566 81.5371 23.3086 80.9365 23.4215C81.101 22.7564 81.6827 22.2957 82.1857 21.7808Z" fill="#A49EA9"/>
<path d="M114.039 18.9595C114.518 18.9684 114.981 18.9248 115.395 19.15C114.404 19.4025 114.087 19.3907 113.059 19.3922L114.039 18.9595Z" fill="#C1C1C4"/>
<path d="M112.043 18.9821L114.039 18.9595L113.059 19.3922L112.001 19.3699L112.043 18.9821Z" fill="#737374"/>
<path d="M68.3305 84.6615C68.25 82.9724 68.4302 81.1472 68.6963 79.4795C68.8645 80.9374 68.9923 82.3996 69.0796 83.8646C69.0946 85.9344 69.6043 88.2359 69.9961 90.2895C70.8968 91.1342 73.0657 94.1282 73.7708 95.2472L74.2347 95.208L74.3856 94.8483C73.8439 93.6707 72.6382 92.513 72.2855 91.7047C72.5516 91.8162 79.6992 98.5288 79.9529 98.9522C79.5473 99.4444 79.4983 99.2482 79.2842 99.6518C82.0081 102.024 82.5947 101.357 84.7954 102.983C92.1288 108.402 100.009 113.652 108.25 117.556C109.903 118.339 112.635 119.024 114.465 119.733C115.682 120.204 117.911 121.022 119.136 121.377L121.506 122.049C122.965 122.409 127.15 123.914 128.231 123.969C130.264 124.519 136.599 125.598 137.456 126.998C136.977 127.73 135.872 127.732 135.038 127.848C130.155 128.193 122.734 126.021 118.24 124.042L117.741 124.451C125.091 127.395 129.518 129.201 137.481 128.306C137.328 129.74 137.065 131.601 137.08 133.046C137.186 140.975 136.369 149.245 137.297 157.117C137.833 161.663 136.135 167.611 132.4 170.409C122.993 177.455 107.923 172.844 98.1161 169.617C97.9662 169.989 97.9508 169.82 98.0391 170.138L97.7566 170.44L97.9928 170.629C97.8488 170.923 97.6997 171.214 97.5457 171.503L97.1759 171.492L96.8941 171.175L97.2465 170.597L97.0767 170.296L96.7586 170.212C96.5645 170.452 96.3745 170.695 96.1887 170.941L95.8852 170.872C95.3743 170.277 95.518 170.353 95.3685 169.475C94.9177 168.972 95.1422 169.114 94.5255 168.906C94.157 169.185 94.0528 169.346 93.7705 169.699L93.4583 169.601C93.1621 168.956 93.0161 168.467 92.3878 168.071C92.4613 167.806 92.7613 167.634 93.0181 167.412C82.4523 162.177 73.4509 156.768 65.0285 148.219C62.9371 146.096 60.8167 143.977 59.353 141.363C60.4025 140.395 61.438 139.392 62.5863 138.549C64.3123 133.382 64.9032 128.305 65.5605 122.949C66.5379 115.253 67.246 107.524 67.6839 99.7772C67.9645 94.6204 67.8834 89.8894 68.3305 84.6615Z" fill="white"/>
<path d="M78.9206 100.261L78.8562 99.8452L79.284 99.6519C82.0079 102.024 82.5945 101.357 84.7952 102.983C92.1286 108.402 100.009 113.652 108.249 117.556C109.902 118.339 112.635 119.024 114.465 119.733C115.681 120.204 117.911 121.022 119.136 121.377L121.506 122.049C122.965 122.409 127.15 123.914 128.231 123.969C130.264 124.52 136.599 125.598 137.456 126.998C136.977 127.73 135.871 127.732 135.038 127.848C130.155 128.193 122.734 126.021 118.24 124.042L117.741 124.451C113.153 123.407 96.6548 114.847 93.2368 111.749C93.2084 111.249 92.7174 110.757 92.3224 110.514C87.3836 107.467 83.2252 104.17 78.9206 100.261Z" fill="white"/>
<path d="M78.9206 100.261L78.8562 99.8452L79.284 99.6519C82.0079 102.024 82.5945 101.357 84.7952 102.983C92.1286 108.402 100.009 113.652 108.249 117.556C109.902 118.339 112.635 119.024 114.465 119.733C115.681 120.204 117.911 121.022 119.136 121.377L118.467 121.948C116.859 121.077 116.949 121.538 115.422 120.993C113.61 120.346 111.46 119.68 109.697 118.955C106.433 117.613 103.192 115.703 100.091 114.046L99.5865 114.276C98.5477 113.617 97.3337 113.083 96.2155 112.555L95.9589 112.842C96.9498 115.147 114.89 122.763 117.607 123.817C117.816 123.898 118.027 123.973 118.239 124.042L117.741 124.451C113.153 123.407 96.6548 114.847 93.2368 111.749C93.2084 111.249 92.7174 110.757 92.3224 110.514C87.3836 107.467 83.2252 104.17 78.9206 100.261Z" fill="#909192"/>
<path d="M96.2156 112.555C94.6501 111.483 93.7535 110.89 92.5315 109.368C93.1332 109.499 98.9844 113.392 100.091 114.046L99.5866 114.276C98.5477 113.617 97.3338 113.084 96.2156 112.555Z" fill="#15161B"/>
<path d="M100.091 114.046C103.192 115.704 106.433 117.613 109.697 118.955C111.46 119.68 113.609 120.346 115.422 120.993C116.949 121.539 116.859 121.077 118.467 121.949L119.136 121.378L121.506 122.049C122.965 122.409 127.15 123.914 128.231 123.969L127.979 124.176C127.596 124.983 127.227 125.242 127.915 126.012L127.931 126.151C126.706 125.933 125.809 125.602 124.642 125.206C124.232 125.167 122.025 124.484 121.544 124.322C113.966 121.773 106.478 118.324 99.5864 114.276L100.091 114.046Z" fill="#55565C"/>
<path d="M124.642 125.206L124.878 124.936C126.053 124.669 126.773 124.143 127.979 124.176C127.596 124.983 127.227 125.241 127.915 126.012L127.931 126.151C126.706 125.932 125.809 125.602 124.642 125.206Z" fill="#282C2B"/>
<path d="M119.136 121.377L121.506 122.049C121.229 122.445 121.247 122.479 120.789 122.674C120.034 122.755 119.186 122.271 118.467 121.948L119.136 121.377Z" fill="#737374"/>
<path d="M128.231 123.969C130.264 124.52 136.599 125.598 137.456 126.998C136.977 127.73 135.872 127.732 135.038 127.848C134.216 127.408 129.92 127.034 127.931 126.151L127.915 126.012C127.227 125.242 127.596 124.983 127.979 124.176L128.231 123.969Z" fill="#737374"/>
<path d="M73.7707 95.2472L74.2346 95.208L74.3855 94.8483C73.8438 93.6706 72.6382 92.5129 72.2854 91.7046C72.5515 91.8161 79.6991 98.5287 79.9528 98.9522C79.5473 99.4444 79.4982 99.2481 79.2841 99.6518L78.8563 99.8451L78.9207 100.26L78.3613 100.631C76.0782 98.7937 75.2622 97.6737 73.7707 95.2472Z" fill="#4C4F50"/>
<path d="M78.3611 100.631L78.9205 100.26C83.2251 104.17 87.3835 107.467 92.3223 110.513C92.7172 110.757 93.2083 111.249 93.2366 111.748C88.2726 109.266 82.4143 104.409 78.3611 100.631Z" fill="#010101"/>
<path d="M93.018 167.413C93.5325 167.879 97.0837 169.042 98.116 169.617C97.9661 169.989 97.9507 169.821 98.0389 170.138L97.7565 170.44L97.9927 170.629C97.8487 170.923 97.6996 171.214 97.5456 171.503L97.1758 171.493L96.894 171.175L97.2463 170.597L97.0766 170.297L96.7585 170.213C96.5644 170.452 96.3744 170.695 96.1886 170.941L95.8851 170.872C95.3741 170.277 95.5179 170.353 95.3684 169.476C94.9176 168.972 95.1421 169.115 94.5254 168.906C94.1569 169.185 94.0527 169.346 93.7704 169.699L93.4582 169.601C93.162 168.956 93.016 168.467 92.3877 168.072C92.4612 167.806 92.7612 167.634 93.018 167.413Z" fill="#2C2A2D"/>
<path d="M68.3304 84.6615C68.2498 82.9724 68.4301 81.1472 68.6962 79.4795C68.8644 80.9374 68.9922 82.3996 69.0795 83.8646L68.7949 83.0009L68.6479 83.1078C68.5703 83.6773 68.5419 84.1253 68.3304 84.6615Z" fill="#C1C1C4"/>
<path d="M90.3507 118.793C95.8482 126.899 100.876 135.534 106.116 143.818C108.814 148.083 110.764 153.224 113.315 157.501C114.479 159.136 115.825 162.649 116.71 164.591L116.679 164.758C115.82 164.45 115.592 163.666 114.461 163.093C114.01 162.273 112.766 160.667 112.36 159.908C110.673 156.765 96.834 134.809 97.4151 132.862L98.2989 132.958L98.4813 132.764C97.9969 131.581 96.5452 129.445 95.7964 128.227L90.1465 119.065L90.3507 118.793Z" fill="white"/>
<path d="M90.3507 118.793C95.8482 126.899 100.876 135.534 106.116 143.818C108.814 148.083 110.764 153.224 113.315 157.501L112.964 157.649C108.924 149.824 104.819 141.874 99.4066 134.925C98.7974 134.143 98.2191 133.3 97.4753 132.643C98.1866 135.146 99.7293 137.371 101.004 139.624C105.402 147.394 110.179 155.001 114.605 162.747L114.461 163.093C114.01 162.273 112.766 160.667 112.36 159.908C110.673 156.765 96.834 134.809 97.4151 132.862L98.2989 132.958L98.4813 132.764C97.9969 131.581 96.5452 129.445 95.7964 128.227L90.1465 119.065L90.3507 118.793Z" fill="#282C2B"/>
<path d="M113.316 157.5C114.479 159.136 115.825 162.648 116.71 164.591L116.679 164.758C115.82 164.45 115.592 163.666 114.462 163.093L114.605 162.746L115.024 162.814L115.36 162.512C115.083 161.739 113.42 158.587 112.965 157.649L113.316 157.5Z" fill="#C1C1C4"/>
<path d="M129.813 134.186C130.375 136.445 128.008 141.243 127.275 143.491C126.975 144.412 127.744 144.797 127.371 145.865C127.097 145.345 126.727 144.393 126.484 143.82C126.672 142.876 129.34 135.383 129.813 134.186Z" fill="#0E1210"/>
<path d="M90.1465 119.065C89.7462 118.571 89.356 118.24 89.3452 117.64C89.8965 117.873 89.9645 118.206 90.3507 118.793L90.1465 119.065Z" fill="#909192"/>
<path d="M134.489 66.5991C135.528 65.6076 136.465 64.7763 137.324 63.6152C136.894 67.1517 137.35 71.3608 137.494 74.9519C137.647 78.79 137.759 82.6049 138.172 86.4246C138.264 87.2779 138.729 89.8832 138.462 90.5113L137.865 91.0954L137.902 90.8587L137.69 90.6208L136.986 91.0635C136.066 90.377 134.734 87.9073 134.28 87.901C134.48 88.632 134.607 89.0719 134.704 89.8281L134.444 89.7955C133.415 88.7212 133.041 88.0743 132.261 86.8358C132.57 88.0569 133.152 90.1474 133.221 91.3273C133.105 91.2707 131.646 89.2185 131.166 88.741L130.682 89.2952L130.587 89.287L130.13 89.8196C129.213 89.0696 128.578 86.8906 128.146 85.713C127.892 86.0726 127.818 86.1424 127.503 86.4577L126.915 86.3204L126.509 86.5159C126.656 87.7564 126.817 88.1357 126.76 89.4423L126.585 89.5806C125.778 88.4264 125.145 84.8506 124.859 83.4295C124.708 84.5798 124.634 86.9113 124.796 88.0798C124.829 88.3141 125.26 89.2086 125.393 89.6412C124.833 89.3078 124.712 89.2165 124.099 89.0307C123.822 89.2805 123.798 89.3746 123.635 89.701L123.583 89.8074L123.247 89.8689C122.763 88.3769 124.735 85.9893 122.867 84.3332L122.467 85.6125C122.442 86.9915 122.282 88.9586 121.298 89.9817L121.1 90.0102C120.664 89.4211 120.782 88.5023 120.954 87.8231C120.893 87.4333 120.791 87.1006 120.686 86.7225L120.269 87.7631L120.247 87.882C120.088 88.739 120.175 89.531 119.784 90.2068L119.444 90.2631C119.003 89.822 119.115 89.5124 119.11 88.7531C119.11 88.5007 119.112 88.2484 119.116 87.996L118.832 86.7122L118.565 86.571C118.495 87.5799 118.487 88.9064 118.095 89.8028L117.881 89.7557C117.593 89.0258 117.591 88.3674 117.532 87.5857C117.261 87.2048 117.434 87.3476 116.977 87.1689C116.889 87.9974 116.799 89.3211 116.533 90.0603C115.637 89.5374 115.943 87.9586 115.476 87.0622L115.2 87.0909L114.859 87.4145L114.24 87.2931L114.058 87.4955C113.801 88.4027 113.591 89.5818 112.585 89.8987C112.254 89.0771 112.878 88.6116 112.527 87.7885C111.334 88.1763 111.983 89.2803 111.056 90.1292L110.798 90.1522C110.72 89.6255 110.629 89.1009 110.524 88.5789L110.24 88.5801C109.917 89.1714 109.635 90.2039 109.254 90.3841C108.948 89.8 108.813 89.3916 108.598 88.7792L108.317 88.7212C107.958 89.2128 107.932 89.3217 107.708 89.8993L107.412 89.9652L107.009 89.0365L106.731 89.0908C106.481 89.5513 106.235 90.0145 105.995 90.4802L105.662 90.9296C104.25 92.0556 102.406 96.4166 101.214 97.361C100.649 96.1072 103.754 91.7472 104.509 90.413C103.254 91.3913 102.19 92.7666 101.254 94.0487C100.733 91.7745 99.9175 89.6649 99.208 87.4373C98.3301 87.7869 99.0547 88.1002 98.2513 88.9535C97.3287 88.3391 98.3805 87.5688 98.1666 86.6266L97.4819 86.219L97.0508 86.0358C96.6322 85.1164 96.8114 84.152 96.8721 83.1161C96.6968 84.1443 96.7793 84.9799 95.8666 85.5624C95.8301 84.8486 95.6438 83.8866 95.5237 83.1605L95.3822 83.2005C94.8252 83.0718 95.0127 83.1349 94.5756 82.5633L94.4968 80.9861L94.1472 80.5621L94.2613 80.5256C94.614 80.143 94.5987 79.5133 94.6576 78.9645L94.3367 78.1481L94.1163 78.1334C93.9961 78.6432 93.8813 79.0831 93.7324 79.585C93.2398 79.7385 92.8772 79.7997 92.5782 80.2161C92.4442 79.2622 92.3166 78.3992 92.1303 77.4548L91.3449 77.011C91.3625 75.0915 91.4135 73.7197 90.9262 71.833C90.6699 71.1374 90.5506 69.7224 90.4548 68.9252C90.7345 68.2286 90.745 67.6938 91.2333 67.4359C92.5348 68.6992 92.8843 68.7437 94.7523 68.6732C102.664 68.3749 110.6 67.3977 118.499 66.8609C123.699 66.5078 128.548 66.7514 133.771 65.7947L134.065 66.0988L134.489 66.5991Z" fill="white"/>
<path d="M122.867 84.333L122.825 84.185C123.056 83.8923 123.575 83.6835 123.95 83.5526C124.907 83.2187 124.352 83.881 125.096 84.2284C125.295 83.7186 125.146 83.9448 125.622 83.5748C125.733 84.2593 126.276 85.5548 126.509 86.5156C126.657 87.7561 126.818 88.1354 126.76 89.4421L126.585 89.5803C125.779 88.4262 125.145 84.8503 124.859 83.4292C124.708 84.5796 124.634 86.911 124.796 88.0796C124.829 88.3139 125.26 89.2083 125.393 89.6409C124.833 89.3076 124.712 89.2163 124.099 89.0305C123.822 89.2802 123.798 89.3743 123.635 89.7007L123.583 89.8071L123.248 89.8687C122.764 88.3767 124.735 85.989 122.867 84.333Z" fill="#DEDDE1"/>
<path d="M94.6578 78.9639C96.4229 79.5553 96.8786 81.3785 96.8723 83.1155C96.697 84.1437 96.7796 84.9793 95.8668 85.5618C95.8304 84.848 95.644 83.886 95.5239 83.1599L95.3825 83.1999C94.8254 83.0711 95.0129 83.1343 94.5759 82.5627L94.4971 80.9855L94.1475 80.5615L94.2615 80.525C94.6143 80.1424 94.5989 79.5127 94.6578 78.9639Z" fill="#7D7C7E"/>
<path d="M94.4968 80.9856L94.8197 80.9082C95.3645 81.3982 95.4565 82.4345 95.5236 83.16L95.3822 83.2C94.8252 83.0713 95.0127 83.1344 94.5756 82.5628L94.4968 80.9856Z" fill="#0E1210"/>
<path d="M117.899 70.8691C116.269 71.019 112.583 70.9277 110.843 70.9081C107.845 70.874 103.805 71.0107 100.912 70.654C106.306 70.4476 113.675 70.3212 119.053 70.4902L117.899 70.8691Z" fill="#DEDDE1"/>
<path d="M121.17 83.6797C121.478 84.2079 121.511 84.4452 121.577 85.0529C121.97 85.4252 121.96 85.4046 122.467 85.6124C122.442 86.9913 122.282 88.9585 121.298 89.9815L121.1 90.01C120.664 89.421 120.782 88.5022 120.954 87.823C121.144 86.9826 121.296 84.5405 121.17 83.6797Z" fill="#C1C1C4"/>
<path d="M98.0293 83.2046C98.7441 84.8059 99.334 85.6863 99.208 87.437C98.3301 87.7866 99.0547 88.1 98.2513 88.9532C97.3287 88.3388 98.3805 87.5686 98.1666 86.6264L97.4819 86.2187C97.9828 85.518 97.9499 84.1684 98.0293 83.2046Z" fill="#4C4F50"/>
<path d="M124.765 69.8301C125.369 69.8527 126.307 69.8471 126.864 69.9937C123.161 70.8109 121.693 70.8242 117.899 70.8695L119.053 70.4906C120.262 70.5342 123.283 69.9921 124.765 69.8301Z" fill="#67636A"/>
<path d="M92.1304 77.4543L92.4617 76.1484L92.6321 76.1294C92.7875 76.883 93.0774 79.0332 93.3752 79.5022L93.7325 79.5844C93.2399 79.7379 92.8773 79.7991 92.5783 80.2155C92.4443 79.2616 92.3167 78.3986 92.1304 77.4543Z" fill="#282C2B"/>
<path d="M129.283 69.338C130.737 68.6606 133.089 67.3251 134.066 66.0986L134.489 66.5989C133.106 67.8751 131.368 68.721 129.712 69.5986L129.283 69.338Z" fill="#2C2A2D"/>
<path d="M120.269 87.763C120.265 87.1442 120.275 86.5253 120.297 85.9069C120.348 84.798 120.397 84.3832 121.17 83.6797C121.296 84.5405 121.144 86.9826 120.954 87.823C120.893 87.4332 120.791 87.1005 120.686 86.7224L120.269 87.763Z" fill="#282C2B"/>
<path d="M125.622 83.5747C126.659 84.3731 126.979 84.9616 126.915 86.3201L126.509 86.5156C126.276 85.5548 125.733 84.2592 125.622 83.5747Z" fill="#0E1210"/>
<path d="M130.587 89.287C130.467 88.2592 129.438 87.562 129.701 86.6772C130.228 86.9276 130.802 88.1324 131.166 88.7409L130.682 89.2951L130.587 89.287Z" fill="#0E1210"/>
<path d="M116.977 87.1684C116.958 86.4071 116.846 85.6408 117.174 84.9907C117.69 85.5865 117.55 86.7682 117.532 87.5852C117.261 87.2043 117.434 87.3471 116.977 87.1684Z" fill="#525057"/>
<path d="M124.765 69.8294C126.64 69.4452 127.289 69.9777 129.283 69.3374L129.712 69.5981C128.552 70.0142 128.152 70.12 126.864 69.993C126.307 69.8464 125.369 69.852 124.765 69.8294Z" fill="#C1C1C4"/>
<path d="M118.565 86.5702C118.559 85.8869 118.508 85.3916 118.719 84.7407C119.249 85.4589 119.132 87.0834 119.116 87.9953L118.832 86.7115L118.565 86.5702Z" fill="#908A99"/>
<path d="M136.992 88.9126C137.39 89.2919 138.259 90.4129 138.462 90.5112L137.865 91.0953L137.902 90.8586L137.69 90.6207L136.761 89.3644L136.992 88.9126Z" fill="#0E1210"/>
<path d="M136.761 89.364C136.268 88.9752 136.167 88.9519 136.011 88.3793L136.3 88.3188L136.992 88.9122L136.761 89.364Z" fill="#525057"/>
<path d="M123.033 75.2404C123.121 74.5652 123.112 74.448 123.388 73.8415L123.606 73.8086C124.072 75.0239 123.81 77.9052 122.006 77.8676C121.461 77.0486 121.533 74.4278 121.977 73.603C122.335 73.9084 122.219 73.8859 122.293 74.5246L122.679 75.2418L123.033 75.2404Z" fill="#282C2B"/>
<path d="M122.293 74.5249L122.678 75.2421L123.033 75.2407C123.029 75.9866 123.113 76.5933 122.743 77.2109L122.475 77.0784C122.104 76.354 122.25 75.3671 122.293 74.5249Z" fill="#C1C1C4"/>
<path d="M126.041 71.6213C126.615 71.6114 126.587 71.5962 127.081 71.8786C127.744 72.6998 128.976 75.38 128.142 76.2561C127.654 75.7892 127.601 75.3612 127.404 74.7048L127.151 74.5725L126.912 75.0756L126.745 77.6207L126.58 77.714C125.909 76.3032 126.72 74.7349 126.886 72.9266C126.568 72.3136 126.708 72.5164 125.964 72.1593L126.041 71.6213Z" fill="#15161B"/>
<path d="M118.073 72.7964C119.002 73.7544 119.083 75.8236 118.762 77.0698L118.498 77.1889C118.286 76.5666 118.424 76.4574 118.567 75.7503C118.376 75.519 118.242 75.4409 118.007 75.2575L117.706 75.3984L117.395 76.4004L117.143 76.4586C116.874 75.9218 116.906 75.8262 117.021 75.228C117.958 74.618 117.904 73.8487 118.073 72.7964Z" fill="#4C4F50"/>
<path d="M125.243 73.2915L125.59 73.4805C125.759 73.9988 125.343 77.4035 125.158 78.0869C125.047 78.0124 124.879 77.8203 124.777 77.7153C124.689 76.0773 124.742 74.8552 125.243 73.2915Z" fill="#282C2B"/>
<path d="M53.1406 146.129C53.8208 146.652 56.3737 150.221 57.2384 151.163C59.1082 153.2 61.0001 155.135 63.0157 157.039C74.9253 168.283 90.208 178.199 105.314 184.371C114.322 187.801 123.396 190.053 132.731 186.209C143.704 181.691 142.354 171.727 140.998 161.949C140.884 161.131 140.114 158.171 140.35 157.574L140.634 157.688L140.86 158.266C142.749 164.063 144.091 175.683 140.7 181.079C136.622 187.567 125.935 189.942 118.804 188.863C105.96 186.92 93.8588 180.346 82.9687 173.498C73.0954 167.205 63.8398 159.795 56.2594 150.821C55.4259 149.835 53.39 147.306 53.1406 146.129Z" fill="white"/>
<path d="M98.0388 170.138L98.2029 170.215C110.218 175.754 138.609 180.372 138.219 159.042C138.196 157.765 137.995 156.479 138.171 155.206C138.849 156.273 139.016 161.538 139.207 163.181C139.686 167.307 139.176 171.231 135.399 173.59C133.458 174.793 131.296 175.593 129.041 175.941C127.7 176.136 126.668 176.227 125.349 176.485C118.257 177.87 103.925 174.134 97.9925 170.629L97.7563 170.44L98.0388 170.138Z" fill="white"/>
<path d="M143.027 50.0499C144.053 48.9809 145.157 47.7163 146.591 49.1102C147.738 50.2257 147.883 52.3884 147.845 53.9006C147.228 60.6184 146.542 67.271 143.643 73.372C143.555 71.5558 143.752 55.067 144.146 54.0173L144.501 53.7228C145.087 53.8147 144.849 53.6846 145.244 54.1126L145.393 54.2441L145.569 54.1514L145.536 53.4403L145.536 53.3104C145.54 52.7568 145.56 52.6398 145.702 52.1091L145.52 51.6827C144.994 51.736 144.22 52.6184 143.782 53.0341C143.565 52.1004 143.329 50.9402 143.027 50.0499Z" fill="white"/>
<path d="M145.536 53.4404C145.967 54.4813 145.675 58.3382 145.6 59.5933C145.449 58.3721 145.035 55.2591 145.245 54.1127L145.393 54.2442L145.569 54.1515L145.536 53.4404Z" fill="#7D7C7E"/>
<path d="M133.733 61.7198L133.92 61.3755C133.753 60.9279 132.745 59.8859 132.322 59.324L132.48 59.1309L132.649 59.2178L132.451 59.4796C133.273 59.0916 133.809 60.2495 134.486 60.651C135.098 61.0139 135.936 61.2256 136.61 61.4254L137.067 61.9553C136.88 63.4669 134.155 64.7074 132.814 64.9771L132.611 65.0156C131.754 63.7905 129.275 63.154 127.803 62.6863L127.798 62.5885L128.094 61.8871C128.454 61.898 128.978 61.8366 129.349 61.8063C130.006 62.0834 129.975 62.0606 130.829 61.8917C132.314 61.5009 132.2 62.7133 133.733 61.7198Z" fill="#F2F1F4"/>
<path d="M133.733 61.7198L133.92 61.3755C133.753 60.9279 132.745 59.8859 132.322 59.324L132.48 59.1309L132.649 59.2178L132.451 59.4796C133.273 59.0916 133.809 60.2495 134.486 60.651C135.098 61.0139 135.936 61.2256 136.61 61.4254C135.754 61.5364 135.551 61.6964 134.869 62.1878C134.198 62.1712 134.388 62.1587 133.733 61.7198Z" fill="#909192"/>
<path d="M138.694 72.9756C139.195 73.5704 139.398 73.4573 140.217 73.4208C140.628 73.7669 141.171 74.1969 141.536 74.5736C141.286 75.2525 141.885 78.0867 141.786 79.5064L141.598 80.056C142.218 81.3888 142.624 82.308 143.121 83.7028C141.551 81.2301 139.372 80.2125 139.085 78.2724L139.086 78.0045C139.005 77.3556 139.034 76.8959 139.051 76.2492C138.861 75.3177 138.781 73.9544 138.694 72.9756Z" fill="#C1C1C4"/>
<path d="M139.085 78.2725C140.008 78.8823 140.727 79.3759 141.597 80.056C142.218 81.3888 142.624 82.308 143.121 83.7028C141.551 81.2302 139.372 80.2125 139.085 78.2725Z" fill="white"/>
<path d="M138.694 72.9756C139.195 73.5704 139.398 73.4573 140.217 73.4208C139.695 74.3525 140.612 75.2347 139.051 76.2492C138.861 75.3177 138.781 73.9544 138.694 72.9756Z" fill="#DEDDE1"/>
<path d="M139.086 78.0044C140.54 78.3088 140.686 78.9811 141.786 79.5063L141.597 80.056C140.727 79.3758 140.008 78.8822 139.085 78.2724L139.086 78.0044Z" fill="#282C2B"/>
<path d="M94.1474 80.562L94.497 80.9861L94.5758 82.5633C94.0805 85.1704 93.2358 87.6771 95.0612 89.894C94.8287 91.0985 94.852 91.4637 94.7624 92.4998C94.6471 93.832 95.6745 98.6043 95.2189 99.2869C94.1713 98.3459 93.8462 90.1802 93.2845 88.3353C92.9252 87.1556 93.2051 81.7843 94.1474 80.562Z" fill="#C1C1C4"/>
<path d="M140.068 84.181C139.799 83.3042 139.841 82.9643 139.853 82.0516L140.036 81.8159C141.098 82.5579 143.685 87.1132 143.352 88.5141L142.959 89.0863C143.417 90.1257 143.791 91.4383 144.138 92.539C143.011 91.0465 141.211 87.6925 140.02 85.9872C139.873 85.7766 139.893 85.0335 139.904 84.7419L140.068 84.181Z" fill="white"/>
<path d="M139.904 84.7417C140.451 85.3694 142.79 88.4101 142.959 89.0861C143.417 90.1255 143.791 91.4381 144.138 92.5387C143.011 91.0463 141.211 87.6923 140.02 85.9869C139.874 85.7764 139.893 85.0333 139.904 84.7417Z" fill="white"/>
<path d="M140.068 84.1812C141.891 85.6458 142.369 87.5893 143.352 88.5142L142.959 89.0864C142.79 88.4104 140.451 85.3697 139.904 84.7421L140.068 84.1812Z" fill="#0E1210"/>
<path d="M137.69 90.6206L137.902 90.8585L137.865 91.0952C139.555 92.5725 141.932 96.4841 143.39 98.4858L143.351 98.7619L142.827 99.1285C142.745 100.28 145.728 103.901 146.14 105.027C146.01 105.251 145.899 105.443 145.808 105.602C145.074 105.138 142.561 100.198 142.128 99.1802C142.264 98.8494 142.322 98.7427 142.393 98.3865C141.108 97.868 141.133 96.8204 140.472 95.7006C139.774 94.5205 138.055 91.852 136.986 91.0633L137.69 90.6206Z" fill="#DEDDE1"/>
<path d="M121.64 90.71C122.117 90.8235 122.098 90.8151 122.506 91.0889C122.678 91.7581 122.429 103.276 122.4 104.728C122.288 104.697 122.104 104.573 121.991 104.507C121.543 102.798 121.501 95.4429 121.303 93.1723C121.27 92.7896 121.558 91.1469 121.64 90.71Z" fill="#C1C1C4"/>
<path d="M193.732 201.044C194.039 200.961 194.043 200.999 194.352 201.1C193.375 202.294 177.123 207.22 175.11 207.442L174.655 207.63L174.555 207.406C175.329 206.681 177.088 206.739 178.167 206.313C181.805 204.879 185.514 203.801 189.231 202.607C190.773 202.112 192.122 201.312 193.732 201.044Z" fill="#C1C1C4"/>
<path d="M96.8722 83.1157C96.8115 84.1516 96.6323 85.116 97.0508 86.0354L97.482 86.2186C96.3671 87.3502 96.5741 93.1695 96.106 95.2375L95.8611 95.2708C95.6257 94.7962 95.6354 94.4755 95.8007 93.9578C96.2909 92.1938 95.5838 90.2059 95.06 88.5306C94.6765 87.3044 96.2375 87.6692 95.596 85.9292L95.8666 85.562C96.7794 84.9795 96.6969 84.1439 96.8722 83.1157Z" fill="#C1C1C4"/>
<path d="M90.3057 66.2778L90.888 66.6494C90.444 67.2436 89.9804 67.6877 89.9815 68.3886C90.2033 68.7255 90.1385 68.7004 90.4551 68.9248C90.5508 69.722 90.6701 71.137 90.9264 71.8326L90.46 72.1808C90.1438 71.7165 89.8913 71.5691 89.3697 71.601L89.1157 72.0098C88.7802 70.7379 88.6315 70.8171 88.7891 69.4851C88.6727 67.8101 89.0987 67.2684 90.3057 66.2778Z" fill="#C8C7C9"/>
<path d="M135.062 92.2397L135.32 92.6636C135.211 92.845 134.848 93.5034 134.951 93.6236C136.046 94.9087 140.977 103.079 141.195 104.16C139.958 103.681 135.641 95.5623 134.744 93.9782C134.432 93.4266 134.807 92.8872 135.062 92.2397Z" fill="#C1C1C4"/>
<path d="M91.3452 77.0107L92.1305 77.4546C92.3168 78.399 92.4445 79.2619 92.5784 80.2158C92.2749 82.0961 92.3809 86.0536 92.0056 87.4486C91.9127 87.3557 91.6408 79.6757 91.2319 77.9516L91.3452 77.0107Z" fill="#7D7C7E"/>
<path d="M98.1112 90.6245L98.2668 90.7737C98.7824 92.2116 97.7101 96.8663 97.6735 98.5756C97.6463 99.8345 97.7233 100.658 97.5573 101.93C96.2766 100.095 97.5592 92.8935 98.1112 90.6245Z" fill="#C1C1C4"/>
<path d="M130.614 102.359C129.908 100.696 126.525 93.7762 126.596 92.625C128.172 94.5906 130.328 99.6888 131.032 102.221L130.614 102.359Z" fill="#C1C1C4"/>
<path d="M112.942 91.5068C115.294 92.4621 113.842 98.3227 113.256 100.187L112.963 99.8349C112.785 98.6296 113.808 96.2745 113.738 95.1035C113.656 93.7093 112.751 93.3883 112.942 91.5068Z" fill="#C1C1C4"/>
<path d="M136.479 91.8398C137.056 92.217 140.94 98.4419 140.942 99.1914L140.632 99.2643L140.064 98.7579L139.961 98.4489C139.356 98.7442 139.575 98.7474 139.025 98.6172L138.84 98.2548C139.238 98.1526 139.371 98.1088 139.753 97.9551C139.651 96.7653 137.046 94.5104 136.479 91.8398Z" fill="#C1C1C4"/>
<path d="M127.835 87.7666C129.119 88.5658 129.617 94.0326 130.572 95.898C130.352 95.8263 129.916 95.7159 129.834 95.5086C129.427 94.4759 127.763 88.4525 127.835 87.7666Z" fill="#C1C1C4"/>
<path d="M100.121 98.1123C100.245 98.2244 100.369 98.3365 100.494 98.4486C100.331 100.402 99.0027 102.276 99.2281 104.236L98.9123 104.207C98.3125 102.54 99.0169 99.5225 100.121 98.1123Z" fill="#DEDDE1"/>
<path d="M110.283 92.9209C110.415 92.9966 110.632 93.1887 110.759 93.2931C110.973 94.5345 109.725 98.1011 109.358 99.67L109.17 99.7052C108.918 99.1645 110.092 93.6785 110.283 92.9209Z" fill="#C1C1C4"/>
<path d="M128.776 58.8967C129.337 58.664 129.775 58.3821 130.341 58.749C130.641 59.4283 132.312 60.631 132.971 61.1604L132.904 61.3666C131.798 61.3286 129.505 59.7427 128.776 58.8967Z" fill="#909192"/>
<path d="M114.594 90.7769L114.902 91.0419C115.753 94.3751 115.908 94.8883 115.681 98.297L115.457 98.2217C115.277 97.5035 115.419 97.0205 115.336 96.2425C115.129 94.2842 114.386 92.731 114.594 90.7769Z" fill="#C1C1C4"/>
<path d="M34.8186 192.493C34.115 192.23 33.1719 191.352 32.4656 190.841C31.3168 190.011 28.4639 188.877 27.8057 188.06C29.4803 187.91 33.7963 191.723 34.9245 191.921L34.8186 192.493Z" fill="#525057"/>
<path d="M99.6147 92.1738C100.286 93.0247 100.011 96.0795 99.6002 97.109C98.478 96.4269 99.3859 93.2588 99.6147 92.1738Z" fill="#C1C1C4"/>
<path d="M34.9246 191.921C35.8271 192.275 39.7568 193.404 40.0468 193.898C38.2272 193.806 36.5326 193.103 34.8186 192.493L34.9246 191.921Z" fill="#C1C1C4"/>
<path d="M6.66138 178.082C8.60626 177.81 10.6329 179.108 12.2514 180.094C11.0506 179.635 7.33107 178.975 6.66138 178.082Z" fill="#C1C1C4"/>
<path d="M105.662 90.9289L105.995 90.4795C106.227 90.9507 106.423 91.1583 106.169 91.7307C105.66 92.8741 105.007 94.5113 104.046 95.2875L103.657 95.3347C104.195 94.0738 105.836 92.0414 105.662 90.9289Z" fill="#909192"/>
<path d="M130.587 89.2871L130.682 89.2952C130.813 90.3794 132.361 92.8396 132.911 94.5313C130.696 92.0557 131.023 90.9596 130.13 89.8197L130.587 89.2871Z" fill="#C1C1C4"/>
<path d="M123.789 97.8296C124.376 97.9403 124.144 97.8066 124.543 98.1675C124.903 99.9004 125.406 101.66 125.16 103.389C125.037 103.268 123.904 98.3547 123.789 97.8296Z" fill="#737374"/>
<path d="M140.504 90.3994C141.489 90.7332 143.121 93.4464 143.779 94.4653C142.856 94.0713 140.488 91.4327 140.504 90.3994Z" fill="#909192"/>
<path d="M107.385 98.1118C107.627 98.3261 107.541 98.2501 107.67 98.5931C107.416 99.5579 106.99 101.467 106.535 102.264C106.268 102.034 106.349 102.093 106.171 101.762C106.328 100.672 106.715 98.9754 107.385 98.1118Z" fill="#C1C1C4"/>
<path d="M141.839 94.0464C143.415 95.8973 143.756 96.486 144.56 98.7098C143.45 97.1554 142.312 95.7527 141.343 94.0937L141.839 94.0464Z" fill="#DEDDE1"/>
<path d="M124.605 95.5734C123.627 93.8859 123.875 92.2608 124.023 90.3906C124.327 91.9393 124.651 93.484 124.995 95.0246L124.605 95.5734Z" fill="#DEDDE1"/>
<path d="M114.058 87.4955L114.24 87.293L114.86 87.4145L115.2 87.0908C115.15 87.9415 115.188 89.3698 114.754 90.0099L114.42 90.0971L114.109 89.6932C114.313 88.9697 114.546 88.428 114.405 87.705L114.058 87.4955Z" fill="#A49EA9"/>
<path d="M116.872 178.46C118.732 178.512 119.101 178.54 120.816 179.144C120 179.589 117.494 179.152 116.872 178.46Z" fill="#7D7C7E"/>
<path d="M124.995 95.0249C125.218 95.961 125.629 97.3704 125.569 98.2856L125.23 97.6388L125.239 97.7489C125.019 97.0265 124.808 96.3014 124.605 95.5737L124.995 95.0249Z" fill="#908A99"/>
<path d="M107.008 91.7271L107.431 91.998C107.394 92.977 106.78 93.8665 106.256 94.6675L106.051 94.5396C106.31 93.5619 106.657 92.672 107.008 91.7271Z" fill="#C1C1C4"/>
<path d="M20.3782 185.338C21.4871 185.324 23.6467 186.429 24.5015 187.128C23.5955 187.045 21.1554 185.91 20.3782 185.338Z" fill="#525057"/>
<path d="M87.5955 206.77C88.5092 206.745 90.9388 207.386 91.6359 208.034C90.6652 208.111 88.4816 207.242 87.5955 206.77Z" fill="#7D7C7E"/>
<path d="M46.1956 196.31C47.4398 196.407 48.7512 197.005 49.834 197.607C48.9328 197.613 46.74 197.039 46.1956 196.31Z" fill="#909192"/>
<path d="M141.343 94.0939C140.833 93.4959 140.287 92.9823 140.124 92.2239L140.339 92.1392C141.076 92.6474 141.374 93.2772 141.839 94.0465L141.343 94.0939Z" fill="#737374"/>
<path d="M93.9766 208.18C95.367 208.275 95.926 208.558 97.0867 209.311C96.0969 209.216 94.6386 208.933 93.9766 208.18Z" fill="#C1C1C4"/>
<path d="M98.4966 209.927C99.5728 209.963 100.24 210.01 100.695 211.04C99.7919 210.941 99.0528 210.686 98.4966 209.927Z" fill="#C1C1C4"/>
<path d="M116.961 92.7148L117.249 92.859C117.615 93.4326 117.402 94.7349 117.341 95.4798L117.115 95.4668C116.878 94.8248 116.956 93.4669 116.961 92.7148Z" fill="#909192"/>
<path d="M112.038 212.32C113.211 212.179 113.797 212.387 114.551 213.29C113.693 213.29 112.756 212.744 112.038 212.32Z" fill="#C1C1C4"/>
<path d="M102.54 97.8491L103.086 98.102C103.029 98.6392 102.689 98.7771 102.201 99.2421L101.89 99.3011C101.901 98.699 102.204 98.3694 102.54 97.8491Z" fill="#909192"/>
<path d="M124.015 106.632L124.333 106.896C124.573 107.617 124.427 108.342 124.357 109.119C123.936 108.41 123.868 107.43 124.015 106.632Z" fill="#A49EA9"/>
<path d="M131.032 102.221C131.249 102.827 131.388 103.089 131.38 103.739C130.982 103.527 130.836 102.881 130.615 102.359L131.032 102.221Z" fill="#7D7C7E"/>
<path d="M125.678 106.87C126.224 107.378 126.021 107.937 125.931 108.62L125.787 108.552C125.472 108.042 125.617 107.505 125.678 106.87Z" fill="#7D7C7E"/>
<path d="M106.061 96.0703L106.326 96.1117L106.268 96.7213L105.937 96.7217L106.061 96.0703Z" fill="#525057"/>
<path d="M130.408 214.782L130.849 214.657L131.142 214.923L130.648 215.063L130.408 214.782Z" fill="#A49EA9"/>
</g>
<defs>
<clipPath id="clip0_2448_7457">
<rect width="208" height="217" fill="white"/>
</clipPath>
</defs>
</svg>
