<svg width="384" height="384" viewBox="0 0 384 384" fill="none" xmlns="http://www.w3.org/2000/svg">
<path d="M221.197 181.048C216.281 176.253 211.418 171.405 206.606 166.507C205.193 165.094 200.801 160.928 199.846 159.675C199.959 158.787 203.876 155.144 204.748 154.262C207.674 151.26 210.642 148.3 213.653 145.384C217.594 141.503 221.3 137.519 225.345 133.719C227.252 131.897 229.259 130.183 231.357 128.586C263.767 103.514 311.391 109.417 336.712 141.592C341.352 147.489 345.507 154.562 348.091 161.66C348.233 162.05 348.605 162.777 348.66 163.121C351.015 168.827 352.141 175.972 352.648 182.069C352.724 182.982 352.758 183.772 352.931 184.683C353.151 191 352.879 197.858 351.626 204.069C346.862 227.665 330.518 247.943 308.574 257.78C306.65 258.642 304.716 259.491 302.675 259.966C302.143 260.332 298.352 261.566 297.64 261.741C291.743 263.192 285.986 264.307 279.897 264.461C265.679 264.847 251.629 261.304 239.294 254.221C228.824 248.106 223.365 241.757 214.938 233.309L197.787 216.175L154.335 172.798L142.554 160.971C138.866 157.298 136.075 154.252 131.674 151.287C125.401 147.012 118.121 144.447 110.553 143.847C97.9748 142.932 86.3854 146.513 76.8819 154.914C67.9661 162.796 62.5653 174.168 61.6605 186.005C60.8178 197.03 64.9918 209.504 72.2709 217.825C80.3438 227.052 90.9672 232.809 103.298 233.568C115.103 234.295 125.213 231.359 134.561 224.065C136.31 222.7 138.116 220.928 139.815 219.425C138.478 218.033 128.38 208.346 128.003 207.518C128.995 206.881 137.948 207.192 139.728 207.183C147.515 207.094 155.304 207.111 163.091 207.234C166.001 207.277 171.201 206.951 173.747 207.413C173.824 209.267 173.717 211.945 173.708 213.852L173.69 226.719C173.697 234.899 173.75 243.119 173.744 251.304C173.744 251.789 173.718 252.444 173.435 252.83C172.58 252.372 162.49 242.322 161.413 241.014C160.596 241.931 158.941 243.43 158 244.321C145.773 255.689 130.111 262.667 113.483 264.155C93.3884 265.963 73.4003 259.703 57.9276 246.755C45.9757 236.672 37.4233 223.15 33.4358 208.03C32.7471 205.344 32.0738 203.065 31.8524 200.283C31.3917 198.026 31.3406 196.056 31.1848 193.785C30.4594 183.218 31.8629 172.682 35.5401 162.744C36.2416 160.848 36.9171 158.844 37.8599 157.045C37.9154 156.778 38.8265 155.032 38.9984 154.693C40.3161 151.463 46.3361 142.15 48.7011 139.958C48.7983 139.754 49.0156 139.551 49.1749 139.381C50.8222 137.357 54.6027 133.401 56.6454 131.792C58.7224 129.735 61.8489 127.511 64.309 125.87C76.9305 117.44 91.7766 112.96 106.954 113C125.259 113.078 142.918 119.773 156.674 131.849C158.696 133.599 160.867 135.879 162.776 137.791L172.206 147.25L197.208 172.276L227.95 202.992L239.518 214.577C245.086 220.15 248.047 223.693 254.964 227.81C261.336 231.524 268.565 233.513 275.94 233.583C289.499 233.66 299.335 230.097 309.013 220.525C318.865 210.781 323.722 197.376 322.117 183.749C317.627 145.623 271.249 130.036 244.771 157.684C238.95 163.763 232.751 169.557 226.888 175.615C225.776 176.732 222.297 180.284 221.197 181.048Z" fill="#51525C"/>
</svg>
