<svg width="2116" height="386" viewBox="0 0 2116 386" fill="none" xmlns="http://www.w3.org/2000/svg">
<path d="M1562.08 253.739H1623V283H1525V99H1562.08V253.739Z" fill="#1C1C1C"/>
<path d="M2000.19 158.568C2004.97 151.86 2011.52 146.299 2019.84 141.885C2028.34 137.295 2037.99 135 2048.8 135C2061.37 135 2072.7 138.089 2082.8 144.268C2093.07 150.447 2101.12 159.274 2106.97 170.75C2112.99 182.048 2116 195.201 2116 210.207C2116 225.213 2112.99 238.542 2106.97 250.193C2101.12 261.669 2093.07 270.584 2082.8 276.94C2072.7 283.295 2061.37 286.473 2048.8 286.473C2037.99 286.473 2028.43 284.266 2020.11 279.852C2011.96 275.439 2005.32 269.878 2000.19 263.169V354H1963V137.383H2000.19V158.568ZM2078.02 210.207C2078.02 201.38 2076.16 193.788 2072.44 187.433C2068.9 180.901 2064.11 175.958 2058.09 172.603C2052.25 169.249 2045.87 167.572 2038.97 167.572C2032.24 167.572 2025.86 169.337 2019.84 172.868C2014 176.222 2009.22 181.166 2005.5 187.698C2001.96 194.23 2000.19 201.909 2000.19 210.736C2000.19 219.563 2001.96 227.243 2005.5 233.775C2009.22 240.307 2014 245.339 2019.84 248.869C2025.86 252.224 2032.24 253.901 2038.97 253.901C2045.87 253.901 2052.25 252.135 2058.09 248.605C2064.11 245.074 2068.9 240.042 2072.44 233.51C2076.16 226.978 2078.02 219.21 2078.02 210.207Z" fill="#1C1C1C"/>
<g clip-path="url(#clip0_84_12687)">
<mask id="mask0_84_12687" style="mask-type:luminance" maskUnits="userSpaceOnUse" x="1626" y="51" width="323" height="323">
<path d="M1949 51H1626V374H1949V51Z" fill="white"/>
</mask>
<g mask="url(#mask0_84_12687)">
<mask id="mask1_84_12687" style="mask-type:luminance" maskUnits="userSpaceOnUse" x="1626" y="51" width="323" height="323">
<path d="M1949 51H1626V374H1949V51Z" fill="white"/>
</mask>
<g mask="url(#mask1_84_12687)">
<g opacity="0.4">
<path d="M1949 164.05H1626" stroke="#1C1C1C" stroke-width="1.5" stroke-miterlimit="10" stroke-dasharray="1.6 1.6"/>
<path d="M1949 260.95H1626" stroke="#1C1C1C" stroke-width="1.5" stroke-miterlimit="10" stroke-dasharray="1.6 1.6"/>
<path d="M1787.07 50.9983L1787.5 374" stroke="#1C1C1C" stroke-width="1.5" stroke-miterlimit="10" stroke-dasharray="1.6 1.6"/>
<path d="M1908.62 51V374" stroke="#1C1C1C" stroke-width="1.5" stroke-miterlimit="10"/>
<path d="M1666.38 51V374" stroke="#1C1C1C" stroke-width="1.5" stroke-miterlimit="10"/>
<path d="M1626 91.375H1949" stroke="#1C1C1C" stroke-width="1.5" stroke-miterlimit="10"/>
<path d="M1626 333.625H1949" stroke="#1C1C1C" stroke-width="1.5" stroke-miterlimit="10"/>
</g>
</g>
</g>
</g>
<path d="M1817.2 202.048C1812.28 197.253 1807.42 192.405 1802.61 187.507C1801.19 186.094 1796.8 181.928 1795.85 180.675C1795.96 179.787 1799.88 176.144 1800.75 175.262C1803.67 172.26 1806.64 169.3 1809.65 166.384C1813.59 162.503 1817.3 158.519 1821.35 154.719C1823.25 152.897 1825.26 151.183 1827.36 149.586C1859.77 124.515 1907.39 130.417 1932.71 162.592C1937.35 168.489 1941.51 175.562 1944.09 182.66C1944.23 183.05 1944.6 183.777 1944.66 184.121C1947.02 189.827 1948.14 196.972 1948.65 203.069C1948.72 203.982 1948.76 204.772 1948.93 205.683C1949.15 212 1948.88 218.858 1947.63 225.069C1942.86 248.665 1926.52 268.943 1904.57 278.78C1902.65 279.642 1900.72 280.491 1898.68 280.966C1898.14 281.332 1894.35 282.566 1893.64 282.741C1887.74 284.192 1881.99 285.307 1875.9 285.461C1861.68 285.847 1847.63 282.304 1835.29 275.221C1824.82 269.107 1819.37 262.757 1810.94 254.309L1793.79 237.175L1750.33 193.798L1738.55 181.971C1734.87 178.298 1732.08 175.252 1727.67 172.287C1721.4 168.012 1714.12 165.447 1706.55 164.847C1693.97 163.932 1682.39 167.513 1672.88 175.914C1663.97 183.796 1658.57 195.168 1657.66 207.005C1656.82 218.03 1660.99 230.504 1668.27 238.825C1676.34 248.052 1686.97 253.809 1699.3 254.568C1711.1 255.295 1721.21 252.359 1730.56 245.065C1732.31 243.7 1734.12 241.928 1735.81 240.426C1734.48 239.033 1724.38 229.346 1724 228.518C1724.99 227.881 1733.95 228.192 1735.73 228.183C1743.52 228.094 1751.3 228.111 1759.09 228.234C1762 228.278 1767.2 227.951 1769.75 228.413C1769.82 230.267 1769.72 232.945 1769.71 234.852L1769.69 247.719C1769.7 255.899 1769.75 264.119 1769.74 272.304C1769.74 272.789 1769.72 273.444 1769.43 273.83C1768.58 273.372 1758.49 263.322 1757.41 262.014C1756.6 262.931 1754.94 264.43 1754 265.321C1741.77 276.689 1726.11 283.667 1709.48 285.155C1689.39 286.963 1669.4 280.703 1653.93 267.755C1641.98 257.672 1633.42 244.15 1629.44 229.03C1628.75 226.344 1628.07 224.065 1627.85 221.283C1627.39 219.026 1627.34 217.056 1627.18 214.785C1626.46 204.218 1627.86 193.682 1631.54 183.744C1632.24 181.848 1632.92 179.844 1633.86 178.045C1633.92 177.778 1634.83 176.032 1635 175.693C1636.32 172.463 1642.34 163.15 1644.7 160.958C1644.8 160.754 1645.02 160.551 1645.17 160.381C1646.82 158.357 1650.6 154.401 1652.65 152.792C1654.72 150.735 1657.85 148.511 1660.31 146.87C1672.93 138.44 1687.78 133.96 1702.95 134C1721.26 134.078 1738.92 140.773 1752.67 152.849C1754.7 154.599 1756.87 156.879 1758.78 158.791L1768.21 168.25L1793.21 193.276L1823.95 223.992L1835.52 235.577C1841.09 241.15 1844.05 244.693 1850.96 248.81C1857.34 252.524 1864.56 254.513 1871.94 254.583C1885.5 254.66 1895.34 251.097 1905.01 241.525C1914.87 231.781 1919.72 218.376 1918.12 204.749C1913.63 166.624 1867.25 151.036 1840.77 178.684C1834.95 184.763 1828.75 190.557 1822.89 196.615C1821.78 197.732 1818.3 201.284 1817.2 202.048Z" fill="#1C1C1C"/>
<path d="M101.02 284.799C84.2258 284.799 68.803 280.858 54.7511 272.975C40.6991 265.092 29.5604 254.211 21.3349 240.33C13.1094 226.278 8.99665 210.427 8.99665 192.776C8.99665 175.297 13.1094 159.617 21.3349 145.737C29.5604 131.685 40.6991 120.718 54.7511 112.835C68.803 104.952 84.2258 101.011 101.02 101.011C117.985 101.011 133.408 104.952 147.288 112.835C161.34 120.718 172.393 131.685 180.447 145.737C188.673 159.617 192.785 175.297 192.785 192.776C192.785 210.427 188.673 226.278 180.447 240.33C172.393 254.211 161.34 265.092 147.288 272.975C133.236 280.858 117.813 284.799 101.02 284.799ZM101.02 252.668C111.816 252.668 121.326 250.269 129.552 245.471C137.777 240.502 144.203 233.476 148.83 224.393C153.457 215.311 155.771 204.772 155.771 192.776C155.771 180.781 153.457 170.328 148.83 161.417C144.203 152.334 137.777 145.394 129.552 140.596C121.326 135.798 111.816 133.399 101.02 133.399C90.2236 133.399 80.6271 135.798 72.2303 140.596C64.0048 145.394 57.5786 152.334 52.9517 161.417C48.3249 170.328 46.0115 180.781 46.0115 192.776C46.0115 204.772 48.3249 215.311 52.9517 224.393C57.5786 233.476 64.0048 240.502 72.2303 245.471C80.6271 250.269 90.2236 252.668 101.02 252.668ZM288.19 138.539C305.155 138.539 318.864 143.937 329.318 154.733C339.771 165.358 344.998 180.267 344.998 199.46V283H309.011V204.344C309.011 193.033 306.183 184.38 300.528 178.382C294.873 172.213 287.162 169.128 277.394 169.128C267.455 169.128 259.572 172.213 253.746 178.382C248.091 184.38 245.263 193.033 245.263 204.344V283H209.277V140.596H245.263V158.332C250.061 152.163 256.145 147.365 263.514 143.937C271.054 140.339 279.279 138.539 288.19 138.539ZM404.924 161.417C409.551 154.562 415.891 148.993 423.945 144.709C432.171 140.424 441.51 138.282 451.963 138.282C464.13 138.282 475.098 141.281 484.865 147.279C494.805 153.277 502.602 161.845 508.257 172.984C514.083 183.951 516.996 196.718 516.996 211.284C516.996 225.85 514.083 238.788 508.257 250.098C502.602 261.237 494.805 269.891 484.865 276.06C475.098 282.229 464.13 285.313 451.963 285.313C441.339 285.313 431.999 283.257 423.945 279.144C416.062 274.86 409.722 269.376 404.924 262.693V283H368.937V92.7851H404.924V161.417ZM480.239 211.284C480.239 202.716 478.439 195.347 474.841 189.178C471.413 182.837 466.786 178.039 460.96 174.783C455.305 171.527 449.136 169.899 442.453 169.899C435.941 169.899 429.772 171.613 423.945 175.04C418.29 178.296 413.663 183.094 410.065 189.435C406.637 195.775 404.924 203.23 404.924 211.798C404.924 220.366 406.637 227.821 410.065 234.161C413.663 240.502 418.29 245.385 423.945 248.813C429.772 252.069 435.941 253.697 442.453 253.697C449.136 253.697 455.305 251.983 460.96 248.556C466.786 245.128 471.413 240.244 474.841 233.904C478.439 227.563 480.239 220.023 480.239 211.284ZM596.099 285.313C582.389 285.313 570.051 282.315 559.084 276.317C548.116 270.148 539.462 261.494 533.122 250.355C526.953 239.216 523.868 226.364 523.868 211.798C523.868 197.232 527.039 184.38 533.379 173.241C539.891 162.102 548.716 153.534 559.855 147.536C570.994 141.367 583.418 138.282 597.127 138.282C610.836 138.282 623.26 141.367 634.399 147.536C645.537 153.534 654.277 162.102 660.617 173.241C667.129 184.38 670.385 197.232 670.385 211.798C670.385 226.364 667.044 239.216 660.36 250.355C653.848 261.494 644.938 270.148 633.627 276.317C622.489 282.315 609.979 285.313 596.099 285.313ZM596.099 253.954C602.61 253.954 608.694 252.411 614.349 249.327C620.175 246.071 624.802 241.273 628.229 234.932C631.657 228.592 633.37 220.88 633.37 211.798C633.37 198.26 629.772 187.893 622.574 180.695C615.548 173.327 606.895 169.642 596.613 169.642C586.331 169.642 577.677 173.327 570.651 180.695C563.796 187.893 560.369 198.26 560.369 211.798C560.369 225.336 563.711 235.789 570.394 243.158C577.248 250.355 585.817 253.954 596.099 253.954ZM677.247 211.284C677.247 196.889 680.075 184.123 685.73 172.984C691.556 161.845 699.353 153.277 709.121 147.279C719.06 141.281 730.113 138.282 742.28 138.282C752.905 138.282 762.158 140.424 770.041 144.709C778.095 148.993 784.521 154.391 789.32 160.903V140.596H825.563V283H789.32V262.179C784.693 268.862 778.267 274.432 770.041 278.887C761.987 283.171 752.648 285.313 742.023 285.313C730.027 285.313 719.06 282.229 709.121 276.06C699.353 269.891 691.556 261.237 685.73 250.098C680.075 238.788 677.247 225.85 677.247 211.284ZM789.32 211.798C789.32 203.058 787.606 195.604 784.179 189.435C780.751 183.094 776.125 178.296 770.298 175.04C764.472 171.613 758.217 169.899 751.534 169.899C744.851 169.899 738.681 171.527 733.026 174.783C727.371 178.039 722.744 182.837 719.146 189.178C715.718 195.347 714.005 202.716 714.005 211.284C714.005 219.852 715.718 227.392 719.146 233.904C722.744 240.244 727.371 245.128 733.026 248.556C738.853 251.983 745.022 253.697 751.534 253.697C758.217 253.697 764.472 252.069 770.298 248.813C776.125 245.385 780.751 240.587 784.179 234.418C787.606 228.078 789.32 220.538 789.32 211.798ZM886.415 162.702C891.042 155.162 897.04 149.25 904.409 144.966C911.949 140.682 920.517 138.539 930.113 138.539V176.325H920.603C909.292 176.325 900.724 178.982 894.898 184.294C889.243 189.606 886.415 198.86 886.415 212.055V283H850.429V140.596H886.415V162.702ZM934.816 211.284C934.816 196.889 937.644 184.123 943.299 172.984C949.125 161.845 957.008 153.277 966.947 147.279C976.887 141.281 987.94 138.282 1000.11 138.282C1009.36 138.282 1018.19 140.339 1026.58 144.452C1034.98 148.393 1041.66 153.705 1046.63 160.388V92.7851H1083.13V283H1046.63V261.922C1042.18 268.948 1035.92 274.603 1027.87 278.887C1019.81 283.171 1010.47 285.313 999.849 285.313C987.854 285.313 976.887 282.229 966.947 276.06C957.008 269.891 949.125 261.237 943.299 250.098C937.644 238.788 934.816 225.85 934.816 211.284ZM1046.89 211.798C1046.89 203.058 1045.18 195.604 1041.75 189.435C1038.32 183.094 1033.69 178.296 1027.87 175.04C1022.04 171.613 1015.79 169.899 1009.1 169.899C1002.42 169.899 996.251 171.527 990.596 174.783C984.941 178.039 980.314 182.837 976.715 189.178C973.288 195.347 971.574 202.716 971.574 211.284C971.574 219.852 973.288 227.392 976.715 233.904C980.314 240.244 984.941 245.128 990.596 248.556C996.422 251.983 1002.59 253.697 1009.1 253.697C1015.79 253.697 1022.04 252.069 1027.87 248.813C1033.69 245.385 1038.32 240.587 1041.75 234.418C1045.18 228.078 1046.89 220.538 1046.89 211.798ZM1126.25 123.631C1119.91 123.631 1114.6 121.66 1110.31 117.719C1106.2 113.606 1104.14 108.551 1104.14 102.553C1104.14 96.5551 1106.2 91.5855 1110.31 87.6441C1114.6 83.5314 1119.91 81.475 1126.25 81.475C1132.59 81.475 1137.82 83.5314 1141.93 87.6441C1146.21 91.5855 1148.35 96.5551 1148.35 102.553C1148.35 108.551 1146.21 113.606 1141.93 117.719C1137.82 121.66 1132.59 123.631 1126.25 123.631ZM1143.98 140.596V283H1108V140.596H1143.98ZM1248.17 138.539C1265.14 138.539 1278.85 143.937 1289.3 154.733C1299.75 165.358 1304.98 180.267 1304.98 199.46V283H1268.99V204.344C1268.99 193.033 1266.16 184.38 1260.51 178.382C1254.85 172.213 1247.14 169.128 1237.38 169.128C1227.44 169.128 1219.55 172.213 1213.73 178.382C1208.07 184.38 1205.24 193.033 1205.24 204.344V283H1169.26V140.596H1205.24V158.332C1210.04 152.163 1216.13 147.365 1223.49 143.937C1231.03 140.339 1239.26 138.539 1248.17 138.539ZM1384.7 138.282C1395.32 138.282 1404.66 140.424 1412.72 144.709C1420.77 148.821 1427.11 154.219 1431.74 160.903V140.596H1467.98V284.028C1467.98 297.223 1465.32 308.962 1460.01 319.244C1454.7 329.697 1446.73 337.922 1436.11 343.92C1425.48 350.089 1412.63 353.174 1397.55 353.174C1377.33 353.174 1360.71 348.461 1347.68 339.036C1334.83 329.611 1327.55 316.759 1325.83 300.479H1361.56C1363.45 306.991 1367.48 312.132 1373.64 315.902C1379.98 319.843 1387.61 321.814 1396.52 321.814C1406.97 321.814 1415.46 318.644 1421.97 312.303C1428.48 306.134 1431.74 296.709 1431.74 284.028V261.922C1427.11 268.605 1420.68 274.175 1412.46 278.63C1404.4 283.086 1395.15 285.313 1384.7 285.313C1372.7 285.313 1361.73 282.229 1351.8 276.06C1341.86 269.891 1333.97 261.237 1328.15 250.098C1322.49 238.788 1319.66 225.85 1319.66 211.284C1319.66 196.889 1322.49 184.123 1328.15 172.984C1333.97 161.845 1341.77 153.277 1351.54 147.279C1361.48 141.281 1372.53 138.282 1384.7 138.282ZM1431.74 211.798C1431.74 203.058 1430.02 195.604 1426.6 189.435C1423.17 183.094 1418.54 178.296 1412.72 175.04C1406.89 171.613 1400.63 169.899 1393.95 169.899C1387.27 169.899 1381.1 171.527 1375.44 174.783C1369.79 178.039 1365.16 182.837 1361.56 189.178C1358.14 195.347 1356.42 202.716 1356.42 211.284C1356.42 219.852 1358.14 227.392 1361.56 233.904C1365.16 240.244 1369.79 245.128 1375.44 248.556C1381.27 251.983 1387.44 253.697 1393.95 253.697C1400.63 253.697 1406.89 252.069 1412.72 248.813C1418.54 245.385 1423.17 240.587 1426.6 234.418C1430.02 228.078 1431.74 220.538 1431.74 211.798Z" fill="#1C1C1C"/>
<defs>
<clipPath id="clip0_84_12687">
<rect width="323" height="323" fill="white" transform="translate(1626 51)"/>
</clipPath>
</defs>
</svg>
