<svg width="568" height="142" viewBox="0 0 568 142" fill="none" xmlns="http://www.w3.org/2000/svg">
<g id="Attio Layout Scaffold">
<g id="Stack">
<g id="CTA">
<g id="StripeThumbnail">
<g id="Frame 60">
<g id="developers-light 3" clip-path="url(#clip0_2432_3370)">
<g id="Clip path group">
<mask id="mask0_2432_3370" style="mask-type:luminance" maskUnits="userSpaceOnUse" x="0" y="0" width="142" height="142">
<g id="clip1_7195_157695">
<path id="Vector" d="M141.972 0.0283203V141.972H0.0283203V0.0283203H141.972Z" fill="white" stroke="white" stroke-width="0.0564321"/>
</g>
</mask>
<g mask="url(#mask0_2432_3370)">
<g id="Group" opacity="0.36">
<path id="Vector_2" d="M142 49.7017H0" stroke="black" stroke-width="0.648402" stroke-miterlimit="10" stroke-linecap="round" stroke-dasharray="1.3 1.3"/>
<path id="Vector_3" d="M142 92.2998H0" stroke="black" stroke-width="0.648402" stroke-miterlimit="10" stroke-linecap="round" stroke-dasharray="1.3 1.3"/>
<path id="Vector_4" d="M70.8132 0L71.0003 142.001" stroke="black" stroke-width="0.648402" stroke-miterlimit="10" stroke-linecap="round" stroke-dasharray="1.3 1.3"/>
<path id="Vector_5" d="M124.25 0V142" stroke="black" stroke-width="0.648402" stroke-miterlimit="10" stroke-linecap="round"/>
<path id="Vector_6" d="M17.7496 0V142" stroke="black" stroke-width="0.648402" stroke-miterlimit="10" stroke-linecap="round"/>
<path id="Vector_7" d="M0 17.7512H142" stroke="black" stroke-width="0.648402" stroke-miterlimit="10" stroke-linecap="round"/>
<path id="Vector_8" d="M0 124.25H142" stroke="black" stroke-width="0.648402" stroke-miterlimit="10" stroke-linecap="round"/>
</g>
</g>
</g>
<g id="Clip path group_2">
<mask id="mask1_2432_3370" style="mask-type:luminance" maskUnits="userSpaceOnUse" x="0" y="0" width="142" height="142">
<g id="clip0_7330_157875">
<path id="Vector_9" d="M142 0H0V142H142V0Z" fill="white"/>
</g>
</mask>
<g mask="url(#mask1_2432_3370)">
<g id="Group_2">
<g id="Clip path group_3">
<mask id="mask2_2432_3370" style="mask-type:luminance" maskUnits="userSpaceOnUse" x="0" y="0" width="142" height="142">
<g id="clip1_7330_157875">
<path id="Vector_10" d="M142 0H0V142H142V0Z" fill="white"/>
</g>
</mask>
<g mask="url(#mask2_2432_3370)">
<g id="Group_3">
<g id="Clip path group_4">
<mask id="mask3_2432_3370" style="mask-type:luminance" maskUnits="userSpaceOnUse" x="0" y="0" width="142" height="142">
<g id="clip2_7330_157875">
<path id="Vector_11" d="M140.533 1.4668V140.533H1.4668V1.4668H140.533Z" fill="white" stroke="white" stroke-width="2.93402"/>
</g>
</mask>
<g mask="url(#mask3_2432_3370)">
<g id="Group_4">
<path id="Vector_12" d="M34.598 49.5369L68.8466 32.4566C70.2002 31.7814 71.7962 31.7814 73.1495 32.4566L107.398 49.5369C109.017 50.3445 110.039 51.9892 110.039 53.7884V88.1943C110.039 89.993 109.017 91.6385 107.398 92.4457L73.1495 109.526C71.7962 110.201 70.2002 110.201 68.8466 109.526L34.598 92.4457C32.979 91.6385 31.9569 89.9934 31.9569 88.1943V53.7884C31.9569 51.9899 32.979 50.3445 34.598 49.5369Z" fill="#EDC77F" stroke="black" stroke-width="2" stroke-linecap="round" stroke-linejoin="round"/>
<g id="Group_5" opacity="0.6">
<path id="Vector_13" d="M32.7058 50.5388L71.42 70.1859L110.135 50.5388" stroke="black" stroke-linecap="round" stroke-linejoin="round" stroke-dasharray="2 2"/>
<path id="Vector_14" d="M71.4092 110.417V70.1748" stroke="black" stroke-linecap="round" stroke-linejoin="round" stroke-dasharray="2 2"/>
</g>
<path id="Vector_15" opacity="0.6" d="M66.4212 19.9303L23.8212 40.2161C20.1125 41.9822 17.75 45.7236 17.75 49.8316V92.1682C17.75 96.2763 20.1125 100.018 23.8212 101.784L66.4212 122.07C69.318 123.449 72.682 123.449 75.5788 122.07L118.179 101.784C121.887 100.018 124.25 96.2763 124.25 92.1682V49.8316C124.25 45.7236 121.887 41.9822 118.179 40.2161L75.5788 19.9303C72.682 18.5509 69.318 18.5509 66.4212 19.9303Z" stroke="black" stroke-width="1.2968" stroke-linecap="round" stroke-linejoin="round" stroke-dasharray="4.69 4.69"/>
</g>
</g>
</g>
</g>
</g>
</g>
</g>
</g>
</g>
</g>
<g id="reporting-light 2" clip-path="url(#clip1_2432_3370)">
<g id="Clip path group_5">
<mask id="mask4_2432_3370" style="mask-type:luminance" maskUnits="userSpaceOnUse" x="142" y="0" width="142" height="142">
<g id="clip1_7195_157695_2">
<path id="Vector_16" d="M283.972 0.0283203V141.972H142.028V0.0283203H283.972Z" fill="white" stroke="white" stroke-width="0.0564321"/>
</g>
</mask>
<g mask="url(#mask4_2432_3370)">
<g id="Group_6" opacity="0.36">
<path id="Vector_17" d="M284 49.7017H142" stroke="black" stroke-width="0.648402" stroke-miterlimit="10" stroke-linecap="round" stroke-dasharray="1.3 1.3"/>
<path id="Vector_18" d="M284 92.2998H142" stroke="black" stroke-width="0.648402" stroke-miterlimit="10" stroke-linecap="round" stroke-dasharray="1.3 1.3"/>
<path id="Vector_19" d="M212.813 0L213 142.001" stroke="black" stroke-width="0.648402" stroke-miterlimit="10" stroke-linecap="round" stroke-dasharray="1.3 1.3"/>
<path id="Vector_20" d="M266.25 0V142" stroke="black" stroke-width="0.648402" stroke-miterlimit="10" stroke-linecap="round"/>
<path id="Vector_21" d="M159.75 0V142" stroke="black" stroke-width="0.648402" stroke-miterlimit="10" stroke-linecap="round"/>
<path id="Vector_22" d="M142 17.7512H284" stroke="black" stroke-width="0.648402" stroke-miterlimit="10" stroke-linecap="round"/>
<path id="Vector_23" d="M142 124.25H284" stroke="black" stroke-width="0.648402" stroke-miterlimit="10" stroke-linecap="round"/>
</g>
</g>
</g>
<path id="Vector_24" d="M207.312 31.6053L234.104 18.1508C235.162 17.6183 236.412 17.6183 237.47 18.1508L264.258 31.6053C265.525 32.2443 266.324 33.5401 266.324 34.9565V82.1715C266.324 83.5915 265.525 84.8873 264.258 85.5227L237.47 98.9772C236.408 99.5098 235.162 99.5098 234.104 98.9772L207.312 85.5227C206.691 85.2107 206.169 84.732 205.804 84.1402C205.439 83.5484 205.246 82.8668 205.246 82.1715V34.9565C205.246 33.5365 206.049 32.2443 207.312 31.6053Z" fill="#F59552" stroke="black" stroke-width="2" stroke-linecap="round" stroke-linejoin="round"/>
<path id="Vector_25" d="M161.816 76.577L188.604 63.1225C189.662 62.59 190.912 62.59 191.97 63.1225L218.758 76.577C220.025 77.216 220.824 78.5118 220.824 79.9282V107.036C220.824 108.456 220.025 109.752 218.758 110.387L191.97 123.845C190.912 124.378 189.662 124.378 188.604 123.845L161.816 110.387C161.195 110.075 160.673 109.596 160.308 109.005C159.943 108.413 159.75 107.731 159.75 107.036V79.9282C159.75 78.5082 160.549 77.216 161.816 76.577Z" fill="#F59552" stroke="black" stroke-width="2" stroke-linecap="round" stroke-linejoin="round"/>
<g id="Group_7" opacity="0.6">
<path id="Vector_26" d="M205.829 32.9441L235.781 48.1416M235.781 48.1416L265.728 32.9441M235.781 48.1416L235.784 99.0344M160.333 77.9297L190.28 93.1272L220.228 77.9297M190.287 124.25V93.1201" stroke="black" stroke-linecap="round" stroke-linejoin="round" stroke-dasharray="2 2"/>
</g>
</g>
</g>
<g id="Frame 61">
<g id="automations-light 5" clip-path="url(#clip2_2432_3370)">
<g id="Clip path group_6">
<mask id="mask5_2432_3370" style="mask-type:luminance" maskUnits="userSpaceOnUse" x="284" y="0" width="142" height="142">
<g id="clip1_7195_157695_3">
<path id="Vector_27" d="M425.972 0.0283203V141.972H284.028V0.0283203H425.972Z" fill="white" stroke="white" stroke-width="0.0564321"/>
</g>
</mask>
<g mask="url(#mask5_2432_3370)">
<g id="Group_8" opacity="0.36">
<path id="Vector_28" d="M426 49.7017H284" stroke="black" stroke-width="0.648402" stroke-miterlimit="10" stroke-linecap="round" stroke-dasharray="1.3 1.3"/>
<path id="Vector_29" d="M426 92.2998H284" stroke="black" stroke-width="0.648402" stroke-miterlimit="10" stroke-linecap="round" stroke-dasharray="1.3 1.3"/>
<path id="Vector_30" d="M354.813 0L355 142.001" stroke="black" stroke-width="0.648402" stroke-miterlimit="10" stroke-linecap="round" stroke-dasharray="1.3 1.3"/>
<path id="Vector_31" d="M408.25 0V142" stroke="black" stroke-width="0.648402" stroke-miterlimit="10" stroke-linecap="round"/>
<path id="Vector_32" d="M301.75 0V142" stroke="black" stroke-width="0.648402" stroke-miterlimit="10" stroke-linecap="round"/>
<path id="Vector_33" d="M284 17.7512H426" stroke="black" stroke-width="0.648402" stroke-miterlimit="10" stroke-linecap="round"/>
<path id="Vector_34" d="M284 124.25H426" stroke="black" stroke-width="0.648402" stroke-miterlimit="10" stroke-linecap="round"/>
</g>
</g>
</g>
<g id="Frame 41">
<path id="Vector_35" d="M362.774 79.953V107.253C362.774 107.911 362.591 108.557 362.245 109.117C361.899 109.678 361.404 110.131 360.815 110.426L333.87 123.952C333.377 124.199 332.832 124.328 332.28 124.328C331.728 124.328 331.183 124.199 330.69 123.952L303.717 110.497C303.125 110.203 302.628 109.749 302.281 109.187C301.933 108.625 301.749 107.977 301.75 107.316V79.9601C301.75 79.3031 301.932 78.6589 302.276 78.0992C302.62 77.5395 303.113 77.0863 303.699 76.79L314.956 71.1064L330.69 78.9768C331.183 79.2241 331.728 79.3529 332.28 79.3529C332.832 79.3529 333.377 79.2241 333.87 78.9768L347.083 72.3525L349.604 71.0745L360.836 76.7935C361.42 77.0907 361.909 77.5435 362.251 78.1017C362.593 78.6599 362.774 79.3019 362.774 79.9566V79.953Z" fill="#F0744B" stroke="black" stroke-width="2" stroke-linecap="round" stroke-linejoin="round"/>
<path id="Vector_36" d="M362.774 34.9424V47.6372L349.036 54.5704C348.449 54.8662 347.956 55.3192 347.611 55.879C347.266 56.4387 347.084 57.0832 347.083 57.7405V72.3452L333.87 78.9695C333.377 79.2169 332.832 79.3457 332.28 79.3457C331.728 79.3457 331.183 79.2169 330.69 78.9695L314.956 71.1063L303.713 65.4831C303.124 65.1885 302.628 64.7355 302.281 64.175C301.934 63.6145 301.75 62.9685 301.75 62.3094V34.9495C301.75 34.2922 301.933 33.6477 302.277 33.088C302.622 32.5282 303.115 32.0752 303.703 31.7794L330.782 18.1296C331.279 17.8793 331.829 17.7495 332.386 17.7507C332.942 17.752 333.491 17.8842 333.988 18.1367L360.833 31.7758C361.417 32.0728 361.908 32.5259 362.251 33.0849C362.594 33.6438 362.775 34.2868 362.774 34.9424Z" fill="#F0744B" stroke="black" stroke-width="2" stroke-linecap="round" stroke-linejoin="round"/>
<path id="Vector_37" d="M408.108 57.7298V83.9998C408.108 84.658 407.924 85.303 407.578 85.8628C407.232 86.4226 406.737 86.8752 406.149 87.17L379.204 100.692C378.71 100.939 378.166 101.068 377.614 101.068C377.062 101.068 376.517 100.939 376.023 100.692L362.775 94.0676V81.7243C362.774 81.0698 362.592 80.4284 362.249 79.8708C361.906 79.3133 361.416 78.8613 360.833 78.5648L349.604 72.8386L347.084 71.5606V57.7369C347.084 57.0796 347.266 56.4351 347.611 55.8754C347.956 55.3156 348.449 54.8626 349.036 54.5668L362.775 47.6336L376.08 40.917C376.577 40.6662 377.127 40.5358 377.683 40.5364C378.24 40.537 378.789 40.6686 379.286 40.9206L406.163 54.5668C406.747 54.863 407.239 55.3154 407.582 55.8737C407.925 56.432 408.108 57.0744 408.108 57.7298Z" fill="#F0744B" stroke="black" stroke-width="2" stroke-linecap="round" stroke-linejoin="round"/>
<g id="Group_9" opacity="0.6">
<path id="Vector_38" d="M332.283 123.423L332.237 93.2554L302.737 78.2673M332.23 93.2519L361.592 78.3632" stroke="black" stroke-linecap="round" stroke-linejoin="round" stroke-dasharray="2 2"/>
</g>
<g id="Group_10" opacity="0.6">
<path id="Vector_39" d="M332.279 78.2423L332.233 48.2519L303.261 33.53M332.229 48.2554L361.144 33.5939" stroke="black" stroke-linecap="round" stroke-linejoin="round" stroke-dasharray="2 2"/>
</g>
<g id="Group_11" opacity="0.6">
<path id="Vector_40" d="M377.595 100.632L377.546 71.0459L348.358 56.214M377.549 71.0423L406.862 56.1785" stroke="black" stroke-linecap="round" stroke-linejoin="round" stroke-dasharray="2 2"/>
</g>
</g>
</g>
<g id="apps-light 1" clip-path="url(#clip3_2432_3370)">
<g id="Clip path group_7">
<mask id="mask6_2432_3370" style="mask-type:luminance" maskUnits="userSpaceOnUse" x="426" y="0" width="142" height="142">
<g id="clip1_7195_157695_4">
<path id="Vector_41" d="M567.971 0.0292969V141.971H426.029V0.0292969H567.971Z" fill="white" stroke="white" stroke-width="0.0588165"/>
</g>
</mask>
<g mask="url(#mask6_2432_3370)">
<g id="Group_12" opacity="0.36">
<path id="Vector_42" d="M568 49.7017H426" stroke="black" stroke-width="0.675799" stroke-miterlimit="10" stroke-linecap="round" stroke-dasharray="1.35 1.35"/>
<path id="Vector_43" d="M568 92.2998H426" stroke="black" stroke-width="0.675799" stroke-miterlimit="10" stroke-linecap="round" stroke-dasharray="1.35 1.35"/>
<path id="Vector_44" d="M496.813 0L497 142.001" stroke="black" stroke-width="0.675799" stroke-miterlimit="10" stroke-linecap="round" stroke-dasharray="1.35 1.35"/>
<path id="Vector_45" d="M550.25 0V142" stroke="black" stroke-width="0.675799" stroke-miterlimit="10" stroke-linecap="round"/>
<path id="Vector_46" d="M443.75 0V142" stroke="black" stroke-width="0.675799" stroke-miterlimit="10" stroke-linecap="round"/>
<path id="Vector_47" d="M426 17.7512H568" stroke="black" stroke-width="0.675799" stroke-miterlimit="10" stroke-linecap="round"/>
<path id="Vector_48" d="M426 124.25H568" stroke="black" stroke-width="0.675799" stroke-miterlimit="10" stroke-linecap="round"/>
</g>
</g>
</g>
<g id="Clip path group_8">
<mask id="mask7_2432_3370" style="mask-type:luminance" maskUnits="userSpaceOnUse" x="426" y="0" width="142" height="142">
<g id="clip0_6797_157070">
<path id="Vector_49" d="M567.662 0.337891V141.662H426.338V0.337891H567.662Z" fill="white" stroke="white" stroke-width="0.675799"/>
</g>
</mask>
<g mask="url(#mask7_2432_3370)">
<g id="Group_13">
<path id="Vector_50" d="M456.137 66.2376L478.672 54.917C479.563 54.4694 480.613 54.4694 481.504 54.917L504.039 66.2376C505.104 66.773 505.776 67.8632 505.776 69.0556V91.8598C505.776 93.0518 505.104 94.1424 504.039 94.6774L481.504 105.998C480.613 106.446 479.563 106.446 478.672 105.998L456.137 94.6774C455.072 94.1424 454.4 93.0522 454.4 91.8598V69.0556C454.4 67.8635 455.072 66.773 456.137 66.2376Z" fill="#838383" stroke="black" stroke-width="2" stroke-linecap="round" stroke-linejoin="round"/>
<g id="Group_14" opacity="0.6">
<path id="Vector_51" d="M454.899 67.3735L480.091 80.1585L505.283 67.3735" stroke="black" stroke-linecap="round" stroke-linejoin="round" stroke-dasharray="2 2"/>
<path id="Vector_52" d="M480.089 106.339V80.1521" stroke="black" stroke-linecap="round" stroke-linejoin="round" stroke-dasharray="2 2"/>
</g>
<path id="Vector_53" d="M492.539 87.704L515.074 76.3831C515.964 75.9358 517.014 75.9358 517.905 76.3831L540.44 87.704C541.505 88.239 542.178 89.3296 542.178 90.522V113.326C542.178 114.518 541.505 115.608 540.44 116.144L517.905 127.465C517.014 127.912 515.964 127.912 515.074 127.465L492.539 116.144C491.473 115.608 490.801 114.518 490.801 113.326V90.522C490.801 89.3296 491.473 88.239 492.539 87.704Z" fill="#838383" stroke="black" stroke-width="2" stroke-linecap="round" stroke-linejoin="round"/>
<g id="Group_15" opacity="0.6">
<path id="Vector_54" d="M491.293 88.8401L516.485 101.625L541.677 88.8401" stroke="black" stroke-linecap="round" stroke-linejoin="round" stroke-dasharray="2 2"/>
<path id="Vector_55" d="M516.483 127.805V101.618" stroke="black" stroke-linecap="round" stroke-linejoin="round" stroke-dasharray="2 2"/>
</g>
<path id="Vector_56" d="M456.137 25.8565L478.672 14.5356C479.563 14.0881 480.613 14.0881 481.504 14.5356L504.039 25.8565C505.104 26.3916 505.776 27.4819 505.776 28.6743V51.4785C505.776 52.6706 505.104 53.7612 504.039 54.2961L481.504 65.6171C480.613 66.0648 479.563 66.0648 478.672 65.6171L456.137 54.2961C455.072 53.7612 454.4 52.671 454.4 51.4785V28.6743C454.4 27.4821 455.072 26.3916 456.137 25.8565Z" fill="#838383" stroke="black" stroke-width="2" stroke-linecap="round" stroke-linejoin="round"/>
<g id="Group_16" opacity="0.6">
<path id="Vector_57" d="M454.899 26.9854L480.091 39.7701L505.283 26.9854" stroke="black" stroke-linecap="round" stroke-linejoin="round" stroke-dasharray="2 2"/>
<path id="Vector_58" d="M480.089 65.9505V39.7639" stroke="black" stroke-linecap="round" stroke-linejoin="round" stroke-dasharray="2 2"/>
</g>
<path id="Vector_59" d="M492.539 45.3326L515.074 34.0119C515.964 33.5644 517.014 33.5644 517.905 34.0119L540.44 45.3326C541.505 45.8679 542.178 46.9581 542.178 48.1506V70.9547C542.178 72.1468 541.505 73.2374 540.44 73.7724L517.905 85.0933C517.014 85.541 515.964 85.541 515.074 85.0933L492.539 73.7724C491.473 73.2374 490.801 72.1472 490.801 70.9547V48.1506C490.801 46.9585 491.473 45.8679 492.539 45.3326Z" fill="#838383" stroke="black" stroke-width="2" stroke-linecap="round" stroke-linejoin="round"/>
<g id="Group_17" opacity="0.6">
<path id="Vector_60" d="M491.293 46.4685L516.485 59.2535L541.677 46.4685" stroke="black" stroke-linecap="round" stroke-linejoin="round" stroke-dasharray="2 2"/>
<path id="Vector_61" d="M516.483 85.4335V59.2473" stroke="black" stroke-linecap="round" stroke-linejoin="round" stroke-dasharray="2 2"/>
</g>
</g>
</g>
</g>
</g>
</g>
</g>
</g>
</g>
</g>
<defs>
<clipPath id="clip0_2432_3370">
<rect width="142" height="142" fill="white"/>
</clipPath>
<clipPath id="clip1_2432_3370">
<rect width="142" height="142" fill="white" transform="translate(142)"/>
</clipPath>
<clipPath id="clip2_2432_3370">
<rect width="142" height="142" fill="white" transform="translate(284)"/>
</clipPath>
<clipPath id="clip3_2432_3370">
<rect width="142" height="142" fill="white" transform="translate(426)"/>
</clipPath>
</defs>
</svg>
