<svg width="568" height="142" viewBox="0 0 568 142" fill="none" xmlns="http://www.w3.org/2000/svg">
<g id="Attio Layout Scaffold">
<g id="CTA">
<mask id="path-1-inside-1_2432_3370" fill="white">
<path d="M-356 -279H924V418H-356V-279Z"/>
</mask>
<g id="StripeThumbnail">
<g id="Frame 60">
<g id="developers-light 3" clip-path="url(#clip0_2432_3370)">
<g id="Clip path group">
<mask id="mask0_2432_3370" style="mask-type:luminance" maskUnits="userSpaceOnUse" x="0" y="0" width="142" height="142">
<g id="clip1_7195_157695">
<path id="Vector" d="M142 0H0V142H142V0Z" fill="white"/>
</g>
</mask>
<g mask="url(#mask0_2432_3370)">
<g id="Group" opacity="0.36">
<path id="Vector_2" d="M142 49.7021H0" stroke="white" stroke-width="0.648402" stroke-miterlimit="10" stroke-linecap="round" stroke-dasharray="1.3 1.3"/>
<path id="Vector_3" d="M142 92.2998H0" stroke="white" stroke-width="0.648402" stroke-miterlimit="10" stroke-linecap="round" stroke-dasharray="1.3 1.3"/>
<path id="Vector_4" d="M70.8132 0L71.0003 142.001" stroke="white" stroke-width="0.648402" stroke-miterlimit="10" stroke-linecap="round" stroke-dasharray="1.3 1.3"/>
<path id="Vector_5" d="M124.25 0V142" stroke="white" stroke-width="0.648402" stroke-miterlimit="10" stroke-linecap="round"/>
<path id="Vector_6" d="M17.7496 0V142" stroke="white" stroke-width="0.648402" stroke-miterlimit="10" stroke-linecap="round"/>
<path id="Vector_7" d="M0 17.751H142" stroke="white" stroke-width="0.648402" stroke-miterlimit="10" stroke-linecap="round"/>
<path id="Vector_8" d="M0 124.25H142" stroke="white" stroke-width="0.648402" stroke-miterlimit="10" stroke-linecap="round"/>
</g>
</g>
</g>
<g id="Clip path group_2">
<mask id="mask1_2432_3370" style="mask-type:luminance" maskUnits="userSpaceOnUse" x="0" y="0" width="142" height="142">
<g id="clip0_7330_157875">
<path id="Vector_9" d="M142 0H0V142H142V0Z" fill="white"/>
</g>
</mask>
<g mask="url(#mask1_2432_3370)">
<g id="Group_2">
<g id="Clip path group_3">
<mask id="mask2_2432_3370" style="mask-type:luminance" maskUnits="userSpaceOnUse" x="0" y="0" width="142" height="142">
<g id="clip1_7330_157875">
<path id="Vector_10" d="M142 0H0V142H142V0Z" fill="white"/>
</g>
</mask>
<g mask="url(#mask2_2432_3370)">
<g id="Group_3">
<g id="Clip path group_4">
<mask id="mask3_2432_3370" style="mask-type:luminance" maskUnits="userSpaceOnUse" x="0" y="0" width="142" height="142">
<g id="clip2_7330_157875">
<path id="Vector_11" d="M140.533 1.4668V140.533H1.4668V1.4668H140.533Z" fill="white" stroke="white" stroke-width="2.93402"/>
</g>
</mask>
<g mask="url(#mask3_2432_3370)">
<g id="Group_4">
<path id="Vector_12" d="M34.598 49.5369L68.8466 32.4566C70.2002 31.7814 71.7962 31.7814 73.1495 32.4566L107.398 49.5369C109.017 50.3445 110.039 51.9892 110.039 53.7884V88.1943C110.039 89.993 109.017 91.6385 107.398 92.4457L73.1495 109.526C71.7962 110.201 70.2002 110.201 68.8466 109.526L34.598 92.4457C32.979 91.6385 31.9569 89.9934 31.9569 88.1943V53.7884C31.9569 51.9899 32.979 50.3445 34.598 49.5369Z" fill="#EDC77F" stroke="black" stroke-width="2" stroke-linecap="round" stroke-linejoin="round"/>
<g id="Group_5" opacity="0.6">
<path id="Vector_13" d="M32.7058 50.5391L71.42 70.1862L110.135 50.5391" stroke="black" stroke-linecap="round" stroke-linejoin="round" stroke-dasharray="2 2"/>
<path id="Vector_14" d="M71.4092 110.417V70.1748" stroke="black" stroke-linecap="round" stroke-linejoin="round" stroke-dasharray="2 2"/>
</g>
<path id="Vector_15" opacity="0.6" d="M66.4212 19.93L23.8212 40.2158C20.1125 41.982 17.75 45.7233 17.75 49.8314V92.168C17.75 96.276 20.1125 100.017 23.8212 101.783L66.4212 122.069C69.318 123.449 72.682 123.449 75.5788 122.069L118.179 101.783C121.887 100.017 124.25 96.276 124.25 92.168V49.8314C124.25 45.7233 121.887 41.982 118.179 40.2158L75.5788 19.93C72.682 18.5507 69.318 18.5507 66.4212 19.93Z" stroke="white" stroke-width="1.2968" stroke-linecap="round" stroke-linejoin="round" stroke-dasharray="4.69 4.69"/>
</g>
</g>
</g>
</g>
</g>
</g>
</g>
</g>
</g>
</g>
<g id="reporting-light 2" clip-path="url(#clip1_2432_3370)">
<g id="Clip path group_5">
<mask id="mask4_2432_3370" style="mask-type:luminance" maskUnits="userSpaceOnUse" x="142" y="0" width="142" height="142">
<g id="clip1_7195_157695_2">
<path id="Vector_16" d="M284 0H142V142H284V0Z" fill="white"/>
</g>
</mask>
<g mask="url(#mask4_2432_3370)">
<g id="Group_6" opacity="0.36">
<path id="Vector_17" d="M284 49.7021H142" stroke="white" stroke-width="0.648402" stroke-miterlimit="10" stroke-linecap="round" stroke-dasharray="1.3 1.3"/>
<path id="Vector_18" d="M284 92.2998H142" stroke="white" stroke-width="0.648402" stroke-miterlimit="10" stroke-linecap="round" stroke-dasharray="1.3 1.3"/>
<path id="Vector_19" d="M212.813 0L213 142.001" stroke="white" stroke-width="0.648402" stroke-miterlimit="10" stroke-linecap="round" stroke-dasharray="1.3 1.3"/>
<path id="Vector_20" d="M266.25 0V142" stroke="white" stroke-width="0.648402" stroke-miterlimit="10" stroke-linecap="round"/>
<path id="Vector_21" d="M159.75 0V142" stroke="white" stroke-width="0.648402" stroke-miterlimit="10" stroke-linecap="round"/>
<path id="Vector_22" d="M142 17.751H284" stroke="white" stroke-width="0.648402" stroke-miterlimit="10" stroke-linecap="round"/>
<path id="Vector_23" d="M142 124.25H284" stroke="white" stroke-width="0.648402" stroke-miterlimit="10" stroke-linecap="round"/>
</g>
</g>
</g>
<g id="Frame 1533208917">
<path id="Vector_24" d="M207.306 39.2025L234.098 25.748C235.156 25.2155 236.405 25.2155 237.463 25.748L264.251 39.2025C265.519 39.8415 266.317 41.1373 266.317 42.5537V89.7687C266.317 91.1887 265.519 92.4845 264.251 93.1199L237.463 106.574C236.402 107.107 235.156 107.107 234.098 106.574L207.306 93.1199C206.685 92.8078 206.162 92.3292 205.797 91.7374C205.433 91.1456 205.24 90.464 205.24 89.7687V42.5537C205.24 41.1337 206.042 39.8415 207.306 39.2025Z" fill="#F59552" stroke="black" stroke-width="2" stroke-linecap="round" stroke-linejoin="round"/>
<path id="Vector_25" d="M161.81 84.1732L188.598 70.7187C189.656 70.1862 190.905 70.1862 191.963 70.7187L218.752 84.1732C220.019 84.8122 220.818 86.108 220.818 87.5244V114.632C220.818 116.052 220.019 117.348 218.752 117.983L191.963 131.441C190.905 131.974 189.656 131.974 188.598 131.441L161.81 117.983C161.188 117.671 160.666 117.193 160.301 116.601C159.936 116.009 159.743 115.327 159.743 114.632V87.5244C159.743 86.1044 160.542 84.8122 161.81 84.1732Z" fill="#F59552" stroke="black" stroke-width="2" stroke-linecap="round" stroke-linejoin="round"/>
<g id="Group_7" opacity="0.6">
<path id="Vector_26" d="M205.823 40.541L235.774 55.7386M235.774 55.7386L265.722 40.541M235.774 55.7386L235.778 106.631M160.326 85.5266L190.274 100.724L220.222 85.5266M190.281 131.847V100.717" stroke="black" stroke-linecap="round" stroke-linejoin="round" stroke-dasharray="2 2"/>
</g>
</g>
</g>
</g>
<g id="Frame 61">
<g id="automations-light 5" clip-path="url(#clip2_2432_3370)">
<g id="Clip path group_6">
<mask id="mask5_2432_3370" style="mask-type:luminance" maskUnits="userSpaceOnUse" x="284" y="0" width="142" height="142">
<g id="clip1_7195_157695_3">
<path id="Vector_27" d="M426 0H284V142H426V0Z" fill="white"/>
</g>
</mask>
<g mask="url(#mask5_2432_3370)">
<g id="Group_8" opacity="0.36">
<path id="Vector_28" d="M426 49.7021H284" stroke="white" stroke-width="0.648402" stroke-miterlimit="10" stroke-linecap="round" stroke-dasharray="1.3 1.3"/>
<path id="Vector_29" d="M426 92.2998H284" stroke="white" stroke-width="0.648402" stroke-miterlimit="10" stroke-linecap="round" stroke-dasharray="1.3 1.3"/>
<path id="Vector_30" d="M354.813 0L355 142.001" stroke="white" stroke-width="0.648402" stroke-miterlimit="10" stroke-linecap="round" stroke-dasharray="1.3 1.3"/>
<path id="Vector_31" d="M408.25 0V142" stroke="white" stroke-width="0.648402" stroke-miterlimit="10" stroke-linecap="round"/>
<path id="Vector_32" d="M301.75 0V142" stroke="white" stroke-width="0.648402" stroke-miterlimit="10" stroke-linecap="round"/>
<path id="Vector_33" d="M284 17.751H426" stroke="white" stroke-width="0.648402" stroke-miterlimit="10" stroke-linecap="round"/>
<path id="Vector_34" d="M284 124.25H426" stroke="white" stroke-width="0.648402" stroke-miterlimit="10" stroke-linecap="round"/>
</g>
</g>
</g>
<g id="Frame 42">
<path id="Vector_35" d="M362.774 79.9537V107.253C362.774 107.912 362.591 108.558 362.245 109.118C361.899 109.679 361.404 110.132 360.815 110.427L333.87 123.952C333.377 124.2 332.832 124.329 332.28 124.329C331.728 124.329 331.183 124.2 330.69 123.952L303.717 110.498C303.125 110.203 302.628 109.749 302.281 109.188C301.933 108.626 301.749 107.978 301.75 107.317V79.9608C301.75 79.3038 301.932 78.6596 302.276 78.0999C302.62 77.5402 303.113 77.087 303.699 76.7907L314.956 71.1071L330.69 78.9775C331.183 79.2249 331.728 79.3537 332.28 79.3537C332.832 79.3537 333.377 79.2249 333.87 78.9775L347.083 72.3532L349.604 71.0752L360.836 76.7942C361.42 77.0915 361.909 77.5442 362.251 78.1024C362.593 78.6607 362.774 79.3026 362.774 79.9573V79.9537Z" fill="#F0744B" stroke="black" stroke-width="2" stroke-linecap="round" stroke-linejoin="round"/>
<path id="Vector_36" d="M362.774 34.9427V47.6375L349.036 54.5706C348.449 54.8664 347.956 55.3195 347.611 55.8792C347.266 56.4389 347.084 57.0834 347.083 57.7408V72.3455L333.87 78.9698C333.377 79.2172 332.832 79.346 332.28 79.346C331.728 79.346 331.183 79.2172 330.69 78.9698L314.956 71.1065L303.713 65.4833C303.124 65.1887 302.628 64.7358 302.281 64.1752C301.934 63.6147 301.75 62.9687 301.75 62.3096V34.9498C301.75 34.2924 301.933 33.6479 302.277 33.0882C302.622 32.5285 303.115 32.0754 303.703 31.7796L330.782 18.1299C331.279 17.8795 331.829 17.7498 332.386 17.751C332.942 17.7522 333.491 17.8844 333.988 18.137L360.833 31.7761C361.417 32.0731 361.908 32.5262 362.251 33.0851C362.594 33.6441 362.775 34.287 362.774 34.9427Z" fill="#F0744B" stroke="black" stroke-width="2" stroke-linecap="round" stroke-linejoin="round"/>
<path id="Vector_37" d="M408.108 57.7296V83.9996C408.108 84.6577 407.924 85.3027 407.578 85.8625C407.232 86.4223 406.737 86.8749 406.149 87.1698L379.204 100.692C378.71 100.939 378.166 101.068 377.614 101.068C377.062 101.068 376.517 100.939 376.023 100.692L362.775 94.0674V81.7241C362.774 81.0696 362.592 80.4281 362.249 79.8706C361.906 79.313 361.416 78.861 360.833 78.5646L349.604 72.8384L347.084 71.5604V57.7367C347.084 57.0793 347.266 56.4349 347.611 55.8751C347.956 55.3154 348.449 54.8624 349.036 54.5666L362.775 47.6334L376.08 40.9168C376.577 40.6659 377.127 40.5355 377.683 40.5361C378.24 40.5368 378.789 40.6684 379.286 40.9204L406.163 54.5666C406.747 54.8628 407.239 55.3151 407.582 55.8734C407.925 56.4317 408.108 57.0742 408.108 57.7296Z" fill="#F0744B" stroke="black" stroke-width="2" stroke-linecap="round" stroke-linejoin="round"/>
<g id="Group_9" opacity="0.6">
<path id="Vector_38" d="M332.283 123.424L332.237 93.2557L302.737 78.2676M332.23 93.2521L361.592 78.3634" stroke="black" stroke-linecap="round" stroke-linejoin="round" stroke-dasharray="2 2"/>
</g>
<g id="Group_10" opacity="0.6">
<path id="Vector_39" d="M332.279 78.2425L332.233 48.2521L303.261 33.5303M332.229 48.2557L361.144 33.5942" stroke="black" stroke-linecap="round" stroke-linejoin="round" stroke-dasharray="2 2"/>
</g>
<g id="Group_11" opacity="0.6">
<path id="Vector_40" d="M377.595 100.632L377.546 71.0461L348.358 56.2142M377.549 71.0426L406.862 56.1787" stroke="black" stroke-linecap="round" stroke-linejoin="round" stroke-dasharray="2 2"/>
</g>
</g>
</g>
<g id="apps-light 1" clip-path="url(#clip3_2432_3370)">
<g id="Clip path group_7">
<mask id="mask6_2432_3370" style="mask-type:luminance" maskUnits="userSpaceOnUse" x="426" y="0" width="142" height="142">
<g id="clip1_7195_157695_4">
<path id="Vector_41" d="M568 0H426V142H568V0Z" fill="white"/>
</g>
</mask>
<g mask="url(#mask6_2432_3370)">
<g id="Group_12" opacity="0.36">
<path id="Vector_42" d="M568 49.7021H426" stroke="white" stroke-width="0.675799" stroke-miterlimit="10" stroke-linecap="round" stroke-dasharray="1.35 1.35"/>
<path id="Vector_43" d="M568 92.2998H426" stroke="white" stroke-width="0.675799" stroke-miterlimit="10" stroke-linecap="round" stroke-dasharray="1.35 1.35"/>
<path id="Vector_44" d="M496.813 0L497 142.001" stroke="white" stroke-width="0.675799" stroke-miterlimit="10" stroke-linecap="round" stroke-dasharray="1.35 1.35"/>
<path id="Vector_45" d="M550.25 0V142" stroke="white" stroke-width="0.675799" stroke-miterlimit="10" stroke-linecap="round"/>
<path id="Vector_46" d="M443.75 0V142" stroke="white" stroke-width="0.675799" stroke-miterlimit="10" stroke-linecap="round"/>
<path id="Vector_47" d="M426 17.751H568" stroke="white" stroke-width="0.675799" stroke-miterlimit="10" stroke-linecap="round"/>
<path id="Vector_48" d="M426 124.25H568" stroke="white" stroke-width="0.675799" stroke-miterlimit="10" stroke-linecap="round"/>
</g>
</g>
</g>
<g id="Clip path group_8">
<mask id="mask7_2432_3370" style="mask-type:luminance" maskUnits="userSpaceOnUse" x="426" y="0" width="142" height="142">
<g id="clip0_6797_157070">
<path id="Vector_49" d="M567.662 0.337891V141.662H426.338V0.337891H567.662Z" fill="white" stroke="white" stroke-width="0.675799"/>
</g>
</mask>
<g mask="url(#mask7_2432_3370)">
<g id="Group_13">
<path id="Vector_50" d="M456.137 66.2374L478.672 54.9168C479.563 54.4691 480.613 54.4691 481.504 54.9168L504.039 66.2374C505.104 66.7727 505.776 67.8629 505.776 69.0554V91.8595C505.776 93.0516 505.104 94.1422 504.039 94.6772L481.504 105.998C480.613 106.446 479.563 106.446 478.672 105.998L456.137 94.6772C455.072 94.1422 454.4 93.052 454.4 91.8595V69.0554C454.4 67.8633 455.072 66.7727 456.137 66.2374Z" fill="#838383" stroke="black" stroke-width="2" stroke-linecap="round" stroke-linejoin="round"/>
<g id="Group_14" opacity="0.6">
<path id="Vector_51" d="M454.899 67.374L480.091 80.159L505.283 67.374" stroke="black" stroke-linecap="round" stroke-linejoin="round" stroke-dasharray="2 2"/>
<path id="Vector_52" d="M480.089 106.339V80.1523" stroke="black" stroke-linecap="round" stroke-linejoin="round" stroke-dasharray="2 2"/>
</g>
<path id="Vector_53" d="M492.539 87.7043L515.074 76.3833C515.964 75.936 517.014 75.936 517.905 76.3833L540.44 87.7043C541.505 88.2393 542.178 89.3298 542.178 90.5223V113.326C542.178 114.518 541.505 115.609 540.44 116.144L517.905 127.465C517.014 127.912 515.964 127.912 515.074 127.465L492.539 116.144C491.473 115.609 490.801 114.518 490.801 113.326V90.5223C490.801 89.3298 491.473 88.2393 492.539 87.7043Z" fill="#838383" stroke="black" stroke-width="2" stroke-linecap="round" stroke-linejoin="round"/>
<g id="Group_15" opacity="0.6">
<path id="Vector_54" d="M491.293 88.8398L516.485 101.624L541.677 88.8398" stroke="black" stroke-linecap="round" stroke-linejoin="round" stroke-dasharray="2 2"/>
<path id="Vector_55" d="M516.483 127.805V101.618" stroke="black" stroke-linecap="round" stroke-linejoin="round" stroke-dasharray="2 2"/>
</g>
<path id="Vector_56" d="M456.137 25.8567L478.672 14.5359C479.563 14.0883 480.613 14.0883 481.504 14.5359L504.039 25.8567C505.104 26.3918 505.776 27.4821 505.776 28.6745V51.4788C505.776 52.6708 505.104 53.7614 504.039 54.2964L481.504 65.6173C480.613 66.065 479.563 66.065 478.672 65.6173L456.137 54.2964C455.072 53.7614 454.4 52.6712 454.4 51.4788V28.6745C454.4 27.4824 455.072 26.3918 456.137 25.8567Z" fill="#838383" stroke="black" stroke-width="2" stroke-linecap="round" stroke-linejoin="round"/>
<g id="Group_16" opacity="0.6">
<path id="Vector_57" d="M454.899 26.9854L480.091 39.7701L505.283 26.9854" stroke="black" stroke-linecap="round" stroke-linejoin="round" stroke-dasharray="2 2"/>
<path id="Vector_58" d="M480.089 65.9502V39.7637" stroke="black" stroke-linecap="round" stroke-linejoin="round" stroke-dasharray="2 2"/>
</g>
<path id="Vector_59" d="M492.539 45.3331L515.074 34.0124C515.964 33.5649 517.014 33.5649 517.905 34.0124L540.44 45.3331C541.505 45.8684 542.178 46.9586 542.178 48.1511V70.9552C542.178 72.1473 541.505 73.2379 540.44 73.7728L517.905 85.0938C517.014 85.5414 515.964 85.5414 515.074 85.0938L492.539 73.7728C491.473 73.2379 490.801 72.1477 490.801 70.9552V48.1511C490.801 46.959 491.473 45.8684 492.539 45.3331Z" fill="#838383" stroke="black" stroke-width="2" stroke-linecap="round" stroke-linejoin="round"/>
<g id="Group_17" opacity="0.6">
<path id="Vector_60" d="M491.293 46.4688L516.485 59.2537L541.677 46.4688" stroke="black" stroke-linecap="round" stroke-linejoin="round" stroke-dasharray="2 2"/>
<path id="Vector_61" d="M516.483 85.4343V59.248" stroke="black" stroke-linecap="round" stroke-linejoin="round" stroke-dasharray="2 2"/>
</g>
</g>
</g>
</g>
</g>
</g>
</g>
</g>
</g>
<defs>
<clipPath id="clip0_2432_3370">
<rect width="142" height="142" fill="white"/>
</clipPath>
<clipPath id="clip1_2432_3370">
<rect width="142" height="142" fill="white" transform="translate(142)"/>
</clipPath>
<clipPath id="clip2_2432_3370">
<rect width="142" height="142" fill="white" transform="translate(284)"/>
</clipPath>
<clipPath id="clip3_2432_3370">
<rect width="142" height="142" fill="white" transform="translate(426)"/>
</clipPath>
</defs>
</svg>
