<svg width="110" height="11" viewBox="0 0 110 11" fill="none" xmlns="http://www.w3.org/2000/svg">
<path opacity="0.64" d="M109.252 9.63858C108.802 9.49525 108.353 9.31362 107.878 9.55312C107.68 9.6561 107.492 9.60595 107.263 9.59171C105.122 9.49705 102.947 9.36173 100.771 9.22642C98.2895 9.07211 95.8464 8.92018 93.3628 8.80415C90.4998 8.62611 87.6344 8.48634 84.769 8.34658C82.0945 8.21869 79.4223 8.05251 76.7454 7.9629C73.4958 7.83768 70.2463 7.71246 66.9943 7.62553C63.4369 7.5196 59.8771 7.45196 56.3173 7.38431C51.9892 7.34576 47.6968 7.34786 43.3996 7.42653C37.184 7.53964 30.9636 7.72931 24.7334 8.07212C24.428 8.05313 24.0772 8.14661 23.6622 8.04393C23.8579 7.97923 23.9366 7.9457 24.0154 7.91216C24.2469 7.88812 24.4426 7.82342 24.6359 7.79701C40.5678 4.94434 56.599 2.94341 72.6718 2.0981C79.7061 1.76687 86.7257 1.66533 93.7593 1.949C94.0289 1.92734 94.2961 1.94396 94.5276 1.91992C94.9166 1.8288 95.1245 1.57269 95.1869 1.19222C95.2088 0.847672 95.0373 0.529534 94.6986 0.4316C94.4363 0.338414 94.1715 0.283513 93.9425 0.269271C92.1914 0.0835011 90.4281 0.0891501 88.6649 0.0947976C86.2121 0.0959991 83.7544 0.173768 81.3065 0.0984007C75.5254 0.00792046 69.7037 -0.046653 63.9104 0.0542844C56.8884 0.194104 49.8923 0.527718 42.8865 1.01447C32.5664 1.79474 22.2722 2.76881 11.978 3.74288C8.62297 4.07231 5.30125 4.48069 1.95592 4.65699C1.6481 4.67628 1.34272 4.65729 1.03248 4.71487C0.526518 4.83714 0.199279 5.1627 0.0507643 5.69155C-0.200807 6.63678 0.514087 7.44993 1.48055 7.31786C2.06286 7.20033 2.64759 7.04452 3.26565 6.96766C9.22442 6.06988 15.1808 5.2104 21.1274 4.50404C34.1755 3.00942 47.2522 1.67031 60.3468 1.25475C61.3824 1.24228 62.4252 1.11496 63.4534 1.21734C63.2837 1.47583 62.9832 1.38027 62.7899 1.40668C51.725 2.44812 40.7479 3.9178 29.7465 5.77032C24.5179 6.63663 19.282 7.61779 14.0079 8.59658C13.6976 8.65415 13.3874 8.71173 13.0747 8.80759C12.8002 8.90582 12.6712 9.1284 12.6136 9.4323C12.5941 9.73856 12.7347 9.93948 12.954 10.1069C13.1352 10.2719 13.326 10.2837 13.5169 10.2956C13.8247 10.2763 14.0943 10.2546 14.364 10.233C16.9052 10.0451 19.4108 9.81658 21.9139 9.62633C28.001 9.12089 34.0761 8.80687 40.182 8.61007C44.7131 8.46908 49.2776 8.40703 53.8371 8.42155C56.8625 8.45596 59.8903 8.45208 62.9133 8.52477C65.8981 8.59509 68.8828 8.66541 71.8652 8.77401C74.8857 8.88498 77.8656 9.03187 80.8837 9.18113C83.7873 9.32326 86.729 9.46778 89.6683 9.65057C92.2259 9.80963 94.8217 9.97105 97.4175 10.1325C100.433 10.32 103.489 10.4717 106.543 10.6616C106.963 10.6877 107.424 10.6779 107.839 10.7806C108.251 10.9215 108.676 10.8711 109.06 10.8565C109.447 10.8037 109.65 10.6242 109.705 10.3586C109.763 10.0547 109.591 9.73652 109.252 9.63858ZM64.1096 1.14284C64.1478 1.14522 64.1478 1.14522 64.1478 1.14522L64.1096 1.14284C63.9042 1.36068 63.7158 1.31052 63.4916 1.21971C63.6922 1.07845 63.9115 1.24583 64.1096 1.14284Z" fill="#56CCF2"/>
</svg>
