<svg width="35" height="33" viewBox="0 0 35 33" fill="none" xmlns="http://www.w3.org/2000/svg">
<path d="M8.90701 0.715815L9.59662 0.711823L9.60181 1.35458L10.2487 1.35777L10.8822 1.36161C10.8848 1.57251 10.8862 1.78342 10.8862 1.99434L11.5414 2.00183L11.5376 2.70825L12.1788 2.70937L12.8893 2.7082C12.8897 2.91272 12.8836 3.15315 12.8911 3.35442L13.5357 3.3558L14.1791 3.35387C14.1792 3.52309 14.17 3.84178 14.1832 3.99901L14.8245 4.0003C15.0057 4.00159 15.2952 3.99537 15.4672 4.01068C15.4675 4.18348 15.4584 4.48267 15.4702 4.64525L16.1798 4.64435L16.1782 5.29349L16.8147 5.29252L16.8395 13.1623C17.2306 13.1323 17.6671 13.1338 18.0618 13.1392C18.0788 13.0108 18.0941 12.8821 18.1075 12.7532C18.1173 13.0293 18.1322 13.5739 18.1133 13.8472C18.3359 13.858 18.5329 13.8592 18.7557 13.8573L19.4681 13.8612L19.4661 14.5037L20.1163 14.5025C20.3079 14.5034 20.5681 14.4976 20.7539 14.5104L20.7545 15.1467L21.4032 15.1496L21.3972 15.794C21.5835 15.7895 21.8712 15.7736 22.0475 15.8079C22.0442 15.9798 22.0304 16.2702 22.0415 16.4331L22.7551 16.436L23.3991 16.4362C23.6084 16.4377 23.8387 16.4341 24.046 16.4412L24.0429 17.0808L24.6632 17.0815L24.6808 17.0755C24.83 17.0777 25.2092 17.0754 25.3375 17.0996C25.3329 17.3224 25.3261 17.5393 25.3369 17.7622L25.3341 17.7879C25.7775 17.7874 26.2371 17.7928 26.679 17.7822L27.3031 17.787L27.3047 17.8311C26.7393 17.8815 25.9574 17.8731 25.3781 17.8693V18.4014H26.0066C26.0047 18.2825 25.9897 18.1346 26.0418 18.0323C26.1078 18.0976 26.0897 18.3082 26.0871 18.4014C26.2446 18.4015 26.4315 18.3957 26.5849 18.4186C26.4482 18.4072 25.5213 18.4582 25.3459 18.4743C25.3283 21.0572 25.3792 23.7396 25.3254 26.3035C25.1246 26.3015 24.9173 26.2777 24.7346 26.3439C24.6985 26.3917 24.6974 26.4455 24.6886 26.5057L24.6859 26.9394L24.0579 26.9422C24.0691 27.1135 24.0571 27.4033 24.0553 27.5818C23.7281 27.643 22.9816 27.6421 22.8387 27.6813C22.7534 27.8392 22.8883 28.0838 22.8019 28.2391C22.643 28.3161 21.6689 28.3062 21.4283 28.3107C21.4345 28.5486 21.508 28.8189 21.3451 28.987C21.2085 29.0474 20.9606 29.0236 20.8019 29.0197V29.632C20.4396 29.6263 19.9315 29.6517 19.5667 29.6734C19.4712 29.8004 19.5079 30.1118 19.5154 30.2765C19.1129 30.2786 18.6504 30.2971 18.2434 30.3091C18.0658 30.3144 18.2747 30.6725 18.1492 30.8867C17.9652 30.9177 16.9342 30.9506 16.7911 30.8755C16.7644 30.7804 16.7735 30.4272 16.7738 30.3089C16.5574 30.306 15.5752 30.3038 15.4447 30.2255C15.3894 30.0884 15.4475 29.8729 15.4109 29.6793C15.2966 29.6376 14.3246 29.6319 14.1391 29.6302C14.1234 29.3916 14.1352 29.261 14.1559 29.0216C13.8582 28.9761 13.8353 29.0091 13.5507 29.0066C13.3923 28.8165 13.5313 28.5745 13.4726 28.3309C13.3329 28.2855 12.3397 28.2779 12.1333 28.2785C12.136 28.1082 12.1535 27.8218 12.087 27.6788C11.7283 27.6366 11.2397 27.606 10.8823 27.6016C10.8766 27.425 10.9149 27.2372 10.8767 27.0638C10.8539 26.9605 10.7919 26.967 10.6977 26.9356C10.6106 26.9476 10.3455 26.9422 10.2451 26.9426L10.2494 26.4753C10.2244 26.405 10.2203 26.3969 10.1665 26.3454C9.97528 26.2704 9.80796 26.3117 9.60246 26.335L9.5555 17.8371C8.88951 17.8429 8.22345 17.8429 7.55745 17.8371V17.1292C7.12936 17.1166 6.69691 17.1244 6.26839 17.1281V16.4619C6.04255 16.4722 5.85857 16.4783 5.63221 16.4782C5.44391 16.3569 5.63769 16.0799 5.55957 15.9299C5.44713 15.7139 4.55752 15.9154 4.33077 15.8202C4.20692 15.7683 4.30828 15.4322 4.26303 15.2464C4.06954 15.1008 3.39804 15.269 3.07757 15.1791C2.92084 15.0455 3.01735 14.8356 2.97744 14.597C2.89994 14.5549 2.57158 14.5345 2.43963 14.5095C2.40374 14.5103 2.38 14.5016 2.34466 14.4933C2.28179 14.3794 2.30448 14.0125 2.30761 13.8655L1.67897 13.8672L1.67883 5.28827L1.6778 4.64712C1.89027 4.64345 2.11107 4.64654 2.32432 4.64657L3.03023 4.64325L3.02602 4.00678C3.23842 4.00046 3.45985 4.0013 3.67312 3.99908L3.67599 3.38784C3.89955 3.37201 4.09339 3.36718 4.31765 3.36515C4.46441 3.34871 4.7996 3.35509 4.96077 3.3539L4.96067 2.72571C5.17266 2.71153 5.39515 2.71447 5.60842 2.7134L6.32012 2.70378L6.31918 1.99724L6.96342 1.99845L7.60786 1.99646L7.60705 1.35235L8.2587 1.35158L8.26157 0.713263L8.90701 0.715815Z" fill="#A8B8C7"/>
<path d="M18.7557 13.8573L19.4681 13.8612L19.4661 14.5037L20.1163 14.5025C20.3079 14.5034 20.5681 14.4976 20.7539 14.5105L20.7545 15.1467L21.4032 15.1496L21.3971 15.794C21.5835 15.7895 21.8712 15.7736 22.0475 15.8079C22.0442 15.9799 22.0304 16.2702 22.0415 16.4331L22.755 16.436L23.3991 16.4362C23.6084 16.4377 23.8387 16.4342 24.0459 16.4412L24.0429 17.0808L24.6632 17.0815L24.6808 17.0755C24.83 17.0777 25.2092 17.0754 25.3375 17.0996C25.3328 17.3224 25.326 17.5393 25.3369 17.7622L25.3341 17.7879C25.7775 17.7874 26.2371 17.7928 26.679 17.7823L27.3031 17.787L27.3047 17.8311C26.7392 17.8815 25.9574 17.8731 25.3781 17.8693V18.4014H26.0066C26.0047 18.2825 25.9897 18.1346 26.0418 18.0323C26.1078 18.0976 26.0897 18.3082 26.0871 18.4014C26.2446 18.4016 26.4315 18.3957 26.5849 18.4186C26.4482 18.4072 25.5213 18.4582 25.3459 18.4743C25.3283 21.0572 25.3792 23.7396 25.3254 26.3035C25.1246 26.3015 24.9173 26.2777 24.7346 26.3439C24.6985 26.3917 24.6974 26.4455 24.6886 26.5057L24.6859 26.9394L24.0579 26.9422C24.0691 27.1135 24.0571 27.4033 24.0553 27.5818C23.7281 27.643 22.9816 27.6421 22.8387 27.6814C22.7534 27.8392 22.8883 28.0838 22.8019 28.2391C22.643 28.3161 21.6689 28.3062 21.4283 28.3107C21.4345 28.5486 21.508 28.8189 21.3451 28.987C21.2085 29.0474 20.9606 29.0236 20.8019 29.0197V29.632C20.4396 29.6263 19.9315 29.6517 19.5666 29.6734C19.4712 29.8004 19.5079 30.1118 19.5154 30.2765C19.1129 30.2787 18.6504 30.2971 18.2434 30.3091C18.0658 30.3144 18.2747 30.6725 18.1492 30.8867C17.9651 30.9177 16.9342 30.9506 16.7911 30.8755C16.7644 30.7804 16.7735 30.4272 16.7738 30.3089C16.5574 30.306 15.5752 30.3039 15.4447 30.2255C15.3894 30.0884 15.4475 29.873 15.4109 29.6793C15.2966 29.6376 14.3246 29.6319 14.1391 29.6303C14.1234 29.3916 14.1352 29.261 14.1559 29.0217C13.8582 28.9761 13.8353 29.0091 13.5507 29.0066C13.3923 28.8165 13.5313 28.5745 13.4726 28.3309C13.3329 28.2855 12.3397 28.2779 12.1333 28.2785C12.136 28.1082 12.1535 27.8218 12.087 27.6788C11.7283 27.6366 11.2397 27.606 10.8823 27.6016C10.8766 27.4251 10.9149 27.2372 10.8767 27.0638C10.8539 26.9605 10.7919 26.967 10.6977 26.9356C10.6106 26.9476 10.3455 26.9422 10.2451 26.9426L10.2494 26.4753L10.2524 26.3032C10.2141 24.9394 10.2633 23.4923 10.2439 22.1127C10.2086 21.9526 10.2218 21.0844 10.2207 20.8617C10.2098 19.9613 10.2042 19.061 10.2039 18.1606C10.2047 17.9513 10.2276 17.3211 10.1925 17.1535C10.0531 17.1065 9.78247 17.1417 9.60468 17.1089C9.68914 17.0495 10.1076 17.076 10.241 17.0785C10.4153 17.0725 10.7506 17.0465 10.9013 17.0939L10.9297 17.0867L11.5161 17.0786L11.538 17.0824L12.1862 17.0792C12.1815 16.8522 12.1755 16.6623 12.1949 16.4359L12.2519 16.4355L12.8886 16.4358C12.9003 16.247 12.8924 16.001 12.8908 15.8076C13.0344 15.7753 13.3788 15.7889 13.5367 15.7912L14.1737 15.7919C14.1786 15.6521 14.1659 15.2248 14.227 15.1423L14.8318 15.1447L15.4703 15.1445C15.4697 15.0024 15.4511 14.607 15.5013 14.5L16.1566 14.5008L16.1773 14.5052L16.8282 14.4994C17.2538 14.5052 17.6796 14.5062 18.1052 14.5023C18.1111 14.3297 18.1261 14.0165 18.0913 13.8584L18.1133 13.8472C18.3359 13.858 18.5328 13.8592 18.7557 13.8573Z" fill="#1E3B60"/>
<path d="M10.6977 26.9356L10.8904 26.9319L11.5416 26.9431L12.1812 26.9417C12.1822 27.1034 12.1746 27.4335 12.1888 27.5817L12.8963 27.5889L12.8911 28.2197C13.1082 28.224 13.3253 28.227 13.5424 28.2286C13.7487 28.2305 13.9784 28.2273 14.1824 28.235L14.1801 28.9319L14.8277 28.9414L14.8282 29.5813C14.9945 29.5817 15.3198 29.573 15.4733 29.5868C15.519 29.6948 15.4739 30.0485 15.4823 30.2187C15.6448 30.2179 16.0345 30.2048 16.1788 30.2183C16.3939 30.2198 16.609 30.224 16.8241 30.231L16.8437 30.2267L18.0878 30.2264L18.1094 30.2312L18.7546 30.2188C18.8933 30.2048 19.2933 30.2165 19.4513 30.2167C19.4529 30.0067 19.4562 29.7968 19.461 29.5869C19.6376 29.5754 19.9173 29.5831 20.1017 29.5823L20.106 28.9403L20.7502 28.9363L20.7538 28.2344L21.3758 28.2279L21.394 28.2332L22.0382 28.2222L22.0407 27.5865L22.7284 27.5825C22.7639 27.459 22.7505 27.0927 22.7494 26.9447L23.3933 26.9407L24.032 26.9325L24.0579 26.9422C24.0691 27.1135 24.0571 27.4033 24.0553 27.5818C23.7281 27.643 22.9816 27.6421 22.8387 27.6813C22.7534 27.8392 22.8883 28.0838 22.8019 28.2391C22.643 28.3161 21.6689 28.3062 21.4283 28.3107C21.4345 28.5486 21.508 28.8189 21.3451 28.987C21.2085 29.0474 20.9606 29.0235 20.8019 29.0197V29.632C20.4396 29.6263 19.9314 29.6517 19.5666 29.6734C19.4712 29.8004 19.5079 30.1118 19.5154 30.2765C19.1129 30.2786 18.6504 30.2971 18.2434 30.3091C18.0657 30.3144 18.2747 30.6725 18.1492 30.8867C17.9651 30.9177 16.9341 30.9506 16.7911 30.8755C16.7643 30.7803 16.7735 30.4272 16.7738 30.3089C16.5574 30.306 15.5752 30.3038 15.4447 30.2255C15.3894 30.0884 15.4475 29.8729 15.4109 29.6793C15.2966 29.6376 14.3246 29.6319 14.1391 29.6302C14.1234 29.3916 14.1352 29.261 14.1559 29.0216C13.8582 28.9761 13.8353 29.0091 13.5507 29.0066C13.3923 28.8165 13.5312 28.5745 13.4726 28.3309C13.3329 28.2855 12.3397 28.2779 12.1333 28.2785C12.136 28.1082 12.1535 27.8218 12.0869 27.6788C11.7283 27.6366 11.2397 27.606 10.8823 27.6016C10.8766 27.425 10.9149 27.2372 10.8767 27.0638C10.8539 26.9605 10.7919 26.967 10.6977 26.9356Z" fill="#D8DDE2"/>
<path d="M18.0878 30.2264L18.1094 30.2312L18.1058 30.8632C17.686 30.8699 17.2502 30.8634 16.8291 30.863L16.8241 30.2311L16.8437 30.2267L18.0878 30.2264Z" fill="#A8B8C7"/>
<path d="M21.3758 28.228L21.394 28.2333L21.3917 28.9368L20.7502 28.9363L20.7539 28.2344L21.3758 28.228Z" fill="#A8B8C7"/>
<path d="M13.5424 28.2287C13.7487 28.2305 13.9784 28.2273 14.1824 28.235L14.1801 28.9319L13.5428 28.9369L13.5424 28.2287Z" fill="#A8B8C7"/>
<path d="M22.7284 27.5825L22.7462 27.5883L22.7453 28.2214L22.0382 28.2222L22.0407 27.5865L22.7284 27.5825Z" fill="#BECBD2"/>
<path d="M12.1888 27.5817L12.8963 27.5889L12.8911 28.2197L12.1875 28.2193L12.1888 27.5817Z" fill="#BECBD2"/>
<path d="M11.5416 26.9431L12.1812 26.9417C12.1822 27.1035 12.1746 27.4335 12.1888 27.5817L11.5355 27.5797L11.5416 26.9431Z" fill="#576C89"/>
<path d="M22.7494 26.9448L23.3933 26.9408L23.3953 27.5781C23.1925 27.581 22.945 27.5776 22.7461 27.5883L22.7284 27.5825C22.7639 27.459 22.7505 27.0927 22.7494 26.9448Z" fill="#576C89"/>
<path d="M26.679 17.7823L27.3031 17.787L27.3047 17.8311C26.7393 17.8815 25.9574 17.8731 25.3781 17.8693V18.4014H26.0066C26.0047 18.2825 25.9897 18.1346 26.0418 18.0323C26.1078 18.0976 26.0897 18.3082 26.0871 18.4014C26.2446 18.4016 26.4315 18.3957 26.5849 18.4186C26.4482 18.4072 25.5213 18.4582 25.3459 18.4743C25.3283 21.0572 25.3792 23.7396 25.3254 26.3035C25.1246 26.3015 24.9173 26.2777 24.7346 26.344C24.6985 26.3917 24.6974 26.4455 24.6886 26.5057L24.6797 26.2945C24.7202 25.4786 24.6849 24.3035 24.6851 23.457L24.6862 17.8121L24.6916 17.8003L25.3341 17.7879C25.7775 17.7874 26.2371 17.7928 26.679 17.7823Z" fill="#D8DDE2"/>
<path d="M24.6808 17.0755C24.83 17.0777 25.2092 17.0754 25.3375 17.0996C25.3328 17.3225 25.326 17.5393 25.3369 17.7622L25.3341 17.7879L24.6916 17.8003L24.6862 17.8121C24.5413 17.7789 24.2026 17.7899 24.0367 17.7906L24.0429 17.0808L24.6632 17.0815L24.6808 17.0755Z" fill="#8EB5B0"/>
<path d="M24.0429 17.0808L24.6632 17.0815C24.7118 17.2556 24.6772 17.601 24.6916 17.8003L24.6862 17.8121C24.5413 17.7789 24.2026 17.7899 24.0367 17.7906L24.0429 17.0808Z" fill="#BECBD2"/>
<path d="M18.7557 13.8573L19.4681 13.8612L19.4661 14.5037L18.7514 14.5017L18.1052 14.5023C18.1111 14.3297 18.1261 14.0165 18.0913 13.8584L18.1133 13.8472C18.3358 13.858 18.5328 13.8592 18.7557 13.8573Z" fill="#BECBD2"/>
<path d="M18.1133 13.8472C18.3358 13.858 18.5328 13.8592 18.7557 13.8573L18.7514 14.5017L18.1052 14.5023C18.1111 14.3297 18.1261 14.0165 18.0913 13.8584L18.1133 13.8472Z" fill="#A8B8C7"/>
<path d="M22.755 16.436L23.3991 16.4363C23.6084 16.4377 23.8387 16.4342 24.0459 16.4412L24.0429 17.0808L23.4182 17.0772L23.3969 17.083L22.7469 17.0812L22.755 16.436Z" fill="#A8B8C7"/>
<path d="M23.3991 16.4362C23.6084 16.4377 23.8387 16.4342 24.0459 16.4412L24.0429 17.0808L23.4182 17.0772C23.3677 16.9708 23.3952 16.5775 23.3991 16.4362Z" fill="#BECBD2"/>
<path d="M19.4661 14.5038L20.1163 14.5025C20.3079 14.5034 20.5681 14.4976 20.7539 14.5105L20.7545 15.1467C20.54 15.1431 20.3143 15.1483 20.0989 15.15L20.0387 15.1457L19.4614 15.1458L19.4661 14.5038Z" fill="#8EB5B0"/>
<path d="M19.4661 14.5038L20.1163 14.5025C20.1168 14.7079 20.1565 15.0074 20.0387 15.1457L19.4614 15.1458L19.4661 14.5038Z" fill="#BECBD2"/>
<path d="M10.241 17.0785C10.4153 17.0725 10.7506 17.0465 10.9013 17.0939C10.8963 17.3255 10.8887 17.5588 10.8957 17.7903L10.2523 17.7901L10.2512 20.5815C10.2512 21.046 10.2681 21.6623 10.2439 22.1127C10.2086 21.9526 10.2218 21.0844 10.2207 20.8617C10.2098 19.9614 10.2042 19.061 10.2039 18.1606C10.2047 17.9513 10.2276 17.3211 10.1925 17.1535C10.0531 17.1065 9.78247 17.1417 9.60468 17.1089C9.68914 17.0495 10.1076 17.076 10.241 17.0785Z" fill="#BECBD2"/>
<path d="M14.1824 28.235C14.3911 28.2154 14.6146 28.2261 14.8252 28.2306L14.8277 28.9414L14.1801 28.9319L14.1824 28.235Z" fill="#354E71"/>
<path d="M22.0414 16.4331L22.755 16.436L22.7469 17.0812L22.0448 17.0838L22.0414 16.4331Z" fill="#354E71"/>
<path d="M23.4182 17.0772L24.0429 17.0808L24.0367 17.7906L23.3939 17.7893L23.3969 17.0829L23.4182 17.0772Z" fill="#576C89"/>
<path d="M18.7514 14.5016L19.4661 14.5037L19.4614 15.1458L18.7563 15.147L18.7514 14.5016Z" fill="#576C89"/>
<path d="M15.5013 14.5L16.1566 14.5009L16.1773 14.5052L16.1799 15.1471L15.4703 15.1445C15.4697 15.0024 15.4511 14.6071 15.5013 14.5Z" fill="#576C89"/>
<path d="M10.9297 17.0867L11.5161 17.0786L11.538 17.0824L11.5391 17.7886L10.8957 17.7903C10.8887 17.5588 10.8963 17.3255 10.9013 17.0939L10.9297 17.0867Z" fill="#576C89"/>
<path d="M20.1109 28.2341C20.3252 28.2285 20.5396 28.2286 20.7538 28.2344L20.7502 28.9363L20.106 28.9403L20.1109 28.2341Z" fill="#354E71"/>
<path d="M12.2519 16.4355L12.8886 16.4358L12.8918 17.0814C12.6713 17.0809 12.4026 17.088 12.1863 17.0792C12.1815 16.8522 12.1756 16.6623 12.1949 16.4359L12.2519 16.4355Z" fill="#354E71"/>
<path d="M15.4907 29.5822L16.1794 29.5875L16.1788 30.2183C16.0346 30.2048 15.6448 30.2179 15.4823 30.2188C15.4739 30.0485 15.5191 29.6948 15.4733 29.5868L15.4907 29.5822Z" fill="#BECBD2"/>
<path d="M19.4431 29.5827L19.461 29.5869C19.4562 29.7968 19.453 30.0068 19.4513 30.2168C19.2933 30.2165 18.8933 30.2048 18.7546 30.2188L18.7541 29.5858L19.4431 29.5827Z" fill="#BECBD2"/>
<path d="M21.3972 15.794C21.5835 15.7895 21.8712 15.7736 22.0476 15.8079C22.0442 15.9799 22.0304 16.2702 22.0415 16.4331C21.8272 16.4379 21.6135 16.4322 21.3992 16.4284L21.3972 15.794Z" fill="#8392A7"/>
<path d="M24.6797 26.2945L24.6886 26.5057L24.6859 26.9394L24.0579 26.9422L24.032 26.9325C24.0449 26.7779 24.0361 26.467 24.0365 26.3007L24.6797 26.2945Z" fill="#8392A7"/>
<path d="M20.7545 15.1467L21.4032 15.1496L21.3972 15.794L20.7674 15.7912C20.7398 15.6443 20.7524 15.3115 20.7545 15.1467Z" fill="#BECBD2"/>
<path d="M12.8963 27.5889C13.1102 27.5833 13.3241 27.5823 13.5381 27.5858C13.5388 27.7795 13.5319 28.0406 13.5424 28.2287C13.3253 28.227 13.1082 28.224 12.8911 28.2197L12.8963 27.5889Z" fill="#576C89"/>
<path d="M12.8908 15.8076C13.0344 15.7753 13.3788 15.7889 13.5367 15.7912C13.5375 15.9828 13.531 16.2354 13.5411 16.4221C13.4135 16.4439 13.0365 16.4359 12.8886 16.4358C12.9003 16.247 12.8924 16.001 12.8908 15.8076Z" fill="#8392A7"/>
<path d="M10.2524 26.3032C10.4665 26.2988 10.6807 26.2966 10.8949 26.2968L10.8905 26.9319L10.6977 26.9356C10.6106 26.9477 10.3455 26.9422 10.2451 26.9426L10.2494 26.4753L10.2524 26.3032Z" fill="#8392A7"/>
<path d="M18.1104 29.5845L18.7541 29.5858L18.7546 30.2188L18.1094 30.2313L18.0878 30.2264C18.1235 30.1015 18.1111 29.7339 18.1104 29.5845Z" fill="#576C89"/>
<path d="M14.227 15.1423L14.8318 15.1447C14.8256 15.3658 14.8214 15.5714 14.8255 15.7925L14.1737 15.7919C14.1786 15.6521 14.1659 15.2248 14.227 15.1423Z" fill="#576C89"/>
<path d="M21.4004 27.5894L22.0407 27.5865L22.0382 28.2222L21.394 28.2332L21.3758 28.228C21.4032 28.1406 21.3992 27.7089 21.4004 27.5894Z" fill="#576C89"/>
<path d="M20.0989 15.15C20.3143 15.1482 20.54 15.1431 20.7545 15.1467C20.7524 15.3115 20.7398 15.6443 20.7674 15.7912L20.1103 15.7942C20.1113 15.5789 20.1164 15.3645 20.0989 15.15Z" fill="#576C89"/>
<path d="M16.1794 29.5875L16.8224 29.5832C16.8217 29.7327 16.8097 30.1011 16.8437 30.2267L16.8241 30.2311C16.6091 30.224 16.3939 30.2198 16.1788 30.2183L16.1794 29.5875Z" fill="#576C89"/>
<path d="M19.4655 28.9395L20.106 28.9403L20.1017 29.5823C19.9173 29.5831 19.6376 29.5754 19.461 29.5869L19.4431 29.5827C19.4687 29.4937 19.4644 29.0598 19.4655 28.9395Z" fill="#8392A7"/>
<path d="M14.8277 28.9415L15.4686 28.9393C15.4684 29.0761 15.4573 29.4727 15.4907 29.5823L15.4733 29.5868C15.3198 29.573 14.9945 29.5817 14.8282 29.5814L14.8277 28.9415Z" fill="#8392A7"/>
<path d="M2.43964 14.5095C2.65538 14.4934 2.81406 14.4922 3.03058 14.4954C3.24548 14.4988 3.47055 14.5058 3.6845 14.5045L3.67844 15.1331L4.33625 15.1432L4.96844 15.1485C4.96773 15.2751 4.95677 15.6735 4.96908 15.7788L5.61932 15.7929L6.31399 15.792L6.32018 16.4286L6.96346 16.4405L7.60293 16.4392L7.61424 17.0771L8.2522 17.0835L8.25194 17.7804L9.61116 17.7827L9.60468 17.1089C9.78247 17.1417 10.0531 17.1065 10.1925 17.1535C10.2277 17.3211 10.2047 17.9513 10.2039 18.1606C10.2042 19.061 10.2098 19.9614 10.2207 20.8617C10.2219 21.0844 10.2086 21.9526 10.2439 22.1127C10.2633 23.4923 10.2141 24.9394 10.2524 26.3032L10.2494 26.4753C10.2244 26.4051 10.2203 26.3969 10.1665 26.3454C9.97529 26.2705 9.80797 26.3118 9.60246 26.335L9.5555 17.8371C8.88951 17.8429 8.22345 17.8429 7.55746 17.8371V17.1292C7.12936 17.1166 6.69691 17.1244 6.26839 17.1281V16.4619C6.04255 16.4722 5.85857 16.4783 5.63221 16.4782C5.44391 16.3569 5.63769 16.08 5.55957 15.9299C5.44713 15.7139 4.55752 15.9154 4.33077 15.8202C4.20692 15.7683 4.30828 15.4322 4.26303 15.2465C4.06954 15.1009 3.39804 15.269 3.07757 15.1791C2.92084 15.0456 3.01735 14.8357 2.97744 14.597C2.89994 14.5549 2.57158 14.5345 2.43964 14.5095Z" fill="#D8DDE2"/>
<path d="M5.61931 15.7929L6.31398 15.792L6.32017 16.4286L5.61602 16.4241C5.6137 16.2161 5.61782 16.0015 5.61931 15.7929Z" fill="#BECBD2"/>
<path d="M6.96344 16.4405L7.60291 16.4392L7.61422 17.0771C7.42683 17.0668 7.16118 17.0738 6.9675 17.0728L6.96344 16.4405Z" fill="#BECBD2"/>
<path d="M4.33624 15.1432L4.96843 15.1485C4.96772 15.2751 4.95676 15.6734 4.96907 15.7788L4.33373 15.7771C4.32954 15.5704 4.33469 15.351 4.33624 15.1432Z" fill="#BECBD2"/>
<path d="M16.1782 5.29351L16.8147 5.29254L16.8395 13.1624C17.2306 13.1324 17.6671 13.1338 18.0618 13.1393C18.0788 13.0108 18.094 12.8821 18.1075 12.7532C18.1173 13.0293 18.1322 13.574 18.1133 13.8472L18.0913 13.8585C18.1261 14.0165 18.1111 14.3297 18.1052 14.5023C17.6795 14.5062 17.2538 14.5052 16.8282 14.4994L16.1773 14.5052L16.1566 14.5009C16.1903 14.3974 16.1797 13.9899 16.1797 13.8556L16.1782 5.29351Z" fill="#D8DDE2"/>
<path d="M16.8226 13.8575L18.0914 13.8584C18.1261 14.0165 18.1111 14.3297 18.1052 14.5023C17.6796 14.5062 17.2539 14.5052 16.8282 14.4994L16.8226 13.8575Z" fill="#354E71"/>
<path d="M16.1797 13.8556L16.8226 13.8575L16.8282 14.4994L16.1773 14.5052L16.1566 14.5009C16.1903 14.3974 16.1797 13.9899 16.1797 13.8556Z" fill="#A8B8C7"/>
<path d="M6.32011 2.7038L6.5271 2.70904C6.36932 2.74018 6.30873 2.72432 6.30251 2.93276C6.29839 3.07097 6.32146 3.2053 6.31669 3.34577C6.11595 3.34847 5.80165 3.36291 5.61022 3.35282L4.96076 3.35392L4.96066 2.72572C5.17265 2.71155 5.39514 2.71449 5.60842 2.71342L6.32011 2.7038Z" fill="#BECBD2"/>
<path d="M4.96066 2.72571C5.17265 2.71153 5.39514 2.71447 5.60842 2.71341L5.61022 3.35281L4.96076 3.35391L4.96066 2.72571Z" fill="#D8DDE2"/>
<path d="M8.907 0.715815L9.59662 0.711823L9.6018 1.35458C9.26694 1.355 8.9321 1.35313 8.59727 1.34898L8.2587 1.35158L8.26157 0.713263L8.907 0.715815Z" fill="#D8DDE2"/>
<path d="M8.26157 0.713287L8.907 0.71584C8.89827 0.880285 8.92066 1.15879 8.86849 1.26868C8.76643 1.34896 8.74593 1.3279 8.59727 1.349L8.2587 1.3516L8.26157 0.713287Z" fill="#D8DDE2"/>
<path d="M14.1955 15.1416L14.227 15.1423C14.1659 15.2248 14.1786 15.6521 14.1737 15.7919L13.5367 15.7912C13.3788 15.7889 13.0344 15.7753 12.8908 15.8076L12.8723 15.7945C12.901 15.6782 12.8935 15.294 12.8939 15.1535C13.3138 15.1438 13.7788 15.1282 14.1955 15.1416Z" fill="#BECBD2"/>
<path d="M14.8337 13.8679C15.0453 13.8546 15.2591 13.8606 15.4712 13.8631C15.4677 13.9988 15.4399 14.3977 15.5013 14.5C15.4511 14.607 15.4697 15.0024 15.4703 15.1445L14.8318 15.1447L14.8226 14.5012L14.8337 13.8679Z" fill="#BECBD2"/>
<path d="M13.5357 3.35582L14.1791 3.35388C14.1792 3.5231 14.17 3.84179 14.1832 3.99903L13.526 3.99629L12.8916 3.99661L12.8911 3.35443L13.5357 3.35582Z" fill="#BECBD2"/>
<path d="M13.5357 3.35582L14.1791 3.35388C14.1792 3.5231 14.17 3.84179 14.1832 3.99903L13.526 3.99629L13.5357 3.35582Z" fill="#D8DDE2"/>
<path d="M10.2487 1.35777L10.8822 1.36161C10.8848 1.57251 10.8862 1.78342 10.8862 1.99434L10.8697 2.00088L10.2427 1.99505L9.60803 1.99707L9.60181 1.35458L10.2487 1.35777Z" fill="#BECBD2"/>
<path d="M10.2487 1.35779L10.8822 1.36162C10.8849 1.57252 10.8862 1.78343 10.8862 1.99435L10.8697 2.0009L10.2427 1.99507L10.2487 1.35779Z" fill="#D8DDE2"/>
<path d="M2.30759 13.8655C2.5464 13.8614 2.78524 13.8599 3.02407 13.8611L3.03056 14.4954C2.81404 14.4922 2.65536 14.4934 2.43962 14.5095C2.40373 14.5104 2.37998 14.5016 2.34464 14.4933C2.28177 14.3794 2.30447 14.0126 2.30759 13.8655Z" fill="#BECBD2"/>
<path d="M12.1788 15.7913C12.3932 15.7916 12.6623 15.7843 12.8723 15.7945L12.8908 15.8076C12.8924 16.001 12.9003 16.247 12.8886 16.4358L12.2519 16.4355L12.1885 16.3807C12.161 16.2099 12.1749 15.9693 12.1788 15.7913Z" fill="#D8DDE2"/>
<path d="M6.31918 1.99725L6.96342 1.99846L6.96297 2.70616L6.52711 2.70903L6.32012 2.70379L6.31918 1.99725Z" fill="#D8DDE2"/>
<path d="M10.8862 1.99435L11.5414 2.00185L11.5376 2.70827L10.8944 2.70751C10.8941 2.52666 10.9031 2.16175 10.8697 2.0009L10.8862 1.99435Z" fill="#BECBD2"/>
<path d="M15.4702 4.64525L16.1798 4.64435L16.1782 5.29349C16.0087 5.27538 15.6516 5.28524 15.4683 5.2853L15.4702 4.64525Z" fill="#D8DDE2"/>
<path d="M15.4712 13.8631C15.7059 13.8603 15.9455 13.855 16.1797 13.8555C16.1797 13.9899 16.1903 14.3973 16.1566 14.5008L15.5013 14.5C15.4399 14.3977 15.4677 13.9988 15.4712 13.8631Z" fill="#D8DDE2"/>
<path d="M12.1788 2.70939L12.8893 2.70822C12.8897 2.91275 12.8836 3.15317 12.8911 3.35444L12.1793 3.35083L12.1788 2.70939Z" fill="#D8DDE2"/>
<path d="M14.8245 4.00032C15.0057 4.00161 15.2952 3.99539 15.4672 4.0107C15.4674 4.1835 15.4584 4.48269 15.4702 4.64527L14.8136 4.64121L14.8245 4.00032Z" fill="#D8DDE2"/>
<path d="M11.5325 16.4513C11.6659 16.4198 12.0516 16.4215 12.1949 16.4359C12.1755 16.6623 12.1815 16.8522 12.1862 17.0792L11.538 17.0824L11.5161 17.0786C11.554 16.9381 11.5359 16.611 11.5325 16.4513Z" fill="#A8B8C7"/>
<path d="M14.1777 14.5038L14.8226 14.5013L14.8318 15.1447L14.227 15.1423L14.1955 15.1416C14.1663 14.9658 14.1765 14.6907 14.1777 14.5038Z" fill="#D8DDE2"/>
<path d="M7.60706 1.35236L8.25871 1.35159C8.25094 1.57336 8.24666 1.77299 8.25065 1.99477C8.04163 1.99547 7.81518 2.00093 7.60786 1.99648L7.60706 1.35236Z" fill="#BECBD2"/>
<path d="M10.8866 16.4369C11.0858 16.4372 11.3185 16.4316 11.5147 16.4386L11.5325 16.4513C11.5359 16.611 11.554 16.9381 11.5161 17.0785L10.9297 17.0867C10.8646 16.9979 10.8857 16.5737 10.8866 16.4369Z" fill="#D8DDE2"/>
<path d="M4.31766 3.36517C4.46442 3.34874 4.79961 3.35512 4.96077 3.35393L4.96312 3.99411L4.32091 3.99965L4.31766 3.36517Z" fill="#BECBD2"/>
<path d="M1.6778 4.64712C1.89027 4.64345 2.11107 4.64654 2.32432 4.64657L2.32406 5.28472L1.67883 5.28827L1.6778 4.64712Z" fill="#D8DDE2"/>
<path d="M11.5388 15.8122C11.7637 15.7931 11.9529 15.7921 12.1788 15.7914C12.1749 15.9694 12.1609 16.2099 12.1885 16.3807L12.2519 16.4355L12.1949 16.4359C12.0516 16.4215 11.6659 16.4198 11.5325 16.4513L11.5147 16.4386C11.5516 16.3249 11.5392 15.9524 11.5388 15.8122Z" fill="#BECBD2"/>
<path d="M14.1832 3.99902L14.8245 4.00031L14.8136 4.6412L14.1808 4.64233L14.1832 3.99902Z" fill="#BECBD2"/>
<path d="M3.026 4.00679C3.2384 4.00047 3.45983 4.00131 3.67311 3.99908L3.67459 4.64043L3.03021 4.64326L3.026 4.00679Z" fill="#BECBD2"/>
<path d="M10.2552 16.4898C10.4935 16.4376 10.6471 16.424 10.8866 16.437C10.8857 16.5737 10.8646 16.998 10.9297 17.0867L10.9013 17.0939C10.7506 17.0465 10.4153 17.0725 10.241 17.0785C10.2637 16.9207 10.2554 16.6568 10.2552 16.4898Z" fill="#BECBD2"/>
<path d="M3.67599 3.38786C3.89955 3.37204 4.09339 3.3672 4.31766 3.36517L4.32091 3.99965L3.67313 3.9991L3.67599 3.38786Z" fill="#D8DDE2"/>
<path d="M25.3312 0.708424L26.0441 0.708344L26.6846 0.708888C26.6845 0.90635 26.6765 1.16168 26.685 1.35414L27.3292 1.35631L27.9725 1.3558C27.9736 1.55387 27.9687 1.79564 27.9793 1.98976C28.1937 1.99494 28.4045 2.00109 28.6191 1.99717C28.6179 2.19068 28.6061 2.52784 28.6215 2.70979L29.3293 2.71128C29.5419 2.71063 29.7611 2.70715 29.973 2.71005L29.9728 3.35511L30.6165 3.35747C30.832 3.3537 31.0475 3.35279 31.2629 3.35473L31.2543 3.99462L31.9061 4.00442C32.1507 3.99926 32.3732 3.99475 32.6172 4.00545L32.6139 4.63834L32.5924 4.64347C32.6275 4.78272 32.6098 5.12445 32.6062 5.28648L33.2572 5.28703V10.9368C33.2572 11.8763 33.2337 12.9268 33.2598 13.8586C33.2904 14.049 33.264 14.3203 33.264 14.5198C32.8495 14.5463 32.3623 14.5901 31.9523 14.5822C31.9549 14.7291 31.9737 15.0416 31.9296 15.1629C31.6275 15.2902 30.8432 15.1138 30.6739 15.3026C30.6307 15.5846 30.7852 15.6428 30.5936 15.8512C30.2805 15.9168 29.6583 15.7984 29.4054 15.9076C29.3044 16.0926 29.5448 16.4556 29.3354 16.5071C29.1777 16.546 28.8142 16.4692 28.6987 16.5317C28.6269 16.7269 28.7012 16.9559 28.6405 17.1066C28.4593 17.1888 27.946 17.166 27.7386 17.1443C27.0472 17.0721 27.5847 17.7326 27.3047 17.8311L27.3031 17.787L26.679 17.7823C26.2371 17.7928 25.7775 17.7875 25.3341 17.7879L25.3369 17.7622C25.3261 17.5393 25.3329 17.3225 25.3375 17.0996C25.2092 17.0754 24.83 17.0777 24.6808 17.0755L24.6632 17.0815L24.0429 17.0808L24.046 16.4412C23.8387 16.4342 23.6085 16.4377 23.3991 16.4363L22.7551 16.436L22.0415 16.4331C22.0305 16.2702 22.0442 15.9799 22.0476 15.8079C21.8712 15.7737 21.5835 15.7895 21.3972 15.794L21.4032 15.1496L20.7545 15.1467L20.754 14.5105C20.5681 14.4976 20.3079 14.5034 20.1163 14.5025L19.4661 14.5038L19.4681 13.8612L18.7557 13.8573C18.5329 13.8592 18.3359 13.858 18.1133 13.8472C18.1322 13.574 18.1173 13.0293 18.1075 12.7532L18.1105 5.2898C18.3225 5.28442 18.5447 5.28764 18.7576 5.28774L18.755 4.64534L19.4699 4.63821L19.4647 3.99936L20.1107 4.00016L20.7597 3.99401L20.7551 3.35289L21.3998 3.35534L22.0488 3.35067L22.0453 2.70843C22.2785 2.70847 22.5118 2.70597 22.7449 2.70094C22.7589 2.60797 22.7507 2.12347 22.7507 2.00171C22.9695 1.99578 23.179 1.99795 23.3977 2.00079C23.6025 1.99802 23.8447 2.00129 24.046 1.9913L24.0381 1.3548C24.2541 1.35396 24.4702 1.35422 24.6863 1.35556L25.3094 1.35156C25.345 1.24923 25.3318 0.842522 25.3312 0.708424Z" fill="#2D7D6B"/>
<path d="M18.1105 5.28979C18.3225 5.28441 18.5447 5.28763 18.7576 5.28773L18.757 10.982C18.7569 11.9141 18.778 12.9361 18.7557 13.8573C18.5329 13.8592 18.3359 13.858 18.1133 13.8472C18.1322 13.5739 18.1173 13.0293 18.1075 12.7532L18.1105 5.28979Z" fill="#BECBD2"/>
<path d="M33.2597 13.8586C33.2904 14.049 33.2639 14.3203 33.2639 14.5198C32.8495 14.5463 32.3622 14.5901 31.9523 14.5822C31.9549 14.7291 31.9737 15.0416 31.9296 15.1629C31.6275 15.2902 30.8431 15.1138 30.6739 15.3026C30.6307 15.5846 30.7851 15.6428 30.5935 15.8512C30.2804 15.9168 29.6582 15.7984 29.4054 15.9076C29.3044 16.0926 29.5448 16.4556 29.3354 16.5071C29.1776 16.546 28.8142 16.4692 28.6987 16.5317C28.6269 16.7269 28.7012 16.9559 28.6405 17.1066C28.4593 17.1888 27.9459 17.166 27.7386 17.1443C27.0471 17.0721 27.5847 17.7326 27.3047 17.8311L27.3031 17.787L26.679 17.7823L26.6847 17.0845L27.3075 17.0799L27.3266 17.0839C27.4958 17.0812 27.8156 17.0848 27.9717 17.0662C27.9608 16.9006 27.9708 16.6127 27.9714 16.4379L28.5972 16.436L28.6267 16.4436C28.7658 16.426 29.1655 16.4322 29.3239 16.4307C29.3215 16.2287 29.3101 15.9888 29.3394 15.7918L29.9698 15.7882L29.9707 15.1529L30.5933 15.1447C30.6258 15.0186 30.6152 14.6517 30.6148 14.5024C30.8299 14.5017 31.0451 14.5027 31.2602 14.5054L31.8828 14.5006C31.916 14.3744 31.9042 14.0075 31.9035 13.8579L32.611 13.8594L33.2597 13.8586Z" fill="#D8DDE2"/>
<path d="M27.3075 17.0799L27.3266 17.0839C27.3253 17.2205 27.3297 17.6803 27.3031 17.787L26.679 17.7823L26.6847 17.0845L27.3075 17.0799Z" fill="#BECBD2"/>
<path d="M31.9035 13.8579L32.611 13.8594L32.6062 14.5006C32.409 14.5009 32.0889 14.4916 31.9015 14.5064L31.8828 14.5006C31.916 14.3744 31.9042 14.0075 31.9035 13.8579Z" fill="#58968A"/>
<path d="M30.6148 14.5024C30.8299 14.5017 31.0451 14.5027 31.2602 14.5054L31.259 15.1401L30.6135 15.1506L30.5933 15.1446C30.6258 15.0186 30.6152 14.6517 30.6148 14.5024Z" fill="#58968A"/>
<path d="M28.5972 16.436L28.6267 16.4436C28.6249 16.6539 28.6027 16.8565 28.6048 17.0688C28.4747 17.0733 28.0554 17.1082 27.9717 17.0662C27.9608 16.9006 27.9708 16.6127 27.9714 16.4379L28.5972 16.436Z" fill="#BECBD2"/>
<path d="M30.5932 15.1447L30.6135 15.1506C30.611 15.362 30.61 15.5734 30.6105 15.7847L29.9698 15.7882L29.9707 15.1529L30.5932 15.1447Z" fill="#8EB5B0"/>
<path d="M31.8828 14.5006L31.9015 14.5064C31.895 14.7162 31.8928 14.9261 31.895 15.136L31.259 15.1401L31.2602 14.5054L31.8828 14.5006Z" fill="#BECBD2"/>
<path d="M26.038 17.0777L26.6847 17.0845L26.679 17.7823C26.2371 17.7928 25.7775 17.7875 25.3341 17.7879L25.3369 17.7622C25.3261 17.5393 25.3329 17.3225 25.3375 17.0996C25.584 17.0846 25.7916 17.0735 26.038 17.0777Z" fill="#58968A"/>
<path d="M25.3375 17.0996C25.584 17.0846 25.7916 17.0735 26.038 17.0777C26.036 17.3229 26.0398 17.5034 25.9961 17.7448L25.3369 17.7622C25.3261 17.5393 25.3329 17.3225 25.3375 17.0996Z" fill="#3C8676"/>
<path d="M29.3293 2.71126C29.5419 2.71061 29.761 2.70713 29.973 2.71003L29.9728 3.35509L29.3172 3.35264L28.618 3.35403L28.6215 2.70977L29.3293 2.71126Z" fill="#58968A"/>
<path d="M29.3293 2.71126C29.5419 2.71061 29.761 2.70713 29.973 2.71003L29.9728 3.35509L29.3172 3.35264L29.3293 2.71126Z" fill="#BECBD2"/>
<path d="M25.3311 0.708424L26.0441 0.708344L26.6846 0.708888C26.6845 0.90635 26.6765 1.16168 26.685 1.35414L26.0505 1.35409L25.3296 1.35622L25.3094 1.35156C25.345 1.24923 25.3318 0.842522 25.3311 0.708424Z" fill="#BECBD2"/>
<path d="M26.0441 0.708344L26.6846 0.708888C26.6845 0.90635 26.6765 1.16168 26.685 1.35414L26.0505 1.35409C26.0286 1.18454 26.0411 0.889238 26.0441 0.708344Z" fill="#D8DDE2"/>
<path d="M24.0381 1.3548C24.2541 1.35397 24.4702 1.35422 24.6863 1.35557L25.3094 1.35156L25.3296 1.35623L25.3355 1.99541L24.6925 1.99746L24.0627 1.99784L24.046 1.9913L24.0381 1.3548Z" fill="#58968A"/>
<path d="M24.0381 1.35479C24.2541 1.35396 24.4702 1.35421 24.6863 1.35555C24.6873 1.55069 24.6812 1.80754 24.6925 1.99744L24.0627 1.99782L24.046 1.99129L24.0381 1.35479Z" fill="#D8DDE2"/>
<path d="M27.3292 1.35629L27.9725 1.35579C27.9736 1.55385 27.9687 1.79563 27.9793 1.98975L27.9578 1.99778L27.3226 1.99814L26.6841 1.99885L26.685 1.35413L27.3292 1.35629Z" fill="#8EB5B0"/>
<path d="M27.3291 1.35631L27.9725 1.3558C27.9736 1.55387 27.9687 1.79564 27.9793 1.98976L27.9578 1.99779L27.3226 1.99815L27.3291 1.35631Z" fill="#D8DDE2"/>
<path d="M22.7507 2.00169C22.9695 1.99576 23.179 1.99793 23.3977 2.00077C23.3969 2.16185 23.4041 2.5699 23.3838 2.71076L22.7674 2.70849L22.7449 2.70092C22.7589 2.60795 22.7507 2.12345 22.7507 2.00169Z" fill="#D8DDE2"/>
<path d="M19.4699 4.63821L19.4896 4.64418C19.4508 4.79835 19.466 5.11504 19.4683 5.28687L18.7576 5.28774L18.755 4.64534L19.4699 4.63821Z" fill="#8EB5B0"/>
<path d="M22.0639 15.7958C22.2951 15.7928 22.5267 15.7878 22.7579 15.7946C22.7562 16.0062 22.7518 16.2251 22.7551 16.436L22.0415 16.4331C22.0304 16.2702 22.0442 15.9799 22.0476 15.8079L22.0639 15.7958Z" fill="#BECBD2"/>
<path d="M31.9061 4.0044C32.1507 3.99924 32.3732 3.99473 32.6171 4.00543L32.6139 4.63833L32.5923 4.64345L31.9172 4.64548C31.8954 4.5219 31.9053 4.14858 31.9061 4.0044Z" fill="#D8DDE2"/>
<path d="M24.046 1.9913L24.0627 1.99783C24.0267 2.16092 24.0424 2.52288 24.0445 2.70617L23.3838 2.71079C23.4041 2.56992 23.3969 2.16187 23.3977 2.00079C23.6025 1.99802 23.8447 2.0013 24.046 1.9913Z" fill="#8EB5B0"/>
<path d="M27.9578 1.99777L27.9793 1.98975C28.1936 1.99493 28.4045 2.00108 28.6191 1.99715C28.6179 2.19067 28.606 2.52782 28.6215 2.70977L27.9667 2.70656C27.9696 2.49239 27.9814 2.20354 27.9578 1.99777Z" fill="#8EB5B0"/>
<path d="M29.3174 15.7822L29.3393 15.7918C29.3101 15.9888 29.3215 16.2287 29.3239 16.4307C29.1654 16.4322 28.7657 16.426 28.6267 16.4436L28.5972 16.436C28.6221 16.3448 28.6177 15.9136 28.6187 15.7919C28.8517 15.7938 29.0846 15.7905 29.3174 15.7822Z" fill="#8EB5B0"/>
<path d="M22.7449 2.70093L22.7674 2.7085C22.7413 2.91599 22.7528 3.14288 22.7567 3.35326L22.0724 3.35684L22.0488 3.35065L22.0453 2.70842C22.2785 2.70845 22.5117 2.70596 22.7449 2.70093Z" fill="#8EB5B0"/>
<path d="M31.9173 4.64549L32.5923 4.64346C32.6275 4.78271 32.6097 5.12444 32.6062 5.28648L31.8983 5.27916C31.8911 5.07353 31.934 4.82174 31.9173 4.64549Z" fill="#3C8676"/>
<path d="M30.6165 3.35746C30.832 3.35369 31.0475 3.35278 31.2629 3.35472L31.2543 3.99461L31.2364 3.99973L30.6077 3.99725L30.6165 3.35746Z" fill="#D8DDE2"/>
<path d="M20.7539 14.5105C20.962 14.506 21.1902 14.4963 21.3965 14.4978L21.4032 15.1496L20.7545 15.1467L20.7539 14.5105Z" fill="#3C8676"/>
<path d="M24.0459 16.4412C24.2592 16.4336 24.4727 16.4311 24.6862 16.4339C24.6846 16.6385 24.6889 16.8739 24.6808 17.0755L24.6632 17.0815L24.0429 17.0808L24.0459 16.4412Z" fill="#58968A"/>
<path d="M19.4681 13.8612C19.679 13.8596 19.8983 13.8549 20.1084 13.8582C20.1094 14.0223 20.1019 14.3517 20.1163 14.5025L19.4661 14.5038L19.4681 13.8612Z" fill="#58968A"/>
<path d="M20.7551 3.35287L21.3998 3.35532L21.4052 3.99998L20.7788 3.99995L20.7596 3.99399L20.7551 3.35287Z" fill="#BECBD2"/>
<path d="M19.4647 3.99936L20.1107 4.00016C20.113 4.20938 20.1107 4.43664 20.1183 4.64399L19.4896 4.64418L19.4699 4.63822L19.4647 3.99936Z" fill="#D8DDE2"/>
<path d="M22.7579 15.7946L23.3993 15.792L23.3991 16.4363L22.7551 16.436C22.7518 16.2251 22.7562 16.0062 22.7579 15.7946Z" fill="#58968A"/>
<path d="M29.3258 15.1534C29.5523 15.1435 29.7439 15.1467 29.9707 15.1529L29.9698 15.7882L29.3394 15.7918L29.3174 15.7822C29.3321 15.6568 29.3251 15.2962 29.3258 15.1534Z" fill="#3C8676"/>
<path d="M22.0488 3.35065L22.0724 3.35683C22.0184 3.48197 22.0434 3.83572 22.0437 3.99672C21.9025 3.99843 21.5281 4.01216 21.4052 3.99998L21.3998 3.35532L22.0488 3.35065Z" fill="#58968A"/>
<path d="M31.2543 3.9946L31.9061 4.0044C31.9053 4.14858 31.8954 4.52189 31.9172 4.64548L31.2555 4.64C31.258 4.47848 31.2744 4.13765 31.2364 3.99972L31.2543 3.9946Z" fill="#8EB5B0"/>
<path d="M20.7596 3.99399L20.7788 3.99995C20.7359 4.14326 20.7533 4.47455 20.7554 4.64129L20.1183 4.64397C20.1107 4.43662 20.113 4.20936 20.1107 4.00014L20.7596 3.99399Z" fill="#58968A"/>
<path d="M27.3306 16.435L27.9714 16.4379C27.9708 16.6127 27.9608 16.9006 27.9717 17.0662C27.8156 17.0847 27.4958 17.0812 27.3266 17.0838L27.3075 17.0799C27.334 16.9898 27.3295 16.5566 27.3306 16.435Z" fill="#58968A"/>
<path d="M29.9728 3.3551L30.6165 3.35746L30.6077 3.99725L29.9691 3.99554L29.9728 3.3551Z" fill="#58968A"/>
<path d="M21.4032 15.1496L22.0432 15.148C22.0433 15.29 22.0343 15.6784 22.0639 15.7959L22.0476 15.8079C21.8712 15.7737 21.5835 15.7895 21.3972 15.794L21.4032 15.1496Z" fill="#8EB5B0"/>
<path d="M22.7674 2.7085L23.3838 2.71076C23.3702 2.77504 23.401 3.20003 23.3962 3.34362L22.7567 3.35326C22.7528 3.14287 22.7412 2.91599 22.7674 2.7085Z" fill="#3C8676"/>
<path d="M32.5923 4.64346L32.6139 4.63834L33.2594 4.64088L33.2572 5.28702L32.6062 5.28648C32.6098 5.12444 32.6275 4.78271 32.5923 4.64346Z" fill="#8EB5B0"/>
</svg>
