<svg width="64" height="75" viewBox="0 -3.43723 64 75" fill="none" xmlns="http://www.w3.org/2000/svg">
<circle cx="32" cy="32" r="32" transform="matrix(-1 0 0 1 64 7.56277)" fill="white"/>
<circle cx="32" cy="32" r="30.5" transform="matrix(-1 0 0 1 64 7.56277)" stroke="black" stroke-opacity="0.05" stroke-width="3"/>
<mask id="mask0_2671_9938" style="mask-type:alpha" maskUnits="userSpaceOnUse" x="2" y="-2" width="59" height="72">
<path d="M2.50001 35.5628C2.50001 54.8406 14.2351 69.0475 32.4118 69.0475C51.5 69.0475 60.5 53.6663 60.5 34.3885C62.4544 12.1688 54.5 -5.11153 32.4118 -0.763713C14.2351 -0.763713 2.50001 16.2849 2.50001 35.5628Z" fill="#BDBFBC"/>
</mask>
<g mask="url(#mask0_2671_9938)">
<path d="M94.3161 42.8405L86.9642 50.4933L81.931 47.4294L77.5495 58.1547L54.483 70.876L26.914 76.2087L6.64365 67.1783L15.0984 39.3687L9.07583 35.9257L9.77074 31.3772L12.5504 29.0608L16.1408 29.0608L19.1521 14.0042L36.0619 6.12844L42.3502 1.1482L48.5743 4.73861L37.1797 15.4895L42.3502 22.9614L48.5743 39.9856L47.8221 52.0373L44.4757 54.9906L54.7138 67.1783L72.9275 59.5161L80.0731 41.9516L80.4492 35.9257L82.7259 34.6929L84.1727 37.9454L88.0925 32.4157L100.393 35.7956L94.3161 42.8405Z" fill="white"/>
<path d="M40.6645 0.658536C39.8082 1.03527 37.9588 2.47369 36.5547 3.87787C34.123 6.27526 31.6572 8.15891 31.0407 8.15891C30.8694 8.15891 31.1777 7.54244 31.7256 6.75473C33.0613 4.93957 33.3353 3.56964 32.6504 2.50794C31.5887 0.864023 28.9515 1.65174 26.6569 4.25461C25.8349 5.17931 24.9445 6.44649 24.6362 7.06296L24.0883 8.15891L23.6773 7.13146C22.5814 4.56284 20.3895 7.02872 19.6017 11.7207L19.3963 13.0564L18.3003 11.9947C16.7934 10.5905 15.9372 10.2138 14.1905 10.2138C12.6151 10.2138 11.5534 10.933 11.5534 12.029C11.5534 12.7482 13.2658 13.8441 14.944 14.1524L16.1769 14.3921L13.985 15.1456C12.5123 15.625 11.5534 16.173 11.0739 16.7895C10.4232 17.7142 10.4232 17.7484 11.0739 18.4677C11.6561 19.1184 11.9986 19.1869 14.2248 19.0499C16.2797 18.9129 16.6906 18.9814 16.5194 19.3581C16.3824 19.8033 15.6632 26.6872 15.6632 27.9202C15.6632 28.1942 15.2522 28.3654 14.67 28.3654C11.3822 28.3654 8.81353 30.7628 8.74503 33.9479C8.71078 36.5508 10.1492 38.3659 13.0261 39.2906C14.6357 39.8386 14.8412 41.0373 13.3343 41.0373C11.0739 41.0373 3.43654 44.2909 1.34739 46.1745C1.00491 46.4485 0.0802072 47.2362 -0.776 47.9212C-4.64606 51.0378 -9.8518 57.0997 -13.5849 62.7165C-17.8317 69.1894 -24.1333 82.8545 -26.1197 89.8411C-26.2567 90.3891 -26.702 91.8618 -27.1129 93.0605C-28.6884 97.8895 -31.531 110.356 -31.8392 113.918C-31.942 115.288 -32.1817 116.486 -32.3529 116.589C-32.5242 116.726 -35.0928 116.863 -38.0382 116.966C-43.3124 117.103 -43.9289 117.171 -43.4836 117.651C-43.3466 117.753 -3.17338 117.856 45.8017 117.856C113.819 117.89 134.95 117.788 135.258 117.48C135.566 117.171 135.395 117.069 134.471 117.034C133.854 117.034 132.142 116.966 130.737 116.932C129.333 116.863 126.525 116.795 124.504 116.76L120.805 116.726L120.805 115.767C120.805 114.911 121.011 114.74 122.21 114.363C126.422 113.096 128.306 108.095 125.6 105.356C124.778 104.534 124.367 104.397 122.723 104.397C121.079 104.397 120.805 104.294 120.805 103.746C120.805 103.403 120.6 103.027 120.326 102.924C119.538 102.616 106.969 102.684 106.455 102.992C106.113 103.232 106.044 104.602 106.113 110.013L106.25 116.726L98.4413 116.726L90.6327 116.726L90.8725 115.938C90.9752 115.527 91.5917 114.192 92.2082 112.959C92.7904 111.726 93.7151 109.637 94.263 108.335C94.7768 107 95.3932 105.458 95.633 104.91C97.4824 100.39 99.4688 95.2866 100.77 91.5878C101.626 89.1562 102.62 86.4848 102.996 85.6628C103.373 84.8066 103.681 84.0532 103.681 83.9504C103.681 83.8819 95.633 83.8819 85.8037 83.9504C71.8647 84.0189 67.7549 84.1559 67.2069 84.4984C66.8302 84.7381 66.0767 86.1081 65.5287 87.5465C64.9807 89.0192 64.193 91.0398 63.7478 92.0673C60.734 99.2252 59.7408 101.657 58.1311 105.767C57.1721 108.301 56.0077 111.246 55.5967 112.274L54.8432 114.157L53.1651 114.26C51.6582 114.363 51.5554 114.329 51.9664 113.815C52.4116 113.301 52.2746 113.061 51.0417 111.897L49.6033 110.561L50.5965 110.561C51.8636 110.561 52.4801 109.602 51.9321 108.438C51.4184 107.239 48.7128 105.561 46.0072 104.773C43.5071 103.986 38.952 103.814 36.9656 104.362C36.3834 104.534 35.8697 104.602 35.8697 104.465C35.8697 104.191 37.2739 97.4785 39.089 88.9849C39.774 85.8683 40.8699 80.5598 41.5207 77.1693C42.2056 73.7787 43.0618 69.3606 43.4728 67.3057C43.8838 65.2851 44.329 63.6412 44.5003 63.6412C44.8427 63.6412 44.6373 65.8673 43.918 69.5319C43.4386 72.169 43.2673 71.9293 46.3154 73.4704C52.2746 76.5185 59.09 77.3405 65.4945 75.7308C67.3439 75.2856 73.0976 72.7855 73.5428 72.2375C73.6456 72.1348 74.5018 71.4155 75.4265 70.6621C79.228 67.6482 81.3172 65.2166 83.5091 61.415C84.7078 59.3259 88.1669 51.8598 88.9546 49.5309C89.2971 48.6404 90.804 46.9622 94.0233 43.9141C99.0236 39.1536 100.907 36.722 101.181 34.5644C101.421 32.9204 100.77 32.4752 99.1948 33.0574L98.2016 33.4342L98.7153 32.5095C99.8455 30.2833 98.4071 29.4271 95.8042 30.7628C94.3658 31.5163 94.2288 31.4478 94.811 30.3861C95.359 29.3244 94.8795 28.3654 93.7493 28.3654C93.2014 28.3654 92.3794 28.5024 91.8657 28.7079C90.4957 29.2216 87.6874 32.03 86.112 34.4616C84.742 36.6193 84.7078 36.6535 84.4338 35.7288C83.8858 33.6054 82.0707 32.8519 80.735 34.1876C79.8788 35.0438 79.776 35.5918 79.6048 40.1811C79.4678 43.1264 79.2623 44.3594 78.6458 45.832C77.6184 48.2979 77.0019 49.2569 76.4197 49.2569C76.1799 49.2569 75.4265 50.3186 74.7073 51.6543C73.1318 54.6681 69.6043 58.8122 67.6521 59.9766C65.3232 61.3123 62.1381 62.2712 59.8777 62.2712C55.5282 62.2712 50.1512 59.7369 46.5209 56.0038L45.3907 54.8051L46.7607 53.5722C48.8498 51.6543 49.6375 49.7021 49.843 45.7636C50.0485 41.6538 49.2608 36.9275 47.6511 32.7492C46.0414 28.5367 41.6234 19.8033 39.774 17.1662C39.226 16.4128 39.2603 16.3785 41.1097 15.5565C47.4114 12.7824 51.5554 6.10401 49.2265 2.40519C47.8224 0.144804 43.6783 -0.711396 40.6645 0.658536ZM44.2263 3.05592C45.3222 3.91213 45.3907 5.28206 44.466 7.30271C43.3016 9.87133 38.7808 13.1934 36.8629 12.8852C36.2122 12.8167 36.4177 12.6112 37.9588 11.7892C40.185 10.5563 43.1646 7.81643 43.7468 6.4465C44.2263 5.24781 44.0893 4.04911 43.4043 3.60388C42.5139 3.05591 39.8767 4.59709 37.4109 7.06296C35.0477 9.46034 34.4655 9.59734 36.3149 7.26845C37.8903 5.3163 39.637 3.80938 41.3837 3.02167C43.2331 2.19971 43.1303 2.19971 44.2263 3.05592ZM27.9926 16.3785C30.5955 17.1662 34.5683 17.4059 36.8971 16.9607C38.3013 16.6867 38.0273 16.3443 41.0069 22.0295C46.3497 32.167 48.3703 38.5029 48.3018 44.8046C48.3018 46.8595 48.0621 49.1541 47.7539 50.1131L47.2744 51.8255L46.8292 50.8666C46.3839 49.9761 45.8017 49.5994 45.8017 50.2843C45.8017 50.4556 45.9729 51.0035 46.2127 51.483C46.5552 52.2365 46.5209 52.4762 45.9387 53.0584L45.2195 53.7434L44.7743 52.2707C44.2605 50.5241 43.8838 51.072 44.3975 52.853L44.74 54.1201L43.1303 54.8394C41.7604 55.4558 40.9042 55.5586 37.4109 55.5586C34.6025 55.5243 32.7531 55.3531 31.5887 54.9763C30.6639 54.6681 29.842 54.4626 29.7735 54.5654C29.4995 54.8394 31.6571 55.6956 33.6435 56.1065C34.7737 56.3463 35.8012 56.6545 35.9382 56.7573C36.1779 56.9627 34.0545 68.025 32.8216 73.0595C32.4449 74.5664 31.8284 77.272 31.4517 79.0529C31.0749 80.8338 29.7392 86.93 28.4721 92.581C27.2049 98.232 26.1089 103.369 26.0404 103.986C25.8692 105.082 25.8007 105.116 24.602 104.91C20.5607 104.328 16.9989 103.472 12.8206 102.136C4.94346 99.6019 0.285694 96.2798 -1.70071 91.7933C-3.03639 88.7109 -2.86515 83.6079 -1.11849 76.998C-0.912996 76.1418 0.0117084 73.0595 0.936413 70.1483C3.91602 60.6273 4.36124 58.4354 3.67628 57.134C3.2653 56.3805 2.95707 56.3463 0.696677 56.997C0.217201 57.134 -0.0910351 57.0655 -0.0910351 56.86C-0.0910351 56.2093 2.54609 55.5928 3.47079 56.038C5.21746 56.8258 4.97771 59.3259 2.23785 68.9497C1.48439 71.5868 0.730923 74.1896 0.593929 74.7719C-1.94045 83.7449 -2.24868 87.4095 -0.776004 91.1768C0.0117066 93.2659 2.88857 96.7935 3.36804 96.2798C3.50504 96.1428 3.95026 94.1564 4.327 91.896C4.73798 89.6356 5.35444 86.3135 5.73117 84.5326C6.10791 82.7517 7.20385 77.3405 8.16281 72.5457C9.12176 67.751 9.94372 63.7782 9.97797 63.7439C10.0122 63.6754 10.5944 64.0521 11.2452 64.5316C12.6151 65.5591 15.355 66.8605 17.2386 67.3742C19.1565 67.9222 23.4033 67.8537 25.7664 67.2372C28.9515 66.381 34.7395 63.0932 34.123 62.4425C34.0203 62.374 32.5134 62.9562 30.7324 63.7782C26.6911 65.6276 24.5335 66.1413 21.0059 66.107C17.1359 66.107 13.4713 64.9769 10.9369 63.0247L10.1492 62.4082L12.3754 52.168C13.574 46.517 14.7042 41.3113 14.807 40.6263C14.944 39.8386 15.2865 39.2564 15.6632 39.1536C15.9714 39.0509 16.5536 38.6399 16.8961 38.2632L17.5468 37.544L16.0057 37.7837C12.9576 38.2974 11.9986 38.1262 10.6629 36.7905C9.70398 35.8315 9.49849 35.3521 9.49849 34.2219C9.49849 31.208 11.5191 29.2559 14.533 29.2559C15.5262 29.2559 16.5194 29.4271 16.7591 29.6668C17.3414 30.2491 18.3346 30.1806 20.047 29.3929C21.2799 28.8449 21.4854 28.6052 21.4854 27.6804L21.4854 26.6187L20.3895 27.475C19.773 27.9202 18.814 28.3997 18.2318 28.5367C17.4441 28.7079 17.7181 28.4339 19.3278 27.4407C21.3484 26.2078 21.4854 26.0708 21.4854 24.8378C21.4854 24.1186 21.2457 22.372 20.9374 20.9678C20.3895 18.2964 20.4579 17.7484 21.2114 18.3307C21.4512 18.5361 22.2389 18.8101 22.9923 18.9129C23.9855 19.1184 24.4308 19.0156 24.9445 18.5704C25.8007 17.8169 25.7664 17.3717 24.8417 16.2073C24.1225 15.2826 24.1225 15.2483 24.739 15.4195C25.1157 15.5565 26.5884 15.9675 27.9926 16.3785ZM19.8072 23.1597C19.3963 23.9131 17.0674 25.7625 16.8276 25.5228C16.6564 25.3858 19.6017 22.5432 19.9442 22.5432C20.047 22.5432 19.9785 22.8172 19.8072 23.1597ZM93.7493 29.4956C93.7493 29.9751 92.3794 32.2697 90.0505 35.6261C89.0916 37.0302 88.7148 37.8179 88.9888 37.9207C89.2285 37.9892 89.571 37.8179 89.7765 37.544C92.1054 34.3589 97.8591 29.9751 97.8591 31.345C97.8591 31.9272 96.2152 34.2561 94.3658 36.2425C93.2699 37.4412 92.3794 38.5029 92.3794 38.6742C92.3794 39.2906 93.0986 38.9481 94.7425 37.4755C97.5509 34.9753 100.257 33.2972 100.257 34.0164C100.257 34.4959 98.8523 36.8932 97.8591 38.1262C97.2769 38.8796 95.0508 41.277 92.9274 43.4347C90.8382 45.5923 88.8861 47.7157 88.6121 48.0924C88.1326 48.7432 87.6531 48.8459 83.3721 49.0514C80.8035 49.1884 78.5431 49.2226 78.3718 49.1199C78.2348 49.0171 78.5773 47.9897 79.1253 46.791C80.05 44.9073 80.187 44.1881 80.3582 40.3866C80.598 35.9 81.009 34.5301 82.0707 34.5301C83.0296 34.5301 83.5433 36.2083 83.4063 38.7769C83.3036 41.2428 83.5776 41.6195 84.9818 40.9688C86.0435 40.4893 87.9614 40.866 89.0916 41.7565C89.8108 42.3045 89.982 42.3387 89.982 41.962C89.982 41.14 87.7216 39.9413 86.1805 39.9413C85.153 39.9756 84.8448 39.8386 84.8448 39.3934C84.879 37.3385 88.9546 31.756 91.6602 30.0093C93.3726 28.9476 93.7493 28.8449 93.7493 29.4956ZM82.7214 51.62C82.3104 52.716 81.7282 53.9832 81.3857 54.4284C80.8035 55.2161 80.735 55.2161 80.735 54.5654C80.735 53.7092 82.8584 49.5994 83.3036 49.5994C83.3721 49.5994 83.1324 50.4898 82.7214 51.62ZM85.8037 52.9215C85.7352 53.6407 85.4955 53.9147 84.879 53.9832C83.5776 54.1886 83.1666 53.4352 84.1256 52.6475C85.29 51.6885 85.9407 51.7913 85.8037 52.9215ZM-12.2492 70.4566C-13.4821 73.2992 -14.6466 76.5185 -15.0233 78.1967C-16.5302 85.0121 -16.77 89.9781 -15.674 93.7797C-13.8931 100.116 -12.1122 102.65 -5.879 107.65C-5.12554 108.232 -0.776005 110.733 0.0117061 111.007C0.696672 111.281 0.799415 111.931 0.114449 111.931C-0.125289 111.931 -1.39247 111.349 -2.72816 110.63C-12.2834 105.39 -16.5987 99.1909 -17.1124 90.1151C-17.4549 83.9162 -16.085 78.2652 -12.0437 69.1894C-11.4957 68.0249 -11.0162 67.066 -10.9135 67.066C-10.8108 67.066 -11.4272 68.6072 -12.2492 70.4566ZM68.4398 86.6903C68.0973 87.478 67.4124 89.0192 66.9329 90.1151C66.0424 92.1015 59.1243 108.952 57.6174 112.787C57.1721 113.918 56.7269 115.253 56.6242 115.767L56.4187 116.726L43.7468 116.726C31.3147 116.726 31.0749 116.726 31.0749 116.041C31.0749 115.219 31.3147 115.219 45.6305 115.288C54.6378 115.356 56.1447 115.253 56.0077 114.534C55.9049 114.123 56.9666 111.315 58.6791 107.411C59.3298 105.938 59.8435 104.671 59.8435 104.568C59.8435 104.465 60.1517 103.643 60.5627 102.753C60.9737 101.862 61.4874 100.664 61.7272 100.116C62.1724 99.1567 66.5904 88.1287 67.3096 86.2451C67.5151 85.7313 67.9261 85.3546 68.3371 85.3203C69.0563 85.2519 69.0563 85.2861 68.4398 86.6903ZM101.626 86.6218C101.215 87.3753 100.462 89.1562 99.914 90.6288C98.9893 93.1632 95.907 100.732 94.948 102.855C94.5028 103.883 94.1261 104.739 91.1122 112.274C90.256 114.431 89.434 116.349 89.297 116.486C89.0573 116.76 57.7886 116.829 57.5489 116.589C57.4461 116.521 58.5421 113.541 59.9462 110.013C61.3504 106.452 63.5423 100.835 64.7753 97.547C66.0082 94.2592 67.5151 90.2521 68.1658 88.6424L69.296 85.7313L72.5496 85.5601C74.3305 85.4573 81.7282 85.3546 89.0573 85.3203L102.311 85.2519L101.626 86.6218ZM119.504 109.774C119.573 112.924 119.778 115.801 119.915 116.11C120.258 116.829 119.299 116.932 112.346 116.795L107.106 116.692L107.106 110.596C107.106 107.239 107.175 104.431 107.243 104.362C107.312 104.294 110.086 104.191 113.374 104.123L119.367 104.02L119.504 109.774ZM46.7606 106.383C48.9183 107.239 50.9389 108.609 50.9389 109.226C50.9389 109.637 49.7745 109.363 46.2127 108.13C41.8974 106.623 40.0137 106.931 43.3358 108.575C44.2263 109.02 45.3222 109.637 45.8017 109.911C49.6375 112.308 50.254 112.719 50.117 112.856C49.843 113.13 46.4867 111.966 44.5688 110.938C42.4111 109.739 42.3769 109.705 42.3769 110.356C42.3769 110.767 43.3358 111.52 45.9044 113.096C46.4182 113.404 46.8291 113.815 46.8291 113.986C46.8291 114.671 44.9112 114.157 43.2673 113.061C42.3769 112.445 41.4864 111.931 41.3152 111.931C40.5959 111.931 41.0754 112.959 42.1371 113.609L43.2331 114.329L36.9999 114.329C31.5544 114.329 30.6982 114.397 30.1845 114.911C29.842 115.253 29.0543 115.562 28.4036 115.562L27.2391 115.596L27.4446 114.192C27.5473 113.438 27.7186 111.589 27.8556 110.116C28.0268 107.993 28.1638 107.479 28.6433 107.479C28.9515 107.479 31.0407 107.034 33.3011 106.486C35.5615 105.938 37.8903 105.424 38.4383 105.321C40.6302 105.013 44.603 105.527 46.7606 106.383ZM123.682 105.424C124.915 105.869 125.908 107.616 125.703 108.952C125.429 110.801 122.997 113.301 121.49 113.301C120.771 113.301 121.182 111.897 122.21 110.972C123.922 109.431 123.443 107.137 121.422 107.137C121.011 107.137 120.805 106.897 120.805 106.349C120.805 105.904 120.908 105.424 121.045 105.321C121.353 104.979 122.689 105.047 123.682 105.424ZM21.3142 108.609C21.2457 109.02 21.0059 110.733 20.8004 112.445C20.5949 114.123 20.3552 115.596 20.2525 115.664C19.4647 116.452 19.6017 112.068 20.4922 108.746C20.8347 107.411 21.5196 107.274 21.3142 108.609ZM122.518 108.849C122.518 109.534 121.662 110.561 121.079 110.561C120.805 110.561 120.84 109.26 121.114 107.548C121.148 107.513 121.456 107.616 121.833 107.821C122.21 108.027 122.518 108.472 122.518 108.849ZM5.08046 113.267C8.12856 114.363 15.0125 115.664 21.9991 116.486C26.0404 117 25.9377 117 13.1631 116.932L0.217195 116.897L0.422684 115.356C0.833664 112.274 0.970659 111.863 1.55288 112.034C1.89536 112.137 3.47079 112.685 5.08046 113.267Z" fill="black"/>
<path d="M34.1571 20.317C34.1571 21.0705 35.2873 23.1939 37.3764 26.4475C39.534 29.8038 41.3492 32.7834 41.3492 32.9889C41.3492 33.0574 40.767 33.2286 40.082 33.3314C38.0614 33.6739 37.5476 33.8794 37.7531 34.2218C38.0614 34.7013 40.1848 34.5986 41.5547 34.0163C42.6506 33.5711 42.7534 33.3999 42.5479 32.5779C42.2739 31.3792 40.3903 28.2626 38.1299 25.1118C37.1709 23.7761 35.938 22.0637 35.4242 21.2417C34.431 19.7006 34.1571 19.4951 34.1571 20.317Z" fill="black"/>
<path d="M39.6365 24.3582C39.6365 24.8376 40.5954 26.3446 41.1434 26.7213C41.8969 27.2008 42.0681 26.3788 41.4859 25.1459C40.9037 23.9472 39.6365 23.3992 39.6365 24.3582Z" fill="black"/>
<path d="M32.6846 25.5227C31.9654 26.2077 33.3696 29.3927 34.3628 29.3927C35.493 29.3927 35.3902 27.3721 34.1573 26.0364C33.4038 25.2487 33.0614 25.1117 32.6846 25.5227Z" fill="black"/>
<path d="M19.876 30.1805C18.506 30.8655 18.0265 31.5162 18.6773 31.9272C19.1567 32.2012 21.1089 31.071 21.3486 30.3518C21.6226 29.3928 21.4856 29.3928 19.876 30.1805Z" fill="black"/>
<path d="M13.0599 31.1053C12.6489 31.2766 12.2037 31.5848 12.0325 31.8246C11.8612 32.1328 11.964 32.167 12.4434 31.9615C14.7723 31.0026 15.8683 31.5163 16.2108 33.7425C16.4162 35.1809 16.4847 35.2836 16.7587 34.5644C17.1697 33.4 16.519 31.6191 15.4573 31.1396C14.4641 30.6944 14.0531 30.6944 13.0599 31.1053Z" fill="black"/>
<path d="M29.7045 34.3247C29.7045 36.0371 34.191 38.4344 37.4104 38.4344C39.4995 38.4344 41.8284 37.6467 42.1366 36.7905C42.2394 36.5165 41.8626 36.585 41.0749 36.996C40.0817 37.5097 39.294 37.6467 37.4104 37.5097C34.7732 37.3728 32.9238 36.585 30.9032 34.8384C29.9785 34.0164 29.7045 33.9137 29.7045 34.3247Z" fill="black"/>
<path d="M19.8071 40.2495C20.1496 41.9619 20.4579 42.5784 20.4579 41.4824C20.4579 40.3522 20.0469 38.6398 19.7729 38.6398C19.6359 38.6398 19.6701 39.359 19.8071 40.2495Z" fill="black"/>
<path d="M40.6643 51.5518C40.6643 51.6888 40.8355 52.0655 41.0068 52.3395C41.2808 52.7847 41.3493 52.7847 41.3493 52.271C41.3493 51.9628 41.2123 51.586 41.0068 51.4833C40.8355 51.3805 40.6643 51.3805 40.6643 51.5518Z" fill="black"/>
<path d="M42.274 52.3735C42.411 52.8188 42.548 52.99 42.6507 52.716C42.7192 52.4763 42.6165 52.0995 42.4452 51.9283C42.1712 51.6543 42.137 51.7913 42.274 52.3735Z" fill="black"/>
<path d="M18.8136 5.59026C18.5738 6.06973 18.4026 6.89169 18.4026 7.40542L18.4026 8.29587L17.3752 7.13143C16.8272 6.48071 16.382 6.13823 16.3477 6.37797C16.3477 7.06293 18.1629 9.52881 18.5738 9.39182C18.7451 9.35757 19.0191 8.60411 19.1561 7.7479C19.2588 6.85744 19.4643 5.82999 19.6013 5.45326C19.9095 4.42581 19.2931 4.56281 18.8136 5.59026Z" fill="black"/>
</g>
</svg>
